<?xml version="1.0" encoding="us-ascii" standalone="no"?><svg xmlns="http://www.w3.org/2000/svg" xmlns:xlink="http://www.w3.org/1999/xlink" contentStyleType="text/css" height="431px" preserveAspectRatio="none" style="width:736px;height:431px;background:#FFFFFF;" version="1.1" viewBox="0 0 736 431" width="736px" zoomAndPan="magnify"><defs/><g><rect fill="#FFFFFF" height="240.7949" style="stroke:#181818;stroke-width:1.0;" width="10" x="25.5" y="91.4883"/><rect fill="#FFFFFF" height="219.4844" style="stroke:#181818;stroke-width:1.0;" width="10" x="348.5" y="112.7988"/><rect fill="#FFFFFF" height="102.2422" style="stroke:#181818;stroke-width:1.0;" width="10" x="516.5" y="200.7305"/><line style="stroke:#181818;stroke-width:0.5;stroke-dasharray:5.0,5.0;" x1="30" x2="30" y1="81.4883" y2="350.2832"/><line style="stroke:#181818;stroke-width:0.5;stroke-dasharray:5.0,5.0;" x1="353.5" x2="353.5" y1="81.4883" y2="350.2832"/><line style="stroke:#181818;stroke-width:0.5;stroke-dasharray:5.0,5.0;" x1="521" x2="521" y1="81.4883" y2="350.2832"/><text fill="#000000" font-family="sans-serif" font-size="14" lengthAdjust="spacing" textLength="45" x="5" y="78.5352">Admin</text><ellipse cx="30.5" cy="13.5" fill="#E2E2F0" rx="8" ry="8" style="stroke:#181818;stroke-width:0.5;"/><path d="M30.5,21.5 L30.5,48.5 M17.5,29.5 L43.5,29.5 M30.5,48.5 L17.5,63.5 M30.5,48.5 L43.5,63.5 " fill="none" style="stroke:#181818;stroke-width:0.5;"/><text fill="#000000" font-family="sans-serif" font-size="14" lengthAdjust="spacing" textLength="45" x="5" y="362.8184">Admin</text><ellipse cx="30.5" cy="374.2715" fill="#E2E2F0" rx="8" ry="8" style="stroke:#181818;stroke-width:0.5;"/><path d="M30.5,382.2715 L30.5,409.2715 M17.5,390.2715 L43.5,390.2715 M30.5,409.2715 L17.5,424.2715 M30.5,409.2715 L43.5,424.2715 " fill="none" style="stroke:#181818;stroke-width:0.5;"/><rect fill="#E2E2F0" height="30.4883" rx="2.5" ry="2.5" style="stroke:#181818;stroke-width:0.5;" width="28" x="339.5" y="50"/><text fill="#000000" font-family="sans-serif" font-size="14" lengthAdjust="spacing" textLength="14" x="346.5" y="70.5352">UI</text><rect fill="#E2E2F0" height="30.4883" rx="2.5" ry="2.5" style="stroke:#181818;stroke-width:0.5;" width="28" x="339.5" y="349.2832"/><text fill="#000000" font-family="sans-serif" font-size="14" lengthAdjust="spacing" textLength="14" x="346.5" y="369.8184">UI</text><rect fill="#E2E2F0" height="30.4883" rx="2.5" ry="2.5" style="stroke:#181818;stroke-width:0.5;" width="71" x="486" y="50"/><text fill="#000000" font-family="sans-serif" font-size="14" lengthAdjust="spacing" textLength="57" x="493" y="70.5352">Backend</text><rect fill="#E2E2F0" height="30.4883" rx="2.5" ry="2.5" style="stroke:#181818;stroke-width:0.5;" width="71" x="486" y="349.2832"/><text fill="#000000" font-family="sans-serif" font-size="14" lengthAdjust="spacing" textLength="57" x="493" y="369.8184">Backend</text><rect fill="#FFFFFF" height="240.7949" style="stroke:#181818;stroke-width:1.0;" width="10" x="25.5" y="91.4883"/><rect fill="#FFFFFF" height="219.4844" style="stroke:#181818;stroke-width:1.0;" width="10" x="348.5" y="112.7988"/><rect fill="#FFFFFF" height="102.2422" style="stroke:#181818;stroke-width:1.0;" width="10" x="516.5" y="200.7305"/><polygon fill="#181818" points="336.5,108.7988,346.5,112.7988,336.5,116.7988,340.5,112.7988" style="stroke:#181818;stroke-width:1.0;"/><line style="stroke:#181818;stroke-width:1.0;" x1="35.5" x2="342.5" y1="112.7988" y2="112.7988"/><text fill="#000000" font-family="sans-serif" font-size="13" lengthAdjust="spacing" textLength="294" x="42.5" y="108.0566">Make a request to create a new Operation Type</text><polygon fill="#181818" points="46.5,138.1094,36.5,142.1094,46.5,146.1094,42.5,142.1094" style="stroke:#181818;stroke-width:1.0;"/><line style="stroke:#181818;stroke-width:1.0;stroke-dasharray:2.0,2.0;" x1="40.5" x2="347.5" y1="142.1094" y2="142.1094"/><text fill="#000000" font-family="sans-serif" font-size="13" lengthAdjust="spacing" textLength="199" x="52.5" y="137.3672">Asks the necessary information</text><polygon fill="#181818" points="336.5,167.4199,346.5,171.4199,336.5,175.4199,340.5,171.4199" style="stroke:#181818;stroke-width:1.0;"/><line style="stroke:#181818;stroke-width:1.0;" x1="35.5" x2="342.5" y1="171.4199" y2="171.4199"/><text fill="#000000" font-family="sans-serif" font-size="13" lengthAdjust="spacing" textLength="221" x="42.5" y="166.6777">Provides the necessary information</text><polygon fill="#181818" points="504.5,196.7305,514.5,200.7305,504.5,204.7305,508.5,200.7305" style="stroke:#181818;stroke-width:1.0;"/><line style="stroke:#181818;stroke-width:1.0;" x1="358.5" x2="510.5" y1="200.7305" y2="200.7305"/><text fill="#000000" font-family="sans-serif" font-size="13" lengthAdjust="spacing" textLength="139" x="365.5" y="195.9883">requests an http POST</text><line style="stroke:#181818;stroke-width:1.0;" x1="526.5" x2="568.5" y1="260.6621" y2="260.6621"/><line style="stroke:#181818;stroke-width:1.0;" x1="568.5" x2="568.5" y1="260.6621" y2="273.6621"/><line style="stroke:#181818;stroke-width:1.0;" x1="527.5" x2="568.5" y1="273.6621" y2="273.6621"/><polygon fill="#181818" points="537.5,269.6621,527.5,273.6621,537.5,277.6621,533.5,273.6621" style="stroke:#181818;stroke-width:1.0;"/><text fill="#000000" font-family="sans-serif" font-size="13" lengthAdjust="spacing" textLength="163" x="533.5" y="225.2988">receive request body info,</text><text fill="#000000" font-family="sans-serif" font-size="13" lengthAdjust="spacing" textLength="196" x="533.5" y="240.6094">creates the new operation Type</text><text fill="#000000" font-family="sans-serif" font-size="13" lengthAdjust="spacing" textLength="99" x="533.5" y="255.9199">and saves in DB</text><polygon fill="#181818" points="369.5,298.9727,359.5,302.9727,369.5,306.9727,365.5,302.9727" style="stroke:#181818;stroke-width:1.0;"/><line style="stroke:#181818;stroke-width:1.0;stroke-dasharray:2.0,2.0;" x1="363.5" x2="520.5" y1="302.9727" y2="302.9727"/><text fill="#000000" font-family="sans-serif" font-size="13" lengthAdjust="spacing" textLength="57" x="375.5" y="298.2305">response</text><polygon fill="#181818" points="41.5,328.2832,31.5,332.2832,41.5,336.2832,37.5,332.2832" style="stroke:#181818;stroke-width:1.0;"/><line style="stroke:#181818;stroke-width:1.0;stroke-dasharray:2.0,2.0;" x1="35.5" x2="352.5" y1="332.2832" y2="332.2832"/><text fill="#000000" font-family="sans-serif" font-size="13" lengthAdjust="spacing" textLength="146" x="47.5" y="327.541">Success/Error message</text><!--SRC=[VP4zRiCm38LtdO87QD0zGu04xT2XI82aMnP6PXl1iAIIZ8FSlfHLrtKATD8VtyVtAFIQ6DPD5oAuZAp1XunHuUq50CMMsUq6VKknAI-dkdKElOOUbIh5kGfRh4oxX5Ti2H2OFYya2fh0CvLYX4XNs6PYr90Y76wP9fIrDGCBWrJQ4jRI2kYPJEP91Fa68RudxWRvlEcEKnyQ-g- -q5TZ1iD_6nJ026VL3Blj_Z3v6SEEWZkjfz3JJyXJQcgpXsEiQKSdLqYpmCU8HX3ihSBiFssc1aEK0IuvHI7Nq1ytToFQNto9-lZCR7_QbTGVCvrDzTUfVjSN]--></g></svg>