<?xml version="1.0" encoding="us-ascii" standalone="no"?><svg xmlns="http://www.w3.org/2000/svg" xmlns:xlink="http://www.w3.org/1999/xlink" contentStyleType="text/css" height="492px" preserveAspectRatio="none" style="width:1139px;height:492px;background:#FFFFFF;" version="1.1" viewBox="0 0 1139 492" width="1139px" zoomAndPan="magnify"><defs/><g><rect fill="#FFFFFF" height="363.7344" style="stroke:#181818;stroke-width:1.0;" width="10" x="51.5" y="65.2188"/><rect fill="#FFFFFF" height="332.3828" style="stroke:#181818;stroke-width:1.0;" width="10" x="272.5" y="87.5703"/><rect fill="#FFFFFF" height="211.4609" style="stroke:#181818;stroke-width:1.0;" width="10" x="567" y="178.1406"/><rect fill="#FFFFFF" height="150.7578" style="stroke:#181818;stroke-width:1.0;" width="10" x="680" y="208.4922"/><rect fill="#FFFFFF" height="90.0547" style="stroke:#181818;stroke-width:1.0;" width="10" x="922" y="238.8438"/><line style="stroke:#181818;stroke-width:0.5;stroke-dasharray:5.0,5.0;" x1="56" x2="56" y1="55.2188" y2="437.9531"/><line style="stroke:#181818;stroke-width:0.5;stroke-dasharray:5.0,5.0;" x1="277" x2="277" y1="55.2188" y2="437.9531"/><line style="stroke:#181818;stroke-width:0.5;stroke-dasharray:5.0,5.0;" x1="458.5" x2="458.5" y1="135.6797" y2="437.9531"/><line style="stroke:#181818;stroke-width:0.5;stroke-dasharray:5.0,5.0;" x1="571.5" x2="571.5" y1="55.2188" y2="437.9531"/><line style="stroke:#181818;stroke-width:0.5;stroke-dasharray:5.0,5.0;" x1="684.5" x2="684.5" y1="55.2188" y2="437.9531"/><line style="stroke:#181818;stroke-width:0.5;stroke-dasharray:5.0,5.0;" x1="927" x2="927" y1="55.2188" y2="437.9531"/><rect fill="#E2E2F0" height="49.2188" rx="2.5" ry="2.5" style="stroke:#181818;stroke-width:0.5;" width="103" x="5" y="5"/><text fill="#000000" font-family="sans-serif" font-size="14" font-style="italic" lengthAdjust="spacing" textLength="89" x="12" y="26.5332">&#171;Component&#187;</text><text fill="#000000" font-family="sans-serif" font-size="14" lengthAdjust="spacing" textLength="29" x="42" y="44.1426">View</text><rect fill="#E2E2F0" height="49.2188" rx="2.5" ry="2.5" style="stroke:#181818;stroke-width:0.5;" width="103" x="5" y="436.9531"/><text fill="#000000" font-family="sans-serif" font-size="14" font-style="italic" lengthAdjust="spacing" textLength="89" x="12" y="458.4863">&#171;Component&#187;</text><text fill="#000000" font-family="sans-serif" font-size="14" lengthAdjust="spacing" textLength="29" x="42" y="476.0957">View</text><rect fill="#E2E2F0" height="49.2188" rx="2.5" ry="2.5" style="stroke:#181818;stroke-width:0.5;" width="103" x="226" y="5"/><text fill="#000000" font-family="sans-serif" font-size="14" font-style="italic" lengthAdjust="spacing" textLength="89" x="233" y="26.5332">&#171;Component&#187;</text><text fill="#000000" font-family="sans-serif" font-size="14" lengthAdjust="spacing" textLength="73" x="241" y="44.1426">Component</text><rect fill="#E2E2F0" height="49.2188" rx="2.5" ry="2.5" style="stroke:#181818;stroke-width:0.5;" width="103" x="226" y="436.9531"/><text fill="#000000" font-family="sans-serif" font-size="14" font-style="italic" lengthAdjust="spacing" textLength="89" x="233" y="458.4863">&#171;Component&#187;</text><text fill="#000000" font-family="sans-serif" font-size="14" lengthAdjust="spacing" textLength="73" x="241" y="476.0957">Component</text><rect fill="#E2E2F0" height="49.2188" rx="2.5" ry="2.5" style="stroke:#181818;stroke-width:0.5;" width="103" x="407.5" y="436.9531"/><text fill="#000000" font-family="sans-serif" font-size="14" font-style="italic" lengthAdjust="spacing" textLength="89" x="414.5" y="458.4863">&#171;Component&#187;</text><text fill="#000000" font-family="sans-serif" font-size="14" lengthAdjust="spacing" textLength="38" x="440" y="476.0957">Model</text><rect fill="#E2E2F0" height="49.2188" rx="2.5" ry="2.5" style="stroke:#181818;stroke-width:0.5;" width="103" x="520.5" y="5"/><text fill="#000000" font-family="sans-serif" font-size="14" font-style="italic" lengthAdjust="spacing" textLength="89" x="527.5" y="26.5332">&#171;Component&#187;</text><text fill="#000000" font-family="sans-serif" font-size="14" lengthAdjust="spacing" textLength="47" x="548.5" y="44.1426">Service</text><rect fill="#E2E2F0" height="49.2188" rx="2.5" ry="2.5" style="stroke:#181818;stroke-width:0.5;" width="103" x="520.5" y="436.9531"/><text fill="#000000" font-family="sans-serif" font-size="14" font-style="italic" lengthAdjust="spacing" textLength="89" x="527.5" y="458.4863">&#171;Component&#187;</text><text fill="#000000" font-family="sans-serif" font-size="14" lengthAdjust="spacing" textLength="47" x="548.5" y="476.0957">Service</text><rect fill="#E2E2F0" height="49.2188" rx="2.5" ry="2.5" style="stroke:#181818;stroke-width:0.5;" width="103" x="633.5" y="5"/><text fill="#000000" font-family="sans-serif" font-size="14" font-style="italic" lengthAdjust="spacing" textLength="89" x="640.5" y="26.5332">&#171;Component&#187;</text><text fill="#000000" font-family="sans-serif" font-size="14" lengthAdjust="spacing" textLength="74" x="648" y="44.1426">HTTPDriver</text><rect fill="#E2E2F0" height="49.2188" rx="2.5" ry="2.5" style="stroke:#181818;stroke-width:0.5;" width="103" x="633.5" y="436.9531"/><text fill="#000000" font-family="sans-serif" font-size="14" font-style="italic" lengthAdjust="spacing" textLength="89" x="640.5" y="458.4863">&#171;Component&#187;</text><text fill="#000000" font-family="sans-serif" font-size="14" lengthAdjust="spacing" textLength="74" x="648" y="476.0957">HTTPDriver</text><rect fill="#E2E2F0" height="49.2188" rx="2.5" ry="2.5" style="stroke:#181818;stroke-width:0.5;" width="124" x="865" y="5"/><text fill="#000000" font-family="sans-serif" font-size="14" font-style="italic" lengthAdjust="spacing" textLength="110" x="872" y="26.5332">&#171;Container (C4)&#187;</text><text fill="#000000" font-family="sans-serif" font-size="14" lengthAdjust="spacing" textLength="80" x="887" y="44.1426">MastersData</text><rect fill="#E2E2F0" height="49.2188" rx="2.5" ry="2.5" style="stroke:#181818;stroke-width:0.5;" width="124" x="865" y="436.9531"/><text fill="#000000" font-family="sans-serif" font-size="14" font-style="italic" lengthAdjust="spacing" textLength="110" x="872" y="458.4863">&#171;Container (C4)&#187;</text><text fill="#000000" font-family="sans-serif" font-size="14" lengthAdjust="spacing" textLength="80" x="887" y="476.0957">MastersData</text><rect fill="#FFFFFF" height="363.7344" style="stroke:#181818;stroke-width:1.0;" width="10" x="51.5" y="65.2188"/><rect fill="#FFFFFF" height="332.3828" style="stroke:#181818;stroke-width:1.0;" width="10" x="272.5" y="87.5703"/><rect fill="#FFFFFF" height="211.4609" style="stroke:#181818;stroke-width:1.0;" width="10" x="567" y="178.1406"/><rect fill="#FFFFFF" height="150.7578" style="stroke:#181818;stroke-width:1.0;" width="10" x="680" y="208.4922"/><rect fill="#FFFFFF" height="90.0547" style="stroke:#181818;stroke-width:1.0;" width="10" x="922" y="238.8438"/><polygon fill="#181818" points="260.5,83.5703,270.5,87.5703,260.5,91.5703,264.5,87.5703" style="stroke:#181818;stroke-width:1.0;"/><line style="stroke:#181818;stroke-width:1.0;" x1="61.5" x2="266.5" y1="87.5703" y2="87.5703"/><text fill="#000000" font-family="sans-serif" font-size="13" lengthAdjust="spacing" textLength="192" x="68.5" y="82.7139">click to delete a opeation request</text><polygon fill="#181818" points="395.5,113.9219,405.5,117.9219,395.5,121.9219,399.5,117.9219" style="stroke:#181818;stroke-width:1.0;"/><line style="stroke:#181818;stroke-width:1.0;" x1="282.5" x2="401.5" y1="117.9219" y2="117.9219"/><text fill="#000000" font-family="sans-serif" font-size="13" lengthAdjust="spacing" textLength="101" x="289.5" y="113.0654">get the id in route</text><rect fill="#E2E2F0" height="49.2188" rx="2.5" ry="2.5" style="stroke:#181818;stroke-width:0.5;" width="103" x="407.5" y="95.5703"/><text fill="#000000" font-family="sans-serif" font-size="14" font-style="italic" lengthAdjust="spacing" textLength="89" x="414.5" y="117.1035">&#171;Component&#187;</text><text fill="#000000" font-family="sans-serif" font-size="14" lengthAdjust="spacing" textLength="38" x="440" y="134.7129">Model</text><polygon fill="#181818" points="555,174.1406,565,178.1406,555,182.1406,559,178.1406" style="stroke:#181818;stroke-width:1.0;"/><line style="stroke:#181818;stroke-width:1.0;" x1="282.5" x2="561" y1="178.1406" y2="178.1406"/><text fill="#000000" font-family="sans-serif" font-size="13" lengthAdjust="spacing" textLength="161" x="289.5" y="173.2842">delete the operation request</text><polygon fill="#181818" points="668,204.4922,678,208.4922,668,212.4922,672,208.4922" style="stroke:#181818;stroke-width:1.0;"/><line style="stroke:#181818;stroke-width:1.0;" x1="577" x2="674" y1="208.4922" y2="208.4922"/><text fill="#000000" font-family="sans-serif" font-size="13" lengthAdjust="spacing" textLength="50" x="584" y="203.6357">DELETE</text><polygon fill="#181818" points="910,234.8438,920,238.8438,910,242.8438,914,238.8438" style="stroke:#181818;stroke-width:1.0;"/><line style="stroke:#181818;stroke-width:1.0;" x1="690" x2="916" y1="238.8438" y2="238.8438"/><text fill="#000000" font-family="sans-serif" font-size="13" lengthAdjust="spacing" textLength="213" x="697" y="233.9873">DELETE (/api/operationRequests/:id)</text><line style="stroke:#181818;stroke-width:1.0;" x1="932" x2="974" y1="285.5469" y2="285.5469"/><line style="stroke:#181818;stroke-width:1.0;" x1="974" x2="974" y1="285.5469" y2="298.5469"/><line style="stroke:#181818;stroke-width:1.0;" x1="933" x2="974" y1="298.5469" y2="298.5469"/><polygon fill="#181818" points="943,294.5469,933,298.5469,943,302.5469,939,298.5469" style="stroke:#181818;stroke-width:1.0;"/><text fill="#000000" font-family="sans-serif" font-size="13" lengthAdjust="spacing" textLength="134" x="939" y="264.3389">validates all information</text><text fill="#000000" font-family="sans-serif" font-size="13" lengthAdjust="spacing" textLength="193" x="939" y="280.6904">and deletes the operation request</text><polygon fill="#181818" points="701,324.8984,691,328.8984,701,332.8984,697,328.8984" style="stroke:#181818;stroke-width:1.0;"/><line style="stroke:#181818;stroke-width:1.0;stroke-dasharray:2.0,2.0;" x1="695" x2="926" y1="328.8984" y2="328.8984"/><text fill="#000000" font-family="sans-serif" font-size="13" lengthAdjust="spacing" textLength="53" x="707" y="324.042">response</text><polygon fill="#181818" points="588,355.25,578,359.25,588,363.25,584,359.25" style="stroke:#181818;stroke-width:1.0;"/><line style="stroke:#181818;stroke-width:1.0;stroke-dasharray:2.0,2.0;" x1="582" x2="684" y1="359.25" y2="359.25"/><text fill="#000000" font-family="sans-serif" font-size="13" lengthAdjust="spacing" textLength="53" x="594" y="354.3936">response</text><polygon fill="#181818" points="293.5,385.6016,283.5,389.6016,293.5,393.6016,289.5,389.6016" style="stroke:#181818;stroke-width:1.0;"/><line style="stroke:#181818;stroke-width:1.0;stroke-dasharray:2.0,2.0;" x1="287.5" x2="571" y1="389.6016" y2="389.6016"/><text fill="#000000" font-family="sans-serif" font-size="13" lengthAdjust="spacing" textLength="53" x="299.5" y="384.7451">response</text><polygon fill="#181818" points="72.5,415.9531,62.5,419.9531,72.5,423.9531,68.5,419.9531" style="stroke:#181818;stroke-width:1.0;"/><line style="stroke:#181818;stroke-width:1.0;stroke-dasharray:2.0,2.0;" x1="66.5" x2="276.5" y1="419.9531" y2="419.9531"/><text fill="#000000" font-family="sans-serif" font-size="13" lengthAdjust="spacing" textLength="126" x="78.5" y="415.0967">success/fail message</text><!--SRC=[ZP0nJyCm48Lt_ueRsqee2rDKTMWRYG4a11KJoycvbXEf7UnB-FkSqwGkGn2Jx-pltVcz5eEmvHQTm1lJDs2ydElrpfzRxyZ9PcFQ6-nwdzZSp0kUV4rDWY_5FFXAeMTB2PtAUVZXS7ZU1-uf9Fwc- -CZ68L2tADWqcohWNM2x5ItsDqlLM3G2lSeDEHWXZ3kDjbe2RPX-mdYGTsGSWY-9HJs3W9zTHGbpxZAJ4vAfmr9h5Obd4X0FWYu1bQvxuH-asCGvRGimRekpEmRSJFbfnDoD2NigyVgK6KylvcR15MqhIOO5WMsN5ntlbnMngBaUfadRIkZUOxA7XkkzJO2DeqQE_fm7iJl3bqzMeapNW995r8RDOL8_-rZPot5M1oH6pXhXISoFm00]--></g></svg>