<?xml version="1.0" encoding="us-ascii" standalone="no"?><svg xmlns="http://www.w3.org/2000/svg" xmlns:xlink="http://www.w3.org/1999/xlink" contentStyleType="text/css" height="811px" preserveAspectRatio="none" style="width:1291px;height:811px;background:#FFFFFF;" version="1.1" viewBox="0 0 1291 811" width="1291px" zoomAndPan="magnify"><defs/><g><rect fill="#FFFFFF" height="682.8984" style="stroke:#181818;stroke-width:1.0;" width="10" x="62" y="65.2188"/><rect fill="#FFFFFF" height="651.5469" style="stroke:#181818;stroke-width:1.0;" width="10" x="360" y="87.5703"/><rect fill="#FFFFFF" height="590.8438" style="stroke:#181818;stroke-width:1.0;" width="10" x="450" y="117.9219"/><rect fill="#FFFFFF" height="469.9219" style="stroke:#181818;stroke-width:1.0;" width="10" x="737" y="208.4922"/><rect fill="#FFFFFF" height="28" style="stroke:#181818;stroke-width:1.0;" width="10" x="742" y="489.6563"/><rect fill="#FFFFFF" height="30.3516" style="stroke:#181818;stroke-width:1.0;" width="10" x="1005" y="238.8438"/><rect fill="#FFFFFF" height="30.3516" style="stroke:#181818;stroke-width:1.0;" width="10" x="1128" y="617.7109"/><rect fill="none" height="48.7031" style="stroke:#000000;stroke-width:1.5;" width="306" x="694" y="539.6563"/><line style="stroke:#181818;stroke-width:0.5;stroke-dasharray:5.0,5.0;" x1="67" x2="67" y1="55.2188" y2="757.1172"/><line style="stroke:#181818;stroke-width:0.5;stroke-dasharray:5.0,5.0;" x1="365" x2="365" y1="55.2188" y2="757.1172"/><line style="stroke:#181818;stroke-width:0.5;stroke-dasharray:5.0,5.0;" x1="455" x2="455" y1="55.2188" y2="757.1172"/><line style="stroke:#181818;stroke-width:0.5;stroke-dasharray:5.0,5.0;" x1="664" x2="664" y1="166.0313" y2="757.1172"/><line style="stroke:#181818;stroke-width:0.5;stroke-dasharray:5.0,5.0;" x1="742" x2="742" y1="55.2188" y2="757.1172"/><line style="stroke:#181818;stroke-width:0.5;stroke-dasharray:5.0,5.0;" x1="902.5" x2="902.5" y1="55.2188" y2="757.1172"/><line style="stroke:#181818;stroke-width:0.5;stroke-dasharray:5.0,5.0;" x1="1010" x2="1010" y1="55.2188" y2="757.1172"/><line style="stroke:#181818;stroke-width:0.5;stroke-dasharray:5.0,5.0;" x1="1133" x2="1133" y1="55.2188" y2="757.1172"/><line style="stroke:#181818;stroke-width:0.5;stroke-dasharray:5.0,5.0;" x1="1246" x2="1246" y1="55.2188" y2="757.1172"/><rect fill="#E2E2F0" height="49.2188" rx="2.5" ry="2.5" style="stroke:#181818;stroke-width:0.5;" width="124" x="5" y="5"/><text fill="#000000" font-family="sans-serif" font-size="14" font-style="italic" lengthAdjust="spacing" textLength="110" x="12" y="26.5332">&#171;Container (C4)&#187;</text><text fill="#000000" font-family="sans-serif" font-size="14" lengthAdjust="spacing" textLength="27" x="53.5" y="44.1426">SPA</text><rect fill="#E2E2F0" height="49.2188" rx="2.5" ry="2.5" style="stroke:#181818;stroke-width:0.5;" width="124" x="5" y="756.1172"/><text fill="#000000" font-family="sans-serif" font-size="14" font-style="italic" lengthAdjust="spacing" textLength="110" x="12" y="777.6504">&#171;Container (C4)&#187;</text><text fill="#000000" font-family="sans-serif" font-size="14" lengthAdjust="spacing" textLength="27" x="53.5" y="795.2598">SPA</text><rect fill="#E2E2F0" height="49.2188" rx="2.5" ry="2.5" style="stroke:#181818;stroke-width:0.5;" width="68" x="331" y="5"/><text fill="#000000" font-family="sans-serif" font-size="14" font-style="italic" lengthAdjust="spacing" textLength="54" x="338" y="26.5332">&#171;Route&#187;</text><text fill="#000000" font-family="sans-serif" font-size="14" lengthAdjust="spacing" textLength="38" x="346" y="44.1426">Route</text><rect fill="#E2E2F0" height="49.2188" rx="2.5" ry="2.5" style="stroke:#181818;stroke-width:0.5;" width="68" x="331" y="756.1172"/><text fill="#000000" font-family="sans-serif" font-size="14" font-style="italic" lengthAdjust="spacing" textLength="54" x="338" y="777.6504">&#171;Route&#187;</text><text fill="#000000" font-family="sans-serif" font-size="14" lengthAdjust="spacing" textLength="38" x="346" y="795.2598">Route</text><rect fill="#E2E2F0" height="49.2188" rx="2.5" ry="2.5" style="stroke:#181818;stroke-width:0.5;" width="92" x="409" y="5"/><text fill="#000000" font-family="sans-serif" font-size="14" font-style="italic" lengthAdjust="spacing" textLength="78" x="416" y="26.5332">&#171;Controller&#187;</text><text fill="#000000" font-family="sans-serif" font-size="14" lengthAdjust="spacing" textLength="62" x="424" y="44.1426">Controller</text><rect fill="#E2E2F0" height="49.2188" rx="2.5" ry="2.5" style="stroke:#181818;stroke-width:0.5;" width="92" x="409" y="756.1172"/><text fill="#000000" font-family="sans-serif" font-size="14" font-style="italic" lengthAdjust="spacing" textLength="78" x="416" y="777.6504">&#171;Controller&#187;</text><text fill="#000000" font-family="sans-serif" font-size="14" lengthAdjust="spacing" textLength="62" x="424" y="795.2598">Controller</text><rect fill="#E2E2F0" height="49.2188" rx="2.5" ry="2.5" style="stroke:#181818;stroke-width:0.5;" width="60" x="634" y="756.1172"/><text fill="#000000" font-family="sans-serif" font-size="14" font-style="italic" lengthAdjust="spacing" textLength="46" x="641" y="777.6504">&#171;DTO&#187;</text><text fill="#000000" font-family="sans-serif" font-size="14" lengthAdjust="spacing" textLength="30" x="649" y="795.2598">DTO</text><rect fill="#E2E2F0" height="49.2188" rx="2.5" ry="2.5" style="stroke:#181818;stroke-width:0.5;" width="76" x="704" y="5"/><text fill="#000000" font-family="sans-serif" font-size="14" font-style="italic" lengthAdjust="spacing" textLength="62" x="711" y="26.5332">&#171;Service&#187;</text><text fill="#000000" font-family="sans-serif" font-size="14" lengthAdjust="spacing" textLength="47" x="718.5" y="44.1426">Service</text><rect fill="#E2E2F0" height="49.2188" rx="2.5" ry="2.5" style="stroke:#181818;stroke-width:0.5;" width="76" x="704" y="756.1172"/><text fill="#000000" font-family="sans-serif" font-size="14" font-style="italic" lengthAdjust="spacing" textLength="62" x="711" y="777.6504">&#171;Service&#187;</text><text fill="#000000" font-family="sans-serif" font-size="14" lengthAdjust="spacing" textLength="47" x="718.5" y="795.2598">Service</text><rect fill="#E2E2F0" height="49.2188" rx="2.5" ry="2.5" style="stroke:#181818;stroke-width:0.5;" width="95" x="855.5" y="5"/><text fill="#000000" font-family="sans-serif" font-size="14" font-style="italic" lengthAdjust="spacing" textLength="62" x="872" y="26.5332">&#171;Service&#187;</text><text fill="#000000" font-family="sans-serif" font-size="14" lengthAdjust="spacing" textLength="81" x="862.5" y="44.1426">EmailService</text><rect fill="#E2E2F0" height="49.2188" rx="2.5" ry="2.5" style="stroke:#181818;stroke-width:0.5;" width="95" x="855.5" y="756.1172"/><text fill="#000000" font-family="sans-serif" font-size="14" font-style="italic" lengthAdjust="spacing" textLength="62" x="872" y="777.6504">&#171;Service&#187;</text><text fill="#000000" font-family="sans-serif" font-size="14" lengthAdjust="spacing" textLength="81" x="862.5" y="795.2598">EmailService</text><rect fill="#E2E2F0" height="49.2188" rx="2.5" ry="2.5" style="stroke:#181818;stroke-width:0.5;" width="98" x="961" y="5"/><text fill="#000000" font-family="sans-serif" font-size="14" font-style="italic" lengthAdjust="spacing" textLength="84" x="968" y="26.5332">&#171;Repository&#187;</text><text fill="#000000" font-family="sans-serif" font-size="14" lengthAdjust="spacing" textLength="68" x="976" y="44.1426">Repository</text><rect fill="#E2E2F0" height="49.2188" rx="2.5" ry="2.5" style="stroke:#181818;stroke-width:0.5;" width="98" x="961" y="756.1172"/><text fill="#000000" font-family="sans-serif" font-size="14" font-style="italic" lengthAdjust="spacing" textLength="84" x="968" y="777.6504">&#171;Repository&#187;</text><text fill="#000000" font-family="sans-serif" font-size="14" lengthAdjust="spacing" textLength="68" x="976" y="795.2598">Repository</text><rect fill="#E2E2F0" height="49.2188" rx="2.5" ry="2.5" style="stroke:#181818;stroke-width:0.5;" width="128" x="1069" y="5"/><text fill="#000000" font-family="sans-serif" font-size="14" font-style="italic" lengthAdjust="spacing" textLength="114" x="1076" y="26.5332">&#171;Domain Service&#187;</text><text fill="#000000" font-family="sans-serif" font-size="14" lengthAdjust="spacing" textLength="48" x="1109" y="44.1426">Mapper</text><rect fill="#E2E2F0" height="49.2188" rx="2.5" ry="2.5" style="stroke:#181818;stroke-width:0.5;" width="128" x="1069" y="756.1172"/><text fill="#000000" font-family="sans-serif" font-size="14" font-style="italic" lengthAdjust="spacing" textLength="114" x="1076" y="777.6504">&#171;Domain Service&#187;</text><text fill="#000000" font-family="sans-serif" font-size="14" lengthAdjust="spacing" textLength="48" x="1109" y="795.2598">Mapper</text><rect fill="#E2E2F0" height="49.2188" rx="2.5" ry="2.5" style="stroke:#181818;stroke-width:0.5;" width="78" x="1207" y="5"/><text fill="#000000" font-family="sans-serif" font-size="14" font-style="italic" lengthAdjust="spacing" textLength="64" x="1214" y="26.5332">&#171;Domain&#187;</text><text fill="#000000" font-family="sans-serif" font-size="14" lengthAdjust="spacing" textLength="44" x="1224" y="44.1426">Patient</text><rect fill="#E2E2F0" height="49.2188" rx="2.5" ry="2.5" style="stroke:#181818;stroke-width:0.5;" width="78" x="1207" y="756.1172"/><text fill="#000000" font-family="sans-serif" font-size="14" font-style="italic" lengthAdjust="spacing" textLength="64" x="1214" y="777.6504">&#171;Domain&#187;</text><text fill="#000000" font-family="sans-serif" font-size="14" lengthAdjust="spacing" textLength="44" x="1224" y="795.2598">Patient</text><rect fill="#FFFFFF" height="682.8984" style="stroke:#181818;stroke-width:1.0;" width="10" x="62" y="65.2188"/><rect fill="#FFFFFF" height="651.5469" style="stroke:#181818;stroke-width:1.0;" width="10" x="360" y="87.5703"/><rect fill="#FFFFFF" height="590.8438" style="stroke:#181818;stroke-width:1.0;" width="10" x="450" y="117.9219"/><rect fill="#FFFFFF" height="469.9219" style="stroke:#181818;stroke-width:1.0;" width="10" x="737" y="208.4922"/><rect fill="#FFFFFF" height="28" style="stroke:#181818;stroke-width:1.0;" width="10" x="742" y="489.6563"/><rect fill="#FFFFFF" height="30.3516" style="stroke:#181818;stroke-width:1.0;" width="10" x="1005" y="238.8438"/><rect fill="#FFFFFF" height="30.3516" style="stroke:#181818;stroke-width:1.0;" width="10" x="1128" y="617.7109"/><polygon fill="#181818" points="348,83.5703,358,87.5703,348,91.5703,352,87.5703" style="stroke:#181818;stroke-width:1.0;"/><line style="stroke:#181818;stroke-width:1.0;" x1="72" x2="354" y1="87.5703" y2="87.5703"/><text fill="#000000" font-family="sans-serif" font-size="13" lengthAdjust="spacing" textLength="269" x="79" y="82.7139">PATCH (/api/patients/{medicalRecordNumber})</text><polygon fill="#181818" points="438,113.9219,448,117.9219,438,121.9219,442,117.9219" style="stroke:#181818;stroke-width:1.0;"/><line style="stroke:#181818;stroke-width:1.0;" x1="370" x2="444" y1="117.9219" y2="117.9219"/><text fill="#000000" font-family="sans-serif" font-size="13" lengthAdjust="spacing" textLength="43" x="377" y="113.0654">PATCH</text><polygon fill="#181818" points="622,144.2734,632,148.2734,622,152.2734,626,148.2734" style="stroke:#181818;stroke-width:1.0;"/><line style="stroke:#181818;stroke-width:1.0;" x1="460" x2="628" y1="148.2734" y2="148.2734"/><text fill="#000000" font-family="sans-serif" font-size="13" lengthAdjust="spacing" textLength="150" x="467" y="143.417">recieves request body info</text><rect fill="#E2E2F0" height="49.2188" rx="2.5" ry="2.5" style="stroke:#181818;stroke-width:0.5;" width="60" x="634" y="125.9219"/><text fill="#000000" font-family="sans-serif" font-size="14" font-style="italic" lengthAdjust="spacing" textLength="46" x="641" y="147.4551">&#171;DTO&#187;</text><text fill="#000000" font-family="sans-serif" font-size="14" lengthAdjust="spacing" textLength="30" x="649" y="165.0645">DTO</text><polygon fill="#181818" points="725,204.4922,735,208.4922,725,212.4922,729,208.4922" style="stroke:#181818;stroke-width:1.0;"/><line style="stroke:#181818;stroke-width:1.0;" x1="460" x2="731" y1="208.4922" y2="208.4922"/><text fill="#000000" font-family="sans-serif" font-size="13" lengthAdjust="spacing" textLength="131" x="467" y="203.6357">edits the patient profile</text><polygon fill="#181818" points="993,234.8438,1003,238.8438,993,242.8438,997,238.8438" style="stroke:#181818;stroke-width:1.0;"/><line style="stroke:#181818;stroke-width:1.0;" x1="747" x2="999" y1="238.8438" y2="238.8438"/><text fill="#000000" font-family="sans-serif" font-size="13" lengthAdjust="spacing" textLength="239" x="754" y="233.9873">find the patient by medical record number</text><polygon fill="#181818" points="758,265.1953,748,269.1953,758,273.1953,754,269.1953" style="stroke:#181818;stroke-width:1.0;"/><line style="stroke:#181818;stroke-width:1.0;stroke-dasharray:2.0,2.0;" x1="752" x2="1009" y1="269.1953" y2="269.1953"/><text fill="#000000" font-family="sans-serif" font-size="13" lengthAdjust="spacing" textLength="39" x="764" y="264.3389">patient</text><polygon fill="#181818" points="1234,295.5469,1244,299.5469,1234,303.5469,1238,299.5469" style="stroke:#181818;stroke-width:1.0;"/><line style="stroke:#181818;stroke-width:1.0;" x1="747" x2="1240" y1="299.5469" y2="299.5469"/><text fill="#000000" font-family="sans-serif" font-size="13" lengthAdjust="spacing" textLength="157" x="754" y="294.6904">changes name if not empty</text><polygon fill="#181818" points="1234,325.8984,1244,329.8984,1234,333.8984,1238,329.8984" style="stroke:#181818;stroke-width:1.0;"/><line style="stroke:#181818;stroke-width:1.0;" x1="747" x2="1240" y1="329.8984" y2="329.8984"/><text fill="#000000" font-family="sans-serif" font-size="13" lengthAdjust="spacing" textLength="156" x="754" y="325.042">changes email if not empty</text><polygon fill="#181818" points="1234,356.25,1244,360.25,1234,364.25,1238,360.25" style="stroke:#181818;stroke-width:1.0;"/><line style="stroke:#181818;stroke-width:1.0;" x1="747" x2="1240" y1="360.25" y2="360.25"/><text fill="#000000" font-family="sans-serif" font-size="13" lengthAdjust="spacing" textLength="207" x="754" y="355.3936">changes phone number if not empty</text><polygon fill="#181818" points="1234,386.6016,1244,390.6016,1234,394.6016,1238,390.6016" style="stroke:#181818;stroke-width:1.0;"/><line style="stroke:#181818;stroke-width:1.0;" x1="747" x2="1240" y1="390.6016" y2="390.6016"/><text fill="#000000" font-family="sans-serif" font-size="13" lengthAdjust="spacing" textLength="171" x="754" y="385.7451">changes address if not empty</text><polygon fill="#181818" points="1234,416.9531,1244,420.9531,1234,424.9531,1238,420.9531" style="stroke:#181818;stroke-width:1.0;"/><line style="stroke:#181818;stroke-width:1.0;" x1="747" x2="1240" y1="420.9531" y2="420.9531"/><text fill="#000000" font-family="sans-serif" font-size="13" lengthAdjust="spacing" textLength="233" x="754" y="416.0967">changes medical conditions if not empty</text><polygon fill="#181818" points="998,447.3047,1008,451.3047,998,455.3047,1002,451.3047" style="stroke:#181818;stroke-width:1.0;"/><line style="stroke:#181818;stroke-width:1.0;" x1="747" x2="1004" y1="451.3047" y2="451.3047"/><text fill="#000000" font-family="sans-serif" font-size="13" lengthAdjust="spacing" textLength="108" x="754" y="446.4482">saves the changes</text><line style="stroke:#181818;stroke-width:1.0;" x1="752" x2="794" y1="481.6563" y2="481.6563"/><line style="stroke:#181818;stroke-width:1.0;" x1="794" x2="794" y1="481.6563" y2="494.6563"/><line style="stroke:#181818;stroke-width:1.0;" x1="753" x2="794" y1="494.6563" y2="494.6563"/><polygon fill="#181818" points="763,490.6563,753,494.6563,763,498.6563,759,494.6563" style="stroke:#181818;stroke-width:1.0;"/><text fill="#000000" font-family="sans-serif" font-size="13" lengthAdjust="spacing" textLength="92" x="759" y="476.7998">log the changes</text><path d="M694,539.6563 L755,539.6563 L755,548.0078 L745,558.0078 L694,558.0078 L694,539.6563 " fill="#EEEEEE" style="stroke:#000000;stroke-width:1.5;"/><rect fill="none" height="48.7031" style="stroke:#000000;stroke-width:1.5;" width="306" x="694" y="539.6563"/><text fill="#000000" font-family="sans-serif" font-size="13" font-weight="bold" lengthAdjust="spacing" textLength="16" x="709" y="554.1514">alt</text><text fill="#000000" font-family="sans-serif" font-size="11" font-weight="bold" lengthAdjust="spacing" textLength="225" x="770" y="553.0752">[content editable contains sensitive info]</text><polygon fill="#181818" points="891,576.3594,901,580.3594,891,584.3594,895,580.3594" style="stroke:#181818;stroke-width:1.0;"/><line style="stroke:#181818;stroke-width:1.0;" x1="747" x2="897" y1="580.3594" y2="580.3594"/><text fill="#000000" font-family="sans-serif" font-size="13" lengthAdjust="spacing" textLength="132" x="754" y="575.5029">send email notificiation</text><polygon fill="#181818" points="1116,613.7109,1126,617.7109,1116,621.7109,1120,617.7109" style="stroke:#181818;stroke-width:1.0;"/><line style="stroke:#181818;stroke-width:1.0;" x1="747" x2="1122" y1="617.7109" y2="617.7109"/><text fill="#000000" font-family="sans-serif" font-size="13" lengthAdjust="spacing" textLength="77" x="754" y="612.8545">entity to DTO</text><polygon fill="#181818" points="758,644.0625,748,648.0625,758,652.0625,754,648.0625" style="stroke:#181818;stroke-width:1.0;"/><line style="stroke:#181818;stroke-width:1.0;stroke-dasharray:2.0,2.0;" x1="752" x2="1132" y1="648.0625" y2="648.0625"/><text fill="#000000" font-family="sans-serif" font-size="13" lengthAdjust="spacing" textLength="26" x="764" y="643.2061">DTO</text><polygon fill="#181818" points="471,674.4141,461,678.4141,471,682.4141,467,678.4141" style="stroke:#181818;stroke-width:1.0;"/><line style="stroke:#181818;stroke-width:1.0;stroke-dasharray:2.0,2.0;" x1="465" x2="741" y1="678.4141" y2="678.4141"/><text fill="#000000" font-family="sans-serif" font-size="13" lengthAdjust="spacing" textLength="26" x="477" y="673.5576">DTO</text><polygon fill="#181818" points="381,704.7656,371,708.7656,381,712.7656,377,708.7656" style="stroke:#181818;stroke-width:1.0;"/><line style="stroke:#181818;stroke-width:1.0;stroke-dasharray:2.0,2.0;" x1="375" x2="454" y1="708.7656" y2="708.7656"/><text fill="#000000" font-family="sans-serif" font-size="13" lengthAdjust="spacing" textLength="53" x="387" y="703.9092">response</text><polygon fill="#181818" points="83,735.1172,73,739.1172,83,743.1172,79,739.1172" style="stroke:#181818;stroke-width:1.0;"/><line style="stroke:#181818;stroke-width:1.0;stroke-dasharray:2.0,2.0;" x1="77" x2="364" y1="739.1172" y2="739.1172"/><text fill="#000000" font-family="sans-serif" font-size="13" lengthAdjust="spacing" textLength="53" x="89" y="734.2607">response</text><!--SRC=[ZLF1Rjim3BtxAtXi2movx6GO0OeiHI_hWhG_mDXqGy2ML4a9O0pxzr6MN2lEEYI7c9JU8_b8og3rNBD1vU5rzmZeu6aBLRNHoYChid2t-Nw_NXSc0-xroLE0HgEgnky2529OtNKIGf2P5uD7Py7vyVOhWCEdgkH_SVrAziprc7aogofP2-YsH-uo_8N_5MbFHZlssWwZkDaJXP_EWlCJZOaIaoM5QqccuDyvTkYPv1jaHjn4423MdiyeBNtQ5ZA6R-lOuH9sZs-RPxXReU6LYH7SwdTF3TVOxQdMjdavzGUoV-xd82EtY3EIKDa8Ki0PEjyL6Kn8CeI71y5RgfdEvCJuE97pSD3D0AnQlI1CFIv1YlCE_94WLGp6wfOxcjCcS36HWk2vwoMqh9gB28S1akXGaQW6DShEH7_o2ql-PDN4pPEapfTG7r6zYog5FG6teBG7weqV_ekci4otmyrHAqg5tix2fh7atEs4gJ6rLj9vrkfhxaMJ7OQvXYwdI3bo7cUdtoz0LqDiwEe8En_AyM5qOHtmqD5u89KxSAIa23vJt2EGNvRvuiMM0ToaneiaRkKzOH1Po7bUS7g5idxAin_0wx33SxNnVjgDS7LjIj-Dj8-k_By0]--></g></svg>