<?xml version="1.0" encoding="us-ascii" standalone="no"?><svg xmlns="http://www.w3.org/2000/svg" xmlns:xlink="http://www.w3.org/1999/xlink" contentStyleType="text/css" height="768px" preserveAspectRatio="none" style="width:1583px;height:768px;background:#FFFFFF;" version="1.1" viewBox="0 0 1583 768" width="1583px" zoomAndPan="magnify"><defs/><g><rect fill="#FFFFFF" height="617.5469" style="stroke:#181818;stroke-width:1.0;" width="10" x="296" y="87.5703"/><rect fill="#FFFFFF" height="547.8438" style="stroke:#181818;stroke-width:1.0;" width="10" x="414" y="117.9219"/><rect fill="#FFFFFF" height="426.9219" style="stroke:#181818;stroke-width:1.0;" width="10" x="786.5" y="208.4922"/><rect fill="#FFFFFF" height="30.3516" style="stroke:#181818;stroke-width:1.0;" width="10" x="1121.5" y="238.8438"/><rect fill="#FFFFFF" height="30.3516" style="stroke:#181818;stroke-width:1.0;" width="10" x="1448.5" y="574.7109"/><rect fill="none" height="48.7031" style="stroke:#000000;stroke-width:1.5;" width="306" x="729" y="496.6563"/><line style="stroke:#181818;stroke-width:0.5;stroke-dasharray:5.0,5.0;" x1="301" x2="301" y1="55.2188" y2="714.1172"/><line style="stroke:#181818;stroke-width:0.5;stroke-dasharray:5.0,5.0;" x1="419" x2="419" y1="55.2188" y2="714.1172"/><line style="stroke:#181818;stroke-width:0.5;stroke-dasharray:5.0,5.0;" x1="663" x2="663" y1="166.0313" y2="714.1172"/><line style="stroke:#181818;stroke-width:0.5;stroke-dasharray:5.0,5.0;" x1="791" x2="791" y1="55.2188" y2="714.1172"/><line style="stroke:#181818;stroke-width:0.5;stroke-dasharray:5.0,5.0;" x1="920" x2="920" y1="55.2188" y2="714.1172"/><line style="stroke:#181818;stroke-width:0.5;stroke-dasharray:5.0,5.0;" x1="1126.5" x2="1126.5" y1="55.2188" y2="714.1172"/><line style="stroke:#181818;stroke-width:0.5;stroke-dasharray:5.0,5.0;" x1="1238.5" x2="1238.5" y1="55.2188" y2="714.1172"/><line style="stroke:#181818;stroke-width:0.5;stroke-dasharray:5.0,5.0;" x1="1338.5" x2="1338.5" y1="55.2188" y2="714.1172"/><line style="stroke:#181818;stroke-width:0.5;stroke-dasharray:5.0,5.0;" x1="1453.5" x2="1453.5" y1="55.2188" y2="714.1172"/><line style="stroke:#181818;stroke-width:0.5;stroke-dasharray:5.0,5.0;" x1="1546.5" x2="1546.5" y1="55.2188" y2="714.1172"/><rect fill="#E2E2F0" height="49.2188" rx="2.5" ry="2.5" style="stroke:#181818;stroke-width:0.5;" width="96" x="253" y="5"/><text fill="#000000" font-family="sans-serif" font-size="14" font-style="italic" lengthAdjust="spacing" textLength="54" x="274" y="26.5332">&#171;Route&#187;</text><text fill="#000000" font-family="sans-serif" font-size="14" lengthAdjust="spacing" textLength="82" x="260" y="44.1426">PatientRoute</text><rect fill="#E2E2F0" height="49.2188" rx="2.5" ry="2.5" style="stroke:#181818;stroke-width:0.5;" width="96" x="253" y="713.1172"/><text fill="#000000" font-family="sans-serif" font-size="14" font-style="italic" lengthAdjust="spacing" textLength="54" x="274" y="734.6504">&#171;Route&#187;</text><text fill="#000000" font-family="sans-serif" font-size="14" lengthAdjust="spacing" textLength="82" x="260" y="752.2598">PatientRoute</text><rect fill="#E2E2F0" height="49.2188" rx="2.5" ry="2.5" style="stroke:#181818;stroke-width:0.5;" width="120" x="359" y="5"/><text fill="#000000" font-family="sans-serif" font-size="14" font-style="italic" lengthAdjust="spacing" textLength="78" x="380" y="26.5332">&#171;Controller&#187;</text><text fill="#000000" font-family="sans-serif" font-size="14" lengthAdjust="spacing" textLength="106" x="366" y="44.1426">PatientController</text><rect fill="#E2E2F0" height="49.2188" rx="2.5" ry="2.5" style="stroke:#181818;stroke-width:0.5;" width="120" x="359" y="713.1172"/><text fill="#000000" font-family="sans-serif" font-size="14" font-style="italic" lengthAdjust="spacing" textLength="78" x="380" y="734.6504">&#171;Controller&#187;</text><text fill="#000000" font-family="sans-serif" font-size="14" lengthAdjust="spacing" textLength="106" x="366" y="752.2598">PatientController</text><rect fill="#E2E2F0" height="49.2188" rx="2.5" ry="2.5" style="stroke:#181818;stroke-width:0.5;" width="131" x="598" y="713.1172"/><text fill="#000000" font-family="sans-serif" font-size="14" font-style="italic" lengthAdjust="spacing" textLength="46" x="640.5" y="734.6504">&#171;DTO&#187;</text><text fill="#000000" font-family="sans-serif" font-size="14" lengthAdjust="spacing" textLength="117" x="605" y="752.2598">EditingPatientDTO</text><rect fill="#E2E2F0" height="49.2188" rx="2.5" ry="2.5" style="stroke:#181818;stroke-width:0.5;" width="105" x="739" y="5"/><text fill="#000000" font-family="sans-serif" font-size="14" font-style="italic" lengthAdjust="spacing" textLength="62" x="760.5" y="26.5332">&#171;Service&#187;</text><text fill="#000000" font-family="sans-serif" font-size="14" lengthAdjust="spacing" textLength="91" x="746" y="44.1426">PatientService</text><rect fill="#E2E2F0" height="49.2188" rx="2.5" ry="2.5" style="stroke:#181818;stroke-width:0.5;" width="105" x="739" y="713.1172"/><text fill="#000000" font-family="sans-serif" font-size="14" font-style="italic" lengthAdjust="spacing" textLength="62" x="760.5" y="734.6504">&#171;Service&#187;</text><text fill="#000000" font-family="sans-serif" font-size="14" lengthAdjust="spacing" textLength="91" x="746" y="752.2598">PatientService</text><rect fill="#E2E2F0" height="49.2188" rx="2.5" ry="2.5" style="stroke:#181818;stroke-width:0.5;" width="95" x="873" y="5"/><text fill="#000000" font-family="sans-serif" font-size="14" font-style="italic" lengthAdjust="spacing" textLength="62" x="889.5" y="26.5332">&#171;Service&#187;</text><text fill="#000000" font-family="sans-serif" font-size="14" lengthAdjust="spacing" textLength="81" x="880" y="44.1426">EmailService</text><rect fill="#E2E2F0" height="49.2188" rx="2.5" ry="2.5" style="stroke:#181818;stroke-width:0.5;" width="95" x="873" y="713.1172"/><text fill="#000000" font-family="sans-serif" font-size="14" font-style="italic" lengthAdjust="spacing" textLength="62" x="889.5" y="734.6504">&#171;Service&#187;</text><text fill="#000000" font-family="sans-serif" font-size="14" lengthAdjust="spacing" textLength="81" x="880" y="752.2598">EmailService</text><rect fill="#E2E2F0" height="49.2188" rx="2.5" ry="2.5" style="stroke:#181818;stroke-width:0.5;" width="126" x="1063.5" y="5"/><text fill="#000000" font-family="sans-serif" font-size="14" font-style="italic" lengthAdjust="spacing" textLength="84" x="1084.5" y="26.5332">&#171;Repository&#187;</text><text fill="#000000" font-family="sans-serif" font-size="14" lengthAdjust="spacing" textLength="112" x="1070.5" y="44.1426">PatientRepository</text><rect fill="#E2E2F0" height="49.2188" rx="2.5" ry="2.5" style="stroke:#181818;stroke-width:0.5;" width="126" x="1063.5" y="713.1172"/><text fill="#000000" font-family="sans-serif" font-size="14" font-style="italic" lengthAdjust="spacing" textLength="84" x="1084.5" y="734.6504">&#171;Repository&#187;</text><text fill="#000000" font-family="sans-serif" font-size="14" lengthAdjust="spacing" textLength="112" x="1070.5" y="752.2598">PatientRepository</text><rect fill="#E2E2F0" height="49.2188" rx="2.5" ry="2.5" style="stroke:#181818;stroke-width:0.5;" width="78" x="1199.5" y="5"/><text fill="#000000" font-family="sans-serif" font-size="14" font-style="italic" lengthAdjust="spacing" textLength="64" x="1206.5" y="26.5332">&#171;Domain&#187;</text><text fill="#000000" font-family="sans-serif" font-size="14" lengthAdjust="spacing" textLength="44" x="1216.5" y="44.1426">Patient</text><rect fill="#E2E2F0" height="49.2188" rx="2.5" ry="2.5" style="stroke:#181818;stroke-width:0.5;" width="78" x="1199.5" y="713.1172"/><text fill="#000000" font-family="sans-serif" font-size="14" font-style="italic" lengthAdjust="spacing" textLength="64" x="1206.5" y="734.6504">&#171;Domain&#187;</text><text fill="#000000" font-family="sans-serif" font-size="14" lengthAdjust="spacing" textLength="44" x="1216.5" y="752.2598">Patient</text><rect fill="#E2E2F0" height="49.2188" rx="2.5" ry="2.5" style="stroke:#181818;stroke-width:0.5;" width="103" x="1287.5" y="5"/><text fill="#000000" font-family="sans-serif" font-size="14" font-style="italic" lengthAdjust="spacing" textLength="61" x="1308.5" y="26.5332">&#171;Logger&#187;</text><text fill="#000000" font-family="sans-serif" font-size="14" lengthAdjust="spacing" textLength="89" x="1294.5" y="44.1426">PatientLogger</text><rect fill="#E2E2F0" height="49.2188" rx="2.5" ry="2.5" style="stroke:#181818;stroke-width:0.5;" width="103" x="1287.5" y="713.1172"/><text fill="#000000" font-family="sans-serif" font-size="14" font-style="italic" lengthAdjust="spacing" textLength="61" x="1308.5" y="734.6504">&#171;Logger&#187;</text><text fill="#000000" font-family="sans-serif" font-size="14" lengthAdjust="spacing" textLength="89" x="1294.5" y="752.2598">PatientLogger</text><rect fill="#E2E2F0" height="49.2188" rx="2.5" ry="2.5" style="stroke:#181818;stroke-width:0.5;" width="106" x="1400.5" y="5"/><text fill="#000000" font-family="sans-serif" font-size="14" font-style="italic" lengthAdjust="spacing" textLength="65" x="1421" y="26.5332">&#171;Mapper&#187;</text><text fill="#000000" font-family="sans-serif" font-size="14" lengthAdjust="spacing" textLength="92" x="1407.5" y="44.1426">PatientMapper</text><rect fill="#E2E2F0" height="49.2188" rx="2.5" ry="2.5" style="stroke:#181818;stroke-width:0.5;" width="106" x="1400.5" y="713.1172"/><text fill="#000000" font-family="sans-serif" font-size="14" font-style="italic" lengthAdjust="spacing" textLength="65" x="1421" y="734.6504">&#171;Mapper&#187;</text><text fill="#000000" font-family="sans-serif" font-size="14" lengthAdjust="spacing" textLength="92" x="1407.5" y="752.2598">PatientMapper</text><rect fill="#E2E2F0" height="31.6094" rx="2.5" ry="2.5" style="stroke:#181818;stroke-width:0.5;" width="61" x="1516.5" y="22.6094"/><text fill="#000000" font-family="sans-serif" font-size="14" lengthAdjust="spacing" textLength="47" x="1523.5" y="44.1426">Serivce</text><rect fill="#E2E2F0" height="31.6094" rx="2.5" ry="2.5" style="stroke:#181818;stroke-width:0.5;" width="61" x="1516.5" y="713.1172"/><text fill="#000000" font-family="sans-serif" font-size="14" lengthAdjust="spacing" textLength="47" x="1523.5" y="734.6504">Serivce</text><rect fill="#FFFFFF" height="617.5469" style="stroke:#181818;stroke-width:1.0;" width="10" x="296" y="87.5703"/><rect fill="#FFFFFF" height="547.8438" style="stroke:#181818;stroke-width:1.0;" width="10" x="414" y="117.9219"/><rect fill="#FFFFFF" height="426.9219" style="stroke:#181818;stroke-width:1.0;" width="10" x="786.5" y="208.4922"/><rect fill="#FFFFFF" height="30.3516" style="stroke:#181818;stroke-width:1.0;" width="10" x="1121.5" y="238.8438"/><rect fill="#FFFFFF" height="30.3516" style="stroke:#181818;stroke-width:1.0;" width="10" x="1448.5" y="574.7109"/><ellipse cx="7.5" cy="86.8203" fill="none" rx="4" ry="4" style="stroke:#181818;stroke-width:1.5;"/><polygon fill="#181818" points="284,83.5703,294,87.5703,284,91.5703,288,87.5703" style="stroke:#181818;stroke-width:1.0;"/><line style="stroke:#181818;stroke-width:1.0;" x1="12" x2="290" y1="87.5703" y2="87.5703"/><text fill="#000000" font-family="sans-serif" font-size="13" lengthAdjust="spacing" textLength="269" x="15" y="82.7139">PATCH (/api/patients/{medicalRecordNumber})</text><polygon fill="#181818" points="402,113.9219,412,117.9219,402,121.9219,406,117.9219" style="stroke:#181818;stroke-width:1.0;"/><line style="stroke:#181818;stroke-width:1.0;" x1="306" x2="408" y1="117.9219" y2="117.9219"/><text fill="#000000" font-family="sans-serif" font-size="13" lengthAdjust="spacing" textLength="43" x="313" y="113.0654">PATCH</text><polygon fill="#181818" points="586,144.2734,596,148.2734,586,152.2734,590,148.2734" style="stroke:#181818;stroke-width:1.0;"/><line style="stroke:#181818;stroke-width:1.0;" x1="424" x2="592" y1="148.2734" y2="148.2734"/><text fill="#000000" font-family="sans-serif" font-size="13" lengthAdjust="spacing" textLength="150" x="431" y="143.417">recieves request body info</text><rect fill="#E2E2F0" height="49.2188" rx="2.5" ry="2.5" style="stroke:#181818;stroke-width:0.5;" width="131" x="598" y="125.9219"/><text fill="#000000" font-family="sans-serif" font-size="14" font-style="italic" lengthAdjust="spacing" textLength="46" x="640.5" y="147.4551">&#171;DTO&#187;</text><text fill="#000000" font-family="sans-serif" font-size="14" lengthAdjust="spacing" textLength="117" x="605" y="165.0645">EditingPatientDTO</text><polygon fill="#181818" points="774.5,204.4922,784.5,208.4922,774.5,212.4922,778.5,208.4922" style="stroke:#181818;stroke-width:1.0;"/><line style="stroke:#181818;stroke-width:1.0;" x1="424" x2="780.5" y1="208.4922" y2="208.4922"/><text fill="#000000" font-family="sans-serif" font-size="13" lengthAdjust="spacing" textLength="314" x="431" y="203.6357">editPatient(medicalRecordNumber, editingPatientDTO)</text><polygon fill="#181818" points="1109.5,234.8438,1119.5,238.8438,1109.5,242.8438,1113.5,238.8438" style="stroke:#181818;stroke-width:1.0;"/><line style="stroke:#181818;stroke-width:1.0;" x1="796.5" x2="1115.5" y1="238.8438" y2="238.8438"/><text fill="#000000" font-family="sans-serif" font-size="13" lengthAdjust="spacing" textLength="306" x="803.5" y="233.9873">findByMedicalRecordNumber(medicalRecordNumber)</text><polygon fill="#181818" points="807.5,265.1953,797.5,269.1953,807.5,273.1953,803.5,269.1953" style="stroke:#181818;stroke-width:1.0;"/><line style="stroke:#181818;stroke-width:1.0;stroke-dasharray:2.0,2.0;" x1="801.5" x2="1125.5" y1="269.1953" y2="269.1953"/><text fill="#000000" font-family="sans-serif" font-size="13" lengthAdjust="spacing" textLength="39" x="813.5" y="264.3389">patient</text><polygon fill="#181818" points="1226.5,295.5469,1236.5,299.5469,1226.5,303.5469,1230.5,299.5469" style="stroke:#181818;stroke-width:1.0;"/><line style="stroke:#181818;stroke-width:1.0;" x1="796.5" x2="1232.5" y1="299.5469" y2="299.5469"/><text fill="#000000" font-family="sans-serif" font-size="13" lengthAdjust="spacing" textLength="141" x="803.5" y="294.6904">changeName(newName)</text><polygon fill="#181818" points="1226.5,325.8984,1236.5,329.8984,1226.5,333.8984,1230.5,329.8984" style="stroke:#181818;stroke-width:1.0;"/><line style="stroke:#181818;stroke-width:1.0;" x1="796.5" x2="1232.5" y1="329.8984" y2="329.8984"/><text fill="#000000" font-family="sans-serif" font-size="13" lengthAdjust="spacing" textLength="139" x="803.5" y="325.042">changeEmail(newEmail)</text><polygon fill="#181818" points="1226.5,356.25,1236.5,360.25,1226.5,364.25,1230.5,360.25" style="stroke:#181818;stroke-width:1.0;"/><line style="stroke:#181818;stroke-width:1.0;" x1="796.5" x2="1232.5" y1="360.25" y2="360.25"/><text fill="#000000" font-family="sans-serif" font-size="13" lengthAdjust="spacing" textLength="237" x="803.5" y="355.3936">changePhoneNumber(newPhoneNumber)</text><polygon fill="#181818" points="1226.5,386.6016,1236.5,390.6016,1226.5,394.6016,1230.5,390.6016" style="stroke:#181818;stroke-width:1.0;"/><line style="stroke:#181818;stroke-width:1.0;" x1="796.5" x2="1232.5" y1="390.6016" y2="390.6016"/><text fill="#000000" font-family="sans-serif" font-size="13" lengthAdjust="spacing" textLength="285" x="803.5" y="385.7451">changeMedicalConditions(newMedicalConditions)</text><polygon fill="#181818" points="1249.5,416.9531,1239.5,420.9531,1249.5,424.9531,1245.5,420.9531" style="stroke:#181818;stroke-width:1.0;"/><line style="stroke:#181818;stroke-width:1.0;" x1="1243.5" x2="1546" y1="420.9531" y2="420.9531"/><text fill="#000000" font-family="sans-serif" font-size="13" lengthAdjust="spacing" textLength="222" x="1255.5" y="416.0967">changeMedicalRecord(medicalRecord)</text><polygon fill="#181818" points="1327,447.3047,1337,451.3047,1327,455.3047,1331,451.3047" style="stroke:#181818;stroke-width:1.0;"/><line style="stroke:#181818;stroke-width:1.0;" x1="796.5" x2="1333" y1="451.3047" y2="451.3047"/><text fill="#000000" font-family="sans-serif" font-size="13" lengthAdjust="spacing" textLength="115" x="803.5" y="446.4482">logChanges(patient)</text><polygon fill="#181818" points="1114.5,477.6563,1124.5,481.6563,1114.5,485.6563,1118.5,481.6563" style="stroke:#181818;stroke-width:1.0;"/><line style="stroke:#181818;stroke-width:1.0;" x1="796.5" x2="1120.5" y1="481.6563" y2="481.6563"/><text fill="#000000" font-family="sans-serif" font-size="13" lengthAdjust="spacing" textLength="73" x="803.5" y="476.7998">save(patient)</text><path d="M729,496.6563 L790,496.6563 L790,505.0078 L780,515.0078 L729,515.0078 L729,496.6563 " fill="#EEEEEE" style="stroke:#000000;stroke-width:1.5;"/><rect fill="none" height="48.7031" style="stroke:#000000;stroke-width:1.5;" width="306" x="729" y="496.6563"/><text fill="#000000" font-family="sans-serif" font-size="13" font-weight="bold" lengthAdjust="spacing" textLength="16" x="744" y="511.1514">alt</text><text fill="#000000" font-family="sans-serif" font-size="11" font-weight="bold" lengthAdjust="spacing" textLength="225" x="805" y="510.0752">[content editable contains sensitive info]</text><polygon fill="#181818" points="908.5,533.3594,918.5,537.3594,908.5,541.3594,912.5,537.3594" style="stroke:#181818;stroke-width:1.0;"/><line style="stroke:#181818;stroke-width:1.0;" x1="796.5" x2="914.5" y1="537.3594" y2="537.3594"/><text fill="#000000" font-family="sans-serif" font-size="13" lengthAdjust="spacing" textLength="100" x="803.5" y="532.5029">sendEmail(email)</text><polygon fill="#181818" points="1436.5,570.7109,1446.5,574.7109,1436.5,578.7109,1440.5,574.7109" style="stroke:#181818;stroke-width:1.0;"/><line style="stroke:#181818;stroke-width:1.0;" x1="796.5" x2="1442.5" y1="574.7109" y2="574.7109"/><text fill="#000000" font-family="sans-serif" font-size="13" lengthAdjust="spacing" textLength="84" x="803.5" y="569.8545">toDTO(patient)</text><polygon fill="#181818" points="807.5,601.0625,797.5,605.0625,807.5,609.0625,803.5,605.0625" style="stroke:#181818;stroke-width:1.0;"/><line style="stroke:#181818;stroke-width:1.0;stroke-dasharray:2.0,2.0;" x1="801.5" x2="1452.5" y1="605.0625" y2="605.0625"/><text fill="#000000" font-family="sans-serif" font-size="13" lengthAdjust="spacing" textLength="65" x="813.5" y="600.2061">patientDTO</text><polygon fill="#181818" points="435,631.4141,425,635.4141,435,639.4141,431,635.4141" style="stroke:#181818;stroke-width:1.0;"/><line style="stroke:#181818;stroke-width:1.0;stroke-dasharray:2.0,2.0;" x1="429" x2="790.5" y1="635.4141" y2="635.4141"/><text fill="#000000" font-family="sans-serif" font-size="13" lengthAdjust="spacing" textLength="65" x="441" y="630.5576">patientDTO</text><polygon fill="#181818" points="317,661.7656,307,665.7656,317,669.7656,313,665.7656" style="stroke:#181818;stroke-width:1.0;"/><line style="stroke:#181818;stroke-width:1.0;stroke-dasharray:2.0,2.0;" x1="311" x2="418" y1="665.7656" y2="665.7656"/><text fill="#000000" font-family="sans-serif" font-size="13" lengthAdjust="spacing" textLength="53" x="323" y="660.9092">response</text><polygon fill="#181818" points="11,692.1172,1,696.1172,11,700.1172,7,696.1172" style="stroke:#181818;stroke-width:1.0;"/><line style="stroke:#181818;stroke-width:1.0;stroke-dasharray:2.0,2.0;" x1="5" x2="295" y1="696.1172" y2="696.1172"/><text fill="#000000" font-family="sans-serif" font-size="13" lengthAdjust="spacing" textLength="53" x="17" y="691.2607">response</text><!--SRC=[VLFBRi8m4BpdAto4geXxP26rj58FVQ2MMqycMOAbOBksIOMg_dlNZpJE0pWaks5clPxPLKnRNd35X2KRPZa8-ovF5WWp90IK-lTgbQanTYs5rRAkGJj2ab7Q9GFgOyaj5rMiyB1zSrJteXIVq-TyW6vuuRjgGqfZD2n_PBnEyBty4gczEYXfk9NwxE_VPIZ2Vp9DzPUGU9Pmz_31DF1PLbMGAqQKXc0Q_iAK2l0OKHe2X7_AnIgub9FDtNRzH6PBflXI1QfP_XoXv0Mhtw6Gkdmz7NUWV-SPAonl67hhkLdm6Kib_iM27RJxBqjWI4BFRcuGhw7Wq831uEi4nfATBC-4YxqS45elSeBDsNZDsKIdjnxG6vMazrWcQyivAJh3ShBdehm_lupBJXsLQl9V9DDWJrgGA6TwKdGw9yM1YGfUsH5c0hxTUtu5vsVH0Nrm3RavI06nNyGdwJLMl2tgxOIJmZZkwAElm9jh5O8sVQLw1yVPpKajgxLdcbdKQNxH4iCQw52ijgJ0oN3Buuncknhy1-p740C2URo1C484VqdPtbBd3bm6RI48YtdQHLoTd5Y9GvIqq9eU00F34TeL6Qv7WYbXD9JfnBSxwdV4A3G0KagoM7In64F_0000]--></g></svg>