<?xml version="1.0" encoding="us-ascii" standalone="no"?><svg xmlns="http://www.w3.org/2000/svg" xmlns:xlink="http://www.w3.org/1999/xlink" contentStyleType="text/css" height="737px" preserveAspectRatio="none" style="width:1427px;height:737px;background:#FFFFFF;" version="1.1" viewBox="0 0 1427 737" width="1427px" zoomAndPan="magnify"><defs/><g><rect fill="#FFFFFF" height="587.1953" style="stroke:#181818;stroke-width:1.0;" width="10" x="296" y="87.5703"/><rect fill="#FFFFFF" height="517.4922" style="stroke:#181818;stroke-width:1.0;" width="10" x="414" y="117.9219"/><rect fill="#FFFFFF" height="396.5703" style="stroke:#181818;stroke-width:1.0;" width="10" x="786.5" y="208.4922"/><rect fill="#FFFFFF" height="30.3516" style="stroke:#181818;stroke-width:1.0;" width="10" x="1036" y="238.8438"/><rect fill="#FFFFFF" height="30.3516" style="stroke:#181818;stroke-width:1.0;" width="10" x="1363" y="544.3594"/><rect fill="none" height="48.7031" style="stroke:#000000;stroke-width:1.5;" width="306" x="729" y="466.3047"/><line style="stroke:#181818;stroke-width:0.5;stroke-dasharray:5.0,5.0;" x1="301" x2="301" y1="55.2188" y2="683.7656"/><line style="stroke:#181818;stroke-width:0.5;stroke-dasharray:5.0,5.0;" x1="419" x2="419" y1="55.2188" y2="683.7656"/><line style="stroke:#181818;stroke-width:0.5;stroke-dasharray:5.0,5.0;" x1="663" x2="663" y1="166.0313" y2="683.7656"/><line style="stroke:#181818;stroke-width:0.5;stroke-dasharray:5.0,5.0;" x1="791" x2="791" y1="55.2188" y2="683.7656"/><line style="stroke:#181818;stroke-width:0.5;stroke-dasharray:5.0,5.0;" x1="920" x2="920" y1="55.2188" y2="683.7656"/><line style="stroke:#181818;stroke-width:0.5;stroke-dasharray:5.0,5.0;" x1="1041" x2="1041" y1="55.2188" y2="683.7656"/><line style="stroke:#181818;stroke-width:0.5;stroke-dasharray:5.0,5.0;" x1="1153" x2="1153" y1="55.2188" y2="683.7656"/><line style="stroke:#181818;stroke-width:0.5;stroke-dasharray:5.0,5.0;" x1="1253" x2="1253" y1="55.2188" y2="683.7656"/><line style="stroke:#181818;stroke-width:0.5;stroke-dasharray:5.0,5.0;" x1="1368" x2="1368" y1="55.2188" y2="683.7656"/><rect fill="#E2E2F0" height="49.2188" rx="2.5" ry="2.5" style="stroke:#181818;stroke-width:0.5;" width="96" x="253" y="5"/><text fill="#000000" font-family="sans-serif" font-size="14" font-style="italic" lengthAdjust="spacing" textLength="54" x="274" y="26.5332">&#171;Route&#187;</text><text fill="#000000" font-family="sans-serif" font-size="14" lengthAdjust="spacing" textLength="82" x="260" y="44.1426">PatientRoute</text><rect fill="#E2E2F0" height="49.2188" rx="2.5" ry="2.5" style="stroke:#181818;stroke-width:0.5;" width="96" x="253" y="682.7656"/><text fill="#000000" font-family="sans-serif" font-size="14" font-style="italic" lengthAdjust="spacing" textLength="54" x="274" y="704.2988">&#171;Route&#187;</text><text fill="#000000" font-family="sans-serif" font-size="14" lengthAdjust="spacing" textLength="82" x="260" y="721.9082">PatientRoute</text><rect fill="#E2E2F0" height="49.2188" rx="2.5" ry="2.5" style="stroke:#181818;stroke-width:0.5;" width="120" x="359" y="5"/><text fill="#000000" font-family="sans-serif" font-size="14" font-style="italic" lengthAdjust="spacing" textLength="78" x="380" y="26.5332">&#171;Controller&#187;</text><text fill="#000000" font-family="sans-serif" font-size="14" lengthAdjust="spacing" textLength="106" x="366" y="44.1426">PatientController</text><rect fill="#E2E2F0" height="49.2188" rx="2.5" ry="2.5" style="stroke:#181818;stroke-width:0.5;" width="120" x="359" y="682.7656"/><text fill="#000000" font-family="sans-serif" font-size="14" font-style="italic" lengthAdjust="spacing" textLength="78" x="380" y="704.2988">&#171;Controller&#187;</text><text fill="#000000" font-family="sans-serif" font-size="14" lengthAdjust="spacing" textLength="106" x="366" y="721.9082">PatientController</text><rect fill="#E2E2F0" height="49.2188" rx="2.5" ry="2.5" style="stroke:#181818;stroke-width:0.5;" width="131" x="598" y="682.7656"/><text fill="#000000" font-family="sans-serif" font-size="14" font-style="italic" lengthAdjust="spacing" textLength="46" x="640.5" y="704.2988">&#171;DTO&#187;</text><text fill="#000000" font-family="sans-serif" font-size="14" lengthAdjust="spacing" textLength="117" x="605" y="721.9082">EditingPatientDTO</text><rect fill="#E2E2F0" height="49.2188" rx="2.5" ry="2.5" style="stroke:#181818;stroke-width:0.5;" width="105" x="739" y="5"/><text fill="#000000" font-family="sans-serif" font-size="14" font-style="italic" lengthAdjust="spacing" textLength="62" x="760.5" y="26.5332">&#171;Service&#187;</text><text fill="#000000" font-family="sans-serif" font-size="14" lengthAdjust="spacing" textLength="91" x="746" y="44.1426">PatientService</text><rect fill="#E2E2F0" height="49.2188" rx="2.5" ry="2.5" style="stroke:#181818;stroke-width:0.5;" width="105" x="739" y="682.7656"/><text fill="#000000" font-family="sans-serif" font-size="14" font-style="italic" lengthAdjust="spacing" textLength="62" x="760.5" y="704.2988">&#171;Service&#187;</text><text fill="#000000" font-family="sans-serif" font-size="14" lengthAdjust="spacing" textLength="91" x="746" y="721.9082">PatientService</text><rect fill="#E2E2F0" height="49.2188" rx="2.5" ry="2.5" style="stroke:#181818;stroke-width:0.5;" width="95" x="873" y="5"/><text fill="#000000" font-family="sans-serif" font-size="14" font-style="italic" lengthAdjust="spacing" textLength="62" x="889.5" y="26.5332">&#171;Service&#187;</text><text fill="#000000" font-family="sans-serif" font-size="14" lengthAdjust="spacing" textLength="81" x="880" y="44.1426">EmailService</text><rect fill="#E2E2F0" height="49.2188" rx="2.5" ry="2.5" style="stroke:#181818;stroke-width:0.5;" width="95" x="873" y="682.7656"/><text fill="#000000" font-family="sans-serif" font-size="14" font-style="italic" lengthAdjust="spacing" textLength="62" x="889.5" y="704.2988">&#171;Service&#187;</text><text fill="#000000" font-family="sans-serif" font-size="14" lengthAdjust="spacing" textLength="81" x="880" y="721.9082">EmailService</text><rect fill="#E2E2F0" height="49.2188" rx="2.5" ry="2.5" style="stroke:#181818;stroke-width:0.5;" width="126" x="978" y="5"/><text fill="#000000" font-family="sans-serif" font-size="14" font-style="italic" lengthAdjust="spacing" textLength="84" x="999" y="26.5332">&#171;Repository&#187;</text><text fill="#000000" font-family="sans-serif" font-size="14" lengthAdjust="spacing" textLength="112" x="985" y="44.1426">PatientRepository</text><rect fill="#E2E2F0" height="49.2188" rx="2.5" ry="2.5" style="stroke:#181818;stroke-width:0.5;" width="126" x="978" y="682.7656"/><text fill="#000000" font-family="sans-serif" font-size="14" font-style="italic" lengthAdjust="spacing" textLength="84" x="999" y="704.2988">&#171;Repository&#187;</text><text fill="#000000" font-family="sans-serif" font-size="14" lengthAdjust="spacing" textLength="112" x="985" y="721.9082">PatientRepository</text><rect fill="#E2E2F0" height="49.2188" rx="2.5" ry="2.5" style="stroke:#181818;stroke-width:0.5;" width="78" x="1114" y="5"/><text fill="#000000" font-family="sans-serif" font-size="14" font-style="italic" lengthAdjust="spacing" textLength="64" x="1121" y="26.5332">&#171;Domain&#187;</text><text fill="#000000" font-family="sans-serif" font-size="14" lengthAdjust="spacing" textLength="44" x="1131" y="44.1426">Patient</text><rect fill="#E2E2F0" height="49.2188" rx="2.5" ry="2.5" style="stroke:#181818;stroke-width:0.5;" width="78" x="1114" y="682.7656"/><text fill="#000000" font-family="sans-serif" font-size="14" font-style="italic" lengthAdjust="spacing" textLength="64" x="1121" y="704.2988">&#171;Domain&#187;</text><text fill="#000000" font-family="sans-serif" font-size="14" lengthAdjust="spacing" textLength="44" x="1131" y="721.9082">Patient</text><rect fill="#E2E2F0" height="49.2188" rx="2.5" ry="2.5" style="stroke:#181818;stroke-width:0.5;" width="103" x="1202" y="5"/><text fill="#000000" font-family="sans-serif" font-size="14" font-style="italic" lengthAdjust="spacing" textLength="61" x="1223" y="26.5332">&#171;Logger&#187;</text><text fill="#000000" font-family="sans-serif" font-size="14" lengthAdjust="spacing" textLength="89" x="1209" y="44.1426">PatientLogger</text><rect fill="#E2E2F0" height="49.2188" rx="2.5" ry="2.5" style="stroke:#181818;stroke-width:0.5;" width="103" x="1202" y="682.7656"/><text fill="#000000" font-family="sans-serif" font-size="14" font-style="italic" lengthAdjust="spacing" textLength="61" x="1223" y="704.2988">&#171;Logger&#187;</text><text fill="#000000" font-family="sans-serif" font-size="14" lengthAdjust="spacing" textLength="89" x="1209" y="721.9082">PatientLogger</text><rect fill="#E2E2F0" height="49.2188" rx="2.5" ry="2.5" style="stroke:#181818;stroke-width:0.5;" width="106" x="1315" y="5"/><text fill="#000000" font-family="sans-serif" font-size="14" font-style="italic" lengthAdjust="spacing" textLength="65" x="1335.5" y="26.5332">&#171;Mapper&#187;</text><text fill="#000000" font-family="sans-serif" font-size="14" lengthAdjust="spacing" textLength="92" x="1322" y="44.1426">PatientMapper</text><rect fill="#E2E2F0" height="49.2188" rx="2.5" ry="2.5" style="stroke:#181818;stroke-width:0.5;" width="106" x="1315" y="682.7656"/><text fill="#000000" font-family="sans-serif" font-size="14" font-style="italic" lengthAdjust="spacing" textLength="65" x="1335.5" y="704.2988">&#171;Mapper&#187;</text><text fill="#000000" font-family="sans-serif" font-size="14" lengthAdjust="spacing" textLength="92" x="1322" y="721.9082">PatientMapper</text><rect fill="#FFFFFF" height="587.1953" style="stroke:#181818;stroke-width:1.0;" width="10" x="296" y="87.5703"/><rect fill="#FFFFFF" height="517.4922" style="stroke:#181818;stroke-width:1.0;" width="10" x="414" y="117.9219"/><rect fill="#FFFFFF" height="396.5703" style="stroke:#181818;stroke-width:1.0;" width="10" x="786.5" y="208.4922"/><rect fill="#FFFFFF" height="30.3516" style="stroke:#181818;stroke-width:1.0;" width="10" x="1036" y="238.8438"/><rect fill="#FFFFFF" height="30.3516" style="stroke:#181818;stroke-width:1.0;" width="10" x="1363" y="544.3594"/><ellipse cx="7.5" cy="86.8203" fill="none" rx="4" ry="4" style="stroke:#181818;stroke-width:1.5;"/><polygon fill="#181818" points="284,83.5703,294,87.5703,284,91.5703,288,87.5703" style="stroke:#181818;stroke-width:1.0;"/><line style="stroke:#181818;stroke-width:1.0;" x1="12" x2="290" y1="87.5703" y2="87.5703"/><text fill="#000000" font-family="sans-serif" font-size="13" lengthAdjust="spacing" textLength="269" x="15" y="82.7139">PATCH (/api/patients/{medicalRecordNumber})</text><polygon fill="#181818" points="402,113.9219,412,117.9219,402,121.9219,406,117.9219" style="stroke:#181818;stroke-width:1.0;"/><line style="stroke:#181818;stroke-width:1.0;" x1="306" x2="408" y1="117.9219" y2="117.9219"/><text fill="#000000" font-family="sans-serif" font-size="13" lengthAdjust="spacing" textLength="43" x="313" y="113.0654">PATCH</text><polygon fill="#181818" points="586,144.2734,596,148.2734,586,152.2734,590,148.2734" style="stroke:#181818;stroke-width:1.0;"/><line style="stroke:#181818;stroke-width:1.0;" x1="424" x2="592" y1="148.2734" y2="148.2734"/><text fill="#000000" font-family="sans-serif" font-size="13" lengthAdjust="spacing" textLength="150" x="431" y="143.417">recieves request body info</text><rect fill="#E2E2F0" height="49.2188" rx="2.5" ry="2.5" style="stroke:#181818;stroke-width:0.5;" width="131" x="598" y="125.9219"/><text fill="#000000" font-family="sans-serif" font-size="14" font-style="italic" lengthAdjust="spacing" textLength="46" x="640.5" y="147.4551">&#171;DTO&#187;</text><text fill="#000000" font-family="sans-serif" font-size="14" lengthAdjust="spacing" textLength="117" x="605" y="165.0645">EditingPatientDTO</text><polygon fill="#181818" points="774.5,204.4922,784.5,208.4922,774.5,212.4922,778.5,208.4922" style="stroke:#181818;stroke-width:1.0;"/><line style="stroke:#181818;stroke-width:1.0;" x1="424" x2="780.5" y1="208.4922" y2="208.4922"/><text fill="#000000" font-family="sans-serif" font-size="13" lengthAdjust="spacing" textLength="193" x="431" y="203.6357">editPatient(id, editingPatientDTO)</text><polygon fill="#181818" points="1024,234.8438,1034,238.8438,1024,242.8438,1028,238.8438" style="stroke:#181818;stroke-width:1.0;"/><line style="stroke:#181818;stroke-width:1.0;" x1="796.5" x2="1030" y1="238.8438" y2="238.8438"/><text fill="#000000" font-family="sans-serif" font-size="13" lengthAdjust="spacing" textLength="64" x="803.5" y="233.9873">findById(id)</text><polygon fill="#181818" points="807.5,265.1953,797.5,269.1953,807.5,273.1953,803.5,269.1953" style="stroke:#181818;stroke-width:1.0;"/><line style="stroke:#181818;stroke-width:1.0;stroke-dasharray:2.0,2.0;" x1="801.5" x2="1040" y1="269.1953" y2="269.1953"/><text fill="#000000" font-family="sans-serif" font-size="13" lengthAdjust="spacing" textLength="39" x="813.5" y="264.3389">patient</text><polygon fill="#181818" points="1141,295.5469,1151,299.5469,1141,303.5469,1145,299.5469" style="stroke:#181818;stroke-width:1.0;"/><line style="stroke:#181818;stroke-width:1.0;" x1="796.5" x2="1147" y1="299.5469" y2="299.5469"/><text fill="#000000" font-family="sans-serif" font-size="13" lengthAdjust="spacing" textLength="141" x="803.5" y="294.6904">changeName(newName)</text><polygon fill="#181818" points="1141,325.8984,1151,329.8984,1141,333.8984,1145,329.8984" style="stroke:#181818;stroke-width:1.0;"/><line style="stroke:#181818;stroke-width:1.0;" x1="796.5" x2="1147" y1="329.8984" y2="329.8984"/><text fill="#000000" font-family="sans-serif" font-size="13" lengthAdjust="spacing" textLength="139" x="803.5" y="325.042">changeEmail(newEmail)</text><polygon fill="#181818" points="1141,356.25,1151,360.25,1141,364.25,1145,360.25" style="stroke:#181818;stroke-width:1.0;"/><line style="stroke:#181818;stroke-width:1.0;" x1="796.5" x2="1147" y1="360.25" y2="360.25"/><text fill="#000000" font-family="sans-serif" font-size="13" lengthAdjust="spacing" textLength="237" x="803.5" y="355.3936">changePhoneNumber(newPhoneNumber)</text><polygon fill="#181818" points="1141,386.6016,1151,390.6016,1141,394.6016,1145,390.6016" style="stroke:#181818;stroke-width:1.0;"/><line style="stroke:#181818;stroke-width:1.0;" x1="796.5" x2="1147" y1="390.6016" y2="390.6016"/><text fill="#000000" font-family="sans-serif" font-size="13" lengthAdjust="spacing" textLength="285" x="803.5" y="385.7451">changeMedicalConditions(newMedicalConditions)</text><polygon fill="#181818" points="1241.5,416.9531,1251.5,420.9531,1241.5,424.9531,1245.5,420.9531" style="stroke:#181818;stroke-width:1.0;"/><line style="stroke:#181818;stroke-width:1.0;" x1="796.5" x2="1247.5" y1="420.9531" y2="420.9531"/><text fill="#000000" font-family="sans-serif" font-size="13" lengthAdjust="spacing" textLength="115" x="803.5" y="416.0967">logChanges(patient)</text><polygon fill="#181818" points="1029,447.3047,1039,451.3047,1029,455.3047,1033,451.3047" style="stroke:#181818;stroke-width:1.0;"/><line style="stroke:#181818;stroke-width:1.0;" x1="796.5" x2="1035" y1="451.3047" y2="451.3047"/><text fill="#000000" font-family="sans-serif" font-size="13" lengthAdjust="spacing" textLength="73" x="803.5" y="446.4482">save(patient)</text><path d="M729,466.3047 L790,466.3047 L790,474.6563 L780,484.6563 L729,484.6563 L729,466.3047 " fill="#EEEEEE" style="stroke:#000000;stroke-width:1.5;"/><rect fill="none" height="48.7031" style="stroke:#000000;stroke-width:1.5;" width="306" x="729" y="466.3047"/><text fill="#000000" font-family="sans-serif" font-size="13" font-weight="bold" lengthAdjust="spacing" textLength="16" x="744" y="480.7998">alt</text><text fill="#000000" font-family="sans-serif" font-size="11" font-weight="bold" lengthAdjust="spacing" textLength="225" x="805" y="479.7236">[content editable contains sensitive info]</text><polygon fill="#181818" points="908.5,503.0078,918.5,507.0078,908.5,511.0078,912.5,507.0078" style="stroke:#181818;stroke-width:1.0;"/><line style="stroke:#181818;stroke-width:1.0;" x1="796.5" x2="914.5" y1="507.0078" y2="507.0078"/><text fill="#000000" font-family="sans-serif" font-size="13" lengthAdjust="spacing" textLength="100" x="803.5" y="502.1514">sendEmail(email)</text><polygon fill="#181818" points="1351,540.3594,1361,544.3594,1351,548.3594,1355,544.3594" style="stroke:#181818;stroke-width:1.0;"/><line style="stroke:#181818;stroke-width:1.0;" x1="796.5" x2="1357" y1="544.3594" y2="544.3594"/><text fill="#000000" font-family="sans-serif" font-size="13" lengthAdjust="spacing" textLength="84" x="803.5" y="539.5029">toDTO(patient)</text><polygon fill="#181818" points="807.5,570.7109,797.5,574.7109,807.5,578.7109,803.5,574.7109" style="stroke:#181818;stroke-width:1.0;"/><line style="stroke:#181818;stroke-width:1.0;stroke-dasharray:2.0,2.0;" x1="801.5" x2="1367" y1="574.7109" y2="574.7109"/><text fill="#000000" font-family="sans-serif" font-size="13" lengthAdjust="spacing" textLength="65" x="813.5" y="569.8545">patientDTO</text><polygon fill="#181818" points="435,601.0625,425,605.0625,435,609.0625,431,605.0625" style="stroke:#181818;stroke-width:1.0;"/><line style="stroke:#181818;stroke-width:1.0;stroke-dasharray:2.0,2.0;" x1="429" x2="790.5" y1="605.0625" y2="605.0625"/><text fill="#000000" font-family="sans-serif" font-size="13" lengthAdjust="spacing" textLength="65" x="441" y="600.2061">patientDTO</text><polygon fill="#181818" points="317,631.4141,307,635.4141,317,639.4141,313,635.4141" style="stroke:#181818;stroke-width:1.0;"/><line style="stroke:#181818;stroke-width:1.0;stroke-dasharray:2.0,2.0;" x1="311" x2="418" y1="635.4141" y2="635.4141"/><text fill="#000000" font-family="sans-serif" font-size="13" lengthAdjust="spacing" textLength="53" x="323" y="630.5576">response</text><polygon fill="#181818" points="11,661.7656,1,665.7656,11,669.7656,7,665.7656" style="stroke:#181818;stroke-width:1.0;"/><line style="stroke:#181818;stroke-width:1.0;stroke-dasharray:2.0,2.0;" x1="5" x2="295" y1="665.7656" y2="665.7656"/><text fill="#000000" font-family="sans-serif" font-size="13" lengthAdjust="spacing" textLength="53" x="17" y="660.9092">response</text><!--SRC=[VLDDRy8m3BttL-G8qn3tAaBQsAHD6XlQkEqK6bCYbIHBGYSqxR_F-IWDXT53yzo-vzf-hcR6YKfe9XrPCYT0kdUrTq2O9H5G6ixPhD3dtBcIpgYc0UC5MKHf7moaZrmu8UkKuM7rvgN-e1Jlbx_p0QOLLQYgWvGcD4o_OwB9-2VnVwAkTT3A2gVC8VJVHpY4Ot1P6ffG-2tf-mZWCl55rNKSLqAKHd2Plc1QHtf2b4Q0z4yrcKMNIhAyMysVo6ZAj9ZgABNJdnrmKR7c7Ifb-Ej-jmRpEovOvKJBqDkWBQBFc2hpBoNigVsx8gEX23sxkK6-WKf02nR1rnwi8sl53qJ8ZHe8EYzAWiMvrEP8yDiGdsn6LcfI5PtQTzxxKvADaFp-yCmnKTxWaL8OS7iZIPfDdYVPLf9gosGDhsm78mdV_XnVuON5yiG0hZ6NMoKXJj_pi_2QQX6zm-7viIXflVRiuKc6j54bQLGz3qdiA3Ky_dTobhNGirZZI8L- -PNsVh1r0-41bcQ91OawqK8qbk2LfJtvrKfFvd5842U4SLv5MkYIE8LUPoLqxaN2m3cazac6IvjnE9pjJhw7tPyJDjTgd2JaacpTwMHoJlq3]--></g></svg>