<?xml version="1.0" encoding="us-ascii" standalone="no"?><svg xmlns="http://www.w3.org/2000/svg" xmlns:xlink="http://www.w3.org/1999/xlink" contentStyleType="text/css" height="720px" preserveAspectRatio="none" style="width:1399px;height:720px;background:#FFFFFF;" version="1.1" viewBox="0 0 1399 720" width="1399px" zoomAndPan="magnify"><defs/><g><rect fill="#FFFFFF" height="569.4922" style="stroke:#181818;stroke-width:1.0;" width="10" x="296" y="87.5703"/><rect fill="#FFFFFF" height="499.7891" style="stroke:#181818;stroke-width:1.0;" width="10" x="414" y="117.9219"/><rect fill="#FFFFFF" height="378.8672" style="stroke:#181818;stroke-width:1.0;" width="10" x="786.5" y="208.4922"/><rect fill="#FFFFFF" height="28" style="stroke:#181818;stroke-width:1.0;" width="10" x="791.5" y="459.3047"/><rect fill="#FFFFFF" height="30.3516" style="stroke:#181818;stroke-width:1.0;" width="10" x="1121.5" y="238.8438"/><rect fill="none" height="48.7031" style="stroke:#000000;stroke-width:1.5;" width="316" x="729" y="509.3047"/><line style="stroke:#181818;stroke-width:0.5;stroke-dasharray:5.0,5.0;" x1="301" x2="301" y1="55.2188" y2="666.0625"/><line style="stroke:#181818;stroke-width:0.5;stroke-dasharray:5.0,5.0;" x1="419" x2="419" y1="55.2188" y2="666.0625"/><line style="stroke:#181818;stroke-width:0.5;stroke-dasharray:5.0,5.0;" x1="663" x2="663" y1="166.0313" y2="666.0625"/><line style="stroke:#181818;stroke-width:0.5;stroke-dasharray:5.0,5.0;" x1="791" x2="791" y1="55.2188" y2="666.0625"/><line style="stroke:#181818;stroke-width:0.5;stroke-dasharray:5.0,5.0;" x1="987" x2="987" y1="55.2188" y2="666.0625"/><line style="stroke:#181818;stroke-width:0.5;stroke-dasharray:5.0,5.0;" x1="1126.5" x2="1126.5" y1="55.2188" y2="666.0625"/><line style="stroke:#181818;stroke-width:0.5;stroke-dasharray:5.0,5.0;" x1="1238.5" x2="1238.5" y1="55.2188" y2="666.0625"/><line style="stroke:#181818;stroke-width:0.5;stroke-dasharray:5.0,5.0;" x1="1340.5" x2="1340.5" y1="55.2188" y2="666.0625"/><rect fill="#E2E2F0" height="49.2188" rx="2.5" ry="2.5" style="stroke:#181818;stroke-width:0.5;" width="96" x="253" y="5"/><text fill="#000000" font-family="sans-serif" font-size="14" font-style="italic" lengthAdjust="spacing" textLength="54" x="274" y="26.5332">&#171;Route&#187;</text><text fill="#000000" font-family="sans-serif" font-size="14" lengthAdjust="spacing" textLength="82" x="260" y="44.1426">PatientRoute</text><rect fill="#E2E2F0" height="49.2188" rx="2.5" ry="2.5" style="stroke:#181818;stroke-width:0.5;" width="96" x="253" y="665.0625"/><text fill="#000000" font-family="sans-serif" font-size="14" font-style="italic" lengthAdjust="spacing" textLength="54" x="274" y="686.5957">&#171;Route&#187;</text><text fill="#000000" font-family="sans-serif" font-size="14" lengthAdjust="spacing" textLength="82" x="260" y="704.2051">PatientRoute</text><rect fill="#E2E2F0" height="49.2188" rx="2.5" ry="2.5" style="stroke:#181818;stroke-width:0.5;" width="120" x="359" y="5"/><text fill="#000000" font-family="sans-serif" font-size="14" font-style="italic" lengthAdjust="spacing" textLength="78" x="380" y="26.5332">&#171;Controller&#187;</text><text fill="#000000" font-family="sans-serif" font-size="14" lengthAdjust="spacing" textLength="106" x="366" y="44.1426">PatientController</text><rect fill="#E2E2F0" height="49.2188" rx="2.5" ry="2.5" style="stroke:#181818;stroke-width:0.5;" width="120" x="359" y="665.0625"/><text fill="#000000" font-family="sans-serif" font-size="14" font-style="italic" lengthAdjust="spacing" textLength="78" x="380" y="686.5957">&#171;Controller&#187;</text><text fill="#000000" font-family="sans-serif" font-size="14" lengthAdjust="spacing" textLength="106" x="366" y="704.2051">PatientController</text><rect fill="#E2E2F0" height="49.2188" rx="2.5" ry="2.5" style="stroke:#181818;stroke-width:0.5;" width="131" x="598" y="665.0625"/><text fill="#000000" font-family="sans-serif" font-size="14" font-style="italic" lengthAdjust="spacing" textLength="46" x="640.5" y="686.5957">&#171;DTO&#187;</text><text fill="#000000" font-family="sans-serif" font-size="14" lengthAdjust="spacing" textLength="117" x="605" y="704.2051">EditingPatientDTO</text><rect fill="#E2E2F0" height="49.2188" rx="2.5" ry="2.5" style="stroke:#181818;stroke-width:0.5;" width="105" x="739" y="5"/><text fill="#000000" font-family="sans-serif" font-size="14" font-style="italic" lengthAdjust="spacing" textLength="62" x="760.5" y="26.5332">&#171;Service&#187;</text><text fill="#000000" font-family="sans-serif" font-size="14" lengthAdjust="spacing" textLength="91" x="746" y="44.1426">PatientService</text><rect fill="#E2E2F0" height="49.2188" rx="2.5" ry="2.5" style="stroke:#181818;stroke-width:0.5;" width="105" x="739" y="665.0625"/><text fill="#000000" font-family="sans-serif" font-size="14" font-style="italic" lengthAdjust="spacing" textLength="62" x="760.5" y="686.5957">&#171;Service&#187;</text><text fill="#000000" font-family="sans-serif" font-size="14" lengthAdjust="spacing" textLength="91" x="746" y="704.2051">PatientService</text><rect fill="#E2E2F0" height="49.2188" rx="2.5" ry="2.5" style="stroke:#181818;stroke-width:0.5;" width="95" x="940" y="5"/><text fill="#000000" font-family="sans-serif" font-size="14" font-style="italic" lengthAdjust="spacing" textLength="62" x="956.5" y="26.5332">&#171;Service&#187;</text><text fill="#000000" font-family="sans-serif" font-size="14" lengthAdjust="spacing" textLength="81" x="947" y="44.1426">EmailService</text><rect fill="#E2E2F0" height="49.2188" rx="2.5" ry="2.5" style="stroke:#181818;stroke-width:0.5;" width="95" x="940" y="665.0625"/><text fill="#000000" font-family="sans-serif" font-size="14" font-style="italic" lengthAdjust="spacing" textLength="62" x="956.5" y="686.5957">&#171;Service&#187;</text><text fill="#000000" font-family="sans-serif" font-size="14" lengthAdjust="spacing" textLength="81" x="947" y="704.2051">EmailService</text><rect fill="#E2E2F0" height="49.2188" rx="2.5" ry="2.5" style="stroke:#181818;stroke-width:0.5;" width="126" x="1063.5" y="5"/><text fill="#000000" font-family="sans-serif" font-size="14" font-style="italic" lengthAdjust="spacing" textLength="84" x="1084.5" y="26.5332">&#171;Repository&#187;</text><text fill="#000000" font-family="sans-serif" font-size="14" lengthAdjust="spacing" textLength="112" x="1070.5" y="44.1426">PatientRepository</text><rect fill="#E2E2F0" height="49.2188" rx="2.5" ry="2.5" style="stroke:#181818;stroke-width:0.5;" width="126" x="1063.5" y="665.0625"/><text fill="#000000" font-family="sans-serif" font-size="14" font-style="italic" lengthAdjust="spacing" textLength="84" x="1084.5" y="686.5957">&#171;Repository&#187;</text><text fill="#000000" font-family="sans-serif" font-size="14" lengthAdjust="spacing" textLength="112" x="1070.5" y="704.2051">PatientRepository</text><rect fill="#E2E2F0" height="49.2188" rx="2.5" ry="2.5" style="stroke:#181818;stroke-width:0.5;" width="78" x="1199.5" y="5"/><text fill="#000000" font-family="sans-serif" font-size="14" font-style="italic" lengthAdjust="spacing" textLength="64" x="1206.5" y="26.5332">&#171;Domain&#187;</text><text fill="#000000" font-family="sans-serif" font-size="14" lengthAdjust="spacing" textLength="44" x="1216.5" y="44.1426">Patient</text><rect fill="#E2E2F0" height="49.2188" rx="2.5" ry="2.5" style="stroke:#181818;stroke-width:0.5;" width="78" x="1199.5" y="665.0625"/><text fill="#000000" font-family="sans-serif" font-size="14" font-style="italic" lengthAdjust="spacing" textLength="64" x="1206.5" y="686.5957">&#171;Domain&#187;</text><text fill="#000000" font-family="sans-serif" font-size="14" lengthAdjust="spacing" textLength="44" x="1216.5" y="704.2051">Patient</text><rect fill="#E2E2F0" height="49.2188" rx="2.5" ry="2.5" style="stroke:#181818;stroke-width:0.5;" width="106" x="1287.5" y="5"/><text fill="#000000" font-family="sans-serif" font-size="14" font-style="italic" lengthAdjust="spacing" textLength="65" x="1308" y="26.5332">&#171;Mapper&#187;</text><text fill="#000000" font-family="sans-serif" font-size="14" lengthAdjust="spacing" textLength="92" x="1294.5" y="44.1426">PatientMapper</text><rect fill="#E2E2F0" height="49.2188" rx="2.5" ry="2.5" style="stroke:#181818;stroke-width:0.5;" width="106" x="1287.5" y="665.0625"/><text fill="#000000" font-family="sans-serif" font-size="14" font-style="italic" lengthAdjust="spacing" textLength="65" x="1308" y="686.5957">&#171;Mapper&#187;</text><text fill="#000000" font-family="sans-serif" font-size="14" lengthAdjust="spacing" textLength="92" x="1294.5" y="704.2051">PatientMapper</text><rect fill="#FFFFFF" height="569.4922" style="stroke:#181818;stroke-width:1.0;" width="10" x="296" y="87.5703"/><rect fill="#FFFFFF" height="499.7891" style="stroke:#181818;stroke-width:1.0;" width="10" x="414" y="117.9219"/><rect fill="#FFFFFF" height="378.8672" style="stroke:#181818;stroke-width:1.0;" width="10" x="786.5" y="208.4922"/><rect fill="#FFFFFF" height="28" style="stroke:#181818;stroke-width:1.0;" width="10" x="791.5" y="459.3047"/><rect fill="#FFFFFF" height="30.3516" style="stroke:#181818;stroke-width:1.0;" width="10" x="1121.5" y="238.8438"/><ellipse cx="7.5" cy="86.8203" fill="none" rx="4" ry="4" style="stroke:#181818;stroke-width:1.5;"/><polygon fill="#181818" points="284,83.5703,294,87.5703,284,91.5703,288,87.5703" style="stroke:#181818;stroke-width:1.0;"/><line style="stroke:#181818;stroke-width:1.0;" x1="12" x2="290" y1="87.5703" y2="87.5703"/><text fill="#000000" font-family="sans-serif" font-size="13" lengthAdjust="spacing" textLength="269" x="15" y="82.7139">PATCH (/api/patients/{medicalRecordNumber})</text><polygon fill="#181818" points="402,113.9219,412,117.9219,402,121.9219,406,117.9219" style="stroke:#181818;stroke-width:1.0;"/><line style="stroke:#181818;stroke-width:1.0;" x1="306" x2="408" y1="117.9219" y2="117.9219"/><text fill="#000000" font-family="sans-serif" font-size="13" lengthAdjust="spacing" textLength="43" x="313" y="113.0654">PATCH</text><polygon fill="#181818" points="586,144.2734,596,148.2734,586,152.2734,590,148.2734" style="stroke:#181818;stroke-width:1.0;"/><line style="stroke:#181818;stroke-width:1.0;" x1="424" x2="592" y1="148.2734" y2="148.2734"/><text fill="#000000" font-family="sans-serif" font-size="13" lengthAdjust="spacing" textLength="150" x="431" y="143.417">recieves request body info</text><rect fill="#E2E2F0" height="49.2188" rx="2.5" ry="2.5" style="stroke:#181818;stroke-width:0.5;" width="131" x="598" y="125.9219"/><text fill="#000000" font-family="sans-serif" font-size="14" font-style="italic" lengthAdjust="spacing" textLength="46" x="640.5" y="147.4551">&#171;DTO&#187;</text><text fill="#000000" font-family="sans-serif" font-size="14" lengthAdjust="spacing" textLength="117" x="605" y="165.0645">EditingPatientDTO</text><polygon fill="#181818" points="774.5,204.4922,784.5,208.4922,774.5,212.4922,778.5,208.4922" style="stroke:#181818;stroke-width:1.0;"/><line style="stroke:#181818;stroke-width:1.0;" x1="424" x2="780.5" y1="208.4922" y2="208.4922"/><text fill="#000000" font-family="sans-serif" font-size="13" lengthAdjust="spacing" textLength="314" x="431" y="203.6357">editPatient(medicalRecordNumber, editingPatientDTO)</text><polygon fill="#181818" points="1109.5,234.8438,1119.5,238.8438,1109.5,242.8438,1113.5,238.8438" style="stroke:#181818;stroke-width:1.0;"/><line style="stroke:#181818;stroke-width:1.0;" x1="796.5" x2="1115.5" y1="238.8438" y2="238.8438"/><text fill="#000000" font-family="sans-serif" font-size="13" lengthAdjust="spacing" textLength="306" x="803.5" y="233.9873">findByMedicalRecordNumber(medicalRecordNumber)</text><polygon fill="#181818" points="807.5,265.1953,797.5,269.1953,807.5,273.1953,803.5,269.1953" style="stroke:#181818;stroke-width:1.0;"/><line style="stroke:#181818;stroke-width:1.0;stroke-dasharray:2.0,2.0;" x1="801.5" x2="1125.5" y1="269.1953" y2="269.1953"/><text fill="#000000" font-family="sans-serif" font-size="13" lengthAdjust="spacing" textLength="39" x="813.5" y="264.3389">patient</text><polygon fill="#181818" points="1226.5,295.5469,1236.5,299.5469,1226.5,303.5469,1230.5,299.5469" style="stroke:#181818;stroke-width:1.0;"/><line style="stroke:#181818;stroke-width:1.0;" x1="796.5" x2="1232.5" y1="299.5469" y2="299.5469"/><text fill="#000000" font-family="sans-serif" font-size="13" lengthAdjust="spacing" textLength="141" x="803.5" y="294.6904">changeName(newName)</text><polygon fill="#181818" points="1226.5,325.8984,1236.5,329.8984,1226.5,333.8984,1230.5,329.8984" style="stroke:#181818;stroke-width:1.0;"/><line style="stroke:#181818;stroke-width:1.0;" x1="796.5" x2="1232.5" y1="329.8984" y2="329.8984"/><text fill="#000000" font-family="sans-serif" font-size="13" lengthAdjust="spacing" textLength="139" x="803.5" y="325.042">changeEmail(newEmail)</text><polygon fill="#181818" points="1226.5,356.25,1236.5,360.25,1226.5,364.25,1230.5,360.25" style="stroke:#181818;stroke-width:1.0;"/><line style="stroke:#181818;stroke-width:1.0;" x1="796.5" x2="1232.5" y1="360.25" y2="360.25"/><text fill="#000000" font-family="sans-serif" font-size="13" lengthAdjust="spacing" textLength="237" x="803.5" y="355.3936">changePhoneNumber(newPhoneNumber)</text><polygon fill="#181818" points="1226.5,386.6016,1236.5,390.6016,1226.5,394.6016,1230.5,390.6016" style="stroke:#181818;stroke-width:1.0;"/><line style="stroke:#181818;stroke-width:1.0;" x1="796.5" x2="1232.5" y1="390.6016" y2="390.6016"/><text fill="#000000" font-family="sans-serif" font-size="13" lengthAdjust="spacing" textLength="285" x="803.5" y="385.7451">changeMedicalConditions(newMedicalConditions)</text><polygon fill="#181818" points="1114.5,416.9531,1124.5,420.9531,1114.5,424.9531,1118.5,420.9531" style="stroke:#181818;stroke-width:1.0;"/><line style="stroke:#181818;stroke-width:1.0;" x1="796.5" x2="1120.5" y1="420.9531" y2="420.9531"/><text fill="#000000" font-family="sans-serif" font-size="13" lengthAdjust="spacing" textLength="73" x="803.5" y="416.0967">save(patient)</text><line style="stroke:#181818;stroke-width:1.0;" x1="801.5" x2="843.5" y1="451.3047" y2="451.3047"/><line style="stroke:#181818;stroke-width:1.0;" x1="843.5" x2="843.5" y1="451.3047" y2="464.3047"/><line style="stroke:#181818;stroke-width:1.0;" x1="802.5" x2="843.5" y1="464.3047" y2="464.3047"/><polygon fill="#181818" points="812.5,460.3047,802.5,464.3047,812.5,468.3047,808.5,464.3047" style="stroke:#181818;stroke-width:1.0;"/><text fill="#000000" font-family="sans-serif" font-size="13" lengthAdjust="spacing" textLength="172" x="808.5" y="446.4482">logChanges(patient, "update")</text><path d="M729,509.3047 L790,509.3047 L790,517.6563 L780,527.6563 L729,527.6563 L729,509.3047 " fill="#EEEEEE" style="stroke:#000000;stroke-width:1.5;"/><rect fill="none" height="48.7031" style="stroke:#000000;stroke-width:1.5;" width="316" x="729" y="509.3047"/><text fill="#000000" font-family="sans-serif" font-size="13" font-weight="bold" lengthAdjust="spacing" textLength="16" x="744" y="523.7998">alt</text><text fill="#000000" font-family="sans-serif" font-size="11" font-weight="bold" lengthAdjust="spacing" textLength="225" x="805" y="522.7236">[content editable contains sensitive info]</text><polygon fill="#181818" points="975.5,546.0078,985.5,550.0078,975.5,554.0078,979.5,550.0078" style="stroke:#181818;stroke-width:1.0;"/><line style="stroke:#181818;stroke-width:1.0;" x1="796.5" x2="981.5" y1="550.0078" y2="550.0078"/><text fill="#000000" font-family="sans-serif" font-size="13" lengthAdjust="spacing" textLength="100" x="803.5" y="545.1514">sendEmail(email)</text><polygon fill="#181818" points="435,583.3594,425,587.3594,435,591.3594,431,587.3594" style="stroke:#181818;stroke-width:1.0;"/><line style="stroke:#181818;stroke-width:1.0;stroke-dasharray:2.0,2.0;" x1="429" x2="790.5" y1="587.3594" y2="587.3594"/><text fill="#000000" font-family="sans-serif" font-size="13" lengthAdjust="spacing" textLength="53" x="441" y="582.5029">response</text><polygon fill="#181818" points="317,613.7109,307,617.7109,317,621.7109,313,617.7109" style="stroke:#181818;stroke-width:1.0;"/><line style="stroke:#181818;stroke-width:1.0;stroke-dasharray:2.0,2.0;" x1="311" x2="418" y1="617.7109" y2="617.7109"/><text fill="#000000" font-family="sans-serif" font-size="13" lengthAdjust="spacing" textLength="53" x="323" y="612.8545">response</text><polygon fill="#181818" points="11,644.0625,1,648.0625,11,652.0625,7,648.0625" style="stroke:#181818;stroke-width:1.0;"/><line style="stroke:#181818;stroke-width:1.0;stroke-dasharray:2.0,2.0;" x1="5" x2="295" y1="648.0625" y2="648.0625"/><text fill="#000000" font-family="sans-serif" font-size="13" lengthAdjust="spacing" textLength="53" x="17" y="643.2061">response</text><!--SRC=[VLJBJiCm4BpdAonEAQBgFR8gGK7Yqb8LRfpSP2cMKjlOJb25-7VMZn2dIPj3lUlCh7Tdd2gcBI-vOiAIBRCSXDt9nW9XXeI0KhykbvaQOrTIM2th6hGZ91cbVN96VQguvU8GApo-lJYgMoZ5t-bpNa6tlFHTTI6bCJelVsIyJl23_1Af6nsKDDnAVVBpzncAy9zCK_qG4iyIRWuVJ0FNJAaWLume3G72t-Ly6MGloFR-RVLCyWLJVA42rIn-Zb3najKxAAMkDirn3_ftbh7IyfQXMPwR1UEmL698BDX3-tTP0aCIcd1xYtWD9OSM30PV3HXBzh8w4Iu-v1cX4xSWs9oDO-OJdTvvmC3xfFTO9klAEIbw1mhomKNrS5gFoquTbMhoNoJJO1ijI9GpFIbQLv3oaua3RDWHSW7VRfrTmVdBvO0-k8RSVae1iL_49-arLfmMzNR2IM4STxGvkwYPOItaSTm1glUibeULFyjqm3joqwWAfRkPSAU2qHQhBIdnHhYlm1dCzZNu3Pp440C2s-4jXAj3y4dw67oTXGDNGLC8WcBUkQR1A1mMHZcTp-D_LT5l_W40]--></g></svg>