{
	"asset":{
		"generator":"Khronos glTF Blender I/O v4.2.70",
		"version":"2.0"
	},
	"scene":0,
	"scenes":[
		{
			"name":"Scene",
			"nodes":[
				12,
				19
			]
		}
	],
	"nodes":[
		{
			"mesh":0,
			"name":"Object_10"
		},
		{
			"mesh":1,
			"name":"Object_11"
		},
		{
			"mesh":2,
			"name":"Object_12"
		},
		{
			"mesh":3,
			"name":"Object_2"
		},
		{
			"mesh":4,
			"name":"Object_3"
		},
		{
			"mesh":5,
			"name":"Object_4"
		},
		{
			"mesh":6,
			"name":"Object_5"
		},
		{
			"mesh":7,
			"name":"Object_6"
		},
		{
			"mesh":8,
			"name":"Object_7"
		},
		{
			"mesh":9,
			"name":"Object_8"
		},
		{
			"mesh":10,
			"name":"Object_9"
		},
		{
			"children":[
				0,
				1,
				2,
				3,
				4,
				5,
				6,
				7,
				8,
				9,
				10
			],
			"name":"HospitalBed.obj.cleaner.materialmerger.gles"
		},
		{
			"children":[
				11
			],
			"name":"Sketchfab_model",
			"rotation":[
				-0.70710688829422,
				0,
				0,
				0.7071066498756409
			]
		},
		{
			"mesh":11,
			"name":"Body_Patient_0"
		},
		{
			"children":[
				13
			],
			"name":"Body",
			"rotation":[
				-0.70710688829422,
				0,
				0,
				0.7071066498756409
			],
			"scale":[
				100,
				99.99999237060547,
				99.99999237060547
			],
			"translation":[
				0,
				2.5033950805664062e-06,
				2.2755809823138407e-06
			]
		},
		{
			"mesh":12,
			"name":"Serviette_Serviette_0",
			"rotation":[
				0.03352997079491615,
				-0.0005903093260712922,
				-2.841436526068719e-06,
				0.9994376301765442
			],
			"scale":[
				1.000096082687378,
				1.289759635925293,
				1.5811561346054077
			],
			"translation":[
				0.003977794665843248,
				0.01879837177693844,
				0.04933622479438782
			]
		},
		{
			"children":[
				15
			],
			"name":"Serviette",
			"rotation":[
				-0.70710688829422,
				0,
				0,
				0.7071066498756409
			],
			"scale":[
				100,
				99.99999237060547,
				99.99999237060547
			],
			"translation":[
				-0.6405839920043945,
				25.071054458618164,
				13.351458549499512
			]
		},
		{
			"children":[
				14,
				16
			],
			"name":"RootNode",
			"translation":[
				0,
				2.5033950805664062e-06,
				2.2649765014648438e-06
			]
		},
		{
			"children":[
				17
			],
			"name":"1412fa10c80d4bf287683236c388b0bd.fbx",
			"rotation":[
				0.70710688829422,
				0,
				0,
				0.7071066498756409
			],
			"translation":[
				0,
				0,
				2.86102294921875e-06
			]
		},
		{
			"children":[
				18
			],
			"name":"Sketchfab_model.001",
			"rotation":[
				-0.006298511754721403,
				-0.7321910858154297,
				-0.6810449361801147,
				0.005858537741005421
			],
			"scale":[
				1.4433832168579102,
				1.2459133863449097,
				1.1470017433166504
			],
			"translation":[
				0,
				28.309803009033203,
				26.43682289123535
			]
		}
	],
	"materials":[
		{
			"doubleSided":true,
			"name":"initialShadingGroup",
			"pbrMetallicRoughness":{
				"metallicFactor":0,
				"roughnessFactor":0.6000000238418579
			}
		},
		{
			"doubleSided":true,
			"name":"Patient",
			"normalTexture":{
				"index":0
			},
			"pbrMetallicRoughness":{
				"baseColorTexture":{
					"index":1
				},
				"metallicRoughnessTexture":{
					"index":2
				}
			}
		},
		{
			"doubleSided":true,
			"name":"Serviette",
			"pbrMetallicRoughness":{
				"baseColorFactor":[
					0.09244000911712646,
					0.3694792687892914,
					0.525974690914154,
					1
				],
				"metallicFactor":0
			}
		}
	],
	"meshes":[
		{
			"name":"Object_8",
			"primitives":[
				{
					"attributes":{
						"POSITION":0,
						"NORMAL":1,
						"TEXCOORD_0":2
					},
					"indices":3,
					"material":0
				}
			]
		},
		{
			"name":"Object_9",
			"primitives":[
				{
					"attributes":{
						"POSITION":4,
						"NORMAL":5,
						"TEXCOORD_0":6
					},
					"indices":7,
					"material":0
				}
			]
		},
		{
			"name":"Object_10",
			"primitives":[
				{
					"attributes":{
						"POSITION":8,
						"NORMAL":9,
						"TEXCOORD_0":10
					},
					"indices":11,
					"material":0
				}
			]
		},
		{
			"name":"Object_0",
			"primitives":[
				{
					"attributes":{
						"POSITION":12,
						"NORMAL":13,
						"TEXCOORD_0":14
					},
					"indices":15,
					"material":0
				}
			]
		},
		{
			"name":"Object_1",
			"primitives":[
				{
					"attributes":{
						"POSITION":16,
						"NORMAL":17
					},
					"indices":18,
					"material":0
				}
			]
		},
		{
			"name":"Object_2",
			"primitives":[
				{
					"attributes":{
						"POSITION":19,
						"NORMAL":20
					},
					"indices":21,
					"material":0
				}
			]
		},
		{
			"name":"Object_3",
			"primitives":[
				{
					"attributes":{
						"POSITION":22,
						"NORMAL":23,
						"TEXCOORD_0":24
					},
					"indices":25,
					"material":0
				}
			]
		},
		{
			"name":"Object_4",
			"primitives":[
				{
					"attributes":{
						"POSITION":26,
						"NORMAL":27,
						"TEXCOORD_0":28
					},
					"indices":29,
					"material":0
				}
			]
		},
		{
			"name":"Object_5",
			"primitives":[
				{
					"attributes":{
						"POSITION":30,
						"NORMAL":31,
						"TEXCOORD_0":32
					},
					"indices":33,
					"material":0
				}
			]
		},
		{
			"name":"Object_6",
			"primitives":[
				{
					"attributes":{
						"POSITION":34,
						"NORMAL":35,
						"TEXCOORD_0":36
					},
					"indices":37,
					"material":0
				}
			]
		},
		{
			"name":"Object_7",
			"primitives":[
				{
					"attributes":{
						"POSITION":38,
						"NORMAL":39,
						"TEXCOORD_0":40
					},
					"indices":41,
					"material":0
				}
			]
		},
		{
			"name":"Body_Patient_0",
			"primitives":[
				{
					"attributes":{
						"POSITION":42,
						"NORMAL":43,
						"TEXCOORD_0":44,
						"TEXCOORD_1":45,
						"TEXCOORD_2":46
					},
					"indices":47,
					"material":1
				}
			]
		},
		{
			"name":"Serviette_Serviette_0",
			"primitives":[
				{
					"attributes":{
						"POSITION":48,
						"NORMAL":49,
						"TEXCOORD_0":50
					},
					"indices":51,
					"material":2
				}
			]
		}
	],
	"textures":[
		{
			"sampler":0,
			"source":0
		},
		{
			"sampler":0,
			"source":1
		},
		{
			"sampler":0,
			"source":2
		}
	],
	"images":[
		{
			"mimeType":"image/png",
			"name":"Image_2",
			"uri":"Image_2.png"
		},
		{
			"mimeType":"image/png",
			"name":"Image_0",
			"uri":"Image_0.png"
		},
		{
			"mimeType":"image/png",
			"name":"Image_1",
			"uri":"Image_1.png"
		}
	],
	"accessors":[
		{
			"bufferView":0,
			"componentType":5126,
			"count":5585,
			"max":[
				70.94695281982422,
				140.3208770751953,
				6.77330207824707
			],
			"min":[
				-57.43633270263672,
				-145.02989196777344,
				-70.04039001464844
			],
			"type":"VEC3"
		},
		{
			"bufferView":1,
			"componentType":5126,
			"count":5585,
			"type":"VEC3"
		},
		{
			"bufferView":2,
			"componentType":5126,
			"count":5585,
			"type":"VEC2"
		},
		{
			"bufferView":3,
			"componentType":5123,
			"count":15354,
			"type":"SCALAR"
		},
		{
			"bufferView":4,
			"componentType":5126,
			"count":15820,
			"max":[
				70.94695281982422,
				140.3208770751953,
				31.356891632080078
			],
			"min":[
				-73.81471252441406,
				-160.4501495361328,
				-70.04039001464844
			],
			"type":"VEC3"
		},
		{
			"bufferView":5,
			"componentType":5126,
			"count":15820,
			"type":"VEC3"
		},
		{
			"bufferView":6,
			"componentType":5126,
			"count":15820,
			"type":"VEC2"
		},
		{
			"bufferView":7,
			"componentType":5123,
			"count":52080,
			"type":"SCALAR"
		},
		{
			"bufferView":8,
			"componentType":5126,
			"count":8216,
			"max":[
				69.896240234375,
				160.4501495361328,
				41.55043029785156
			],
			"min":[
				-73.91265869140625,
				-160.4501495361328,
				-68.64606475830078
			],
			"type":"VEC3"
		},
		{
			"bufferView":9,
			"componentType":5126,
			"count":8216,
			"type":"VEC3"
		},
		{
			"bufferView":10,
			"componentType":5126,
			"count":8216,
			"type":"VEC2"
		},
		{
			"bufferView":11,
			"componentType":5123,
			"count":20640,
			"type":"SCALAR"
		},
		{
			"bufferView":12,
			"componentType":5126,
			"count":706,
			"max":[
				59.57438659667969,
				148.58465576171875,
				-28.07758903503418
			],
			"min":[
				-59.57439041137695,
				-148.5846710205078,
				-44.274356842041016
			],
			"type":"VEC3"
		},
		{
			"bufferView":13,
			"componentType":5126,
			"count":706,
			"type":"VEC3"
		},
		{
			"bufferView":14,
			"componentType":5126,
			"count":706,
			"type":"VEC2"
		},
		{
			"bufferView":15,
			"componentType":5123,
			"count":1464,
			"type":"SCALAR"
		},
		{
			"bufferView":16,
			"componentType":5126,
			"count":7868,
			"max":[
				64.37521362304688,
				148.17440795898438,
				28.616310119628906
			],
			"min":[
				-65.59992980957031,
				-148.09803771972656,
				-9.736082077026367
			],
			"type":"VEC3"
		},
		{
			"bufferView":17,
			"componentType":5126,
			"count":7868,
			"type":"VEC3"
		},
		{
			"bufferView":18,
			"componentType":5123,
			"count":45120,
			"type":"SCALAR"
		},
		{
			"bufferView":19,
			"componentType":5126,
			"count":15240,
			"max":[
				-28.2161808013916,
				-58.944923400878906,
				28.754114151000977
			],
			"min":[
				-72.76811218261719,
				-70.58319091796875,
				-53.67158889770508
			],
			"type":"VEC3"
		},
		{
			"bufferView":20,
			"componentType":5126,
			"count":15240,
			"type":"VEC3"
		},
		{
			"bufferView":21,
			"componentType":5123,
			"count":91368,
			"type":"SCALAR"
		},
		{
			"bufferView":22,
			"componentType":5126,
			"count":9958,
			"max":[
				73.6852035522461,
				167.53713989257812,
				61.7274284362793
			],
			"min":[
				-73.90897369384766,
				-161.4184112548828,
				-68.13920593261719
			],
			"type":"VEC3"
		},
		{
			"bufferView":23,
			"componentType":5126,
			"count":9958,
			"type":"VEC3"
		},
		{
			"bufferView":24,
			"componentType":5126,
			"count":9958,
			"type":"VEC2"
		},
		{
			"bufferView":25,
			"componentType":5123,
			"count":32004,
			"type":"SCALAR"
		},
		{
			"bufferView":26,
			"componentType":5126,
			"count":10148,
			"max":[
				73.13214111328125,
				151.47906494140625,
				61.37944793701172
			],
			"min":[
				-73.7750473022461,
				-149.00408935546875,
				-57.49263381958008
			],
			"type":"VEC3"
		},
		{
			"bufferView":27,
			"componentType":5126,
			"count":10148,
			"type":"VEC3"
		},
		{
			"bufferView":28,
			"componentType":5126,
			"count":10148,
			"type":"VEC2"
		},
		{
			"bufferView":29,
			"componentType":5123,
			"count":27642,
			"type":"SCALAR"
		},
		{
			"bufferView":30,
			"componentType":5126,
			"count":10228,
			"max":[
				67.75003814697266,
				147.55429077148438,
				9.105122566223145
			],
			"min":[
				-65.54644012451172,
				-148.5846710205078,
				-44.274356842041016
			],
			"type":"VEC3"
		},
		{
			"bufferView":31,
			"componentType":5126,
			"count":10228,
			"type":"VEC3"
		},
		{
			"bufferView":32,
			"componentType":5126,
			"count":10228,
			"type":"VEC2"
		},
		{
			"bufferView":33,
			"componentType":5123,
			"count":27432,
			"type":"SCALAR"
		},
		{
			"bufferView":34,
			"componentType":5126,
			"count":2357,
			"max":[
				65.54644012451172,
				158.79244995117188,
				61.062774658203125
			],
			"min":[
				-64.10420989990234,
				-158.79244995117188,
				-39.801509857177734
			],
			"type":"VEC3"
		},
		{
			"bufferView":35,
			"componentType":5126,
			"count":2357,
			"type":"VEC3"
		},
		{
			"bufferView":36,
			"componentType":5126,
			"count":2357,
			"type":"VEC2"
		},
		{
			"bufferView":37,
			"componentType":5123,
			"count":6540,
			"type":"SCALAR"
		},
		{
			"bufferView":38,
			"componentType":5126,
			"count":10067,
			"max":[
				64.10420989990234,
				158.79244995117188,
				61.062774658203125
			],
			"min":[
				-64.10420989990234,
				-158.79244995117188,
				-40.908607482910156
			],
			"type":"VEC3"
		},
		{
			"bufferView":39,
			"componentType":5126,
			"count":10067,
			"type":"VEC3"
		},
		{
			"bufferView":40,
			"componentType":5126,
			"count":10067,
			"type":"VEC2"
		},
		{
			"bufferView":41,
			"componentType":5123,
			"count":52092,
			"type":"SCALAR"
		},
		{
			"bufferView":42,
			"componentType":5126,
			"count":15974,
			"max":[
				0.3144174814224243,
				0.7767272591590881,
				0.2533271610736847
			],
			"min":[
				-0.32805198431015015,
				-1.087455153465271,
				-0.01638658158481121
			],
			"type":"VEC3"
		},
		{
			"bufferView":43,
			"componentType":5126,
			"count":15974,
			"type":"VEC3"
		},
		{
			"bufferView":44,
			"componentType":5126,
			"count":15974,
			"type":"VEC2"
		},
		{
			"bufferView":45,
			"componentType":5126,
			"count":15974,
			"type":"VEC2"
		},
		{
			"bufferView":46,
			"componentType":5126,
			"count":15974,
			"type":"VEC2"
		},
		{
			"bufferView":47,
			"componentType":5123,
			"count":86784,
			"type":"SCALAR"
		},
		{
			"bufferView":48,
			"componentType":5126,
			"count":1089,
			"max":[
				0.3185914158821106,
				0.1717393696308136,
				-0.012480741366744041
			],
			"min":[
				-0.2596473693847656,
				-0.15916649997234344,
				-0.25617989897727966
			],
			"type":"VEC3"
		},
		{
			"bufferView":49,
			"componentType":5126,
			"count":1089,
			"type":"VEC3"
		},
		{
			"bufferView":50,
			"componentType":5126,
			"count":1089,
			"type":"VEC2"
		},
		{
			"bufferView":51,
			"componentType":5123,
			"count":6144,
			"type":"SCALAR"
		}
	],
	"bufferViews":[
		{
			"buffer":0,
			"byteLength":67020,
			"byteOffset":0,
			"target":34962
		},
		{
			"buffer":0,
			"byteLength":67020,
			"byteOffset":67020,
			"target":34962
		},
		{
			"buffer":0,
			"byteLength":44680,
			"byteOffset":134040,
			"target":34962
		},
		{
			"buffer":0,
			"byteLength":30708,
			"byteOffset":178720,
			"target":34963
		},
		{
			"buffer":0,
			"byteLength":189840,
			"byteOffset":209428,
			"target":34962
		},
		{
			"buffer":0,
			"byteLength":189840,
			"byteOffset":399268,
			"target":34962
		},
		{
			"buffer":0,
			"byteLength":126560,
			"byteOffset":589108,
			"target":34962
		},
		{
			"buffer":0,
			"byteLength":104160,
			"byteOffset":715668,
			"target":34963
		},
		{
			"buffer":0,
			"byteLength":98592,
			"byteOffset":819828,
			"target":34962
		},
		{
			"buffer":0,
			"byteLength":98592,
			"byteOffset":918420,
			"target":34962
		},
		{
			"buffer":0,
			"byteLength":65728,
			"byteOffset":1017012,
			"target":34962
		},
		{
			"buffer":0,
			"byteLength":41280,
			"byteOffset":1082740,
			"target":34963
		},
		{
			"buffer":0,
			"byteLength":8472,
			"byteOffset":1124020,
			"target":34962
		},
		{
			"buffer":0,
			"byteLength":8472,
			"byteOffset":1132492,
			"target":34962
		},
		{
			"buffer":0,
			"byteLength":5648,
			"byteOffset":1140964,
			"target":34962
		},
		{
			"buffer":0,
			"byteLength":2928,
			"byteOffset":1146612,
			"target":34963
		},
		{
			"buffer":0,
			"byteLength":94416,
			"byteOffset":1149540,
			"target":34962
		},
		{
			"buffer":0,
			"byteLength":94416,
			"byteOffset":1243956,
			"target":34962
		},
		{
			"buffer":0,
			"byteLength":90240,
			"byteOffset":1338372,
			"target":34963
		},
		{
			"buffer":0,
			"byteLength":182880,
			"byteOffset":1428612,
			"target":34962
		},
		{
			"buffer":0,
			"byteLength":182880,
			"byteOffset":1611492,
			"target":34962
		},
		{
			"buffer":0,
			"byteLength":182736,
			"byteOffset":1794372,
			"target":34963
		},
		{
			"buffer":0,
			"byteLength":119496,
			"byteOffset":1977108,
			"target":34962
		},
		{
			"buffer":0,
			"byteLength":119496,
			"byteOffset":2096604,
			"target":34962
		},
		{
			"buffer":0,
			"byteLength":79664,
			"byteOffset":2216100,
			"target":34962
		},
		{
			"buffer":0,
			"byteLength":64008,
			"byteOffset":2295764,
			"target":34963
		},
		{
			"buffer":0,
			"byteLength":121776,
			"byteOffset":2359772,
			"target":34962
		},
		{
			"buffer":0,
			"byteLength":121776,
			"byteOffset":2481548,
			"target":34962
		},
		{
			"buffer":0,
			"byteLength":81184,
			"byteOffset":2603324,
			"target":34962
		},
		{
			"buffer":0,
			"byteLength":55284,
			"byteOffset":2684508,
			"target":34963
		},
		{
			"buffer":0,
			"byteLength":122736,
			"byteOffset":2739792,
			"target":34962
		},
		{
			"buffer":0,
			"byteLength":122736,
			"byteOffset":2862528,
			"target":34962
		},
		{
			"buffer":0,
			"byteLength":81824,
			"byteOffset":2985264,
			"target":34962
		},
		{
			"buffer":0,
			"byteLength":54864,
			"byteOffset":3067088,
			"target":34963
		},
		{
			"buffer":0,
			"byteLength":28284,
			"byteOffset":3121952,
			"target":34962
		},
		{
			"buffer":0,
			"byteLength":28284,
			"byteOffset":3150236,
			"target":34962
		},
		{
			"buffer":0,
			"byteLength":18856,
			"byteOffset":3178520,
			"target":34962
		},
		{
			"buffer":0,
			"byteLength":13080,
			"byteOffset":3197376,
			"target":34963
		},
		{
			"buffer":0,
			"byteLength":120804,
			"byteOffset":3210456,
			"target":34962
		},
		{
			"buffer":0,
			"byteLength":120804,
			"byteOffset":3331260,
			"target":34962
		},
		{
			"buffer":0,
			"byteLength":80536,
			"byteOffset":3452064,
			"target":34962
		},
		{
			"buffer":0,
			"byteLength":104184,
			"byteOffset":3532600,
			"target":34963
		},
		{
			"buffer":0,
			"byteLength":191688,
			"byteOffset":3636784,
			"target":34962
		},
		{
			"buffer":0,
			"byteLength":191688,
			"byteOffset":3828472,
			"target":34962
		},
		{
			"buffer":0,
			"byteLength":127792,
			"byteOffset":4020160,
			"target":34962
		},
		{
			"buffer":0,
			"byteLength":127792,
			"byteOffset":4147952,
			"target":34962
		},
		{
			"buffer":0,
			"byteLength":127792,
			"byteOffset":4275744,
			"target":34962
		},
		{
			"buffer":0,
			"byteLength":173568,
			"byteOffset":4403536,
			"target":34963
		},
		{
			"buffer":0,
			"byteLength":13068,
			"byteOffset":4577104,
			"target":34962
		},
		{
			"buffer":0,
			"byteLength":13068,
			"byteOffset":4590172,
			"target":34962
		},
		{
			"buffer":0,
			"byteLength":8712,
			"byteOffset":4603240,
			"target":34962
		},
		{
			"buffer":0,
			"byteLength":12288,
			"byteOffset":4611952,
			"target":34963
		}
	],
	"samplers":[
		{
			"magFilter":9729,
			"minFilter":9987
		}
	],
	"buffers":[
		{
			"byteLength":4624240,
			"uri":"untitled.bin"
		}
	]
}
