<?xml version="1.0" encoding="us-ascii" standalone="no"?><svg xmlns="http://www.w3.org/2000/svg" xmlns:xlink="http://www.w3.org/1999/xlink" contentStyleType="text/css" height="266px" preserveAspectRatio="none" style="width:531px;height:266px;background:#FFFFFF;" version="1.1" viewBox="0 0 531 266" width="531px" zoomAndPan="magnify"><defs/><g><rect fill="#FFFFFF" height="137.7578" style="stroke:#181818;stroke-width:1.0;" width="10" x="62" y="65.2188"/><rect fill="#FFFFFF" height="106.4063" style="stroke:#181818;stroke-width:1.0;" width="10" x="360" y="87.5703"/><line style="stroke:#181818;stroke-width:0.5;stroke-dasharray:5.0,5.0;" x1="67" x2="67" y1="55.2188" y2="211.9766"/><line style="stroke:#181818;stroke-width:0.5;stroke-dasharray:5.0,5.0;" x1="365" x2="365" y1="55.2188" y2="211.9766"/><rect fill="#E2E2F0" height="49.2188" rx="2.5" ry="2.5" style="stroke:#181818;stroke-width:0.5;" width="124" x="5" y="5"/><text fill="#000000" font-family="sans-serif" font-size="14" font-style="italic" lengthAdjust="spacing" textLength="110" x="12" y="26.5332">&#171;Container (C4)&#187;</text><text fill="#000000" font-family="sans-serif" font-size="14" lengthAdjust="spacing" textLength="27" x="53.5" y="44.1426">SPA</text><rect fill="#E2E2F0" height="49.2188" rx="2.5" ry="2.5" style="stroke:#181818;stroke-width:0.5;" width="124" x="5" y="210.9766"/><text fill="#000000" font-family="sans-serif" font-size="14" font-style="italic" lengthAdjust="spacing" textLength="110" x="12" y="232.5098">&#171;Container (C4)&#187;</text><text fill="#000000" font-family="sans-serif" font-size="14" lengthAdjust="spacing" textLength="27" x="53.5" y="250.1191">SPA</text><rect fill="#E2E2F0" height="49.2188" rx="2.5" ry="2.5" style="stroke:#181818;stroke-width:0.5;" width="124" x="303" y="5"/><text fill="#000000" font-family="sans-serif" font-size="14" font-style="italic" lengthAdjust="spacing" textLength="110" x="310" y="26.5332">&#171;Container (C4)&#187;</text><text fill="#000000" font-family="sans-serif" font-size="14" lengthAdjust="spacing" textLength="80" x="325" y="44.1426">MastersData</text><rect fill="#E2E2F0" height="49.2188" rx="2.5" ry="2.5" style="stroke:#181818;stroke-width:0.5;" width="124" x="303" y="210.9766"/><text fill="#000000" font-family="sans-serif" font-size="14" font-style="italic" lengthAdjust="spacing" textLength="110" x="310" y="232.5098">&#171;Container (C4)&#187;</text><text fill="#000000" font-family="sans-serif" font-size="14" lengthAdjust="spacing" textLength="80" x="325" y="250.1191">MastersData</text><rect fill="#FFFFFF" height="137.7578" style="stroke:#181818;stroke-width:1.0;" width="10" x="62" y="65.2188"/><rect fill="#FFFFFF" height="106.4063" style="stroke:#181818;stroke-width:1.0;" width="10" x="360" y="87.5703"/><polygon fill="#181818" points="348,83.5703,358,87.5703,348,91.5703,352,87.5703" style="stroke:#181818;stroke-width:1.0;"/><line style="stroke:#181818;stroke-width:1.0;" x1="72" x2="354" y1="87.5703" y2="87.5703"/><text fill="#000000" font-family="sans-serif" font-size="13" lengthAdjust="spacing" textLength="269" x="79" y="82.7139">PATCH (/api/patients/{medicalRecordNumber})</text><line style="stroke:#181818;stroke-width:1.0;" x1="370" x2="412" y1="150.625" y2="150.625"/><line style="stroke:#181818;stroke-width:1.0;" x1="412" x2="412" y1="150.625" y2="163.625"/><line style="stroke:#181818;stroke-width:1.0;" x1="371" x2="412" y1="163.625" y2="163.625"/><polygon fill="#181818" points="381,159.625,371,163.625,381,167.625,377,163.625" style="stroke:#181818;stroke-width:1.0;"/><text fill="#000000" font-family="sans-serif" font-size="13" lengthAdjust="spacing" textLength="147" x="377" y="113.0654">receive request body info,</text><text fill="#000000" font-family="sans-serif" font-size="13" lengthAdjust="spacing" textLength="109" x="377" y="129.417">edits patient profile</text><text fill="#000000" font-family="sans-serif" font-size="13" lengthAdjust="spacing" textLength="94" x="377" y="145.7686">and saves in DB</text><polygon fill="#181818" points="83,189.9766,73,193.9766,83,197.9766,79,193.9766" style="stroke:#181818;stroke-width:1.0;"/><line style="stroke:#181818;stroke-width:1.0;stroke-dasharray:2.0,2.0;" x1="77" x2="364" y1="193.9766" y2="193.9766"/><text fill="#000000" font-family="sans-serif" font-size="13" lengthAdjust="spacing" textLength="53" x="89" y="189.1201">response</text><!--SRC=[RSr1Qm9138RX-_oAu4cXPI-UH1RSLUb54TkZbpWJ8Q2PQP9TACN_tg6KraDFkRpVauBg7BcWE4nU3wi9eC5s0yjbdyMHXHIc_NpMjg4yfZiq9xKrEdvFkdyd0QFpY4wL35LzRckuWCFghN-1QOE5cuBE96xDvuqIHxmUAMPD- -5s9htF_eHk4xfVGIaIZrJl-q3cSCxf0rWk-UaabN637nUAvWjVwIGe2Gn7ijh1kWjAFgXKmKeMev3euTKN]--></g></svg>