<?xml version="1.0" encoding="us-ascii" standalone="no"?><svg xmlns="http://www.w3.org/2000/svg" xmlns:xlink="http://www.w3.org/1999/xlink" contentStyleType="text/css" height="606px" preserveAspectRatio="none" style="width:967px;height:606px;background:#FFFFFF;" version="1.1" viewBox="0 0 967 606" width="967px" zoomAndPan="magnify"><defs/><g><rect fill="#FFFFFF" height="477.9766" style="stroke:#181818;stroke-width:1.0;" width="10" x="62" y="65.2188"/><rect fill="#FFFFFF" height="446.625" style="stroke:#181818;stroke-width:1.0;" width="10" x="243" y="87.5703"/><rect fill="#FFFFFF" height="385.9219" style="stroke:#181818;stroke-width:1.0;" width="10" x="333" y="117.9219"/><rect fill="#FFFFFF" height="265" style="stroke:#181818;stroke-width:1.0;" width="10" x="620" y="208.4922"/><rect fill="#FFFFFF" height="83.5391" style="stroke:#181818;stroke-width:1.0;" width="10" x="814" y="264.1953"/><rect fill="none" height="94.8906" style="stroke:#000000;stroke-width:1.5;" width="301" x="577" y="223.4922"/><rect fill="none" height="81.4063" style="stroke:#000000;stroke-width:1.5;" width="384" x="577" y="362.7344"/><line style="stroke:#181818;stroke-width:0.5;stroke-dasharray:5.0,5.0;" x1="67" x2="67" y1="55.2188" y2="552.1953"/><line style="stroke:#181818;stroke-width:0.5;stroke-dasharray:5.0,5.0;" x1="248" x2="248" y1="55.2188" y2="552.1953"/><line style="stroke:#181818;stroke-width:0.5;stroke-dasharray:5.0,5.0;" x1="338" x2="338" y1="55.2188" y2="552.1953"/><line style="stroke:#181818;stroke-width:0.5;stroke-dasharray:5.0,5.0;" x1="547" x2="547" y1="166.0313" y2="552.1953"/><line style="stroke:#181818;stroke-width:0.5;stroke-dasharray:5.0,5.0;" x1="625" x2="625" y1="55.2188" y2="552.1953"/><line style="stroke:#181818;stroke-width:0.5;stroke-dasharray:5.0,5.0;" x1="819" x2="819" y1="55.2188" y2="552.1953"/><line style="stroke:#181818;stroke-width:0.5;stroke-dasharray:5.0,5.0;" x1="914" x2="914" y1="422.6133" y2="552.1953"/><rect fill="#E2E2F0" height="49.2188" rx="2.5" ry="2.5" style="stroke:#181818;stroke-width:0.5;" width="124" x="5" y="5"/><text fill="#000000" font-family="sans-serif" font-size="14" font-style="italic" lengthAdjust="spacing" textLength="110" x="12" y="26.5332">&#171;Container (C4)&#187;</text><text fill="#000000" font-family="sans-serif" font-size="14" lengthAdjust="spacing" textLength="27" x="53.5" y="44.1426">SPA</text><rect fill="#E2E2F0" height="49.2188" rx="2.5" ry="2.5" style="stroke:#181818;stroke-width:0.5;" width="124" x="5" y="551.1953"/><text fill="#000000" font-family="sans-serif" font-size="14" font-style="italic" lengthAdjust="spacing" textLength="110" x="12" y="572.7285">&#171;Container (C4)&#187;</text><text fill="#000000" font-family="sans-serif" font-size="14" lengthAdjust="spacing" textLength="27" x="53.5" y="590.3379">SPA</text><rect fill="#E2E2F0" height="49.2188" rx="2.5" ry="2.5" style="stroke:#181818;stroke-width:0.5;" width="68" x="214" y="5"/><text fill="#000000" font-family="sans-serif" font-size="14" font-style="italic" lengthAdjust="spacing" textLength="54" x="221" y="26.5332">&#171;Route&#187;</text><text fill="#000000" font-family="sans-serif" font-size="14" lengthAdjust="spacing" textLength="38" x="229" y="44.1426">Route</text><rect fill="#E2E2F0" height="49.2188" rx="2.5" ry="2.5" style="stroke:#181818;stroke-width:0.5;" width="68" x="214" y="551.1953"/><text fill="#000000" font-family="sans-serif" font-size="14" font-style="italic" lengthAdjust="spacing" textLength="54" x="221" y="572.7285">&#171;Route&#187;</text><text fill="#000000" font-family="sans-serif" font-size="14" lengthAdjust="spacing" textLength="38" x="229" y="590.3379">Route</text><rect fill="#E2E2F0" height="49.2188" rx="2.5" ry="2.5" style="stroke:#181818;stroke-width:0.5;" width="92" x="292" y="5"/><text fill="#000000" font-family="sans-serif" font-size="14" font-style="italic" lengthAdjust="spacing" textLength="78" x="299" y="26.5332">&#171;Controller&#187;</text><text fill="#000000" font-family="sans-serif" font-size="14" lengthAdjust="spacing" textLength="62" x="307" y="44.1426">Controller</text><rect fill="#E2E2F0" height="49.2188" rx="2.5" ry="2.5" style="stroke:#181818;stroke-width:0.5;" width="92" x="292" y="551.1953"/><text fill="#000000" font-family="sans-serif" font-size="14" font-style="italic" lengthAdjust="spacing" textLength="78" x="299" y="572.7285">&#171;Controller&#187;</text><text fill="#000000" font-family="sans-serif" font-size="14" lengthAdjust="spacing" textLength="62" x="307" y="590.3379">Controller</text><rect fill="#E2E2F0" height="49.2188" rx="2.5" ry="2.5" style="stroke:#181818;stroke-width:0.5;" width="60" x="517" y="551.1953"/><text fill="#000000" font-family="sans-serif" font-size="14" font-style="italic" lengthAdjust="spacing" textLength="46" x="524" y="572.7285">&#171;DTO&#187;</text><text fill="#000000" font-family="sans-serif" font-size="14" lengthAdjust="spacing" textLength="30" x="532" y="590.3379">DTO</text><rect fill="#E2E2F0" height="49.2188" rx="2.5" ry="2.5" style="stroke:#181818;stroke-width:0.5;" width="76" x="587" y="5"/><text fill="#000000" font-family="sans-serif" font-size="14" font-style="italic" lengthAdjust="spacing" textLength="62" x="594" y="26.5332">&#171;Service&#187;</text><text fill="#000000" font-family="sans-serif" font-size="14" lengthAdjust="spacing" textLength="47" x="601.5" y="44.1426">Service</text><rect fill="#E2E2F0" height="49.2188" rx="2.5" ry="2.5" style="stroke:#181818;stroke-width:0.5;" width="76" x="587" y="551.1953"/><text fill="#000000" font-family="sans-serif" font-size="14" font-style="italic" lengthAdjust="spacing" textLength="62" x="594" y="572.7285">&#171;Service&#187;</text><text fill="#000000" font-family="sans-serif" font-size="14" lengthAdjust="spacing" textLength="47" x="601.5" y="590.3379">Service</text><rect fill="#E2E2F0" height="49.2188" rx="2.5" ry="2.5" style="stroke:#181818;stroke-width:0.5;" width="98" x="770" y="5"/><text fill="#000000" font-family="sans-serif" font-size="14" font-style="italic" lengthAdjust="spacing" textLength="84" x="777" y="26.5332">&#171;Repository&#187;</text><text fill="#000000" font-family="sans-serif" font-size="14" lengthAdjust="spacing" textLength="68" x="785" y="44.1426">Repository</text><rect fill="#E2E2F0" height="49.2188" rx="2.5" ry="2.5" style="stroke:#181818;stroke-width:0.5;" width="98" x="770" y="551.1953"/><text fill="#000000" font-family="sans-serif" font-size="14" font-style="italic" lengthAdjust="spacing" textLength="84" x="777" y="572.7285">&#171;Repository&#187;</text><text fill="#000000" font-family="sans-serif" font-size="14" lengthAdjust="spacing" textLength="68" x="785" y="590.3379">Repository</text><rect fill="#E2E2F0" height="49.2188" rx="2.5" ry="2.5" style="stroke:#181818;stroke-width:0.5;" width="73" x="878" y="551.1953"/><text fill="#000000" font-family="sans-serif" font-size="14" font-style="italic" lengthAdjust="spacing" textLength="46" x="891.5" y="572.7285">&#171;DTO&#187;</text><text fill="#000000" font-family="sans-serif" font-size="14" lengthAdjust="spacing" textLength="59" x="885" y="590.3379">ViewDTO</text><rect fill="#FFFFFF" height="477.9766" style="stroke:#181818;stroke-width:1.0;" width="10" x="62" y="65.2188"/><rect fill="#FFFFFF" height="446.625" style="stroke:#181818;stroke-width:1.0;" width="10" x="243" y="87.5703"/><rect fill="#FFFFFF" height="385.9219" style="stroke:#181818;stroke-width:1.0;" width="10" x="333" y="117.9219"/><rect fill="#FFFFFF" height="265" style="stroke:#181818;stroke-width:1.0;" width="10" x="620" y="208.4922"/><rect fill="#FFFFFF" height="83.5391" style="stroke:#181818;stroke-width:1.0;" width="10" x="814" y="264.1953"/><polygon fill="#181818" points="231,83.5703,241,87.5703,231,91.5703,235,87.5703" style="stroke:#181818;stroke-width:1.0;"/><line style="stroke:#181818;stroke-width:1.0;" x1="72" x2="237" y1="87.5703" y2="87.5703"/><text fill="#000000" font-family="sans-serif" font-size="13" lengthAdjust="spacing" textLength="152" x="79" y="82.7139">GET (/api/patients/search)</text><polygon fill="#181818" points="321,113.9219,331,117.9219,321,121.9219,325,117.9219" style="stroke:#181818;stroke-width:1.0;"/><line style="stroke:#181818;stroke-width:1.0;" x1="253" x2="327" y1="117.9219" y2="117.9219"/><text fill="#000000" font-family="sans-serif" font-size="13" lengthAdjust="spacing" textLength="26" x="260" y="113.0654">GET</text><polygon fill="#181818" points="505,144.2734,515,148.2734,505,152.2734,509,148.2734" style="stroke:#181818;stroke-width:1.0;"/><line style="stroke:#181818;stroke-width:1.0;" x1="343" x2="511" y1="148.2734" y2="148.2734"/><text fill="#000000" font-family="sans-serif" font-size="13" lengthAdjust="spacing" textLength="150" x="350" y="143.417">recieves request body info</text><rect fill="#E2E2F0" height="49.2188" rx="2.5" ry="2.5" style="stroke:#181818;stroke-width:0.5;" width="60" x="517" y="125.9219"/><text fill="#000000" font-family="sans-serif" font-size="14" font-style="italic" lengthAdjust="spacing" textLength="46" x="524" y="147.4551">&#171;DTO&#187;</text><text fill="#000000" font-family="sans-serif" font-size="14" lengthAdjust="spacing" textLength="30" x="532" y="165.0645">DTO</text><polygon fill="#181818" points="608,204.4922,618,208.4922,608,212.4922,612,208.4922" style="stroke:#181818;stroke-width:1.0;"/><line style="stroke:#181818;stroke-width:1.0;" x1="343" x2="614" y1="208.4922" y2="208.4922"/><text fill="#000000" font-family="sans-serif" font-size="13" lengthAdjust="spacing" textLength="164" x="350" y="203.6357">search the patients by filters</text><path d="M577,223.4922 L638,223.4922 L638,231.8438 L628,241.8438 L577,241.8438 L577,223.4922 " fill="#EEEEEE" style="stroke:#000000;stroke-width:1.5;"/><rect fill="none" height="94.8906" style="stroke:#000000;stroke-width:1.5;" width="301" x="577" y="223.4922"/><text fill="#000000" font-family="sans-serif" font-size="13" font-weight="bold" lengthAdjust="spacing" textLength="16" x="592" y="237.9873">alt</text><text fill="#000000" font-family="sans-serif" font-size="11" font-weight="bold" lengthAdjust="spacing" textLength="162" x="653" y="236.9111">[multiple filters are provided]</text><polygon fill="#181818" points="802,260.1953,812,264.1953,802,268.1953,806,264.1953" style="stroke:#181818;stroke-width:1.0;"/><line style="stroke:#181818;stroke-width:1.0;" x1="630" x2="808" y1="264.1953" y2="264.1953"/><text fill="#000000" font-family="sans-serif" font-size="13" lengthAdjust="spacing" textLength="165" x="637" y="259.3389">get the patients by the filters</text><line style="stroke:#000000;stroke-width:1.0;stroke-dasharray:2.0,2.0;" x1="577" x2="878" y1="273.1953" y2="273.1953"/><text fill="#000000" font-family="sans-serif" font-size="11" font-weight="bold" lengthAdjust="spacing" textLength="110" x="582" y="284.6143">[no filters provided]</text><polygon fill="#181818" points="802,306.3828,812,310.3828,802,314.3828,806,310.3828" style="stroke:#181818;stroke-width:1.0;"/><line style="stroke:#181818;stroke-width:1.0;" x1="630" x2="808" y1="310.3828" y2="310.3828"/><text fill="#000000" font-family="sans-serif" font-size="13" lengthAdjust="spacing" textLength="85" x="637" y="305.5264">get all patients</text><polygon fill="#181818" points="641,343.7344,631,347.7344,641,351.7344,637,347.7344" style="stroke:#181818;stroke-width:1.0;"/><line style="stroke:#181818;stroke-width:1.0;stroke-dasharray:2.0,2.0;" x1="635" x2="818" y1="347.7344" y2="347.7344"/><text fill="#000000" font-family="sans-serif" font-size="13" lengthAdjust="spacing" textLength="46" x="647" y="342.8779">patients</text><path d="M577,362.7344 L650,362.7344 L650,371.0859 L640,381.0859 L577,381.0859 L577,362.7344 " fill="#EEEEEE" style="stroke:#000000;stroke-width:1.5;"/><rect fill="none" height="81.4063" style="stroke:#000000;stroke-width:1.5;" width="384" x="577" y="362.7344"/><text fill="#000000" font-family="sans-serif" font-size="13" font-weight="bold" lengthAdjust="spacing" textLength="28" x="592" y="377.2295">loop</text><text fill="#000000" font-family="sans-serif" font-size="11" font-weight="bold" lengthAdjust="spacing" textLength="129" x="665" y="376.1533">[for each patient found]</text><polygon fill="#181818" points="866,432.1406,876,436.1406,866,440.1406,870,436.1406" style="stroke:#181818;stroke-width:1.0;"/><line style="stroke:#181818;stroke-width:1.0;" x1="630" x2="872" y1="436.1406" y2="436.1406"/><text fill="#000000" font-family="sans-serif" font-size="13" lengthAdjust="spacing" textLength="167" x="637" y="398.5811">create the DTO with patient's</text><text fill="#000000" font-family="sans-serif" font-size="13" lengthAdjust="spacing" textLength="176" x="637" y="414.9326">medical record number, name,</text><text fill="#000000" font-family="sans-serif" font-size="13" lengthAdjust="spacing" textLength="128" x="637" y="431.2842">email and date of birth</text><rect fill="#E2E2F0" height="49.2188" rx="2.5" ry="2.5" style="stroke:#181818;stroke-width:0.5;" width="73" x="878" y="383.9219"/><text fill="#000000" font-family="sans-serif" font-size="14" font-style="italic" lengthAdjust="spacing" textLength="46" x="891.5" y="405.4551">&#171;DTO&#187;</text><text fill="#000000" font-family="sans-serif" font-size="14" lengthAdjust="spacing" textLength="59" x="885" y="423.0645">ViewDTO</text><polygon fill="#181818" points="354,469.4922,344,473.4922,354,477.4922,350,473.4922" style="stroke:#181818;stroke-width:1.0;"/><line style="stroke:#181818;stroke-width:1.0;stroke-dasharray:2.0,2.0;" x1="348" x2="624" y1="473.4922" y2="473.4922"/><text fill="#000000" font-family="sans-serif" font-size="13" lengthAdjust="spacing" textLength="26" x="360" y="468.6357">DTO</text><polygon fill="#181818" points="264,499.8438,254,503.8438,264,507.8438,260,503.8438" style="stroke:#181818;stroke-width:1.0;"/><line style="stroke:#181818;stroke-width:1.0;stroke-dasharray:2.0,2.0;" x1="258" x2="337" y1="503.8438" y2="503.8438"/><text fill="#000000" font-family="sans-serif" font-size="13" lengthAdjust="spacing" textLength="53" x="270" y="498.9873">response</text><polygon fill="#181818" points="83,530.1953,73,534.1953,83,538.1953,79,534.1953" style="stroke:#181818;stroke-width:1.0;"/><line style="stroke:#181818;stroke-width:1.0;stroke-dasharray:2.0,2.0;" x1="77" x2="247" y1="534.1953" y2="534.1953"/><text fill="#000000" font-family="sans-serif" font-size="13" lengthAdjust="spacing" textLength="53" x="89" y="529.3389">response</text><!--SRC=[ZL8zR-Cm3DtrAxXTMhJ8SbDW13YqHSSMr-AcBehDD0HaIQNe5FdtHycVvootM2Jz7ldqg6XPgAPelS3Rwo-mgHnLzH2yMFB8i7duURFVcxX0_WwTOCRsGLMLSmNA7JWufoqKkSZwvdsouZo-lsHmFgfAlwlVRyXdgilaCQog8LfBn1WIIU1BqJbdAdPALfm_XD-3WZ4SLTXQw6prhkgEoGxTx_lBx-3vwHqsMnjf6wqGUadRX9RhqytCAb3JkwNCXHc5FmFdFsO1KehAkBrLD6DDUCQamLU7IU0GcWkGFuOLOJHe1xqQa1F2g10E5pYI4-Iqk5hFCDO9j9qJYWv755XMDeSpDTYOiNSsONPs1vyeLsDoVZLgPXbq2S67QT1_3R7EJKCC-aOBOXYbOp_NNGWHZe41hLv_A6kXy_yq7rPTtAqPixoiEM__csGY_aWVliM6Qklo4W8tuBlsW7m7thPuz-6njUJ0gfecDmb7E13BgUZBMkQXwoUWiqo3LujOBdHyR-K9f1XymYLbyMu66oRKNm00]--></g></svg>