<?xml version="1.0" encoding="us-ascii" standalone="no"?><svg xmlns="http://www.w3.org/2000/svg" xmlns:xlink="http://www.w3.org/1999/xlink" contentStyleType="text/css" height="386px" preserveAspectRatio="none" style="width:650px;height:386px;background:#FFFFFF;" version="1.1" viewBox="0 0 650 386" width="650px" zoomAndPan="magnify"><defs/><g><rect fill="#FFFFFF" height="112.4063" style="stroke:#181818;stroke-width:1.0;" width="10" x="62" y="65.2188"/><rect fill="#FFFFFF" height="115.4063" style="stroke:#181818;stroke-width:1.0;" width="10" x="62" y="207.9766"/><rect fill="#FFFFFF" height="90.0547" style="stroke:#181818;stroke-width:1.0;" width="10" x="200" y="87.5703"/><rect fill="#FFFFFF" height="106.4063" style="stroke:#181818;stroke-width:1.0;" width="10" x="424" y="207.9766"/><line style="stroke:#181818;stroke-width:0.5;stroke-dasharray:5.0,5.0;" x1="67" x2="67" y1="55.2188" y2="332.3828"/><line style="stroke:#181818;stroke-width:0.5;stroke-dasharray:5.0,5.0;" x1="205" x2="205" y1="55.2188" y2="332.3828"/><line style="stroke:#181818;stroke-width:0.5;stroke-dasharray:5.0,5.0;" x1="429" x2="429" y1="55.2188" y2="332.3828"/><rect fill="#E2E2F0" height="49.2188" rx="2.5" ry="2.5" style="stroke:#181818;stroke-width:0.5;" width="124" x="5" y="5"/><text fill="#000000" font-family="sans-serif" font-size="14" font-style="italic" lengthAdjust="spacing" textLength="110" x="12" y="26.5332">&#171;Container (C4)&#187;</text><text fill="#000000" font-family="sans-serif" font-size="14" lengthAdjust="spacing" textLength="27" x="53.5" y="44.1426">SPA</text><rect fill="#E2E2F0" height="49.2188" rx="2.5" ry="2.5" style="stroke:#181818;stroke-width:0.5;" width="124" x="5" y="331.3828"/><text fill="#000000" font-family="sans-serif" font-size="14" font-style="italic" lengthAdjust="spacing" textLength="110" x="12" y="352.916">&#171;Container (C4)&#187;</text><text fill="#000000" font-family="sans-serif" font-size="14" lengthAdjust="spacing" textLength="27" x="53.5" y="370.5254">SPA</text><rect fill="#E2E2F0" height="49.2188" rx="2.5" ry="2.5" style="stroke:#181818;stroke-width:0.5;" width="124" x="143" y="5"/><text fill="#000000" font-family="sans-serif" font-size="14" font-style="italic" lengthAdjust="spacing" textLength="110" x="150" y="26.5332">&#171;Container (C4)&#187;</text><text fill="#000000" font-family="sans-serif" font-size="14" lengthAdjust="spacing" textLength="80" x="165" y="44.1426">MastersData</text><rect fill="#E2E2F0" height="49.2188" rx="2.5" ry="2.5" style="stroke:#181818;stroke-width:0.5;" width="124" x="143" y="331.3828"/><text fill="#000000" font-family="sans-serif" font-size="14" font-style="italic" lengthAdjust="spacing" textLength="110" x="150" y="352.916">&#171;Container (C4)&#187;</text><text fill="#000000" font-family="sans-serif" font-size="14" lengthAdjust="spacing" textLength="80" x="165" y="370.5254">MastersData</text><rect fill="#E2E2F0" height="49.2188" rx="2.5" ry="2.5" style="stroke:#181818;stroke-width:0.5;" width="124" x="367" y="5"/><text fill="#000000" font-family="sans-serif" font-size="14" font-style="italic" lengthAdjust="spacing" textLength="110" x="374" y="26.5332">&#171;Container (C4)&#187;</text><text fill="#000000" font-family="sans-serif" font-size="14" lengthAdjust="spacing" textLength="88" x="385" y="44.1426">MastersData2</text><rect fill="#E2E2F0" height="49.2188" rx="2.5" ry="2.5" style="stroke:#181818;stroke-width:0.5;" width="124" x="367" y="331.3828"/><text fill="#000000" font-family="sans-serif" font-size="14" font-style="italic" lengthAdjust="spacing" textLength="110" x="374" y="352.916">&#171;Container (C4)&#187;</text><text fill="#000000" font-family="sans-serif" font-size="14" lengthAdjust="spacing" textLength="88" x="385" y="370.5254">MastersData2</text><rect fill="#FFFFFF" height="112.4063" style="stroke:#181818;stroke-width:1.0;" width="10" x="62" y="65.2188"/><rect fill="#FFFFFF" height="115.4063" style="stroke:#181818;stroke-width:1.0;" width="10" x="62" y="207.9766"/><rect fill="#FFFFFF" height="90.0547" style="stroke:#181818;stroke-width:1.0;" width="10" x="200" y="87.5703"/><rect fill="#FFFFFF" height="106.4063" style="stroke:#181818;stroke-width:1.0;" width="10" x="424" y="207.9766"/><polygon fill="#181818" points="188,83.5703,198,87.5703,188,91.5703,192,87.5703" style="stroke:#181818;stroke-width:1.0;"/><line style="stroke:#181818;stroke-width:1.0;" x1="72" x2="194" y1="87.5703" y2="87.5703"/><text fill="#000000" font-family="sans-serif" font-size="13" lengthAdjust="spacing" textLength="109" x="79" y="82.7139">GET (/api/patients)</text><line style="stroke:#181818;stroke-width:1.0;" x1="210" x2="252" y1="134.2734" y2="134.2734"/><line style="stroke:#181818;stroke-width:1.0;" x1="252" x2="252" y1="134.2734" y2="147.2734"/><line style="stroke:#181818;stroke-width:1.0;" x1="211" x2="252" y1="147.2734" y2="147.2734"/><polygon fill="#181818" points="221,143.2734,211,147.2734,221,151.2734,217,147.2734" style="stroke:#181818;stroke-width:1.0;"/><text fill="#000000" font-family="sans-serif" font-size="13" lengthAdjust="spacing" textLength="147" x="217" y="113.0654">receive request body info,</text><text fill="#000000" font-family="sans-serif" font-size="13" lengthAdjust="spacing" textLength="171" x="217" y="129.417">get all patients from database</text><polygon fill="#181818" points="78,173.625,68,177.625,78,181.625,74,177.625" style="stroke:#181818;stroke-width:1.0;"/><line style="stroke:#181818;stroke-width:1.0;stroke-dasharray:2.0,2.0;" x1="72" x2="204" y1="177.625" y2="177.625"/><text fill="#000000" font-family="sans-serif" font-size="13" lengthAdjust="spacing" textLength="46" x="84" y="172.7686">patients</text><polygon fill="#181818" points="412,203.9766,422,207.9766,412,211.9766,416,207.9766" style="stroke:#181818;stroke-width:1.0;"/><line style="stroke:#181818;stroke-width:1.0;" x1="72" x2="418" y1="207.9766" y2="207.9766"/><text fill="#000000" font-family="sans-serif" font-size="13" lengthAdjust="spacing" textLength="338" x="79" y="203.1201">GET (/api/medicalRecords/:medicalRecordNumber/search)</text><line style="stroke:#181818;stroke-width:1.0;" x1="434" x2="476" y1="271.0313" y2="271.0313"/><line style="stroke:#181818;stroke-width:1.0;" x1="476" x2="476" y1="271.0313" y2="284.0313"/><line style="stroke:#181818;stroke-width:1.0;" x1="435" x2="476" y1="284.0313" y2="284.0313"/><polygon fill="#181818" points="445,280.0313,435,284.0313,445,288.0313,441,284.0313" style="stroke:#181818;stroke-width:1.0;"/><text fill="#000000" font-family="sans-serif" font-size="13" lengthAdjust="spacing" textLength="147" x="441" y="233.4717">receive request body info,</text><text fill="#000000" font-family="sans-serif" font-size="13" lengthAdjust="spacing" textLength="192" x="441" y="249.8232">search for medical records based</text><text fill="#000000" font-family="sans-serif" font-size="13" lengthAdjust="spacing" textLength="202" x="441" y="266.1748">on patients' medical record number</text><polygon fill="#181818" points="83,310.3828,73,314.3828,83,318.3828,79,314.3828" style="stroke:#181818;stroke-width:1.0;"/><line style="stroke:#181818;stroke-width:1.0;stroke-dasharray:2.0,2.0;" x1="77" x2="428" y1="314.3828" y2="314.3828"/><text fill="#000000" font-family="sans-serif" font-size="13" lengthAdjust="spacing" textLength="53" x="89" y="309.5264">response</text><!--SRC=[bP31IWCn48RlUOgX5xkWB2oUIYcuTVMaY7hiPJQPrS1k4YUp1T_UREssMob2Jo7a-__v9W5PhBO1dS3ixULk1XZXeOBbSksTe7N4C5_VPgkL2bFq2QCGntiKt4NAYoB5FbES2odKOhSeb3nKKhbP9N81ZzKxp7CCDWyebfp4x4YMbIeF99CckwLqVlKK1Mflli6wnbzlt0S9ODl2s04D-mvCSgenacAIdjtXLHaw9rDCRJeoLcFxIjgpYVdYvFxSTpLn7WbPVsOdcqtS2pLynLZzd_vl4JIUOJzdm8V1CFYRZVD7-wi_3BYTpRWaKmm-DVu0]--></g></svg>