<?xml version="1.0" encoding="us-ascii" standalone="no"?><svg xmlns="http://www.w3.org/2000/svg" xmlns:xlink="http://www.w3.org/1999/xlink" contentStyleType="text/css" height="386px" preserveAspectRatio="none" style="width:634px;height:386px;background:#FFFFFF;" version="1.1" viewBox="0 0 634 386" width="634px" zoomAndPan="magnify"><defs/><g><rect fill="#FFFFFF" height="112.4063" style="stroke:#181818;stroke-width:1.0;" width="10" x="62" y="65.2188"/><rect fill="#FFFFFF" height="115.4063" style="stroke:#181818;stroke-width:1.0;" width="10" x="62" y="207.9766"/><rect fill="#FFFFFF" height="90.0547" style="stroke:#181818;stroke-width:1.0;" width="10" x="405" y="87.5703"/><rect fill="#FFFFFF" height="106.4063" style="stroke:#181818;stroke-width:1.0;" width="10" x="405" y="207.9766"/><line style="stroke:#181818;stroke-width:0.5;stroke-dasharray:5.0,5.0;" x1="67" x2="67" y1="55.2188" y2="332.3828"/><line style="stroke:#181818;stroke-width:0.5;stroke-dasharray:5.0,5.0;" x1="410" x2="410" y1="55.2188" y2="332.3828"/><rect fill="#E2E2F0" height="49.2188" rx="2.5" ry="2.5" style="stroke:#181818;stroke-width:0.5;" width="124" x="5" y="5"/><text fill="#000000" font-family="sans-serif" font-size="14" font-style="italic" lengthAdjust="spacing" textLength="110" x="12" y="26.5332">&#171;Container (C4)&#187;</text><text fill="#000000" font-family="sans-serif" font-size="14" lengthAdjust="spacing" textLength="27" x="53.5" y="44.1426">SPA</text><rect fill="#E2E2F0" height="49.2188" rx="2.5" ry="2.5" style="stroke:#181818;stroke-width:0.5;" width="124" x="5" y="331.3828"/><text fill="#000000" font-family="sans-serif" font-size="14" font-style="italic" lengthAdjust="spacing" textLength="110" x="12" y="352.916">&#171;Container (C4)&#187;</text><text fill="#000000" font-family="sans-serif" font-size="14" lengthAdjust="spacing" textLength="27" x="53.5" y="370.5254">SPA</text><rect fill="#E2E2F0" height="49.2188" rx="2.5" ry="2.5" style="stroke:#181818;stroke-width:0.5;" width="124" x="348" y="5"/><text fill="#000000" font-family="sans-serif" font-size="14" font-style="italic" lengthAdjust="spacing" textLength="110" x="355" y="26.5332">&#171;Container (C4)&#187;</text><text fill="#000000" font-family="sans-serif" font-size="14" lengthAdjust="spacing" textLength="80" x="370" y="44.1426">MastersData</text><rect fill="#E2E2F0" height="49.2188" rx="2.5" ry="2.5" style="stroke:#181818;stroke-width:0.5;" width="124" x="348" y="331.3828"/><text fill="#000000" font-family="sans-serif" font-size="14" font-style="italic" lengthAdjust="spacing" textLength="110" x="355" y="352.916">&#171;Container (C4)&#187;</text><text fill="#000000" font-family="sans-serif" font-size="14" lengthAdjust="spacing" textLength="80" x="370" y="370.5254">MastersData</text><rect fill="#FFFFFF" height="112.4063" style="stroke:#181818;stroke-width:1.0;" width="10" x="62" y="65.2188"/><rect fill="#FFFFFF" height="115.4063" style="stroke:#181818;stroke-width:1.0;" width="10" x="62" y="207.9766"/><rect fill="#FFFFFF" height="90.0547" style="stroke:#181818;stroke-width:1.0;" width="10" x="405" y="87.5703"/><rect fill="#FFFFFF" height="106.4063" style="stroke:#181818;stroke-width:1.0;" width="10" x="405" y="207.9766"/><polygon fill="#181818" points="393,83.5703,403,87.5703,393,91.5703,397,87.5703" style="stroke:#181818;stroke-width:1.0;"/><line style="stroke:#181818;stroke-width:1.0;" x1="72" x2="399" y1="87.5703" y2="87.5703"/><text fill="#000000" font-family="sans-serif" font-size="13" lengthAdjust="spacing" textLength="244" x="79" y="82.7139">DELETE (/api/user/patients/delete/{email})</text><line style="stroke:#181818;stroke-width:1.0;" x1="415" x2="457" y1="134.2734" y2="134.2734"/><line style="stroke:#181818;stroke-width:1.0;" x1="457" x2="457" y1="134.2734" y2="147.2734"/><line style="stroke:#181818;stroke-width:1.0;" x1="416" x2="457" y1="147.2734" y2="147.2734"/><polygon fill="#181818" points="426,143.2734,416,147.2734,426,151.2734,422,147.2734" style="stroke:#181818;stroke-width:1.0;"/><text fill="#000000" font-family="sans-serif" font-size="13" lengthAdjust="spacing" textLength="201" x="422" y="113.0654">receive request body info, validates</text><text fill="#000000" font-family="sans-serif" font-size="13" lengthAdjust="spacing" textLength="169" x="422" y="129.417">and sends confirmation email</text><polygon fill="#181818" points="78,173.625,68,177.625,78,181.625,74,177.625" style="stroke:#181818;stroke-width:1.0;"/><line style="stroke:#181818;stroke-width:1.0;stroke-dasharray:2.0,2.0;" x1="72" x2="409" y1="177.625" y2="177.625"/><text fill="#000000" font-family="sans-serif" font-size="13" lengthAdjust="spacing" textLength="53" x="84" y="172.7686">response</text><polygon fill="#181818" points="393,203.9766,403,207.9766,393,211.9766,397,207.9766" style="stroke:#181818;stroke-width:1.0;"/><line style="stroke:#181818;stroke-width:1.0;" x1="72" x2="399" y1="207.9766" y2="207.9766"/><text fill="#000000" font-family="sans-serif" font-size="13" lengthAdjust="spacing" textLength="319" x="79" y="203.1201">DELETE (/api/user/patients/delete/confirmation/{token})</text><line style="stroke:#181818;stroke-width:1.0;" x1="415" x2="457" y1="271.0313" y2="271.0313"/><line style="stroke:#181818;stroke-width:1.0;" x1="457" x2="457" y1="271.0313" y2="284.0313"/><line style="stroke:#181818;stroke-width:1.0;" x1="416" x2="457" y1="284.0313" y2="284.0313"/><polygon fill="#181818" points="426,280.0313,416,284.0313,426,288.0313,422,284.0313" style="stroke:#181818;stroke-width:1.0;"/><text fill="#000000" font-family="sans-serif" font-size="13" lengthAdjust="spacing" textLength="134" x="422" y="233.4717">receive token, validates</text><text fill="#000000" font-family="sans-serif" font-size="13" lengthAdjust="spacing" textLength="121" x="422" y="249.8232">and deletes user and</text><text fill="#000000" font-family="sans-serif" font-size="13" lengthAdjust="spacing" textLength="109" x="422" y="266.1748">all associated data</text><polygon fill="#181818" points="83,310.3828,73,314.3828,83,318.3828,79,314.3828" style="stroke:#181818;stroke-width:1.0;"/><line style="stroke:#181818;stroke-width:1.0;stroke-dasharray:2.0,2.0;" x1="77" x2="409" y1="314.3828" y2="314.3828"/><text fill="#000000" font-family="sans-serif" font-size="13" lengthAdjust="spacing" textLength="53" x="89" y="309.5264">response</text><!--SRC=[bP51ImD138Nlyoj2JoqeS_4aPS6swqb1qAENk9D2w3OpJh8BKlplfXNiWaNmD4nuxtjvCmMhSSS5nU3vwGvGuRw5vNATnP25AipNDukc2MKYd3sY6bNTeE7iQ5bTj0JiZ4SqScHmwdNZmblOj0_jImlpY8NZe5HZGMCIqvYe9wDue3ro_xau0rPjMFq0AdN48_dvFf0QlENq0IpRV0KZzfpSeF0gA0cK92bqMRPSzvwI1KxiKCc6AexGaaKf99fcJMx_N7qQ5G-MToJJ7awxr0dEfKwMtqM-yGh7KF21J_lUdrvpnovpWV_5tws-0000]--></g></svg>