<?xml version="1.0" encoding="us-ascii" standalone="no"?><svg xmlns="http://www.w3.org/2000/svg" xmlns:xlink="http://www.w3.org/1999/xlink" contentStyleType="text/css" height="475px" preserveAspectRatio="none" style="width:1325px;height:475px;background:#FFFFFF;" version="1.1" viewBox="0 0 1325 475" width="1325px" zoomAndPan="magnify"><defs/><g><rect fill="#FFFFFF" height="351.082" style="stroke:#181818;stroke-width:1.0;" width="10" x="54.5" y="62.9766"/><rect fill="#FFFFFF" height="320.7715" style="stroke:#181818;stroke-width:1.0;" width="10" x="330.5" y="84.2871"/><rect fill="#FFFFFF" height="204.1738" style="stroke:#181818;stroke-width:1.0;" width="10" x="729" y="171.5742"/><rect fill="#FFFFFF" height="145.5527" style="stroke:#181818;stroke-width:1.0;" width="10" x="848" y="200.8848"/><rect fill="#FFFFFF" height="86.9316" style="stroke:#181818;stroke-width:1.0;" width="10" x="1083" y="230.1953"/><line style="stroke:#181818;stroke-width:0.5;stroke-dasharray:5.0,5.0;" x1="59" x2="59" y1="52.9766" y2="423.0586"/><line style="stroke:#181818;stroke-width:0.5;stroke-dasharray:5.0,5.0;" x1="335" x2="335" y1="52.9766" y2="423.0586"/><line style="stroke:#181818;stroke-width:0.5;stroke-dasharray:5.0,5.0;" x1="614.5" x2="614.5" y1="131.2754" y2="423.0586"/><line style="stroke:#181818;stroke-width:0.5;stroke-dasharray:5.0,5.0;" x1="733.5" x2="733.5" y1="52.9766" y2="423.0586"/><line style="stroke:#181818;stroke-width:0.5;stroke-dasharray:5.0,5.0;" x1="852.5" x2="852.5" y1="52.9766" y2="423.0586"/><line style="stroke:#181818;stroke-width:0.5;stroke-dasharray:5.0,5.0;" x1="1087.5" x2="1087.5" y1="52.9766" y2="423.0586"/><rect fill="#E2E2F0" height="46.9766" rx="2.5" ry="2.5" style="stroke:#181818;stroke-width:0.5;" width="109" x="5" y="5"/><text fill="#000000" font-family="sans-serif" font-size="14" font-style="italic" lengthAdjust="spacing" textLength="95" x="12" y="25.5352">&#171;Component&#187;</text><text fill="#000000" font-family="sans-serif" font-size="14" lengthAdjust="spacing" textLength="32" x="43.5" y="42.0234">View</text><rect fill="#E2E2F0" height="46.9766" rx="2.5" ry="2.5" style="stroke:#181818;stroke-width:0.5;" width="109" x="5" y="422.0586"/><text fill="#000000" font-family="sans-serif" font-size="14" font-style="italic" lengthAdjust="spacing" textLength="95" x="12" y="442.5938">&#171;Component&#187;</text><text fill="#000000" font-family="sans-serif" font-size="14" lengthAdjust="spacing" textLength="32" x="43.5" y="459.082">View</text><rect fill="#E2E2F0" height="46.9766" rx="2.5" ry="2.5" style="stroke:#181818;stroke-width:0.5;" width="109" x="281" y="5"/><text fill="#000000" font-family="sans-serif" font-size="14" font-style="italic" lengthAdjust="spacing" textLength="95" x="288" y="25.5352">&#171;Component&#187;</text><text fill="#000000" font-family="sans-serif" font-size="14" lengthAdjust="spacing" textLength="81" x="295" y="42.0234">Component</text><rect fill="#E2E2F0" height="46.9766" rx="2.5" ry="2.5" style="stroke:#181818;stroke-width:0.5;" width="109" x="281" y="422.0586"/><text fill="#000000" font-family="sans-serif" font-size="14" font-style="italic" lengthAdjust="spacing" textLength="95" x="288" y="442.5938">&#171;Component&#187;</text><text fill="#000000" font-family="sans-serif" font-size="14" lengthAdjust="spacing" textLength="81" x="295" y="459.082">Component</text><rect fill="#E2E2F0" height="46.9766" rx="2.5" ry="2.5" style="stroke:#181818;stroke-width:0.5;" width="109" x="560.5" y="422.0586"/><text fill="#000000" font-family="sans-serif" font-size="14" font-style="italic" lengthAdjust="spacing" textLength="95" x="567.5" y="442.5938">&#171;Component&#187;</text><text fill="#000000" font-family="sans-serif" font-size="14" lengthAdjust="spacing" textLength="42" x="594" y="459.082">Model</text><rect fill="#E2E2F0" height="46.9766" rx="2.5" ry="2.5" style="stroke:#181818;stroke-width:0.5;" width="109" x="679.5" y="5"/><text fill="#000000" font-family="sans-serif" font-size="14" font-style="italic" lengthAdjust="spacing" textLength="95" x="686.5" y="25.5352">&#171;Component&#187;</text><text fill="#000000" font-family="sans-serif" font-size="14" lengthAdjust="spacing" textLength="48" x="710" y="42.0234">Service</text><rect fill="#E2E2F0" height="46.9766" rx="2.5" ry="2.5" style="stroke:#181818;stroke-width:0.5;" width="109" x="679.5" y="422.0586"/><text fill="#000000" font-family="sans-serif" font-size="14" font-style="italic" lengthAdjust="spacing" textLength="95" x="686.5" y="442.5938">&#171;Component&#187;</text><text fill="#000000" font-family="sans-serif" font-size="14" lengthAdjust="spacing" textLength="48" x="710" y="459.082">Service</text><rect fill="#E2E2F0" height="46.9766" rx="2.5" ry="2.5" style="stroke:#181818;stroke-width:0.5;" width="109" x="798.5" y="5"/><text fill="#000000" font-family="sans-serif" font-size="14" font-style="italic" lengthAdjust="spacing" textLength="95" x="805.5" y="25.5352">&#171;Component&#187;</text><text fill="#000000" font-family="sans-serif" font-size="14" lengthAdjust="spacing" textLength="77" x="814.5" y="42.0234">HTTPDriver</text><rect fill="#E2E2F0" height="46.9766" rx="2.5" ry="2.5" style="stroke:#181818;stroke-width:0.5;" width="109" x="798.5" y="422.0586"/><text fill="#000000" font-family="sans-serif" font-size="14" font-style="italic" lengthAdjust="spacing" textLength="95" x="805.5" y="442.5938">&#171;Component&#187;</text><text fill="#000000" font-family="sans-serif" font-size="14" lengthAdjust="spacing" textLength="77" x="814.5" y="459.082">HTTPDriver</text><rect fill="#E2E2F0" height="46.9766" rx="2.5" ry="2.5" style="stroke:#181818;stroke-width:0.5;" width="129" x="1023.5" y="5"/><text fill="#000000" font-family="sans-serif" font-size="14" font-style="italic" lengthAdjust="spacing" textLength="115" x="1030.5" y="25.5352">&#171;Container (C4)&#187;</text><text fill="#000000" font-family="sans-serif" font-size="14" lengthAdjust="spacing" textLength="84" x="1046" y="42.0234">MastersData</text><rect fill="#E2E2F0" height="46.9766" rx="2.5" ry="2.5" style="stroke:#181818;stroke-width:0.5;" width="129" x="1023.5" y="422.0586"/><text fill="#000000" font-family="sans-serif" font-size="14" font-style="italic" lengthAdjust="spacing" textLength="115" x="1030.5" y="442.5938">&#171;Container (C4)&#187;</text><text fill="#000000" font-family="sans-serif" font-size="14" lengthAdjust="spacing" textLength="84" x="1046" y="459.082">MastersData</text><rect fill="#FFFFFF" height="351.082" style="stroke:#181818;stroke-width:1.0;" width="10" x="54.5" y="62.9766"/><rect fill="#FFFFFF" height="320.7715" style="stroke:#181818;stroke-width:1.0;" width="10" x="330.5" y="84.2871"/><rect fill="#FFFFFF" height="204.1738" style="stroke:#181818;stroke-width:1.0;" width="10" x="729" y="171.5742"/><rect fill="#FFFFFF" height="145.5527" style="stroke:#181818;stroke-width:1.0;" width="10" x="848" y="200.8848"/><rect fill="#FFFFFF" height="86.9316" style="stroke:#181818;stroke-width:1.0;" width="10" x="1083" y="230.1953"/><polygon fill="#181818" points="318.5,80.2871,328.5,84.2871,318.5,88.2871,322.5,84.2871" style="stroke:#181818;stroke-width:1.0;"/><line style="stroke:#181818;stroke-width:1.0;" x1="64.5" x2="324.5" y1="84.2871" y2="84.2871"/><text fill="#000000" font-family="sans-serif" font-size="13" lengthAdjust="spacing" textLength="247" x="71.5" y="79.5449">click in button to delete OperationType</text><polygon fill="#181818" points="548.5,109.5977,558.5,113.5977,548.5,117.5977,552.5,113.5977" style="stroke:#181818;stroke-width:1.0;"/><line style="stroke:#181818;stroke-width:1.0;" x1="340.5" x2="554.5" y1="113.5977" y2="113.5977"/><text fill="#000000" font-family="sans-serif" font-size="13" lengthAdjust="spacing" textLength="196" x="347.5" y="108.8555">get the id of the operation type</text><rect fill="#E2E2F0" height="46.9766" rx="2.5" ry="2.5" style="stroke:#181818;stroke-width:0.5;" width="109" x="560.5" y="92.2871"/><text fill="#000000" font-family="sans-serif" font-size="14" font-style="italic" lengthAdjust="spacing" textLength="95" x="567.5" y="112.8223">&#171;Component&#187;</text><text fill="#000000" font-family="sans-serif" font-size="14" lengthAdjust="spacing" textLength="42" x="594" y="129.3105">Model</text><polygon fill="#181818" points="717,167.5742,727,171.5742,717,175.5742,721,171.5742" style="stroke:#181818;stroke-width:1.0;"/><line style="stroke:#181818;stroke-width:1.0;" x1="340.5" x2="723" y1="171.5742" y2="171.5742"/><text fill="#000000" font-family="sans-serif" font-size="13" lengthAdjust="spacing" textLength="158" x="347.5" y="166.832">delete the OperationType</text><polygon fill="#181818" points="836,196.8848,846,200.8848,836,204.8848,840,200.8848" style="stroke:#181818;stroke-width:1.0;"/><line style="stroke:#181818;stroke-width:1.0;" x1="739" x2="842" y1="200.8848" y2="200.8848"/><text fill="#000000" font-family="sans-serif" font-size="13" lengthAdjust="spacing" textLength="46" x="746" y="196.1426">DELETE</text><polygon fill="#181818" points="1071,226.1953,1081,230.1953,1071,234.1953,1075,230.1953" style="stroke:#181818;stroke-width:1.0;"/><line style="stroke:#181818;stroke-width:1.0;" x1="858" x2="1077" y1="230.1953" y2="230.1953"/><text fill="#000000" font-family="sans-serif" font-size="13" lengthAdjust="spacing" textLength="206" x="865" y="225.4531">DELETE (/api/OperationType/:id)</text><line style="stroke:#181818;stroke-width:1.0;" x1="1093" x2="1135" y1="274.8164" y2="274.8164"/><line style="stroke:#181818;stroke-width:1.0;" x1="1135" x2="1135" y1="274.8164" y2="287.8164"/><line style="stroke:#181818;stroke-width:1.0;" x1="1094" x2="1135" y1="287.8164" y2="287.8164"/><polygon fill="#181818" points="1104,283.8164,1094,287.8164,1104,291.8164,1100,287.8164" style="stroke:#181818;stroke-width:1.0;"/><text fill="#000000" font-family="sans-serif" font-size="13" lengthAdjust="spacing" textLength="153" x="1100" y="254.7637">validates all information</text><text fill="#000000" font-family="sans-serif" font-size="13" lengthAdjust="spacing" textLength="218" x="1100" y="270.0742">and changes OperationType status</text><polygon fill="#181818" points="869,313.127,859,317.127,869,321.127,865,317.127" style="stroke:#181818;stroke-width:1.0;"/><line style="stroke:#181818;stroke-width:1.0;stroke-dasharray:2.0,2.0;" x1="863" x2="1087" y1="317.127" y2="317.127"/><text fill="#000000" font-family="sans-serif" font-size="13" lengthAdjust="spacing" textLength="57" x="875" y="312.3848">response</text><polygon fill="#181818" points="750,342.4375,740,346.4375,750,350.4375,746,346.4375" style="stroke:#181818;stroke-width:1.0;"/><line style="stroke:#181818;stroke-width:1.0;stroke-dasharray:2.0,2.0;" x1="744" x2="852" y1="346.4375" y2="346.4375"/><text fill="#000000" font-family="sans-serif" font-size="13" lengthAdjust="spacing" textLength="57" x="756" y="341.6953">response</text><polygon fill="#181818" points="351.5,371.748,341.5,375.748,351.5,379.748,347.5,375.748" style="stroke:#181818;stroke-width:1.0;"/><line style="stroke:#181818;stroke-width:1.0;stroke-dasharray:2.0,2.0;" x1="345.5" x2="733" y1="375.748" y2="375.748"/><text fill="#000000" font-family="sans-serif" font-size="13" lengthAdjust="spacing" textLength="57" x="357.5" y="371.0059">response</text><polygon fill="#181818" points="75.5,401.0586,65.5,405.0586,75.5,409.0586,71.5,405.0586" style="stroke:#181818;stroke-width:1.0;"/><line style="stroke:#181818;stroke-width:1.0;stroke-dasharray:2.0,2.0;" x1="69.5" x2="334.5" y1="405.0586" y2="405.0586"/><text fill="#000000" font-family="sans-serif" font-size="13" lengthAdjust="spacing" textLength="136" x="81.5" y="400.3164">success/fail message</text><!--SRC=[ZP0nRy8m48Lt_ueR0QdAqYb2340aXbQjrAXJbwjpmAd1jknBglxxse5W659ryftzlNU-vz0BQtPe1DwPlW73-LmkD_Rah24ZgvLoDzZrFh6vcHOysuRQ19-BQV2DVC-Q4ZgMq_2khb-tddloYR_f_lW81Y4VjYYODEjgO8qWcwYRRHxdKQ1G2_SeDEIWXZ0ULddH4dJB-WlOm6SdOWs8XRWNHSMB8u_2rjG_ZhBHLQjoND5oY6EnAE500d8au0RiVgZiQ0IIdEvabsZASMZY9mPVK3Mc6TKvg1AsrLDLLndFR-ecpoXQLoCCim8T5tVpYfARUNPPLoecUr7rs78JRmDWsyRCzjQV1k67GTE0Fg8vnCSxFmY2qWNbIJflm5E8omVwRnywhIc4Oe_SmYbMU23r2m00]--></g></svg>