<?xml version="1.0" encoding="us-ascii" standalone="no"?><svg xmlns="http://www.w3.org/2000/svg" xmlns:xlink="http://www.w3.org/1999/xlink" contentStyleType="text/css" height="370px" preserveAspectRatio="none" style="width:623px;height:370px;background:#FFFFFF;" version="1.1" viewBox="0 0 623 370" width="623px" zoomAndPan="magnify"><defs/><g><rect fill="#FFFFFF" height="112.4063" style="stroke:#181818;stroke-width:1.0;" width="10" x="62" y="65.2188"/><rect fill="#FFFFFF" height="99.0547" style="stroke:#181818;stroke-width:1.0;" width="10" x="62" y="207.9766"/><rect fill="#FFFFFF" height="90.0547" style="stroke:#181818;stroke-width:1.0;" width="10" x="347" y="87.5703"/><rect fill="#FFFFFF" height="90.0547" style="stroke:#181818;stroke-width:1.0;" width="10" x="347" y="207.9766"/><line style="stroke:#181818;stroke-width:0.5;stroke-dasharray:5.0,5.0;" x1="67" x2="67" y1="55.2188" y2="316.0313"/><line style="stroke:#181818;stroke-width:0.5;stroke-dasharray:5.0,5.0;" x1="352" x2="352" y1="55.2188" y2="316.0313"/><rect fill="#E2E2F0" height="49.2188" rx="2.5" ry="2.5" style="stroke:#181818;stroke-width:0.5;" width="124" x="5" y="5"/><text fill="#000000" font-family="sans-serif" font-size="14" font-style="italic" lengthAdjust="spacing" textLength="110" x="12" y="26.5332">&#171;Container (C4)&#187;</text><text fill="#000000" font-family="sans-serif" font-size="14" lengthAdjust="spacing" textLength="27" x="53.5" y="44.1426">SPA</text><rect fill="#E2E2F0" height="49.2188" rx="2.5" ry="2.5" style="stroke:#181818;stroke-width:0.5;" width="124" x="5" y="315.0313"/><text fill="#000000" font-family="sans-serif" font-size="14" font-style="italic" lengthAdjust="spacing" textLength="110" x="12" y="336.5645">&#171;Container (C4)&#187;</text><text fill="#000000" font-family="sans-serif" font-size="14" lengthAdjust="spacing" textLength="27" x="53.5" y="354.1738">SPA</text><rect fill="#E2E2F0" height="49.2188" rx="2.5" ry="2.5" style="stroke:#181818;stroke-width:0.5;" width="124" x="290" y="5"/><text fill="#000000" font-family="sans-serif" font-size="14" font-style="italic" lengthAdjust="spacing" textLength="110" x="297" y="26.5332">&#171;Container (C4)&#187;</text><text fill="#000000" font-family="sans-serif" font-size="14" lengthAdjust="spacing" textLength="80" x="312" y="44.1426">MastersData</text><rect fill="#E2E2F0" height="49.2188" rx="2.5" ry="2.5" style="stroke:#181818;stroke-width:0.5;" width="124" x="290" y="315.0313"/><text fill="#000000" font-family="sans-serif" font-size="14" font-style="italic" lengthAdjust="spacing" textLength="110" x="297" y="336.5645">&#171;Container (C4)&#187;</text><text fill="#000000" font-family="sans-serif" font-size="14" lengthAdjust="spacing" textLength="80" x="312" y="354.1738">MastersData</text><rect fill="#FFFFFF" height="112.4063" style="stroke:#181818;stroke-width:1.0;" width="10" x="62" y="65.2188"/><rect fill="#FFFFFF" height="99.0547" style="stroke:#181818;stroke-width:1.0;" width="10" x="62" y="207.9766"/><rect fill="#FFFFFF" height="90.0547" style="stroke:#181818;stroke-width:1.0;" width="10" x="347" y="87.5703"/><rect fill="#FFFFFF" height="90.0547" style="stroke:#181818;stroke-width:1.0;" width="10" x="347" y="207.9766"/><polygon fill="#181818" points="335,83.5703,345,87.5703,335,91.5703,339,87.5703" style="stroke:#181818;stroke-width:1.0;"/><line style="stroke:#181818;stroke-width:1.0;" x1="72" x2="341" y1="87.5703" y2="87.5703"/><text fill="#000000" font-family="sans-serif" font-size="13" lengthAdjust="spacing" textLength="147" x="79" y="82.7139">POST (/api/user/patients)</text><line style="stroke:#181818;stroke-width:1.0;" x1="357" x2="399" y1="134.2734" y2="134.2734"/><line style="stroke:#181818;stroke-width:1.0;" x1="399" x2="399" y1="134.2734" y2="147.2734"/><line style="stroke:#181818;stroke-width:1.0;" x1="358" x2="399" y1="147.2734" y2="147.2734"/><polygon fill="#181818" points="368,143.2734,358,147.2734,368,151.2734,364,147.2734" style="stroke:#181818;stroke-width:1.0;"/><text fill="#000000" font-family="sans-serif" font-size="13" lengthAdjust="spacing" textLength="205" x="364" y="113.0654">receive request body info, validates,</text><text fill="#000000" font-family="sans-serif" font-size="13" lengthAdjust="spacing" textLength="252" x="364" y="129.417">registers user and sends confirmation email</text><polygon fill="#181818" points="78,173.625,68,177.625,78,181.625,74,177.625" style="stroke:#181818;stroke-width:1.0;"/><line style="stroke:#181818;stroke-width:1.0;stroke-dasharray:2.0,2.0;" x1="72" x2="351" y1="177.625" y2="177.625"/><text fill="#000000" font-family="sans-serif" font-size="13" lengthAdjust="spacing" textLength="53" x="84" y="172.7686">response</text><polygon fill="#181818" points="335,203.9766,345,207.9766,335,211.9766,339,207.9766" style="stroke:#181818;stroke-width:1.0;"/><line style="stroke:#181818;stroke-width:1.0;" x1="72" x2="341" y1="207.9766" y2="207.9766"/><text fill="#000000" font-family="sans-serif" font-size="13" lengthAdjust="spacing" textLength="261" x="79" y="203.1201">POST(/api/user/patients/confirmation/{token})</text><line style="stroke:#181818;stroke-width:1.0;" x1="357" x2="399" y1="254.6797" y2="254.6797"/><line style="stroke:#181818;stroke-width:1.0;" x1="399" x2="399" y1="254.6797" y2="267.6797"/><line style="stroke:#181818;stroke-width:1.0;" x1="358" x2="399" y1="267.6797" y2="267.6797"/><polygon fill="#181818" points="368,263.6797,358,267.6797,368,271.6797,364,267.6797" style="stroke:#181818;stroke-width:1.0;"/><text fill="#000000" font-family="sans-serif" font-size="13" lengthAdjust="spacing" textLength="114" x="364" y="233.4717">associates the user</text><text fill="#000000" font-family="sans-serif" font-size="13" lengthAdjust="spacing" textLength="128" x="364" y="249.8232">with the patient record</text><polygon fill="#181818" points="83,294.0313,73,298.0313,83,302.0313,79,298.0313" style="stroke:#181818;stroke-width:1.0;"/><line style="stroke:#181818;stroke-width:1.0;stroke-dasharray:2.0,2.0;" x1="77" x2="351" y1="298.0313" y2="298.0313"/><text fill="#000000" font-family="sans-serif" font-size="13" lengthAdjust="spacing" textLength="53" x="89" y="293.1748">response</text><!--SRC=[VL3DIiD04BxlKmmzDL39nLCf0TFMcrYenrx6xDGEjhFhpYGYuhkx2Q8HWwTXuFkFc8mRZYW6i_tkPWQeSBk5rMeTn9254ipNrqLLkJY6tg4Q9TsWuK2f9oaE6-CEZRAaowfNLGOkONU_Vu1vYP7BLYcL4Or9J8iVVBrrzJS-KKFSKRulBQd1O_1lm78C2-Zmp3uJT047IVJ4GopePG75Wv9uXIR8aTCbsmG1kY2VNI9hasH9ZK6KdAUnz-ZxatmYU3asADyjF9Dy5B_QJpM3PPvEGyDz0R0J3RaFyifs6jul_Nw0aFp_cJy1]--></g></svg>