{
  "accessors": [
    {
      "bufferView": 2,
      "componentType": 5126,
      "count": 688,
      "max": [
        59.57438659667969,
        148.58465576171875,
        -28.07758903503418
      ],
      "min": [
        -59.57439041137695,
        -148.5846710205078,
        -44.274356842041016
      ],
      "type": "VEC3"
    },
    {
      "bufferView": 2,
      "byteOffset": 8256,
      "componentType": 5126,
      "count": 688,
      "max": [
        1.0,
        1.0,
        1.0
      ],
      "min": [
        -1.0,
        -1.0,
        -1.0
      ],
      "type": "VEC3"
    },
    {
      "bufferView": 1,
      "componentType": 5126,
      "count": 688,
      "max": [
        1.0,
        1.0
      ],
      "min": [
        -0.0,
        -0.0
      ],
      "type": "VEC2"
    },
    {
      "bufferView": 0,
      "componentType": 5125,
      "count": 1464,
      "type": "SCALAR"
    },
    {
      "bufferView": 2,
      "byteOffset": 16512,
      "componentType": 5126,
      "count": 7522,
      "max": [
        64.37521362304688,
        148.17440795898438,
        28.616310119628906
      ],
      "min": [
        -65.59992980957031,
        -148.09803771972656,
        -9.736082077026367
      ],
      "type": "VEC3"
    },
    {
      "bufferView": 2,
      "byteOffset": 106776,
      "componentType": 5126,
      "count": 7522,
      "max": [
        1.0,
        1.0,
        1.0
      ],
      "min": [
        -1.0,
        -0.9999998807907104,
        -1.0
      ],
      "type": "VEC3"
    },
    {
      "bufferView": 0,
      "byteOffset": 5856,
      "componentType": 5125,
      "count": 45120,
      "type": "SCALAR"
    },
    {
      "bufferView": 2,
      "byteOffset": 197040,
      "componentType": 5126,
      "count": 15240,
      "max": [
        -28.2161808013916,
        -58.944923400878906,
        28.754114151000977
      ],
      "min": [
        -72.76811218261719,
        -70.58319091796875,
        -53.67158889770508
      ],
      "type": "VEC3"
    },
    {
      "bufferView": 2,
      "byteOffset": 379920,
      "componentType": 5126,
      "count": 15240,
      "max": [
        0.9999557733535767,
        0.9999944567680359,
        0.9999148845672607
      ],
      "min": [
        -0.9999633431434631,
        -0.999980628490448,
        -0.9999586343765259
      ],
      "type": "VEC3"
    },
    {
      "bufferView": 0,
      "byteOffset": 186336,
      "componentType": 5125,
      "count": 91368,
      "type": "SCALAR"
    },
    {
      "bufferView": 2,
      "byteOffset": 562800,
      "componentType": 5126,
      "count": 9761,
      "max": [
        73.6852035522461,
        167.53713989257813,
        61.7274284362793
      ],
      "min": [
        -73.90897369384766,
        -161.4184112548828,
        -68.13920593261719
      ],
      "type": "VEC3"
    },
    {
      "bufferView": 2,
      "byteOffset": 679932,
      "componentType": 5126,
      "count": 9761,
      "max": [
        1.0,
        1.0,
        1.0
      ],
      "min": [
        -1.0,
        -1.0,
        -1.0
      ],
      "type": "VEC3"
    },
    {
      "bufferView": 1,
      "byteOffset": 5504,
      "componentType": 5126,
      "count": 9761,
      "max": [
        1.0,
        3.7757511138916016
      ],
      "min": [
        -1.1404399871826172,
        -0.681693971157074
      ],
      "type": "VEC2"
    },
    {
      "bufferView": 0,
      "byteOffset": 551808,
      "componentType": 5125,
      "count": 32004,
      "type": "SCALAR"
    },
    {
      "bufferView": 2,
      "byteOffset": 797064,
      "componentType": 5126,
      "count": 9947,
      "max": [
        73.13214111328125,
        151.47906494140625,
        61.37944793701172
      ],
      "min": [
        -73.7750473022461,
        -149.00408935546875,
        -57.49263381958008
      ],
      "type": "VEC3"
    },
    {
      "bufferView": 2,
      "byteOffset": 916428,
      "componentType": 5126,
      "count": 9947,
      "max": [
        1.0,
        1.0,
        1.0
      ],
      "min": [
        -1.0,
        -1.0,
        -1.0
      ],
      "type": "VEC3"
    },
    {
      "bufferView": 1,
      "byteOffset": 83592,
      "componentType": 5126,
      "count": 9947,
      "max": [
        1.0,
        1.0
      ],
      "min": [
        -0.00031599999056197703,
        -0.05313999950885773
      ],
      "type": "VEC2"
    },
    {
      "bufferView": 0,
      "byteOffset": 679824,
      "componentType": 5125,
      "count": 27642,
      "type": "SCALAR"
    },
    {
      "bufferView": 2,
      "byteOffset": 1035792,
      "componentType": 5126,
      "count": 9983,
      "max": [
        67.75003814697266,
        147.55429077148438,
        9.105122566223145
      ],
      "min": [
        -65.54644012451172,
        -148.5846710205078,
        -44.274356842041016
      ],
      "type": "VEC3"
    },
    {
      "bufferView": 2,
      "byteOffset": 1155588,
      "componentType": 5126,
      "count": 9983,
      "max": [
        1.0,
        1.0,
        1.0
      ],
      "min": [
        -1.0,
        -1.0,
        -1.0
      ],
      "type": "VEC3"
    },
    {
      "bufferView": 1,
      "byteOffset": 163168,
      "componentType": 5126,
      "count": 9983,
      "max": [
        1.0,
        1.0
      ],
      "min": [
        0.0,
        0.0
      ],
      "type": "VEC2"
    },
    {
      "bufferView": 0,
      "byteOffset": 790392,
      "componentType": 5125,
      "count": 27432,
      "type": "SCALAR"
    },
    {
      "bufferView": 2,
      "byteOffset": 1275384,
      "componentType": 5126,
      "count": 2344,
      "max": [
        65.54644012451172,
        158.79244995117188,
        61.062774658203125
      ],
      "min": [
        -64.10420989990234,
        -158.79244995117188,
        -39.801509857177734
      ],
      "type": "VEC3"
    },
    {
      "bufferView": 2,
      "byteOffset": 1303512,
      "componentType": 5126,
      "count": 2344,
      "max": [
        1.0,
        1.0,
        1.0
      ],
      "min": [
        -1.0,
        -1.0,
        -1.0
      ],
      "type": "VEC3"
    },
    {
      "bufferView": 1,
      "byteOffset": 243032,
      "componentType": 5126,
      "count": 2344,
      "max": [
        0.9011340141296387,
        1.0
      ],
      "min": [
        0.008882000111043453,
        -0.0
      ],
      "type": "VEC2"
    },
    {
      "bufferView": 0,
      "byteOffset": 900120,
      "componentType": 5125,
      "count": 6540,
      "type": "SCALAR"
    },
    {
      "bufferView": 2,
      "byteOffset": 1331640,
      "componentType": 5126,
      "count": 9987,
      "max": [
        64.10420989990234,
        158.79244995117188,
        61.062774658203125
      ],
      "min": [
        -64.10420989990234,
        -158.79244995117188,
        -40.908607482910156
      ],
      "type": "VEC3"
    },
    {
      "bufferView": 2,
      "byteOffset": 1451484,
      "componentType": 5126,
      "count": 9987,
      "max": [
        1.0,
        0.9994478821754456,
        1.0
      ],
      "min": [
        -1.0,
        -0.9997896552085876,
        -1.0
      ],
      "type": "VEC3"
    },
    {
      "bufferView": 1,
      "byteOffset": 261784,
      "componentType": 5126,
      "count": 9987,
      "max": [
        0.875,
        1.0
      ],
      "min": [
        0.008882000111043453,
        0.0
      ],
      "type": "VEC2"
    },
    {
      "bufferView": 0,
      "byteOffset": 926280,
      "componentType": 5125,
      "count": 52092,
      "type": "SCALAR"
    },
    {
      "bufferView": 2,
      "byteOffset": 1571328,
      "componentType": 5126,
      "count": 5465,
      "max": [
        70.94695281982422,
        140.3208770751953,
        6.77330207824707
      ],
      "min": [
        -57.43633270263672,
        -145.02989196777344,
        -70.04039001464844
      ],
      "type": "VEC3"
    },
    {
      "bufferView": 2,
      "byteOffset": 1636908,
      "componentType": 5126,
      "count": 5465,
      "max": [
        1.0,
        1.0,
        1.0
      ],
      "min": [
        -1.0,
        -1.0,
        -1.0
      ],
      "type": "VEC3"
    },
    {
      "bufferView": 1,
      "byteOffset": 341680,
      "componentType": 5126,
      "count": 5465,
      "max": [
        0.875,
        1.0
      ],
      "min": [
        0.008882000111043453,
        0.0
      ],
      "type": "VEC2"
    },
    {
      "bufferView": 0,
      "byteOffset": 1134648,
      "componentType": 5125,
      "count": 15354,
      "type": "SCALAR"
    },
    {
      "bufferView": 2,
      "byteOffset": 1702488,
      "componentType": 5126,
      "count": 9990,
      "max": [
        70.94695281982422,
        140.3208770751953,
        31.356891632080078
      ],
      "min": [
        -73.81471252441406,
        -160.4501495361328,
        -70.04039001464844
      ],
      "type": "VEC3"
    },
    {
      "bufferView": 2,
      "byteOffset": 1822368,
      "componentType": 5126,
      "count": 9990,
      "max": [
        1.0,
        1.0,
        1.0
      ],
      "min": [
        -1.0,
        -1.0,
        -1.0
      ],
      "type": "VEC3"
    },
    {
      "bufferView": 1,
      "byteOffset": 385400,
      "componentType": 5126,
      "count": 9990,
      "max": [
        0.8948330283164978,
        1.0
      ],
      "min": [
        0.125,
        -0.009633000008761883
      ],
      "type": "VEC2"
    },
    {
      "bufferView": 0,
      "byteOffset": 1196064,
      "componentType": 5125,
      "count": 52080,
      "type": "SCALAR"
    },
    {
      "bufferView": 2,
      "byteOffset": 1942248,
      "componentType": 5126,
      "count": 7896,
      "max": [
        69.896240234375,
        160.4501495361328,
        41.55043029785156
      ],
      "min": [
        -73.91265869140625,
        -160.4501495361328,
        -68.64606475830078
      ],
      "type": "VEC3"
    },
    {
      "bufferView": 2,
      "byteOffset": 2037000,
      "componentType": 5126,
      "count": 7896,
      "max": [
        1.0,
        1.0,
        1.0
      ],
      "min": [
        -1.0,
        -1.0,
        -1.0
      ],
      "type": "VEC3"
    },
    {
      "bufferView": 1,
      "byteOffset": 465320,
      "componentType": 5126,
      "count": 7896,
      "max": [
        0.9011340141296387,
        1.0135530233383179
      ],
      "min": [
        0.0,
        0.0
      ],
      "type": "VEC2"
    },
    {
      "bufferView": 0,
      "byteOffset": 1404384,
      "componentType": 5125,
      "count": 20640,
      "type": "SCALAR"
    }
  ],
  "asset": {
    "extras": {
      "author": "Yvo Pors (https://sketchfab.com/yvopors14)",
      "license": "CC-BY-4.0 (http://creativecommons.org/licenses/by/4.0/)",
      "source": "https://sketchfab.com/3d-models/simple-hospital-bed-60651eac7e96454c8cf5c43a91412336",
      "title": "Simple Hospital Bed"
    },
    "generator": "Sketchfab-13.71.0",
    "version": "2.0"
  },
  "bufferViews": [
    {
      "buffer": 0,
      "byteLength": 1486944,
      "name": "floatBufferViews",
      "target": 34963
    },
    {
      "buffer": 0,
      "byteLength": 528488,
      "byteOffset": 1486944,
      "byteStride": 8,
      "name": "floatBufferViews",
      "target": 34962
    },
    {
      "buffer": 0,
      "byteLength": 2131752,
      "byteOffset": 2015432,
      "byteStride": 12,
      "name": "floatBufferViews",
      "target": 34962
    }
  ],
  "buffers": [
    {
      "byteLength": 4147184,
      "uri": "scene.bin"
    }
  ],
  "materials": [
    {
      "doubleSided": true,
      "name": "initialShadingGroup",
      "pbrMetallicRoughness": {
        "metallicFactor": 0.0,
        "roughnessFactor": 0.6
      }
    }
  ],
  "meshes": [
    {
      "name": "Object_0",
      "primitives": [
        {
          "attributes": {
            "NORMAL": 1,
            "POSITION": 0,
            "TEXCOORD_0": 2
          },
          "indices": 3,
          "material": 0,
          "mode": 4
        }
      ]
    },
    {
      "name": "Object_1",
      "primitives": [
        {
          "attributes": {
            "NORMAL": 5,
            "POSITION": 4
          },
          "indices": 6,
          "material": 0,
          "mode": 4
        }
      ]
    },
    {
      "name": "Object_2",
      "primitives": [
        {
          "attributes": {
            "NORMAL": 8,
            "POSITION": 7
          },
          "indices": 9,
          "material": 0,
          "mode": 4
        }
      ]
    },
    {
      "name": "Object_3",
      "primitives": [
        {
          "attributes": {
            "NORMAL": 11,
            "POSITION": 10,
            "TEXCOORD_0": 12
          },
          "indices": 13,
          "material": 0,
          "mode": 4
        }
      ]
    },
    {
      "name": "Object_4",
      "primitives": [
        {
          "attributes": {
            "NORMAL": 15,
            "POSITION": 14,
            "TEXCOORD_0": 16
          },
          "indices": 17,
          "material": 0,
          "mode": 4
        }
      ]
    },
    {
      "name": "Object_5",
      "primitives": [
        {
          "attributes": {
            "NORMAL": 19,
            "POSITION": 18,
            "TEXCOORD_0": 20
          },
          "indices": 21,
          "material": 0,
          "mode": 4
        }
      ]
    },
    {
      "name": "Object_6",
      "primitives": [
        {
          "attributes": {
            "NORMAL": 23,
            "POSITION": 22,
            "TEXCOORD_0": 24
          },
          "indices": 25,
          "material": 0,
          "mode": 4
        }
      ]
    },
    {
      "name": "Object_7",
      "primitives": [
        {
          "attributes": {
            "NORMAL": 27,
            "POSITION": 26,
            "TEXCOORD_0": 28
          },
          "indices": 29,
          "material": 0,
          "mode": 4
        }
      ]
    },
    {
      "name": "Object_8",
      "primitives": [
        {
          "attributes": {
            "NORMAL": 31,
            "POSITION": 30,
            "TEXCOORD_0": 32
          },
          "indices": 33,
          "material": 0,
          "mode": 4
        }
      ]
    },
    {
      "name": "Object_9",
      "primitives": [
        {
          "attributes": {
            "NORMAL": 35,
            "POSITION": 34,
            "TEXCOORD_0": 36
          },
          "indices": 37,
          "material": 0,
          "mode": 4
        }
      ]
    },
    {
      "name": "Object_10",
      "primitives": [
        {
          "attributes": {
            "NORMAL": 39,
            "POSITION": 38,
            "TEXCOORD_0": 40
          },
          "indices": 41,
          "material": 0,
          "mode": 4
        }
      ]
    }
  ],
  "nodes": [
    {
      "children": [
        1
      ],
      "matrix": [
        1.0,
        0.0,
        0.0,
        0.0,
        0.0,
        2.220446049250313e-16,
        -1.0,
        0.0,
        0.0,
        1.0,
        2.220446049250313e-16,
        0.0,
        0.0,
        0.0,
        0.0,
        1.0
      ],
      "name": "Sketchfab_model"
    },
    {
      "children": [
        2,
        3,
        4,
        5,
        6,
        7,
        8,
        9,
        10,
        11,
        12
      ],
      "name": "HospitalBed.obj.cleaner.materialmerger.gles"
    },
    {
      "mesh": 0,
      "name": "Object_2"
    },
    {
      "mesh": 1,
      "name": "Object_3"
    },
    {
      "mesh": 2,
      "name": "Object_4"
    },
    {
      "mesh": 3,
      "name": "Object_5"
    },
    {
      "mesh": 4,
      "name": "Object_6"
    },
    {
      "mesh": 5,
      "name": "Object_7"
    },
    {
      "mesh": 6,
      "name": "Object_8"
    },
    {
      "mesh": 7,
      "name": "Object_9"
    },
    {
      "mesh": 8,
      "name": "Object_10"
    },
    {
      "mesh": 9,
      "name": "Object_11"
    },
    {
      "mesh": 10,
      "name": "Object_12"
    }
  ],
  "scene": 0,
  "scenes": [
    {
      "name": "Sketchfab_Scene",
      "nodes": [
        0
      ]
    }
  ]
}
