<?xml version="1.0" encoding="us-ascii" standalone="no"?><svg xmlns="http://www.w3.org/2000/svg" xmlns:xlink="http://www.w3.org/1999/xlink" contentStyleType="text/css" height="552px" preserveAspectRatio="none" style="width:983px;height:552px;background:#FFFFFF;" version="1.1" viewBox="0 0 983 552" width="983px" zoomAndPan="magnify"><defs/><g><rect fill="#FFFFFF" height="424.4375" style="stroke:#181818;stroke-width:1.0;" width="10" x="51.5" y="65.2188"/><rect fill="#FFFFFF" height="393.0859" style="stroke:#181818;stroke-width:1.0;" width="10" x="211.5" y="87.5703"/><rect fill="#FFFFFF" height="30.3516" style="stroke:#181818;stroke-width:1.0;" width="10" x="404" y="389.6016"/><rect fill="#FFFFFF" height="272.1641" style="stroke:#181818;stroke-width:1.0;" width="10" x="580" y="178.1406"/><rect fill="#FFFFFF" height="150.7578" style="stroke:#181818;stroke-width:1.0;" width="10" x="693" y="208.4922"/><rect fill="#FFFFFF" height="90.0547" style="stroke:#181818;stroke-width:1.0;" width="10" x="825" y="238.8438"/><line style="stroke:#181818;stroke-width:0.5;stroke-dasharray:5.0,5.0;" x1="56" x2="56" y1="55.2188" y2="498.6563"/><line style="stroke:#181818;stroke-width:0.5;stroke-dasharray:5.0,5.0;" x1="216" x2="216" y1="55.2188" y2="498.6563"/><line style="stroke:#181818;stroke-width:0.5;stroke-dasharray:5.0,5.0;" x1="408.5" x2="408.5" y1="135.6797" y2="498.6563"/><line style="stroke:#181818;stroke-width:0.5;stroke-dasharray:5.0,5.0;" x1="584.5" x2="584.5" y1="55.2188" y2="498.6563"/><line style="stroke:#181818;stroke-width:0.5;stroke-dasharray:5.0,5.0;" x1="697.5" x2="697.5" y1="55.2188" y2="498.6563"/><line style="stroke:#181818;stroke-width:0.5;stroke-dasharray:5.0,5.0;" x1="830" x2="830" y1="55.2188" y2="498.6563"/><rect fill="#E2E2F0" height="49.2188" rx="2.5" ry="2.5" style="stroke:#181818;stroke-width:0.5;" width="103" x="5" y="5"/><text fill="#000000" font-family="sans-serif" font-size="14" font-style="italic" lengthAdjust="spacing" textLength="89" x="12" y="26.5332">&#171;Component&#187;</text><text fill="#000000" font-family="sans-serif" font-size="14" lengthAdjust="spacing" textLength="29" x="42" y="44.1426">View</text><rect fill="#E2E2F0" height="49.2188" rx="2.5" ry="2.5" style="stroke:#181818;stroke-width:0.5;" width="103" x="5" y="497.6563"/><text fill="#000000" font-family="sans-serif" font-size="14" font-style="italic" lengthAdjust="spacing" textLength="89" x="12" y="519.1895">&#171;Component&#187;</text><text fill="#000000" font-family="sans-serif" font-size="14" lengthAdjust="spacing" textLength="29" x="42" y="536.7988">View</text><rect fill="#E2E2F0" height="49.2188" rx="2.5" ry="2.5" style="stroke:#181818;stroke-width:0.5;" width="103" x="165" y="5"/><text fill="#000000" font-family="sans-serif" font-size="14" font-style="italic" lengthAdjust="spacing" textLength="89" x="172" y="26.5332">&#171;Component&#187;</text><text fill="#000000" font-family="sans-serif" font-size="14" lengthAdjust="spacing" textLength="73" x="180" y="44.1426">Component</text><rect fill="#E2E2F0" height="49.2188" rx="2.5" ry="2.5" style="stroke:#181818;stroke-width:0.5;" width="103" x="165" y="497.6563"/><text fill="#000000" font-family="sans-serif" font-size="14" font-style="italic" lengthAdjust="spacing" textLength="89" x="172" y="519.1895">&#171;Component&#187;</text><text fill="#000000" font-family="sans-serif" font-size="14" lengthAdjust="spacing" textLength="73" x="180" y="536.7988">Component</text><rect fill="#E2E2F0" height="49.2188" rx="2.5" ry="2.5" style="stroke:#181818;stroke-width:0.5;" width="103" x="357.5" y="497.6563"/><text fill="#000000" font-family="sans-serif" font-size="14" font-style="italic" lengthAdjust="spacing" textLength="89" x="364.5" y="519.1895">&#171;Component&#187;</text><text fill="#000000" font-family="sans-serif" font-size="14" lengthAdjust="spacing" textLength="38" x="390" y="536.7988">Model</text><rect fill="#E2E2F0" height="49.2188" rx="2.5" ry="2.5" style="stroke:#181818;stroke-width:0.5;" width="103" x="533.5" y="5"/><text fill="#000000" font-family="sans-serif" font-size="14" font-style="italic" lengthAdjust="spacing" textLength="89" x="540.5" y="26.5332">&#171;Component&#187;</text><text fill="#000000" font-family="sans-serif" font-size="14" lengthAdjust="spacing" textLength="47" x="561.5" y="44.1426">Service</text><rect fill="#E2E2F0" height="49.2188" rx="2.5" ry="2.5" style="stroke:#181818;stroke-width:0.5;" width="103" x="533.5" y="497.6563"/><text fill="#000000" font-family="sans-serif" font-size="14" font-style="italic" lengthAdjust="spacing" textLength="89" x="540.5" y="519.1895">&#171;Component&#187;</text><text fill="#000000" font-family="sans-serif" font-size="14" lengthAdjust="spacing" textLength="47" x="561.5" y="536.7988">Service</text><rect fill="#E2E2F0" height="49.2188" rx="2.5" ry="2.5" style="stroke:#181818;stroke-width:0.5;" width="103" x="646.5" y="5"/><text fill="#000000" font-family="sans-serif" font-size="14" font-style="italic" lengthAdjust="spacing" textLength="89" x="653.5" y="26.5332">&#171;Component&#187;</text><text fill="#000000" font-family="sans-serif" font-size="14" lengthAdjust="spacing" textLength="74" x="661" y="44.1426">HTTPDriver</text><rect fill="#E2E2F0" height="49.2188" rx="2.5" ry="2.5" style="stroke:#181818;stroke-width:0.5;" width="103" x="646.5" y="497.6563"/><text fill="#000000" font-family="sans-serif" font-size="14" font-style="italic" lengthAdjust="spacing" textLength="89" x="653.5" y="519.1895">&#171;Component&#187;</text><text fill="#000000" font-family="sans-serif" font-size="14" lengthAdjust="spacing" textLength="74" x="661" y="536.7988">HTTPDriver</text><rect fill="#E2E2F0" height="49.2188" rx="2.5" ry="2.5" style="stroke:#181818;stroke-width:0.5;" width="124" x="768" y="5"/><text fill="#000000" font-family="sans-serif" font-size="14" font-style="italic" lengthAdjust="spacing" textLength="110" x="775" y="26.5332">&#171;Container (C4)&#187;</text><text fill="#000000" font-family="sans-serif" font-size="14" lengthAdjust="spacing" textLength="80" x="790" y="44.1426">MastersData</text><rect fill="#E2E2F0" height="49.2188" rx="2.5" ry="2.5" style="stroke:#181818;stroke-width:0.5;" width="124" x="768" y="497.6563"/><text fill="#000000" font-family="sans-serif" font-size="14" font-style="italic" lengthAdjust="spacing" textLength="110" x="775" y="519.1895">&#171;Container (C4)&#187;</text><text fill="#000000" font-family="sans-serif" font-size="14" lengthAdjust="spacing" textLength="80" x="790" y="536.7988">MastersData</text><rect fill="#FFFFFF" height="424.4375" style="stroke:#181818;stroke-width:1.0;" width="10" x="51.5" y="65.2188"/><rect fill="#FFFFFF" height="393.0859" style="stroke:#181818;stroke-width:1.0;" width="10" x="211.5" y="87.5703"/><rect fill="#FFFFFF" height="30.3516" style="stroke:#181818;stroke-width:1.0;" width="10" x="404" y="389.6016"/><rect fill="#FFFFFF" height="272.1641" style="stroke:#181818;stroke-width:1.0;" width="10" x="580" y="178.1406"/><rect fill="#FFFFFF" height="150.7578" style="stroke:#181818;stroke-width:1.0;" width="10" x="693" y="208.4922"/><rect fill="#FFFFFF" height="90.0547" style="stroke:#181818;stroke-width:1.0;" width="10" x="825" y="238.8438"/><polygon fill="#181818" points="199.5,83.5703,209.5,87.5703,199.5,91.5703,203.5,87.5703" style="stroke:#181818;stroke-width:1.0;"/><line style="stroke:#181818;stroke-width:1.0;" x1="61.5" x2="205.5" y1="87.5703" y2="87.5703"/><text fill="#000000" font-family="sans-serif" font-size="13" lengthAdjust="spacing" textLength="90" x="68.5" y="82.7139">submit the form</text><polygon fill="#181818" points="345.5,113.9219,355.5,117.9219,345.5,121.9219,349.5,117.9219" style="stroke:#181818;stroke-width:1.0;"/><line style="stroke:#181818;stroke-width:1.0;" x1="221.5" x2="351.5" y1="117.9219" y2="117.9219"/><text fill="#000000" font-family="sans-serif" font-size="13" lengthAdjust="spacing" textLength="112" x="228.5" y="113.0654">get the data in form</text><rect fill="#E2E2F0" height="49.2188" rx="2.5" ry="2.5" style="stroke:#181818;stroke-width:0.5;" width="103" x="357.5" y="95.5703"/><text fill="#000000" font-family="sans-serif" font-size="14" font-style="italic" lengthAdjust="spacing" textLength="89" x="364.5" y="117.1035">&#171;Component&#187;</text><text fill="#000000" font-family="sans-serif" font-size="14" lengthAdjust="spacing" textLength="38" x="390" y="134.7129">Model</text><polygon fill="#181818" points="568,174.1406,578,178.1406,568,182.1406,572,178.1406" style="stroke:#181818;stroke-width:1.0;"/><line style="stroke:#181818;stroke-width:1.0;" x1="221.5" x2="574" y1="178.1406" y2="178.1406"/><text fill="#000000" font-family="sans-serif" font-size="13" lengthAdjust="spacing" textLength="82" x="228.5" y="173.2842">creates a staff</text><polygon fill="#181818" points="681,204.4922,691,208.4922,681,212.4922,685,208.4922" style="stroke:#181818;stroke-width:1.0;"/><line style="stroke:#181818;stroke-width:1.0;" x1="590" x2="687" y1="208.4922" y2="208.4922"/><text fill="#000000" font-family="sans-serif" font-size="13" lengthAdjust="spacing" textLength="35" x="597" y="203.6357">POST</text><polygon fill="#181818" points="813,234.8438,823,238.8438,813,242.8438,817,238.8438" style="stroke:#181818;stroke-width:1.0;"/><line style="stroke:#181818;stroke-width:1.0;" x1="703" x2="819" y1="238.8438" y2="238.8438"/><text fill="#000000" font-family="sans-serif" font-size="13" lengthAdjust="spacing" textLength="103" x="710" y="233.9873">POST (/api/staffs)</text><line style="stroke:#181818;stroke-width:1.0;" x1="835" x2="877" y1="285.5469" y2="285.5469"/><line style="stroke:#181818;stroke-width:1.0;" x1="877" x2="877" y1="285.5469" y2="298.5469"/><line style="stroke:#181818;stroke-width:1.0;" x1="836" x2="877" y1="298.5469" y2="298.5469"/><polygon fill="#181818" points="846,294.5469,836,298.5469,846,302.5469,842,298.5469" style="stroke:#181818;stroke-width:1.0;"/><text fill="#000000" font-family="sans-serif" font-size="13" lengthAdjust="spacing" textLength="134" x="842" y="264.3389">validates all information</text><text fill="#000000" font-family="sans-serif" font-size="13" lengthAdjust="spacing" textLength="107" x="842" y="280.6904">and creates a staff</text><polygon fill="#181818" points="714,324.8984,704,328.8984,714,332.8984,710,328.8984" style="stroke:#181818;stroke-width:1.0;"/><line style="stroke:#181818;stroke-width:1.0;stroke-dasharray:2.0,2.0;" x1="708" x2="829" y1="328.8984" y2="328.8984"/><text fill="#000000" font-family="sans-serif" font-size="13" lengthAdjust="spacing" textLength="53" x="720" y="324.042">response</text><polygon fill="#181818" points="601,355.25,591,359.25,601,363.25,597,359.25" style="stroke:#181818;stroke-width:1.0;"/><line style="stroke:#181818;stroke-width:1.0;stroke-dasharray:2.0,2.0;" x1="595" x2="697" y1="359.25" y2="359.25"/><text fill="#000000" font-family="sans-serif" font-size="13" lengthAdjust="spacing" textLength="53" x="607" y="354.3936">response</text><polygon fill="#181818" points="425,385.6016,415,389.6016,425,393.6016,421,389.6016" style="stroke:#181818;stroke-width:1.0;"/><line style="stroke:#181818;stroke-width:1.0;" x1="419" x2="579" y1="389.6016" y2="389.6016"/><text fill="#000000" font-family="sans-serif" font-size="13" lengthAdjust="spacing" textLength="147" x="431" y="384.7451">transforms response data</text><polygon fill="#181818" points="568,415.9531,578,419.9531,568,423.9531,572,419.9531" style="stroke:#181818;stroke-width:1.0;"/><line style="stroke:#181818;stroke-width:1.0;stroke-dasharray:2.0,2.0;" x1="409" x2="574" y1="419.9531" y2="419.9531"/><text fill="#000000" font-family="sans-serif" font-size="13" lengthAdjust="spacing" textLength="24" x="416" y="415.0967">staff</text><polygon fill="#181818" points="232.5,446.3047,222.5,450.3047,232.5,454.3047,228.5,450.3047" style="stroke:#181818;stroke-width:1.0;"/><line style="stroke:#181818;stroke-width:1.0;stroke-dasharray:2.0,2.0;" x1="226.5" x2="584" y1="450.3047" y2="450.3047"/><text fill="#000000" font-family="sans-serif" font-size="13" lengthAdjust="spacing" textLength="24" x="238.5" y="445.4482">staff</text><polygon fill="#181818" points="72.5,476.6563,62.5,480.6563,72.5,484.6563,68.5,480.6563" style="stroke:#181818;stroke-width:1.0;"/><line style="stroke:#181818;stroke-width:1.0;stroke-dasharray:2.0,2.0;" x1="66.5" x2="215.5" y1="480.6563" y2="480.6563"/><text fill="#000000" font-family="sans-serif" font-size="13" lengthAdjust="spacing" textLength="126" x="78.5" y="475.7998">success/fail message</text><!--SRC=[VP0_QyD03CNt-nGQaq39qia43_a3NKe32PswgBQS2kopEIdkr-_TsSdPX7IoTFuzwUbrw9GBxj0gV3Bz0ihmtMnsRTErbgpckUacsFqziAbvBdXlIwe3F1JFmHEvdWiAwAry3h-TpyUzuvvSu2VTFqPGb9piKJ5ejeV8MaMsNhVOlIwzm62XtADIpC74C5xoT6W6SlrkM45_2AhMDKbmPqoAnKlZsQjL1XSQL6Kmm7PGpz3nx0mAHtwY088eLbNQCHBc5f0NfTipE7wSpWbEVyma82_P7WOK5cliU1rto389jmVZqnd17cik1pTrxNq7swZSsY-BjdomwaYlpe8ZyNS9FVGJvp6P3DIXbJ1LxbJCAFc9u6tIRCsykHO5YQmhv1eQN-65p1y0]--></g></svg>