<?xml version="1.0" encoding="us-ascii" standalone="no"?><svg xmlns="http://www.w3.org/2000/svg" xmlns:xlink="http://www.w3.org/1999/xlink" contentStyleType="text/css" height="431px" preserveAspectRatio="none" style="width:867px;height:431px;background:#FFFFFF;" version="1.1" viewBox="0 0 867 431" width="867px" zoomAndPan="magnify"><defs/><g><rect fill="#FFFFFF" height="240.7949" style="stroke:#181818;stroke-width:1.0;" width="10" x="25.5" y="91.4883"/><rect fill="#FFFFFF" height="228.4844" style="stroke:#181818;stroke-width:1.0;" width="10" x="372.5" y="112.7988"/><rect fill="#FFFFFF" height="86.9316" style="stroke:#181818;stroke-width:1.0;" width="10" x="638.5" y="216.041"/><line style="stroke:#181818;stroke-width:0.5;stroke-dasharray:5.0,5.0;" x1="30" x2="30" y1="81.4883" y2="350.2832"/><line style="stroke:#181818;stroke-width:0.5;stroke-dasharray:5.0,5.0;" x1="377.5" x2="377.5" y1="81.4883" y2="350.2832"/><line style="stroke:#181818;stroke-width:0.5;stroke-dasharray:5.0,5.0;" x1="643" x2="643" y1="81.4883" y2="350.2832"/><text fill="#000000" font-family="sans-serif" font-size="14" lengthAdjust="spacing" textLength="45" x="5" y="78.5352">Admin</text><ellipse cx="30.5" cy="13.5" fill="#E2E2F0" rx="8" ry="8" style="stroke:#181818;stroke-width:0.5;"/><path d="M30.5,21.5 L30.5,48.5 M17.5,29.5 L43.5,29.5 M30.5,48.5 L17.5,63.5 M30.5,48.5 L43.5,63.5 " fill="none" style="stroke:#181818;stroke-width:0.5;"/><text fill="#000000" font-family="sans-serif" font-size="14" lengthAdjust="spacing" textLength="45" x="5" y="362.8184">Admin</text><ellipse cx="30.5" cy="374.2715" fill="#E2E2F0" rx="8" ry="8" style="stroke:#181818;stroke-width:0.5;"/><path d="M30.5,382.2715 L30.5,409.2715 M17.5,390.2715 L43.5,390.2715 M30.5,409.2715 L17.5,424.2715 M30.5,409.2715 L43.5,424.2715 " fill="none" style="stroke:#181818;stroke-width:0.5;"/><rect fill="#E2E2F0" height="30.4883" rx="2.5" ry="2.5" style="stroke:#181818;stroke-width:0.5;" width="28" x="363.5" y="50"/><text fill="#000000" font-family="sans-serif" font-size="14" lengthAdjust="spacing" textLength="14" x="370.5" y="70.5352">UI</text><rect fill="#E2E2F0" height="30.4883" rx="2.5" ry="2.5" style="stroke:#181818;stroke-width:0.5;" width="28" x="363.5" y="349.2832"/><text fill="#000000" font-family="sans-serif" font-size="14" lengthAdjust="spacing" textLength="14" x="370.5" y="369.8184">UI</text><rect fill="#E2E2F0" height="30.4883" rx="2.5" ry="2.5" style="stroke:#181818;stroke-width:0.5;" width="71" x="608" y="50"/><text fill="#000000" font-family="sans-serif" font-size="14" lengthAdjust="spacing" textLength="57" x="615" y="70.5352">Backend</text><rect fill="#E2E2F0" height="30.4883" rx="2.5" ry="2.5" style="stroke:#181818;stroke-width:0.5;" width="71" x="608" y="349.2832"/><text fill="#000000" font-family="sans-serif" font-size="14" lengthAdjust="spacing" textLength="57" x="615" y="369.8184">Backend</text><rect fill="#FFFFFF" height="240.7949" style="stroke:#181818;stroke-width:1.0;" width="10" x="25.5" y="91.4883"/><rect fill="#FFFFFF" height="228.4844" style="stroke:#181818;stroke-width:1.0;" width="10" x="372.5" y="112.7988"/><rect fill="#FFFFFF" height="86.9316" style="stroke:#181818;stroke-width:1.0;" width="10" x="638.5" y="216.041"/><polygon fill="#181818" points="360.5,108.7988,370.5,112.7988,360.5,116.7988,364.5,112.7988" style="stroke:#181818;stroke-width:1.0;"/><line style="stroke:#181818;stroke-width:1.0;" x1="35.5" x2="366.5" y1="112.7988" y2="112.7988"/><text fill="#000000" font-family="sans-serif" font-size="13" lengthAdjust="spacing" textLength="290" x="42.5" y="108.0566">Make a request to search for OperationType(s)</text><polygon fill="#181818" points="46.5,138.1094,36.5,142.1094,46.5,146.1094,42.5,142.1094" style="stroke:#181818;stroke-width:1.0;"/><line style="stroke:#181818;stroke-width:1.0;stroke-dasharray:2.0,2.0;" x1="40.5" x2="371.5" y1="142.1094" y2="142.1094"/><text fill="#000000" font-family="sans-serif" font-size="13" lengthAdjust="spacing" textLength="313" x="52.5" y="137.3672">Asks for the OperationType information to search</text><polygon fill="#181818" points="360.5,182.7305,370.5,186.7305,360.5,190.7305,364.5,186.7305" style="stroke:#181818;stroke-width:1.0;"/><line style="stroke:#181818;stroke-width:1.0;" x1="35.5" x2="366.5" y1="186.7305" y2="186.7305"/><text fill="#000000" font-family="sans-serif" font-size="13" lengthAdjust="spacing" textLength="313" x="42.5" y="166.6777">Provides the OperationType information to search</text><text fill="#000000" font-family="sans-serif" font-size="13" lengthAdjust="spacing" textLength="272" x="42.5" y="181.9883">(Name and/or Specialization and/or status)</text><polygon fill="#181818" points="626.5,212.041,636.5,216.041,626.5,220.041,630.5,216.041" style="stroke:#181818;stroke-width:1.0;"/><line style="stroke:#181818;stroke-width:1.0;" x1="382.5" x2="632.5" y1="216.041" y2="216.041"/><text fill="#000000" font-family="sans-serif" font-size="13" lengthAdjust="spacing" textLength="112" x="389.5" y="211.2988">HTTP GET request</text><line style="stroke:#181818;stroke-width:1.0;" x1="648.5" x2="690.5" y1="260.6621" y2="260.6621"/><line style="stroke:#181818;stroke-width:1.0;" x1="690.5" x2="690.5" y1="260.6621" y2="273.6621"/><line style="stroke:#181818;stroke-width:1.0;" x1="649.5" x2="690.5" y1="273.6621" y2="273.6621"/><polygon fill="#181818" points="659.5,269.6621,649.5,273.6621,659.5,277.6621,655.5,273.6621" style="stroke:#181818;stroke-width:1.0;"/><text fill="#000000" font-family="sans-serif" font-size="13" lengthAdjust="spacing" textLength="163" x="655.5" y="240.6094">receive request body info,</text><text fill="#000000" font-family="sans-serif" font-size="13" lengthAdjust="spacing" textLength="201" x="659.5" y="255.9199">and search for OperationType(s)</text><polygon fill="#181818" points="393.5,298.9727,383.5,302.9727,393.5,306.9727,389.5,302.9727" style="stroke:#181818;stroke-width:1.0;"/><line style="stroke:#181818;stroke-width:1.0;stroke-dasharray:2.0,2.0;" x1="387.5" x2="642.5" y1="302.9727" y2="302.9727"/><text fill="#000000" font-family="sans-serif" font-size="13" lengthAdjust="spacing" textLength="232" x="399.5" y="298.2305">response with list of OperationTypes</text><polygon fill="#181818" points="41.5,328.2832,31.5,332.2832,41.5,336.2832,37.5,332.2832" style="stroke:#181818;stroke-width:1.0;"/><line style="stroke:#181818;stroke-width:1.0;stroke-dasharray:2.0,2.0;" x1="35.5" x2="371.5" y1="332.2832" y2="332.2832"/><text fill="#000000" font-family="sans-serif" font-size="13" lengthAdjust="spacing" textLength="209" x="47.5" y="327.541">Returns the list of OperationType</text><!--SRC=[ZP71JiCm44Jl_eez5ec8UuGg5Gb13a05oQsNnTugLXhRs9kWylMOE2GD8DIRr_ARcHsZPEjXerfjG3ZqhALsQ1YgOZdVe6p8A25GikwHAK5293PRHoA71sm843ozTHGOs48WzBA6VNHvSkIHjJNbqT4gNCnILI6YNnP5abeEcz240UAQbY1e4-_ROPuDbZ6stlPQKJYNtfdL8xOnkL5NqVF5aTHuq1_fsNWR6BcBgQiYMuzjv71Vbbkukos_LvvtcWeR3r_P9ioJ9DtJLDIhLSSXskLkyFktjfZWEijEnOAp9X2yQwxXeAEUtI-n81JzIlQZycVYpflKsPyYS2gIVlyJ]--></g></svg>