<?xml version="1.0" encoding="us-ascii" standalone="no"?><svg xmlns="http://www.w3.org/2000/svg" xmlns:xlink="http://www.w3.org/1999/xlink" contentStyleType="text/css" height="569px" preserveAspectRatio="none" style="width:1296px;height:569px;background:#FFFFFF;" version="1.1" viewBox="0 0 1296 569" width="1296px" zoomAndPan="magnify"><defs/><g><rect fill="#FFFFFF" height="440.7891" style="stroke:#181818;stroke-width:1.0;" width="10" x="51.5" y="65.2188"/><rect fill="#FFFFFF" height="409.4375" style="stroke:#181818;stroke-width:1.0;" width="10" x="251.5" y="87.5703"/><rect fill="#FFFFFF" height="30.3516" style="stroke:#181818;stroke-width:1.0;" width="10" x="583" y="405.9531"/><rect fill="#FFFFFF" height="288.5156" style="stroke:#181818;stroke-width:1.0;" width="10" x="759" y="178.1406"/><rect fill="#FFFFFF" height="167.1094" style="stroke:#181818;stroke-width:1.0;" width="10" x="872" y="208.4922"/><rect fill="#FFFFFF" height="106.4063" style="stroke:#181818;stroke-width:1.0;" width="10" x="1134" y="238.8438"/><line style="stroke:#181818;stroke-width:0.5;stroke-dasharray:5.0,5.0;" x1="56" x2="56" y1="55.2188" y2="515.0078"/><line style="stroke:#181818;stroke-width:0.5;stroke-dasharray:5.0,5.0;" x1="256" x2="256" y1="55.2188" y2="515.0078"/><line style="stroke:#181818;stroke-width:0.5;stroke-dasharray:5.0,5.0;" x1="587.5" x2="587.5" y1="135.6797" y2="515.0078"/><line style="stroke:#181818;stroke-width:0.5;stroke-dasharray:5.0,5.0;" x1="763.5" x2="763.5" y1="55.2188" y2="515.0078"/><line style="stroke:#181818;stroke-width:0.5;stroke-dasharray:5.0,5.0;" x1="876.5" x2="876.5" y1="55.2188" y2="515.0078"/><line style="stroke:#181818;stroke-width:0.5;stroke-dasharray:5.0,5.0;" x1="1139" x2="1139" y1="55.2188" y2="515.0078"/><rect fill="#E2E2F0" height="49.2188" rx="2.5" ry="2.5" style="stroke:#181818;stroke-width:0.5;" width="103" x="5" y="5"/><text fill="#000000" font-family="sans-serif" font-size="14" font-style="italic" lengthAdjust="spacing" textLength="89" x="12" y="26.5332">&#171;Component&#187;</text><text fill="#000000" font-family="sans-serif" font-size="14" lengthAdjust="spacing" textLength="29" x="42" y="44.1426">View</text><rect fill="#E2E2F0" height="49.2188" rx="2.5" ry="2.5" style="stroke:#181818;stroke-width:0.5;" width="103" x="5" y="514.0078"/><text fill="#000000" font-family="sans-serif" font-size="14" font-style="italic" lengthAdjust="spacing" textLength="89" x="12" y="535.541">&#171;Component&#187;</text><text fill="#000000" font-family="sans-serif" font-size="14" lengthAdjust="spacing" textLength="29" x="42" y="553.1504">View</text><rect fill="#E2E2F0" height="49.2188" rx="2.5" ry="2.5" style="stroke:#181818;stroke-width:0.5;" width="103" x="205" y="5"/><text fill="#000000" font-family="sans-serif" font-size="14" font-style="italic" lengthAdjust="spacing" textLength="89" x="212" y="26.5332">&#171;Component&#187;</text><text fill="#000000" font-family="sans-serif" font-size="14" lengthAdjust="spacing" textLength="73" x="220" y="44.1426">Component</text><rect fill="#E2E2F0" height="49.2188" rx="2.5" ry="2.5" style="stroke:#181818;stroke-width:0.5;" width="103" x="205" y="514.0078"/><text fill="#000000" font-family="sans-serif" font-size="14" font-style="italic" lengthAdjust="spacing" textLength="89" x="212" y="535.541">&#171;Component&#187;</text><text fill="#000000" font-family="sans-serif" font-size="14" lengthAdjust="spacing" textLength="73" x="220" y="553.1504">Component</text><rect fill="#E2E2F0" height="49.2188" rx="2.5" ry="2.5" style="stroke:#181818;stroke-width:0.5;" width="103" x="536.5" y="514.0078"/><text fill="#000000" font-family="sans-serif" font-size="14" font-style="italic" lengthAdjust="spacing" textLength="89" x="543.5" y="535.541">&#171;Component&#187;</text><text fill="#000000" font-family="sans-serif" font-size="14" lengthAdjust="spacing" textLength="38" x="569" y="553.1504">Model</text><rect fill="#E2E2F0" height="49.2188" rx="2.5" ry="2.5" style="stroke:#181818;stroke-width:0.5;" width="103" x="712.5" y="5"/><text fill="#000000" font-family="sans-serif" font-size="14" font-style="italic" lengthAdjust="spacing" textLength="89" x="719.5" y="26.5332">&#171;Component&#187;</text><text fill="#000000" font-family="sans-serif" font-size="14" lengthAdjust="spacing" textLength="47" x="740.5" y="44.1426">Service</text><rect fill="#E2E2F0" height="49.2188" rx="2.5" ry="2.5" style="stroke:#181818;stroke-width:0.5;" width="103" x="712.5" y="514.0078"/><text fill="#000000" font-family="sans-serif" font-size="14" font-style="italic" lengthAdjust="spacing" textLength="89" x="719.5" y="535.541">&#171;Component&#187;</text><text fill="#000000" font-family="sans-serif" font-size="14" lengthAdjust="spacing" textLength="47" x="740.5" y="553.1504">Service</text><rect fill="#E2E2F0" height="49.2188" rx="2.5" ry="2.5" style="stroke:#181818;stroke-width:0.5;" width="103" x="825.5" y="5"/><text fill="#000000" font-family="sans-serif" font-size="14" font-style="italic" lengthAdjust="spacing" textLength="89" x="832.5" y="26.5332">&#171;Component&#187;</text><text fill="#000000" font-family="sans-serif" font-size="14" lengthAdjust="spacing" textLength="74" x="840" y="44.1426">HTTPDriver</text><rect fill="#E2E2F0" height="49.2188" rx="2.5" ry="2.5" style="stroke:#181818;stroke-width:0.5;" width="103" x="825.5" y="514.0078"/><text fill="#000000" font-family="sans-serif" font-size="14" font-style="italic" lengthAdjust="spacing" textLength="89" x="832.5" y="535.541">&#171;Component&#187;</text><text fill="#000000" font-family="sans-serif" font-size="14" lengthAdjust="spacing" textLength="74" x="840" y="553.1504">HTTPDriver</text><rect fill="#E2E2F0" height="49.2188" rx="2.5" ry="2.5" style="stroke:#181818;stroke-width:0.5;" width="124" x="1077" y="5"/><text fill="#000000" font-family="sans-serif" font-size="14" font-style="italic" lengthAdjust="spacing" textLength="110" x="1084" y="26.5332">&#171;Container (C4)&#187;</text><text fill="#000000" font-family="sans-serif" font-size="14" lengthAdjust="spacing" textLength="80" x="1099" y="44.1426">MastersData</text><rect fill="#E2E2F0" height="49.2188" rx="2.5" ry="2.5" style="stroke:#181818;stroke-width:0.5;" width="124" x="1077" y="514.0078"/><text fill="#000000" font-family="sans-serif" font-size="14" font-style="italic" lengthAdjust="spacing" textLength="110" x="1084" y="535.541">&#171;Container (C4)&#187;</text><text fill="#000000" font-family="sans-serif" font-size="14" lengthAdjust="spacing" textLength="80" x="1099" y="553.1504">MastersData</text><rect fill="#FFFFFF" height="440.7891" style="stroke:#181818;stroke-width:1.0;" width="10" x="51.5" y="65.2188"/><rect fill="#FFFFFF" height="409.4375" style="stroke:#181818;stroke-width:1.0;" width="10" x="251.5" y="87.5703"/><rect fill="#FFFFFF" height="30.3516" style="stroke:#181818;stroke-width:1.0;" width="10" x="583" y="405.9531"/><rect fill="#FFFFFF" height="288.5156" style="stroke:#181818;stroke-width:1.0;" width="10" x="759" y="178.1406"/><rect fill="#FFFFFF" height="167.1094" style="stroke:#181818;stroke-width:1.0;" width="10" x="872" y="208.4922"/><rect fill="#FFFFFF" height="106.4063" style="stroke:#181818;stroke-width:1.0;" width="10" x="1134" y="238.8438"/><polygon fill="#181818" points="239.5,83.5703,249.5,87.5703,239.5,91.5703,243.5,87.5703" style="stroke:#181818;stroke-width:1.0;"/><line style="stroke:#181818;stroke-width:1.0;" x1="61.5" x2="245.5" y1="87.5703" y2="87.5703"/><text fill="#000000" font-family="sans-serif" font-size="13" lengthAdjust="spacing" textLength="171" x="68.5" y="82.7139">redirect the confirmation page</text><polygon fill="#181818" points="524.5,113.9219,534.5,117.9219,524.5,121.9219,528.5,117.9219" style="stroke:#181818;stroke-width:1.0;"/><line style="stroke:#181818;stroke-width:1.0;" x1="261.5" x2="530.5" y1="117.9219" y2="117.9219"/><text fill="#000000" font-family="sans-serif" font-size="13" lengthAdjust="spacing" textLength="251" x="268.5" y="113.0654">get the email, token and info to edit in route</text><rect fill="#E2E2F0" height="49.2188" rx="2.5" ry="2.5" style="stroke:#181818;stroke-width:0.5;" width="103" x="536.5" y="95.5703"/><text fill="#000000" font-family="sans-serif" font-size="14" font-style="italic" lengthAdjust="spacing" textLength="89" x="543.5" y="117.1035">&#171;Component&#187;</text><text fill="#000000" font-family="sans-serif" font-size="14" lengthAdjust="spacing" textLength="38" x="569" y="134.7129">Model</text><polygon fill="#181818" points="747,174.1406,757,178.1406,747,182.1406,751,178.1406" style="stroke:#181818;stroke-width:1.0;"/><line style="stroke:#181818;stroke-width:1.0;" x1="261.5" x2="753" y1="178.1406" y2="178.1406"/><text fill="#000000" font-family="sans-serif" font-size="13" lengthAdjust="spacing" textLength="197" x="268.5" y="173.2842">confirm the edit of the patient user</text><polygon fill="#181818" points="860,204.4922,870,208.4922,860,212.4922,864,208.4922" style="stroke:#181818;stroke-width:1.0;"/><line style="stroke:#181818;stroke-width:1.0;" x1="769" x2="866" y1="208.4922" y2="208.4922"/><text fill="#000000" font-family="sans-serif" font-size="13" lengthAdjust="spacing" textLength="43" x="776" y="203.6357">PATCH</text><polygon fill="#181818" points="1122,234.8438,1132,238.8438,1122,242.8438,1126,238.8438" style="stroke:#181818;stroke-width:1.0;"/><line style="stroke:#181818;stroke-width:1.0;" x1="882" x2="1128" y1="238.8438" y2="238.8438"/><text fill="#000000" font-family="sans-serif" font-size="13" lengthAdjust="spacing" textLength="233" x="889" y="233.9873">PATCH (/api/users/patients/edit/confirm)</text><line style="stroke:#181818;stroke-width:1.0;" x1="1144" x2="1186" y1="301.8984" y2="301.8984"/><line style="stroke:#181818;stroke-width:1.0;" x1="1186" x2="1186" y1="301.8984" y2="314.8984"/><line style="stroke:#181818;stroke-width:1.0;" x1="1145" x2="1186" y1="314.8984" y2="314.8984"/><polygon fill="#181818" points="1155,310.8984,1145,314.8984,1155,318.8984,1151,314.8984" style="stroke:#181818;stroke-width:1.0;"/><text fill="#000000" font-family="sans-serif" font-size="13" lengthAdjust="spacing" textLength="134" x="1151" y="264.3389">validates all information</text><text fill="#000000" font-family="sans-serif" font-size="13" lengthAdjust="spacing" textLength="138" x="1151" y="280.6904">and confirms the edition</text><text fill="#000000" font-family="sans-serif" font-size="13" lengthAdjust="spacing" textLength="82" x="1151" y="297.042">of patient user</text><polygon fill="#181818" points="893,341.25,883,345.25,893,349.25,889,345.25" style="stroke:#181818;stroke-width:1.0;"/><line style="stroke:#181818;stroke-width:1.0;stroke-dasharray:2.0,2.0;" x1="887" x2="1138" y1="345.25" y2="345.25"/><text fill="#000000" font-family="sans-serif" font-size="13" lengthAdjust="spacing" textLength="53" x="899" y="340.3936">response</text><polygon fill="#181818" points="780,371.6016,770,375.6016,780,379.6016,776,375.6016" style="stroke:#181818;stroke-width:1.0;"/><line style="stroke:#181818;stroke-width:1.0;stroke-dasharray:2.0,2.0;" x1="774" x2="876" y1="375.6016" y2="375.6016"/><text fill="#000000" font-family="sans-serif" font-size="13" lengthAdjust="spacing" textLength="53" x="786" y="370.7451">response</text><polygon fill="#181818" points="604,401.9531,594,405.9531,604,409.9531,600,405.9531" style="stroke:#181818;stroke-width:1.0;"/><line style="stroke:#181818;stroke-width:1.0;" x1="598" x2="758" y1="405.9531" y2="405.9531"/><text fill="#000000" font-family="sans-serif" font-size="13" lengthAdjust="spacing" textLength="147" x="610" y="401.0967">transforms response data</text><polygon fill="#181818" points="747,432.3047,757,436.3047,747,440.3047,751,436.3047" style="stroke:#181818;stroke-width:1.0;"/><line style="stroke:#181818;stroke-width:1.0;stroke-dasharray:2.0,2.0;" x1="588" x2="753" y1="436.3047" y2="436.3047"/><text fill="#000000" font-family="sans-serif" font-size="13" lengthAdjust="spacing" textLength="25" x="595" y="431.4482">user</text><polygon fill="#181818" points="272.5,462.6563,262.5,466.6563,272.5,470.6563,268.5,466.6563" style="stroke:#181818;stroke-width:1.0;"/><line style="stroke:#181818;stroke-width:1.0;stroke-dasharray:2.0,2.0;" x1="266.5" x2="763" y1="466.6563" y2="466.6563"/><text fill="#000000" font-family="sans-serif" font-size="13" lengthAdjust="spacing" textLength="25" x="278.5" y="461.7998">user</text><polygon fill="#181818" points="72.5,493.0078,62.5,497.0078,72.5,501.0078,68.5,497.0078" style="stroke:#181818;stroke-width:1.0;"/><line style="stroke:#181818;stroke-width:1.0;stroke-dasharray:2.0,2.0;" x1="66.5" x2="255.5" y1="497.0078" y2="497.0078"/><text fill="#000000" font-family="sans-serif" font-size="13" lengthAdjust="spacing" textLength="126" x="78.5" y="492.1514">success/fail message</text><!--SRC=[VL5DQyCm3BtdL-ZOberSTWgbi7v0BuF2oawxY4Jfp18xs4hszoSxJfmokfCb-xsdf-SEBQjITQWPFXJz0Bhnt6uFfksC9isxNTOjOFEznwRcCU7DLDHuy5Wy1hwJ7LH97ZgLZy7dw_Loj6eWw_6BxXyZw9YiEoAZv-nF0QiPbHRUwl2o5aA69Qi1cK8EMGZZUPSMBS1IfIoL3Fn5K1fTAziYAwEXmnib_ap9KagY55BOR0guqIX1BQhc2TXyamRK5IXT6sb1vh0qO4tFT2yIyocc-QEGnviwr9quyjZUaKsM8YsRuXMbb5m1bzVhuPpGwIbRv2kS_IbYOPLZft8_nELnfCkzZpmQMoUv_IcJo2Dzm4PLSki0coPi74Fyr3w2o7RpNk55ThlRonBtLl8X9yau-jClrWof5y0MjVEpt8m2iO79PG1EIiifozhrPKdEvRNy7BHI-O__1G00]--></g></svg>