<?xml version="1.0" encoding="us-ascii" standalone="no"?><svg xmlns="http://www.w3.org/2000/svg" xmlns:xlink="http://www.w3.org/1999/xlink" contentStyleType="text/css" height="603px" preserveAspectRatio="none" style="width:1183px;height:603px;background:#FFFFFF;" version="1.1" viewBox="0 0 1183 603" width="1183px" zoomAndPan="magnify"><defs/><g><rect fill="#FFFFFF" height="475.4922" style="stroke:#181818;stroke-width:1.0;" width="10" x="66.5" y="65.2188"/><rect fill="#FFFFFF" height="444.1406" style="stroke:#181818;stroke-width:1.0;" width="10" x="236.5" y="87.5703"/><rect fill="#FFFFFF" height="244.1641" style="stroke:#181818;stroke-width:1.0;" width="10" x="649" y="178.1406"/><rect fill="#FFFFFF" height="183.4609" style="stroke:#181818;stroke-width:1.0;" width="10" x="762" y="208.4922"/><rect fill="#FFFFFF" height="122.7578" style="stroke:#181818;stroke-width:1.0;" width="10" x="978" y="238.8438"/><rect fill="none" height="65.0547" style="stroke:#000000;stroke-width:1.5;" width="293" x="10" y="437.3047"/><line style="stroke:#181818;stroke-width:0.5;stroke-dasharray:5.0,5.0;" x1="71" x2="71" y1="55.2188" y2="549.7109"/><line style="stroke:#181818;stroke-width:0.5;stroke-dasharray:5.0,5.0;" x1="241" x2="241" y1="55.2188" y2="549.7109"/><line style="stroke:#181818;stroke-width:0.5;stroke-dasharray:5.0,5.0;" x1="540.5" x2="540.5" y1="135.6797" y2="549.7109"/><line style="stroke:#181818;stroke-width:0.5;stroke-dasharray:5.0,5.0;" x1="653.5" x2="653.5" y1="55.2188" y2="549.7109"/><line style="stroke:#181818;stroke-width:0.5;stroke-dasharray:5.0,5.0;" x1="766.5" x2="766.5" y1="55.2188" y2="549.7109"/><line style="stroke:#181818;stroke-width:0.5;stroke-dasharray:5.0,5.0;" x1="983" x2="983" y1="55.2188" y2="549.7109"/><rect fill="#E2E2F0" height="49.2188" rx="2.5" ry="2.5" style="stroke:#181818;stroke-width:0.5;" width="103" x="20" y="5"/><text fill="#000000" font-family="sans-serif" font-size="14" font-style="italic" lengthAdjust="spacing" textLength="89" x="27" y="26.5332">&#171;Component&#187;</text><text fill="#000000" font-family="sans-serif" font-size="14" lengthAdjust="spacing" textLength="29" x="57" y="44.1426">View</text><rect fill="#E2E2F0" height="49.2188" rx="2.5" ry="2.5" style="stroke:#181818;stroke-width:0.5;" width="103" x="20" y="548.7109"/><text fill="#000000" font-family="sans-serif" font-size="14" font-style="italic" lengthAdjust="spacing" textLength="89" x="27" y="570.2441">&#171;Component&#187;</text><text fill="#000000" font-family="sans-serif" font-size="14" lengthAdjust="spacing" textLength="29" x="57" y="587.8535">View</text><rect fill="#E2E2F0" height="49.2188" rx="2.5" ry="2.5" style="stroke:#181818;stroke-width:0.5;" width="103" x="190" y="5"/><text fill="#000000" font-family="sans-serif" font-size="14" font-style="italic" lengthAdjust="spacing" textLength="89" x="197" y="26.5332">&#171;Component&#187;</text><text fill="#000000" font-family="sans-serif" font-size="14" lengthAdjust="spacing" textLength="73" x="205" y="44.1426">Component</text><rect fill="#E2E2F0" height="49.2188" rx="2.5" ry="2.5" style="stroke:#181818;stroke-width:0.5;" width="103" x="190" y="548.7109"/><text fill="#000000" font-family="sans-serif" font-size="14" font-style="italic" lengthAdjust="spacing" textLength="89" x="197" y="570.2441">&#171;Component&#187;</text><text fill="#000000" font-family="sans-serif" font-size="14" lengthAdjust="spacing" textLength="73" x="205" y="587.8535">Component</text><rect fill="#E2E2F0" height="49.2188" rx="2.5" ry="2.5" style="stroke:#181818;stroke-width:0.5;" width="103" x="489.5" y="548.7109"/><text fill="#000000" font-family="sans-serif" font-size="14" font-style="italic" lengthAdjust="spacing" textLength="89" x="496.5" y="570.2441">&#171;Component&#187;</text><text fill="#000000" font-family="sans-serif" font-size="14" lengthAdjust="spacing" textLength="38" x="522" y="587.8535">Model</text><rect fill="#E2E2F0" height="49.2188" rx="2.5" ry="2.5" style="stroke:#181818;stroke-width:0.5;" width="103" x="602.5" y="5"/><text fill="#000000" font-family="sans-serif" font-size="14" font-style="italic" lengthAdjust="spacing" textLength="89" x="609.5" y="26.5332">&#171;Component&#187;</text><text fill="#000000" font-family="sans-serif" font-size="14" lengthAdjust="spacing" textLength="47" x="630.5" y="44.1426">Service</text><rect fill="#E2E2F0" height="49.2188" rx="2.5" ry="2.5" style="stroke:#181818;stroke-width:0.5;" width="103" x="602.5" y="548.7109"/><text fill="#000000" font-family="sans-serif" font-size="14" font-style="italic" lengthAdjust="spacing" textLength="89" x="609.5" y="570.2441">&#171;Component&#187;</text><text fill="#000000" font-family="sans-serif" font-size="14" lengthAdjust="spacing" textLength="47" x="630.5" y="587.8535">Service</text><rect fill="#E2E2F0" height="49.2188" rx="2.5" ry="2.5" style="stroke:#181818;stroke-width:0.5;" width="103" x="715.5" y="5"/><text fill="#000000" font-family="sans-serif" font-size="14" font-style="italic" lengthAdjust="spacing" textLength="89" x="722.5" y="26.5332">&#171;Component&#187;</text><text fill="#000000" font-family="sans-serif" font-size="14" lengthAdjust="spacing" textLength="74" x="730" y="44.1426">HTTPDriver</text><rect fill="#E2E2F0" height="49.2188" rx="2.5" ry="2.5" style="stroke:#181818;stroke-width:0.5;" width="103" x="715.5" y="548.7109"/><text fill="#000000" font-family="sans-serif" font-size="14" font-style="italic" lengthAdjust="spacing" textLength="89" x="722.5" y="570.2441">&#171;Component&#187;</text><text fill="#000000" font-family="sans-serif" font-size="14" lengthAdjust="spacing" textLength="74" x="730" y="587.8535">HTTPDriver</text><rect fill="#E2E2F0" height="49.2188" rx="2.5" ry="2.5" style="stroke:#181818;stroke-width:0.5;" width="124" x="921" y="5"/><text fill="#000000" font-family="sans-serif" font-size="14" font-style="italic" lengthAdjust="spacing" textLength="110" x="928" y="26.5332">&#171;Container (C4)&#187;</text><text fill="#000000" font-family="sans-serif" font-size="14" lengthAdjust="spacing" textLength="80" x="943" y="44.1426">MastersData</text><rect fill="#E2E2F0" height="49.2188" rx="2.5" ry="2.5" style="stroke:#181818;stroke-width:0.5;" width="124" x="921" y="548.7109"/><text fill="#000000" font-family="sans-serif" font-size="14" font-style="italic" lengthAdjust="spacing" textLength="110" x="928" y="570.2441">&#171;Container (C4)&#187;</text><text fill="#000000" font-family="sans-serif" font-size="14" lengthAdjust="spacing" textLength="80" x="943" y="587.8535">MastersData</text><rect fill="#FFFFFF" height="475.4922" style="stroke:#181818;stroke-width:1.0;" width="10" x="66.5" y="65.2188"/><rect fill="#FFFFFF" height="444.1406" style="stroke:#181818;stroke-width:1.0;" width="10" x="236.5" y="87.5703"/><rect fill="#FFFFFF" height="244.1641" style="stroke:#181818;stroke-width:1.0;" width="10" x="649" y="178.1406"/><rect fill="#FFFFFF" height="183.4609" style="stroke:#181818;stroke-width:1.0;" width="10" x="762" y="208.4922"/><rect fill="#FFFFFF" height="122.7578" style="stroke:#181818;stroke-width:1.0;" width="10" x="978" y="238.8438"/><polygon fill="#181818" points="224.5,83.5703,234.5,87.5703,224.5,91.5703,228.5,87.5703" style="stroke:#181818;stroke-width:1.0;"/><line style="stroke:#181818;stroke-width:1.0;" x1="76.5" x2="230.5" y1="87.5703" y2="87.5703"/><text fill="#000000" font-family="sans-serif" font-size="13" lengthAdjust="spacing" textLength="90" x="83.5" y="82.7139">submit the form</text><polygon fill="#181818" points="477.5,113.9219,487.5,117.9219,477.5,121.9219,481.5,117.9219" style="stroke:#181818;stroke-width:1.0;"/><line style="stroke:#181818;stroke-width:1.0;" x1="246.5" x2="483.5" y1="117.9219" y2="117.9219"/><text fill="#000000" font-family="sans-serif" font-size="13" lengthAdjust="spacing" textLength="219" x="253.5" y="113.0654">get the email in route and data in form</text><rect fill="#E2E2F0" height="49.2188" rx="2.5" ry="2.5" style="stroke:#181818;stroke-width:0.5;" width="103" x="489.5" y="95.5703"/><text fill="#000000" font-family="sans-serif" font-size="14" font-style="italic" lengthAdjust="spacing" textLength="89" x="496.5" y="117.1035">&#171;Component&#187;</text><text fill="#000000" font-family="sans-serif" font-size="14" lengthAdjust="spacing" textLength="38" x="522" y="134.7129">Model</text><polygon fill="#181818" points="637,174.1406,647,178.1406,637,182.1406,641,178.1406" style="stroke:#181818;stroke-width:1.0;"/><line style="stroke:#181818;stroke-width:1.0;" x1="246.5" x2="643" y1="178.1406" y2="178.1406"/><text fill="#000000" font-family="sans-serif" font-size="13" lengthAdjust="spacing" textLength="182" x="253.5" y="173.2842">edit the patient user information</text><polygon fill="#181818" points="750,204.4922,760,208.4922,750,212.4922,754,208.4922" style="stroke:#181818;stroke-width:1.0;"/><line style="stroke:#181818;stroke-width:1.0;" x1="659" x2="756" y1="208.4922" y2="208.4922"/><text fill="#000000" font-family="sans-serif" font-size="13" lengthAdjust="spacing" textLength="43" x="666" y="203.6357">PATCH</text><polygon fill="#181818" points="966,234.8438,976,238.8438,966,242.8438,970,238.8438" style="stroke:#181818;stroke-width:1.0;"/><line style="stroke:#181818;stroke-width:1.0;" x1="772" x2="972" y1="238.8438" y2="238.8438"/><text fill="#000000" font-family="sans-serif" font-size="13" lengthAdjust="spacing" textLength="187" x="779" y="233.9873">PATCH (/api/users/patients/edit)</text><line style="stroke:#181818;stroke-width:1.0;" x1="988" x2="1030" y1="318.25" y2="318.25"/><line style="stroke:#181818;stroke-width:1.0;" x1="1030" x2="1030" y1="318.25" y2="331.25"/><line style="stroke:#181818;stroke-width:1.0;" x1="989" x2="1030" y1="331.25" y2="331.25"/><polygon fill="#181818" points="999,327.25,989,331.25,999,335.25,995,331.25" style="stroke:#181818;stroke-width:1.0;"/><text fill="#000000" font-family="sans-serif" font-size="13" lengthAdjust="spacing" textLength="134" x="995" y="264.3389">validates all information</text><text fill="#000000" font-family="sans-serif" font-size="13" lengthAdjust="spacing" textLength="156" x="995" y="280.6904">and edits new patient user,</text><text fill="#000000" font-family="sans-serif" font-size="13" lengthAdjust="spacing" textLength="172" x="995" y="297.042">sending an confirmation email</text><text fill="#000000" font-family="sans-serif" font-size="13" lengthAdjust="spacing" textLength="181" x="995" y="313.3936">in case of editing sensitive data</text><polygon fill="#181818" points="783,357.6016,773,361.6016,783,365.6016,779,361.6016" style="stroke:#181818;stroke-width:1.0;"/><line style="stroke:#181818;stroke-width:1.0;stroke-dasharray:2.0,2.0;" x1="777" x2="982" y1="361.6016" y2="361.6016"/><text fill="#000000" font-family="sans-serif" font-size="13" lengthAdjust="spacing" textLength="53" x="789" y="356.7451">response</text><polygon fill="#181818" points="670,387.9531,660,391.9531,670,395.9531,666,391.9531" style="stroke:#181818;stroke-width:1.0;"/><line style="stroke:#181818;stroke-width:1.0;stroke-dasharray:2.0,2.0;" x1="664" x2="766" y1="391.9531" y2="391.9531"/><text fill="#000000" font-family="sans-serif" font-size="13" lengthAdjust="spacing" textLength="53" x="676" y="387.0967">response</text><polygon fill="#181818" points="257.5,418.3047,247.5,422.3047,257.5,426.3047,253.5,422.3047" style="stroke:#181818;stroke-width:1.0;"/><line style="stroke:#181818;stroke-width:1.0;stroke-dasharray:2.0,2.0;" x1="251.5" x2="653" y1="422.3047" y2="422.3047"/><text fill="#000000" font-family="sans-serif" font-size="13" lengthAdjust="spacing" textLength="53" x="263.5" y="417.4482">response</text><path d="M10,437.3047 L71,437.3047 L71,445.6563 L61,455.6563 L10,455.6563 L10,437.3047 " fill="#EEEEEE" style="stroke:#000000;stroke-width:1.5;"/><rect fill="none" height="65.0547" style="stroke:#000000;stroke-width:1.5;" width="293" x="10" y="437.3047"/><text fill="#000000" font-family="sans-serif" font-size="13" font-weight="bold" lengthAdjust="spacing" textLength="16" x="25" y="451.7998">alt</text><text fill="#000000" font-family="sans-serif" font-size="11" font-weight="bold" lengthAdjust="spacing" textLength="116" x="86" y="450.7236">[edits sensitive data]</text><polygon fill="#181818" points="87.5,490.3594,77.5,494.3594,87.5,498.3594,83.5,494.3594" style="stroke:#181818;stroke-width:1.0;"/><line style="stroke:#181818;stroke-width:1.0;stroke-dasharray:2.0,2.0;" x1="81.5" x2="235.5" y1="494.3594" y2="494.3594"/><text fill="#000000" font-family="sans-serif" font-size="13" lengthAdjust="spacing" textLength="136" x="93.5" y="473.1514">message to confirm the</text><text fill="#000000" font-family="sans-serif" font-size="13" lengthAdjust="spacing" textLength="115" x="93.5" y="489.5029">edition/fail message</text><polygon fill="#181818" points="87.5,527.7109,77.5,531.7109,87.5,535.7109,83.5,531.7109" style="stroke:#181818;stroke-width:1.0;"/><line style="stroke:#181818;stroke-width:1.0;stroke-dasharray:2.0,2.0;" x1="81.5" x2="240.5" y1="531.7109" y2="531.7109"/><text fill="#000000" font-family="sans-serif" font-size="13" lengthAdjust="spacing" textLength="126" x="93.5" y="526.8545">success/fail message</text><!--SRC=[XP9DJyCm38Rl-HK-mWJgXLE59h4FYGlI92PEkvZM6v5QfuhJylTniemKfC6f-NWV-_MR3kY3RUo07E3DqYUWdB-FZslN3uw9mt9fXfdi-pngo-OwyE9QwgBulBWkV2K_sOQYzBAyBdxUxtSRRoVoKJ_R_M449P2N3GQCp6gRj1pGid8twuTR1GmsmKuOAELWKXZtop9e3JA-zpP0-20uEjyNu5jZIYoAfh4NYnfETAQeHzk1PV1kL0ovXJPwqfDKy0UTawY1sjnqm63ZvIZgsd94zCHnCP8PSqbHovI0QjWzxTVFHLskp2n6PLRRh8MR2WTRnOPIvVPIHKEtfSngQpJHZ4tOMPs91B3hvYOF7CUDg01hjFDXxWuinAtbasO2ZUEZpTGviWDhGWqAWJkc4b6fXEXgefIXyHH6hycIQ8H2_-wn2zdDhqApHz2PqczGGqyYU288xc8lliY1and7rJ4-R1OP7UNIJiQcqTCVzry0]--></g></svg>