<?xml version="1.0" encoding="us-ascii" standalone="no"?><svg xmlns="http://www.w3.org/2000/svg" xmlns:xlink="http://www.w3.org/1999/xlink" contentStyleType="text/css" height="986px" preserveAspectRatio="none" style="width:1817px;height:986px;background:#FFFFFF;" version="1.1" viewBox="0 0 1817 986" width="1817px" zoomAndPan="magnify"><defs/><g><rect fill="#FFFFFF" height="857.8203" style="stroke:#181818;stroke-width:1.0;" width="10" x="62" y="65.2188"/><rect fill="#FFFFFF" height="826.4688" style="stroke:#181818;stroke-width:1.0;" width="10" x="278" y="87.5703"/><rect fill="#FFFFFF" height="765.7656" style="stroke:#181818;stroke-width:1.0;" width="10" x="368" y="117.9219"/><rect fill="#FFFFFF" height="644.8438" style="stroke:#181818;stroke-width:1.0;" width="10" x="1040" y="208.4922"/><rect fill="#FFFFFF" height="41.3516" style="stroke:#181818;stroke-width:1.0;" width="10" x="1045" y="307.5469"/><rect fill="#FFFFFF" height="41.3516" style="stroke:#181818;stroke-width:1.0;" width="10" x="1045" y="394.25"/><rect fill="#FFFFFF" height="28" style="stroke:#181818;stroke-width:1.0;" width="10" x="1045" y="627.7109"/><rect fill="#FFFFFF" height="30.3516" style="stroke:#181818;stroke-width:1.0;" width="10" x="1435.5" y="238.8438"/><rect fill="#FFFFFF" height="30.3516" style="stroke:#181818;stroke-width:1.0;" width="10" x="1557.5" y="472.9531"/><rect fill="none" height="152.4063" style="stroke:#000000;stroke-width:1.5;" width="814.5" x="997" y="518.3047"/><rect fill="none" height="79.0547" style="stroke:#000000;stroke-width:1.5;" width="726.5" x="997" y="684.7109"/><line style="stroke:#181818;stroke-width:0.5;stroke-dasharray:5.0,5.0;" x1="67" x2="67" y1="55.2188" y2="932.0391"/><line style="stroke:#181818;stroke-width:0.5;stroke-dasharray:5.0,5.0;" x1="283" x2="283" y1="55.2188" y2="932.0391"/><line style="stroke:#181818;stroke-width:0.5;stroke-dasharray:5.0,5.0;" x1="373" x2="373" y1="55.2188" y2="932.0391"/><line style="stroke:#181818;stroke-width:0.5;stroke-dasharray:5.0,5.0;" x1="582" x2="582" y1="166.0313" y2="932.0391"/><line style="stroke:#181818;stroke-width:0.5;stroke-dasharray:5.0,5.0;" x1="684" x2="684" y1="810.875" y2="932.0391"/><line style="stroke:#181818;stroke-width:0.5;stroke-dasharray:5.0,5.0;" x1="1045" x2="1045" y1="55.2188" y2="932.0391"/><line style="stroke:#181818;stroke-width:0.5;stroke-dasharray:5.0,5.0;" x1="1333.5" x2="1333.5" y1="55.2188" y2="932.0391"/><line style="stroke:#181818;stroke-width:0.5;stroke-dasharray:5.0,5.0;" x1="1440.5" x2="1440.5" y1="55.2188" y2="932.0391"/><line style="stroke:#181818;stroke-width:0.5;stroke-dasharray:5.0,5.0;" x1="1562.5" x2="1562.5" y1="55.2188" y2="932.0391"/><line style="stroke:#181818;stroke-width:0.5;stroke-dasharray:5.0,5.0;" x1="1674.5" x2="1674.5" y1="55.2188" y2="932.0391"/><line style="stroke:#181818;stroke-width:0.5;stroke-dasharray:5.0,5.0;" x1="1762.5" x2="1762.5" y1="55.2188" y2="932.0391"/><rect fill="#E2E2F0" height="49.2188" rx="2.5" ry="2.5" style="stroke:#181818;stroke-width:0.5;" width="124" x="5" y="5"/><text fill="#000000" font-family="sans-serif" font-size="14" font-style="italic" lengthAdjust="spacing" textLength="110" x="12" y="26.5332">&#171;Container (C4)&#187;</text><text fill="#000000" font-family="sans-serif" font-size="14" lengthAdjust="spacing" textLength="27" x="53.5" y="44.1426">SPA</text><rect fill="#E2E2F0" height="49.2188" rx="2.5" ry="2.5" style="stroke:#181818;stroke-width:0.5;" width="124" x="5" y="931.0391"/><text fill="#000000" font-family="sans-serif" font-size="14" font-style="italic" lengthAdjust="spacing" textLength="110" x="12" y="952.5723">&#171;Container (C4)&#187;</text><text fill="#000000" font-family="sans-serif" font-size="14" lengthAdjust="spacing" textLength="27" x="53.5" y="970.1816">SPA</text><rect fill="#E2E2F0" height="49.2188" rx="2.5" ry="2.5" style="stroke:#181818;stroke-width:0.5;" width="68" x="249" y="5"/><text fill="#000000" font-family="sans-serif" font-size="14" font-style="italic" lengthAdjust="spacing" textLength="54" x="256" y="26.5332">&#171;Route&#187;</text><text fill="#000000" font-family="sans-serif" font-size="14" lengthAdjust="spacing" textLength="38" x="264" y="44.1426">Route</text><rect fill="#E2E2F0" height="49.2188" rx="2.5" ry="2.5" style="stroke:#181818;stroke-width:0.5;" width="68" x="249" y="931.0391"/><text fill="#000000" font-family="sans-serif" font-size="14" font-style="italic" lengthAdjust="spacing" textLength="54" x="256" y="952.5723">&#171;Route&#187;</text><text fill="#000000" font-family="sans-serif" font-size="14" lengthAdjust="spacing" textLength="38" x="264" y="970.1816">Route</text><rect fill="#E2E2F0" height="49.2188" rx="2.5" ry="2.5" style="stroke:#181818;stroke-width:0.5;" width="92" x="327" y="5"/><text fill="#000000" font-family="sans-serif" font-size="14" font-style="italic" lengthAdjust="spacing" textLength="78" x="334" y="26.5332">&#171;Controller&#187;</text><text fill="#000000" font-family="sans-serif" font-size="14" lengthAdjust="spacing" textLength="62" x="342" y="44.1426">Controller</text><rect fill="#E2E2F0" height="49.2188" rx="2.5" ry="2.5" style="stroke:#181818;stroke-width:0.5;" width="92" x="327" y="931.0391"/><text fill="#000000" font-family="sans-serif" font-size="14" font-style="italic" lengthAdjust="spacing" textLength="78" x="334" y="952.5723">&#171;Controller&#187;</text><text fill="#000000" font-family="sans-serif" font-size="14" lengthAdjust="spacing" textLength="62" x="342" y="970.1816">Controller</text><rect fill="#E2E2F0" height="49.2188" rx="2.5" ry="2.5" style="stroke:#181818;stroke-width:0.5;" width="60" x="552" y="931.0391"/><text fill="#000000" font-family="sans-serif" font-size="14" font-style="italic" lengthAdjust="spacing" textLength="46" x="559" y="952.5723">&#171;DTO&#187;</text><text fill="#000000" font-family="sans-serif" font-size="14" lengthAdjust="spacing" textLength="30" x="567" y="970.1816">DTO</text><rect fill="#E2E2F0" height="49.2188" rx="2.5" ry="2.5" style="stroke:#181818;stroke-width:0.5;" width="124" x="622" y="931.0391"/><text fill="#000000" font-family="sans-serif" font-size="14" font-style="italic" lengthAdjust="spacing" textLength="46" x="661" y="952.5723">&#171;DTO&#187;</text><text fill="#000000" font-family="sans-serif" font-size="14" lengthAdjust="spacing" textLength="110" x="629" y="970.1816">ConfirmationDTO</text><rect fill="#E2E2F0" height="49.2188" rx="2.5" ry="2.5" style="stroke:#181818;stroke-width:0.5;" width="76" x="1007" y="5"/><text fill="#000000" font-family="sans-serif" font-size="14" font-style="italic" lengthAdjust="spacing" textLength="62" x="1014" y="26.5332">&#171;Service&#187;</text><text fill="#000000" font-family="sans-serif" font-size="14" lengthAdjust="spacing" textLength="47" x="1021.5" y="44.1426">Service</text><rect fill="#E2E2F0" height="49.2188" rx="2.5" ry="2.5" style="stroke:#181818;stroke-width:0.5;" width="76" x="1007" y="931.0391"/><text fill="#000000" font-family="sans-serif" font-size="14" font-style="italic" lengthAdjust="spacing" textLength="62" x="1014" y="952.5723">&#171;Service&#187;</text><text fill="#000000" font-family="sans-serif" font-size="14" lengthAdjust="spacing" textLength="47" x="1021.5" y="970.1816">Service</text><rect fill="#E2E2F0" height="49.2188" rx="2.5" ry="2.5" style="stroke:#181818;stroke-width:0.5;" width="95" x="1286.5" y="5"/><text fill="#000000" font-family="sans-serif" font-size="14" font-style="italic" lengthAdjust="spacing" textLength="62" x="1303" y="26.5332">&#171;Service&#187;</text><text fill="#000000" font-family="sans-serif" font-size="14" lengthAdjust="spacing" textLength="81" x="1293.5" y="44.1426">EmailService</text><rect fill="#E2E2F0" height="49.2188" rx="2.5" ry="2.5" style="stroke:#181818;stroke-width:0.5;" width="95" x="1286.5" y="931.0391"/><text fill="#000000" font-family="sans-serif" font-size="14" font-style="italic" lengthAdjust="spacing" textLength="62" x="1303" y="952.5723">&#171;Service&#187;</text><text fill="#000000" font-family="sans-serif" font-size="14" lengthAdjust="spacing" textLength="81" x="1293.5" y="970.1816">EmailService</text><rect fill="#E2E2F0" height="49.2188" rx="2.5" ry="2.5" style="stroke:#181818;stroke-width:0.5;" width="98" x="1391.5" y="5"/><text fill="#000000" font-family="sans-serif" font-size="14" font-style="italic" lengthAdjust="spacing" textLength="84" x="1398.5" y="26.5332">&#171;Repository&#187;</text><text fill="#000000" font-family="sans-serif" font-size="14" lengthAdjust="spacing" textLength="68" x="1406.5" y="44.1426">Repository</text><rect fill="#E2E2F0" height="49.2188" rx="2.5" ry="2.5" style="stroke:#181818;stroke-width:0.5;" width="98" x="1391.5" y="931.0391"/><text fill="#000000" font-family="sans-serif" font-size="14" font-style="italic" lengthAdjust="spacing" textLength="84" x="1398.5" y="952.5723">&#171;Repository&#187;</text><text fill="#000000" font-family="sans-serif" font-size="14" lengthAdjust="spacing" textLength="68" x="1406.5" y="970.1816">Repository</text><rect fill="#E2E2F0" height="49.2188" rx="2.5" ry="2.5" style="stroke:#181818;stroke-width:0.5;" width="126" x="1499.5" y="5"/><text fill="#000000" font-family="sans-serif" font-size="14" font-style="italic" lengthAdjust="spacing" textLength="84" x="1520.5" y="26.5332">&#171;Repository&#187;</text><text fill="#000000" font-family="sans-serif" font-size="14" lengthAdjust="spacing" textLength="112" x="1506.5" y="44.1426">PatientRepository</text><rect fill="#E2E2F0" height="49.2188" rx="2.5" ry="2.5" style="stroke:#181818;stroke-width:0.5;" width="126" x="1499.5" y="931.0391"/><text fill="#000000" font-family="sans-serif" font-size="14" font-style="italic" lengthAdjust="spacing" textLength="84" x="1520.5" y="952.5723">&#171;Repository&#187;</text><text fill="#000000" font-family="sans-serif" font-size="14" lengthAdjust="spacing" textLength="112" x="1506.5" y="970.1816">PatientRepository</text><rect fill="#E2E2F0" height="49.2188" rx="2.5" ry="2.5" style="stroke:#181818;stroke-width:0.5;" width="78" x="1635.5" y="5"/><text fill="#000000" font-family="sans-serif" font-size="14" font-style="italic" lengthAdjust="spacing" textLength="64" x="1642.5" y="26.5332">&#171;Domain&#187;</text><text fill="#000000" font-family="sans-serif" font-size="14" lengthAdjust="spacing" textLength="48" x="1650.5" y="44.1426">Domain</text><rect fill="#E2E2F0" height="49.2188" rx="2.5" ry="2.5" style="stroke:#181818;stroke-width:0.5;" width="78" x="1635.5" y="931.0391"/><text fill="#000000" font-family="sans-serif" font-size="14" font-style="italic" lengthAdjust="spacing" textLength="64" x="1642.5" y="952.5723">&#171;Domain&#187;</text><text fill="#000000" font-family="sans-serif" font-size="14" lengthAdjust="spacing" textLength="48" x="1650.5" y="970.1816">Domain</text><rect fill="#E2E2F0" height="49.2188" rx="2.5" ry="2.5" style="stroke:#181818;stroke-width:0.5;" width="78" x="1723.5" y="5"/><text fill="#000000" font-family="sans-serif" font-size="14" font-style="italic" lengthAdjust="spacing" textLength="64" x="1730.5" y="26.5332">&#171;Domain&#187;</text><text fill="#000000" font-family="sans-serif" font-size="14" lengthAdjust="spacing" textLength="44" x="1740.5" y="44.1426">Patient</text><rect fill="#E2E2F0" height="49.2188" rx="2.5" ry="2.5" style="stroke:#181818;stroke-width:0.5;" width="78" x="1723.5" y="931.0391"/><text fill="#000000" font-family="sans-serif" font-size="14" font-style="italic" lengthAdjust="spacing" textLength="64" x="1730.5" y="952.5723">&#171;Domain&#187;</text><text fill="#000000" font-family="sans-serif" font-size="14" lengthAdjust="spacing" textLength="44" x="1740.5" y="970.1816">Patient</text><rect fill="#FFFFFF" height="857.8203" style="stroke:#181818;stroke-width:1.0;" width="10" x="62" y="65.2188"/><rect fill="#FFFFFF" height="826.4688" style="stroke:#181818;stroke-width:1.0;" width="10" x="278" y="87.5703"/><rect fill="#FFFFFF" height="765.7656" style="stroke:#181818;stroke-width:1.0;" width="10" x="368" y="117.9219"/><rect fill="#FFFFFF" height="644.8438" style="stroke:#181818;stroke-width:1.0;" width="10" x="1040" y="208.4922"/><rect fill="#FFFFFF" height="41.3516" style="stroke:#181818;stroke-width:1.0;" width="10" x="1045" y="307.5469"/><rect fill="#FFFFFF" height="41.3516" style="stroke:#181818;stroke-width:1.0;" width="10" x="1045" y="394.25"/><rect fill="#FFFFFF" height="28" style="stroke:#181818;stroke-width:1.0;" width="10" x="1045" y="627.7109"/><rect fill="#FFFFFF" height="30.3516" style="stroke:#181818;stroke-width:1.0;" width="10" x="1435.5" y="238.8438"/><rect fill="#FFFFFF" height="30.3516" style="stroke:#181818;stroke-width:1.0;" width="10" x="1557.5" y="472.9531"/><polygon fill="#181818" points="266,83.5703,276,87.5703,266,91.5703,270,87.5703" style="stroke:#181818;stroke-width:1.0;"/><line style="stroke:#181818;stroke-width:1.0;" x1="72" x2="272" y1="87.5703" y2="87.5703"/><text fill="#000000" font-family="sans-serif" font-size="13" lengthAdjust="spacing" textLength="187" x="79" y="82.7139">PATCH (/api/users/patients/edit)</text><polygon fill="#181818" points="356,113.9219,366,117.9219,356,121.9219,360,117.9219" style="stroke:#181818;stroke-width:1.0;"/><line style="stroke:#181818;stroke-width:1.0;" x1="288" x2="362" y1="117.9219" y2="117.9219"/><text fill="#000000" font-family="sans-serif" font-size="13" lengthAdjust="spacing" textLength="43" x="295" y="113.0654">PATCH</text><polygon fill="#181818" points="540,144.2734,550,148.2734,540,152.2734,544,148.2734" style="stroke:#181818;stroke-width:1.0;"/><line style="stroke:#181818;stroke-width:1.0;" x1="378" x2="546" y1="148.2734" y2="148.2734"/><text fill="#000000" font-family="sans-serif" font-size="13" lengthAdjust="spacing" textLength="150" x="385" y="143.417">recieves request body info</text><rect fill="#E2E2F0" height="49.2188" rx="2.5" ry="2.5" style="stroke:#181818;stroke-width:0.5;" width="60" x="552" y="125.9219"/><text fill="#000000" font-family="sans-serif" font-size="14" font-style="italic" lengthAdjust="spacing" textLength="46" x="559" y="147.4551">&#171;DTO&#187;</text><text fill="#000000" font-family="sans-serif" font-size="14" lengthAdjust="spacing" textLength="30" x="567" y="165.0645">DTO</text><polygon fill="#181818" points="1028,204.4922,1038,208.4922,1028,212.4922,1032,208.4922" style="stroke:#181818;stroke-width:1.0;"/><line style="stroke:#181818;stroke-width:1.0;" x1="378" x2="1034" y1="208.4922" y2="208.4922"/><text fill="#000000" font-family="sans-serif" font-size="13" lengthAdjust="spacing" textLength="131" x="385" y="203.6357">edits the patient profile</text><polygon fill="#181818" points="1423.5,234.8438,1433.5,238.8438,1423.5,242.8438,1427.5,238.8438" style="stroke:#181818;stroke-width:1.0;"/><line style="stroke:#181818;stroke-width:1.0;" x1="1050" x2="1429.5" y1="238.8438" y2="238.8438"/><text fill="#000000" font-family="sans-serif" font-size="13" lengthAdjust="spacing" textLength="109" x="1057" y="233.9873">finds user by email</text><polygon fill="#181818" points="1061,265.1953,1051,269.1953,1061,273.1953,1057,269.1953" style="stroke:#181818;stroke-width:1.0;"/><line style="stroke:#181818;stroke-width:1.0;stroke-dasharray:2.0,2.0;" x1="1055" x2="1439.5" y1="269.1953" y2="269.1953"/><text fill="#000000" font-family="sans-serif" font-size="13" lengthAdjust="spacing" textLength="25" x="1067" y="264.3389">user</text><line style="stroke:#181818;stroke-width:1.0;" x1="1050" x2="1097" y1="294.5469" y2="294.5469"/><line style="stroke:#181818;stroke-width:1.0;" x1="1097" x2="1097" y1="294.5469" y2="307.5469"/><line style="stroke:#181818;stroke-width:1.0;" x1="1056" x2="1097" y1="307.5469" y2="307.5469"/><polygon fill="#181818" points="1066,303.5469,1056,307.5469,1066,311.5469,1062,307.5469" style="stroke:#181818;stroke-width:1.0;"/><text fill="#000000" font-family="sans-serif" font-size="13" lengthAdjust="spacing" textLength="265" x="1062" y="289.6904">validate if the new email is unique if not empty</text><line style="stroke:#181818;stroke-width:1.0;stroke-dasharray:2.0,2.0;" x1="1055" x2="1097" y1="347.8984" y2="347.8984"/><line style="stroke:#181818;stroke-width:1.0;stroke-dasharray:2.0,2.0;" x1="1097" x2="1097" y1="347.8984" y2="360.8984"/><line style="stroke:#181818;stroke-width:1.0;stroke-dasharray:2.0,2.0;" x1="1050" x2="1097" y1="360.8984" y2="360.8984"/><polygon fill="#181818" points="1060,356.8984,1050,360.8984,1060,364.8984,1056,360.8984" style="stroke:#181818;stroke-width:1.0;"/><text fill="#000000" font-family="sans-serif" font-size="13" lengthAdjust="spacing" textLength="20" x="1062" y="343.042">flag</text><line style="stroke:#181818;stroke-width:1.0;" x1="1050" x2="1097" y1="381.25" y2="381.25"/><line style="stroke:#181818;stroke-width:1.0;" x1="1097" x2="1097" y1="381.25" y2="394.25"/><line style="stroke:#181818;stroke-width:1.0;" x1="1056" x2="1097" y1="394.25" y2="394.25"/><polygon fill="#181818" points="1066,390.25,1056,394.25,1066,398.25,1062,394.25" style="stroke:#181818;stroke-width:1.0;"/><text fill="#000000" font-family="sans-serif" font-size="13" lengthAdjust="spacing" textLength="265" x="1062" y="376.3936">validate if the new email is unique if not empty</text><line style="stroke:#181818;stroke-width:1.0;stroke-dasharray:2.0,2.0;" x1="1055" x2="1097" y1="434.6016" y2="434.6016"/><line style="stroke:#181818;stroke-width:1.0;stroke-dasharray:2.0,2.0;" x1="1097" x2="1097" y1="434.6016" y2="447.6016"/><line style="stroke:#181818;stroke-width:1.0;stroke-dasharray:2.0,2.0;" x1="1050" x2="1097" y1="447.6016" y2="447.6016"/><polygon fill="#181818" points="1060,443.6016,1050,447.6016,1060,451.6016,1056,447.6016" style="stroke:#181818;stroke-width:1.0;"/><text fill="#000000" font-family="sans-serif" font-size="13" lengthAdjust="spacing" textLength="20" x="1062" y="429.7451">flag</text><polygon fill="#181818" points="1545.5,468.9531,1555.5,472.9531,1545.5,476.9531,1549.5,472.9531" style="stroke:#181818;stroke-width:1.0;"/><line style="stroke:#181818;stroke-width:1.0;" x1="1050" x2="1551.5" y1="472.9531" y2="472.9531"/><text fill="#000000" font-family="sans-serif" font-size="13" lengthAdjust="spacing" textLength="116" x="1057" y="468.0967">find patient by email</text><polygon fill="#181818" points="1061,499.3047,1051,503.3047,1061,507.3047,1057,503.3047" style="stroke:#181818;stroke-width:1.0;"/><line style="stroke:#181818;stroke-width:1.0;stroke-dasharray:2.0,2.0;" x1="1055" x2="1561.5" y1="503.3047" y2="503.3047"/><text fill="#000000" font-family="sans-serif" font-size="13" lengthAdjust="spacing" textLength="39" x="1067" y="498.4482">patient</text><path d="M997,518.3047 L1058,518.3047 L1058,526.6563 L1048,536.6563 L997,536.6563 L997,518.3047 " fill="#EEEEEE" style="stroke:#000000;stroke-width:1.5;"/><rect fill="none" height="152.4063" style="stroke:#000000;stroke-width:1.5;" width="814.5" x="997" y="518.3047"/><text fill="#000000" font-family="sans-serif" font-size="13" font-weight="bold" lengthAdjust="spacing" textLength="16" x="1012" y="532.7998">alt</text><text fill="#000000" font-family="sans-serif" font-size="11" font-weight="bold" lengthAdjust="spacing" textLength="207" x="1073" y="531.7236">[full name to edit is not null or empty]</text><polygon fill="#181818" points="1750.5,555.0078,1760.5,559.0078,1750.5,563.0078,1754.5,559.0078" style="stroke:#181818;stroke-width:1.0;"/><line style="stroke:#181818;stroke-width:1.0;" x1="1050" x2="1756.5" y1="559.0078" y2="559.0078"/><text fill="#000000" font-family="sans-serif" font-size="13" lengthAdjust="spacing" textLength="120" x="1057" y="554.1514">change the full name</text><polygon fill="#181818" points="1550.5,585.3594,1560.5,589.3594,1550.5,593.3594,1554.5,589.3594" style="stroke:#181818;stroke-width:1.0;"/><line style="stroke:#181818;stroke-width:1.0;" x1="1050" x2="1556.5" y1="589.3594" y2="589.3594"/><text fill="#000000" font-family="sans-serif" font-size="13" lengthAdjust="spacing" textLength="69" x="1057" y="584.5029">saves in DB</text><line style="stroke:#181818;stroke-width:1.0;" x1="1055" x2="1097" y1="619.7109" y2="619.7109"/><line style="stroke:#181818;stroke-width:1.0;" x1="1097" x2="1097" y1="619.7109" y2="632.7109"/><line style="stroke:#181818;stroke-width:1.0;" x1="1056" x2="1097" y1="632.7109" y2="632.7109"/><polygon fill="#181818" points="1066,628.7109,1056,632.7109,1066,636.7109,1062,632.7109" style="stroke:#181818;stroke-width:1.0;"/><text fill="#000000" font-family="sans-serif" font-size="13" lengthAdjust="spacing" textLength="77" x="1062" y="614.8545">logs changes</text><path d="M997,684.7109 L1058,684.7109 L1058,693.0625 L1048,703.0625 L997,703.0625 L997,684.7109 " fill="#EEEEEE" style="stroke:#000000;stroke-width:1.5;"/><rect fill="none" height="79.0547" style="stroke:#000000;stroke-width:1.5;" width="726.5" x="997" y="684.7109"/><text fill="#000000" font-family="sans-serif" font-size="13" font-weight="bold" lengthAdjust="spacing" textLength="16" x="1012" y="699.2061">alt</text><text fill="#000000" font-family="sans-serif" font-size="11" font-weight="bold" lengthAdjust="spacing" textLength="202" x="1073" y="698.1299">[information contains sensitive data]</text><polygon fill="#181818" points="1662.5,721.4141,1672.5,725.4141,1662.5,729.4141,1666.5,725.4141" style="stroke:#181818;stroke-width:1.0;"/><line style="stroke:#181818;stroke-width:1.0;" x1="1050" x2="1668.5" y1="725.4141" y2="725.4141"/><text fill="#000000" font-family="sans-serif" font-size="13" lengthAdjust="spacing" textLength="135" x="1057" y="720.5576">sets confirmation token</text><polygon fill="#181818" points="1322,751.7656,1332,755.7656,1322,759.7656,1326,755.7656" style="stroke:#181818;stroke-width:1.0;"/><line style="stroke:#181818;stroke-width:1.0;" x1="1050" x2="1328" y1="755.7656" y2="755.7656"/><text fill="#000000" font-family="sans-serif" font-size="13" lengthAdjust="spacing" textLength="229" x="1057" y="750.9092">sends email with the confirmation token</text><polygon fill="#181818" points="757,789.1172,747,793.1172,757,797.1172,753,793.1172" style="stroke:#181818;stroke-width:1.0;"/><line style="stroke:#181818;stroke-width:1.0;" x1="751" x2="1039" y1="793.1172" y2="793.1172"/><text fill="#000000" font-family="sans-serif" font-size="13" lengthAdjust="spacing" textLength="270" x="763" y="788.2607">creates DTO with confirmation token and email</text><rect fill="#E2E2F0" height="49.2188" rx="2.5" ry="2.5" style="stroke:#181818;stroke-width:0.5;" width="124" x="622" y="770.7656"/><text fill="#000000" font-family="sans-serif" font-size="14" font-style="italic" lengthAdjust="spacing" textLength="46" x="661" y="792.2988">&#171;DTO&#187;</text><text fill="#000000" font-family="sans-serif" font-size="14" lengthAdjust="spacing" textLength="110" x="629" y="809.9082">ConfirmationDTO</text><polygon fill="#181818" points="389,849.3359,379,853.3359,389,857.3359,385,853.3359" style="stroke:#181818;stroke-width:1.0;"/><line style="stroke:#181818;stroke-width:1.0;stroke-dasharray:2.0,2.0;" x1="383" x2="1044" y1="853.3359" y2="853.3359"/><text fill="#000000" font-family="sans-serif" font-size="13" lengthAdjust="spacing" textLength="26" x="395" y="848.4795">DTO</text><polygon fill="#181818" points="299,879.6875,289,883.6875,299,887.6875,295,883.6875" style="stroke:#181818;stroke-width:1.0;"/><line style="stroke:#181818;stroke-width:1.0;stroke-dasharray:2.0,2.0;" x1="293" x2="372" y1="883.6875" y2="883.6875"/><text fill="#000000" font-family="sans-serif" font-size="13" lengthAdjust="spacing" textLength="53" x="305" y="878.8311">response</text><polygon fill="#181818" points="83,910.0391,73,914.0391,83,918.0391,79,914.0391" style="stroke:#181818;stroke-width:1.0;"/><line style="stroke:#181818;stroke-width:1.0;stroke-dasharray:2.0,2.0;" x1="77" x2="282" y1="914.0391" y2="914.0391"/><text fill="#000000" font-family="sans-serif" font-size="13" lengthAdjust="spacing" textLength="53" x="89" y="909.1826">response</text><!--SRC=[lLJBRjim4BphA_QO12XywSaG3AHsWTvg9Fa1HbhPYz2aIb8A_FTTFcJHefFSSf58QcOukqEn5yPHGxrG3fxtZo1iUDNrLYidIA61k-tF-yscwZFaanuSUcmSr7LuBq1UmMWfMOAHsIoAnyc2itlvwy7-LTVyB2KxCYVXIAi4NIxTeZsZ6Qa9XgTXNQVH0lhx94Xc-AlvHwGdxBKbfyqvz6IUSMCkamLdpuvHkMjgkVY9mawpDnNQ5KTSUXZStYdJpv6LQ1oDWbFat2kV_OzDZ7KD-yUNxH-uMucULeD5OrTz5B0hRCdTpzn0gE9fO7uMzgGoO-UFLOPZ5WVtyC04WmtXY9O7_mQq3bvrUmPIdLuGfbpMuErOS4U4v11wepkIc9KNmTL4ycNEVLv3HwgruCk4rpEWppshxuAi3Bh1g03CjMOlev3KUX9rmP72zoW7nFgAk2R_IMd7oxqxbnRJ5fqKXs_UeZo0iJ6NjfQjAIYJTg9KGZhe1Yb1YHE2qo4iRzJRK_w3DibcwOJtRuv27J3KUP7vohCL_lpmFx7xTRk3KXziKhPbTreibb2reH9_3DDr0qsy8orOLBmrZGYSYiXtJBycEq8-e4rsMN4dtb3bsAkxnZFyWOonlfCxXWxSKF3ECfN5XHZ-gCOWrnBlrI1Loe3Wb6EqAJy6JqE3jjVAudB-7m00]--></g></svg>