<?xml version="1.0" encoding="us-ascii" standalone="no"?><svg xmlns="http://www.w3.org/2000/svg" xmlns:xlink="http://www.w3.org/1999/xlink" contentStyleType="text/css" height="418px" preserveAspectRatio="none" style="width:632px;height:418px;background:#FFFFFF;" version="1.1" viewBox="0 0 632 418" width="632px" zoomAndPan="magnify"><defs/><g><rect fill="#FFFFFF" height="112.4063" style="stroke:#181818;stroke-width:1.0;" width="10" x="77" y="65.2188"/><rect fill="#FFFFFF" height="106.4063" style="stroke:#181818;stroke-width:1.0;" width="10" x="77" y="233.3281"/><rect fill="#FFFFFF" height="90.0547" style="stroke:#181818;stroke-width:1.0;" width="10" x="399" y="87.5703"/><rect fill="#FFFFFF" height="106.4063" style="stroke:#181818;stroke-width:1.0;" width="10" x="399" y="233.3281"/><rect fill="none" height="155.1094" style="stroke:#000000;stroke-width:1.5;" width="553" x="10" y="192.625"/><line style="stroke:#181818;stroke-width:0.5;stroke-dasharray:5.0,5.0;" x1="82" x2="82" y1="55.2188" y2="364.7344"/><line style="stroke:#181818;stroke-width:0.5;stroke-dasharray:5.0,5.0;" x1="404" x2="404" y1="55.2188" y2="364.7344"/><rect fill="#E2E2F0" height="49.2188" rx="2.5" ry="2.5" style="stroke:#181818;stroke-width:0.5;" width="124" x="20" y="5"/><text fill="#000000" font-family="sans-serif" font-size="14" font-style="italic" lengthAdjust="spacing" textLength="110" x="27" y="26.5332">&#171;Container (C4)&#187;</text><text fill="#000000" font-family="sans-serif" font-size="14" lengthAdjust="spacing" textLength="27" x="68.5" y="44.1426">SPA</text><rect fill="#E2E2F0" height="49.2188" rx="2.5" ry="2.5" style="stroke:#181818;stroke-width:0.5;" width="124" x="20" y="363.7344"/><text fill="#000000" font-family="sans-serif" font-size="14" font-style="italic" lengthAdjust="spacing" textLength="110" x="27" y="385.2676">&#171;Container (C4)&#187;</text><text fill="#000000" font-family="sans-serif" font-size="14" lengthAdjust="spacing" textLength="27" x="68.5" y="402.877">SPA</text><rect fill="#E2E2F0" height="49.2188" rx="2.5" ry="2.5" style="stroke:#181818;stroke-width:0.5;" width="124" x="342" y="5"/><text fill="#000000" font-family="sans-serif" font-size="14" font-style="italic" lengthAdjust="spacing" textLength="110" x="349" y="26.5332">&#171;Container (C4)&#187;</text><text fill="#000000" font-family="sans-serif" font-size="14" lengthAdjust="spacing" textLength="80" x="364" y="44.1426">MastersData</text><rect fill="#E2E2F0" height="49.2188" rx="2.5" ry="2.5" style="stroke:#181818;stroke-width:0.5;" width="124" x="342" y="363.7344"/><text fill="#000000" font-family="sans-serif" font-size="14" font-style="italic" lengthAdjust="spacing" textLength="110" x="349" y="385.2676">&#171;Container (C4)&#187;</text><text fill="#000000" font-family="sans-serif" font-size="14" lengthAdjust="spacing" textLength="80" x="364" y="402.877">MastersData</text><rect fill="#FFFFFF" height="112.4063" style="stroke:#181818;stroke-width:1.0;" width="10" x="77" y="65.2188"/><rect fill="#FFFFFF" height="106.4063" style="stroke:#181818;stroke-width:1.0;" width="10" x="77" y="233.3281"/><rect fill="#FFFFFF" height="90.0547" style="stroke:#181818;stroke-width:1.0;" width="10" x="399" y="87.5703"/><rect fill="#FFFFFF" height="106.4063" style="stroke:#181818;stroke-width:1.0;" width="10" x="399" y="233.3281"/><polygon fill="#181818" points="387,83.5703,397,87.5703,387,91.5703,391,87.5703" style="stroke:#181818;stroke-width:1.0;"/><line style="stroke:#181818;stroke-width:1.0;" x1="87" x2="393" y1="87.5703" y2="87.5703"/><text fill="#000000" font-family="sans-serif" font-size="13" lengthAdjust="spacing" textLength="180" x="94" y="82.7139">PATCH (/api/user/patients/edit)</text><line style="stroke:#181818;stroke-width:1.0;" x1="409" x2="451" y1="134.2734" y2="134.2734"/><line style="stroke:#181818;stroke-width:1.0;" x1="451" x2="451" y1="134.2734" y2="147.2734"/><line style="stroke:#181818;stroke-width:1.0;" x1="410" x2="451" y1="147.2734" y2="147.2734"/><polygon fill="#181818" points="420,143.2734,410,147.2734,420,151.2734,416,147.2734" style="stroke:#181818;stroke-width:1.0;"/><text fill="#000000" font-family="sans-serif" font-size="13" lengthAdjust="spacing" textLength="205" x="416" y="113.0654">receive request body info, validates,</text><text fill="#000000" font-family="sans-serif" font-size="13" lengthAdjust="spacing" textLength="81" x="416" y="129.417">edits user info</text><polygon fill="#181818" points="93,173.625,83,177.625,93,181.625,89,177.625" style="stroke:#181818;stroke-width:1.0;"/><line style="stroke:#181818;stroke-width:1.0;stroke-dasharray:2.0,2.0;" x1="87" x2="403" y1="177.625" y2="177.625"/><text fill="#000000" font-family="sans-serif" font-size="13" lengthAdjust="spacing" textLength="53" x="99" y="172.7686">response</text><path d="M10,192.625 L71,192.625 L71,200.9766 L61,210.9766 L10,210.9766 L10,192.625 " fill="#EEEEEE" style="stroke:#000000;stroke-width:1.5;"/><rect fill="none" height="155.1094" style="stroke:#000000;stroke-width:1.5;" width="553" x="10" y="192.625"/><text fill="#000000" font-family="sans-serif" font-size="13" font-weight="bold" lengthAdjust="spacing" textLength="16" x="25" y="207.1201">alt</text><text fill="#000000" font-family="sans-serif" font-size="11" font-weight="bold" lengthAdjust="spacing" textLength="202" x="86" y="206.0439">[information contains sensitive data]</text><polygon fill="#181818" points="387,229.3281,397,233.3281,387,237.3281,391,233.3281" style="stroke:#181818;stroke-width:1.0;"/><line style="stroke:#181818;stroke-width:1.0;" x1="87" x2="393" y1="233.3281" y2="233.3281"/><text fill="#000000" font-family="sans-serif" font-size="13" lengthAdjust="spacing" textLength="298" x="94" y="228.4717">PATCH (/api/user/patients/edit/confirmation/{token})</text><line style="stroke:#181818;stroke-width:1.0;" x1="409" x2="451" y1="296.3828" y2="296.3828"/><line style="stroke:#181818;stroke-width:1.0;" x1="451" x2="451" y1="296.3828" y2="309.3828"/><line style="stroke:#181818;stroke-width:1.0;" x1="410" x2="451" y1="309.3828" y2="309.3828"/><polygon fill="#181818" points="420,305.3828,410,309.3828,420,313.3828,416,309.3828" style="stroke:#181818;stroke-width:1.0;"/><text fill="#000000" font-family="sans-serif" font-size="13" lengthAdjust="spacing" textLength="101" x="416" y="258.8232">receive token and</text><text fill="#000000" font-family="sans-serif" font-size="13" lengthAdjust="spacing" textLength="123" x="416" y="275.1748">sensitive data to edit,</text><text fill="#000000" font-family="sans-serif" font-size="13" lengthAdjust="spacing" textLength="135" x="416" y="291.5264">edits sensitive data info</text><polygon fill="#181818" points="93,335.7344,83,339.7344,93,343.7344,89,339.7344" style="stroke:#181818;stroke-width:1.0;"/><line style="stroke:#181818;stroke-width:1.0;stroke-dasharray:2.0,2.0;" x1="87" x2="403" y1="339.7344" y2="339.7344"/><text fill="#000000" font-family="sans-serif" font-size="13" lengthAdjust="spacing" textLength="53" x="99" y="334.8779">response</text><!--SRC=[ZP31IWD138RlynIXfovKvk99oa9thNWH2dhq4dTI2DRCECakYFZkpgxYjj93JtD8lY__FmcpSSS9nM3nkDii01Nkjh1Ujr4CMIZ3ihskwjgbuzK7LAEijsWu8SrPn65dFA1HKRfYlQhBuWtiDa_jFImz9lQzKlO9ZKbCFGMsQgQQhMl-g4mTyK3bVUz93LvY-02MVLp1W0SE1T0LFCleK1YzqzHbiZvBmJH5KNA1ZbFXmQQr_5OoH87kfuE2aYZRUB2OyUBqlWZs_6lpdnPVIRwgauyuLm_cVXC2AA5qEGrHHZ3Uc5l-cr_GboHy0m00]--></g></svg>