<?xml version="1.0" encoding="us-ascii" standalone="no"?><svg xmlns="http://www.w3.org/2000/svg" xmlns:xlink="http://www.w3.org/1999/xlink" contentStyleType="text/css" height="266px" preserveAspectRatio="none" style="width:316px;height:266px;background:#FFFFFF;" version="1.1" viewBox="0 0 316 266" width="316px" zoomAndPan="magnify"><defs/><g><rect fill="#FFFFFF" height="106.4063" style="stroke:#181818;stroke-width:1.0;" width="10" x="145" y="87.5703"/><line style="stroke:#181818;stroke-width:0.5;stroke-dasharray:5.0,5.0;" x1="150" x2="150" y1="55.2188" y2="211.9766"/><rect fill="#E2E2F0" height="49.2188" rx="2.5" ry="2.5" style="stroke:#181818;stroke-width:0.5;" width="92" x="104" y="5"/><text fill="#000000" font-family="sans-serif" font-size="14" font-style="italic" lengthAdjust="spacing" textLength="78" x="111" y="26.5332">&#171;Container&#187;</text><text fill="#000000" font-family="sans-serif" font-size="14" lengthAdjust="spacing" textLength="60" x="120" y="44.1426">Back-end</text><rect fill="#E2E2F0" height="49.2188" rx="2.5" ry="2.5" style="stroke:#181818;stroke-width:0.5;" width="92" x="104" y="210.9766"/><text fill="#000000" font-family="sans-serif" font-size="14" font-style="italic" lengthAdjust="spacing" textLength="78" x="111" y="232.5098">&#171;Container&#187;</text><text fill="#000000" font-family="sans-serif" font-size="14" lengthAdjust="spacing" textLength="60" x="120" y="250.1191">Back-end</text><rect fill="#FFFFFF" height="106.4063" style="stroke:#181818;stroke-width:1.0;" width="10" x="145" y="87.5703"/><ellipse cx="7.5" cy="86.8203" fill="none" rx="4" ry="4" style="stroke:#181818;stroke-width:1.5;"/><polygon fill="#181818" points="133,83.5703,143,87.5703,133,91.5703,137,87.5703" style="stroke:#181818;stroke-width:1.0;"/><line style="stroke:#181818;stroke-width:1.0;" x1="12" x2="139" y1="87.5703" y2="87.5703"/><text fill="#000000" font-family="sans-serif" font-size="13" lengthAdjust="spacing" textLength="118" x="15" y="82.7139">POST (/api/patients)</text><line style="stroke:#181818;stroke-width:1.0;" x1="155" x2="197" y1="150.625" y2="150.625"/><line style="stroke:#181818;stroke-width:1.0;" x1="197" x2="197" y1="150.625" y2="163.625"/><line style="stroke:#181818;stroke-width:1.0;" x1="156" x2="197" y1="163.625" y2="163.625"/><polygon fill="#181818" points="166,159.625,156,163.625,166,167.625,162,163.625" style="stroke:#181818;stroke-width:1.0;"/><text fill="#000000" font-family="sans-serif" font-size="13" lengthAdjust="spacing" textLength="147" x="162" y="113.0654">receive request body info,</text><text fill="#000000" font-family="sans-serif" font-size="13" lengthAdjust="spacing" textLength="124" x="162" y="129.417">creates patient profile</text><text fill="#000000" font-family="sans-serif" font-size="13" lengthAdjust="spacing" textLength="94" x="162" y="145.7686">and saves in DB</text><polygon fill="#181818" points="11,189.9766,1,193.9766,11,197.9766,7,193.9766" style="stroke:#181818;stroke-width:1.0;"/><line style="stroke:#181818;stroke-width:1.0;stroke-dasharray:2.0,2.0;" x1="5" x2="149" y1="193.9766" y2="193.9766"/><text fill="#000000" font-family="sans-serif" font-size="13" lengthAdjust="spacing" textLength="53" x="17" y="189.1201">response</text><!--SRC=[JOsn2W8n44JxVCLobOBXUZckEBLMqCvhrcGF5cKJisl0lpV55LO3CszcCXRZm1d5e9imF3r9x00LfXCCmo698GkLSNJkdlpOx3rSpjSRR7hCt6Sq9Z7TEWp65OqQuLftHGi5uafDtnzIWqUANs1PqcwMKAZn2ki6v98MVj4iA14KQujOu3YvmVjrJ7CI9HVfx-q7]--></g></svg>