<?xml version="1.0" encoding="us-ascii" standalone="no"?><svg xmlns="http://www.w3.org/2000/svg" xmlns:xlink="http://www.w3.org/1999/xlink" contentStyleType="text/css" height="552px" preserveAspectRatio="none" style="width:1131px;height:552px;background:#FFFFFF;" version="1.1" viewBox="0 0 1131 552" width="1131px" zoomAndPan="magnify"><defs/><g><rect fill="#FFFFFF" height="424.4375" style="stroke:#181818;stroke-width:1.0;" width="10" x="51.5" y="65.2188"/><rect fill="#FFFFFF" height="393.0859" style="stroke:#181818;stroke-width:1.0;" width="10" x="211.5" y="87.5703"/><rect fill="#FFFFFF" height="30.3516" style="stroke:#181818;stroke-width:1.0;" width="10" x="530" y="389.6016"/><rect fill="#FFFFFF" height="272.1641" style="stroke:#181818;stroke-width:1.0;" width="10" x="706" y="178.1406"/><rect fill="#FFFFFF" height="150.7578" style="stroke:#181818;stroke-width:1.0;" width="10" x="819" y="208.4922"/><rect fill="#FFFFFF" height="90.0547" style="stroke:#181818;stroke-width:1.0;" width="10" x="959" y="238.8438"/><line style="stroke:#181818;stroke-width:0.5;stroke-dasharray:5.0,5.0;" x1="56" x2="56" y1="55.2188" y2="498.6563"/><line style="stroke:#181818;stroke-width:0.5;stroke-dasharray:5.0,5.0;" x1="216" x2="216" y1="55.2188" y2="498.6563"/><line style="stroke:#181818;stroke-width:0.5;stroke-dasharray:5.0,5.0;" x1="534.5" x2="534.5" y1="135.6797" y2="498.6563"/><line style="stroke:#181818;stroke-width:0.5;stroke-dasharray:5.0,5.0;" x1="710.5" x2="710.5" y1="55.2188" y2="498.6563"/><line style="stroke:#181818;stroke-width:0.5;stroke-dasharray:5.0,5.0;" x1="823.5" x2="823.5" y1="55.2188" y2="498.6563"/><line style="stroke:#181818;stroke-width:0.5;stroke-dasharray:5.0,5.0;" x1="964" x2="964" y1="55.2188" y2="498.6563"/><rect fill="#E2E2F0" height="49.2188" rx="2.5" ry="2.5" style="stroke:#181818;stroke-width:0.5;" width="103" x="5" y="5"/><text fill="#000000" font-family="sans-serif" font-size="14" font-style="italic" lengthAdjust="spacing" textLength="89" x="12" y="26.5332">&#171;Component&#187;</text><text fill="#000000" font-family="sans-serif" font-size="14" lengthAdjust="spacing" textLength="29" x="42" y="44.1426">View</text><rect fill="#E2E2F0" height="49.2188" rx="2.5" ry="2.5" style="stroke:#181818;stroke-width:0.5;" width="103" x="5" y="497.6563"/><text fill="#000000" font-family="sans-serif" font-size="14" font-style="italic" lengthAdjust="spacing" textLength="89" x="12" y="519.1895">&#171;Component&#187;</text><text fill="#000000" font-family="sans-serif" font-size="14" lengthAdjust="spacing" textLength="29" x="42" y="536.7988">View</text><rect fill="#E2E2F0" height="49.2188" rx="2.5" ry="2.5" style="stroke:#181818;stroke-width:0.5;" width="103" x="165" y="5"/><text fill="#000000" font-family="sans-serif" font-size="14" font-style="italic" lengthAdjust="spacing" textLength="89" x="172" y="26.5332">&#171;Component&#187;</text><text fill="#000000" font-family="sans-serif" font-size="14" lengthAdjust="spacing" textLength="73" x="180" y="44.1426">Component</text><rect fill="#E2E2F0" height="49.2188" rx="2.5" ry="2.5" style="stroke:#181818;stroke-width:0.5;" width="103" x="165" y="497.6563"/><text fill="#000000" font-family="sans-serif" font-size="14" font-style="italic" lengthAdjust="spacing" textLength="89" x="172" y="519.1895">&#171;Component&#187;</text><text fill="#000000" font-family="sans-serif" font-size="14" lengthAdjust="spacing" textLength="73" x="180" y="536.7988">Component</text><rect fill="#E2E2F0" height="49.2188" rx="2.5" ry="2.5" style="stroke:#181818;stroke-width:0.5;" width="103" x="483.5" y="497.6563"/><text fill="#000000" font-family="sans-serif" font-size="14" font-style="italic" lengthAdjust="spacing" textLength="89" x="490.5" y="519.1895">&#171;Component&#187;</text><text fill="#000000" font-family="sans-serif" font-size="14" lengthAdjust="spacing" textLength="38" x="516" y="536.7988">Model</text><rect fill="#E2E2F0" height="49.2188" rx="2.5" ry="2.5" style="stroke:#181818;stroke-width:0.5;" width="103" x="659.5" y="5"/><text fill="#000000" font-family="sans-serif" font-size="14" font-style="italic" lengthAdjust="spacing" textLength="89" x="666.5" y="26.5332">&#171;Component&#187;</text><text fill="#000000" font-family="sans-serif" font-size="14" lengthAdjust="spacing" textLength="47" x="687.5" y="44.1426">Service</text><rect fill="#E2E2F0" height="49.2188" rx="2.5" ry="2.5" style="stroke:#181818;stroke-width:0.5;" width="103" x="659.5" y="497.6563"/><text fill="#000000" font-family="sans-serif" font-size="14" font-style="italic" lengthAdjust="spacing" textLength="89" x="666.5" y="519.1895">&#171;Component&#187;</text><text fill="#000000" font-family="sans-serif" font-size="14" lengthAdjust="spacing" textLength="47" x="687.5" y="536.7988">Service</text><rect fill="#E2E2F0" height="49.2188" rx="2.5" ry="2.5" style="stroke:#181818;stroke-width:0.5;" width="103" x="772.5" y="5"/><text fill="#000000" font-family="sans-serif" font-size="14" font-style="italic" lengthAdjust="spacing" textLength="89" x="779.5" y="26.5332">&#171;Component&#187;</text><text fill="#000000" font-family="sans-serif" font-size="14" lengthAdjust="spacing" textLength="74" x="787" y="44.1426">HTTPDriver</text><rect fill="#E2E2F0" height="49.2188" rx="2.5" ry="2.5" style="stroke:#181818;stroke-width:0.5;" width="103" x="772.5" y="497.6563"/><text fill="#000000" font-family="sans-serif" font-size="14" font-style="italic" lengthAdjust="spacing" textLength="89" x="779.5" y="519.1895">&#171;Component&#187;</text><text fill="#000000" font-family="sans-serif" font-size="14" lengthAdjust="spacing" textLength="74" x="787" y="536.7988">HTTPDriver</text><rect fill="#E2E2F0" height="49.2188" rx="2.5" ry="2.5" style="stroke:#181818;stroke-width:0.5;" width="124" x="902" y="5"/><text fill="#000000" font-family="sans-serif" font-size="14" font-style="italic" lengthAdjust="spacing" textLength="110" x="909" y="26.5332">&#171;Container (C4)&#187;</text><text fill="#000000" font-family="sans-serif" font-size="14" lengthAdjust="spacing" textLength="80" x="924" y="44.1426">MastersData</text><rect fill="#E2E2F0" height="49.2188" rx="2.5" ry="2.5" style="stroke:#181818;stroke-width:0.5;" width="124" x="902" y="497.6563"/><text fill="#000000" font-family="sans-serif" font-size="14" font-style="italic" lengthAdjust="spacing" textLength="110" x="909" y="519.1895">&#171;Container (C4)&#187;</text><text fill="#000000" font-family="sans-serif" font-size="14" lengthAdjust="spacing" textLength="80" x="924" y="536.7988">MastersData</text><rect fill="#FFFFFF" height="424.4375" style="stroke:#181818;stroke-width:1.0;" width="10" x="51.5" y="65.2188"/><rect fill="#FFFFFF" height="393.0859" style="stroke:#181818;stroke-width:1.0;" width="10" x="211.5" y="87.5703"/><rect fill="#FFFFFF" height="30.3516" style="stroke:#181818;stroke-width:1.0;" width="10" x="530" y="389.6016"/><rect fill="#FFFFFF" height="272.1641" style="stroke:#181818;stroke-width:1.0;" width="10" x="706" y="178.1406"/><rect fill="#FFFFFF" height="150.7578" style="stroke:#181818;stroke-width:1.0;" width="10" x="819" y="208.4922"/><rect fill="#FFFFFF" height="90.0547" style="stroke:#181818;stroke-width:1.0;" width="10" x="959" y="238.8438"/><polygon fill="#181818" points="199.5,83.5703,209.5,87.5703,199.5,91.5703,203.5,87.5703" style="stroke:#181818;stroke-width:1.0;"/><line style="stroke:#181818;stroke-width:1.0;" x1="61.5" x2="205.5" y1="87.5703" y2="87.5703"/><text fill="#000000" font-family="sans-serif" font-size="13" lengthAdjust="spacing" textLength="90" x="68.5" y="82.7139">submit the form</text><polygon fill="#181818" points="471.5,113.9219,481.5,117.9219,471.5,121.9219,475.5,117.9219" style="stroke:#181818;stroke-width:1.0;"/><line style="stroke:#181818;stroke-width:1.0;" x1="221.5" x2="477.5" y1="117.9219" y2="117.9219"/><text fill="#000000" font-family="sans-serif" font-size="13" lengthAdjust="spacing" textLength="238" x="228.5" y="113.0654">get the id in route and data to edit in form</text><rect fill="#E2E2F0" height="49.2188" rx="2.5" ry="2.5" style="stroke:#181818;stroke-width:0.5;" width="103" x="483.5" y="95.5703"/><text fill="#000000" font-family="sans-serif" font-size="14" font-style="italic" lengthAdjust="spacing" textLength="89" x="490.5" y="117.1035">&#171;Component&#187;</text><text fill="#000000" font-family="sans-serif" font-size="14" lengthAdjust="spacing" textLength="38" x="516" y="134.7129">Model</text><polygon fill="#181818" points="694,174.1406,704,178.1406,694,182.1406,698,178.1406" style="stroke:#181818;stroke-width:1.0;"/><line style="stroke:#181818;stroke-width:1.0;" x1="221.5" x2="700" y1="178.1406" y2="178.1406"/><text fill="#000000" font-family="sans-serif" font-size="13" lengthAdjust="spacing" textLength="123" x="228.5" y="173.2842">edits staff information</text><polygon fill="#181818" points="807,204.4922,817,208.4922,807,212.4922,811,208.4922" style="stroke:#181818;stroke-width:1.0;"/><line style="stroke:#181818;stroke-width:1.0;" x1="716" x2="813" y1="208.4922" y2="208.4922"/><text fill="#000000" font-family="sans-serif" font-size="13" lengthAdjust="spacing" textLength="25" x="723" y="203.6357">PUT</text><polygon fill="#181818" points="947,234.8438,957,238.8438,947,242.8438,951,238.8438" style="stroke:#181818;stroke-width:1.0;"/><line style="stroke:#181818;stroke-width:1.0;" x1="829" x2="953" y1="238.8438" y2="238.8438"/><text fill="#000000" font-family="sans-serif" font-size="13" lengthAdjust="spacing" textLength="111" x="836" y="233.9873">PUT (/api/staffs/:id)</text><line style="stroke:#181818;stroke-width:1.0;" x1="969" x2="1011" y1="285.5469" y2="285.5469"/><line style="stroke:#181818;stroke-width:1.0;" x1="1011" x2="1011" y1="285.5469" y2="298.5469"/><line style="stroke:#181818;stroke-width:1.0;" x1="970" x2="1011" y1="298.5469" y2="298.5469"/><polygon fill="#181818" points="980,294.5469,970,298.5469,980,302.5469,976,298.5469" style="stroke:#181818;stroke-width:1.0;"/><text fill="#000000" font-family="sans-serif" font-size="13" lengthAdjust="spacing" textLength="134" x="976" y="264.3389">validates all information</text><text fill="#000000" font-family="sans-serif" font-size="13" lengthAdjust="spacing" textLength="148" x="976" y="280.6904">and edits staff information</text><polygon fill="#181818" points="840,324.8984,830,328.8984,840,332.8984,836,328.8984" style="stroke:#181818;stroke-width:1.0;"/><line style="stroke:#181818;stroke-width:1.0;stroke-dasharray:2.0,2.0;" x1="834" x2="963" y1="328.8984" y2="328.8984"/><text fill="#000000" font-family="sans-serif" font-size="13" lengthAdjust="spacing" textLength="53" x="846" y="324.042">response</text><polygon fill="#181818" points="727,355.25,717,359.25,727,363.25,723,359.25" style="stroke:#181818;stroke-width:1.0;"/><line style="stroke:#181818;stroke-width:1.0;stroke-dasharray:2.0,2.0;" x1="721" x2="823" y1="359.25" y2="359.25"/><text fill="#000000" font-family="sans-serif" font-size="13" lengthAdjust="spacing" textLength="53" x="733" y="354.3936">response</text><polygon fill="#181818" points="551,385.6016,541,389.6016,551,393.6016,547,389.6016" style="stroke:#181818;stroke-width:1.0;"/><line style="stroke:#181818;stroke-width:1.0;" x1="545" x2="705" y1="389.6016" y2="389.6016"/><text fill="#000000" font-family="sans-serif" font-size="13" lengthAdjust="spacing" textLength="147" x="557" y="384.7451">transforms response data</text><polygon fill="#181818" points="694,415.9531,704,419.9531,694,423.9531,698,419.9531" style="stroke:#181818;stroke-width:1.0;"/><line style="stroke:#181818;stroke-width:1.0;stroke-dasharray:2.0,2.0;" x1="535" x2="700" y1="419.9531" y2="419.9531"/><text fill="#000000" font-family="sans-serif" font-size="13" lengthAdjust="spacing" textLength="24" x="542" y="415.0967">staff</text><polygon fill="#181818" points="232.5,446.3047,222.5,450.3047,232.5,454.3047,228.5,450.3047" style="stroke:#181818;stroke-width:1.0;"/><line style="stroke:#181818;stroke-width:1.0;stroke-dasharray:2.0,2.0;" x1="226.5" x2="710" y1="450.3047" y2="450.3047"/><text fill="#000000" font-family="sans-serif" font-size="13" lengthAdjust="spacing" textLength="24" x="238.5" y="445.4482">staff</text><polygon fill="#181818" points="72.5,476.6563,62.5,480.6563,72.5,484.6563,68.5,480.6563" style="stroke:#181818;stroke-width:1.0;"/><line style="stroke:#181818;stroke-width:1.0;stroke-dasharray:2.0,2.0;" x1="66.5" x2="215.5" y1="480.6563" y2="480.6563"/><text fill="#000000" font-family="sans-serif" font-size="13" lengthAdjust="spacing" textLength="126" x="78.5" y="475.7998">success/fail message</text><!--SRC=[VP0xRyCm38Ht_GgEIO32IoSZo907qAL0WAQTkh0sdHAm9KEatRzVINd8HUjE5gtlgBlhqIjNtADLU6Fw0fJBTxtUkQvtbgnkDgQVOFV_aSt3lE3PrTH6-7AO1r_8ZrnHH6_7UVZfT3hkFO_a8p-P_Z62ekHbZufHipqarYgo3Rh5xd4P10OhvH6LKWycbV6moK5BaE6ZOmNz96YSxxBWpfXSIv2csAjL2MUwgBW6jk3T43HeQwYZ8NL0TLWRRjBM7okkTPG94H35fWba157PsUpXIffRWK6SkodX-7hARBuma_w2Odj892mAxBb8hqbHShtCskt1XFwkx8WjXn0aW6qxzVLkOxuvqvvqyA48af1KwDSyoP0wB44zMeaBv4wbzhAl1DusfIV_7eQg8f6YGMwX2oSya_a6]--></g></svg>