<?xml version="1.0" encoding="us-ascii" standalone="no"?><svg xmlns="http://www.w3.org/2000/svg" xmlns:xlink="http://www.w3.org/1999/xlink" contentStyleType="text/css" height="648px" preserveAspectRatio="none" style="width:1592px;height:648px;background:#FFFFFF;" version="1.1" viewBox="0 0 1592 648" width="1592px" zoomAndPan="magnify"><defs/><g><rect fill="#FFFFFF" height="498.1406" style="stroke:#181818;stroke-width:1.0;" width="10" x="303" y="87.5703"/><rect fill="#FFFFFF" height="428.4375" style="stroke:#181818;stroke-width:1.0;" width="10" x="421" y="117.9219"/><rect fill="#FFFFFF" height="315.5156" style="stroke:#181818;stroke-width:1.0;" width="10" x="871.5" y="208.4922"/><rect fill="#FFFFFF" height="30.3516" style="stroke:#181818;stroke-width:1.0;" width="10" x="1206.5" y="238.8438"/><rect fill="#FFFFFF" height="30.3516" style="stroke:#181818;stroke-width:1.0;" width="10" x="1369" y="415.9531"/><rect fill="none" height="172.1094" style="stroke:#000000;stroke-width:1.5;" width="782.5" x="804" y="344.8984"/><rect fill="none" height="48.7031" style="stroke:#000000;stroke-width:1.5;" width="659.5" x="814" y="461.3047"/><line style="stroke:#181818;stroke-width:0.5;stroke-dasharray:5.0,5.0;" x1="308" x2="308" y1="55.2188" y2="594.7109"/><line style="stroke:#181818;stroke-width:0.5;stroke-dasharray:5.0,5.0;" x1="426" x2="426" y1="55.2188" y2="594.7109"/><line style="stroke:#181818;stroke-width:0.5;stroke-dasharray:5.0,5.0;" x1="709" x2="709" y1="166.0313" y2="594.7109"/><line style="stroke:#181818;stroke-width:0.5;stroke-dasharray:5.0,5.0;" x1="876" x2="876" y1="55.2188" y2="594.7109"/><line style="stroke:#181818;stroke-width:0.5;stroke-dasharray:5.0,5.0;" x1="1211.5" x2="1211.5" y1="55.2188" y2="594.7109"/><line style="stroke:#181818;stroke-width:0.5;stroke-dasharray:5.0,5.0;" x1="1373.5" x2="1373.5" y1="55.2188" y2="594.7109"/><line style="stroke:#181818;stroke-width:0.5;stroke-dasharray:5.0,5.0;" x1="1524.5" x2="1524.5" y1="55.2188" y2="594.7109"/><rect fill="#E2E2F0" height="49.2188" rx="2.5" ry="2.5" style="stroke:#181818;stroke-width:0.5;" width="96" x="260" y="5"/><text fill="#000000" font-family="sans-serif" font-size="14" font-style="italic" lengthAdjust="spacing" textLength="54" x="281" y="26.5332">&#171;Route&#187;</text><text fill="#000000" font-family="sans-serif" font-size="14" lengthAdjust="spacing" textLength="82" x="267" y="44.1426">PatientRoute</text><rect fill="#E2E2F0" height="49.2188" rx="2.5" ry="2.5" style="stroke:#181818;stroke-width:0.5;" width="96" x="260" y="593.7109"/><text fill="#000000" font-family="sans-serif" font-size="14" font-style="italic" lengthAdjust="spacing" textLength="54" x="281" y="615.2441">&#171;Route&#187;</text><text fill="#000000" font-family="sans-serif" font-size="14" lengthAdjust="spacing" textLength="82" x="267" y="632.8535">PatientRoute</text><rect fill="#E2E2F0" height="49.2188" rx="2.5" ry="2.5" style="stroke:#181818;stroke-width:0.5;" width="120" x="366" y="5"/><text fill="#000000" font-family="sans-serif" font-size="14" font-style="italic" lengthAdjust="spacing" textLength="78" x="387" y="26.5332">&#171;Controller&#187;</text><text fill="#000000" font-family="sans-serif" font-size="14" lengthAdjust="spacing" textLength="106" x="373" y="44.1426">PatientController</text><rect fill="#E2E2F0" height="49.2188" rx="2.5" ry="2.5" style="stroke:#181818;stroke-width:0.5;" width="120" x="366" y="593.7109"/><text fill="#000000" font-family="sans-serif" font-size="14" font-style="italic" lengthAdjust="spacing" textLength="78" x="387" y="615.2441">&#171;Controller&#187;</text><text fill="#000000" font-family="sans-serif" font-size="14" lengthAdjust="spacing" textLength="106" x="373" y="632.8535">PatientController</text><rect fill="#E2E2F0" height="49.2188" rx="2.5" ry="2.5" style="stroke:#181818;stroke-width:0.5;" width="209" x="605" y="593.7109"/><text fill="#000000" font-family="sans-serif" font-size="14" font-style="italic" lengthAdjust="spacing" textLength="46" x="686.5" y="615.2441">&#171;DTO&#187;</text><text fill="#000000" font-family="sans-serif" font-size="14" lengthAdjust="spacing" textLength="195" x="612" y="632.8535">DeletePatientConfirmationDTO</text><rect fill="#E2E2F0" height="49.2188" rx="2.5" ry="2.5" style="stroke:#181818;stroke-width:0.5;" width="105" x="824" y="5"/><text fill="#000000" font-family="sans-serif" font-size="14" font-style="italic" lengthAdjust="spacing" textLength="62" x="845.5" y="26.5332">&#171;Service&#187;</text><text fill="#000000" font-family="sans-serif" font-size="14" lengthAdjust="spacing" textLength="91" x="831" y="44.1426">PatientService</text><rect fill="#E2E2F0" height="49.2188" rx="2.5" ry="2.5" style="stroke:#181818;stroke-width:0.5;" width="105" x="824" y="593.7109"/><text fill="#000000" font-family="sans-serif" font-size="14" font-style="italic" lengthAdjust="spacing" textLength="62" x="845.5" y="615.2441">&#171;Service&#187;</text><text fill="#000000" font-family="sans-serif" font-size="14" lengthAdjust="spacing" textLength="91" x="831" y="632.8535">PatientService</text><rect fill="#E2E2F0" height="49.2188" rx="2.5" ry="2.5" style="stroke:#181818;stroke-width:0.5;" width="126" x="1148.5" y="5"/><text fill="#000000" font-family="sans-serif" font-size="14" font-style="italic" lengthAdjust="spacing" textLength="84" x="1169.5" y="26.5332">&#171;Repository&#187;</text><text fill="#000000" font-family="sans-serif" font-size="14" lengthAdjust="spacing" textLength="112" x="1155.5" y="44.1426">PatientRepository</text><rect fill="#E2E2F0" height="49.2188" rx="2.5" ry="2.5" style="stroke:#181818;stroke-width:0.5;" width="126" x="1148.5" y="593.7109"/><text fill="#000000" font-family="sans-serif" font-size="14" font-style="italic" lengthAdjust="spacing" textLength="84" x="1169.5" y="615.2441">&#171;Repository&#187;</text><text fill="#000000" font-family="sans-serif" font-size="14" lengthAdjust="spacing" textLength="112" x="1155.5" y="632.8535">PatientRepository</text><rect fill="#E2E2F0" height="49.2188" rx="2.5" ry="2.5" style="stroke:#181818;stroke-width:0.5;" width="179" x="1284.5" y="5"/><text fill="#000000" font-family="sans-serif" font-size="14" font-style="italic" lengthAdjust="spacing" textLength="84" x="1332" y="26.5332">&#171;Repository&#187;</text><text fill="#000000" font-family="sans-serif" font-size="14" lengthAdjust="spacing" textLength="165" x="1291.5" y="44.1426">PatientLoggeerRepository</text><rect fill="#E2E2F0" height="49.2188" rx="2.5" ry="2.5" style="stroke:#181818;stroke-width:0.5;" width="179" x="1284.5" y="593.7109"/><text fill="#000000" font-family="sans-serif" font-size="14" font-style="italic" lengthAdjust="spacing" textLength="84" x="1332" y="615.2441">&#171;Repository&#187;</text><text fill="#000000" font-family="sans-serif" font-size="14" lengthAdjust="spacing" textLength="165" x="1291.5" y="632.8535">PatientLoggeerRepository</text><rect fill="#E2E2F0" height="49.2188" rx="2.5" ry="2.5" style="stroke:#181818;stroke-width:0.5;" width="103" x="1473.5" y="5"/><text fill="#000000" font-family="sans-serif" font-size="14" font-style="italic" lengthAdjust="spacing" textLength="61" x="1494.5" y="26.5332">&#171;Logger&#187;</text><text fill="#000000" font-family="sans-serif" font-size="14" lengthAdjust="spacing" textLength="89" x="1480.5" y="44.1426">PatientLogger</text><rect fill="#E2E2F0" height="49.2188" rx="2.5" ry="2.5" style="stroke:#181818;stroke-width:0.5;" width="103" x="1473.5" y="593.7109"/><text fill="#000000" font-family="sans-serif" font-size="14" font-style="italic" lengthAdjust="spacing" textLength="61" x="1494.5" y="615.2441">&#171;Logger&#187;</text><text fill="#000000" font-family="sans-serif" font-size="14" lengthAdjust="spacing" textLength="89" x="1480.5" y="632.8535">PatientLogger</text><rect fill="#FFFFFF" height="498.1406" style="stroke:#181818;stroke-width:1.0;" width="10" x="303" y="87.5703"/><rect fill="#FFFFFF" height="428.4375" style="stroke:#181818;stroke-width:1.0;" width="10" x="421" y="117.9219"/><rect fill="#FFFFFF" height="315.5156" style="stroke:#181818;stroke-width:1.0;" width="10" x="871.5" y="208.4922"/><rect fill="#FFFFFF" height="30.3516" style="stroke:#181818;stroke-width:1.0;" width="10" x="1206.5" y="238.8438"/><rect fill="#FFFFFF" height="30.3516" style="stroke:#181818;stroke-width:1.0;" width="10" x="1369" y="415.9531"/><ellipse cx="7.5" cy="86.8203" fill="none" rx="4" ry="4" style="stroke:#181818;stroke-width:1.5;"/><polygon fill="#181818" points="291,83.5703,301,87.5703,291,91.5703,295,87.5703" style="stroke:#181818;stroke-width:1.0;"/><line style="stroke:#181818;stroke-width:1.0;" x1="12" x2="297" y1="87.5703" y2="87.5703"/><text fill="#000000" font-family="sans-serif" font-size="13" lengthAdjust="spacing" textLength="276" x="15" y="82.7139">DELETE (/api/patients/{medicalRecordNumber})</text><polygon fill="#181818" points="409,113.9219,419,117.9219,409,121.9219,413,117.9219" style="stroke:#181818;stroke-width:1.0;"/><line style="stroke:#181818;stroke-width:1.0;" x1="313" x2="415" y1="117.9219" y2="117.9219"/><text fill="#000000" font-family="sans-serif" font-size="13" lengthAdjust="spacing" textLength="50" x="320" y="113.0654">DELETE</text><polygon fill="#181818" points="593,144.2734,603,148.2734,593,152.2734,597,148.2734" style="stroke:#181818;stroke-width:1.0;"/><line style="stroke:#181818;stroke-width:1.0;" x1="431" x2="599" y1="148.2734" y2="148.2734"/><text fill="#000000" font-family="sans-serif" font-size="13" lengthAdjust="spacing" textLength="150" x="438" y="143.417">recieves request body info</text><rect fill="#E2E2F0" height="49.2188" rx="2.5" ry="2.5" style="stroke:#181818;stroke-width:0.5;" width="209" x="605" y="125.9219"/><text fill="#000000" font-family="sans-serif" font-size="14" font-style="italic" lengthAdjust="spacing" textLength="46" x="686.5" y="147.4551">&#171;DTO&#187;</text><text fill="#000000" font-family="sans-serif" font-size="14" lengthAdjust="spacing" textLength="195" x="612" y="165.0645">DeletePatientConfirmationDTO</text><polygon fill="#181818" points="859.5,204.4922,869.5,208.4922,859.5,212.4922,863.5,208.4922" style="stroke:#181818;stroke-width:1.0;"/><line style="stroke:#181818;stroke-width:1.0;" x1="431" x2="865.5" y1="208.4922" y2="208.4922"/><text fill="#000000" font-family="sans-serif" font-size="13" lengthAdjust="spacing" textLength="397" x="438" y="203.6357">deletePatient(medicalRecordNumber, deletePatientConfirmationDTO)</text><polygon fill="#181818" points="1194.5,234.8438,1204.5,238.8438,1194.5,242.8438,1198.5,238.8438" style="stroke:#181818;stroke-width:1.0;"/><line style="stroke:#181818;stroke-width:1.0;" x1="881.5" x2="1200.5" y1="238.8438" y2="238.8438"/><text fill="#000000" font-family="sans-serif" font-size="13" lengthAdjust="spacing" textLength="306" x="888.5" y="233.9873">findByMedicalRecordNumber(medicalRecordNumber)</text><polygon fill="#181818" points="892.5,265.1953,882.5,269.1953,892.5,273.1953,888.5,269.1953" style="stroke:#181818;stroke-width:1.0;"/><line style="stroke:#181818;stroke-width:1.0;stroke-dasharray:2.0,2.0;" x1="886.5" x2="1210.5" y1="269.1953" y2="269.1953"/><text fill="#000000" font-family="sans-serif" font-size="13" lengthAdjust="spacing" textLength="39" x="898.5" y="264.3389">patient</text><polygon fill="#181818" points="1199.5,295.5469,1209.5,299.5469,1199.5,303.5469,1203.5,299.5469" style="stroke:#181818;stroke-width:1.0;"/><line style="stroke:#181818;stroke-width:1.0;" x1="881.5" x2="1205.5" y1="299.5469" y2="299.5469"/><text fill="#000000" font-family="sans-serif" font-size="13" lengthAdjust="spacing" textLength="82" x="888.5" y="294.6904">delete(patient)</text><polygon fill="#181818" points="1513,325.8984,1523,329.8984,1513,333.8984,1517,329.8984" style="stroke:#181818;stroke-width:1.0;"/><line style="stroke:#181818;stroke-width:1.0;" x1="881.5" x2="1519" y1="329.8984" y2="329.8984"/><text fill="#000000" font-family="sans-serif" font-size="13" lengthAdjust="spacing" textLength="115" x="888.5" y="325.042">logChanges(patient)</text><path d="M804,344.8984 L865,344.8984 L865,353.25 L855,363.25 L804,363.25 L804,344.8984 " fill="#EEEEEE" style="stroke:#000000;stroke-width:1.5;"/><rect fill="none" height="172.1094" style="stroke:#000000;stroke-width:1.5;" width="782.5" x="804" y="344.8984"/><text fill="#000000" font-family="sans-serif" font-size="13" font-weight="bold" lengthAdjust="spacing" textLength="16" x="819" y="359.3936">alt</text><text fill="#000000" font-family="sans-serif" font-size="11" font-weight="bold" lengthAdjust="spacing" textLength="285" x="880" y="358.3174">[the period mandated of data retention has expired]</text><polygon fill="#181818" points="1513,381.6016,1523,385.6016,1513,389.6016,1517,385.6016" style="stroke:#181818;stroke-width:1.0;"/><line style="stroke:#181818;stroke-width:1.0;" x1="881.5" x2="1519" y1="385.6016" y2="385.6016"/><text fill="#000000" font-family="sans-serif" font-size="13" lengthAdjust="spacing" textLength="354" x="888.5" y="380.7451">createImportantLog(medicalRecordNumber, modificationDate)</text><polygon fill="#181818" points="1357,411.9531,1367,415.9531,1357,419.9531,1361,415.9531" style="stroke:#181818;stroke-width:1.0;"/><line style="stroke:#181818;stroke-width:1.0;" x1="881.5" x2="1363" y1="415.9531" y2="415.9531"/><text fill="#000000" font-family="sans-serif" font-size="13" lengthAdjust="spacing" textLength="133" x="888.5" y="411.0967">findLogsByPatientId(id)</text><polygon fill="#181818" points="892.5,442.3047,882.5,446.3047,892.5,450.3047,888.5,446.3047" style="stroke:#181818;stroke-width:1.0;"/><line style="stroke:#181818;stroke-width:1.0;stroke-dasharray:2.0,2.0;" x1="886.5" x2="1373" y1="446.3047" y2="446.3047"/><text fill="#000000" font-family="sans-serif" font-size="13" lengthAdjust="spacing" textLength="24" x="898.5" y="441.4482">logs</text><path d="M814,461.3047 L887,461.3047 L887,469.6563 L877,479.6563 L814,479.6563 L814,461.3047 " fill="#EEEEEE" style="stroke:#000000;stroke-width:1.5;"/><rect fill="none" height="48.7031" style="stroke:#000000;stroke-width:1.5;" width="659.5" x="814" y="461.3047"/><text fill="#000000" font-family="sans-serif" font-size="13" font-weight="bold" lengthAdjust="spacing" textLength="28" x="829" y="475.7998">loop</text><text fill="#000000" font-family="sans-serif" font-size="11" font-weight="bold" lengthAdjust="spacing" textLength="79" x="902" y="474.7236">[through logs]</text><polygon fill="#181818" points="1362,498.0078,1372,502.0078,1362,506.0078,1366,502.0078" style="stroke:#181818;stroke-width:1.0;"/><line style="stroke:#181818;stroke-width:1.0;" x1="881.5" x2="1368" y1="502.0078" y2="502.0078"/><text fill="#000000" font-family="sans-serif" font-size="13" lengthAdjust="spacing" textLength="60" x="888.5" y="497.1514">delete(log)</text><polygon fill="#181818" points="324,542.3594,314,546.3594,324,550.3594,320,546.3594" style="stroke:#181818;stroke-width:1.0;"/><line style="stroke:#181818;stroke-width:1.0;stroke-dasharray:2.0,2.0;" x1="318" x2="425" y1="546.3594" y2="546.3594"/><text fill="#000000" font-family="sans-serif" font-size="13" lengthAdjust="spacing" textLength="53" x="330" y="541.5029">response</text><polygon fill="#181818" points="11,572.7109,1,576.7109,11,580.7109,7,576.7109" style="stroke:#181818;stroke-width:1.0;"/><line style="stroke:#181818;stroke-width:1.0;stroke-dasharray:2.0,2.0;" x1="5" x2="302" y1="576.7109" y2="576.7109"/><text fill="#000000" font-family="sans-serif" font-size="13" lengthAdjust="spacing" textLength="53" x="17" y="571.8545">response</text><!--SRC=[bLF1Rjim3BtxAtHCYWMv1qOERN8eq6r5sjjEgaKx0cnHe-IWGR5_7otPaPgu61OWCKdpFPAFZ9NaTQMjD5uyIw_1-0Fs7eHq8Xfb6PxRRM5lSn_GUCAs1He0cLUMoRc2xg053ucWrjInWsRt-dDW6HvboR_p9L-0JheA3KvcMOxMFE805ftsIESmLV9uj8ip3tt2fW6WpmmXIF_FGmdCa6Xm-YzSRQFM6x7RF-rVzsAnbbQlRSIwzKS7IbUoFK25f7xqtHlGdsKXAwzFabSKm4LS5tDbQvWOKsvwMMHvZ6B1x-uOG51fE85ZutSFpeitL6UXJOrNW4dzZL3vHXSppNxxd7Arz6oIaREOk0TbaiuRKMkZxi_VRolCLSqLkf0K1Bud8qPnlwmK6rwCQSiyRrpXHhJOF1obQS2bFDbwuOyWB9169Jff53UW1DQ23ScgUixZmSMHhm7UhIPGXU3FN8MAWD6FdKNoCfpHlBmTAbrpE2ZAYEKyOvemIibHTtyUj_Ae5bf5u4MtQrXuEoh8qxlWjuYMPoRicsEA_hE1KM46nA9WL35y5SojBOjEHvAVu_GN2WViB1e7EIIx-dArkatz2m00]--></g></svg>