<?xml version="1.0" encoding="us-ascii" standalone="no"?><svg xmlns="http://www.w3.org/2000/svg" xmlns:xlink="http://www.w3.org/1999/xlink" contentStyleType="text/css" height="606px" preserveAspectRatio="none" style="width:903px;height:606px;background:#FFFFFF;" version="1.1" viewBox="0 0 903 606" width="903px" zoomAndPan="magnify"><defs/><g><rect fill="#FFFFFF" height="455.625" style="stroke:#181818;stroke-width:1.0;" width="10" x="179" y="87.5703"/><rect fill="#FFFFFF" height="385.9219" style="stroke:#181818;stroke-width:1.0;" width="10" x="269" y="117.9219"/><rect fill="#FFFFFF" height="265" style="stroke:#181818;stroke-width:1.0;" width="10" x="556" y="208.4922"/><rect fill="#FFFFFF" height="83.5391" style="stroke:#181818;stroke-width:1.0;" width="10" x="750" y="264.1953"/><rect fill="none" height="94.8906" style="stroke:#000000;stroke-width:1.5;" width="301" x="513" y="223.4922"/><rect fill="none" height="81.4063" style="stroke:#000000;stroke-width:1.5;" width="384" x="513" y="362.7344"/><line style="stroke:#181818;stroke-width:0.5;stroke-dasharray:5.0,5.0;" x1="184" x2="184" y1="55.2188" y2="552.1953"/><line style="stroke:#181818;stroke-width:0.5;stroke-dasharray:5.0,5.0;" x1="274" x2="274" y1="55.2188" y2="552.1953"/><line style="stroke:#181818;stroke-width:0.5;stroke-dasharray:5.0,5.0;" x1="483" x2="483" y1="166.0313" y2="552.1953"/><line style="stroke:#181818;stroke-width:0.5;stroke-dasharray:5.0,5.0;" x1="561" x2="561" y1="55.2188" y2="552.1953"/><line style="stroke:#181818;stroke-width:0.5;stroke-dasharray:5.0,5.0;" x1="755" x2="755" y1="55.2188" y2="552.1953"/><line style="stroke:#181818;stroke-width:0.5;stroke-dasharray:5.0,5.0;" x1="850" x2="850" y1="422.6133" y2="552.1953"/><rect fill="#E2E2F0" height="49.2188" rx="2.5" ry="2.5" style="stroke:#181818;stroke-width:0.5;" width="68" x="150" y="5"/><text fill="#000000" font-family="sans-serif" font-size="14" font-style="italic" lengthAdjust="spacing" textLength="54" x="157" y="26.5332">&#171;Route&#187;</text><text fill="#000000" font-family="sans-serif" font-size="14" lengthAdjust="spacing" textLength="38" x="165" y="44.1426">Route</text><rect fill="#E2E2F0" height="49.2188" rx="2.5" ry="2.5" style="stroke:#181818;stroke-width:0.5;" width="68" x="150" y="551.1953"/><text fill="#000000" font-family="sans-serif" font-size="14" font-style="italic" lengthAdjust="spacing" textLength="54" x="157" y="572.7285">&#171;Route&#187;</text><text fill="#000000" font-family="sans-serif" font-size="14" lengthAdjust="spacing" textLength="38" x="165" y="590.3379">Route</text><rect fill="#E2E2F0" height="49.2188" rx="2.5" ry="2.5" style="stroke:#181818;stroke-width:0.5;" width="92" x="228" y="5"/><text fill="#000000" font-family="sans-serif" font-size="14" font-style="italic" lengthAdjust="spacing" textLength="78" x="235" y="26.5332">&#171;Controller&#187;</text><text fill="#000000" font-family="sans-serif" font-size="14" lengthAdjust="spacing" textLength="62" x="243" y="44.1426">Controller</text><rect fill="#E2E2F0" height="49.2188" rx="2.5" ry="2.5" style="stroke:#181818;stroke-width:0.5;" width="92" x="228" y="551.1953"/><text fill="#000000" font-family="sans-serif" font-size="14" font-style="italic" lengthAdjust="spacing" textLength="78" x="235" y="572.7285">&#171;Controller&#187;</text><text fill="#000000" font-family="sans-serif" font-size="14" lengthAdjust="spacing" textLength="62" x="243" y="590.3379">Controller</text><rect fill="#E2E2F0" height="49.2188" rx="2.5" ry="2.5" style="stroke:#181818;stroke-width:0.5;" width="60" x="453" y="551.1953"/><text fill="#000000" font-family="sans-serif" font-size="14" font-style="italic" lengthAdjust="spacing" textLength="46" x="460" y="572.7285">&#171;DTO&#187;</text><text fill="#000000" font-family="sans-serif" font-size="14" lengthAdjust="spacing" textLength="30" x="468" y="590.3379">DTO</text><rect fill="#E2E2F0" height="49.2188" rx="2.5" ry="2.5" style="stroke:#181818;stroke-width:0.5;" width="76" x="523" y="5"/><text fill="#000000" font-family="sans-serif" font-size="14" font-style="italic" lengthAdjust="spacing" textLength="62" x="530" y="26.5332">&#171;Service&#187;</text><text fill="#000000" font-family="sans-serif" font-size="14" lengthAdjust="spacing" textLength="47" x="537.5" y="44.1426">Service</text><rect fill="#E2E2F0" height="49.2188" rx="2.5" ry="2.5" style="stroke:#181818;stroke-width:0.5;" width="76" x="523" y="551.1953"/><text fill="#000000" font-family="sans-serif" font-size="14" font-style="italic" lengthAdjust="spacing" textLength="62" x="530" y="572.7285">&#171;Service&#187;</text><text fill="#000000" font-family="sans-serif" font-size="14" lengthAdjust="spacing" textLength="47" x="537.5" y="590.3379">Service</text><rect fill="#E2E2F0" height="49.2188" rx="2.5" ry="2.5" style="stroke:#181818;stroke-width:0.5;" width="98" x="706" y="5"/><text fill="#000000" font-family="sans-serif" font-size="14" font-style="italic" lengthAdjust="spacing" textLength="84" x="713" y="26.5332">&#171;Repository&#187;</text><text fill="#000000" font-family="sans-serif" font-size="14" lengthAdjust="spacing" textLength="68" x="721" y="44.1426">Repository</text><rect fill="#E2E2F0" height="49.2188" rx="2.5" ry="2.5" style="stroke:#181818;stroke-width:0.5;" width="98" x="706" y="551.1953"/><text fill="#000000" font-family="sans-serif" font-size="14" font-style="italic" lengthAdjust="spacing" textLength="84" x="713" y="572.7285">&#171;Repository&#187;</text><text fill="#000000" font-family="sans-serif" font-size="14" lengthAdjust="spacing" textLength="68" x="721" y="590.3379">Repository</text><rect fill="#E2E2F0" height="49.2188" rx="2.5" ry="2.5" style="stroke:#181818;stroke-width:0.5;" width="73" x="814" y="551.1953"/><text fill="#000000" font-family="sans-serif" font-size="14" font-style="italic" lengthAdjust="spacing" textLength="46" x="827.5" y="572.7285">&#171;DTO&#187;</text><text fill="#000000" font-family="sans-serif" font-size="14" lengthAdjust="spacing" textLength="59" x="821" y="590.3379">ViewDTO</text><rect fill="#FFFFFF" height="455.625" style="stroke:#181818;stroke-width:1.0;" width="10" x="179" y="87.5703"/><rect fill="#FFFFFF" height="385.9219" style="stroke:#181818;stroke-width:1.0;" width="10" x="269" y="117.9219"/><rect fill="#FFFFFF" height="265" style="stroke:#181818;stroke-width:1.0;" width="10" x="556" y="208.4922"/><rect fill="#FFFFFF" height="83.5391" style="stroke:#181818;stroke-width:1.0;" width="10" x="750" y="264.1953"/><ellipse cx="7.5" cy="86.8203" fill="none" rx="4" ry="4" style="stroke:#181818;stroke-width:1.5;"/><polygon fill="#181818" points="167,83.5703,177,87.5703,167,91.5703,171,87.5703" style="stroke:#181818;stroke-width:1.0;"/><line style="stroke:#181818;stroke-width:1.0;" x1="12" x2="173" y1="87.5703" y2="87.5703"/><text fill="#000000" font-family="sans-serif" font-size="13" lengthAdjust="spacing" textLength="152" x="15" y="82.7139">GET (/api/patients/search)</text><polygon fill="#181818" points="257,113.9219,267,117.9219,257,121.9219,261,117.9219" style="stroke:#181818;stroke-width:1.0;"/><line style="stroke:#181818;stroke-width:1.0;" x1="189" x2="263" y1="117.9219" y2="117.9219"/><text fill="#000000" font-family="sans-serif" font-size="13" lengthAdjust="spacing" textLength="26" x="196" y="113.0654">GET</text><polygon fill="#181818" points="441,144.2734,451,148.2734,441,152.2734,445,148.2734" style="stroke:#181818;stroke-width:1.0;"/><line style="stroke:#181818;stroke-width:1.0;" x1="279" x2="447" y1="148.2734" y2="148.2734"/><text fill="#000000" font-family="sans-serif" font-size="13" lengthAdjust="spacing" textLength="150" x="286" y="143.417">recieves request body info</text><rect fill="#E2E2F0" height="49.2188" rx="2.5" ry="2.5" style="stroke:#181818;stroke-width:0.5;" width="60" x="453" y="125.9219"/><text fill="#000000" font-family="sans-serif" font-size="14" font-style="italic" lengthAdjust="spacing" textLength="46" x="460" y="147.4551">&#171;DTO&#187;</text><text fill="#000000" font-family="sans-serif" font-size="14" lengthAdjust="spacing" textLength="30" x="468" y="165.0645">DTO</text><polygon fill="#181818" points="544,204.4922,554,208.4922,544,212.4922,548,208.4922" style="stroke:#181818;stroke-width:1.0;"/><line style="stroke:#181818;stroke-width:1.0;" x1="279" x2="550" y1="208.4922" y2="208.4922"/><text fill="#000000" font-family="sans-serif" font-size="13" lengthAdjust="spacing" textLength="164" x="286" y="203.6357">search the patients by filters</text><path d="M513,223.4922 L574,223.4922 L574,231.8438 L564,241.8438 L513,241.8438 L513,223.4922 " fill="#EEEEEE" style="stroke:#000000;stroke-width:1.5;"/><rect fill="none" height="94.8906" style="stroke:#000000;stroke-width:1.5;" width="301" x="513" y="223.4922"/><text fill="#000000" font-family="sans-serif" font-size="13" font-weight="bold" lengthAdjust="spacing" textLength="16" x="528" y="237.9873">alt</text><text fill="#000000" font-family="sans-serif" font-size="11" font-weight="bold" lengthAdjust="spacing" textLength="162" x="589" y="236.9111">[multiple filters are provided]</text><polygon fill="#181818" points="738,260.1953,748,264.1953,738,268.1953,742,264.1953" style="stroke:#181818;stroke-width:1.0;"/><line style="stroke:#181818;stroke-width:1.0;" x1="566" x2="744" y1="264.1953" y2="264.1953"/><text fill="#000000" font-family="sans-serif" font-size="13" lengthAdjust="spacing" textLength="165" x="573" y="259.3389">get the patients by the filters</text><line style="stroke:#000000;stroke-width:1.0;stroke-dasharray:2.0,2.0;" x1="513" x2="814" y1="273.1953" y2="273.1953"/><text fill="#000000" font-family="sans-serif" font-size="11" font-weight="bold" lengthAdjust="spacing" textLength="110" x="518" y="284.6143">[no filters provided]</text><polygon fill="#181818" points="738,306.3828,748,310.3828,738,314.3828,742,310.3828" style="stroke:#181818;stroke-width:1.0;"/><line style="stroke:#181818;stroke-width:1.0;" x1="566" x2="744" y1="310.3828" y2="310.3828"/><text fill="#000000" font-family="sans-serif" font-size="13" lengthAdjust="spacing" textLength="85" x="573" y="305.5264">get all patients</text><polygon fill="#181818" points="577,343.7344,567,347.7344,577,351.7344,573,347.7344" style="stroke:#181818;stroke-width:1.0;"/><line style="stroke:#181818;stroke-width:1.0;stroke-dasharray:2.0,2.0;" x1="571" x2="754" y1="347.7344" y2="347.7344"/><text fill="#000000" font-family="sans-serif" font-size="13" lengthAdjust="spacing" textLength="46" x="583" y="342.8779">patients</text><path d="M513,362.7344 L586,362.7344 L586,371.0859 L576,381.0859 L513,381.0859 L513,362.7344 " fill="#EEEEEE" style="stroke:#000000;stroke-width:1.5;"/><rect fill="none" height="81.4063" style="stroke:#000000;stroke-width:1.5;" width="384" x="513" y="362.7344"/><text fill="#000000" font-family="sans-serif" font-size="13" font-weight="bold" lengthAdjust="spacing" textLength="28" x="528" y="377.2295">loop</text><text fill="#000000" font-family="sans-serif" font-size="11" font-weight="bold" lengthAdjust="spacing" textLength="129" x="601" y="376.1533">[for each patient found]</text><polygon fill="#181818" points="802,432.1406,812,436.1406,802,440.1406,806,436.1406" style="stroke:#181818;stroke-width:1.0;"/><line style="stroke:#181818;stroke-width:1.0;" x1="566" x2="808" y1="436.1406" y2="436.1406"/><text fill="#000000" font-family="sans-serif" font-size="13" lengthAdjust="spacing" textLength="167" x="573" y="398.5811">create the DTO with patient's</text><text fill="#000000" font-family="sans-serif" font-size="13" lengthAdjust="spacing" textLength="176" x="573" y="414.9326">medical record number, name,</text><text fill="#000000" font-family="sans-serif" font-size="13" lengthAdjust="spacing" textLength="128" x="573" y="431.2842">email and date of birth</text><rect fill="#E2E2F0" height="49.2188" rx="2.5" ry="2.5" style="stroke:#181818;stroke-width:0.5;" width="73" x="814" y="383.9219"/><text fill="#000000" font-family="sans-serif" font-size="14" font-style="italic" lengthAdjust="spacing" textLength="46" x="827.5" y="405.4551">&#171;DTO&#187;</text><text fill="#000000" font-family="sans-serif" font-size="14" lengthAdjust="spacing" textLength="59" x="821" y="423.0645">ViewDTO</text><polygon fill="#181818" points="290,469.4922,280,473.4922,290,477.4922,286,473.4922" style="stroke:#181818;stroke-width:1.0;"/><line style="stroke:#181818;stroke-width:1.0;stroke-dasharray:2.0,2.0;" x1="284" x2="560" y1="473.4922" y2="473.4922"/><text fill="#000000" font-family="sans-serif" font-size="13" lengthAdjust="spacing" textLength="26" x="296" y="468.6357">DTO</text><polygon fill="#181818" points="200,499.8438,190,503.8438,200,507.8438,196,503.8438" style="stroke:#181818;stroke-width:1.0;"/><line style="stroke:#181818;stroke-width:1.0;stroke-dasharray:2.0,2.0;" x1="194" x2="273" y1="503.8438" y2="503.8438"/><text fill="#000000" font-family="sans-serif" font-size="13" lengthAdjust="spacing" textLength="53" x="206" y="498.9873">response</text><polygon fill="#181818" points="11,530.1953,1,534.1953,11,538.1953,7,534.1953" style="stroke:#181818;stroke-width:1.0;"/><line style="stroke:#181818;stroke-width:1.0;stroke-dasharray:2.0,2.0;" x1="5" x2="178" y1="534.1953" y2="534.1953"/><text fill="#000000" font-family="sans-serif" font-size="13" lengthAdjust="spacing" textLength="53" x="17" y="529.3389">response</text><!--SRC=[ZLB1Ri8m3BtdAtpRXa3SKSHbctQSnD0kun9QCoobIUQu8Fv-IMb9LowxDBRxNjwBxM1OgA9WdC36ju9WOXzetPthjGeZqBDtmjvQv8mSPLgNPC9vsRvdS3wqJj_9xm_a4rMTyX1gtKSJw0Q3ZoIUBvtFaYMpjsJ2-IGyzmw6S73nvHVhwsjNyFQwXSUb2RGCHWYTn6L4mzNnIPbAw6HIIpgekhOdCKUlx_W5MFwe4IXHakvibj2C5U49Omf-Mem2UrzVWDp1JmX3HrPmTGDoH1WSmlu21xA278jspr362ZIj5GeM1nGOJcps9wgnLiFTkGcbbIluHhcJoVcTL64fj171-PlGlqICjJSHXQvE1L6Cqh8hTUjzW8DdG9EUtvTJeNL_BkzdstMtOipsikSyxZF9ZVWGTwx1cYfZyn0yr-3QPeyy1sSQdEySDeOicEIcpfVu0-o9vTZvorwAw7G5afQgyMuGuu4E-zQjG0pUHHnJHdkZ5ujxw2y0]--></g></svg>