<?xml version="1.0" encoding="us-ascii" standalone="no"?><svg xmlns="http://www.w3.org/2000/svg" xmlns:xlink="http://www.w3.org/1999/xlink" contentStyleType="text/css" height="603px" preserveAspectRatio="none" style="width:1398px;height:603px;background:#FFFFFF;" version="1.1" viewBox="0 0 1398 603" width="1398px" zoomAndPan="magnify"><defs/><g><rect fill="#FFFFFF" height="452.7891" style="stroke:#181818;stroke-width:1.0;" width="10" x="184" y="87.5703"/><rect fill="#FFFFFF" height="383.0859" style="stroke:#181818;stroke-width:1.0;" width="10" x="383" y="117.9219"/><rect fill="#FFFFFF" height="262.1641" style="stroke:#181818;stroke-width:1.0;" width="10" x="752.5" y="208.4922"/><rect fill="#FFFFFF" height="83.5391" style="stroke:#181818;stroke-width:1.0;" width="10" x="1187.5" y="264.1953"/><rect fill="none" height="94.8906" style="stroke:#000000;stroke-width:1.5;" width="570.5" x="695" y="223.4922"/><rect fill="none" height="78.5703" style="stroke:#000000;stroke-width:1.5;" width="697.5" x="695" y="362.7344"/><line style="stroke:#181818;stroke-width:0.5;stroke-dasharray:5.0,5.0;" x1="189" x2="189" y1="55.2188" y2="549.3594"/><line style="stroke:#181818;stroke-width:0.5;stroke-dasharray:5.0,5.0;" x1="388" x2="388" y1="55.2188" y2="549.3594"/><line style="stroke:#181818;stroke-width:0.5;stroke-dasharray:5.0,5.0;" x1="631" x2="631" y1="166.0313" y2="549.3594"/><line style="stroke:#181818;stroke-width:0.5;stroke-dasharray:5.0,5.0;" x1="757" x2="757" y1="55.2188" y2="549.3594"/><line style="stroke:#181818;stroke-width:0.5;stroke-dasharray:5.0,5.0;" x1="1192.5" x2="1192.5" y1="55.2188" y2="549.3594"/><line style="stroke:#181818;stroke-width:0.5;stroke-dasharray:5.0,5.0;" x1="1323.5" x2="1323.5" y1="421.1953" y2="549.3594"/><rect fill="#E2E2F0" height="49.2188" rx="2.5" ry="2.5" style="stroke:#181818;stroke-width:0.5;" width="96" x="141" y="5"/><text fill="#000000" font-family="sans-serif" font-size="14" font-style="italic" lengthAdjust="spacing" textLength="54" x="162" y="26.5332">&#171;Route&#187;</text><text fill="#000000" font-family="sans-serif" font-size="14" lengthAdjust="spacing" textLength="82" x="148" y="44.1426">PatientRoute</text><rect fill="#E2E2F0" height="49.2188" rx="2.5" ry="2.5" style="stroke:#181818;stroke-width:0.5;" width="96" x="141" y="548.3594"/><text fill="#000000" font-family="sans-serif" font-size="14" font-style="italic" lengthAdjust="spacing" textLength="54" x="162" y="569.8926">&#171;Route&#187;</text><text fill="#000000" font-family="sans-serif" font-size="14" lengthAdjust="spacing" textLength="82" x="148" y="587.502">PatientRoute</text><rect fill="#E2E2F0" height="49.2188" rx="2.5" ry="2.5" style="stroke:#181818;stroke-width:0.5;" width="120" x="328" y="5"/><text fill="#000000" font-family="sans-serif" font-size="14" font-style="italic" lengthAdjust="spacing" textLength="78" x="349" y="26.5332">&#171;Controller&#187;</text><text fill="#000000" font-family="sans-serif" font-size="14" lengthAdjust="spacing" textLength="106" x="335" y="44.1426">PatientController</text><rect fill="#E2E2F0" height="49.2188" rx="2.5" ry="2.5" style="stroke:#181818;stroke-width:0.5;" width="120" x="328" y="548.3594"/><text fill="#000000" font-family="sans-serif" font-size="14" font-style="italic" lengthAdjust="spacing" textLength="78" x="349" y="569.8926">&#171;Controller&#187;</text><text fill="#000000" font-family="sans-serif" font-size="14" lengthAdjust="spacing" textLength="106" x="335" y="587.502">PatientController</text><rect fill="#E2E2F0" height="49.2188" rx="2.5" ry="2.5" style="stroke:#181818;stroke-width:0.5;" width="128" x="567" y="548.3594"/><text fill="#000000" font-family="sans-serif" font-size="14" font-style="italic" lengthAdjust="spacing" textLength="46" x="608" y="569.8926">&#171;DTO&#187;</text><text fill="#000000" font-family="sans-serif" font-size="14" lengthAdjust="spacing" textLength="114" x="574" y="587.502">SearchFiltersDTO</text><rect fill="#E2E2F0" height="49.2188" rx="2.5" ry="2.5" style="stroke:#181818;stroke-width:0.5;" width="105" x="705" y="5"/><text fill="#000000" font-family="sans-serif" font-size="14" font-style="italic" lengthAdjust="spacing" textLength="62" x="726.5" y="26.5332">&#171;Service&#187;</text><text fill="#000000" font-family="sans-serif" font-size="14" lengthAdjust="spacing" textLength="91" x="712" y="44.1426">PatientService</text><rect fill="#E2E2F0" height="49.2188" rx="2.5" ry="2.5" style="stroke:#181818;stroke-width:0.5;" width="105" x="705" y="548.3594"/><text fill="#000000" font-family="sans-serif" font-size="14" font-style="italic" lengthAdjust="spacing" textLength="62" x="726.5" y="569.8926">&#171;Service&#187;</text><text fill="#000000" font-family="sans-serif" font-size="14" lengthAdjust="spacing" textLength="91" x="712" y="587.502">PatientService</text><rect fill="#E2E2F0" height="49.2188" rx="2.5" ry="2.5" style="stroke:#181818;stroke-width:0.5;" width="126" x="1129.5" y="5"/><text fill="#000000" font-family="sans-serif" font-size="14" font-style="italic" lengthAdjust="spacing" textLength="84" x="1150.5" y="26.5332">&#171;Repository&#187;</text><text fill="#000000" font-family="sans-serif" font-size="14" lengthAdjust="spacing" textLength="112" x="1136.5" y="44.1426">PatientRepository</text><rect fill="#E2E2F0" height="49.2188" rx="2.5" ry="2.5" style="stroke:#181818;stroke-width:0.5;" width="126" x="1129.5" y="548.3594"/><text fill="#000000" font-family="sans-serif" font-size="14" font-style="italic" lengthAdjust="spacing" textLength="84" x="1150.5" y="569.8926">&#171;Repository&#187;</text><text fill="#000000" font-family="sans-serif" font-size="14" lengthAdjust="spacing" textLength="112" x="1136.5" y="587.502">PatientRepository</text><rect fill="#E2E2F0" height="49.2188" rx="2.5" ry="2.5" style="stroke:#181818;stroke-width:0.5;" width="117" x="1265.5" y="548.3594"/><text fill="#000000" font-family="sans-serif" font-size="14" font-style="italic" lengthAdjust="spacing" textLength="46" x="1301" y="569.8926">&#171;DTO&#187;</text><text fill="#000000" font-family="sans-serif" font-size="14" lengthAdjust="spacing" textLength="103" x="1272.5" y="587.502">ViewPatientDTO</text><rect fill="#FFFFFF" height="452.7891" style="stroke:#181818;stroke-width:1.0;" width="10" x="184" y="87.5703"/><rect fill="#FFFFFF" height="383.0859" style="stroke:#181818;stroke-width:1.0;" width="10" x="383" y="117.9219"/><rect fill="#FFFFFF" height="262.1641" style="stroke:#181818;stroke-width:1.0;" width="10" x="752.5" y="208.4922"/><rect fill="#FFFFFF" height="83.5391" style="stroke:#181818;stroke-width:1.0;" width="10" x="1187.5" y="264.1953"/><ellipse cx="7.5" cy="86.8203" fill="none" rx="4" ry="4" style="stroke:#181818;stroke-width:1.5;"/><polygon fill="#181818" points="172,83.5703,182,87.5703,172,91.5703,176,87.5703" style="stroke:#181818;stroke-width:1.0;"/><line style="stroke:#181818;stroke-width:1.0;" x1="12" x2="178" y1="87.5703" y2="87.5703"/><text fill="#000000" font-family="sans-serif" font-size="13" lengthAdjust="spacing" textLength="152" x="15" y="82.7139">GET (/api/patients/search)</text><polygon fill="#181818" points="371,113.9219,381,117.9219,371,121.9219,375,117.9219" style="stroke:#181818;stroke-width:1.0;"/><line style="stroke:#181818;stroke-width:1.0;" x1="194" x2="377" y1="117.9219" y2="117.9219"/><text fill="#000000" font-family="sans-serif" font-size="13" lengthAdjust="spacing" textLength="26" x="201" y="113.0654">GET</text><polygon fill="#181818" points="555,144.2734,565,148.2734,555,152.2734,559,148.2734" style="stroke:#181818;stroke-width:1.0;"/><line style="stroke:#181818;stroke-width:1.0;" x1="393" x2="561" y1="148.2734" y2="148.2734"/><text fill="#000000" font-family="sans-serif" font-size="13" lengthAdjust="spacing" textLength="150" x="400" y="143.417">recieves request body info</text><rect fill="#E2E2F0" height="49.2188" rx="2.5" ry="2.5" style="stroke:#181818;stroke-width:0.5;" width="128" x="567" y="125.9219"/><text fill="#000000" font-family="sans-serif" font-size="14" font-style="italic" lengthAdjust="spacing" textLength="46" x="608" y="147.4551">&#171;DTO&#187;</text><text fill="#000000" font-family="sans-serif" font-size="14" lengthAdjust="spacing" textLength="114" x="574" y="165.0645">SearchFiltersDTO</text><polygon fill="#181818" points="740.5,204.4922,750.5,208.4922,740.5,212.4922,744.5,208.4922" style="stroke:#181818;stroke-width:1.0;"/><line style="stroke:#181818;stroke-width:1.0;" x1="393" x2="746.5" y1="208.4922" y2="208.4922"/><text fill="#000000" font-family="sans-serif" font-size="13" lengthAdjust="spacing" textLength="113" x="400" y="203.6357">searchPatients(dto)</text><path d="M695,223.4922 L756,223.4922 L756,231.8438 L746,241.8438 L695,241.8438 L695,223.4922 " fill="#EEEEEE" style="stroke:#000000;stroke-width:1.5;"/><rect fill="none" height="94.8906" style="stroke:#000000;stroke-width:1.5;" width="570.5" x="695" y="223.4922"/><text fill="#000000" font-family="sans-serif" font-size="13" font-weight="bold" lengthAdjust="spacing" textLength="16" x="710" y="237.9873">alt</text><text fill="#000000" font-family="sans-serif" font-size="11" font-weight="bold" lengthAdjust="spacing" textLength="162" x="771" y="236.9111">[multiple filters are provided]</text><polygon fill="#181818" points="1175.5,260.1953,1185.5,264.1953,1175.5,268.1953,1179.5,264.1953" style="stroke:#181818;stroke-width:1.0;"/><line style="stroke:#181818;stroke-width:1.0;" x1="762.5" x2="1181.5" y1="264.1953" y2="264.1953"/><text fill="#000000" font-family="sans-serif" font-size="13" lengthAdjust="spacing" textLength="406" x="769.5" y="259.3389">getByMultipleFilters(medicalRecordNumber, name, email, dateOfBirth)</text><line style="stroke:#000000;stroke-width:1.0;stroke-dasharray:2.0,2.0;" x1="695" x2="1265.5" y1="273.1953" y2="273.1953"/><text fill="#000000" font-family="sans-serif" font-size="11" font-weight="bold" lengthAdjust="spacing" textLength="110" x="700" y="284.6143">[no filters provided]</text><polygon fill="#181818" points="1175.5,306.3828,1185.5,310.3828,1175.5,314.3828,1179.5,310.3828" style="stroke:#181818;stroke-width:1.0;"/><line style="stroke:#181818;stroke-width:1.0;" x1="762.5" x2="1181.5" y1="310.3828" y2="310.3828"/><text fill="#000000" font-family="sans-serif" font-size="13" lengthAdjust="spacing" textLength="41" x="769.5" y="305.5264">getAll()</text><polygon fill="#181818" points="773.5,343.7344,763.5,347.7344,773.5,351.7344,769.5,347.7344" style="stroke:#181818;stroke-width:1.0;"/><line style="stroke:#181818;stroke-width:1.0;stroke-dasharray:2.0,2.0;" x1="767.5" x2="1191.5" y1="347.7344" y2="347.7344"/><text fill="#000000" font-family="sans-serif" font-size="13" lengthAdjust="spacing" textLength="46" x="779.5" y="342.8779">patients</text><path d="M695,362.7344 L768,362.7344 L768,371.0859 L758,381.0859 L695,381.0859 L695,362.7344 " fill="#EEEEEE" style="stroke:#000000;stroke-width:1.5;"/><rect fill="none" height="78.5703" style="stroke:#000000;stroke-width:1.5;" width="697.5" x="695" y="362.7344"/><text fill="#000000" font-family="sans-serif" font-size="13" font-weight="bold" lengthAdjust="spacing" textLength="28" x="710" y="377.2295">loop</text><text fill="#000000" font-family="sans-serif" font-size="11" font-weight="bold" lengthAdjust="spacing" textLength="129" x="783" y="376.1533">[for each patient found]</text><polygon fill="#181818" points="1253.5,399.4375,1263.5,403.4375,1253.5,407.4375,1257.5,403.4375" style="stroke:#181818;stroke-width:1.0;"/><line style="stroke:#181818;stroke-width:1.0;" x1="762.5" x2="1259.5" y1="403.4375" y2="403.4375"/><text fill="#000000" font-family="sans-serif" font-size="13" lengthAdjust="spacing" textLength="83" x="769.5" y="398.5811">create(patient)</text><rect fill="#E2E2F0" height="49.2188" rx="2.5" ry="2.5" style="stroke:#181818;stroke-width:0.5;" width="117" x="1265.5" y="381.0859"/><text fill="#000000" font-family="sans-serif" font-size="14" font-style="italic" lengthAdjust="spacing" textLength="46" x="1301" y="402.6191">&#171;DTO&#187;</text><text fill="#000000" font-family="sans-serif" font-size="14" lengthAdjust="spacing" textLength="103" x="1272.5" y="420.2285">ViewPatientDTO</text><polygon fill="#181818" points="404,466.6563,394,470.6563,404,474.6563,400,470.6563" style="stroke:#181818;stroke-width:1.0;"/><line style="stroke:#181818;stroke-width:1.0;stroke-dasharray:2.0,2.0;" x1="398" x2="756.5" y1="470.6563" y2="470.6563"/><text fill="#000000" font-family="sans-serif" font-size="13" lengthAdjust="spacing" textLength="46" x="410" y="465.7998">patients</text><polygon fill="#181818" points="205,497.0078,195,501.0078,205,505.0078,201,501.0078" style="stroke:#181818;stroke-width:1.0;"/><line style="stroke:#181818;stroke-width:1.0;stroke-dasharray:2.0,2.0;" x1="199" x2="387" y1="501.0078" y2="501.0078"/><text fill="#000000" font-family="sans-serif" font-size="13" lengthAdjust="spacing" textLength="165" x="211" y="496.1514">response with list of patients</text><polygon fill="#181818" points="11,527.3594,1,531.3594,11,535.3594,7,531.3594" style="stroke:#181818;stroke-width:1.0;"/><line style="stroke:#181818;stroke-width:1.0;stroke-dasharray:2.0,2.0;" x1="5" x2="183" y1="531.3594" y2="531.3594"/><text fill="#000000" font-family="sans-serif" font-size="13" lengthAdjust="spacing" textLength="165" x="17" y="526.5029">response with list of patients</text><!--SRC=[ZLAxRkim3Dtr5HpT8a7sG0ZGnssdFf0MNJgf4dr3G9PKYKwHlwziox6RPkXYaJ8FUNYEWefCce9o3C-A2HrlVSi8Ai4GIDcVcuq8lsjllEFehSNO0MQPb5Do0dr15VNkZYnZJBUlJnsoEwJCt_DZNZ3kIVUanb3A4fr7R37uHEpZeTzaol8wn-G4-aRuLU25LdSpf_Rkbvj1bZNS_tk5QgK2hSA0IQlKRtOXb6RQgwnTNoe67JDofa-FdmgdFs9Mb25vxkLbhewe2VUOSl3POcBuyEO0v6f_0XZrMSF0fYoKAiD-ngoK2MKPcjOo1OjG3vw0YWWX-ZqPD69is6q-oRY6_yZNXuS2BMvM3HhIocvH-sWUs-O3umASQd01s2Yo2p1v-bDzJP5_27NiBD0c1EUFPFv2vChQwaAWCv3t4H6vZGv6MuJrFa3j8w3Ik_4wNxJkHzDYTY-tZfXfLQLsQDsrcUfFxJnEC_XBvBb3umFgFKt1kxpj5_4EB6LNVNssqUnvoENohms-0G00]--></g></svg>