<?xml version="1.0" encoding="us-ascii" standalone="no"?><svg xmlns="http://www.w3.org/2000/svg" xmlns:xlink="http://www.w3.org/1999/xlink" contentStyleType="text/css" height="939px" preserveAspectRatio="none" style="width:1647px;height:939px;background:#FFFFFF;" version="1.1" viewBox="0 0 1647 939" width="1647px" zoomAndPan="magnify"><defs/><g><rect fill="#FFFFFF" height="779.4688" style="stroke:#181818;stroke-width:1.0;" width="10" x="181" y="87.5703"/><rect fill="#FFFFFF" height="718.7656" style="stroke:#181818;stroke-width:1.0;" width="10" x="271" y="117.9219"/><rect fill="#FFFFFF" height="597.8438" style="stroke:#181818;stroke-width:1.0;" width="10" x="565" y="208.4922"/><rect fill="#FFFFFF" height="41.3516" style="stroke:#181818;stroke-width:1.0;" width="10" x="570" y="246.8438"/><rect fill="#FFFFFF" height="41.3516" style="stroke:#181818;stroke-width:1.0;" width="10" x="570" y="454.9531"/><rect fill="#FFFFFF" height="30.3516" style="stroke:#181818;stroke-width:1.0;" width="10" x="1071.5" y="386.25"/><rect fill="#FFFFFF" height="30.3516" style="stroke:#181818;stroke-width:1.0;" width="10" x="1208.5" y="325.5469"/><rect fill="#FFFFFF" height="30.3516" style="stroke:#181818;stroke-width:1.0;" width="10" x="1346.5" y="533.6563"/><rect fill="#FFFFFF" height="30.3516" style="stroke:#181818;stroke-width:1.0;" width="10" x="1484.5" y="745.6328"/><line style="stroke:#181818;stroke-width:0.5;stroke-dasharray:5.0,5.0;" x1="186" x2="186" y1="55.2188" y2="885.0391"/><line style="stroke:#181818;stroke-width:0.5;stroke-dasharray:5.0,5.0;" x1="276" x2="276" y1="55.2188" y2="885.0391"/><line style="stroke:#181818;stroke-width:0.5;stroke-dasharray:5.0,5.0;" x1="485" x2="485" y1="166.0313" y2="885.0391"/><line style="stroke:#181818;stroke-width:0.5;stroke-dasharray:5.0,5.0;" x1="570" x2="570" y1="55.2188" y2="885.0391"/><line style="stroke:#181818;stroke-width:0.5;stroke-dasharray:5.0,5.0;" x1="847.5" x2="847.5" y1="55.2188" y2="885.0391"/><line style="stroke:#181818;stroke-width:0.5;stroke-dasharray:5.0,5.0;" x1="954.5" x2="954.5" y1="55.2188" y2="885.0391"/><line style="stroke:#181818;stroke-width:0.5;stroke-dasharray:5.0,5.0;" x1="1076.5" x2="1076.5" y1="55.2188" y2="885.0391"/><line style="stroke:#181818;stroke-width:0.5;stroke-dasharray:5.0,5.0;" x1="1213.5" x2="1213.5" y1="55.2188" y2="885.0391"/><line style="stroke:#181818;stroke-width:0.5;stroke-dasharray:5.0,5.0;" x1="1351.5" x2="1351.5" y1="55.2188" y2="885.0391"/><line style="stroke:#181818;stroke-width:0.5;stroke-dasharray:5.0,5.0;" x1="1489.5" x2="1489.5" y1="55.2188" y2="885.0391"/><line style="stroke:#181818;stroke-width:0.5;stroke-dasharray:5.0,5.0;" x1="1602.5" x2="1602.5" y1="612.1172" y2="885.0391"/><rect fill="#E2E2F0" height="49.2188" rx="2.5" ry="2.5" style="stroke:#181818;stroke-width:0.5;" width="68" x="152" y="5"/><text fill="#000000" font-family="sans-serif" font-size="14" font-style="italic" lengthAdjust="spacing" textLength="54" x="159" y="26.5332">&#171;Route&#187;</text><text fill="#000000" font-family="sans-serif" font-size="14" lengthAdjust="spacing" textLength="38" x="167" y="44.1426">Route</text><rect fill="#E2E2F0" height="49.2188" rx="2.5" ry="2.5" style="stroke:#181818;stroke-width:0.5;" width="68" x="152" y="884.0391"/><text fill="#000000" font-family="sans-serif" font-size="14" font-style="italic" lengthAdjust="spacing" textLength="54" x="159" y="905.5723">&#171;Route&#187;</text><text fill="#000000" font-family="sans-serif" font-size="14" lengthAdjust="spacing" textLength="38" x="167" y="923.1816">Route</text><rect fill="#E2E2F0" height="49.2188" rx="2.5" ry="2.5" style="stroke:#181818;stroke-width:0.5;" width="92" x="230" y="5"/><text fill="#000000" font-family="sans-serif" font-size="14" font-style="italic" lengthAdjust="spacing" textLength="78" x="237" y="26.5332">&#171;Controller&#187;</text><text fill="#000000" font-family="sans-serif" font-size="14" lengthAdjust="spacing" textLength="62" x="245" y="44.1426">Controller</text><rect fill="#E2E2F0" height="49.2188" rx="2.5" ry="2.5" style="stroke:#181818;stroke-width:0.5;" width="92" x="230" y="884.0391"/><text fill="#000000" font-family="sans-serif" font-size="14" font-style="italic" lengthAdjust="spacing" textLength="78" x="237" y="905.5723">&#171;Controller&#187;</text><text fill="#000000" font-family="sans-serif" font-size="14" lengthAdjust="spacing" textLength="62" x="245" y="923.1816">Controller</text><rect fill="#E2E2F0" height="49.2188" rx="2.5" ry="2.5" style="stroke:#181818;stroke-width:0.5;" width="60" x="455" y="884.0391"/><text fill="#000000" font-family="sans-serif" font-size="14" font-style="italic" lengthAdjust="spacing" textLength="46" x="462" y="905.5723">&#171;DTO&#187;</text><text fill="#000000" font-family="sans-serif" font-size="14" lengthAdjust="spacing" textLength="30" x="470" y="923.1816">DTO</text><rect fill="#E2E2F0" height="49.2188" rx="2.5" ry="2.5" style="stroke:#181818;stroke-width:0.5;" width="90" x="525" y="5"/><text fill="#000000" font-family="sans-serif" font-size="14" font-style="italic" lengthAdjust="spacing" textLength="62" x="539" y="26.5332">&#171;Service&#187;</text><text fill="#000000" font-family="sans-serif" font-size="14" lengthAdjust="spacing" textLength="76" x="532" y="44.1426">UserService</text><rect fill="#E2E2F0" height="49.2188" rx="2.5" ry="2.5" style="stroke:#181818;stroke-width:0.5;" width="90" x="525" y="884.0391"/><text fill="#000000" font-family="sans-serif" font-size="14" font-style="italic" lengthAdjust="spacing" textLength="62" x="539" y="905.5723">&#171;Service&#187;</text><text fill="#000000" font-family="sans-serif" font-size="14" lengthAdjust="spacing" textLength="76" x="532" y="923.1816">UserService</text><rect fill="#E2E2F0" height="49.2188" rx="2.5" ry="2.5" style="stroke:#181818;stroke-width:0.5;" width="95" x="800.5" y="5"/><text fill="#000000" font-family="sans-serif" font-size="14" font-style="italic" lengthAdjust="spacing" textLength="62" x="817" y="26.5332">&#171;Service&#187;</text><text fill="#000000" font-family="sans-serif" font-size="14" lengthAdjust="spacing" textLength="81" x="807.5" y="44.1426">EmailService</text><rect fill="#E2E2F0" height="49.2188" rx="2.5" ry="2.5" style="stroke:#181818;stroke-width:0.5;" width="95" x="800.5" y="884.0391"/><text fill="#000000" font-family="sans-serif" font-size="14" font-style="italic" lengthAdjust="spacing" textLength="62" x="817" y="905.5723">&#171;Service&#187;</text><text fill="#000000" font-family="sans-serif" font-size="14" lengthAdjust="spacing" textLength="81" x="807.5" y="923.1816">EmailService</text><rect fill="#E2E2F0" height="49.2188" rx="2.5" ry="2.5" style="stroke:#181818;stroke-width:0.5;" width="98" x="905.5" y="5"/><text fill="#000000" font-family="sans-serif" font-size="14" font-style="italic" lengthAdjust="spacing" textLength="84" x="912.5" y="26.5332">&#171;Repository&#187;</text><text fill="#000000" font-family="sans-serif" font-size="14" lengthAdjust="spacing" textLength="68" x="920.5" y="44.1426">Repository</text><rect fill="#E2E2F0" height="49.2188" rx="2.5" ry="2.5" style="stroke:#181818;stroke-width:0.5;" width="98" x="905.5" y="884.0391"/><text fill="#000000" font-family="sans-serif" font-size="14" font-style="italic" lengthAdjust="spacing" textLength="84" x="912.5" y="905.5723">&#171;Repository&#187;</text><text fill="#000000" font-family="sans-serif" font-size="14" lengthAdjust="spacing" textLength="68" x="920.5" y="923.1816">Repository</text><rect fill="#E2E2F0" height="49.2188" rx="2.5" ry="2.5" style="stroke:#181818;stroke-width:0.5;" width="126" x="1013.5" y="5"/><text fill="#000000" font-family="sans-serif" font-size="14" font-style="italic" lengthAdjust="spacing" textLength="84" x="1034.5" y="26.5332">&#171;Repository&#187;</text><text fill="#000000" font-family="sans-serif" font-size="14" lengthAdjust="spacing" textLength="112" x="1020.5" y="44.1426">PatientRepository</text><rect fill="#E2E2F0" height="49.2188" rx="2.5" ry="2.5" style="stroke:#181818;stroke-width:0.5;" width="126" x="1013.5" y="884.0391"/><text fill="#000000" font-family="sans-serif" font-size="14" font-style="italic" lengthAdjust="spacing" textLength="84" x="1034.5" y="905.5723">&#171;Repository&#187;</text><text fill="#000000" font-family="sans-serif" font-size="14" lengthAdjust="spacing" textLength="112" x="1020.5" y="923.1816">PatientRepository</text><rect fill="#E2E2F0" height="49.2188" rx="2.5" ry="2.5" style="stroke:#181818;stroke-width:0.5;" width="128" x="1149.5" y="5"/><text fill="#000000" font-family="sans-serif" font-size="14" font-style="italic" lengthAdjust="spacing" textLength="114" x="1156.5" y="26.5332">&#171;Domain Service&#187;</text><text fill="#000000" font-family="sans-serif" font-size="14" lengthAdjust="spacing" textLength="98" x="1164.5" y="44.1426">PasswordPolicy</text><rect fill="#E2E2F0" height="49.2188" rx="2.5" ry="2.5" style="stroke:#181818;stroke-width:0.5;" width="128" x="1149.5" y="884.0391"/><text fill="#000000" font-family="sans-serif" font-size="14" font-style="italic" lengthAdjust="spacing" textLength="114" x="1156.5" y="905.5723">&#171;Domain Service&#187;</text><text fill="#000000" font-family="sans-serif" font-size="14" lengthAdjust="spacing" textLength="98" x="1164.5" y="923.1816">PasswordPolicy</text><rect fill="#E2E2F0" height="49.2188" rx="2.5" ry="2.5" style="stroke:#181818;stroke-width:0.5;" width="128" x="1287.5" y="5"/><text fill="#000000" font-family="sans-serif" font-size="14" font-style="italic" lengthAdjust="spacing" textLength="114" x="1294.5" y="26.5332">&#171;Domain Service&#187;</text><text fill="#000000" font-family="sans-serif" font-size="14" lengthAdjust="spacing" textLength="106" x="1298.5" y="44.1426">PasswordHasher</text><rect fill="#E2E2F0" height="49.2188" rx="2.5" ry="2.5" style="stroke:#181818;stroke-width:0.5;" width="128" x="1287.5" y="884.0391"/><text fill="#000000" font-family="sans-serif" font-size="14" font-style="italic" lengthAdjust="spacing" textLength="114" x="1294.5" y="905.5723">&#171;Domain Service&#187;</text><text fill="#000000" font-family="sans-serif" font-size="14" lengthAdjust="spacing" textLength="106" x="1298.5" y="923.1816">PasswordHasher</text><rect fill="#E2E2F0" height="49.2188" rx="2.5" ry="2.5" style="stroke:#181818;stroke-width:0.5;" width="128" x="1425.5" y="5"/><text fill="#000000" font-family="sans-serif" font-size="14" font-style="italic" lengthAdjust="spacing" textLength="114" x="1432.5" y="26.5332">&#171;Domain Service&#187;</text><text fill="#000000" font-family="sans-serif" font-size="14" lengthAdjust="spacing" textLength="48" x="1465.5" y="44.1426">Mapper</text><rect fill="#E2E2F0" height="49.2188" rx="2.5" ry="2.5" style="stroke:#181818;stroke-width:0.5;" width="128" x="1425.5" y="884.0391"/><text fill="#000000" font-family="sans-serif" font-size="14" font-style="italic" lengthAdjust="spacing" textLength="114" x="1432.5" y="905.5723">&#171;Domain Service&#187;</text><text fill="#000000" font-family="sans-serif" font-size="14" lengthAdjust="spacing" textLength="48" x="1465.5" y="923.1816">Mapper</text><rect fill="#E2E2F0" height="49.2188" rx="2.5" ry="2.5" style="stroke:#181818;stroke-width:0.5;" width="78" x="1563.5" y="884.0391"/><text fill="#000000" font-family="sans-serif" font-size="14" font-style="italic" lengthAdjust="spacing" textLength="64" x="1570.5" y="905.5723">&#171;Domain&#187;</text><text fill="#000000" font-family="sans-serif" font-size="14" lengthAdjust="spacing" textLength="48" x="1578.5" y="923.1816">Domain</text><rect fill="#FFFFFF" height="779.4688" style="stroke:#181818;stroke-width:1.0;" width="10" x="181" y="87.5703"/><rect fill="#FFFFFF" height="718.7656" style="stroke:#181818;stroke-width:1.0;" width="10" x="271" y="117.9219"/><rect fill="#FFFFFF" height="597.8438" style="stroke:#181818;stroke-width:1.0;" width="10" x="565" y="208.4922"/><rect fill="#FFFFFF" height="41.3516" style="stroke:#181818;stroke-width:1.0;" width="10" x="570" y="246.8438"/><rect fill="#FFFFFF" height="41.3516" style="stroke:#181818;stroke-width:1.0;" width="10" x="570" y="454.9531"/><rect fill="#FFFFFF" height="30.3516" style="stroke:#181818;stroke-width:1.0;" width="10" x="1071.5" y="386.25"/><rect fill="#FFFFFF" height="30.3516" style="stroke:#181818;stroke-width:1.0;" width="10" x="1208.5" y="325.5469"/><rect fill="#FFFFFF" height="30.3516" style="stroke:#181818;stroke-width:1.0;" width="10" x="1346.5" y="533.6563"/><rect fill="#FFFFFF" height="30.3516" style="stroke:#181818;stroke-width:1.0;" width="10" x="1484.5" y="745.6328"/><ellipse cx="7.5" cy="86.8203" fill="none" rx="4" ry="4" style="stroke:#181818;stroke-width:1.5;"/><polygon fill="#181818" points="169,83.5703,179,87.5703,169,91.5703,173,87.5703" style="stroke:#181818;stroke-width:1.0;"/><line style="stroke:#181818;stroke-width:1.0;" x1="12" x2="175" y1="87.5703" y2="87.5703"/><text fill="#000000" font-family="sans-serif" font-size="13" lengthAdjust="spacing" textLength="154" x="15" y="82.7139">POST (/api/users/patients)</text><polygon fill="#181818" points="259,113.9219,269,117.9219,259,121.9219,263,117.9219" style="stroke:#181818;stroke-width:1.0;"/><line style="stroke:#181818;stroke-width:1.0;" x1="191" x2="265" y1="117.9219" y2="117.9219"/><text fill="#000000" font-family="sans-serif" font-size="13" lengthAdjust="spacing" textLength="35" x="198" y="113.0654">POST</text><polygon fill="#181818" points="443,144.2734,453,148.2734,443,152.2734,447,148.2734" style="stroke:#181818;stroke-width:1.0;"/><line style="stroke:#181818;stroke-width:1.0;" x1="281" x2="449" y1="148.2734" y2="148.2734"/><text fill="#000000" font-family="sans-serif" font-size="13" lengthAdjust="spacing" textLength="150" x="288" y="143.417">recieves request body info</text><rect fill="#E2E2F0" height="49.2188" rx="2.5" ry="2.5" style="stroke:#181818;stroke-width:0.5;" width="60" x="455" y="125.9219"/><text fill="#000000" font-family="sans-serif" font-size="14" font-style="italic" lengthAdjust="spacing" textLength="46" x="462" y="147.4551">&#171;DTO&#187;</text><text fill="#000000" font-family="sans-serif" font-size="14" lengthAdjust="spacing" textLength="30" x="470" y="165.0645">DTO</text><polygon fill="#181818" points="553,204.4922,563,208.4922,553,212.4922,557,208.4922" style="stroke:#181818;stroke-width:1.0;"/><line style="stroke:#181818;stroke-width:1.0;" x1="281" x2="559" y1="208.4922" y2="208.4922"/><text fill="#000000" font-family="sans-serif" font-size="13" lengthAdjust="spacing" textLength="162" x="288" y="203.6357">register patient's user profile</text><line style="stroke:#181818;stroke-width:1.0;" x1="575" x2="622" y1="233.8438" y2="233.8438"/><line style="stroke:#181818;stroke-width:1.0;" x1="622" x2="622" y1="233.8438" y2="246.8438"/><line style="stroke:#181818;stroke-width:1.0;" x1="581" x2="622" y1="246.8438" y2="246.8438"/><polygon fill="#181818" points="591,242.8438,581,246.8438,591,250.8438,587,246.8438" style="stroke:#181818;stroke-width:1.0;"/><text fill="#000000" font-family="sans-serif" font-size="13" lengthAdjust="spacing" textLength="173" x="587" y="228.9873">validates if the email is unique</text><line style="stroke:#181818;stroke-width:1.0;stroke-dasharray:2.0,2.0;" x1="580" x2="622" y1="287.1953" y2="287.1953"/><line style="stroke:#181818;stroke-width:1.0;stroke-dasharray:2.0,2.0;" x1="622" x2="622" y1="287.1953" y2="300.1953"/><line style="stroke:#181818;stroke-width:1.0;stroke-dasharray:2.0,2.0;" x1="575" x2="622" y1="300.1953" y2="300.1953"/><polygon fill="#181818" points="585,296.1953,575,300.1953,585,304.1953,581,300.1953" style="stroke:#181818;stroke-width:1.0;"/><text fill="#000000" font-family="sans-serif" font-size="13" lengthAdjust="spacing" textLength="20" x="587" y="282.3389">flag</text><polygon fill="#181818" points="1196.5,321.5469,1206.5,325.5469,1196.5,329.5469,1200.5,325.5469" style="stroke:#181818;stroke-width:1.0;"/><line style="stroke:#181818;stroke-width:1.0;" x1="575" x2="1202.5" y1="325.5469" y2="325.5469"/><text fill="#000000" font-family="sans-serif" font-size="13" lengthAdjust="spacing" textLength="207" x="582" y="320.6904">validates if the password is satisfied</text><polygon fill="#181818" points="586,351.8984,576,355.8984,586,359.8984,582,355.8984" style="stroke:#181818;stroke-width:1.0;"/><line style="stroke:#181818;stroke-width:1.0;stroke-dasharray:2.0,2.0;" x1="580" x2="1212.5" y1="355.8984" y2="355.8984"/><text fill="#000000" font-family="sans-serif" font-size="13" lengthAdjust="spacing" textLength="20" x="592" y="351.042">flag</text><polygon fill="#181818" points="1059.5,382.25,1069.5,386.25,1059.5,390.25,1063.5,386.25" style="stroke:#181818;stroke-width:1.0;"/><line style="stroke:#181818;stroke-width:1.0;" x1="575" x2="1065.5" y1="386.25" y2="386.25"/><text fill="#000000" font-family="sans-serif" font-size="13" lengthAdjust="spacing" textLength="328" x="582" y="381.3936">finds patient by name, email, phone number and address</text><polygon fill="#181818" points="586,412.6016,576,416.6016,586,420.6016,582,416.6016" style="stroke:#181818;stroke-width:1.0;"/><line style="stroke:#181818;stroke-width:1.0;stroke-dasharray:2.0,2.0;" x1="580" x2="1075.5" y1="416.6016" y2="416.6016"/><text fill="#000000" font-family="sans-serif" font-size="13" lengthAdjust="spacing" textLength="39" x="592" y="411.7451">patient</text><line style="stroke:#181818;stroke-width:1.0;" x1="575" x2="622" y1="441.9531" y2="441.9531"/><line style="stroke:#181818;stroke-width:1.0;" x1="622" x2="622" y1="441.9531" y2="454.9531"/><line style="stroke:#181818;stroke-width:1.0;" x1="581" x2="622" y1="454.9531" y2="454.9531"/><polygon fill="#181818" points="591,450.9531,581,454.9531,591,458.9531,587,454.9531" style="stroke:#181818;stroke-width:1.0;"/><text fill="#000000" font-family="sans-serif" font-size="13" lengthAdjust="spacing" textLength="254" x="587" y="437.0967">validates the patient has no user associated</text><line style="stroke:#181818;stroke-width:1.0;stroke-dasharray:2.0,2.0;" x1="580" x2="622" y1="495.3047" y2="495.3047"/><line style="stroke:#181818;stroke-width:1.0;stroke-dasharray:2.0,2.0;" x1="622" x2="622" y1="495.3047" y2="508.3047"/><line style="stroke:#181818;stroke-width:1.0;stroke-dasharray:2.0,2.0;" x1="575" x2="622" y1="508.3047" y2="508.3047"/><polygon fill="#181818" points="585,504.3047,575,508.3047,585,512.3047,581,508.3047" style="stroke:#181818;stroke-width:1.0;"/><text fill="#000000" font-family="sans-serif" font-size="13" lengthAdjust="spacing" textLength="20" x="587" y="490.4482">flag</text><polygon fill="#181818" points="1334.5,529.6563,1344.5,533.6563,1334.5,537.6563,1338.5,533.6563" style="stroke:#181818;stroke-width:1.0;"/><line style="stroke:#181818;stroke-width:1.0;" x1="575" x2="1340.5" y1="533.6563" y2="533.6563"/><text fill="#000000" font-family="sans-serif" font-size="13" lengthAdjust="spacing" textLength="109" x="582" y="528.7998">hash the password</text><polygon fill="#181818" points="586,560.0078,576,564.0078,586,568.0078,582,564.0078" style="stroke:#181818;stroke-width:1.0;"/><line style="stroke:#181818;stroke-width:1.0;stroke-dasharray:2.0,2.0;" x1="580" x2="1350.5" y1="564.0078" y2="564.0078"/><text fill="#000000" font-family="sans-serif" font-size="13" lengthAdjust="spacing" textLength="85" x="592" y="559.1514">passwordHash</text><polygon fill="#181818" points="1551.5,590.3594,1561.5,594.3594,1551.5,598.3594,1555.5,594.3594" style="stroke:#181818;stroke-width:1.0;"/><line style="stroke:#181818;stroke-width:1.0;" x1="575" x2="1557.5" y1="594.3594" y2="594.3594"/><text fill="#000000" font-family="sans-serif" font-size="13" lengthAdjust="spacing" textLength="256" x="582" y="589.5029">creates patient user with the email and hash</text><rect fill="#E2E2F0" height="49.2188" rx="2.5" ry="2.5" style="stroke:#181818;stroke-width:0.5;" width="78" x="1563.5" y="572.0078"/><text fill="#000000" font-family="sans-serif" font-size="14" font-style="italic" lengthAdjust="spacing" textLength="64" x="1570.5" y="593.541">&#171;Domain&#187;</text><text fill="#000000" font-family="sans-serif" font-size="14" lengthAdjust="spacing" textLength="48" x="1578.5" y="611.1504">Domain</text><polygon fill="#181818" points="1590.5,650.5781,1600.5,654.5781,1590.5,658.5781,1594.5,654.5781" style="stroke:#181818;stroke-width:1.0;"/><line style="stroke:#181818;stroke-width:1.0;" x1="575" x2="1596.5" y1="654.5781" y2="654.5781"/><text fill="#000000" font-family="sans-serif" font-size="13" lengthAdjust="spacing" textLength="157" x="582" y="649.7217">sets the confirmation token</text><polygon fill="#181818" points="942.5,680.9297,952.5,684.9297,942.5,688.9297,946.5,684.9297" style="stroke:#181818;stroke-width:1.0;"/><line style="stroke:#181818;stroke-width:1.0;" x1="575" x2="948.5" y1="684.9297" y2="684.9297"/><text fill="#000000" font-family="sans-serif" font-size="13" lengthAdjust="spacing" textLength="98" x="582" y="680.0732">saves user in DB</text><polygon fill="#181818" points="836,711.2813,846,715.2813,836,719.2813,840,715.2813" style="stroke:#181818;stroke-width:1.0;"/><line style="stroke:#181818;stroke-width:1.0;" x1="575" x2="842" y1="715.2813" y2="715.2813"/><text fill="#000000" font-family="sans-serif" font-size="13" lengthAdjust="spacing" textLength="144" x="582" y="710.4248">sends confirmation email</text><polygon fill="#181818" points="1472.5,741.6328,1482.5,745.6328,1472.5,749.6328,1476.5,745.6328" style="stroke:#181818;stroke-width:1.0;"/><line style="stroke:#181818;stroke-width:1.0;" x1="575" x2="1478.5" y1="745.6328" y2="745.6328"/><text fill="#000000" font-family="sans-serif" font-size="13" lengthAdjust="spacing" textLength="77" x="582" y="740.7764">entity to DTO</text><polygon fill="#181818" points="586,771.9844,576,775.9844,586,779.9844,582,775.9844" style="stroke:#181818;stroke-width:1.0;"/><line style="stroke:#181818;stroke-width:1.0;stroke-dasharray:2.0,2.0;" x1="580" x2="1488.5" y1="775.9844" y2="775.9844"/><text fill="#000000" font-family="sans-serif" font-size="13" lengthAdjust="spacing" textLength="26" x="592" y="771.1279">DTO</text><polygon fill="#181818" points="292,802.3359,282,806.3359,292,810.3359,288,806.3359" style="stroke:#181818;stroke-width:1.0;"/><line style="stroke:#181818;stroke-width:1.0;stroke-dasharray:2.0,2.0;" x1="286" x2="569" y1="806.3359" y2="806.3359"/><text fill="#000000" font-family="sans-serif" font-size="13" lengthAdjust="spacing" textLength="26" x="298" y="801.4795">DTO</text><polygon fill="#181818" points="202,832.6875,192,836.6875,202,840.6875,198,836.6875" style="stroke:#181818;stroke-width:1.0;"/><line style="stroke:#181818;stroke-width:1.0;stroke-dasharray:2.0,2.0;" x1="196" x2="275" y1="836.6875" y2="836.6875"/><text fill="#000000" font-family="sans-serif" font-size="13" lengthAdjust="spacing" textLength="53" x="208" y="831.8311">response</text><polygon fill="#181818" points="11,863.0391,1,867.0391,11,871.0391,7,867.0391" style="stroke:#181818;stroke-width:1.0;"/><line style="stroke:#181818;stroke-width:1.0;stroke-dasharray:2.0,2.0;" x1="5" x2="185" y1="867.0391" y2="867.0391"/><text fill="#000000" font-family="sans-serif" font-size="13" lengthAdjust="spacing" textLength="53" x="17" y="862.1826">response</text><!--SRC=[ZLJ1Rjim3BtxAtZRLZJ8FJ1os3fWbw51svrsKcow9kP8cgYaoD-FikH9TbAa5vkotdkao2TRvJmrP9Nsy6IE7a5n2kfwV6-tbIr0tupspWm3ke0iLdMT5mlEmyjZ08TNNSjpiVsBqJsZEr4pPf_2kaxH0lxze6WeyBFrUwGdj8R96tSU3vXNSih_YmLdfpoXzdFgvSUv0YmacD-CQtTce2RoOoHzC5AtXklbJhmVYllOwHJTuFrKraPyYcxWqsOOJemclE1-czKsMc43kyVd5_YyLfRMHvaMhsri0t-fLEFffCGl8xIAtX5cOOt8pyYyLHKeuOWtxku4xh0XF25ByFU8x65lsZEGxio2C8qzK5w9lNnDbNrY29M2TQQZ0NFoHAacwapbf0Pg1SL07VWU0OEvW4HCavHoAUFG7vs6Rb2lfMGQynL5cqORH5bgvOwmpRgH-AxiXVisq95kUJesxC-WrG7lO-NtO7kZ4VJni0- -q2sejdN8N6HSQax9a-IjJiL3nUozE4cRs7avfsb88Es7kvPClWaw_QnRMI9YSetvefHAqSMZcHg7OvrJZMDnR-JxOi2XCVrL2H5WzF6KZT4TkOFe60tU_45TucT3OHNiEwOIZOUl9N3smmhoONupxR6eaf9kymRa0EJFaZpSbToKk3yr9MnTXZ9rQpHZLQzMwHU_oHzRN5pawXy0]--></g></svg>