<?xml version="1.0" encoding="us-ascii" standalone="no"?><svg xmlns="http://www.w3.org/2000/svg" xmlns:xlink="http://www.w3.org/1999/xlink" contentStyleType="text/css" height="964px" preserveAspectRatio="none" style="width:2233px;height:964px;background:#FFFFFF;" version="1.1" viewBox="0 0 2233 964" width="2233px" zoomAndPan="magnify"><defs/><g><rect fill="#FFFFFF" height="804.9844" style="stroke:#181818;stroke-width:1.0;" width="10" x="181" y="87.5703"/><rect fill="#FFFFFF" height="744.2813" style="stroke:#181818;stroke-width:1.0;" width="10" x="284" y="117.9219"/><rect fill="#FFFFFF" height="623.3594" style="stroke:#181818;stroke-width:1.0;" width="10" x="1185" y="208.4922"/><rect fill="#FFFFFF" height="41.3516" style="stroke:#181818;stroke-width:1.0;" width="10" x="1190" y="246.8438"/><rect fill="#FFFFFF" height="41.3516" style="stroke:#181818;stroke-width:1.0;" width="10" x="1190" y="333.5469"/><rect fill="#FFFFFF" height="41.3516" style="stroke:#181818;stroke-width:1.0;" width="10" x="1190" y="480.9531"/><rect fill="#FFFFFF" height="30.3516" style="stroke:#181818;stroke-width:1.0;" width="10" x="2071" y="412.25"/><line style="stroke:#181818;stroke-width:0.5;stroke-dasharray:5.0,5.0;" x1="185.5" x2="185.5" y1="55.2188" y2="910.5547"/><line style="stroke:#181818;stroke-width:0.5;stroke-dasharray:5.0,5.0;" x1="288.5" x2="288.5" y1="55.2188" y2="910.5547"/><line style="stroke:#181818;stroke-width:0.5;stroke-dasharray:5.0,5.0;" x1="548" x2="548" y1="166.0313" y2="910.5547"/><line style="stroke:#181818;stroke-width:0.5;stroke-dasharray:5.0,5.0;" x1="748" x2="748" y1="789.3906" y2="910.5547"/><line style="stroke:#181818;stroke-width:0.5;stroke-dasharray:5.0,5.0;" x1="1190" x2="1190" y1="55.2188" y2="910.5547"/><line style="stroke:#181818;stroke-width:0.5;stroke-dasharray:5.0,5.0;" x1="1411" x2="1411" y1="55.2188" y2="910.5547"/><line style="stroke:#181818;stroke-width:0.5;stroke-dasharray:5.0,5.0;" x1="1528" x2="1528" y1="55.2188" y2="910.5547"/><line style="stroke:#181818;stroke-width:0.5;stroke-dasharray:5.0,5.0;" x1="1734" x2="1734" y1="55.2188" y2="910.5547"/><line style="stroke:#181818;stroke-width:0.5;stroke-dasharray:5.0,5.0;" x1="1947" x2="1947" y1="55.2188" y2="910.5547"/><line style="stroke:#181818;stroke-width:0.5;stroke-dasharray:5.0,5.0;" x1="2076" x2="2076" y1="55.2188" y2="910.5547"/><line style="stroke:#181818;stroke-width:0.5;stroke-dasharray:5.0,5.0;" x1="2188" x2="2188" y1="607.7656" y2="910.5547"/><rect fill="#E2E2F0" height="49.2188" rx="2.5" ry="2.5" style="stroke:#181818;stroke-width:0.5;" width="81" x="145.5" y="5"/><text fill="#000000" font-family="sans-serif" font-size="14" font-style="italic" lengthAdjust="spacing" textLength="54" x="159" y="26.5332">&#171;Route&#187;</text><text fill="#000000" font-family="sans-serif" font-size="14" lengthAdjust="spacing" textLength="67" x="152.5" y="44.1426">UserRoute</text><rect fill="#E2E2F0" height="49.2188" rx="2.5" ry="2.5" style="stroke:#181818;stroke-width:0.5;" width="81" x="145.5" y="909.5547"/><text fill="#000000" font-family="sans-serif" font-size="14" font-style="italic" lengthAdjust="spacing" textLength="54" x="159" y="931.0879">&#171;Route&#187;</text><text fill="#000000" font-family="sans-serif" font-size="14" lengthAdjust="spacing" textLength="67" x="152.5" y="948.6973">UserRoute</text><rect fill="#E2E2F0" height="49.2188" rx="2.5" ry="2.5" style="stroke:#181818;stroke-width:0.5;" width="105" x="236.5" y="5"/><text fill="#000000" font-family="sans-serif" font-size="14" font-style="italic" lengthAdjust="spacing" textLength="78" x="250" y="26.5332">&#171;Controller&#187;</text><text fill="#000000" font-family="sans-serif" font-size="14" lengthAdjust="spacing" textLength="91" x="243.5" y="44.1426">UserController</text><rect fill="#E2E2F0" height="49.2188" rx="2.5" ry="2.5" style="stroke:#181818;stroke-width:0.5;" width="105" x="236.5" y="909.5547"/><text fill="#000000" font-family="sans-serif" font-size="14" font-style="italic" lengthAdjust="spacing" textLength="78" x="250" y="931.0879">&#171;Controller&#187;</text><text fill="#000000" font-family="sans-serif" font-size="14" lengthAdjust="spacing" textLength="91" x="243.5" y="948.6973">UserController</text><rect fill="#E2E2F0" height="49.2188" rx="2.5" ry="2.5" style="stroke:#181818;stroke-width:0.5;" width="160" x="468" y="909.5547"/><text fill="#000000" font-family="sans-serif" font-size="14" font-style="italic" lengthAdjust="spacing" textLength="46" x="525" y="931.0879">&#171;DTO&#187;</text><text fill="#000000" font-family="sans-serif" font-size="14" lengthAdjust="spacing" textLength="146" x="475" y="948.6973">RegisteringPatientDTO</text><rect fill="#E2E2F0" height="49.2188" rx="2.5" ry="2.5" style="stroke:#181818;stroke-width:0.5;" width="221" x="638" y="909.5547"/><text fill="#000000" font-family="sans-serif" font-size="14" font-style="italic" lengthAdjust="spacing" textLength="46" x="725.5" y="931.0879">&#171;DTO&#187;</text><text fill="#000000" font-family="sans-serif" font-size="14" lengthAdjust="spacing" textLength="207" x="645" y="948.6973">ConfirmationRegisterPatientDTO</text><rect fill="#E2E2F0" height="49.2188" rx="2.5" ry="2.5" style="stroke:#181818;stroke-width:0.5;" width="90" x="1145" y="5"/><text fill="#000000" font-family="sans-serif" font-size="14" font-style="italic" lengthAdjust="spacing" textLength="62" x="1159" y="26.5332">&#171;Service&#187;</text><text fill="#000000" font-family="sans-serif" font-size="14" lengthAdjust="spacing" textLength="76" x="1152" y="44.1426">UserService</text><rect fill="#E2E2F0" height="49.2188" rx="2.5" ry="2.5" style="stroke:#181818;stroke-width:0.5;" width="90" x="1145" y="909.5547"/><text fill="#000000" font-family="sans-serif" font-size="14" font-style="italic" lengthAdjust="spacing" textLength="62" x="1159" y="931.0879">&#171;Service&#187;</text><text fill="#000000" font-family="sans-serif" font-size="14" lengthAdjust="spacing" textLength="76" x="1152" y="948.6973">UserService</text><rect fill="#E2E2F0" height="49.2188" rx="2.5" ry="2.5" style="stroke:#181818;stroke-width:0.5;" width="120" x="1351" y="5"/><text fill="#000000" font-family="sans-serif" font-size="14" font-style="italic" lengthAdjust="spacing" textLength="62" x="1380" y="26.5332">&#171;Service&#187;</text><text fill="#000000" font-family="sans-serif" font-size="14" lengthAdjust="spacing" textLength="106" x="1358" y="44.1426">PasswordHasher</text><rect fill="#E2E2F0" height="49.2188" rx="2.5" ry="2.5" style="stroke:#181818;stroke-width:0.5;" width="120" x="1351" y="909.5547"/><text fill="#000000" font-family="sans-serif" font-size="14" font-style="italic" lengthAdjust="spacing" textLength="62" x="1380" y="931.0879">&#171;Service&#187;</text><text fill="#000000" font-family="sans-serif" font-size="14" lengthAdjust="spacing" textLength="106" x="1358" y="948.6973">PasswordHasher</text><rect fill="#E2E2F0" height="49.2188" rx="2.5" ry="2.5" style="stroke:#181818;stroke-width:0.5;" width="95" x="1481" y="5"/><text fill="#000000" font-family="sans-serif" font-size="14" font-style="italic" lengthAdjust="spacing" textLength="62" x="1497.5" y="26.5332">&#171;Service&#187;</text><text fill="#000000" font-family="sans-serif" font-size="14" lengthAdjust="spacing" textLength="81" x="1488" y="44.1426">EmailService</text><rect fill="#E2E2F0" height="49.2188" rx="2.5" ry="2.5" style="stroke:#181818;stroke-width:0.5;" width="95" x="1481" y="909.5547"/><text fill="#000000" font-family="sans-serif" font-size="14" font-style="italic" lengthAdjust="spacing" textLength="62" x="1497.5" y="931.0879">&#171;Service&#187;</text><text fill="#000000" font-family="sans-serif" font-size="14" lengthAdjust="spacing" textLength="81" x="1488" y="948.6973">EmailService</text><rect fill="#E2E2F0" height="49.2188" rx="2.5" ry="2.5" style="stroke:#181818;stroke-width:0.5;" width="296" x="1586" y="5"/><text fill="#000000" font-family="sans-serif" font-size="14" font-style="italic" lengthAdjust="spacing" textLength="62" x="1703" y="26.5332">&#171;Service&#187;</text><text fill="#000000" font-family="sans-serif" font-size="14" lengthAdjust="spacing" textLength="282" x="1593" y="44.1426">ConfirmationRegisterPatientTokenGenerator</text><rect fill="#E2E2F0" height="49.2188" rx="2.5" ry="2.5" style="stroke:#181818;stroke-width:0.5;" width="296" x="1586" y="909.5547"/><text fill="#000000" font-family="sans-serif" font-size="14" font-style="italic" lengthAdjust="spacing" textLength="62" x="1703" y="931.0879">&#171;Service&#187;</text><text fill="#000000" font-family="sans-serif" font-size="14" lengthAdjust="spacing" textLength="282" x="1593" y="948.6973">ConfirmationRegisterPatientTokenGenerator</text><rect fill="#E2E2F0" height="49.2188" rx="2.5" ry="2.5" style="stroke:#181818;stroke-width:0.5;" width="111" x="1892" y="5"/><text fill="#000000" font-family="sans-serif" font-size="14" font-style="italic" lengthAdjust="spacing" textLength="84" x="1905.5" y="26.5332">&#171;Repository&#187;</text><text fill="#000000" font-family="sans-serif" font-size="14" lengthAdjust="spacing" textLength="97" x="1899" y="44.1426">UserRepository</text><rect fill="#E2E2F0" height="49.2188" rx="2.5" ry="2.5" style="stroke:#181818;stroke-width:0.5;" width="111" x="1892" y="909.5547"/><text fill="#000000" font-family="sans-serif" font-size="14" font-style="italic" lengthAdjust="spacing" textLength="84" x="1905.5" y="931.0879">&#171;Repository&#187;</text><text fill="#000000" font-family="sans-serif" font-size="14" lengthAdjust="spacing" textLength="97" x="1899" y="948.6973">UserRepository</text><rect fill="#E2E2F0" height="49.2188" rx="2.5" ry="2.5" style="stroke:#181818;stroke-width:0.5;" width="126" x="2013" y="5"/><text fill="#000000" font-family="sans-serif" font-size="14" font-style="italic" lengthAdjust="spacing" textLength="84" x="2034" y="26.5332">&#171;Repository&#187;</text><text fill="#000000" font-family="sans-serif" font-size="14" lengthAdjust="spacing" textLength="112" x="2020" y="44.1426">PatientRepository</text><rect fill="#E2E2F0" height="49.2188" rx="2.5" ry="2.5" style="stroke:#181818;stroke-width:0.5;" width="126" x="2013" y="909.5547"/><text fill="#000000" font-family="sans-serif" font-size="14" font-style="italic" lengthAdjust="spacing" textLength="84" x="2034" y="931.0879">&#171;Repository&#187;</text><text fill="#000000" font-family="sans-serif" font-size="14" lengthAdjust="spacing" textLength="112" x="2020" y="948.6973">PatientRepository</text><rect fill="#E2E2F0" height="49.2188" rx="2.5" ry="2.5" style="stroke:#181818;stroke-width:0.5;" width="78" x="2149" y="909.5547"/><text fill="#000000" font-family="sans-serif" font-size="14" font-style="italic" lengthAdjust="spacing" textLength="64" x="2156" y="931.0879">&#171;Domain&#187;</text><text fill="#000000" font-family="sans-serif" font-size="14" lengthAdjust="spacing" textLength="29" x="2173.5" y="948.6973">User</text><rect fill="#FFFFFF" height="804.9844" style="stroke:#181818;stroke-width:1.0;" width="10" x="181" y="87.5703"/><rect fill="#FFFFFF" height="744.2813" style="stroke:#181818;stroke-width:1.0;" width="10" x="284" y="117.9219"/><rect fill="#FFFFFF" height="623.3594" style="stroke:#181818;stroke-width:1.0;" width="10" x="1185" y="208.4922"/><rect fill="#FFFFFF" height="41.3516" style="stroke:#181818;stroke-width:1.0;" width="10" x="1190" y="246.8438"/><rect fill="#FFFFFF" height="41.3516" style="stroke:#181818;stroke-width:1.0;" width="10" x="1190" y="333.5469"/><rect fill="#FFFFFF" height="41.3516" style="stroke:#181818;stroke-width:1.0;" width="10" x="1190" y="480.9531"/><rect fill="#FFFFFF" height="30.3516" style="stroke:#181818;stroke-width:1.0;" width="10" x="2071" y="412.25"/><ellipse cx="7.5" cy="86.8203" fill="none" rx="4" ry="4" style="stroke:#181818;stroke-width:1.5;"/><polygon fill="#181818" points="169,83.5703,179,87.5703,169,91.5703,173,87.5703" style="stroke:#181818;stroke-width:1.0;"/><line style="stroke:#181818;stroke-width:1.0;" x1="12" x2="175" y1="87.5703" y2="87.5703"/><text fill="#000000" font-family="sans-serif" font-size="13" lengthAdjust="spacing" textLength="154" x="15" y="82.7139">POST (/api/users/patients)</text><polygon fill="#181818" points="272,113.9219,282,117.9219,272,121.9219,276,117.9219" style="stroke:#181818;stroke-width:1.0;"/><line style="stroke:#181818;stroke-width:1.0;" x1="191" x2="278" y1="117.9219" y2="117.9219"/><text fill="#000000" font-family="sans-serif" font-size="13" lengthAdjust="spacing" textLength="35" x="198" y="113.0654">POST</text><polygon fill="#181818" points="456,144.2734,466,148.2734,456,152.2734,460,148.2734" style="stroke:#181818;stroke-width:1.0;"/><line style="stroke:#181818;stroke-width:1.0;" x1="294" x2="462" y1="148.2734" y2="148.2734"/><text fill="#000000" font-family="sans-serif" font-size="13" lengthAdjust="spacing" textLength="150" x="301" y="143.417">recieves request body info</text><rect fill="#E2E2F0" height="49.2188" rx="2.5" ry="2.5" style="stroke:#181818;stroke-width:0.5;" width="160" x="468" y="125.9219"/><text fill="#000000" font-family="sans-serif" font-size="14" font-style="italic" lengthAdjust="spacing" textLength="46" x="525" y="147.4551">&#171;DTO&#187;</text><text fill="#000000" font-family="sans-serif" font-size="14" lengthAdjust="spacing" textLength="146" x="475" y="165.0645">RegisteringPatientDTO</text><polygon fill="#181818" points="1173,204.4922,1183,208.4922,1173,212.4922,1177,208.4922" style="stroke:#181818;stroke-width:1.0;"/><line style="stroke:#181818;stroke-width:1.0;" x1="294" x2="1179" y1="208.4922" y2="208.4922"/><text fill="#000000" font-family="sans-serif" font-size="13" lengthAdjust="spacing" textLength="219" x="301" y="203.6357">registerPatient(registeringPatientDTO)</text><line style="stroke:#181818;stroke-width:1.0;" x1="1195" x2="1242" y1="233.8438" y2="233.8438"/><line style="stroke:#181818;stroke-width:1.0;" x1="1242" x2="1242" y1="233.8438" y2="246.8438"/><line style="stroke:#181818;stroke-width:1.0;" x1="1201" x2="1242" y1="246.8438" y2="246.8438"/><polygon fill="#181818" points="1211,242.8438,1201,246.8438,1211,250.8438,1207,246.8438" style="stroke:#181818;stroke-width:1.0;"/><text fill="#000000" font-family="sans-serif" font-size="13" lengthAdjust="spacing" textLength="165" x="1207" y="228.9873">validateEmailIsUnique(email)</text><line style="stroke:#181818;stroke-width:1.0;stroke-dasharray:2.0,2.0;" x1="1200" x2="1242" y1="287.1953" y2="287.1953"/><line style="stroke:#181818;stroke-width:1.0;stroke-dasharray:2.0,2.0;" x1="1242" x2="1242" y1="287.1953" y2="300.1953"/><line style="stroke:#181818;stroke-width:1.0;stroke-dasharray:2.0,2.0;" x1="1195" x2="1242" y1="300.1953" y2="300.1953"/><polygon fill="#181818" points="1205,296.1953,1195,300.1953,1205,304.1953,1201,300.1953" style="stroke:#181818;stroke-width:1.0;"/><text fill="#000000" font-family="sans-serif" font-size="13" lengthAdjust="spacing" textLength="20" x="1207" y="282.3389">flag</text><line style="stroke:#181818;stroke-width:1.0;" x1="1195" x2="1242" y1="320.5469" y2="320.5469"/><line style="stroke:#181818;stroke-width:1.0;" x1="1242" x2="1242" y1="320.5469" y2="333.5469"/><line style="stroke:#181818;stroke-width:1.0;" x1="1201" x2="1242" y1="333.5469" y2="333.5469"/><polygon fill="#181818" points="1211,329.5469,1201,333.5469,1211,337.5469,1207,333.5469" style="stroke:#181818;stroke-width:1.0;"/><text fill="#000000" font-family="sans-serif" font-size="13" lengthAdjust="spacing" textLength="163" x="1207" y="315.6904">validatePassword(password)</text><line style="stroke:#181818;stroke-width:1.0;stroke-dasharray:2.0,2.0;" x1="1200" x2="1242" y1="373.8984" y2="373.8984"/><line style="stroke:#181818;stroke-width:1.0;stroke-dasharray:2.0,2.0;" x1="1242" x2="1242" y1="373.8984" y2="386.8984"/><line style="stroke:#181818;stroke-width:1.0;stroke-dasharray:2.0,2.0;" x1="1195" x2="1242" y1="386.8984" y2="386.8984"/><polygon fill="#181818" points="1205,382.8984,1195,386.8984,1205,390.8984,1201,386.8984" style="stroke:#181818;stroke-width:1.0;"/><text fill="#000000" font-family="sans-serif" font-size="13" lengthAdjust="spacing" textLength="20" x="1207" y="369.042">flag</text><polygon fill="#181818" points="2059,408.25,2069,412.25,2059,416.25,2063,412.25" style="stroke:#181818;stroke-width:1.0;"/><line style="stroke:#181818;stroke-width:1.0;" x1="1195" x2="2065" y1="412.25" y2="412.25"/><text fill="#000000" font-family="sans-serif" font-size="13" lengthAdjust="spacing" textLength="375" x="1202" y="407.3936">findByNameEmailAndPhoneNumber(name, email, phoneNumber)</text><polygon fill="#181818" points="1206,438.6016,1196,442.6016,1206,446.6016,1202,442.6016" style="stroke:#181818;stroke-width:1.0;"/><line style="stroke:#181818;stroke-width:1.0;stroke-dasharray:2.0,2.0;" x1="1200" x2="2075" y1="442.6016" y2="442.6016"/><text fill="#000000" font-family="sans-serif" font-size="13" lengthAdjust="spacing" textLength="39" x="1212" y="437.7451">patient</text><line style="stroke:#181818;stroke-width:1.0;" x1="1195" x2="1242" y1="467.9531" y2="467.9531"/><line style="stroke:#181818;stroke-width:1.0;" x1="1242" x2="1242" y1="467.9531" y2="480.9531"/><line style="stroke:#181818;stroke-width:1.0;" x1="1201" x2="1242" y1="480.9531" y2="480.9531"/><polygon fill="#181818" points="1211,476.9531,1201,480.9531,1211,484.9531,1207,480.9531" style="stroke:#181818;stroke-width:1.0;"/><text fill="#000000" font-family="sans-serif" font-size="13" lengthAdjust="spacing" textLength="197" x="1207" y="463.0967">validatePatientHasNoUser(patient)</text><line style="stroke:#181818;stroke-width:1.0;stroke-dasharray:2.0,2.0;" x1="1200" x2="1242" y1="521.3047" y2="521.3047"/><line style="stroke:#181818;stroke-width:1.0;stroke-dasharray:2.0,2.0;" x1="1242" x2="1242" y1="521.3047" y2="534.3047"/><line style="stroke:#181818;stroke-width:1.0;stroke-dasharray:2.0,2.0;" x1="1195" x2="1242" y1="534.3047" y2="534.3047"/><polygon fill="#181818" points="1205,530.3047,1195,534.3047,1205,538.3047,1201,534.3047" style="stroke:#181818;stroke-width:1.0;"/><text fill="#000000" font-family="sans-serif" font-size="13" lengthAdjust="spacing" textLength="20" x="1207" y="516.4482">flag</text><polygon fill="#181818" points="1399,555.6563,1409,559.6563,1399,563.6563,1403,559.6563" style="stroke:#181818;stroke-width:1.0;"/><line style="stroke:#181818;stroke-width:1.0;" x1="1195" x2="1405" y1="559.6563" y2="559.6563"/><text fill="#000000" font-family="sans-serif" font-size="13" lengthAdjust="spacing" textLength="91" x="1202" y="554.7998">hash(password)</text><polygon fill="#181818" points="2137,586.0078,2147,590.0078,2137,594.0078,2141,590.0078" style="stroke:#181818;stroke-width:1.0;"/><line style="stroke:#181818;stroke-width:1.0;" x1="1195" x2="2143" y1="590.0078" y2="590.0078"/><text fill="#000000" font-family="sans-serif" font-size="13" lengthAdjust="spacing" textLength="195" x="1202" y="585.1514">createUser(email, passwordHash)</text><rect fill="#E2E2F0" height="49.2188" rx="2.5" ry="2.5" style="stroke:#181818;stroke-width:0.5;" width="78" x="2149" y="567.6563"/><text fill="#000000" font-family="sans-serif" font-size="14" font-style="italic" lengthAdjust="spacing" textLength="64" x="2156" y="589.1895">&#171;Domain&#187;</text><text fill="#000000" font-family="sans-serif" font-size="14" lengthAdjust="spacing" textLength="29" x="2173.5" y="606.7988">User</text><polygon fill="#181818" points="1722,646.2266,1732,650.2266,1722,654.2266,1726,650.2266" style="stroke:#181818;stroke-width:1.0;"/><line style="stroke:#181818;stroke-width:1.0;" x1="1195" x2="1728" y1="650.2266" y2="650.2266"/><text fill="#000000" font-family="sans-serif" font-size="13" lengthAdjust="spacing" textLength="190" x="1202" y="645.3701">generateConfirmationToken(user)</text><polygon fill="#181818" points="2176,676.5781,2186,680.5781,2176,684.5781,2180,680.5781" style="stroke:#181818;stroke-width:1.0;"/><line style="stroke:#181818;stroke-width:1.0;" x1="1195" x2="2182" y1="680.5781" y2="680.5781"/><text fill="#000000" font-family="sans-serif" font-size="13" lengthAdjust="spacing" textLength="409" x="1202" y="675.7217">setConfirmationToken(confirmationToken, confirmationTokenExpiration)</text><polygon fill="#181818" points="1935.5,706.9297,1945.5,710.9297,1935.5,714.9297,1939.5,710.9297" style="stroke:#181818;stroke-width:1.0;"/><line style="stroke:#181818;stroke-width:1.0;" x1="1195" x2="1941.5" y1="710.9297" y2="710.9297"/><text fill="#000000" font-family="sans-serif" font-size="13" lengthAdjust="spacing" textLength="59" x="1202" y="706.0732">save(user)</text><polygon fill="#181818" points="1516.5,737.2813,1526.5,741.2813,1516.5,745.2813,1520.5,741.2813" style="stroke:#181818;stroke-width:1.0;"/><line style="stroke:#181818;stroke-width:1.0;" x1="1195" x2="1522.5" y1="741.2813" y2="741.2813"/><text fill="#000000" font-family="sans-serif" font-size="13" lengthAdjust="spacing" textLength="212" x="1202" y="736.4248">sendConfirmationEmail(token, email)</text><polygon fill="#181818" points="870,767.6328,860,771.6328,870,775.6328,866,771.6328" style="stroke:#181818;stroke-width:1.0;"/><line style="stroke:#181818;stroke-width:1.0;" x1="864" x2="1184" y1="771.6328" y2="771.6328"/><text fill="#000000" font-family="sans-serif" font-size="13" lengthAdjust="spacing" textLength="302" x="876" y="766.7764">createConfirmationRegisterPatientDTO(token, email)</text><rect fill="#E2E2F0" height="49.2188" rx="2.5" ry="2.5" style="stroke:#181818;stroke-width:0.5;" width="221" x="638" y="749.2813"/><text fill="#000000" font-family="sans-serif" font-size="14" font-style="italic" lengthAdjust="spacing" textLength="46" x="725.5" y="770.8145">&#171;DTO&#187;</text><text fill="#000000" font-family="sans-serif" font-size="14" lengthAdjust="spacing" textLength="207" x="645" y="788.4238">ConfirmationRegisterPatientDTO</text><polygon fill="#181818" points="305,827.8516,295,831.8516,305,835.8516,301,831.8516" style="stroke:#181818;stroke-width:1.0;"/><line style="stroke:#181818;stroke-width:1.0;stroke-dasharray:2.0,2.0;" x1="299" x2="1189" y1="831.8516" y2="831.8516"/><text fill="#000000" font-family="sans-serif" font-size="13" lengthAdjust="spacing" textLength="185" x="311" y="826.9951">confirmationRegisterPatientDTO</text><polygon fill="#181818" points="202,858.2031,192,862.2031,202,866.2031,198,862.2031" style="stroke:#181818;stroke-width:1.0;"/><line style="stroke:#181818;stroke-width:1.0;stroke-dasharray:2.0,2.0;" x1="196" x2="288" y1="862.2031" y2="862.2031"/><text fill="#000000" font-family="sans-serif" font-size="13" lengthAdjust="spacing" textLength="53" x="208" y="857.3467">response</text><polygon fill="#181818" points="11,888.5547,1,892.5547,11,896.5547,7,892.5547" style="stroke:#181818;stroke-width:1.0;"/><line style="stroke:#181818;stroke-width:1.0;stroke-dasharray:2.0,2.0;" x1="5" x2="185" y1="892.5547" y2="892.5547"/><text fill="#000000" font-family="sans-serif" font-size="13" lengthAdjust="spacing" textLength="53" x="17" y="887.6982">response</text><!--SRC=[ZLHDRzim3BtxL-Ze5Gbo3um0-oYsNTAWJKyxgJQJ27CaJPAzvT-FaknP7x7NYqtAxpsI9Yb9bM4ravGRygf1FOlE0A6QUAEgt7ktAsG2_2ouKQ9jGLbqu5NLv2IyPpWpRK0nVZvGmu2RBySdIxUlgi9dGa2b4rDNn0e-acDcY9XJiUc-WEfPxIeRpQeQh0H-e5h_5ghvHlN5LpTOSuJ7AsLj423ovqWBfHt5J-1VWOEYHhW4afCvJTT0a48pHDrS5oSFM_dFoIfsSMDgVXWha2oqwwJ0uhbjWpCmq0-ntlbfsfB3qykHb1igsQP3Wjv87qH_A6XjM4znv1oqyEE7p62oF7z2Jf-A08KS78671uGhg1dqeD7urO4sv4qqDyBuIII4iLcM4hMYLFT6DiXsO1QZGYJMqvOrY783yLs_SePfb62zEn8AJASuERNql2mt3cWf1-FzOdbJj-J4UFFfjgTNd-T7tXmkWiE-kxw1AZcUhuZBUKNaz268cOcEqOVk_gyQ1y8TsmixHUN0UdzHmtfkoGMDuAS443-DRYXg1QZf8erL1GiViPArsvApjo5SNWSgxJZVYOWS3IQ7r-d9YcH7ZtyaKywDXAFUQTf37ZkwW6m6l0bJS9zBuyCEqnYmaoir-6dBr_6SOhh4zQ9AqK3Mzt1Pnyl4xQgMWci8AS6TKAtNYr1_qHH_0G00]--></g></svg>