<?xml version="1.0" encoding="us-ascii" standalone="no"?><svg xmlns="http://www.w3.org/2000/svg" xmlns:xlink="http://www.w3.org/1999/xlink" contentStyleType="text/css" height="761px" preserveAspectRatio="none" style="width:1522px;height:761px;background:#FFFFFF;" version="1.1" viewBox="0 0 1522 761" width="1522px" zoomAndPan="magnify"><defs/><g><rect fill="#FFFFFF" height="611.1953" style="stroke:#181818;stroke-width:1.0;" width="10" x="295" y="87.5703"/><rect fill="#FFFFFF" height="541.4922" style="stroke:#181818;stroke-width:1.0;" width="10" x="398" y="117.9219"/><rect fill="#FFFFFF" height="420.5703" style="stroke:#181818;stroke-width:1.0;" width="10" x="853" y="208.4922"/><rect fill="#FFFFFF" height="41.3516" style="stroke:#181818;stroke-width:1.0;" width="10" x="858" y="307.5469"/><rect fill="#FFFFFF" height="30.3516" style="stroke:#181818;stroke-width:1.0;" width="10" x="1028" y="238.8438"/><rect fill="#FFFFFF" height="30.3516" style="stroke:#181818;stroke-width:1.0;" width="10" x="1156.5" y="386.25"/><rect fill="#FFFFFF" height="30.3516" style="stroke:#181818;stroke-width:1.0;" width="10" x="1458.5" y="568.3594"/><line style="stroke:#181818;stroke-width:0.5;stroke-dasharray:5.0,5.0;" x1="299.5" x2="299.5" y1="55.2188" y2="707.7656"/><line style="stroke:#181818;stroke-width:0.5;stroke-dasharray:5.0,5.0;" x1="402.5" x2="402.5" y1="55.2188" y2="707.7656"/><line style="stroke:#181818;stroke-width:0.5;stroke-dasharray:5.0,5.0;" x1="692" x2="692" y1="166.0313" y2="707.7656"/><line style="stroke:#181818;stroke-width:0.5;stroke-dasharray:5.0,5.0;" x1="858" x2="858" y1="55.2188" y2="707.7656"/><line style="stroke:#181818;stroke-width:0.5;stroke-dasharray:5.0,5.0;" x1="1032.5" x2="1032.5" y1="55.2188" y2="707.7656"/><line style="stroke:#181818;stroke-width:0.5;stroke-dasharray:5.0,5.0;" x1="1161.5" x2="1161.5" y1="55.2188" y2="707.7656"/><line style="stroke:#181818;stroke-width:0.5;stroke-dasharray:5.0,5.0;" x1="1273.5" x2="1273.5" y1="55.2188" y2="707.7656"/><line style="stroke:#181818;stroke-width:0.5;stroke-dasharray:5.0,5.0;" x1="1361.5" x2="1361.5" y1="55.2188" y2="707.7656"/><line style="stroke:#181818;stroke-width:0.5;stroke-dasharray:5.0,5.0;" x1="1463.5" x2="1463.5" y1="55.2188" y2="707.7656"/><rect fill="#E2E2F0" height="49.2188" rx="2.5" ry="2.5" style="stroke:#181818;stroke-width:0.5;" width="81" x="259.5" y="5"/><text fill="#000000" font-family="sans-serif" font-size="14" font-style="italic" lengthAdjust="spacing" textLength="54" x="273" y="26.5332">&#171;Route&#187;</text><text fill="#000000" font-family="sans-serif" font-size="14" lengthAdjust="spacing" textLength="67" x="266.5" y="44.1426">UserRoute</text><rect fill="#E2E2F0" height="49.2188" rx="2.5" ry="2.5" style="stroke:#181818;stroke-width:0.5;" width="81" x="259.5" y="706.7656"/><text fill="#000000" font-family="sans-serif" font-size="14" font-style="italic" lengthAdjust="spacing" textLength="54" x="273" y="728.2988">&#171;Route&#187;</text><text fill="#000000" font-family="sans-serif" font-size="14" lengthAdjust="spacing" textLength="67" x="266.5" y="745.9082">UserRoute</text><rect fill="#E2E2F0" height="49.2188" rx="2.5" ry="2.5" style="stroke:#181818;stroke-width:0.5;" width="105" x="350.5" y="5"/><text fill="#000000" font-family="sans-serif" font-size="14" font-style="italic" lengthAdjust="spacing" textLength="78" x="364" y="26.5332">&#171;Controller&#187;</text><text fill="#000000" font-family="sans-serif" font-size="14" lengthAdjust="spacing" textLength="91" x="357.5" y="44.1426">UserController</text><rect fill="#E2E2F0" height="49.2188" rx="2.5" ry="2.5" style="stroke:#181818;stroke-width:0.5;" width="105" x="350.5" y="706.7656"/><text fill="#000000" font-family="sans-serif" font-size="14" font-style="italic" lengthAdjust="spacing" textLength="78" x="364" y="728.2988">&#171;Controller&#187;</text><text fill="#000000" font-family="sans-serif" font-size="14" lengthAdjust="spacing" textLength="91" x="357.5" y="745.9082">UserController</text><rect fill="#E2E2F0" height="49.2188" rx="2.5" ry="2.5" style="stroke:#181818;stroke-width:0.5;" width="221" x="582" y="706.7656"/><text fill="#000000" font-family="sans-serif" font-size="14" font-style="italic" lengthAdjust="spacing" textLength="46" x="669.5" y="728.2988">&#171;DTO&#187;</text><text fill="#000000" font-family="sans-serif" font-size="14" lengthAdjust="spacing" textLength="207" x="589" y="745.9082">ConfirmationRegisterPatientDTO</text><rect fill="#E2E2F0" height="49.2188" rx="2.5" ry="2.5" style="stroke:#181818;stroke-width:0.5;" width="90" x="813" y="5"/><text fill="#000000" font-family="sans-serif" font-size="14" font-style="italic" lengthAdjust="spacing" textLength="62" x="827" y="26.5332">&#171;Service&#187;</text><text fill="#000000" font-family="sans-serif" font-size="14" lengthAdjust="spacing" textLength="76" x="820" y="44.1426">UserService</text><rect fill="#E2E2F0" height="49.2188" rx="2.5" ry="2.5" style="stroke:#181818;stroke-width:0.5;" width="90" x="813" y="706.7656"/><text fill="#000000" font-family="sans-serif" font-size="14" font-style="italic" lengthAdjust="spacing" textLength="62" x="827" y="728.2988">&#171;Service&#187;</text><text fill="#000000" font-family="sans-serif" font-size="14" lengthAdjust="spacing" textLength="76" x="820" y="745.9082">UserService</text><rect fill="#E2E2F0" height="49.2188" rx="2.5" ry="2.5" style="stroke:#181818;stroke-width:0.5;" width="111" x="977.5" y="5"/><text fill="#000000" font-family="sans-serif" font-size="14" font-style="italic" lengthAdjust="spacing" textLength="84" x="991" y="26.5332">&#171;Repository&#187;</text><text fill="#000000" font-family="sans-serif" font-size="14" lengthAdjust="spacing" textLength="97" x="984.5" y="44.1426">UserRepository</text><rect fill="#E2E2F0" height="49.2188" rx="2.5" ry="2.5" style="stroke:#181818;stroke-width:0.5;" width="111" x="977.5" y="706.7656"/><text fill="#000000" font-family="sans-serif" font-size="14" font-style="italic" lengthAdjust="spacing" textLength="84" x="991" y="728.2988">&#171;Repository&#187;</text><text fill="#000000" font-family="sans-serif" font-size="14" lengthAdjust="spacing" textLength="97" x="984.5" y="745.9082">UserRepository</text><rect fill="#E2E2F0" height="49.2188" rx="2.5" ry="2.5" style="stroke:#181818;stroke-width:0.5;" width="126" x="1098.5" y="5"/><text fill="#000000" font-family="sans-serif" font-size="14" font-style="italic" lengthAdjust="spacing" textLength="84" x="1119.5" y="26.5332">&#171;Repository&#187;</text><text fill="#000000" font-family="sans-serif" font-size="14" lengthAdjust="spacing" textLength="112" x="1105.5" y="44.1426">PatientRepository</text><rect fill="#E2E2F0" height="49.2188" rx="2.5" ry="2.5" style="stroke:#181818;stroke-width:0.5;" width="126" x="1098.5" y="706.7656"/><text fill="#000000" font-family="sans-serif" font-size="14" font-style="italic" lengthAdjust="spacing" textLength="84" x="1119.5" y="728.2988">&#171;Repository&#187;</text><text fill="#000000" font-family="sans-serif" font-size="14" lengthAdjust="spacing" textLength="112" x="1105.5" y="745.9082">PatientRepository</text><rect fill="#E2E2F0" height="49.2188" rx="2.5" ry="2.5" style="stroke:#181818;stroke-width:0.5;" width="78" x="1234.5" y="5"/><text fill="#000000" font-family="sans-serif" font-size="14" font-style="italic" lengthAdjust="spacing" textLength="64" x="1241.5" y="26.5332">&#171;Domain&#187;</text><text fill="#000000" font-family="sans-serif" font-size="14" lengthAdjust="spacing" textLength="29" x="1259" y="44.1426">User</text><rect fill="#E2E2F0" height="49.2188" rx="2.5" ry="2.5" style="stroke:#181818;stroke-width:0.5;" width="78" x="1234.5" y="706.7656"/><text fill="#000000" font-family="sans-serif" font-size="14" font-style="italic" lengthAdjust="spacing" textLength="64" x="1241.5" y="728.2988">&#171;Domain&#187;</text><text fill="#000000" font-family="sans-serif" font-size="14" lengthAdjust="spacing" textLength="29" x="1259" y="745.9082">User</text><rect fill="#E2E2F0" height="49.2188" rx="2.5" ry="2.5" style="stroke:#181818;stroke-width:0.5;" width="78" x="1322.5" y="5"/><text fill="#000000" font-family="sans-serif" font-size="14" font-style="italic" lengthAdjust="spacing" textLength="64" x="1329.5" y="26.5332">&#171;Domain&#187;</text><text fill="#000000" font-family="sans-serif" font-size="14" lengthAdjust="spacing" textLength="44" x="1339.5" y="44.1426">Patient</text><rect fill="#E2E2F0" height="49.2188" rx="2.5" ry="2.5" style="stroke:#181818;stroke-width:0.5;" width="78" x="1322.5" y="706.7656"/><text fill="#000000" font-family="sans-serif" font-size="14" font-style="italic" lengthAdjust="spacing" textLength="64" x="1329.5" y="728.2988">&#171;Domain&#187;</text><text fill="#000000" font-family="sans-serif" font-size="14" lengthAdjust="spacing" textLength="44" x="1339.5" y="745.9082">Patient</text><rect fill="#E2E2F0" height="49.2188" rx="2.5" ry="2.5" style="stroke:#181818;stroke-width:0.5;" width="106" x="1410.5" y="5"/><text fill="#000000" font-family="sans-serif" font-size="14" font-style="italic" lengthAdjust="spacing" textLength="65" x="1431" y="26.5332">&#171;Mapper&#187;</text><text fill="#000000" font-family="sans-serif" font-size="14" lengthAdjust="spacing" textLength="92" x="1417.5" y="44.1426">PatientMapper</text><rect fill="#E2E2F0" height="49.2188" rx="2.5" ry="2.5" style="stroke:#181818;stroke-width:0.5;" width="106" x="1410.5" y="706.7656"/><text fill="#000000" font-family="sans-serif" font-size="14" font-style="italic" lengthAdjust="spacing" textLength="65" x="1431" y="728.2988">&#171;Mapper&#187;</text><text fill="#000000" font-family="sans-serif" font-size="14" lengthAdjust="spacing" textLength="92" x="1417.5" y="745.9082">PatientMapper</text><rect fill="#FFFFFF" height="611.1953" style="stroke:#181818;stroke-width:1.0;" width="10" x="295" y="87.5703"/><rect fill="#FFFFFF" height="541.4922" style="stroke:#181818;stroke-width:1.0;" width="10" x="398" y="117.9219"/><rect fill="#FFFFFF" height="420.5703" style="stroke:#181818;stroke-width:1.0;" width="10" x="853" y="208.4922"/><rect fill="#FFFFFF" height="41.3516" style="stroke:#181818;stroke-width:1.0;" width="10" x="858" y="307.5469"/><rect fill="#FFFFFF" height="30.3516" style="stroke:#181818;stroke-width:1.0;" width="10" x="1028" y="238.8438"/><rect fill="#FFFFFF" height="30.3516" style="stroke:#181818;stroke-width:1.0;" width="10" x="1156.5" y="386.25"/><rect fill="#FFFFFF" height="30.3516" style="stroke:#181818;stroke-width:1.0;" width="10" x="1458.5" y="568.3594"/><ellipse cx="7.5" cy="86.8203" fill="none" rx="4" ry="4" style="stroke:#181818;stroke-width:1.5;"/><polygon fill="#181818" points="283,83.5703,293,87.5703,283,91.5703,287,87.5703" style="stroke:#181818;stroke-width:1.0;"/><line style="stroke:#181818;stroke-width:1.0;" x1="12" x2="289" y1="87.5703" y2="87.5703"/><text fill="#000000" font-family="sans-serif" font-size="13" lengthAdjust="spacing" textLength="268" x="15" y="82.7139">POST(/api/users/patients/confirmation/{token})</text><polygon fill="#181818" points="386,113.9219,396,117.9219,386,121.9219,390,117.9219" style="stroke:#181818;stroke-width:1.0;"/><line style="stroke:#181818;stroke-width:1.0;" x1="305" x2="392" y1="117.9219" y2="117.9219"/><text fill="#000000" font-family="sans-serif" font-size="13" lengthAdjust="spacing" textLength="35" x="312" y="113.0654">POST</text><polygon fill="#181818" points="570,144.2734,580,148.2734,570,152.2734,574,148.2734" style="stroke:#181818;stroke-width:1.0;"/><line style="stroke:#181818;stroke-width:1.0;" x1="408" x2="576" y1="148.2734" y2="148.2734"/><text fill="#000000" font-family="sans-serif" font-size="13" lengthAdjust="spacing" textLength="150" x="415" y="143.417">recieves request body info</text><rect fill="#E2E2F0" height="49.2188" rx="2.5" ry="2.5" style="stroke:#181818;stroke-width:0.5;" width="221" x="582" y="125.9219"/><text fill="#000000" font-family="sans-serif" font-size="14" font-style="italic" lengthAdjust="spacing" textLength="46" x="669.5" y="147.4551">&#171;DTO&#187;</text><text fill="#000000" font-family="sans-serif" font-size="14" lengthAdjust="spacing" textLength="207" x="589" y="165.0645">ConfirmationRegisterPatientDTO</text><polygon fill="#181818" points="841,204.4922,851,208.4922,841,212.4922,845,208.4922" style="stroke:#181818;stroke-width:1.0;"/><line style="stroke:#181818;stroke-width:1.0;" x1="408" x2="847" y1="208.4922" y2="208.4922"/><text fill="#000000" font-family="sans-serif" font-size="13" lengthAdjust="spacing" textLength="345" x="415" y="203.6357">confirmPatientRegistration(confirmationRegisterPatientDTO)</text><polygon fill="#181818" points="1016,234.8438,1026,238.8438,1016,242.8438,1020,238.8438" style="stroke:#181818;stroke-width:1.0;"/><line style="stroke:#181818;stroke-width:1.0;" x1="863" x2="1022" y1="238.8438" y2="238.8438"/><text fill="#000000" font-family="sans-serif" font-size="13" lengthAdjust="spacing" textLength="135" x="870" y="233.9873">findUserByEmail(email)</text><polygon fill="#181818" points="874,265.1953,864,269.1953,874,273.1953,870,269.1953" style="stroke:#181818;stroke-width:1.0;"/><line style="stroke:#181818;stroke-width:1.0;stroke-dasharray:2.0,2.0;" x1="868" x2="1032" y1="269.1953" y2="269.1953"/><text fill="#000000" font-family="sans-serif" font-size="13" lengthAdjust="spacing" textLength="25" x="880" y="264.3389">user</text><line style="stroke:#181818;stroke-width:1.0;" x1="863" x2="910" y1="294.5469" y2="294.5469"/><line style="stroke:#181818;stroke-width:1.0;" x1="910" x2="910" y1="294.5469" y2="307.5469"/><line style="stroke:#181818;stroke-width:1.0;" x1="869" x2="910" y1="307.5469" y2="307.5469"/><polygon fill="#181818" points="879,303.5469,869,307.5469,879,311.5469,875,307.5469" style="stroke:#181818;stroke-width:1.0;"/><text fill="#000000" font-family="sans-serif" font-size="13" lengthAdjust="spacing" textLength="151" x="875" y="289.6904">validateToken(user, token)</text><line style="stroke:#181818;stroke-width:1.0;stroke-dasharray:2.0,2.0;" x1="868" x2="910" y1="347.8984" y2="347.8984"/><line style="stroke:#181818;stroke-width:1.0;stroke-dasharray:2.0,2.0;" x1="910" x2="910" y1="347.8984" y2="360.8984"/><line style="stroke:#181818;stroke-width:1.0;stroke-dasharray:2.0,2.0;" x1="863" x2="910" y1="360.8984" y2="360.8984"/><polygon fill="#181818" points="873,356.8984,863,360.8984,873,364.8984,869,360.8984" style="stroke:#181818;stroke-width:1.0;"/><text fill="#000000" font-family="sans-serif" font-size="13" lengthAdjust="spacing" textLength="20" x="875" y="343.042">flag</text><polygon fill="#181818" points="1144.5,382.25,1154.5,386.25,1144.5,390.25,1148.5,386.25" style="stroke:#181818;stroke-width:1.0;"/><line style="stroke:#181818;stroke-width:1.0;" x1="863" x2="1150.5" y1="386.25" y2="386.25"/><text fill="#000000" font-family="sans-serif" font-size="13" lengthAdjust="spacing" textLength="149" x="870" y="381.3936">findPatientByEmail(email)</text><polygon fill="#181818" points="874,412.6016,864,416.6016,874,420.6016,870,416.6016" style="stroke:#181818;stroke-width:1.0;"/><line style="stroke:#181818;stroke-width:1.0;stroke-dasharray:2.0,2.0;" x1="868" x2="1160.5" y1="416.6016" y2="416.6016"/><text fill="#000000" font-family="sans-serif" font-size="13" lengthAdjust="spacing" textLength="39" x="880" y="411.7451">patient</text><polygon fill="#181818" points="1261.5,442.9531,1271.5,446.9531,1261.5,450.9531,1265.5,446.9531" style="stroke:#181818;stroke-width:1.0;"/><line style="stroke:#181818;stroke-width:1.0;" x1="863" x2="1267.5" y1="446.9531" y2="446.9531"/><text fill="#000000" font-family="sans-serif" font-size="13" lengthAdjust="spacing" textLength="50" x="870" y="442.0967">confirm()</text><polygon fill="#181818" points="1349.5,473.3047,1359.5,477.3047,1349.5,481.3047,1353.5,477.3047" style="stroke:#181818;stroke-width:1.0;"/><line style="stroke:#181818;stroke-width:1.0;" x1="863" x2="1355.5" y1="477.3047" y2="477.3047"/><text fill="#000000" font-family="sans-serif" font-size="13" lengthAdjust="spacing" textLength="116" x="870" y="472.4482">associateUser(user)</text><polygon fill="#181818" points="1021,503.6563,1031,507.6563,1021,511.6563,1025,507.6563" style="stroke:#181818;stroke-width:1.0;"/><line style="stroke:#181818;stroke-width:1.0;" x1="863" x2="1027" y1="507.6563" y2="507.6563"/><text fill="#000000" font-family="sans-serif" font-size="13" lengthAdjust="spacing" textLength="59" x="870" y="502.7998">save(user)</text><polygon fill="#181818" points="1149.5,534.0078,1159.5,538.0078,1149.5,542.0078,1153.5,538.0078" style="stroke:#181818;stroke-width:1.0;"/><line style="stroke:#181818;stroke-width:1.0;" x1="863" x2="1155.5" y1="538.0078" y2="538.0078"/><text fill="#000000" font-family="sans-serif" font-size="13" lengthAdjust="spacing" textLength="73" x="870" y="533.1514">save(patient)</text><polygon fill="#181818" points="1446.5,564.3594,1456.5,568.3594,1446.5,572.3594,1450.5,568.3594" style="stroke:#181818;stroke-width:1.0;"/><line style="stroke:#181818;stroke-width:1.0;" x1="863" x2="1452.5" y1="568.3594" y2="568.3594"/><text fill="#000000" font-family="sans-serif" font-size="13" lengthAdjust="spacing" textLength="84" x="870" y="563.5029">toDTO(patient)</text><polygon fill="#181818" points="874,594.7109,864,598.7109,874,602.7109,870,598.7109" style="stroke:#181818;stroke-width:1.0;"/><line style="stroke:#181818;stroke-width:1.0;stroke-dasharray:2.0,2.0;" x1="868" x2="1462.5" y1="598.7109" y2="598.7109"/><text fill="#000000" font-family="sans-serif" font-size="13" lengthAdjust="spacing" textLength="65" x="880" y="593.8545">patientDTO</text><polygon fill="#181818" points="419,625.0625,409,629.0625,419,633.0625,415,629.0625" style="stroke:#181818;stroke-width:1.0;"/><line style="stroke:#181818;stroke-width:1.0;stroke-dasharray:2.0,2.0;" x1="413" x2="857" y1="629.0625" y2="629.0625"/><text fill="#000000" font-family="sans-serif" font-size="13" lengthAdjust="spacing" textLength="65" x="425" y="624.2061">patientDTO</text><polygon fill="#181818" points="316,655.4141,306,659.4141,316,663.4141,312,659.4141" style="stroke:#181818;stroke-width:1.0;"/><line style="stroke:#181818;stroke-width:1.0;stroke-dasharray:2.0,2.0;" x1="310" x2="402" y1="659.4141" y2="659.4141"/><text fill="#000000" font-family="sans-serif" font-size="13" lengthAdjust="spacing" textLength="53" x="322" y="654.5576">response</text><polygon fill="#181818" points="11,685.7656,1,689.7656,11,693.7656,7,689.7656" style="stroke:#181818;stroke-width:1.0;"/><line style="stroke:#181818;stroke-width:1.0;stroke-dasharray:2.0,2.0;" x1="5" x2="294" y1="689.7656" y2="689.7656"/><text fill="#000000" font-family="sans-serif" font-size="13" lengthAdjust="spacing" textLength="53" x="17" y="684.9092">response</text><!--SRC=[XLCzRy8m4DtpApm6L9GziXXQEbOWe5CdDnoLrM2xjXC9LVtlFNyaCKbebt1dl_Tyz-vGJ5jUSSM49Qy6z5us5WWp90IK-j_rEbCZu9CKLikw1ktGIKRfa8nuU77c-i8ibs8F7znOq3lCGDZDSHjrUeGxeXI_CwyVGBUyyeLs8QKnce7lGKd3hTHNtzgGONzzCkB5mcwfqyDR1J9vsh4syiAuSCtuOFwXHFuVv0jJAWZ7YD8G8FnDhjPnTYNPRG_7l62A5mrMOWeL-AQe4fkBRoi_GVmiCbPPtZ9aUduML50k6MxG7933LPQW0YSTv7A9L0qLXnOC1byD64lUvUbAk3ZB4RaRQKbYeRtjRcUq5yshFvSfwIQgPPsgCsYONqdEN9pSf1wlp-XvdOFxfcxqu4o3RRGWpirKRgYtPJK_8UdeBCqTxe5uUsVgYMBdcdsaOjCL2oN6ytjLJcYTVXnw-aJSnzxUV35J05upOsJ5KTtPuxjPt7NHi1QcaBbcF39MTGEEsroYOpZ10TBt602ZnX0wY8otDS6SO3A1TEkIluq6ewGma5AIHQUhrGJw2m00]--></g></svg>