<?xml version="1.0" encoding="us-ascii" standalone="no"?><svg xmlns="http://www.w3.org/2000/svg" xmlns:xlink="http://www.w3.org/1999/xlink" contentStyleType="text/css" height="878px" preserveAspectRatio="none" style="width:1777px;height:878px;background:#FFFFFF;" version="1.1" viewBox="0 0 1777 878" width="1777px" zoomAndPan="magnify"><defs/><g><rect fill="#FFFFFF" height="718.7656" style="stroke:#181818;stroke-width:1.0;" width="10" x="181" y="87.5703"/><rect fill="#FFFFFF" height="658.0625" style="stroke:#181818;stroke-width:1.0;" width="10" x="284" y="117.9219"/><rect fill="#FFFFFF" height="537.1406" style="stroke:#181818;stroke-width:1.0;" width="10" x="909" y="208.4922"/><rect fill="#FFFFFF" height="41.3516" style="stroke:#181818;stroke-width:1.0;" width="10" x="914" y="246.8438"/><rect fill="#FFFFFF" height="41.3516" style="stroke:#181818;stroke-width:1.0;" width="10" x="914" y="454.9531"/><rect fill="#FFFFFF" height="30.3516" style="stroke:#181818;stroke-width:1.0;" width="10" x="1130" y="325.5469"/><rect fill="#FFFFFF" height="30.3516" style="stroke:#181818;stroke-width:1.0;" width="10" x="1256" y="533.6563"/><rect fill="#FFFFFF" height="30.3516" style="stroke:#181818;stroke-width:1.0;" width="10" x="1615" y="386.25"/><line style="stroke:#181818;stroke-width:0.5;stroke-dasharray:5.0,5.0;" x1="185.5" x2="185.5" y1="55.2188" y2="824.3359"/><line style="stroke:#181818;stroke-width:0.5;stroke-dasharray:5.0,5.0;" x1="288.5" x2="288.5" y1="55.2188" y2="824.3359"/><line style="stroke:#181818;stroke-width:0.5;stroke-dasharray:5.0,5.0;" x1="548" x2="548" y1="166.0313" y2="824.3359"/><line style="stroke:#181818;stroke-width:0.5;stroke-dasharray:5.0,5.0;" x1="748" x2="748" y1="55.2188" y2="824.3359"/><line style="stroke:#181818;stroke-width:0.5;stroke-dasharray:5.0,5.0;" x1="914" x2="914" y1="55.2188" y2="824.3359"/><line style="stroke:#181818;stroke-width:0.5;stroke-dasharray:5.0,5.0;" x1="1135" x2="1135" y1="55.2188" y2="824.3359"/><line style="stroke:#181818;stroke-width:0.5;stroke-dasharray:5.0,5.0;" x1="1261" x2="1261" y1="55.2188" y2="824.3359"/><line style="stroke:#181818;stroke-width:0.5;stroke-dasharray:5.0,5.0;" x1="1378" x2="1378" y1="55.2188" y2="824.3359"/><line style="stroke:#181818;stroke-width:0.5;stroke-dasharray:5.0,5.0;" x1="1491" x2="1491" y1="55.2188" y2="824.3359"/><line style="stroke:#181818;stroke-width:0.5;stroke-dasharray:5.0,5.0;" x1="1620" x2="1620" y1="55.2188" y2="824.3359"/><line style="stroke:#181818;stroke-width:0.5;stroke-dasharray:5.0,5.0;" x1="1732" x2="1732" y1="612.1172" y2="824.3359"/><rect fill="#E2E2F0" height="49.2188" rx="2.5" ry="2.5" style="stroke:#181818;stroke-width:0.5;" width="81" x="145.5" y="5"/><text fill="#000000" font-family="sans-serif" font-size="14" font-style="italic" lengthAdjust="spacing" textLength="54" x="159" y="26.5332">&#171;Route&#187;</text><text fill="#000000" font-family="sans-serif" font-size="14" lengthAdjust="spacing" textLength="67" x="152.5" y="44.1426">UserRoute</text><rect fill="#E2E2F0" height="49.2188" rx="2.5" ry="2.5" style="stroke:#181818;stroke-width:0.5;" width="81" x="145.5" y="823.3359"/><text fill="#000000" font-family="sans-serif" font-size="14" font-style="italic" lengthAdjust="spacing" textLength="54" x="159" y="844.8691">&#171;Route&#187;</text><text fill="#000000" font-family="sans-serif" font-size="14" lengthAdjust="spacing" textLength="67" x="152.5" y="862.4785">UserRoute</text><rect fill="#E2E2F0" height="49.2188" rx="2.5" ry="2.5" style="stroke:#181818;stroke-width:0.5;" width="105" x="236.5" y="5"/><text fill="#000000" font-family="sans-serif" font-size="14" font-style="italic" lengthAdjust="spacing" textLength="78" x="250" y="26.5332">&#171;Controller&#187;</text><text fill="#000000" font-family="sans-serif" font-size="14" lengthAdjust="spacing" textLength="91" x="243.5" y="44.1426">UserController</text><rect fill="#E2E2F0" height="49.2188" rx="2.5" ry="2.5" style="stroke:#181818;stroke-width:0.5;" width="105" x="236.5" y="823.3359"/><text fill="#000000" font-family="sans-serif" font-size="14" font-style="italic" lengthAdjust="spacing" textLength="78" x="250" y="844.8691">&#171;Controller&#187;</text><text fill="#000000" font-family="sans-serif" font-size="14" lengthAdjust="spacing" textLength="91" x="243.5" y="862.4785">UserController</text><rect fill="#E2E2F0" height="49.2188" rx="2.5" ry="2.5" style="stroke:#181818;stroke-width:0.5;" width="160" x="468" y="823.3359"/><text fill="#000000" font-family="sans-serif" font-size="14" font-style="italic" lengthAdjust="spacing" textLength="46" x="525" y="844.8691">&#171;DTO&#187;</text><text fill="#000000" font-family="sans-serif" font-size="14" lengthAdjust="spacing" textLength="146" x="475" y="862.4785">RegisteringPatientDTO</text><rect fill="#E2E2F0" height="49.2188" rx="2.5" ry="2.5" style="stroke:#181818;stroke-width:0.5;" width="221" x="638" y="5"/><text fill="#000000" font-family="sans-serif" font-size="14" font-style="italic" lengthAdjust="spacing" textLength="46" x="725.5" y="26.5332">&#171;DTO&#187;</text><text fill="#000000" font-family="sans-serif" font-size="14" lengthAdjust="spacing" textLength="207" x="645" y="44.1426">ConfirmationRegisterPatientDTO</text><rect fill="#E2E2F0" height="49.2188" rx="2.5" ry="2.5" style="stroke:#181818;stroke-width:0.5;" width="221" x="638" y="823.3359"/><text fill="#000000" font-family="sans-serif" font-size="14" font-style="italic" lengthAdjust="spacing" textLength="46" x="725.5" y="844.8691">&#171;DTO&#187;</text><text fill="#000000" font-family="sans-serif" font-size="14" lengthAdjust="spacing" textLength="207" x="645" y="862.4785">ConfirmationRegisterPatientDTO</text><rect fill="#E2E2F0" height="49.2188" rx="2.5" ry="2.5" style="stroke:#181818;stroke-width:0.5;" width="90" x="869" y="5"/><text fill="#000000" font-family="sans-serif" font-size="14" font-style="italic" lengthAdjust="spacing" textLength="62" x="883" y="26.5332">&#171;Service&#187;</text><text fill="#000000" font-family="sans-serif" font-size="14" lengthAdjust="spacing" textLength="76" x="876" y="44.1426">UserService</text><rect fill="#E2E2F0" height="49.2188" rx="2.5" ry="2.5" style="stroke:#181818;stroke-width:0.5;" width="90" x="869" y="823.3359"/><text fill="#000000" font-family="sans-serif" font-size="14" font-style="italic" lengthAdjust="spacing" textLength="62" x="883" y="844.8691">&#171;Service&#187;</text><text fill="#000000" font-family="sans-serif" font-size="14" lengthAdjust="spacing" textLength="76" x="876" y="862.4785">UserService</text><rect fill="#E2E2F0" height="49.2188" rx="2.5" ry="2.5" style="stroke:#181818;stroke-width:0.5;" width="112" x="1079" y="5"/><text fill="#000000" font-family="sans-serif" font-size="14" font-style="italic" lengthAdjust="spacing" textLength="62" x="1104" y="26.5332">&#171;Service&#187;</text><text fill="#000000" font-family="sans-serif" font-size="14" lengthAdjust="spacing" textLength="98" x="1086" y="44.1426">PasswordPolicy</text><rect fill="#E2E2F0" height="49.2188" rx="2.5" ry="2.5" style="stroke:#181818;stroke-width:0.5;" width="112" x="1079" y="823.3359"/><text fill="#000000" font-family="sans-serif" font-size="14" font-style="italic" lengthAdjust="spacing" textLength="62" x="1104" y="844.8691">&#171;Service&#187;</text><text fill="#000000" font-family="sans-serif" font-size="14" lengthAdjust="spacing" textLength="98" x="1086" y="862.4785">PasswordPolicy</text><rect fill="#E2E2F0" height="49.2188" rx="2.5" ry="2.5" style="stroke:#181818;stroke-width:0.5;" width="120" x="1201" y="5"/><text fill="#000000" font-family="sans-serif" font-size="14" font-style="italic" lengthAdjust="spacing" textLength="62" x="1230" y="26.5332">&#171;Service&#187;</text><text fill="#000000" font-family="sans-serif" font-size="14" lengthAdjust="spacing" textLength="106" x="1208" y="44.1426">PasswordHasher</text><rect fill="#E2E2F0" height="49.2188" rx="2.5" ry="2.5" style="stroke:#181818;stroke-width:0.5;" width="120" x="1201" y="823.3359"/><text fill="#000000" font-family="sans-serif" font-size="14" font-style="italic" lengthAdjust="spacing" textLength="62" x="1230" y="844.8691">&#171;Service&#187;</text><text fill="#000000" font-family="sans-serif" font-size="14" lengthAdjust="spacing" textLength="106" x="1208" y="862.4785">PasswordHasher</text><rect fill="#E2E2F0" height="49.2188" rx="2.5" ry="2.5" style="stroke:#181818;stroke-width:0.5;" width="95" x="1331" y="5"/><text fill="#000000" font-family="sans-serif" font-size="14" font-style="italic" lengthAdjust="spacing" textLength="62" x="1347.5" y="26.5332">&#171;Service&#187;</text><text fill="#000000" font-family="sans-serif" font-size="14" lengthAdjust="spacing" textLength="81" x="1338" y="44.1426">EmailService</text><rect fill="#E2E2F0" height="49.2188" rx="2.5" ry="2.5" style="stroke:#181818;stroke-width:0.5;" width="95" x="1331" y="823.3359"/><text fill="#000000" font-family="sans-serif" font-size="14" font-style="italic" lengthAdjust="spacing" textLength="62" x="1347.5" y="844.8691">&#171;Service&#187;</text><text fill="#000000" font-family="sans-serif" font-size="14" lengthAdjust="spacing" textLength="81" x="1338" y="862.4785">EmailService</text><rect fill="#E2E2F0" height="49.2188" rx="2.5" ry="2.5" style="stroke:#181818;stroke-width:0.5;" width="111" x="1436" y="5"/><text fill="#000000" font-family="sans-serif" font-size="14" font-style="italic" lengthAdjust="spacing" textLength="84" x="1449.5" y="26.5332">&#171;Repository&#187;</text><text fill="#000000" font-family="sans-serif" font-size="14" lengthAdjust="spacing" textLength="97" x="1443" y="44.1426">UserRepository</text><rect fill="#E2E2F0" height="49.2188" rx="2.5" ry="2.5" style="stroke:#181818;stroke-width:0.5;" width="111" x="1436" y="823.3359"/><text fill="#000000" font-family="sans-serif" font-size="14" font-style="italic" lengthAdjust="spacing" textLength="84" x="1449.5" y="844.8691">&#171;Repository&#187;</text><text fill="#000000" font-family="sans-serif" font-size="14" lengthAdjust="spacing" textLength="97" x="1443" y="862.4785">UserRepository</text><rect fill="#E2E2F0" height="49.2188" rx="2.5" ry="2.5" style="stroke:#181818;stroke-width:0.5;" width="126" x="1557" y="5"/><text fill="#000000" font-family="sans-serif" font-size="14" font-style="italic" lengthAdjust="spacing" textLength="84" x="1578" y="26.5332">&#171;Repository&#187;</text><text fill="#000000" font-family="sans-serif" font-size="14" lengthAdjust="spacing" textLength="112" x="1564" y="44.1426">PatientRepository</text><rect fill="#E2E2F0" height="49.2188" rx="2.5" ry="2.5" style="stroke:#181818;stroke-width:0.5;" width="126" x="1557" y="823.3359"/><text fill="#000000" font-family="sans-serif" font-size="14" font-style="italic" lengthAdjust="spacing" textLength="84" x="1578" y="844.8691">&#171;Repository&#187;</text><text fill="#000000" font-family="sans-serif" font-size="14" lengthAdjust="spacing" textLength="112" x="1564" y="862.4785">PatientRepository</text><rect fill="#E2E2F0" height="49.2188" rx="2.5" ry="2.5" style="stroke:#181818;stroke-width:0.5;" width="78" x="1693" y="823.3359"/><text fill="#000000" font-family="sans-serif" font-size="14" font-style="italic" lengthAdjust="spacing" textLength="64" x="1700" y="844.8691">&#171;Domain&#187;</text><text fill="#000000" font-family="sans-serif" font-size="14" lengthAdjust="spacing" textLength="29" x="1717.5" y="862.4785">User</text><rect fill="#FFFFFF" height="718.7656" style="stroke:#181818;stroke-width:1.0;" width="10" x="181" y="87.5703"/><rect fill="#FFFFFF" height="658.0625" style="stroke:#181818;stroke-width:1.0;" width="10" x="284" y="117.9219"/><rect fill="#FFFFFF" height="537.1406" style="stroke:#181818;stroke-width:1.0;" width="10" x="909" y="208.4922"/><rect fill="#FFFFFF" height="41.3516" style="stroke:#181818;stroke-width:1.0;" width="10" x="914" y="246.8438"/><rect fill="#FFFFFF" height="41.3516" style="stroke:#181818;stroke-width:1.0;" width="10" x="914" y="454.9531"/><rect fill="#FFFFFF" height="30.3516" style="stroke:#181818;stroke-width:1.0;" width="10" x="1130" y="325.5469"/><rect fill="#FFFFFF" height="30.3516" style="stroke:#181818;stroke-width:1.0;" width="10" x="1256" y="533.6563"/><rect fill="#FFFFFF" height="30.3516" style="stroke:#181818;stroke-width:1.0;" width="10" x="1615" y="386.25"/><ellipse cx="7.5" cy="86.8203" fill="none" rx="4" ry="4" style="stroke:#181818;stroke-width:1.5;"/><polygon fill="#181818" points="169,83.5703,179,87.5703,169,91.5703,173,87.5703" style="stroke:#181818;stroke-width:1.0;"/><line style="stroke:#181818;stroke-width:1.0;" x1="12" x2="175" y1="87.5703" y2="87.5703"/><text fill="#000000" font-family="sans-serif" font-size="13" lengthAdjust="spacing" textLength="154" x="15" y="82.7139">POST (/api/users/patients)</text><polygon fill="#181818" points="272,113.9219,282,117.9219,272,121.9219,276,117.9219" style="stroke:#181818;stroke-width:1.0;"/><line style="stroke:#181818;stroke-width:1.0;" x1="191" x2="278" y1="117.9219" y2="117.9219"/><text fill="#000000" font-family="sans-serif" font-size="13" lengthAdjust="spacing" textLength="35" x="198" y="113.0654">POST</text><polygon fill="#181818" points="456,144.2734,466,148.2734,456,152.2734,460,148.2734" style="stroke:#181818;stroke-width:1.0;"/><line style="stroke:#181818;stroke-width:1.0;" x1="294" x2="462" y1="148.2734" y2="148.2734"/><text fill="#000000" font-family="sans-serif" font-size="13" lengthAdjust="spacing" textLength="150" x="301" y="143.417">recieves request body info</text><rect fill="#E2E2F0" height="49.2188" rx="2.5" ry="2.5" style="stroke:#181818;stroke-width:0.5;" width="160" x="468" y="125.9219"/><text fill="#000000" font-family="sans-serif" font-size="14" font-style="italic" lengthAdjust="spacing" textLength="46" x="525" y="147.4551">&#171;DTO&#187;</text><text fill="#000000" font-family="sans-serif" font-size="14" lengthAdjust="spacing" textLength="146" x="475" y="165.0645">RegisteringPatientDTO</text><polygon fill="#181818" points="897,204.4922,907,208.4922,897,212.4922,901,208.4922" style="stroke:#181818;stroke-width:1.0;"/><line style="stroke:#181818;stroke-width:1.0;" x1="294" x2="903" y1="208.4922" y2="208.4922"/><text fill="#000000" font-family="sans-serif" font-size="13" lengthAdjust="spacing" textLength="219" x="301" y="203.6357">registerPatient(registeringPatientDTO)</text><line style="stroke:#181818;stroke-width:1.0;" x1="919" x2="966" y1="233.8438" y2="233.8438"/><line style="stroke:#181818;stroke-width:1.0;" x1="966" x2="966" y1="233.8438" y2="246.8438"/><line style="stroke:#181818;stroke-width:1.0;" x1="925" x2="966" y1="246.8438" y2="246.8438"/><polygon fill="#181818" points="935,242.8438,925,246.8438,935,250.8438,931,246.8438" style="stroke:#181818;stroke-width:1.0;"/><text fill="#000000" font-family="sans-serif" font-size="13" lengthAdjust="spacing" textLength="165" x="931" y="228.9873">validateEmailIsUnique(email)</text><line style="stroke:#181818;stroke-width:1.0;stroke-dasharray:2.0,2.0;" x1="924" x2="966" y1="287.1953" y2="287.1953"/><line style="stroke:#181818;stroke-width:1.0;stroke-dasharray:2.0,2.0;" x1="966" x2="966" y1="287.1953" y2="300.1953"/><line style="stroke:#181818;stroke-width:1.0;stroke-dasharray:2.0,2.0;" x1="919" x2="966" y1="300.1953" y2="300.1953"/><polygon fill="#181818" points="929,296.1953,919,300.1953,929,304.1953,925,300.1953" style="stroke:#181818;stroke-width:1.0;"/><text fill="#000000" font-family="sans-serif" font-size="13" lengthAdjust="spacing" textLength="20" x="931" y="282.3389">flag</text><polygon fill="#181818" points="1118,321.5469,1128,325.5469,1118,329.5469,1122,325.5469" style="stroke:#181818;stroke-width:1.0;"/><line style="stroke:#181818;stroke-width:1.0;" x1="919" x2="1124" y1="325.5469" y2="325.5469"/><text fill="#000000" font-family="sans-serif" font-size="13" lengthAdjust="spacing" textLength="139" x="926" y="320.6904">isSatisfiedBy(password)</text><polygon fill="#181818" points="930,351.8984,920,355.8984,930,359.8984,926,355.8984" style="stroke:#181818;stroke-width:1.0;"/><line style="stroke:#181818;stroke-width:1.0;stroke-dasharray:2.0,2.0;" x1="924" x2="1134" y1="355.8984" y2="355.8984"/><text fill="#000000" font-family="sans-serif" font-size="13" lengthAdjust="spacing" textLength="20" x="936" y="351.042">flag</text><polygon fill="#181818" points="1603,382.25,1613,386.25,1603,390.25,1607,386.25" style="stroke:#181818;stroke-width:1.0;"/><line style="stroke:#181818;stroke-width:1.0;" x1="919" x2="1609" y1="386.25" y2="386.25"/><text fill="#000000" font-family="sans-serif" font-size="13" lengthAdjust="spacing" textLength="375" x="926" y="381.3936">findByNameEmailAndPhoneNumber(name, email, phoneNumber)</text><polygon fill="#181818" points="930,412.6016,920,416.6016,930,420.6016,926,416.6016" style="stroke:#181818;stroke-width:1.0;"/><line style="stroke:#181818;stroke-width:1.0;stroke-dasharray:2.0,2.0;" x1="924" x2="1619" y1="416.6016" y2="416.6016"/><text fill="#000000" font-family="sans-serif" font-size="13" lengthAdjust="spacing" textLength="39" x="936" y="411.7451">patient</text><line style="stroke:#181818;stroke-width:1.0;" x1="919" x2="966" y1="441.9531" y2="441.9531"/><line style="stroke:#181818;stroke-width:1.0;" x1="966" x2="966" y1="441.9531" y2="454.9531"/><line style="stroke:#181818;stroke-width:1.0;" x1="925" x2="966" y1="454.9531" y2="454.9531"/><polygon fill="#181818" points="935,450.9531,925,454.9531,935,458.9531,931,454.9531" style="stroke:#181818;stroke-width:1.0;"/><text fill="#000000" font-family="sans-serif" font-size="13" lengthAdjust="spacing" textLength="197" x="931" y="437.0967">validatePatientHasNoUser(patient)</text><line style="stroke:#181818;stroke-width:1.0;stroke-dasharray:2.0,2.0;" x1="924" x2="966" y1="495.3047" y2="495.3047"/><line style="stroke:#181818;stroke-width:1.0;stroke-dasharray:2.0,2.0;" x1="966" x2="966" y1="495.3047" y2="508.3047"/><line style="stroke:#181818;stroke-width:1.0;stroke-dasharray:2.0,2.0;" x1="919" x2="966" y1="508.3047" y2="508.3047"/><polygon fill="#181818" points="929,504.3047,919,508.3047,929,512.3047,925,508.3047" style="stroke:#181818;stroke-width:1.0;"/><text fill="#000000" font-family="sans-serif" font-size="13" lengthAdjust="spacing" textLength="20" x="931" y="490.4482">flag</text><polygon fill="#181818" points="1244,529.6563,1254,533.6563,1244,537.6563,1248,533.6563" style="stroke:#181818;stroke-width:1.0;"/><line style="stroke:#181818;stroke-width:1.0;" x1="919" x2="1250" y1="533.6563" y2="533.6563"/><text fill="#000000" font-family="sans-serif" font-size="13" lengthAdjust="spacing" textLength="91" x="926" y="528.7998">hash(password)</text><polygon fill="#181818" points="930,560.0078,920,564.0078,930,568.0078,926,564.0078" style="stroke:#181818;stroke-width:1.0;"/><line style="stroke:#181818;stroke-width:1.0;stroke-dasharray:2.0,2.0;" x1="924" x2="1260" y1="564.0078" y2="564.0078"/><text fill="#000000" font-family="sans-serif" font-size="13" lengthAdjust="spacing" textLength="85" x="936" y="559.1514">passwordHash</text><polygon fill="#181818" points="1681,590.3594,1691,594.3594,1681,598.3594,1685,594.3594" style="stroke:#181818;stroke-width:1.0;"/><line style="stroke:#181818;stroke-width:1.0;" x1="919" x2="1687" y1="594.3594" y2="594.3594"/><text fill="#000000" font-family="sans-serif" font-size="13" lengthAdjust="spacing" textLength="252" x="926" y="589.5029">createUser(email, "patient", passwordHash)</text><rect fill="#E2E2F0" height="49.2188" rx="2.5" ry="2.5" style="stroke:#181818;stroke-width:0.5;" width="78" x="1693" y="572.0078"/><text fill="#000000" font-family="sans-serif" font-size="14" font-style="italic" lengthAdjust="spacing" textLength="64" x="1700" y="593.541">&#171;Domain&#187;</text><text fill="#000000" font-family="sans-serif" font-size="14" lengthAdjust="spacing" textLength="29" x="1717.5" y="611.1504">User</text><polygon fill="#181818" points="1720,650.5781,1730,654.5781,1720,658.5781,1724,654.5781" style="stroke:#181818;stroke-width:1.0;"/><line style="stroke:#181818;stroke-width:1.0;" x1="919" x2="1726" y1="654.5781" y2="654.5781"/><text fill="#000000" font-family="sans-serif" font-size="13" lengthAdjust="spacing" textLength="409" x="926" y="649.7217">setConfirmationToken(confirmationToken, confirmationTokenExpiration)</text><polygon fill="#181818" points="1479.5,680.9297,1489.5,684.9297,1479.5,688.9297,1483.5,684.9297" style="stroke:#181818;stroke-width:1.0;"/><line style="stroke:#181818;stroke-width:1.0;" x1="919" x2="1485.5" y1="684.9297" y2="684.9297"/><text fill="#000000" font-family="sans-serif" font-size="13" lengthAdjust="spacing" textLength="59" x="926" y="680.0732">save(user)</text><polygon fill="#181818" points="1366.5,711.2813,1376.5,715.2813,1366.5,719.2813,1370.5,715.2813" style="stroke:#181818;stroke-width:1.0;"/><line style="stroke:#181818;stroke-width:1.0;" x1="919" x2="1372.5" y1="715.2813" y2="715.2813"/><text fill="#000000" font-family="sans-serif" font-size="13" lengthAdjust="spacing" textLength="212" x="926" y="710.4248">sendConfirmationEmail(token, email)</text><polygon fill="#181818" points="305,741.6328,295,745.6328,305,749.6328,301,745.6328" style="stroke:#181818;stroke-width:1.0;"/><line style="stroke:#181818;stroke-width:1.0;stroke-dasharray:2.0,2.0;" x1="299" x2="913" y1="745.6328" y2="745.6328"/><text fill="#000000" font-family="sans-serif" font-size="13" lengthAdjust="spacing" textLength="53" x="311" y="740.7764">response</text><polygon fill="#181818" points="202,771.9844,192,775.9844,202,779.9844,198,775.9844" style="stroke:#181818;stroke-width:1.0;"/><line style="stroke:#181818;stroke-width:1.0;stroke-dasharray:2.0,2.0;" x1="196" x2="288" y1="775.9844" y2="775.9844"/><text fill="#000000" font-family="sans-serif" font-size="13" lengthAdjust="spacing" textLength="53" x="208" y="771.1279">response</text><polygon fill="#181818" points="11,802.3359,1,806.3359,11,810.3359,7,806.3359" style="stroke:#181818;stroke-width:1.0;"/><line style="stroke:#181818;stroke-width:1.0;stroke-dasharray:2.0,2.0;" x1="5" x2="185" y1="806.3359" y2="806.3359"/><text fill="#000000" font-family="sans-serif" font-size="13" lengthAdjust="spacing" textLength="53" x="17" y="801.4795">response</text><!--SRC=[ZLHDZvim4BtpAwmziQj4kICKgHyhjPSiscHFFNbXI4ObDhKDRVvznnyfDYHjBp1Ztdj-p8pTSsMmnfuBmzuqg5Sv661SCn-KfNjljra_0twImYZPTQ0iEihASafcl5SueZQWK1mhRX24-NnuiNJxAajwpWYarA8w4rQAApbbneXxAjRk7jI8jVkpQrYM8Ph1AwxrJwcQIdPONomZHFyYVE7wvCiHedk4vpF7BdAKvFT8hZlGIur6AcShogXFVvA5ErUlbBfSJ1NOOclN9ab6XQsn2sYZRtAzzQDIiEfbVs3vXlUu6OYWDxtVH3zcl3OuSfed1ytyR14p6XlFdv3Jfon24OVw-_H4S0KrmWYQWXy3QCFUPNDXA5ev8rmBQod92ENgrZn6RWCpkoeaOYFli26KQzvN_IQGREHWiniI2ioW16ixVepbmcGL3FMU7EWMeVbuoVimKP6GHzxLMVIpO2qAqjhnixVuGJJLIGhO3UTtKBcWzHLpTbUidpx4Myv5hxk7nlwzBe5DHs4dxG3bWVN_nGcdg60d2cxLn0CcLzCnZ6NyiBgPgHKGpxa9V_uGN3si4lxZKe3e6anytnpaTn1vFLzPiSNIywyUbKiJuQHTce-GsuEJG9AhmJeGJMp1VSwDtpRCNYY70jrBeM6Hb-jrkDsBQR61sHdDVWC0]--></g></svg>