<?xml version="1.0" encoding="us-ascii" standalone="no"?><svg xmlns="http://www.w3.org/2000/svg" xmlns:xlink="http://www.w3.org/1999/xlink" contentStyleType="text/css" height="761px" preserveAspectRatio="none" style="width:2135px;height:761px;background:#FFFFFF;" version="1.1" viewBox="0 0 2135 761" width="2135px" zoomAndPan="magnify"><defs/><g><rect fill="#FFFFFF" height="601.2266" style="stroke:#181818;stroke-width:1.0;" width="10" x="181" y="87.5703"/><rect fill="#FFFFFF" height="540.5234" style="stroke:#181818;stroke-width:1.0;" width="10" x="284" y="117.9219"/><rect fill="#FFFFFF" height="419.6016" style="stroke:#181818;stroke-width:1.0;" width="10" x="1185" y="208.4922"/><rect fill="#FFFFFF" height="41.3516" style="stroke:#181818;stroke-width:1.0;" width="10" x="1190" y="246.8438"/><rect fill="#FFFFFF" height="30.3516" style="stroke:#181818;stroke-width:1.0;" width="10" x="1973.5" y="325.5469"/><line style="stroke:#181818;stroke-width:0.5;stroke-dasharray:5.0,5.0;" x1="185.5" x2="185.5" y1="55.2188" y2="706.7969"/><line style="stroke:#181818;stroke-width:0.5;stroke-dasharray:5.0,5.0;" x1="288.5" x2="288.5" y1="55.2188" y2="706.7969"/><line style="stroke:#181818;stroke-width:0.5;stroke-dasharray:5.0,5.0;" x1="548" x2="548" y1="166.0313" y2="706.7969"/><line style="stroke:#181818;stroke-width:0.5;stroke-dasharray:5.0,5.0;" x1="748" x2="748" y1="585.6328" y2="706.7969"/><line style="stroke:#181818;stroke-width:0.5;stroke-dasharray:5.0,5.0;" x1="1190" x2="1190" y1="55.2188" y2="706.7969"/><line style="stroke:#181818;stroke-width:0.5;stroke-dasharray:5.0,5.0;" x1="1430.5" x2="1430.5" y1="55.2188" y2="706.7969"/><line style="stroke:#181818;stroke-width:0.5;stroke-dasharray:5.0,5.0;" x1="1636.5" x2="1636.5" y1="55.2188" y2="706.7969"/><line style="stroke:#181818;stroke-width:0.5;stroke-dasharray:5.0,5.0;" x1="1849.5" x2="1849.5" y1="55.2188" y2="706.7969"/><line style="stroke:#181818;stroke-width:0.5;stroke-dasharray:5.0,5.0;" x1="1978.5" x2="1978.5" y1="55.2188" y2="706.7969"/><line style="stroke:#181818;stroke-width:0.5;stroke-dasharray:5.0,5.0;" x1="2090.5" x2="2090.5" y1="404.0078" y2="706.7969"/><rect fill="#E2E2F0" height="49.2188" rx="2.5" ry="2.5" style="stroke:#181818;stroke-width:0.5;" width="81" x="145.5" y="5"/><text fill="#000000" font-family="sans-serif" font-size="14" font-style="italic" lengthAdjust="spacing" textLength="54" x="159" y="26.5332">&#171;Route&#187;</text><text fill="#000000" font-family="sans-serif" font-size="14" lengthAdjust="spacing" textLength="67" x="152.5" y="44.1426">UserRoute</text><rect fill="#E2E2F0" height="49.2188" rx="2.5" ry="2.5" style="stroke:#181818;stroke-width:0.5;" width="81" x="145.5" y="705.7969"/><text fill="#000000" font-family="sans-serif" font-size="14" font-style="italic" lengthAdjust="spacing" textLength="54" x="159" y="727.3301">&#171;Route&#187;</text><text fill="#000000" font-family="sans-serif" font-size="14" lengthAdjust="spacing" textLength="67" x="152.5" y="744.9395">UserRoute</text><rect fill="#E2E2F0" height="49.2188" rx="2.5" ry="2.5" style="stroke:#181818;stroke-width:0.5;" width="105" x="236.5" y="5"/><text fill="#000000" font-family="sans-serif" font-size="14" font-style="italic" lengthAdjust="spacing" textLength="78" x="250" y="26.5332">&#171;Controller&#187;</text><text fill="#000000" font-family="sans-serif" font-size="14" lengthAdjust="spacing" textLength="91" x="243.5" y="44.1426">UserController</text><rect fill="#E2E2F0" height="49.2188" rx="2.5" ry="2.5" style="stroke:#181818;stroke-width:0.5;" width="105" x="236.5" y="705.7969"/><text fill="#000000" font-family="sans-serif" font-size="14" font-style="italic" lengthAdjust="spacing" textLength="78" x="250" y="727.3301">&#171;Controller&#187;</text><text fill="#000000" font-family="sans-serif" font-size="14" lengthAdjust="spacing" textLength="91" x="243.5" y="744.9395">UserController</text><rect fill="#E2E2F0" height="49.2188" rx="2.5" ry="2.5" style="stroke:#181818;stroke-width:0.5;" width="160" x="468" y="705.7969"/><text fill="#000000" font-family="sans-serif" font-size="14" font-style="italic" lengthAdjust="spacing" textLength="46" x="525" y="727.3301">&#171;DTO&#187;</text><text fill="#000000" font-family="sans-serif" font-size="14" lengthAdjust="spacing" textLength="146" x="475" y="744.9395">RegisteringPatientDTO</text><rect fill="#E2E2F0" height="49.2188" rx="2.5" ry="2.5" style="stroke:#181818;stroke-width:0.5;" width="221" x="638" y="705.7969"/><text fill="#000000" font-family="sans-serif" font-size="14" font-style="italic" lengthAdjust="spacing" textLength="46" x="725.5" y="727.3301">&#171;DTO&#187;</text><text fill="#000000" font-family="sans-serif" font-size="14" lengthAdjust="spacing" textLength="207" x="645" y="744.9395">ConfirmationRegisterPatientDTO</text><rect fill="#E2E2F0" height="49.2188" rx="2.5" ry="2.5" style="stroke:#181818;stroke-width:0.5;" width="90" x="1145" y="5"/><text fill="#000000" font-family="sans-serif" font-size="14" font-style="italic" lengthAdjust="spacing" textLength="62" x="1159" y="26.5332">&#171;Service&#187;</text><text fill="#000000" font-family="sans-serif" font-size="14" lengthAdjust="spacing" textLength="76" x="1152" y="44.1426">UserService</text><rect fill="#E2E2F0" height="49.2188" rx="2.5" ry="2.5" style="stroke:#181818;stroke-width:0.5;" width="90" x="1145" y="705.7969"/><text fill="#000000" font-family="sans-serif" font-size="14" font-style="italic" lengthAdjust="spacing" textLength="62" x="1159" y="727.3301">&#171;Service&#187;</text><text fill="#000000" font-family="sans-serif" font-size="14" lengthAdjust="spacing" textLength="76" x="1152" y="744.9395">UserService</text><rect fill="#E2E2F0" height="49.2188" rx="2.5" ry="2.5" style="stroke:#181818;stroke-width:0.5;" width="95" x="1383.5" y="5"/><text fill="#000000" font-family="sans-serif" font-size="14" font-style="italic" lengthAdjust="spacing" textLength="62" x="1400" y="26.5332">&#171;Service&#187;</text><text fill="#000000" font-family="sans-serif" font-size="14" lengthAdjust="spacing" textLength="81" x="1390.5" y="44.1426">EmailService</text><rect fill="#E2E2F0" height="49.2188" rx="2.5" ry="2.5" style="stroke:#181818;stroke-width:0.5;" width="95" x="1383.5" y="705.7969"/><text fill="#000000" font-family="sans-serif" font-size="14" font-style="italic" lengthAdjust="spacing" textLength="62" x="1400" y="727.3301">&#171;Service&#187;</text><text fill="#000000" font-family="sans-serif" font-size="14" lengthAdjust="spacing" textLength="81" x="1390.5" y="744.9395">EmailService</text><rect fill="#E2E2F0" height="49.2188" rx="2.5" ry="2.5" style="stroke:#181818;stroke-width:0.5;" width="296" x="1488.5" y="5"/><text fill="#000000" font-family="sans-serif" font-size="14" font-style="italic" lengthAdjust="spacing" textLength="62" x="1605.5" y="26.5332">&#171;Service&#187;</text><text fill="#000000" font-family="sans-serif" font-size="14" lengthAdjust="spacing" textLength="282" x="1495.5" y="44.1426">ConfirmationRegisterPatientTokenGenerator</text><rect fill="#E2E2F0" height="49.2188" rx="2.5" ry="2.5" style="stroke:#181818;stroke-width:0.5;" width="296" x="1488.5" y="705.7969"/><text fill="#000000" font-family="sans-serif" font-size="14" font-style="italic" lengthAdjust="spacing" textLength="62" x="1605.5" y="727.3301">&#171;Service&#187;</text><text fill="#000000" font-family="sans-serif" font-size="14" lengthAdjust="spacing" textLength="282" x="1495.5" y="744.9395">ConfirmationRegisterPatientTokenGenerator</text><rect fill="#E2E2F0" height="49.2188" rx="2.5" ry="2.5" style="stroke:#181818;stroke-width:0.5;" width="111" x="1794.5" y="5"/><text fill="#000000" font-family="sans-serif" font-size="14" font-style="italic" lengthAdjust="spacing" textLength="84" x="1808" y="26.5332">&#171;Repository&#187;</text><text fill="#000000" font-family="sans-serif" font-size="14" lengthAdjust="spacing" textLength="97" x="1801.5" y="44.1426">UserRepository</text><rect fill="#E2E2F0" height="49.2188" rx="2.5" ry="2.5" style="stroke:#181818;stroke-width:0.5;" width="111" x="1794.5" y="705.7969"/><text fill="#000000" font-family="sans-serif" font-size="14" font-style="italic" lengthAdjust="spacing" textLength="84" x="1808" y="727.3301">&#171;Repository&#187;</text><text fill="#000000" font-family="sans-serif" font-size="14" lengthAdjust="spacing" textLength="97" x="1801.5" y="744.9395">UserRepository</text><rect fill="#E2E2F0" height="49.2188" rx="2.5" ry="2.5" style="stroke:#181818;stroke-width:0.5;" width="126" x="1915.5" y="5"/><text fill="#000000" font-family="sans-serif" font-size="14" font-style="italic" lengthAdjust="spacing" textLength="84" x="1936.5" y="26.5332">&#171;Repository&#187;</text><text fill="#000000" font-family="sans-serif" font-size="14" lengthAdjust="spacing" textLength="112" x="1922.5" y="44.1426">PatientRepository</text><rect fill="#E2E2F0" height="49.2188" rx="2.5" ry="2.5" style="stroke:#181818;stroke-width:0.5;" width="126" x="1915.5" y="705.7969"/><text fill="#000000" font-family="sans-serif" font-size="14" font-style="italic" lengthAdjust="spacing" textLength="84" x="1936.5" y="727.3301">&#171;Repository&#187;</text><text fill="#000000" font-family="sans-serif" font-size="14" lengthAdjust="spacing" textLength="112" x="1922.5" y="744.9395">PatientRepository</text><rect fill="#E2E2F0" height="49.2188" rx="2.5" ry="2.5" style="stroke:#181818;stroke-width:0.5;" width="78" x="2051.5" y="705.7969"/><text fill="#000000" font-family="sans-serif" font-size="14" font-style="italic" lengthAdjust="spacing" textLength="64" x="2058.5" y="727.3301">&#171;Domain&#187;</text><text fill="#000000" font-family="sans-serif" font-size="14" lengthAdjust="spacing" textLength="29" x="2076" y="744.9395">User</text><rect fill="#FFFFFF" height="601.2266" style="stroke:#181818;stroke-width:1.0;" width="10" x="181" y="87.5703"/><rect fill="#FFFFFF" height="540.5234" style="stroke:#181818;stroke-width:1.0;" width="10" x="284" y="117.9219"/><rect fill="#FFFFFF" height="419.6016" style="stroke:#181818;stroke-width:1.0;" width="10" x="1185" y="208.4922"/><rect fill="#FFFFFF" height="41.3516" style="stroke:#181818;stroke-width:1.0;" width="10" x="1190" y="246.8438"/><rect fill="#FFFFFF" height="30.3516" style="stroke:#181818;stroke-width:1.0;" width="10" x="1973.5" y="325.5469"/><ellipse cx="7.5" cy="86.8203" fill="none" rx="4" ry="4" style="stroke:#181818;stroke-width:1.5;"/><polygon fill="#181818" points="169,83.5703,179,87.5703,169,91.5703,173,87.5703" style="stroke:#181818;stroke-width:1.0;"/><line style="stroke:#181818;stroke-width:1.0;" x1="12" x2="175" y1="87.5703" y2="87.5703"/><text fill="#000000" font-family="sans-serif" font-size="13" lengthAdjust="spacing" textLength="154" x="15" y="82.7139">POST (/api/users/patients)</text><polygon fill="#181818" points="272,113.9219,282,117.9219,272,121.9219,276,117.9219" style="stroke:#181818;stroke-width:1.0;"/><line style="stroke:#181818;stroke-width:1.0;" x1="191" x2="278" y1="117.9219" y2="117.9219"/><text fill="#000000" font-family="sans-serif" font-size="13" lengthAdjust="spacing" textLength="35" x="198" y="113.0654">POST</text><polygon fill="#181818" points="456,144.2734,466,148.2734,456,152.2734,460,148.2734" style="stroke:#181818;stroke-width:1.0;"/><line style="stroke:#181818;stroke-width:1.0;" x1="294" x2="462" y1="148.2734" y2="148.2734"/><text fill="#000000" font-family="sans-serif" font-size="13" lengthAdjust="spacing" textLength="150" x="301" y="143.417">recieves request body info</text><rect fill="#E2E2F0" height="49.2188" rx="2.5" ry="2.5" style="stroke:#181818;stroke-width:0.5;" width="160" x="468" y="125.9219"/><text fill="#000000" font-family="sans-serif" font-size="14" font-style="italic" lengthAdjust="spacing" textLength="46" x="525" y="147.4551">&#171;DTO&#187;</text><text fill="#000000" font-family="sans-serif" font-size="14" lengthAdjust="spacing" textLength="146" x="475" y="165.0645">RegisteringPatientDTO</text><polygon fill="#181818" points="1173,204.4922,1183,208.4922,1173,212.4922,1177,208.4922" style="stroke:#181818;stroke-width:1.0;"/><line style="stroke:#181818;stroke-width:1.0;" x1="294" x2="1179" y1="208.4922" y2="208.4922"/><text fill="#000000" font-family="sans-serif" font-size="13" lengthAdjust="spacing" textLength="219" x="301" y="203.6357">registerPatient(registeringPatientDTO)</text><line style="stroke:#181818;stroke-width:1.0;" x1="1195" x2="1242" y1="233.8438" y2="233.8438"/><line style="stroke:#181818;stroke-width:1.0;" x1="1242" x2="1242" y1="233.8438" y2="246.8438"/><line style="stroke:#181818;stroke-width:1.0;" x1="1201" x2="1242" y1="246.8438" y2="246.8438"/><polygon fill="#181818" points="1211,242.8438,1201,246.8438,1211,250.8438,1207,246.8438" style="stroke:#181818;stroke-width:1.0;"/><text fill="#000000" font-family="sans-serif" font-size="13" lengthAdjust="spacing" textLength="165" x="1207" y="228.9873">validateEmailIsUnique(email)</text><line style="stroke:#181818;stroke-width:1.0;stroke-dasharray:2.0,2.0;" x1="1200" x2="1242" y1="287.1953" y2="287.1953"/><line style="stroke:#181818;stroke-width:1.0;stroke-dasharray:2.0,2.0;" x1="1242" x2="1242" y1="287.1953" y2="300.1953"/><line style="stroke:#181818;stroke-width:1.0;stroke-dasharray:2.0,2.0;" x1="1195" x2="1242" y1="300.1953" y2="300.1953"/><polygon fill="#181818" points="1205,296.1953,1195,300.1953,1205,304.1953,1201,300.1953" style="stroke:#181818;stroke-width:1.0;"/><text fill="#000000" font-family="sans-serif" font-size="13" lengthAdjust="spacing" textLength="20" x="1207" y="282.3389">flag</text><polygon fill="#181818" points="1961.5,321.5469,1971.5,325.5469,1961.5,329.5469,1965.5,325.5469" style="stroke:#181818;stroke-width:1.0;"/><line style="stroke:#181818;stroke-width:1.0;" x1="1195" x2="1967.5" y1="325.5469" y2="325.5469"/><text fill="#000000" font-family="sans-serif" font-size="13" lengthAdjust="spacing" textLength="375" x="1202" y="320.6904">findByNameEmailAndPhoneNumber(name, email, phoneNumber)</text><polygon fill="#181818" points="1206,351.8984,1196,355.8984,1206,359.8984,1202,355.8984" style="stroke:#181818;stroke-width:1.0;"/><line style="stroke:#181818;stroke-width:1.0;stroke-dasharray:2.0,2.0;" x1="1200" x2="1977.5" y1="355.8984" y2="355.8984"/><text fill="#000000" font-family="sans-serif" font-size="13" lengthAdjust="spacing" textLength="39" x="1212" y="351.042">patient</text><polygon fill="#181818" points="2039.5,382.25,2049.5,386.25,2039.5,390.25,2043.5,386.25" style="stroke:#181818;stroke-width:1.0;"/><line style="stroke:#181818;stroke-width:1.0;" x1="1195" x2="2045.5" y1="386.25" y2="386.25"/><text fill="#000000" font-family="sans-serif" font-size="13" lengthAdjust="spacing" textLength="165" x="1202" y="381.3936">createUser(email, password)</text><rect fill="#E2E2F0" height="49.2188" rx="2.5" ry="2.5" style="stroke:#181818;stroke-width:0.5;" width="78" x="2051.5" y="363.8984"/><text fill="#000000" font-family="sans-serif" font-size="14" font-style="italic" lengthAdjust="spacing" textLength="64" x="2058.5" y="385.4316">&#171;Domain&#187;</text><text fill="#000000" font-family="sans-serif" font-size="14" lengthAdjust="spacing" textLength="29" x="2076" y="403.041">User</text><polygon fill="#181818" points="1624.5,442.4688,1634.5,446.4688,1624.5,450.4688,1628.5,446.4688" style="stroke:#181818;stroke-width:1.0;"/><line style="stroke:#181818;stroke-width:1.0;" x1="1195" x2="1630.5" y1="446.4688" y2="446.4688"/><text fill="#000000" font-family="sans-serif" font-size="13" lengthAdjust="spacing" textLength="190" x="1202" y="441.6123">generateConfirmationToken(user)</text><polygon fill="#181818" points="2078.5,472.8203,2088.5,476.8203,2078.5,480.8203,2082.5,476.8203" style="stroke:#181818;stroke-width:1.0;"/><line style="stroke:#181818;stroke-width:1.0;" x1="1195" x2="2084.5" y1="476.8203" y2="476.8203"/><text fill="#000000" font-family="sans-serif" font-size="13" lengthAdjust="spacing" textLength="409" x="1202" y="471.9639">setConfirmationToken(confirmationToken, confirmationTokenExpiration)</text><polygon fill="#181818" points="1838,503.1719,1848,507.1719,1838,511.1719,1842,507.1719" style="stroke:#181818;stroke-width:1.0;"/><line style="stroke:#181818;stroke-width:1.0;" x1="1195" x2="1844" y1="507.1719" y2="507.1719"/><text fill="#000000" font-family="sans-serif" font-size="13" lengthAdjust="spacing" textLength="59" x="1202" y="502.3154">save(user)</text><polygon fill="#181818" points="1419,533.5234,1429,537.5234,1419,541.5234,1423,537.5234" style="stroke:#181818;stroke-width:1.0;"/><line style="stroke:#181818;stroke-width:1.0;" x1="1195" x2="1425" y1="537.5234" y2="537.5234"/><text fill="#000000" font-family="sans-serif" font-size="13" lengthAdjust="spacing" textLength="212" x="1202" y="532.667">sendConfirmationEmail(token, email)</text><polygon fill="#181818" points="870,563.875,860,567.875,870,571.875,866,567.875" style="stroke:#181818;stroke-width:1.0;"/><line style="stroke:#181818;stroke-width:1.0;" x1="864" x2="1184" y1="567.875" y2="567.875"/><text fill="#000000" font-family="sans-serif" font-size="13" lengthAdjust="spacing" textLength="302" x="876" y="563.0186">createConfirmationRegisterPatientDTO(token, email)</text><rect fill="#E2E2F0" height="49.2188" rx="2.5" ry="2.5" style="stroke:#181818;stroke-width:0.5;" width="221" x="638" y="545.5234"/><text fill="#000000" font-family="sans-serif" font-size="14" font-style="italic" lengthAdjust="spacing" textLength="46" x="725.5" y="567.0566">&#171;DTO&#187;</text><text fill="#000000" font-family="sans-serif" font-size="14" lengthAdjust="spacing" textLength="207" x="645" y="584.666">ConfirmationRegisterPatientDTO</text><polygon fill="#181818" points="305,624.0938,295,628.0938,305,632.0938,301,628.0938" style="stroke:#181818;stroke-width:1.0;"/><line style="stroke:#181818;stroke-width:1.0;stroke-dasharray:2.0,2.0;" x1="299" x2="1189" y1="628.0938" y2="628.0938"/><text fill="#000000" font-family="sans-serif" font-size="13" lengthAdjust="spacing" textLength="185" x="311" y="623.2373">confirmationRegisterPatientDTO</text><polygon fill="#181818" points="202,654.4453,192,658.4453,202,662.4453,198,658.4453" style="stroke:#181818;stroke-width:1.0;"/><line style="stroke:#181818;stroke-width:1.0;stroke-dasharray:2.0,2.0;" x1="196" x2="288" y1="658.4453" y2="658.4453"/><text fill="#000000" font-family="sans-serif" font-size="13" lengthAdjust="spacing" textLength="53" x="208" y="653.5889">response</text><polygon fill="#181818" points="11,684.7969,1,688.7969,11,692.7969,7,688.7969" style="stroke:#181818;stroke-width:1.0;"/><line style="stroke:#181818;stroke-width:1.0;stroke-dasharray:2.0,2.0;" x1="5" x2="185" y1="688.7969" y2="688.7969"/><text fill="#000000" font-family="sans-serif" font-size="13" lengthAdjust="spacing" textLength="53" x="17" y="683.9404">response</text><!--SRC=[VLHDR-CW4BtxLt1qgaIvHoZIRbjLUscZDZtjYTgJ5Aq3B61ly-yxWBtc8yd5de7tteoPXnNJbZTSCM79km7zAdiBX1aI0ahzUxkjL0Qyby9gsNMW7JhAA9sJZFSAHsuiQ2wEEsOv2FkmVt5qzw8Kdna1bGvSdn0hnKHEcJ7Ycefhzmtqm1l_PLD8wHXbyCSJurs4J_9hf1kTxkKV44yWG3Ch_MbbAzSq_Jn0ISCHTVP3cJESpFyauurrKsgvc2gGehGVZCIF5-vKVO25VilLDfXZGtOlRtjIhvdYwnu9Pgr24REeM6FvmD117be5Do4pCahWpyXvgufGoC69tjqXN4F3OG23mTyUZ2KViZqJBWuo8qp3SfHa5BM-vC2esv5PJGg9sC0wtYBA6-ANUHSSswZ1PHSaDDXU2tBes36MA-Um8GSksf_dPtOAqZz4k_kK0fxxqmVeMk3walWoIwBcZQXc8JfL7mSIDn0cwG-qqO1iD-jwacV6_9EwNSICpAuRSWmnnARteDhPO55MGuu1MyARV6L9YgN7ByMrJnFXv00D6w2idLnSru5eunRyTcr3sN6A4JlxiqG7TlklT4qnDtzpKwLgeN1KRFBf4dgF6oM5WPWItIMwMjs4XWjQVGC0]--></g></svg>