<?xml version="1.0" encoding="us-ascii" standalone="no"?><svg xmlns="http://www.w3.org/2000/svg" xmlns:xlink="http://www.w3.org/1999/xlink" contentStyleType="text/css" height="938px" preserveAspectRatio="none" style="width:2359px;height:938px;background:#FFFFFF;" version="1.1" viewBox="0 0 2359 938" width="2359px" zoomAndPan="magnify"><defs/><g><rect fill="#FFFFFF" height="778.9844" style="stroke:#181818;stroke-width:1.0;" width="10" x="181" y="87.5703"/><rect fill="#FFFFFF" height="718.2813" style="stroke:#181818;stroke-width:1.0;" width="10" x="284" y="117.9219"/><rect fill="#FFFFFF" height="597.3594" style="stroke:#181818;stroke-width:1.0;" width="10" x="1185" y="208.4922"/><rect fill="#FFFFFF" height="41.3516" style="stroke:#181818;stroke-width:1.0;" width="10" x="1190" y="246.8438"/><rect fill="#FFFFFF" height="41.3516" style="stroke:#181818;stroke-width:1.0;" width="10" x="1190" y="454.9531"/><rect fill="#FFFFFF" height="30.3516" style="stroke:#181818;stroke-width:1.0;" width="10" x="1406" y="325.5469"/><rect fill="#FFFFFF" height="30.3516" style="stroke:#181818;stroke-width:1.0;" width="10" x="2197" y="386.25"/><line style="stroke:#181818;stroke-width:0.5;stroke-dasharray:5.0,5.0;" x1="185.5" x2="185.5" y1="55.2188" y2="884.5547"/><line style="stroke:#181818;stroke-width:0.5;stroke-dasharray:5.0,5.0;" x1="288.5" x2="288.5" y1="55.2188" y2="884.5547"/><line style="stroke:#181818;stroke-width:0.5;stroke-dasharray:5.0,5.0;" x1="548" x2="548" y1="166.0313" y2="884.5547"/><line style="stroke:#181818;stroke-width:0.5;stroke-dasharray:5.0,5.0;" x1="748" x2="748" y1="763.3906" y2="884.5547"/><line style="stroke:#181818;stroke-width:0.5;stroke-dasharray:5.0,5.0;" x1="1190" x2="1190" y1="55.2188" y2="884.5547"/><line style="stroke:#181818;stroke-width:0.5;stroke-dasharray:5.0,5.0;" x1="1411" x2="1411" y1="55.2188" y2="884.5547"/><line style="stroke:#181818;stroke-width:0.5;stroke-dasharray:5.0,5.0;" x1="1537" x2="1537" y1="55.2188" y2="884.5547"/><line style="stroke:#181818;stroke-width:0.5;stroke-dasharray:5.0,5.0;" x1="1654" x2="1654" y1="55.2188" y2="884.5547"/><line style="stroke:#181818;stroke-width:0.5;stroke-dasharray:5.0,5.0;" x1="1860" x2="1860" y1="55.2188" y2="884.5547"/><line style="stroke:#181818;stroke-width:0.5;stroke-dasharray:5.0,5.0;" x1="2073" x2="2073" y1="55.2188" y2="884.5547"/><line style="stroke:#181818;stroke-width:0.5;stroke-dasharray:5.0,5.0;" x1="2202" x2="2202" y1="55.2188" y2="884.5547"/><line style="stroke:#181818;stroke-width:0.5;stroke-dasharray:5.0,5.0;" x1="2314" x2="2314" y1="581.7656" y2="884.5547"/><rect fill="#E2E2F0" height="49.2188" rx="2.5" ry="2.5" style="stroke:#181818;stroke-width:0.5;" width="81" x="145.5" y="5"/><text fill="#000000" font-family="sans-serif" font-size="14" font-style="italic" lengthAdjust="spacing" textLength="54" x="159" y="26.5332">&#171;Route&#187;</text><text fill="#000000" font-family="sans-serif" font-size="14" lengthAdjust="spacing" textLength="67" x="152.5" y="44.1426">UserRoute</text><rect fill="#E2E2F0" height="49.2188" rx="2.5" ry="2.5" style="stroke:#181818;stroke-width:0.5;" width="81" x="145.5" y="883.5547"/><text fill="#000000" font-family="sans-serif" font-size="14" font-style="italic" lengthAdjust="spacing" textLength="54" x="159" y="905.0879">&#171;Route&#187;</text><text fill="#000000" font-family="sans-serif" font-size="14" lengthAdjust="spacing" textLength="67" x="152.5" y="922.6973">UserRoute</text><rect fill="#E2E2F0" height="49.2188" rx="2.5" ry="2.5" style="stroke:#181818;stroke-width:0.5;" width="105" x="236.5" y="5"/><text fill="#000000" font-family="sans-serif" font-size="14" font-style="italic" lengthAdjust="spacing" textLength="78" x="250" y="26.5332">&#171;Controller&#187;</text><text fill="#000000" font-family="sans-serif" font-size="14" lengthAdjust="spacing" textLength="91" x="243.5" y="44.1426">UserController</text><rect fill="#E2E2F0" height="49.2188" rx="2.5" ry="2.5" style="stroke:#181818;stroke-width:0.5;" width="105" x="236.5" y="883.5547"/><text fill="#000000" font-family="sans-serif" font-size="14" font-style="italic" lengthAdjust="spacing" textLength="78" x="250" y="905.0879">&#171;Controller&#187;</text><text fill="#000000" font-family="sans-serif" font-size="14" lengthAdjust="spacing" textLength="91" x="243.5" y="922.6973">UserController</text><rect fill="#E2E2F0" height="49.2188" rx="2.5" ry="2.5" style="stroke:#181818;stroke-width:0.5;" width="160" x="468" y="883.5547"/><text fill="#000000" font-family="sans-serif" font-size="14" font-style="italic" lengthAdjust="spacing" textLength="46" x="525" y="905.0879">&#171;DTO&#187;</text><text fill="#000000" font-family="sans-serif" font-size="14" lengthAdjust="spacing" textLength="146" x="475" y="922.6973">RegisteringPatientDTO</text><rect fill="#E2E2F0" height="49.2188" rx="2.5" ry="2.5" style="stroke:#181818;stroke-width:0.5;" width="221" x="638" y="883.5547"/><text fill="#000000" font-family="sans-serif" font-size="14" font-style="italic" lengthAdjust="spacing" textLength="46" x="725.5" y="905.0879">&#171;DTO&#187;</text><text fill="#000000" font-family="sans-serif" font-size="14" lengthAdjust="spacing" textLength="207" x="645" y="922.6973">ConfirmationRegisterPatientDTO</text><rect fill="#E2E2F0" height="49.2188" rx="2.5" ry="2.5" style="stroke:#181818;stroke-width:0.5;" width="90" x="1145" y="5"/><text fill="#000000" font-family="sans-serif" font-size="14" font-style="italic" lengthAdjust="spacing" textLength="62" x="1159" y="26.5332">&#171;Service&#187;</text><text fill="#000000" font-family="sans-serif" font-size="14" lengthAdjust="spacing" textLength="76" x="1152" y="44.1426">UserService</text><rect fill="#E2E2F0" height="49.2188" rx="2.5" ry="2.5" style="stroke:#181818;stroke-width:0.5;" width="90" x="1145" y="883.5547"/><text fill="#000000" font-family="sans-serif" font-size="14" font-style="italic" lengthAdjust="spacing" textLength="62" x="1159" y="905.0879">&#171;Service&#187;</text><text fill="#000000" font-family="sans-serif" font-size="14" lengthAdjust="spacing" textLength="76" x="1152" y="922.6973">UserService</text><rect fill="#E2E2F0" height="49.2188" rx="2.5" ry="2.5" style="stroke:#181818;stroke-width:0.5;" width="112" x="1355" y="5"/><text fill="#000000" font-family="sans-serif" font-size="14" font-style="italic" lengthAdjust="spacing" textLength="62" x="1380" y="26.5332">&#171;Service&#187;</text><text fill="#000000" font-family="sans-serif" font-size="14" lengthAdjust="spacing" textLength="98" x="1362" y="44.1426">PasswordPolicy</text><rect fill="#E2E2F0" height="49.2188" rx="2.5" ry="2.5" style="stroke:#181818;stroke-width:0.5;" width="112" x="1355" y="883.5547"/><text fill="#000000" font-family="sans-serif" font-size="14" font-style="italic" lengthAdjust="spacing" textLength="62" x="1380" y="905.0879">&#171;Service&#187;</text><text fill="#000000" font-family="sans-serif" font-size="14" lengthAdjust="spacing" textLength="98" x="1362" y="922.6973">PasswordPolicy</text><rect fill="#E2E2F0" height="49.2188" rx="2.5" ry="2.5" style="stroke:#181818;stroke-width:0.5;" width="120" x="1477" y="5"/><text fill="#000000" font-family="sans-serif" font-size="14" font-style="italic" lengthAdjust="spacing" textLength="62" x="1506" y="26.5332">&#171;Service&#187;</text><text fill="#000000" font-family="sans-serif" font-size="14" lengthAdjust="spacing" textLength="106" x="1484" y="44.1426">PasswordHasher</text><rect fill="#E2E2F0" height="49.2188" rx="2.5" ry="2.5" style="stroke:#181818;stroke-width:0.5;" width="120" x="1477" y="883.5547"/><text fill="#000000" font-family="sans-serif" font-size="14" font-style="italic" lengthAdjust="spacing" textLength="62" x="1506" y="905.0879">&#171;Service&#187;</text><text fill="#000000" font-family="sans-serif" font-size="14" lengthAdjust="spacing" textLength="106" x="1484" y="922.6973">PasswordHasher</text><rect fill="#E2E2F0" height="49.2188" rx="2.5" ry="2.5" style="stroke:#181818;stroke-width:0.5;" width="95" x="1607" y="5"/><text fill="#000000" font-family="sans-serif" font-size="14" font-style="italic" lengthAdjust="spacing" textLength="62" x="1623.5" y="26.5332">&#171;Service&#187;</text><text fill="#000000" font-family="sans-serif" font-size="14" lengthAdjust="spacing" textLength="81" x="1614" y="44.1426">EmailService</text><rect fill="#E2E2F0" height="49.2188" rx="2.5" ry="2.5" style="stroke:#181818;stroke-width:0.5;" width="95" x="1607" y="883.5547"/><text fill="#000000" font-family="sans-serif" font-size="14" font-style="italic" lengthAdjust="spacing" textLength="62" x="1623.5" y="905.0879">&#171;Service&#187;</text><text fill="#000000" font-family="sans-serif" font-size="14" lengthAdjust="spacing" textLength="81" x="1614" y="922.6973">EmailService</text><rect fill="#E2E2F0" height="49.2188" rx="2.5" ry="2.5" style="stroke:#181818;stroke-width:0.5;" width="296" x="1712" y="5"/><text fill="#000000" font-family="sans-serif" font-size="14" font-style="italic" lengthAdjust="spacing" textLength="62" x="1829" y="26.5332">&#171;Service&#187;</text><text fill="#000000" font-family="sans-serif" font-size="14" lengthAdjust="spacing" textLength="282" x="1719" y="44.1426">ConfirmationRegisterPatientTokenGenerator</text><rect fill="#E2E2F0" height="49.2188" rx="2.5" ry="2.5" style="stroke:#181818;stroke-width:0.5;" width="296" x="1712" y="883.5547"/><text fill="#000000" font-family="sans-serif" font-size="14" font-style="italic" lengthAdjust="spacing" textLength="62" x="1829" y="905.0879">&#171;Service&#187;</text><text fill="#000000" font-family="sans-serif" font-size="14" lengthAdjust="spacing" textLength="282" x="1719" y="922.6973">ConfirmationRegisterPatientTokenGenerator</text><rect fill="#E2E2F0" height="49.2188" rx="2.5" ry="2.5" style="stroke:#181818;stroke-width:0.5;" width="111" x="2018" y="5"/><text fill="#000000" font-family="sans-serif" font-size="14" font-style="italic" lengthAdjust="spacing" textLength="84" x="2031.5" y="26.5332">&#171;Repository&#187;</text><text fill="#000000" font-family="sans-serif" font-size="14" lengthAdjust="spacing" textLength="97" x="2025" y="44.1426">UserRepository</text><rect fill="#E2E2F0" height="49.2188" rx="2.5" ry="2.5" style="stroke:#181818;stroke-width:0.5;" width="111" x="2018" y="883.5547"/><text fill="#000000" font-family="sans-serif" font-size="14" font-style="italic" lengthAdjust="spacing" textLength="84" x="2031.5" y="905.0879">&#171;Repository&#187;</text><text fill="#000000" font-family="sans-serif" font-size="14" lengthAdjust="spacing" textLength="97" x="2025" y="922.6973">UserRepository</text><rect fill="#E2E2F0" height="49.2188" rx="2.5" ry="2.5" style="stroke:#181818;stroke-width:0.5;" width="126" x="2139" y="5"/><text fill="#000000" font-family="sans-serif" font-size="14" font-style="italic" lengthAdjust="spacing" textLength="84" x="2160" y="26.5332">&#171;Repository&#187;</text><text fill="#000000" font-family="sans-serif" font-size="14" lengthAdjust="spacing" textLength="112" x="2146" y="44.1426">PatientRepository</text><rect fill="#E2E2F0" height="49.2188" rx="2.5" ry="2.5" style="stroke:#181818;stroke-width:0.5;" width="126" x="2139" y="883.5547"/><text fill="#000000" font-family="sans-serif" font-size="14" font-style="italic" lengthAdjust="spacing" textLength="84" x="2160" y="905.0879">&#171;Repository&#187;</text><text fill="#000000" font-family="sans-serif" font-size="14" lengthAdjust="spacing" textLength="112" x="2146" y="922.6973">PatientRepository</text><rect fill="#E2E2F0" height="49.2188" rx="2.5" ry="2.5" style="stroke:#181818;stroke-width:0.5;" width="78" x="2275" y="883.5547"/><text fill="#000000" font-family="sans-serif" font-size="14" font-style="italic" lengthAdjust="spacing" textLength="64" x="2282" y="905.0879">&#171;Domain&#187;</text><text fill="#000000" font-family="sans-serif" font-size="14" lengthAdjust="spacing" textLength="29" x="2299.5" y="922.6973">User</text><rect fill="#FFFFFF" height="778.9844" style="stroke:#181818;stroke-width:1.0;" width="10" x="181" y="87.5703"/><rect fill="#FFFFFF" height="718.2813" style="stroke:#181818;stroke-width:1.0;" width="10" x="284" y="117.9219"/><rect fill="#FFFFFF" height="597.3594" style="stroke:#181818;stroke-width:1.0;" width="10" x="1185" y="208.4922"/><rect fill="#FFFFFF" height="41.3516" style="stroke:#181818;stroke-width:1.0;" width="10" x="1190" y="246.8438"/><rect fill="#FFFFFF" height="41.3516" style="stroke:#181818;stroke-width:1.0;" width="10" x="1190" y="454.9531"/><rect fill="#FFFFFF" height="30.3516" style="stroke:#181818;stroke-width:1.0;" width="10" x="1406" y="325.5469"/><rect fill="#FFFFFF" height="30.3516" style="stroke:#181818;stroke-width:1.0;" width="10" x="2197" y="386.25"/><ellipse cx="7.5" cy="86.8203" fill="none" rx="4" ry="4" style="stroke:#181818;stroke-width:1.5;"/><polygon fill="#181818" points="169,83.5703,179,87.5703,169,91.5703,173,87.5703" style="stroke:#181818;stroke-width:1.0;"/><line style="stroke:#181818;stroke-width:1.0;" x1="12" x2="175" y1="87.5703" y2="87.5703"/><text fill="#000000" font-family="sans-serif" font-size="13" lengthAdjust="spacing" textLength="154" x="15" y="82.7139">POST (/api/users/patients)</text><polygon fill="#181818" points="272,113.9219,282,117.9219,272,121.9219,276,117.9219" style="stroke:#181818;stroke-width:1.0;"/><line style="stroke:#181818;stroke-width:1.0;" x1="191" x2="278" y1="117.9219" y2="117.9219"/><text fill="#000000" font-family="sans-serif" font-size="13" lengthAdjust="spacing" textLength="35" x="198" y="113.0654">POST</text><polygon fill="#181818" points="456,144.2734,466,148.2734,456,152.2734,460,148.2734" style="stroke:#181818;stroke-width:1.0;"/><line style="stroke:#181818;stroke-width:1.0;" x1="294" x2="462" y1="148.2734" y2="148.2734"/><text fill="#000000" font-family="sans-serif" font-size="13" lengthAdjust="spacing" textLength="150" x="301" y="143.417">recieves request body info</text><rect fill="#E2E2F0" height="49.2188" rx="2.5" ry="2.5" style="stroke:#181818;stroke-width:0.5;" width="160" x="468" y="125.9219"/><text fill="#000000" font-family="sans-serif" font-size="14" font-style="italic" lengthAdjust="spacing" textLength="46" x="525" y="147.4551">&#171;DTO&#187;</text><text fill="#000000" font-family="sans-serif" font-size="14" lengthAdjust="spacing" textLength="146" x="475" y="165.0645">RegisteringPatientDTO</text><polygon fill="#181818" points="1173,204.4922,1183,208.4922,1173,212.4922,1177,208.4922" style="stroke:#181818;stroke-width:1.0;"/><line style="stroke:#181818;stroke-width:1.0;" x1="294" x2="1179" y1="208.4922" y2="208.4922"/><text fill="#000000" font-family="sans-serif" font-size="13" lengthAdjust="spacing" textLength="219" x="301" y="203.6357">registerPatient(registeringPatientDTO)</text><line style="stroke:#181818;stroke-width:1.0;" x1="1195" x2="1242" y1="233.8438" y2="233.8438"/><line style="stroke:#181818;stroke-width:1.0;" x1="1242" x2="1242" y1="233.8438" y2="246.8438"/><line style="stroke:#181818;stroke-width:1.0;" x1="1201" x2="1242" y1="246.8438" y2="246.8438"/><polygon fill="#181818" points="1211,242.8438,1201,246.8438,1211,250.8438,1207,246.8438" style="stroke:#181818;stroke-width:1.0;"/><text fill="#000000" font-family="sans-serif" font-size="13" lengthAdjust="spacing" textLength="165" x="1207" y="228.9873">validateEmailIsUnique(email)</text><line style="stroke:#181818;stroke-width:1.0;stroke-dasharray:2.0,2.0;" x1="1200" x2="1242" y1="287.1953" y2="287.1953"/><line style="stroke:#181818;stroke-width:1.0;stroke-dasharray:2.0,2.0;" x1="1242" x2="1242" y1="287.1953" y2="300.1953"/><line style="stroke:#181818;stroke-width:1.0;stroke-dasharray:2.0,2.0;" x1="1195" x2="1242" y1="300.1953" y2="300.1953"/><polygon fill="#181818" points="1205,296.1953,1195,300.1953,1205,304.1953,1201,300.1953" style="stroke:#181818;stroke-width:1.0;"/><text fill="#000000" font-family="sans-serif" font-size="13" lengthAdjust="spacing" textLength="20" x="1207" y="282.3389">flag</text><polygon fill="#181818" points="1394,321.5469,1404,325.5469,1394,329.5469,1398,325.5469" style="stroke:#181818;stroke-width:1.0;"/><line style="stroke:#181818;stroke-width:1.0;" x1="1195" x2="1400" y1="325.5469" y2="325.5469"/><text fill="#000000" font-family="sans-serif" font-size="13" lengthAdjust="spacing" textLength="139" x="1202" y="320.6904">isSatisfiedBy(password)</text><polygon fill="#181818" points="1206,351.8984,1196,355.8984,1206,359.8984,1202,355.8984" style="stroke:#181818;stroke-width:1.0;"/><line style="stroke:#181818;stroke-width:1.0;stroke-dasharray:2.0,2.0;" x1="1200" x2="1410" y1="355.8984" y2="355.8984"/><text fill="#000000" font-family="sans-serif" font-size="13" lengthAdjust="spacing" textLength="20" x="1212" y="351.042">flag</text><polygon fill="#181818" points="2185,382.25,2195,386.25,2185,390.25,2189,386.25" style="stroke:#181818;stroke-width:1.0;"/><line style="stroke:#181818;stroke-width:1.0;" x1="1195" x2="2191" y1="386.25" y2="386.25"/><text fill="#000000" font-family="sans-serif" font-size="13" lengthAdjust="spacing" textLength="375" x="1202" y="381.3936">findByNameEmailAndPhoneNumber(name, email, phoneNumber)</text><polygon fill="#181818" points="1206,412.6016,1196,416.6016,1206,420.6016,1202,416.6016" style="stroke:#181818;stroke-width:1.0;"/><line style="stroke:#181818;stroke-width:1.0;stroke-dasharray:2.0,2.0;" x1="1200" x2="2201" y1="416.6016" y2="416.6016"/><text fill="#000000" font-family="sans-serif" font-size="13" lengthAdjust="spacing" textLength="39" x="1212" y="411.7451">patient</text><line style="stroke:#181818;stroke-width:1.0;" x1="1195" x2="1242" y1="441.9531" y2="441.9531"/><line style="stroke:#181818;stroke-width:1.0;" x1="1242" x2="1242" y1="441.9531" y2="454.9531"/><line style="stroke:#181818;stroke-width:1.0;" x1="1201" x2="1242" y1="454.9531" y2="454.9531"/><polygon fill="#181818" points="1211,450.9531,1201,454.9531,1211,458.9531,1207,454.9531" style="stroke:#181818;stroke-width:1.0;"/><text fill="#000000" font-family="sans-serif" font-size="13" lengthAdjust="spacing" textLength="197" x="1207" y="437.0967">validatePatientHasNoUser(patient)</text><line style="stroke:#181818;stroke-width:1.0;stroke-dasharray:2.0,2.0;" x1="1200" x2="1242" y1="495.3047" y2="495.3047"/><line style="stroke:#181818;stroke-width:1.0;stroke-dasharray:2.0,2.0;" x1="1242" x2="1242" y1="495.3047" y2="508.3047"/><line style="stroke:#181818;stroke-width:1.0;stroke-dasharray:2.0,2.0;" x1="1195" x2="1242" y1="508.3047" y2="508.3047"/><polygon fill="#181818" points="1205,504.3047,1195,508.3047,1205,512.3047,1201,508.3047" style="stroke:#181818;stroke-width:1.0;"/><text fill="#000000" font-family="sans-serif" font-size="13" lengthAdjust="spacing" textLength="20" x="1207" y="490.4482">flag</text><polygon fill="#181818" points="1525,529.6563,1535,533.6563,1525,537.6563,1529,533.6563" style="stroke:#181818;stroke-width:1.0;"/><line style="stroke:#181818;stroke-width:1.0;" x1="1195" x2="1531" y1="533.6563" y2="533.6563"/><text fill="#000000" font-family="sans-serif" font-size="13" lengthAdjust="spacing" textLength="91" x="1202" y="528.7998">hash(password)</text><polygon fill="#181818" points="2263,560.0078,2273,564.0078,2263,568.0078,2267,564.0078" style="stroke:#181818;stroke-width:1.0;"/><line style="stroke:#181818;stroke-width:1.0;" x1="1195" x2="2269" y1="564.0078" y2="564.0078"/><text fill="#000000" font-family="sans-serif" font-size="13" lengthAdjust="spacing" textLength="195" x="1202" y="559.1514">createUser(email, passwordHash)</text><rect fill="#E2E2F0" height="49.2188" rx="2.5" ry="2.5" style="stroke:#181818;stroke-width:0.5;" width="78" x="2275" y="541.6563"/><text fill="#000000" font-family="sans-serif" font-size="14" font-style="italic" lengthAdjust="spacing" textLength="64" x="2282" y="563.1895">&#171;Domain&#187;</text><text fill="#000000" font-family="sans-serif" font-size="14" lengthAdjust="spacing" textLength="29" x="2299.5" y="580.7988">User</text><polygon fill="#181818" points="1848,620.2266,1858,624.2266,1848,628.2266,1852,624.2266" style="stroke:#181818;stroke-width:1.0;"/><line style="stroke:#181818;stroke-width:1.0;" x1="1195" x2="1854" y1="624.2266" y2="624.2266"/><text fill="#000000" font-family="sans-serif" font-size="13" lengthAdjust="spacing" textLength="190" x="1202" y="619.3701">generateConfirmationToken(user)</text><polygon fill="#181818" points="2302,650.5781,2312,654.5781,2302,658.5781,2306,654.5781" style="stroke:#181818;stroke-width:1.0;"/><line style="stroke:#181818;stroke-width:1.0;" x1="1195" x2="2308" y1="654.5781" y2="654.5781"/><text fill="#000000" font-family="sans-serif" font-size="13" lengthAdjust="spacing" textLength="409" x="1202" y="649.7217">setConfirmationToken(confirmationToken, confirmationTokenExpiration)</text><polygon fill="#181818" points="2061.5,680.9297,2071.5,684.9297,2061.5,688.9297,2065.5,684.9297" style="stroke:#181818;stroke-width:1.0;"/><line style="stroke:#181818;stroke-width:1.0;" x1="1195" x2="2067.5" y1="684.9297" y2="684.9297"/><text fill="#000000" font-family="sans-serif" font-size="13" lengthAdjust="spacing" textLength="59" x="1202" y="680.0732">save(user)</text><polygon fill="#181818" points="1642.5,711.2813,1652.5,715.2813,1642.5,719.2813,1646.5,715.2813" style="stroke:#181818;stroke-width:1.0;"/><line style="stroke:#181818;stroke-width:1.0;" x1="1195" x2="1648.5" y1="715.2813" y2="715.2813"/><text fill="#000000" font-family="sans-serif" font-size="13" lengthAdjust="spacing" textLength="212" x="1202" y="710.4248">sendConfirmationEmail(token, email)</text><polygon fill="#181818" points="870,741.6328,860,745.6328,870,749.6328,866,745.6328" style="stroke:#181818;stroke-width:1.0;"/><line style="stroke:#181818;stroke-width:1.0;" x1="864" x2="1184" y1="745.6328" y2="745.6328"/><text fill="#000000" font-family="sans-serif" font-size="13" lengthAdjust="spacing" textLength="302" x="876" y="740.7764">createConfirmationRegisterPatientDTO(token, email)</text><rect fill="#E2E2F0" height="49.2188" rx="2.5" ry="2.5" style="stroke:#181818;stroke-width:0.5;" width="221" x="638" y="723.2813"/><text fill="#000000" font-family="sans-serif" font-size="14" font-style="italic" lengthAdjust="spacing" textLength="46" x="725.5" y="744.8145">&#171;DTO&#187;</text><text fill="#000000" font-family="sans-serif" font-size="14" lengthAdjust="spacing" textLength="207" x="645" y="762.4238">ConfirmationRegisterPatientDTO</text><polygon fill="#181818" points="305,801.8516,295,805.8516,305,809.8516,301,805.8516" style="stroke:#181818;stroke-width:1.0;"/><line style="stroke:#181818;stroke-width:1.0;stroke-dasharray:2.0,2.0;" x1="299" x2="1189" y1="805.8516" y2="805.8516"/><text fill="#000000" font-family="sans-serif" font-size="13" lengthAdjust="spacing" textLength="185" x="311" y="800.9951">confirmationRegisterPatientDTO</text><polygon fill="#181818" points="202,832.2031,192,836.2031,202,840.2031,198,836.2031" style="stroke:#181818;stroke-width:1.0;"/><line style="stroke:#181818;stroke-width:1.0;stroke-dasharray:2.0,2.0;" x1="196" x2="288" y1="836.2031" y2="836.2031"/><text fill="#000000" font-family="sans-serif" font-size="13" lengthAdjust="spacing" textLength="53" x="208" y="831.3467">response</text><polygon fill="#181818" points="11,862.5547,1,866.5547,11,870.5547,7,866.5547" style="stroke:#181818;stroke-width:1.0;"/><line style="stroke:#181818;stroke-width:1.0;stroke-dasharray:2.0,2.0;" x1="5" x2="185" y1="866.5547" y2="866.5547"/><text fill="#000000" font-family="sans-serif" font-size="13" lengthAdjust="spacing" textLength="53" x="17" y="861.6982">response</text><!--SRC=[ZLJBRjim4BphAtXK0nk-2uA1FeAc5qU8dLDFZBIoYSYaIb9g_VTTFbIJbENqOY-fcTabTvOzbPhLhATSarS5yaKC6WXLn0LbQV-tswnFW5y5rr9q7KY33bPbULqal1SuCgL1Cdwig6R0zRV3iw6RlxB4tuI0IYsJPyGAFf5ZPeXOKZ7bxa6EhBOdcyAoz542hwXIluLiAj6n-c8OFlg8y4JLoLs7ZvO8ZsVAkg2YQBr4kdCN1_4E_3jma5GBMq2oiwHfEmwzK0nHzgZ12dl_Rp4xiSqRK-URiGAPfRQj5tXuRlfc0qpqKwotpdu5gPxt1v9lQCys0nBKfdT9rAUCrfgD53rgePdpAp83Aph-5Ndzb0KevA1d7XuGBg5cC8B2uDS0IfCtqLm8uwr825Ep32LgHIvlUJoerZEpII4I6sd76aHPG_nGhvnX6JcOrGq92NgGdBGTFOPotgq5OMgF5QYMGVFbalVUfO6GGoxgpFfPa9PnrDhHiolnCs-ga-2m6yvl87EE-ojYorsH_leXJ9cAJjbzO-_VYsVZUEs4CL3kMVz_ENuo2tB28BYJ0EACQFrGIq1DcsawLJ3h4IkPk88SNGpXt5fGRfny8oDo5EWvl4vtLcIszVYdPz8k8-6eTugECCyTlJsc0jw49TZFkNPflH43TlBy1fTs_-bUKapdjxwhaZKmwtiufzCxOiTKzO8h22d1Sr2krtUXxet9_W80]--></g></svg>