<?xml version="1.0" encoding="us-ascii" standalone="no"?><svg xmlns="http://www.w3.org/2000/svg" xmlns:xlink="http://www.w3.org/1999/xlink" contentStyleType="text/css" height="640px" preserveAspectRatio="none" style="width:1389px;height:640px;background:#FFFFFF;" version="1.1" viewBox="0 0 1389 640" width="1389px" zoomAndPan="magnify"><defs/><g><rect fill="#FFFFFF" height="489.7891" style="stroke:#181818;stroke-width:1.0;" width="10" x="353" y="87.5703"/><rect fill="#FFFFFF" height="450.4375" style="stroke:#181818;stroke-width:1.0;" width="10" x="456" y="117.9219"/><rect fill="#FFFFFF" height="329.5156" style="stroke:#181818;stroke-width:1.0;" width="10" x="899" y="208.4922"/><rect fill="#FFFFFF" height="41.3516" style="stroke:#181818;stroke-width:1.0;" width="10" x="904" y="307.5469"/><rect fill="#FFFFFF" height="30.3516" style="stroke:#181818;stroke-width:1.0;" width="10" x="1074" y="238.8438"/><rect fill="#FFFFFF" height="30.3516" style="stroke:#181818;stroke-width:1.0;" width="10" x="1202.5" y="386.25"/><line style="stroke:#181818;stroke-width:0.5;stroke-dasharray:5.0,5.0;" x1="357.5" x2="357.5" y1="55.2188" y2="586.3594"/><line style="stroke:#181818;stroke-width:0.5;stroke-dasharray:5.0,5.0;" x1="460.5" x2="460.5" y1="55.2188" y2="586.3594"/><line style="stroke:#181818;stroke-width:0.5;stroke-dasharray:5.0,5.0;" x1="744" x2="744" y1="166.0313" y2="586.3594"/><line style="stroke:#181818;stroke-width:0.5;stroke-dasharray:5.0,5.0;" x1="904" x2="904" y1="55.2188" y2="586.3594"/><line style="stroke:#181818;stroke-width:0.5;stroke-dasharray:5.0,5.0;" x1="1078.5" x2="1078.5" y1="55.2188" y2="586.3594"/><line style="stroke:#181818;stroke-width:0.5;stroke-dasharray:5.0,5.0;" x1="1207.5" x2="1207.5" y1="55.2188" y2="586.3594"/><line style="stroke:#181818;stroke-width:0.5;stroke-dasharray:5.0,5.0;" x1="1331.5" x2="1331.5" y1="55.2188" y2="586.3594"/><rect fill="#E2E2F0" height="49.2188" rx="2.5" ry="2.5" style="stroke:#181818;stroke-width:0.5;" width="81" x="317.5" y="5"/><text fill="#000000" font-family="sans-serif" font-size="14" font-style="italic" lengthAdjust="spacing" textLength="54" x="331" y="26.5332">&#171;Route&#187;</text><text fill="#000000" font-family="sans-serif" font-size="14" lengthAdjust="spacing" textLength="67" x="324.5" y="44.1426">UserRoute</text><rect fill="#E2E2F0" height="49.2188" rx="2.5" ry="2.5" style="stroke:#181818;stroke-width:0.5;" width="81" x="317.5" y="585.3594"/><text fill="#000000" font-family="sans-serif" font-size="14" font-style="italic" lengthAdjust="spacing" textLength="54" x="331" y="606.8926">&#171;Route&#187;</text><text fill="#000000" font-family="sans-serif" font-size="14" lengthAdjust="spacing" textLength="67" x="324.5" y="624.502">UserRoute</text><rect fill="#E2E2F0" height="49.2188" rx="2.5" ry="2.5" style="stroke:#181818;stroke-width:0.5;" width="105" x="408.5" y="5"/><text fill="#000000" font-family="sans-serif" font-size="14" font-style="italic" lengthAdjust="spacing" textLength="78" x="422" y="26.5332">&#171;Controller&#187;</text><text fill="#000000" font-family="sans-serif" font-size="14" lengthAdjust="spacing" textLength="91" x="415.5" y="44.1426">UserController</text><rect fill="#E2E2F0" height="49.2188" rx="2.5" ry="2.5" style="stroke:#181818;stroke-width:0.5;" width="105" x="408.5" y="585.3594"/><text fill="#000000" font-family="sans-serif" font-size="14" font-style="italic" lengthAdjust="spacing" textLength="78" x="422" y="606.8926">&#171;Controller&#187;</text><text fill="#000000" font-family="sans-serif" font-size="14" lengthAdjust="spacing" textLength="91" x="415.5" y="624.502">UserController</text><rect fill="#E2E2F0" height="49.2188" rx="2.5" ry="2.5" style="stroke:#181818;stroke-width:0.5;" width="209" x="640" y="585.3594"/><text fill="#000000" font-family="sans-serif" font-size="14" font-style="italic" lengthAdjust="spacing" textLength="46" x="721.5" y="606.8926">&#171;DTO&#187;</text><text fill="#000000" font-family="sans-serif" font-size="14" lengthAdjust="spacing" textLength="195" x="647" y="624.502">ConfirmationDeletePatientDTO</text><rect fill="#E2E2F0" height="49.2188" rx="2.5" ry="2.5" style="stroke:#181818;stroke-width:0.5;" width="90" x="859" y="5"/><text fill="#000000" font-family="sans-serif" font-size="14" font-style="italic" lengthAdjust="spacing" textLength="62" x="873" y="26.5332">&#171;Service&#187;</text><text fill="#000000" font-family="sans-serif" font-size="14" lengthAdjust="spacing" textLength="76" x="866" y="44.1426">UserService</text><rect fill="#E2E2F0" height="49.2188" rx="2.5" ry="2.5" style="stroke:#181818;stroke-width:0.5;" width="90" x="859" y="585.3594"/><text fill="#000000" font-family="sans-serif" font-size="14" font-style="italic" lengthAdjust="spacing" textLength="62" x="873" y="606.8926">&#171;Service&#187;</text><text fill="#000000" font-family="sans-serif" font-size="14" lengthAdjust="spacing" textLength="76" x="866" y="624.502">UserService</text><rect fill="#E2E2F0" height="49.2188" rx="2.5" ry="2.5" style="stroke:#181818;stroke-width:0.5;" width="111" x="1023.5" y="5"/><text fill="#000000" font-family="sans-serif" font-size="14" font-style="italic" lengthAdjust="spacing" textLength="84" x="1037" y="26.5332">&#171;Repository&#187;</text><text fill="#000000" font-family="sans-serif" font-size="14" lengthAdjust="spacing" textLength="97" x="1030.5" y="44.1426">UserRepository</text><rect fill="#E2E2F0" height="49.2188" rx="2.5" ry="2.5" style="stroke:#181818;stroke-width:0.5;" width="111" x="1023.5" y="585.3594"/><text fill="#000000" font-family="sans-serif" font-size="14" font-style="italic" lengthAdjust="spacing" textLength="84" x="1037" y="606.8926">&#171;Repository&#187;</text><text fill="#000000" font-family="sans-serif" font-size="14" lengthAdjust="spacing" textLength="97" x="1030.5" y="624.502">UserRepository</text><rect fill="#E2E2F0" height="49.2188" rx="2.5" ry="2.5" style="stroke:#181818;stroke-width:0.5;" width="126" x="1144.5" y="5"/><text fill="#000000" font-family="sans-serif" font-size="14" font-style="italic" lengthAdjust="spacing" textLength="84" x="1165.5" y="26.5332">&#171;Repository&#187;</text><text fill="#000000" font-family="sans-serif" font-size="14" lengthAdjust="spacing" textLength="112" x="1151.5" y="44.1426">PatientRepository</text><rect fill="#E2E2F0" height="49.2188" rx="2.5" ry="2.5" style="stroke:#181818;stroke-width:0.5;" width="126" x="1144.5" y="585.3594"/><text fill="#000000" font-family="sans-serif" font-size="14" font-style="italic" lengthAdjust="spacing" textLength="84" x="1165.5" y="606.8926">&#171;Repository&#187;</text><text fill="#000000" font-family="sans-serif" font-size="14" lengthAdjust="spacing" textLength="112" x="1151.5" y="624.502">PatientRepository</text><rect fill="#E2E2F0" height="49.2188" rx="2.5" ry="2.5" style="stroke:#181818;stroke-width:0.5;" width="103" x="1280.5" y="5"/><text fill="#000000" font-family="sans-serif" font-size="14" font-style="italic" lengthAdjust="spacing" textLength="64" x="1300" y="26.5332">&#171;Domain&#187;</text><text fill="#000000" font-family="sans-serif" font-size="14" lengthAdjust="spacing" textLength="89" x="1287.5" y="44.1426">PatientLogger</text><rect fill="#E2E2F0" height="49.2188" rx="2.5" ry="2.5" style="stroke:#181818;stroke-width:0.5;" width="103" x="1280.5" y="585.3594"/><text fill="#000000" font-family="sans-serif" font-size="14" font-style="italic" lengthAdjust="spacing" textLength="64" x="1300" y="606.8926">&#171;Domain&#187;</text><text fill="#000000" font-family="sans-serif" font-size="14" lengthAdjust="spacing" textLength="89" x="1287.5" y="624.502">PatientLogger</text><rect fill="#FFFFFF" height="489.7891" style="stroke:#181818;stroke-width:1.0;" width="10" x="353" y="87.5703"/><rect fill="#FFFFFF" height="450.4375" style="stroke:#181818;stroke-width:1.0;" width="10" x="456" y="117.9219"/><rect fill="#FFFFFF" height="329.5156" style="stroke:#181818;stroke-width:1.0;" width="10" x="899" y="208.4922"/><rect fill="#FFFFFF" height="41.3516" style="stroke:#181818;stroke-width:1.0;" width="10" x="904" y="307.5469"/><rect fill="#FFFFFF" height="30.3516" style="stroke:#181818;stroke-width:1.0;" width="10" x="1074" y="238.8438"/><rect fill="#FFFFFF" height="30.3516" style="stroke:#181818;stroke-width:1.0;" width="10" x="1202.5" y="386.25"/><ellipse cx="7.5" cy="86.8203" fill="none" rx="4" ry="4" style="stroke:#181818;stroke-width:1.5;"/><polygon fill="#181818" points="341,83.5703,351,87.5703,341,91.5703,345,87.5703" style="stroke:#181818;stroke-width:1.0;"/><line style="stroke:#181818;stroke-width:1.0;" x1="12" x2="347" y1="87.5703" y2="87.5703"/><text fill="#000000" font-family="sans-serif" font-size="13" lengthAdjust="spacing" textLength="326" x="15" y="82.7139">DELETE (/api/users/patients/delete/confirmation/{token})</text><polygon fill="#181818" points="444,113.9219,454,117.9219,444,121.9219,448,117.9219" style="stroke:#181818;stroke-width:1.0;"/><line style="stroke:#181818;stroke-width:1.0;" x1="363" x2="450" y1="117.9219" y2="117.9219"/><text fill="#000000" font-family="sans-serif" font-size="13" lengthAdjust="spacing" textLength="50" x="370" y="113.0654">DELETE</text><polygon fill="#181818" points="628,144.2734,638,148.2734,628,152.2734,632,148.2734" style="stroke:#181818;stroke-width:1.0;"/><line style="stroke:#181818;stroke-width:1.0;" x1="466" x2="634" y1="148.2734" y2="148.2734"/><text fill="#000000" font-family="sans-serif" font-size="13" lengthAdjust="spacing" textLength="150" x="473" y="143.417">recieves request body info</text><rect fill="#E2E2F0" height="49.2188" rx="2.5" ry="2.5" style="stroke:#181818;stroke-width:0.5;" width="209" x="640" y="125.9219"/><text fill="#000000" font-family="sans-serif" font-size="14" font-style="italic" lengthAdjust="spacing" textLength="46" x="721.5" y="147.4551">&#171;DTO&#187;</text><text fill="#000000" font-family="sans-serif" font-size="14" lengthAdjust="spacing" textLength="195" x="647" y="165.0645">ConfirmationDeletePatientDTO</text><polygon fill="#181818" points="887,204.4922,897,208.4922,887,212.4922,891,208.4922" style="stroke:#181818;stroke-width:1.0;"/><line style="stroke:#181818;stroke-width:1.0;" x1="466" x2="893" y1="208.4922" y2="208.4922"/><text fill="#000000" font-family="sans-serif" font-size="13" lengthAdjust="spacing" textLength="298" x="473" y="203.6357">confirmDeletePatient(confimationDeletePatientDTO)</text><polygon fill="#181818" points="1062,234.8438,1072,238.8438,1062,242.8438,1066,238.8438" style="stroke:#181818;stroke-width:1.0;"/><line style="stroke:#181818;stroke-width:1.0;" x1="909" x2="1068" y1="238.8438" y2="238.8438"/><text fill="#000000" font-family="sans-serif" font-size="13" lengthAdjust="spacing" textLength="135" x="916" y="233.9873">findUserByEmail(email)</text><polygon fill="#181818" points="920,265.1953,910,269.1953,920,273.1953,916,269.1953" style="stroke:#181818;stroke-width:1.0;"/><line style="stroke:#181818;stroke-width:1.0;stroke-dasharray:2.0,2.0;" x1="914" x2="1078" y1="269.1953" y2="269.1953"/><text fill="#000000" font-family="sans-serif" font-size="13" lengthAdjust="spacing" textLength="25" x="926" y="264.3389">user</text><line style="stroke:#181818;stroke-width:1.0;" x1="909" x2="956" y1="294.5469" y2="294.5469"/><line style="stroke:#181818;stroke-width:1.0;" x1="956" x2="956" y1="294.5469" y2="307.5469"/><line style="stroke:#181818;stroke-width:1.0;" x1="915" x2="956" y1="307.5469" y2="307.5469"/><polygon fill="#181818" points="925,303.5469,915,307.5469,925,311.5469,921,307.5469" style="stroke:#181818;stroke-width:1.0;"/><text fill="#000000" font-family="sans-serif" font-size="13" lengthAdjust="spacing" textLength="151" x="921" y="289.6904">validateToken(user, token)</text><line style="stroke:#181818;stroke-width:1.0;stroke-dasharray:2.0,2.0;" x1="914" x2="956" y1="347.8984" y2="347.8984"/><line style="stroke:#181818;stroke-width:1.0;stroke-dasharray:2.0,2.0;" x1="956" x2="956" y1="347.8984" y2="360.8984"/><line style="stroke:#181818;stroke-width:1.0;stroke-dasharray:2.0,2.0;" x1="909" x2="956" y1="360.8984" y2="360.8984"/><polygon fill="#181818" points="919,356.8984,909,360.8984,919,364.8984,915,360.8984" style="stroke:#181818;stroke-width:1.0;"/><text fill="#000000" font-family="sans-serif" font-size="13" lengthAdjust="spacing" textLength="20" x="921" y="343.042">flag</text><polygon fill="#181818" points="1190.5,382.25,1200.5,386.25,1190.5,390.25,1194.5,386.25" style="stroke:#181818;stroke-width:1.0;"/><line style="stroke:#181818;stroke-width:1.0;" x1="909" x2="1196.5" y1="386.25" y2="386.25"/><text fill="#000000" font-family="sans-serif" font-size="13" lengthAdjust="spacing" textLength="149" x="916" y="381.3936">findPatientByEmail(email)</text><polygon fill="#181818" points="920,412.6016,910,416.6016,920,420.6016,916,416.6016" style="stroke:#181818;stroke-width:1.0;"/><line style="stroke:#181818;stroke-width:1.0;stroke-dasharray:2.0,2.0;" x1="914" x2="1206.5" y1="416.6016" y2="416.6016"/><text fill="#000000" font-family="sans-serif" font-size="13" lengthAdjust="spacing" textLength="39" x="926" y="411.7451">patient</text><polygon fill="#181818" points="1320,442.9531,1330,446.9531,1320,450.9531,1324,446.9531" style="stroke:#181818;stroke-width:1.0;"/><line style="stroke:#181818;stroke-width:1.0;" x1="909" x2="1326" y1="446.9531" y2="446.9531"/><text fill="#000000" font-family="sans-serif" font-size="13" lengthAdjust="spacing" textLength="168" x="916" y="442.0967">logChanges(patient, "delete")</text><polygon fill="#181818" points="1067,473.3047,1077,477.3047,1067,481.3047,1071,477.3047" style="stroke:#181818;stroke-width:1.0;"/><line style="stroke:#181818;stroke-width:1.0;" x1="909" x2="1073" y1="477.3047" y2="477.3047"/><text fill="#000000" font-family="sans-serif" font-size="13" lengthAdjust="spacing" textLength="68" x="916" y="472.4482">delete(user)</text><polygon fill="#181818" points="1195.5,503.6563,1205.5,507.6563,1195.5,511.6563,1199.5,507.6563" style="stroke:#181818;stroke-width:1.0;"/><line style="stroke:#181818;stroke-width:1.0;" x1="909" x2="1201.5" y1="507.6563" y2="507.6563"/><text fill="#000000" font-family="sans-serif" font-size="13" lengthAdjust="spacing" textLength="82" x="916" y="502.7998">delete(patient)</text><polygon fill="#181818" points="477,534.0078,467,538.0078,477,542.0078,473,538.0078" style="stroke:#181818;stroke-width:1.0;"/><line style="stroke:#181818;stroke-width:1.0;stroke-dasharray:2.0,2.0;" x1="471" x2="903" y1="538.0078" y2="538.0078"/><text fill="#000000" font-family="sans-serif" font-size="13" lengthAdjust="spacing" textLength="53" x="483" y="533.1514">response</text><polygon fill="#181818" points="374,564.3594,364,568.3594,374,572.3594,370,568.3594" style="stroke:#181818;stroke-width:1.0;"/><line style="stroke:#181818;stroke-width:1.0;stroke-dasharray:2.0,2.0;" x1="368" x2="460" y1="568.3594" y2="568.3594"/><text fill="#000000" font-family="sans-serif" font-size="13" lengthAdjust="spacing" textLength="53" x="380" y="563.5029">response</text><!--SRC=[XLAnReCm4Dtv2YiJHAdOaSNGX2rIgpITEhbmKAkEJMs355NzznhR18SGPO6xyxldT-_S4gbfILl2DNfN80-Yqu28GYx0sFxpF6fdmAtWMWh6G0xe8CDuIcPzvg2cyaGq5Nm733IycXYutXrVFCjqRaeOc-_2tMyWUrfQcME8iOyMu0TeXQ9QoBCTRChCT9TarkU5NRVU5Xypx4NJE8-k2sOsSIAKvpcAFiHJxWtFqAxO5yS2nIbfQTeP-IfjNQTAAsjQMWO-fRzQV0F_Io9IQjeJms6P8iTdY8FTZEmJTZgC0fph2dUnNfjc2IM57fG9VZfG6dsAwemehyMiUTnAXhpKgst7jhZy388nF4aqaWqUJSvdgAQy6jRxV2wCaIo6uHlQS0574dGdEHhS3EaccJrXj39Dny7BUC1jaFLrGOydgnbfGhBRn-4a-lezbJTj8xzV-i8LxWLbY8bc-qLu0ohsu0rQkIUoIkxQvW1snkIHVe_rxCaeJO9g1LSmp_y1]--></g></svg>