<?xml version="1.0" encoding="us-ascii" standalone="no"?><svg xmlns="http://www.w3.org/2000/svg" xmlns:xlink="http://www.w3.org/1999/xlink" contentStyleType="text/css" height="683px" preserveAspectRatio="none" style="width:1252px;height:683px;background:#FFFFFF;" version="1.1" viewBox="0 0 1252 683" width="1252px" zoomAndPan="magnify"><defs/><g><rect fill="#FFFFFF" height="532.7891" style="stroke:#181818;stroke-width:1.0;" width="10" x="353" y="87.5703"/><rect fill="#FFFFFF" height="493.4375" style="stroke:#181818;stroke-width:1.0;" width="10" x="456" y="117.9219"/><rect fill="#FFFFFF" height="372.5156" style="stroke:#181818;stroke-width:1.0;" width="10" x="858" y="208.4922"/><rect fill="#FFFFFF" height="41.3516" style="stroke:#181818;stroke-width:1.0;" width="10" x="863" y="307.5469"/><rect fill="#FFFFFF" height="28" style="stroke:#181818;stroke-width:1.0;" width="10" x="863" y="515.6563"/><rect fill="#FFFFFF" height="30.3516" style="stroke:#181818;stroke-width:1.0;" width="10" x="1050" y="238.8438"/><rect fill="#FFFFFF" height="30.3516" style="stroke:#181818;stroke-width:1.0;" width="10" x="1178.5" y="386.25"/><line style="stroke:#181818;stroke-width:0.5;stroke-dasharray:5.0,5.0;" x1="357.5" x2="357.5" y1="55.2188" y2="629.3594"/><line style="stroke:#181818;stroke-width:0.5;stroke-dasharray:5.0,5.0;" x1="460.5" x2="460.5" y1="55.2188" y2="629.3594"/><line style="stroke:#181818;stroke-width:0.5;stroke-dasharray:5.0,5.0;" x1="724" x2="724" y1="166.0313" y2="629.3594"/><line style="stroke:#181818;stroke-width:0.5;stroke-dasharray:5.0,5.0;" x1="863" x2="863" y1="55.2188" y2="629.3594"/><line style="stroke:#181818;stroke-width:0.5;stroke-dasharray:5.0,5.0;" x1="1054.5" x2="1054.5" y1="55.2188" y2="629.3594"/><line style="stroke:#181818;stroke-width:0.5;stroke-dasharray:5.0,5.0;" x1="1183.5" x2="1183.5" y1="55.2188" y2="629.3594"/><rect fill="#E2E2F0" height="49.2188" rx="2.5" ry="2.5" style="stroke:#181818;stroke-width:0.5;" width="81" x="317.5" y="5"/><text fill="#000000" font-family="sans-serif" font-size="14" font-style="italic" lengthAdjust="spacing" textLength="54" x="331" y="26.5332">&#171;Route&#187;</text><text fill="#000000" font-family="sans-serif" font-size="14" lengthAdjust="spacing" textLength="67" x="324.5" y="44.1426">UserRoute</text><rect fill="#E2E2F0" height="49.2188" rx="2.5" ry="2.5" style="stroke:#181818;stroke-width:0.5;" width="81" x="317.5" y="628.3594"/><text fill="#000000" font-family="sans-serif" font-size="14" font-style="italic" lengthAdjust="spacing" textLength="54" x="331" y="649.8926">&#171;Route&#187;</text><text fill="#000000" font-family="sans-serif" font-size="14" lengthAdjust="spacing" textLength="67" x="324.5" y="667.502">UserRoute</text><rect fill="#E2E2F0" height="49.2188" rx="2.5" ry="2.5" style="stroke:#181818;stroke-width:0.5;" width="105" x="408.5" y="5"/><text fill="#000000" font-family="sans-serif" font-size="14" font-style="italic" lengthAdjust="spacing" textLength="78" x="422" y="26.5332">&#171;Controller&#187;</text><text fill="#000000" font-family="sans-serif" font-size="14" lengthAdjust="spacing" textLength="91" x="415.5" y="44.1426">UserController</text><rect fill="#E2E2F0" height="49.2188" rx="2.5" ry="2.5" style="stroke:#181818;stroke-width:0.5;" width="105" x="408.5" y="628.3594"/><text fill="#000000" font-family="sans-serif" font-size="14" font-style="italic" lengthAdjust="spacing" textLength="78" x="422" y="649.8926">&#171;Controller&#187;</text><text fill="#000000" font-family="sans-serif" font-size="14" lengthAdjust="spacing" textLength="91" x="415.5" y="667.502">UserController</text><rect fill="#E2E2F0" height="49.2188" rx="2.5" ry="2.5" style="stroke:#181818;stroke-width:0.5;" width="168" x="640" y="628.3594"/><text fill="#000000" font-family="sans-serif" font-size="14" font-style="italic" lengthAdjust="spacing" textLength="46" x="701" y="649.8926">&#171;DTO&#187;</text><text fill="#000000" font-family="sans-serif" font-size="14" lengthAdjust="spacing" textLength="154" x="647" y="667.502">ConfirmationPatientDTO</text><rect fill="#E2E2F0" height="49.2188" rx="2.5" ry="2.5" style="stroke:#181818;stroke-width:0.5;" width="90" x="818" y="5"/><text fill="#000000" font-family="sans-serif" font-size="14" font-style="italic" lengthAdjust="spacing" textLength="62" x="832" y="26.5332">&#171;Service&#187;</text><text fill="#000000" font-family="sans-serif" font-size="14" lengthAdjust="spacing" textLength="76" x="825" y="44.1426">UserService</text><rect fill="#E2E2F0" height="49.2188" rx="2.5" ry="2.5" style="stroke:#181818;stroke-width:0.5;" width="90" x="818" y="628.3594"/><text fill="#000000" font-family="sans-serif" font-size="14" font-style="italic" lengthAdjust="spacing" textLength="62" x="832" y="649.8926">&#171;Service&#187;</text><text fill="#000000" font-family="sans-serif" font-size="14" lengthAdjust="spacing" textLength="76" x="825" y="667.502">UserService</text><rect fill="#E2E2F0" height="49.2188" rx="2.5" ry="2.5" style="stroke:#181818;stroke-width:0.5;" width="111" x="999.5" y="5"/><text fill="#000000" font-family="sans-serif" font-size="14" font-style="italic" lengthAdjust="spacing" textLength="84" x="1013" y="26.5332">&#171;Repository&#187;</text><text fill="#000000" font-family="sans-serif" font-size="14" lengthAdjust="spacing" textLength="97" x="1006.5" y="44.1426">UserRepository</text><rect fill="#E2E2F0" height="49.2188" rx="2.5" ry="2.5" style="stroke:#181818;stroke-width:0.5;" width="111" x="999.5" y="628.3594"/><text fill="#000000" font-family="sans-serif" font-size="14" font-style="italic" lengthAdjust="spacing" textLength="84" x="1013" y="649.8926">&#171;Repository&#187;</text><text fill="#000000" font-family="sans-serif" font-size="14" lengthAdjust="spacing" textLength="97" x="1006.5" y="667.502">UserRepository</text><rect fill="#E2E2F0" height="49.2188" rx="2.5" ry="2.5" style="stroke:#181818;stroke-width:0.5;" width="126" x="1120.5" y="5"/><text fill="#000000" font-family="sans-serif" font-size="14" font-style="italic" lengthAdjust="spacing" textLength="84" x="1141.5" y="26.5332">&#171;Repository&#187;</text><text fill="#000000" font-family="sans-serif" font-size="14" lengthAdjust="spacing" textLength="112" x="1127.5" y="44.1426">PatientRepository</text><rect fill="#E2E2F0" height="49.2188" rx="2.5" ry="2.5" style="stroke:#181818;stroke-width:0.5;" width="126" x="1120.5" y="628.3594"/><text fill="#000000" font-family="sans-serif" font-size="14" font-style="italic" lengthAdjust="spacing" textLength="84" x="1141.5" y="649.8926">&#171;Repository&#187;</text><text fill="#000000" font-family="sans-serif" font-size="14" lengthAdjust="spacing" textLength="112" x="1127.5" y="667.502">PatientRepository</text><rect fill="#FFFFFF" height="532.7891" style="stroke:#181818;stroke-width:1.0;" width="10" x="353" y="87.5703"/><rect fill="#FFFFFF" height="493.4375" style="stroke:#181818;stroke-width:1.0;" width="10" x="456" y="117.9219"/><rect fill="#FFFFFF" height="372.5156" style="stroke:#181818;stroke-width:1.0;" width="10" x="858" y="208.4922"/><rect fill="#FFFFFF" height="41.3516" style="stroke:#181818;stroke-width:1.0;" width="10" x="863" y="307.5469"/><rect fill="#FFFFFF" height="28" style="stroke:#181818;stroke-width:1.0;" width="10" x="863" y="515.6563"/><rect fill="#FFFFFF" height="30.3516" style="stroke:#181818;stroke-width:1.0;" width="10" x="1050" y="238.8438"/><rect fill="#FFFFFF" height="30.3516" style="stroke:#181818;stroke-width:1.0;" width="10" x="1178.5" y="386.25"/><ellipse cx="7.5" cy="86.8203" fill="none" rx="4" ry="4" style="stroke:#181818;stroke-width:1.5;"/><polygon fill="#181818" points="341,83.5703,351,87.5703,341,91.5703,345,87.5703" style="stroke:#181818;stroke-width:1.0;"/><line style="stroke:#181818;stroke-width:1.0;" x1="12" x2="347" y1="87.5703" y2="87.5703"/><text fill="#000000" font-family="sans-serif" font-size="13" lengthAdjust="spacing" textLength="326" x="15" y="82.7139">DELETE (/api/users/patients/delete/confirmation/{token})</text><polygon fill="#181818" points="444,113.9219,454,117.9219,444,121.9219,448,117.9219" style="stroke:#181818;stroke-width:1.0;"/><line style="stroke:#181818;stroke-width:1.0;" x1="363" x2="450" y1="117.9219" y2="117.9219"/><text fill="#000000" font-family="sans-serif" font-size="13" lengthAdjust="spacing" textLength="50" x="370" y="113.0654">DELETE</text><polygon fill="#181818" points="628,144.2734,638,148.2734,628,152.2734,632,148.2734" style="stroke:#181818;stroke-width:1.0;"/><line style="stroke:#181818;stroke-width:1.0;" x1="466" x2="634" y1="148.2734" y2="148.2734"/><text fill="#000000" font-family="sans-serif" font-size="13" lengthAdjust="spacing" textLength="150" x="473" y="143.417">recieves request body info</text><rect fill="#E2E2F0" height="49.2188" rx="2.5" ry="2.5" style="stroke:#181818;stroke-width:0.5;" width="168" x="640" y="125.9219"/><text fill="#000000" font-family="sans-serif" font-size="14" font-style="italic" lengthAdjust="spacing" textLength="46" x="701" y="147.4551">&#171;DTO&#187;</text><text fill="#000000" font-family="sans-serif" font-size="14" lengthAdjust="spacing" textLength="154" x="647" y="165.0645">ConfirmationPatientDTO</text><polygon fill="#181818" points="846,204.4922,856,208.4922,846,212.4922,850,208.4922" style="stroke:#181818;stroke-width:1.0;"/><line style="stroke:#181818;stroke-width:1.0;" x1="466" x2="852" y1="208.4922" y2="208.4922"/><text fill="#000000" font-family="sans-serif" font-size="13" lengthAdjust="spacing" textLength="261" x="473" y="203.6357">confirmPatient(confimationDeletePatientDTO)</text><polygon fill="#181818" points="1038,234.8438,1048,238.8438,1038,242.8438,1042,238.8438" style="stroke:#181818;stroke-width:1.0;"/><line style="stroke:#181818;stroke-width:1.0;" x1="868" x2="1044" y1="238.8438" y2="238.8438"/><text fill="#000000" font-family="sans-serif" font-size="13" lengthAdjust="spacing" textLength="135" x="875" y="233.9873">findUserByEmail(email)</text><polygon fill="#181818" points="879,265.1953,869,269.1953,879,273.1953,875,269.1953" style="stroke:#181818;stroke-width:1.0;"/><line style="stroke:#181818;stroke-width:1.0;stroke-dasharray:2.0,2.0;" x1="873" x2="1054" y1="269.1953" y2="269.1953"/><text fill="#000000" font-family="sans-serif" font-size="13" lengthAdjust="spacing" textLength="25" x="885" y="264.3389">user</text><line style="stroke:#181818;stroke-width:1.0;" x1="868" x2="915" y1="294.5469" y2="294.5469"/><line style="stroke:#181818;stroke-width:1.0;" x1="915" x2="915" y1="294.5469" y2="307.5469"/><line style="stroke:#181818;stroke-width:1.0;" x1="874" x2="915" y1="307.5469" y2="307.5469"/><polygon fill="#181818" points="884,303.5469,874,307.5469,884,311.5469,880,307.5469" style="stroke:#181818;stroke-width:1.0;"/><text fill="#000000" font-family="sans-serif" font-size="13" lengthAdjust="spacing" textLength="151" x="880" y="289.6904">validateToken(user, token)</text><line style="stroke:#181818;stroke-width:1.0;stroke-dasharray:2.0,2.0;" x1="873" x2="915" y1="347.8984" y2="347.8984"/><line style="stroke:#181818;stroke-width:1.0;stroke-dasharray:2.0,2.0;" x1="915" x2="915" y1="347.8984" y2="360.8984"/><line style="stroke:#181818;stroke-width:1.0;stroke-dasharray:2.0,2.0;" x1="868" x2="915" y1="360.8984" y2="360.8984"/><polygon fill="#181818" points="878,356.8984,868,360.8984,878,364.8984,874,360.8984" style="stroke:#181818;stroke-width:1.0;"/><text fill="#000000" font-family="sans-serif" font-size="13" lengthAdjust="spacing" textLength="20" x="880" y="343.042">flag</text><polygon fill="#181818" points="1166.5,382.25,1176.5,386.25,1166.5,390.25,1170.5,386.25" style="stroke:#181818;stroke-width:1.0;"/><line style="stroke:#181818;stroke-width:1.0;" x1="868" x2="1172.5" y1="386.25" y2="386.25"/><text fill="#000000" font-family="sans-serif" font-size="13" lengthAdjust="spacing" textLength="149" x="875" y="381.3936">findPatientByEmail(email)</text><polygon fill="#181818" points="879,412.6016,869,416.6016,879,420.6016,875,416.6016" style="stroke:#181818;stroke-width:1.0;"/><line style="stroke:#181818;stroke-width:1.0;stroke-dasharray:2.0,2.0;" x1="873" x2="1182.5" y1="416.6016" y2="416.6016"/><text fill="#000000" font-family="sans-serif" font-size="13" lengthAdjust="spacing" textLength="39" x="885" y="411.7451">patient</text><polygon fill="#181818" points="1043,442.9531,1053,446.9531,1043,450.9531,1047,446.9531" style="stroke:#181818;stroke-width:1.0;"/><line style="stroke:#181818;stroke-width:1.0;" x1="868" x2="1049" y1="446.9531" y2="446.9531"/><text fill="#000000" font-family="sans-serif" font-size="13" lengthAdjust="spacing" textLength="68" x="875" y="442.0967">delete(user)</text><polygon fill="#181818" points="1171.5,473.3047,1181.5,477.3047,1171.5,481.3047,1175.5,477.3047" style="stroke:#181818;stroke-width:1.0;"/><line style="stroke:#181818;stroke-width:1.0;" x1="868" x2="1177.5" y1="477.3047" y2="477.3047"/><text fill="#000000" font-family="sans-serif" font-size="13" lengthAdjust="spacing" textLength="82" x="875" y="472.4482">delete(patient)</text><line style="stroke:#181818;stroke-width:1.0;" x1="873" x2="915" y1="507.6563" y2="507.6563"/><line style="stroke:#181818;stroke-width:1.0;" x1="915" x2="915" y1="507.6563" y2="520.6563"/><line style="stroke:#181818;stroke-width:1.0;" x1="874" x2="915" y1="520.6563" y2="520.6563"/><polygon fill="#181818" points="884,516.6563,874,520.6563,884,524.6563,880,520.6563" style="stroke:#181818;stroke-width:1.0;"/><text fill="#000000" font-family="sans-serif" font-size="13" lengthAdjust="spacing" textLength="168" x="880" y="502.7998">logChanges(patient, "delete")</text><polygon fill="#181818" points="477,577.0078,467,581.0078,477,585.0078,473,581.0078" style="stroke:#181818;stroke-width:1.0;"/><line style="stroke:#181818;stroke-width:1.0;stroke-dasharray:2.0,2.0;" x1="471" x2="862" y1="581.0078" y2="581.0078"/><text fill="#000000" font-family="sans-serif" font-size="13" lengthAdjust="spacing" textLength="53" x="483" y="576.1514">response</text><polygon fill="#181818" points="374,607.3594,364,611.3594,374,615.3594,370,611.3594" style="stroke:#181818;stroke-width:1.0;"/><line style="stroke:#181818;stroke-width:1.0;stroke-dasharray:2.0,2.0;" x1="368" x2="460" y1="611.3594" y2="611.3594"/><text fill="#000000" font-family="sans-serif" font-size="13" lengthAdjust="spacing" textLength="53" x="380" y="606.5029">response</text><!--SRC=[XLBBJiCm4BpxAonEQLMKUsJrG9iR4gYK4oUJR8g5QmVRYLGX_Xs_qfWa5HTtrvwPpCwsfSgmYhLK6FogGHraPm1JZKD1YF_TRb4x0UwaC4fo3igXauwGiPdmx4F3r9aQ9iMpFK6O_V4fygylxeeGUovyzGLKpoflS2W9YTK2_02jrCn8TV4ZZPsTwzfCUD7ON-hySgA0qPkytyRK2hml7yjZYRESjYplh1ETjq52vpLmC91NoSZvjv6V87vMY5Q6zTHgU2KKzAnm4l2WFcB7HvJW0YkDTRssP0KLWnwqBRuwq0Q_o_g2cMZaX3m4NE1eDOQG-JQA-bd6NIO3H3eQP5mwOtm5RfYetOuUBkMPCfw1EzC0hc2am7HAO9TZAZSQx2bdjIKTNOgPmssmJtJ1JnHhE3sbOlCD1uln_fRB6MtGZ-k-ENxu5tYlg_zyH6oKN2raK60kJxiFAawW1zm6tmNYtK8ADTmAHe5kfT2p_XS0]--></g></svg>