<?xml version="1.0" encoding="us-ascii" standalone="no"?><svg xmlns="http://www.w3.org/2000/svg" xmlns:xlink="http://www.w3.org/1999/xlink" contentStyleType="text/css" height="1056px" preserveAspectRatio="none" style="width:2093px;height:1056px;background:#FFFFFF;" version="1.1" viewBox="0 0 2093 1056" width="2093px" zoomAndPan="magnify"><defs/><g><rect fill="#FFFFFF" height="866.1621" style="stroke:#181818;stroke-width:1.0;" width="10" x="25.5" y="91.4883"/><rect fill="#FFFFFF" height="844.8516" style="stroke:#181818;stroke-width:1.0;" width="10" x="348.5" y="112.7988"/><rect fill="#FFFFFF" height="727.6094" style="stroke:#181818;stroke-width:1.0;" width="10" x="516.5" y="200.7305"/><rect fill="#FFFFFF" height="375.1484" style="stroke:#181818;stroke-width:1.0;" width="10" x="717.5" y="230.041"/><rect fill="#FFFFFF" height="87.2871" style="stroke:#181818;stroke-width:1.0;" width="10" x="717.5" y="811.7422"/><rect fill="#FFFFFF" height="306.5273" style="stroke:#181818;stroke-width:1.0;" width="10" x="869.5" y="269.3516"/><rect fill="#FFFFFF" height="147.9316" style="stroke:#181818;stroke-width:1.0;" width="10" x="1698.5" y="634.5"/><rect fill="#FFFFFF" height="30" style="stroke:#181818;stroke-width:1.0;" width="10" x="1885" y="663.8105"/><rect fill="#FFFFFF" height="30" style="stroke:#181818;stroke-width:1.0;" width="10" x="2036" y="723.1211"/><line style="stroke:#181818;stroke-width:0.5;stroke-dasharray:5.0,5.0;" x1="30" x2="30" y1="81.4883" y2="975.6504"/><line style="stroke:#181818;stroke-width:0.5;stroke-dasharray:5.0,5.0;" x1="353.5" x2="353.5" y1="81.4883" y2="975.6504"/><line style="stroke:#181818;stroke-width:0.5;stroke-dasharray:5.0,5.0;" x1="521.5" x2="521.5" y1="81.4883" y2="975.6504"/><line style="stroke:#181818;stroke-width:0.5;stroke-dasharray:5.0,5.0;" x1="722.5" x2="722.5" y1="81.4883" y2="975.6504"/><line style="stroke:#181818;stroke-width:0.5;stroke-dasharray:5.0,5.0;" x1="874.5" x2="874.5" y1="277.0293" y2="975.6504"/><line style="stroke:#181818;stroke-width:0.5;stroke-dasharray:5.0,5.0;" x1="1146.5" x2="1146.5" y1="419.627" y2="975.6504"/><line style="stroke:#181818;stroke-width:0.5;stroke-dasharray:5.0,5.0;" x1="1276.5" x2="1276.5" y1="477.6035" y2="975.6504"/><line style="stroke:#181818;stroke-width:0.5;stroke-dasharray:5.0,5.0;" x1="1397.5" x2="1397.5" y1="535.5801" y2="975.6504"/><line style="stroke:#181818;stroke-width:0.5;stroke-dasharray:5.0,5.0;" x1="1538.5" x2="1538.5" y1="858.7305" y2="975.6504"/><line style="stroke:#181818;stroke-width:0.5;stroke-dasharray:5.0,5.0;" x1="1703.5" x2="1703.5" y1="81.4883" y2="975.6504"/><line style="stroke:#181818;stroke-width:0.5;stroke-dasharray:5.0,5.0;" x1="1889.5" x2="1889.5" y1="81.4883" y2="975.6504"/><line style="stroke:#181818;stroke-width:0.5;stroke-dasharray:5.0,5.0;" x1="2040.5" x2="2040.5" y1="81.4883" y2="975.6504"/><text fill="#000000" font-family="sans-serif" font-size="14" lengthAdjust="spacing" textLength="45" x="5" y="78.5352">Admin</text><ellipse cx="30.5" cy="13.5" fill="#E2E2F0" rx="8" ry="8" style="stroke:#181818;stroke-width:0.5;"/><path d="M30.5,21.5 L30.5,48.5 M17.5,29.5 L43.5,29.5 M30.5,48.5 L17.5,63.5 M30.5,48.5 L43.5,63.5 " fill="none" style="stroke:#181818;stroke-width:0.5;"/><text fill="#000000" font-family="sans-serif" font-size="14" lengthAdjust="spacing" textLength="45" x="5" y="988.1855">Admin</text><ellipse cx="30.5" cy="999.6387" fill="#E2E2F0" rx="8" ry="8" style="stroke:#181818;stroke-width:0.5;"/><path d="M30.5,1007.6387 L30.5,1034.6387 M17.5,1015.6387 L43.5,1015.6387 M30.5,1034.6387 L17.5,1049.6387 M30.5,1034.6387 L43.5,1049.6387 " fill="none" style="stroke:#181818;stroke-width:0.5;"/><rect fill="#E2E2F0" height="30.4883" rx="2.5" ry="2.5" style="stroke:#181818;stroke-width:0.5;" width="28" x="339.5" y="50"/><text fill="#000000" font-family="sans-serif" font-size="14" lengthAdjust="spacing" textLength="14" x="346.5" y="70.5352">UI</text><rect fill="#E2E2F0" height="30.4883" rx="2.5" ry="2.5" style="stroke:#181818;stroke-width:0.5;" width="28" x="339.5" y="974.6504"/><text fill="#000000" font-family="sans-serif" font-size="14" lengthAdjust="spacing" textLength="14" x="346.5" y="995.1855">UI</text><rect fill="#E2E2F0" height="46.9766" rx="2.5" ry="2.5" style="stroke:#181818;stroke-width:0.5;" width="182" x="430.5" y="33.5117"/><text fill="#000000" font-family="sans-serif" font-size="14" font-style="italic" lengthAdjust="spacing" textLength="84" x="479.5" y="54.0469">&#171;Controller&#187;</text><text fill="#000000" font-family="sans-serif" font-size="14" lengthAdjust="spacing" textLength="168" x="437.5" y="70.5352">OperationTypeControler</text><rect fill="#E2E2F0" height="46.9766" rx="2.5" ry="2.5" style="stroke:#181818;stroke-width:0.5;" width="182" x="430.5" y="974.6504"/><text fill="#000000" font-family="sans-serif" font-size="14" font-style="italic" lengthAdjust="spacing" textLength="84" x="479.5" y="995.1855">&#171;Controller&#187;</text><text fill="#000000" font-family="sans-serif" font-size="14" lengthAdjust="spacing" textLength="168" x="437.5" y="1011.6738">OperationTypeControler</text><rect fill="#E2E2F0" height="46.9766" rx="2.5" ry="2.5" style="stroke:#181818;stroke-width:0.5;" width="168" x="638.5" y="33.5117"/><text fill="#000000" font-family="sans-serif" font-size="14" font-style="italic" lengthAdjust="spacing" textLength="66" x="689.5" y="54.0469">&#171;Mapper&#187;</text><text fill="#000000" font-family="sans-serif" font-size="14" lengthAdjust="spacing" textLength="154" x="645.5" y="70.5352">OperationTypeMapper</text><rect fill="#E2E2F0" height="46.9766" rx="2.5" ry="2.5" style="stroke:#181818;stroke-width:0.5;" width="168" x="638.5" y="974.6504"/><text fill="#000000" font-family="sans-serif" font-size="14" font-style="italic" lengthAdjust="spacing" textLength="66" x="689.5" y="995.1855">&#171;Mapper&#187;</text><text fill="#000000" font-family="sans-serif" font-size="14" lengthAdjust="spacing" textLength="154" x="645.5" y="1011.6738">OperationTypeMapper</text><rect fill="#E2E2F0" height="46.9766" rx="2.5" ry="2.5" style="stroke:#181818;stroke-width:0.5;" width="116" x="816.5" y="974.6504"/><text fill="#000000" font-family="sans-serif" font-size="14" font-style="italic" lengthAdjust="spacing" textLength="67" x="841" y="995.1855">&#171;Domain&#187;</text><text fill="#000000" font-family="sans-serif" font-size="14" lengthAdjust="spacing" textLength="102" x="823.5" y="1011.6738">OperationType</text><rect fill="#E2E2F0" height="46.9766" rx="2.5" ry="2.5" style="stroke:#181818;stroke-width:0.5;" width="134" x="1079.5" y="974.6504"/><text fill="#000000" font-family="sans-serif" font-size="14" font-style="italic" lengthAdjust="spacing" textLength="67" x="1113" y="995.1855">&#171;Domain&#187;</text><text fill="#000000" font-family="sans-serif" font-size="14" lengthAdjust="spacing" textLength="120" x="1086.5" y="1011.6738">PreparationPhase</text><rect fill="#E2E2F0" height="46.9766" rx="2.5" ry="2.5" style="stroke:#181818;stroke-width:0.5;" width="107" x="1223.5" y="974.6504"/><text fill="#000000" font-family="sans-serif" font-size="14" font-style="italic" lengthAdjust="spacing" textLength="67" x="1243.5" y="995.1855">&#171;Domain&#187;</text><text fill="#000000" font-family="sans-serif" font-size="14" lengthAdjust="spacing" textLength="93" x="1230.5" y="1011.6738">SurgeryPhase</text><rect fill="#E2E2F0" height="46.9766" rx="2.5" ry="2.5" style="stroke:#181818;stroke-width:0.5;" width="115" x="1340.5" y="974.6504"/><text fill="#000000" font-family="sans-serif" font-size="14" font-style="italic" lengthAdjust="spacing" textLength="67" x="1364.5" y="995.1855">&#171;Domain&#187;</text><text fill="#000000" font-family="sans-serif" font-size="14" lengthAdjust="spacing" textLength="101" x="1347.5" y="1011.6738">CleaningPhase</text><rect fill="#E2E2F0" height="46.9766" rx="2.5" ry="2.5" style="stroke:#181818;stroke-width:0.5;" width="146" x="1465.5" y="974.6504"/><text fill="#000000" font-family="sans-serif" font-size="14" font-style="italic" lengthAdjust="spacing" textLength="44" x="1516.5" y="995.1855">&#171;DTO&#187;</text><text fill="#000000" font-family="sans-serif" font-size="14" lengthAdjust="spacing" textLength="132" x="1472.5" y="1011.6738">OperationTypeDTO</text><rect fill="#E2E2F0" height="46.9766" rx="2.5" ry="2.5" style="stroke:#181818;stroke-width:0.5;" width="164" x="1621.5" y="33.5117"/><text fill="#000000" font-family="sans-serif" font-size="14" font-style="italic" lengthAdjust="spacing" textLength="62" x="1672.5" y="54.0469">&#171;Service&#187;</text><text fill="#000000" font-family="sans-serif" font-size="14" lengthAdjust="spacing" textLength="150" x="1628.5" y="70.5352">OperationTypeService</text><rect fill="#E2E2F0" height="46.9766" rx="2.5" ry="2.5" style="stroke:#181818;stroke-width:0.5;" width="164" x="1621.5" y="974.6504"/><text fill="#000000" font-family="sans-serif" font-size="14" font-style="italic" lengthAdjust="spacing" textLength="62" x="1672.5" y="995.1855">&#171;Service&#187;</text><text fill="#000000" font-family="sans-serif" font-size="14" lengthAdjust="spacing" textLength="150" x="1628.5" y="1011.6738">OperationTypeService</text><rect fill="#E2E2F0" height="46.9766" rx="2.5" ry="2.5" style="stroke:#181818;stroke-width:0.5;" width="189" x="1795.5" y="33.5117"/><text fill="#000000" font-family="sans-serif" font-size="14" font-style="italic" lengthAdjust="spacing" textLength="87" x="1846.5" y="54.0469">&#171;Repository&#187;</text><text fill="#000000" font-family="sans-serif" font-size="14" lengthAdjust="spacing" textLength="175" x="1802.5" y="70.5352">OperationTypeRepository</text><rect fill="#E2E2F0" height="46.9766" rx="2.5" ry="2.5" style="stroke:#181818;stroke-width:0.5;" width="189" x="1795.5" y="974.6504"/><text fill="#000000" font-family="sans-serif" font-size="14" font-style="italic" lengthAdjust="spacing" textLength="87" x="1846.5" y="995.1855">&#171;Repository&#187;</text><text fill="#000000" font-family="sans-serif" font-size="14" lengthAdjust="spacing" textLength="175" x="1802.5" y="1011.6738">OperationTypeRepository</text><rect fill="#E2E2F0" height="30.4883" rx="2.5" ry="2.5" style="stroke:#181818;stroke-width:0.5;" width="93" x="1994.5" y="50"/><text fill="#000000" font-family="sans-serif" font-size="14" lengthAdjust="spacing" textLength="79" x="2001.5" y="70.5352">UnitOfWork</text><rect fill="#E2E2F0" height="30.4883" rx="2.5" ry="2.5" style="stroke:#181818;stroke-width:0.5;" width="93" x="1994.5" y="974.6504"/><text fill="#000000" font-family="sans-serif" font-size="14" lengthAdjust="spacing" textLength="79" x="2001.5" y="995.1855">UnitOfWork</text><rect fill="#FFFFFF" height="866.1621" style="stroke:#181818;stroke-width:1.0;" width="10" x="25.5" y="91.4883"/><rect fill="#FFFFFF" height="844.8516" style="stroke:#181818;stroke-width:1.0;" width="10" x="348.5" y="112.7988"/><rect fill="#FFFFFF" height="727.6094" style="stroke:#181818;stroke-width:1.0;" width="10" x="516.5" y="200.7305"/><rect fill="#FFFFFF" height="375.1484" style="stroke:#181818;stroke-width:1.0;" width="10" x="717.5" y="230.041"/><rect fill="#FFFFFF" height="87.2871" style="stroke:#181818;stroke-width:1.0;" width="10" x="717.5" y="811.7422"/><rect fill="#FFFFFF" height="306.5273" style="stroke:#181818;stroke-width:1.0;" width="10" x="869.5" y="269.3516"/><rect fill="#FFFFFF" height="147.9316" style="stroke:#181818;stroke-width:1.0;" width="10" x="1698.5" y="634.5"/><rect fill="#FFFFFF" height="30" style="stroke:#181818;stroke-width:1.0;" width="10" x="1885" y="663.8105"/><rect fill="#FFFFFF" height="30" style="stroke:#181818;stroke-width:1.0;" width="10" x="2036" y="723.1211"/><polygon fill="#181818" points="336.5,108.7988,346.5,112.7988,336.5,116.7988,340.5,112.7988" style="stroke:#181818;stroke-width:1.0;"/><line style="stroke:#181818;stroke-width:1.0;" x1="35.5" x2="342.5" y1="112.7988" y2="112.7988"/><text fill="#000000" font-family="sans-serif" font-size="13" lengthAdjust="spacing" textLength="294" x="42.5" y="108.0566">Make a request to create a new Operation Type</text><polygon fill="#181818" points="46.5,138.1094,36.5,142.1094,46.5,146.1094,42.5,142.1094" style="stroke:#181818;stroke-width:1.0;"/><line style="stroke:#181818;stroke-width:1.0;stroke-dasharray:2.0,2.0;" x1="40.5" x2="347.5" y1="142.1094" y2="142.1094"/><text fill="#000000" font-family="sans-serif" font-size="13" lengthAdjust="spacing" textLength="199" x="52.5" y="137.3672">Asks the necessary information</text><polygon fill="#181818" points="336.5,167.4199,346.5,171.4199,336.5,175.4199,340.5,171.4199" style="stroke:#181818;stroke-width:1.0;"/><line style="stroke:#181818;stroke-width:1.0;" x1="35.5" x2="342.5" y1="171.4199" y2="171.4199"/><text fill="#000000" font-family="sans-serif" font-size="13" lengthAdjust="spacing" textLength="221" x="42.5" y="166.6777">Provides the necessary information</text><polygon fill="#181818" points="504.5,196.7305,514.5,200.7305,504.5,204.7305,508.5,200.7305" style="stroke:#181818;stroke-width:1.0;"/><line style="stroke:#181818;stroke-width:1.0;" x1="358.5" x2="510.5" y1="200.7305" y2="200.7305"/><text fill="#000000" font-family="sans-serif" font-size="13" lengthAdjust="spacing" textLength="139" x="365.5" y="195.9883">requests an http POST</text><polygon fill="#181818" points="705.5,226.041,715.5,230.041,705.5,234.041,709.5,230.041" style="stroke:#181818;stroke-width:1.0;"/><line style="stroke:#181818;stroke-width:1.0;" x1="526.5" x2="711.5" y1="230.041" y2="230.041"/><text fill="#000000" font-family="sans-serif" font-size="13" lengthAdjust="spacing" textLength="172" x="533.5" y="225.2988">toEntity(OperationTypeDto)</text><polygon fill="#181818" points="804.5,255.3516,814.5,259.3516,804.5,263.3516,808.5,259.3516" style="stroke:#181818;stroke-width:1.0;"/><line style="stroke:#181818;stroke-width:1.0;" x1="727.5" x2="810.5" y1="259.3516" y2="259.3516"/><text fill="#000000" font-family="sans-serif" font-size="13" lengthAdjust="spacing" textLength="38" x="734.5" y="254.6094">create</text><rect fill="#E2E2F0" height="46.9766" rx="2.5" ry="2.5" style="stroke:#181818;stroke-width:0.5;" width="116" x="816.5" y="238.041"/><text fill="#000000" font-family="sans-serif" font-size="14" font-style="italic" lengthAdjust="spacing" textLength="67" x="841" y="258.5762">&#171;Domain&#187;</text><text fill="#000000" font-family="sans-serif" font-size="14" lengthAdjust="spacing" textLength="102" x="823.5" y="275.0645">OperationType</text><line style="stroke:#181818;stroke-width:1.0;" x1="879.5" x2="921.5" y1="317.3281" y2="317.3281"/><line style="stroke:#181818;stroke-width:1.0;" x1="921.5" x2="921.5" y1="317.3281" y2="330.3281"/><line style="stroke:#181818;stroke-width:1.0;" x1="880.5" x2="921.5" y1="330.3281" y2="330.3281"/><polygon fill="#181818" points="890.5,326.3281,880.5,330.3281,890.5,334.3281,886.5,330.3281" style="stroke:#181818;stroke-width:1.0;"/><text fill="#000000" font-family="sans-serif" font-size="13" lengthAdjust="spacing" textLength="137" x="886.5" y="312.5859">validateUniqueName()</text><line style="stroke:#181818;stroke-width:1.0;" x1="879.5" x2="921.5" y1="359.6387" y2="359.6387"/><line style="stroke:#181818;stroke-width:1.0;" x1="921.5" x2="921.5" y1="359.6387" y2="372.6387"/><line style="stroke:#181818;stroke-width:1.0;" x1="880.5" x2="921.5" y1="372.6387" y2="372.6387"/><polygon fill="#181818" points="890.5,368.6387,880.5,372.6387,890.5,376.6387,886.5,372.6387" style="stroke:#181818;stroke-width:1.0;"/><text fill="#000000" font-family="sans-serif" font-size="13" lengthAdjust="spacing" textLength="248" x="886.5" y="354.8965">validateMedicSpecializationForSurgery()</text><polygon fill="#181818" points="1067.5,397.9492,1077.5,401.9492,1067.5,405.9492,1071.5,401.9492" style="stroke:#181818;stroke-width:1.0;"/><line style="stroke:#181818;stroke-width:1.0;" x1="879.5" x2="1073.5" y1="401.9492" y2="401.9492"/><text fill="#000000" font-family="sans-serif" font-size="13" lengthAdjust="spacing" textLength="38" x="886.5" y="397.207">create</text><rect fill="#E2E2F0" height="46.9766" rx="2.5" ry="2.5" style="stroke:#181818;stroke-width:0.5;" width="134" x="1079.5" y="380.6387"/><text fill="#000000" font-family="sans-serif" font-size="14" font-style="italic" lengthAdjust="spacing" textLength="67" x="1113" y="401.1738">&#171;Domain&#187;</text><text fill="#000000" font-family="sans-serif" font-size="14" lengthAdjust="spacing" textLength="120" x="1086.5" y="417.6621">PreparationPhase</text><polygon fill="#181818" points="1211.5,455.9258,1221.5,459.9258,1211.5,463.9258,1215.5,459.9258" style="stroke:#181818;stroke-width:1.0;"/><line style="stroke:#181818;stroke-width:1.0;" x1="879.5" x2="1217.5" y1="459.9258" y2="459.9258"/><text fill="#000000" font-family="sans-serif" font-size="13" lengthAdjust="spacing" textLength="38" x="886.5" y="455.1836">create</text><rect fill="#E2E2F0" height="46.9766" rx="2.5" ry="2.5" style="stroke:#181818;stroke-width:0.5;" width="107" x="1223.5" y="438.6152"/><text fill="#000000" font-family="sans-serif" font-size="14" font-style="italic" lengthAdjust="spacing" textLength="67" x="1243.5" y="459.1504">&#171;Domain&#187;</text><text fill="#000000" font-family="sans-serif" font-size="14" lengthAdjust="spacing" textLength="93" x="1230.5" y="475.6387">SurgeryPhase</text><polygon fill="#181818" points="1328.5,513.9023,1338.5,517.9023,1328.5,521.9023,1332.5,517.9023" style="stroke:#181818;stroke-width:1.0;"/><line style="stroke:#181818;stroke-width:1.0;" x1="879.5" x2="1334.5" y1="517.9023" y2="517.9023"/><text fill="#000000" font-family="sans-serif" font-size="13" lengthAdjust="spacing" textLength="38" x="886.5" y="513.1602">create</text><rect fill="#E2E2F0" height="46.9766" rx="2.5" ry="2.5" style="stroke:#181818;stroke-width:0.5;" width="115" x="1340.5" y="496.5918"/><text fill="#000000" font-family="sans-serif" font-size="14" font-style="italic" lengthAdjust="spacing" textLength="67" x="1364.5" y="517.127">&#171;Domain&#187;</text><text fill="#000000" font-family="sans-serif" font-size="14" lengthAdjust="spacing" textLength="101" x="1347.5" y="533.6152">CleaningPhase</text><polygon fill="#181818" points="738.5,571.8789,728.5,575.8789,738.5,579.8789,734.5,575.8789" style="stroke:#181818;stroke-width:1.0;"/><line style="stroke:#181818;stroke-width:1.0;stroke-dasharray:2.0,2.0;" x1="732.5" x2="873.5" y1="575.8789" y2="575.8789"/><text fill="#000000" font-family="sans-serif" font-size="13" lengthAdjust="spacing" textLength="92" x="744.5" y="571.1367">OperationType</text><polygon fill="#181818" points="537.5,601.1895,527.5,605.1895,537.5,609.1895,533.5,605.1895" style="stroke:#181818;stroke-width:1.0;"/><line style="stroke:#181818;stroke-width:1.0;" x1="531.5" x2="721.5" y1="605.1895" y2="605.1895"/><text fill="#000000" font-family="sans-serif" font-size="13" lengthAdjust="spacing" textLength="92" x="543.5" y="600.4473">OperationType</text><polygon fill="#181818" points="1686.5,630.5,1696.5,634.5,1686.5,638.5,1690.5,634.5" style="stroke:#181818;stroke-width:1.0;"/><line style="stroke:#181818;stroke-width:1.0;" x1="526.5" x2="1692.5" y1="634.5" y2="634.5"/><text fill="#000000" font-family="sans-serif" font-size="13" lengthAdjust="spacing" textLength="220" x="533.5" y="629.7578">saveOperationType(OperationType)</text><polygon fill="#181818" points="1873,659.8105,1883,663.8105,1873,667.8105,1877,663.8105" style="stroke:#181818;stroke-width:1.0;"/><line style="stroke:#181818;stroke-width:1.0;" x1="1708.5" x2="1879" y1="663.8105" y2="663.8105"/><text fill="#000000" font-family="sans-serif" font-size="13" lengthAdjust="spacing" textLength="128" x="1715.5" y="659.0684">save(OperationType)</text><polygon fill="#181818" points="2024,719.1211,2034,723.1211,2024,727.1211,2028,723.1211" style="stroke:#181818;stroke-width:1.0;"/><line style="stroke:#181818;stroke-width:1.0;" x1="1708.5" x2="2030" y1="723.1211" y2="723.1211"/><text fill="#000000" font-family="sans-serif" font-size="13" lengthAdjust="spacing" textLength="94" x="1715.5" y="718.3789">commitAsync()</text><polygon fill="#181818" points="537.5,778.4316,527.5,782.4316,537.5,786.4316,533.5,782.4316" style="stroke:#181818;stroke-width:1.0;"/><line style="stroke:#181818;stroke-width:1.0;stroke-dasharray:2.0,2.0;" x1="531.5" x2="1702.5" y1="782.4316" y2="782.4316"/><text fill="#000000" font-family="sans-serif" font-size="13" lengthAdjust="spacing" textLength="187" x="543.5" y="777.6895">return the new OperationType</text><polygon fill="#181818" points="705.5,807.7422,715.5,811.7422,705.5,815.7422,709.5,811.7422" style="stroke:#181818;stroke-width:1.0;"/><line style="stroke:#181818;stroke-width:1.0;" x1="526.5" x2="711.5" y1="811.7422" y2="811.7422"/><text fill="#000000" font-family="sans-serif" font-size="13" lengthAdjust="spacing" textLength="141" x="533.5" y="807">toDTO(OperationType)</text><polygon fill="#181818" points="1453.5,837.0527,1463.5,841.0527,1453.5,845.0527,1457.5,841.0527" style="stroke:#181818;stroke-width:1.0;"/><line style="stroke:#181818;stroke-width:1.0;" x1="727.5" x2="1459.5" y1="841.0527" y2="841.0527"/><text fill="#000000" font-family="sans-serif" font-size="13" lengthAdjust="spacing" textLength="38" x="734.5" y="836.3105">create</text><rect fill="#E2E2F0" height="46.9766" rx="2.5" ry="2.5" style="stroke:#181818;stroke-width:0.5;" width="146" x="1465.5" y="819.7422"/><text fill="#000000" font-family="sans-serif" font-size="14" font-style="italic" lengthAdjust="spacing" textLength="44" x="1516.5" y="840.2773">&#171;DTO&#187;</text><text fill="#000000" font-family="sans-serif" font-size="14" lengthAdjust="spacing" textLength="132" x="1472.5" y="856.7656">OperationTypeDTO</text><polygon fill="#181818" points="537.5,895.0293,527.5,899.0293,537.5,903.0293,533.5,899.0293" style="stroke:#181818;stroke-width:1.0;"/><line style="stroke:#181818;stroke-width:1.0;stroke-dasharray:2.0,2.0;" x1="531.5" x2="721.5" y1="899.0293" y2="899.0293"/><text fill="#000000" font-family="sans-serif" font-size="13" lengthAdjust="spacing" textLength="120" x="543.5" y="894.2871">OperationTypeDTO</text><polygon fill="#181818" points="369.5,924.3398,359.5,928.3398,369.5,932.3398,365.5,928.3398" style="stroke:#181818;stroke-width:1.0;"/><line style="stroke:#181818;stroke-width:1.0;stroke-dasharray:2.0,2.0;" x1="363.5" x2="520.5" y1="928.3398" y2="928.3398"/><text fill="#000000" font-family="sans-serif" font-size="13" lengthAdjust="spacing" textLength="57" x="375.5" y="923.5977">response</text><polygon fill="#181818" points="41.5,953.6504,31.5,957.6504,41.5,961.6504,37.5,957.6504" style="stroke:#181818;stroke-width:1.0;"/><line style="stroke:#181818;stroke-width:1.0;stroke-dasharray:2.0,2.0;" x1="35.5" x2="352.5" y1="957.6504" y2="957.6504"/><text fill="#000000" font-family="sans-serif" font-size="13" lengthAdjust="spacing" textLength="146" x="47.5" y="952.9082">Success/Error message</text><!--SRC=[VLLDR-8m4BtdL_X8Aw6zHr4ar7Qb7jYWXMhFbZC52s9xxO6A_VKx_W0xKSC5npFlJSRFRm8Ng2rRzODKh3BSeXJIS8NiuvqnxcWPHJi3bgFKQdSryA8LMdq2wu42xQbfKeXYRJjFN7DZ8ci8JqqJ8uyu7jthWKlLDAzXdQ0t5cWRy9i3Tu5WSco6jJtRFTZhdU7YVWRzSWAkfDhVuI85Pl2Z4xpkkd08r8JUTO-WMx0NAM93yR5fKkmHxJSOxIHTwDKpxNtND3apuNyeYTtd7ssFLSK5oWj7Y7QegkYAPKicgDcQ7waVAlht30uPQYOiU31d2hvo7ymtaakHVyX9IoeIgzLivOwEuG689i0vJirAzQdj4EZZbswiliWU7k5zzJQuZsgdxXpZYXqG3TjqsrrkngCg_xDie_5gEiURGedNnVYgK3zbMiHMSLcsqONFptKK8EDYeehB3LUp2p_9dl8aDNNtYm-mU9e5hQ6NOcj0I0hy2mtzr3QvjE0LpgPEqbtSiyd5tsHkXYrIAUSlwQRAI8ogX-aHRr84HH_0at9HykJacZb-WH5bB7wXVA9KQVKtdLqT2yroCx3ig8WMHVCKa2fw62Ikt5M9HL6k69IYN15DvKZ5A8e5F5kLdFirhz7jZ54aber9tuZPmqqjYJhxCGLJ7zDFq3VN4ruTPfI6oJVkZ5Pkr6IOdCaWRy_23-IFDslfBsJmixaVaMZsYrtygFm7]--></g></svg>