<?xml version="1.0" encoding="us-ascii" standalone="no"?><svg xmlns="http://www.w3.org/2000/svg" xmlns:xlink="http://www.w3.org/1999/xlink" contentStyleType="text/css" height="817px" preserveAspectRatio="none" style="width:1496px;height:817px;background:#FFFFFF;" version="1.1" viewBox="0 0 1496 817" width="1496px" zoomAndPan="magnify"><defs/><g><rect fill="#FFFFFF" height="667.0625" style="stroke:#181818;stroke-width:1.0;" width="10" x="145" y="87.5703"/><rect fill="#FFFFFF" height="597.3594" style="stroke:#181818;stroke-width:1.0;" width="10" x="263" y="117.9219"/><rect fill="#FFFFFF" height="476.4375" style="stroke:#181818;stroke-width:1.0;" width="10" x="646.5" y="208.4922"/><rect fill="#FFFFFF" height="41.3516" style="stroke:#181818;stroke-width:1.0;" width="10" x="651.5" y="246.8438"/><rect fill="#FFFFFF" height="41.3516" style="stroke:#181818;stroke-width:1.0;" width="10" x="651.5" y="333.5469"/><rect fill="#FFFFFF" height="30.3516" style="stroke:#181818;stroke-width:1.0;" width="10" x="1034.5" y="472.9531"/><rect fill="#FFFFFF" height="30.3516" style="stroke:#181818;stroke-width:1.0;" width="10" x="1218.5" y="412.25"/><rect fill="#FFFFFF" height="30.3516" style="stroke:#181818;stroke-width:1.0;" width="10" x="1432.5" y="624.2266"/><line style="stroke:#181818;stroke-width:0.5;stroke-dasharray:5.0,5.0;" x1="150" x2="150" y1="55.2188" y2="763.6328"/><line style="stroke:#181818;stroke-width:0.5;stroke-dasharray:5.0,5.0;" x1="268" x2="268" y1="55.2188" y2="763.6328"/><line style="stroke:#181818;stroke-width:0.5;stroke-dasharray:5.0,5.0;" x1="518" x2="518" y1="166.0313" y2="763.6328"/><line style="stroke:#181818;stroke-width:0.5;stroke-dasharray:5.0,5.0;" x1="651" x2="651" y1="55.2188" y2="763.6328"/><line style="stroke:#181818;stroke-width:0.5;stroke-dasharray:5.0,5.0;" x1="1039.5" x2="1039.5" y1="55.2188" y2="763.6328"/><line style="stroke:#181818;stroke-width:0.5;stroke-dasharray:5.0,5.0;" x1="1223.5" x2="1223.5" y1="55.2188" y2="763.6328"/><line style="stroke:#181818;stroke-width:0.5;stroke-dasharray:5.0,5.0;" x1="1335.5" x2="1335.5" y1="551.4141" y2="763.6328"/><line style="stroke:#181818;stroke-width:0.5;stroke-dasharray:5.0,5.0;" x1="1437.5" x2="1437.5" y1="55.2188" y2="763.6328"/><rect fill="#E2E2F0" height="49.2188" rx="2.5" ry="2.5" style="stroke:#181818;stroke-width:0.5;" width="96" x="102" y="5"/><text fill="#000000" font-family="sans-serif" font-size="14" font-style="italic" lengthAdjust="spacing" textLength="54" x="123" y="26.5332">&#171;Route&#187;</text><text fill="#000000" font-family="sans-serif" font-size="14" lengthAdjust="spacing" textLength="82" x="109" y="44.1426">PatientRoute</text><rect fill="#E2E2F0" height="49.2188" rx="2.5" ry="2.5" style="stroke:#181818;stroke-width:0.5;" width="96" x="102" y="762.6328"/><text fill="#000000" font-family="sans-serif" font-size="14" font-style="italic" lengthAdjust="spacing" textLength="54" x="123" y="784.166">&#171;Route&#187;</text><text fill="#000000" font-family="sans-serif" font-size="14" lengthAdjust="spacing" textLength="82" x="109" y="801.7754">PatientRoute</text><rect fill="#E2E2F0" height="49.2188" rx="2.5" ry="2.5" style="stroke:#181818;stroke-width:0.5;" width="120" x="208" y="5"/><text fill="#000000" font-family="sans-serif" font-size="14" font-style="italic" lengthAdjust="spacing" textLength="78" x="229" y="26.5332">&#171;Controller&#187;</text><text fill="#000000" font-family="sans-serif" font-size="14" lengthAdjust="spacing" textLength="106" x="215" y="44.1426">PatientController</text><rect fill="#E2E2F0" height="49.2188" rx="2.5" ry="2.5" style="stroke:#181818;stroke-width:0.5;" width="120" x="208" y="762.6328"/><text fill="#000000" font-family="sans-serif" font-size="14" font-style="italic" lengthAdjust="spacing" textLength="78" x="229" y="784.166">&#171;Controller&#187;</text><text fill="#000000" font-family="sans-serif" font-size="14" lengthAdjust="spacing" textLength="106" x="215" y="801.7754">PatientController</text><rect fill="#E2E2F0" height="49.2188" rx="2.5" ry="2.5" style="stroke:#181818;stroke-width:0.5;" width="142" x="447" y="762.6328"/><text fill="#000000" font-family="sans-serif" font-size="14" font-style="italic" lengthAdjust="spacing" textLength="46" x="495" y="784.166">&#171;DTO&#187;</text><text fill="#000000" font-family="sans-serif" font-size="14" lengthAdjust="spacing" textLength="128" x="454" y="801.7754">CreatingPatientDTO</text><rect fill="#E2E2F0" height="49.2188" rx="2.5" ry="2.5" style="stroke:#181818;stroke-width:0.5;" width="105" x="599" y="5"/><text fill="#000000" font-family="sans-serif" font-size="14" font-style="italic" lengthAdjust="spacing" textLength="62" x="620.5" y="26.5332">&#171;Service&#187;</text><text fill="#000000" font-family="sans-serif" font-size="14" lengthAdjust="spacing" textLength="91" x="606" y="44.1426">PatientService</text><rect fill="#E2E2F0" height="49.2188" rx="2.5" ry="2.5" style="stroke:#181818;stroke-width:0.5;" width="105" x="599" y="762.6328"/><text fill="#000000" font-family="sans-serif" font-size="14" font-style="italic" lengthAdjust="spacing" textLength="62" x="620.5" y="784.166">&#171;Service&#187;</text><text fill="#000000" font-family="sans-serif" font-size="14" lengthAdjust="spacing" textLength="91" x="606" y="801.7754">PatientService</text><rect fill="#E2E2F0" height="49.2188" rx="2.5" ry="2.5" style="stroke:#181818;stroke-width:0.5;" width="222" x="928.5" y="5"/><text fill="#000000" font-family="sans-serif" font-size="14" font-style="italic" lengthAdjust="spacing" textLength="62" x="1008.5" y="26.5332">&#171;Service&#187;</text><text fill="#000000" font-family="sans-serif" font-size="14" lengthAdjust="spacing" textLength="208" x="935.5" y="44.1426">MedicalRecordNumberGenerator</text><rect fill="#E2E2F0" height="49.2188" rx="2.5" ry="2.5" style="stroke:#181818;stroke-width:0.5;" width="222" x="928.5" y="762.6328"/><text fill="#000000" font-family="sans-serif" font-size="14" font-style="italic" lengthAdjust="spacing" textLength="62" x="1008.5" y="784.166">&#171;Service&#187;</text><text fill="#000000" font-family="sans-serif" font-size="14" lengthAdjust="spacing" textLength="208" x="935.5" y="801.7754">MedicalRecordNumberGenerator</text><rect fill="#E2E2F0" height="49.2188" rx="2.5" ry="2.5" style="stroke:#181818;stroke-width:0.5;" width="126" x="1160.5" y="5"/><text fill="#000000" font-family="sans-serif" font-size="14" font-style="italic" lengthAdjust="spacing" textLength="84" x="1181.5" y="26.5332">&#171;Repository&#187;</text><text fill="#000000" font-family="sans-serif" font-size="14" lengthAdjust="spacing" textLength="112" x="1167.5" y="44.1426">PatientRepository</text><rect fill="#E2E2F0" height="49.2188" rx="2.5" ry="2.5" style="stroke:#181818;stroke-width:0.5;" width="126" x="1160.5" y="762.6328"/><text fill="#000000" font-family="sans-serif" font-size="14" font-style="italic" lengthAdjust="spacing" textLength="84" x="1181.5" y="784.166">&#171;Repository&#187;</text><text fill="#000000" font-family="sans-serif" font-size="14" lengthAdjust="spacing" textLength="112" x="1167.5" y="801.7754">PatientRepository</text><rect fill="#E2E2F0" height="49.2188" rx="2.5" ry="2.5" style="stroke:#181818;stroke-width:0.5;" width="78" x="1296.5" y="762.6328"/><text fill="#000000" font-family="sans-serif" font-size="14" font-style="italic" lengthAdjust="spacing" textLength="64" x="1303.5" y="784.166">&#171;Domain&#187;</text><text fill="#000000" font-family="sans-serif" font-size="14" lengthAdjust="spacing" textLength="44" x="1313.5" y="801.7754">Patient</text><rect fill="#E2E2F0" height="49.2188" rx="2.5" ry="2.5" style="stroke:#181818;stroke-width:0.5;" width="106" x="1384.5" y="5"/><text fill="#000000" font-family="sans-serif" font-size="14" font-style="italic" lengthAdjust="spacing" textLength="65" x="1405" y="26.5332">&#171;Mapper&#187;</text><text fill="#000000" font-family="sans-serif" font-size="14" lengthAdjust="spacing" textLength="92" x="1391.5" y="44.1426">PatientMapper</text><rect fill="#E2E2F0" height="49.2188" rx="2.5" ry="2.5" style="stroke:#181818;stroke-width:0.5;" width="106" x="1384.5" y="762.6328"/><text fill="#000000" font-family="sans-serif" font-size="14" font-style="italic" lengthAdjust="spacing" textLength="65" x="1405" y="784.166">&#171;Mapper&#187;</text><text fill="#000000" font-family="sans-serif" font-size="14" lengthAdjust="spacing" textLength="92" x="1391.5" y="801.7754">PatientMapper</text><rect fill="#FFFFFF" height="667.0625" style="stroke:#181818;stroke-width:1.0;" width="10" x="145" y="87.5703"/><rect fill="#FFFFFF" height="597.3594" style="stroke:#181818;stroke-width:1.0;" width="10" x="263" y="117.9219"/><rect fill="#FFFFFF" height="476.4375" style="stroke:#181818;stroke-width:1.0;" width="10" x="646.5" y="208.4922"/><rect fill="#FFFFFF" height="41.3516" style="stroke:#181818;stroke-width:1.0;" width="10" x="651.5" y="246.8438"/><rect fill="#FFFFFF" height="41.3516" style="stroke:#181818;stroke-width:1.0;" width="10" x="651.5" y="333.5469"/><rect fill="#FFFFFF" height="30.3516" style="stroke:#181818;stroke-width:1.0;" width="10" x="1034.5" y="472.9531"/><rect fill="#FFFFFF" height="30.3516" style="stroke:#181818;stroke-width:1.0;" width="10" x="1218.5" y="412.25"/><rect fill="#FFFFFF" height="30.3516" style="stroke:#181818;stroke-width:1.0;" width="10" x="1432.5" y="624.2266"/><ellipse cx="7.5" cy="86.8203" fill="none" rx="4" ry="4" style="stroke:#181818;stroke-width:1.5;"/><polygon fill="#181818" points="133,83.5703,143,87.5703,133,91.5703,137,87.5703" style="stroke:#181818;stroke-width:1.0;"/><line style="stroke:#181818;stroke-width:1.0;" x1="12" x2="139" y1="87.5703" y2="87.5703"/><text fill="#000000" font-family="sans-serif" font-size="13" lengthAdjust="spacing" textLength="118" x="15" y="82.7139">POST (/api/patients)</text><polygon fill="#181818" points="251,113.9219,261,117.9219,251,121.9219,255,117.9219" style="stroke:#181818;stroke-width:1.0;"/><line style="stroke:#181818;stroke-width:1.0;" x1="155" x2="257" y1="117.9219" y2="117.9219"/><text fill="#000000" font-family="sans-serif" font-size="13" lengthAdjust="spacing" textLength="35" x="162" y="113.0654">POST</text><polygon fill="#181818" points="435,144.2734,445,148.2734,435,152.2734,439,148.2734" style="stroke:#181818;stroke-width:1.0;"/><line style="stroke:#181818;stroke-width:1.0;" x1="273" x2="441" y1="148.2734" y2="148.2734"/><text fill="#000000" font-family="sans-serif" font-size="13" lengthAdjust="spacing" textLength="150" x="280" y="143.417">recieves request body info</text><rect fill="#E2E2F0" height="49.2188" rx="2.5" ry="2.5" style="stroke:#181818;stroke-width:0.5;" width="142" x="447" y="125.9219"/><text fill="#000000" font-family="sans-serif" font-size="14" font-style="italic" lengthAdjust="spacing" textLength="46" x="495" y="147.4551">&#171;DTO&#187;</text><text fill="#000000" font-family="sans-serif" font-size="14" lengthAdjust="spacing" textLength="128" x="454" y="165.0645">CreatingPatientDTO</text><polygon fill="#181818" points="634.5,204.4922,644.5,208.4922,634.5,212.4922,638.5,208.4922" style="stroke:#181818;stroke-width:1.0;"/><line style="stroke:#181818;stroke-width:1.0;" x1="273" x2="640.5" y1="208.4922" y2="208.4922"/><text fill="#000000" font-family="sans-serif" font-size="13" lengthAdjust="spacing" textLength="198" x="280" y="203.6357">createPatient(creatingPatientDTO)</text><line style="stroke:#181818;stroke-width:1.0;" x1="656.5" x2="703.5" y1="233.8438" y2="233.8438"/><line style="stroke:#181818;stroke-width:1.0;" x1="703.5" x2="703.5" y1="233.8438" y2="246.8438"/><line style="stroke:#181818;stroke-width:1.0;" x1="662.5" x2="703.5" y1="246.8438" y2="246.8438"/><polygon fill="#181818" points="672.5,242.8438,662.5,246.8438,672.5,250.8438,668.5,246.8438" style="stroke:#181818;stroke-width:1.0;"/><text fill="#000000" font-family="sans-serif" font-size="13" lengthAdjust="spacing" textLength="165" x="668.5" y="228.9873">validateEmailIsUnique(email)</text><line style="stroke:#181818;stroke-width:1.0;stroke-dasharray:2.0,2.0;" x1="661.5" x2="703.5" y1="287.1953" y2="287.1953"/><line style="stroke:#181818;stroke-width:1.0;stroke-dasharray:2.0,2.0;" x1="703.5" x2="703.5" y1="287.1953" y2="300.1953"/><line style="stroke:#181818;stroke-width:1.0;stroke-dasharray:2.0,2.0;" x1="656.5" x2="703.5" y1="300.1953" y2="300.1953"/><polygon fill="#181818" points="666.5,296.1953,656.5,300.1953,666.5,304.1953,662.5,300.1953" style="stroke:#181818;stroke-width:1.0;"/><text fill="#000000" font-family="sans-serif" font-size="13" lengthAdjust="spacing" textLength="20" x="668.5" y="282.3389">flag</text><line style="stroke:#181818;stroke-width:1.0;" x1="656.5" x2="703.5" y1="320.5469" y2="320.5469"/><line style="stroke:#181818;stroke-width:1.0;" x1="703.5" x2="703.5" y1="320.5469" y2="333.5469"/><line style="stroke:#181818;stroke-width:1.0;" x1="662.5" x2="703.5" y1="333.5469" y2="333.5469"/><polygon fill="#181818" points="672.5,329.5469,662.5,333.5469,672.5,337.5469,668.5,333.5469" style="stroke:#181818;stroke-width:1.0;"/><text fill="#000000" font-family="sans-serif" font-size="13" lengthAdjust="spacing" textLength="214" x="668.5" y="315.6904">validatePhoneNumberIsUnique(email)</text><line style="stroke:#181818;stroke-width:1.0;stroke-dasharray:2.0,2.0;" x1="661.5" x2="703.5" y1="373.8984" y2="373.8984"/><line style="stroke:#181818;stroke-width:1.0;stroke-dasharray:2.0,2.0;" x1="703.5" x2="703.5" y1="373.8984" y2="386.8984"/><line style="stroke:#181818;stroke-width:1.0;stroke-dasharray:2.0,2.0;" x1="656.5" x2="703.5" y1="386.8984" y2="386.8984"/><polygon fill="#181818" points="666.5,382.8984,656.5,386.8984,666.5,390.8984,662.5,386.8984" style="stroke:#181818;stroke-width:1.0;"/><text fill="#000000" font-family="sans-serif" font-size="13" lengthAdjust="spacing" textLength="20" x="668.5" y="369.042">flag</text><polygon fill="#181818" points="1206.5,408.25,1216.5,412.25,1206.5,416.25,1210.5,412.25" style="stroke:#181818;stroke-width:1.0;"/><line style="stroke:#181818;stroke-width:1.0;" x1="656.5" x2="1212.5" y1="412.25" y2="412.25"/><text fill="#000000" font-family="sans-serif" font-size="13" lengthAdjust="spacing" textLength="200" x="663.5" y="407.3936">getLastPatientRegisteredInMonth()</text><polygon fill="#181818" points="667.5,438.6016,657.5,442.6016,667.5,446.6016,663.5,442.6016" style="stroke:#181818;stroke-width:1.0;"/><line style="stroke:#181818;stroke-width:1.0;stroke-dasharray:2.0,2.0;" x1="661.5" x2="1222.5" y1="442.6016" y2="442.6016"/><text fill="#000000" font-family="sans-serif" font-size="13" lengthAdjust="spacing" textLength="170" x="673.5" y="437.7451">lastPatientRegisteredInMonth</text><polygon fill="#181818" points="1022.5,468.9531,1032.5,472.9531,1022.5,476.9531,1026.5,472.9531" style="stroke:#181818;stroke-width:1.0;"/><line style="stroke:#181818;stroke-width:1.0;" x1="656.5" x2="1028.5" y1="472.9531" y2="472.9531"/><text fill="#000000" font-family="sans-serif" font-size="13" lengthAdjust="spacing" textLength="359" x="663.5" y="468.0967">generateMedicalRecordNumber(lastPatientRegisteredInMonth)</text><polygon fill="#181818" points="667.5,499.3047,657.5,503.3047,667.5,507.3047,663.5,503.3047" style="stroke:#181818;stroke-width:1.0;"/><line style="stroke:#181818;stroke-width:1.0;stroke-dasharray:2.0,2.0;" x1="661.5" x2="1038.5" y1="503.3047" y2="503.3047"/><text fill="#000000" font-family="sans-serif" font-size="13" lengthAdjust="spacing" textLength="131" x="673.5" y="498.4482">medicalRecordNumber</text><polygon fill="#181818" points="1284.5,529.6563,1294.5,533.6563,1284.5,537.6563,1288.5,533.6563" style="stroke:#181818;stroke-width:1.0;"/><line style="stroke:#181818;stroke-width:1.0;" x1="656.5" x2="1290.5" y1="533.6563" y2="533.6563"/><text fill="#000000" font-family="sans-serif" font-size="13" lengthAdjust="spacing" textLength="286" x="663.5" y="528.7998">create(createPatientDTO, medicalRecordNumber)</text><rect fill="#E2E2F0" height="49.2188" rx="2.5" ry="2.5" style="stroke:#181818;stroke-width:0.5;" width="78" x="1296.5" y="511.3047"/><text fill="#000000" font-family="sans-serif" font-size="14" font-style="italic" lengthAdjust="spacing" textLength="64" x="1303.5" y="532.8379">&#171;Domain&#187;</text><text fill="#000000" font-family="sans-serif" font-size="14" lengthAdjust="spacing" textLength="44" x="1313.5" y="550.4473">Patient</text><polygon fill="#181818" points="1211.5,589.875,1221.5,593.875,1211.5,597.875,1215.5,593.875" style="stroke:#181818;stroke-width:1.0;"/><line style="stroke:#181818;stroke-width:1.0;" x1="656.5" x2="1217.5" y1="593.875" y2="593.875"/><text fill="#000000" font-family="sans-serif" font-size="13" lengthAdjust="spacing" textLength="73" x="663.5" y="589.0186">save(patient)</text><polygon fill="#181818" points="1420.5,620.2266,1430.5,624.2266,1420.5,628.2266,1424.5,624.2266" style="stroke:#181818;stroke-width:1.0;"/><line style="stroke:#181818;stroke-width:1.0;" x1="656.5" x2="1426.5" y1="624.2266" y2="624.2266"/><text fill="#000000" font-family="sans-serif" font-size="13" lengthAdjust="spacing" textLength="84" x="663.5" y="619.3701">toDTO(patient)</text><polygon fill="#181818" points="667.5,650.5781,657.5,654.5781,667.5,658.5781,663.5,654.5781" style="stroke:#181818;stroke-width:1.0;"/><line style="stroke:#181818;stroke-width:1.0;stroke-dasharray:2.0,2.0;" x1="661.5" x2="1436.5" y1="654.5781" y2="654.5781"/><text fill="#000000" font-family="sans-serif" font-size="13" lengthAdjust="spacing" textLength="65" x="673.5" y="649.7217">patientDTO</text><polygon fill="#181818" points="284,680.9297,274,684.9297,284,688.9297,280,684.9297" style="stroke:#181818;stroke-width:1.0;"/><line style="stroke:#181818;stroke-width:1.0;stroke-dasharray:2.0,2.0;" x1="278" x2="650.5" y1="684.9297" y2="684.9297"/><text fill="#000000" font-family="sans-serif" font-size="13" lengthAdjust="spacing" textLength="65" x="290" y="680.0732">patientDTO</text><polygon fill="#181818" points="166,711.2813,156,715.2813,166,719.2813,162,715.2813" style="stroke:#181818;stroke-width:1.0;"/><line style="stroke:#181818;stroke-width:1.0;stroke-dasharray:2.0,2.0;" x1="160" x2="267" y1="715.2813" y2="715.2813"/><text fill="#000000" font-family="sans-serif" font-size="13" lengthAdjust="spacing" textLength="53" x="172" y="710.4248">response</text><polygon fill="#181818" points="11,741.6328,1,745.6328,11,749.6328,7,745.6328" style="stroke:#181818;stroke-width:1.0;"/><line style="stroke:#181818;stroke-width:1.0;stroke-dasharray:2.0,2.0;" x1="5" x2="144" y1="745.6328" y2="745.6328"/><text fill="#000000" font-family="sans-serif" font-size="13" lengthAdjust="spacing" textLength="53" x="17" y="740.7764">response</text><!--SRC=[dLCzRy8m4DtpApm6LCGUMIoqgf1AGK2dJYOvWgLWkxOJYN_VYvqFGz8CNP8x-RtdyxqxnRJbALTCMB9dbeEm1rbQ8CmG7r3g_gjLf8ROjHHMow80NHE2ZD8-UQAkDI1Pv8t4wsbNS-iVfVWTl-W8kkAfAwiDAMsY9yOMCfwouW2frDbdUJk3VWS1cbdfgfmy_qkqxGqeQJW2xwv1VOPTwf9ngdkal34kwdUwO1ouPKhvVZOHfJv0-BTShBml2TdlZYSIBvdYI-MPPXQnrFAAeMqE57aBaHDOuvaziZ-A0XHoq8pv7E4QKWuL60n-IZ2Md6Ls9rnSv1EXTIOXQUqnD0-Aqu7ZGQ4DAMh93peLAtY6g3TiLx4nNu9Z1J7KsOY41bjgGIu5owVbzbSfm5l_Nz70-uJaO3-OiTsGvDnOq91jn1ORT8r3NpfUgrnCCCCR9-Ushi75C0ABfwu8QfkweQtsDiI4HVh1TcFZPo1-60Mq_cLCOlPdQmsh86xc-m7LB4T2h4JL7jA_nW7QkbLNG2_ol1S19eF188IptcwXsmwZf30GKeALeel54FeB]--></g></svg>