<?xml version="1.0" encoding="us-ascii" standalone="no"?><svg xmlns="http://www.w3.org/2000/svg" xmlns:xlink="http://www.w3.org/1999/xlink" contentStyleType="text/css" height="757px" preserveAspectRatio="none" style="width:1346px;height:757px;background:#FFFFFF;" version="1.1" viewBox="0 0 1346 757" width="1346px" zoomAndPan="magnify"><defs/><g><rect fill="#FFFFFF" height="606.3594" style="stroke:#181818;stroke-width:1.0;" width="10" x="145" y="87.5703"/><rect fill="#FFFFFF" height="536.6563" style="stroke:#181818;stroke-width:1.0;" width="10" x="263" y="117.9219"/><rect fill="#FFFFFF" height="415.7344" style="stroke:#181818;stroke-width:1.0;" width="10" x="646.5" y="208.4922"/><rect fill="#FFFFFF" height="41.3516" style="stroke:#181818;stroke-width:1.0;" width="10" x="651.5" y="246.8438"/><rect fill="#FFFFFF" height="41.3516" style="stroke:#181818;stroke-width:1.0;" width="10" x="651.5" y="333.5469"/><rect fill="#FFFFFF" height="30.3516" style="stroke:#181818;stroke-width:1.0;" width="10" x="884.5" y="412.25"/><rect fill="#FFFFFF" height="30.3516" style="stroke:#181818;stroke-width:1.0;" width="10" x="1282.5" y="563.5234"/><line style="stroke:#181818;stroke-width:0.5;stroke-dasharray:5.0,5.0;" x1="150" x2="150" y1="55.2188" y2="702.9297"/><line style="stroke:#181818;stroke-width:0.5;stroke-dasharray:5.0,5.0;" x1="268" x2="268" y1="55.2188" y2="702.9297"/><line style="stroke:#181818;stroke-width:0.5;stroke-dasharray:5.0,5.0;" x1="518" x2="518" y1="166.0313" y2="702.9297"/><line style="stroke:#181818;stroke-width:0.5;stroke-dasharray:5.0,5.0;" x1="651" x2="651" y1="55.2188" y2="702.9297"/><line style="stroke:#181818;stroke-width:0.5;stroke-dasharray:5.0,5.0;" x1="889.5" x2="889.5" y1="55.2188" y2="702.9297"/><line style="stroke:#181818;stroke-width:0.5;stroke-dasharray:5.0,5.0;" x1="1073.5" x2="1073.5" y1="55.2188" y2="702.9297"/><line style="stroke:#181818;stroke-width:0.5;stroke-dasharray:5.0,5.0;" x1="1185.5" x2="1185.5" y1="490.7109" y2="702.9297"/><line style="stroke:#181818;stroke-width:0.5;stroke-dasharray:5.0,5.0;" x1="1287.5" x2="1287.5" y1="55.2188" y2="702.9297"/><rect fill="#E2E2F0" height="49.2188" rx="2.5" ry="2.5" style="stroke:#181818;stroke-width:0.5;" width="96" x="102" y="5"/><text fill="#000000" font-family="sans-serif" font-size="14" font-style="italic" lengthAdjust="spacing" textLength="54" x="123" y="26.5332">&#171;Route&#187;</text><text fill="#000000" font-family="sans-serif" font-size="14" lengthAdjust="spacing" textLength="82" x="109" y="44.1426">PatientRoute</text><rect fill="#E2E2F0" height="49.2188" rx="2.5" ry="2.5" style="stroke:#181818;stroke-width:0.5;" width="96" x="102" y="701.9297"/><text fill="#000000" font-family="sans-serif" font-size="14" font-style="italic" lengthAdjust="spacing" textLength="54" x="123" y="723.4629">&#171;Route&#187;</text><text fill="#000000" font-family="sans-serif" font-size="14" lengthAdjust="spacing" textLength="82" x="109" y="741.0723">PatientRoute</text><rect fill="#E2E2F0" height="49.2188" rx="2.5" ry="2.5" style="stroke:#181818;stroke-width:0.5;" width="120" x="208" y="5"/><text fill="#000000" font-family="sans-serif" font-size="14" font-style="italic" lengthAdjust="spacing" textLength="78" x="229" y="26.5332">&#171;Controller&#187;</text><text fill="#000000" font-family="sans-serif" font-size="14" lengthAdjust="spacing" textLength="106" x="215" y="44.1426">PatientController</text><rect fill="#E2E2F0" height="49.2188" rx="2.5" ry="2.5" style="stroke:#181818;stroke-width:0.5;" width="120" x="208" y="701.9297"/><text fill="#000000" font-family="sans-serif" font-size="14" font-style="italic" lengthAdjust="spacing" textLength="78" x="229" y="723.4629">&#171;Controller&#187;</text><text fill="#000000" font-family="sans-serif" font-size="14" lengthAdjust="spacing" textLength="106" x="215" y="741.0723">PatientController</text><rect fill="#E2E2F0" height="49.2188" rx="2.5" ry="2.5" style="stroke:#181818;stroke-width:0.5;" width="142" x="447" y="701.9297"/><text fill="#000000" font-family="sans-serif" font-size="14" font-style="italic" lengthAdjust="spacing" textLength="46" x="495" y="723.4629">&#171;DTO&#187;</text><text fill="#000000" font-family="sans-serif" font-size="14" lengthAdjust="spacing" textLength="128" x="454" y="741.0723">CreatingPatientDTO</text><rect fill="#E2E2F0" height="49.2188" rx="2.5" ry="2.5" style="stroke:#181818;stroke-width:0.5;" width="105" x="599" y="5"/><text fill="#000000" font-family="sans-serif" font-size="14" font-style="italic" lengthAdjust="spacing" textLength="62" x="620.5" y="26.5332">&#171;Service&#187;</text><text fill="#000000" font-family="sans-serif" font-size="14" lengthAdjust="spacing" textLength="91" x="606" y="44.1426">PatientService</text><rect fill="#E2E2F0" height="49.2188" rx="2.5" ry="2.5" style="stroke:#181818;stroke-width:0.5;" width="105" x="599" y="701.9297"/><text fill="#000000" font-family="sans-serif" font-size="14" font-style="italic" lengthAdjust="spacing" textLength="62" x="620.5" y="723.4629">&#171;Service&#187;</text><text fill="#000000" font-family="sans-serif" font-size="14" lengthAdjust="spacing" textLength="91" x="606" y="741.0723">PatientService</text><rect fill="#E2E2F0" height="49.2188" rx="2.5" ry="2.5" style="stroke:#181818;stroke-width:0.5;" width="222" x="778.5" y="5"/><text fill="#000000" font-family="sans-serif" font-size="14" font-style="italic" lengthAdjust="spacing" textLength="62" x="858.5" y="26.5332">&#171;Service&#187;</text><text fill="#000000" font-family="sans-serif" font-size="14" lengthAdjust="spacing" textLength="208" x="785.5" y="44.1426">MedicalRecordNumberGenerator</text><rect fill="#E2E2F0" height="49.2188" rx="2.5" ry="2.5" style="stroke:#181818;stroke-width:0.5;" width="222" x="778.5" y="701.9297"/><text fill="#000000" font-family="sans-serif" font-size="14" font-style="italic" lengthAdjust="spacing" textLength="62" x="858.5" y="723.4629">&#171;Service&#187;</text><text fill="#000000" font-family="sans-serif" font-size="14" lengthAdjust="spacing" textLength="208" x="785.5" y="741.0723">MedicalRecordNumberGenerator</text><rect fill="#E2E2F0" height="49.2188" rx="2.5" ry="2.5" style="stroke:#181818;stroke-width:0.5;" width="126" x="1010.5" y="5"/><text fill="#000000" font-family="sans-serif" font-size="14" font-style="italic" lengthAdjust="spacing" textLength="84" x="1031.5" y="26.5332">&#171;Repository&#187;</text><text fill="#000000" font-family="sans-serif" font-size="14" lengthAdjust="spacing" textLength="112" x="1017.5" y="44.1426">PatientRepository</text><rect fill="#E2E2F0" height="49.2188" rx="2.5" ry="2.5" style="stroke:#181818;stroke-width:0.5;" width="126" x="1010.5" y="701.9297"/><text fill="#000000" font-family="sans-serif" font-size="14" font-style="italic" lengthAdjust="spacing" textLength="84" x="1031.5" y="723.4629">&#171;Repository&#187;</text><text fill="#000000" font-family="sans-serif" font-size="14" lengthAdjust="spacing" textLength="112" x="1017.5" y="741.0723">PatientRepository</text><rect fill="#E2E2F0" height="49.2188" rx="2.5" ry="2.5" style="stroke:#181818;stroke-width:0.5;" width="78" x="1146.5" y="701.9297"/><text fill="#000000" font-family="sans-serif" font-size="14" font-style="italic" lengthAdjust="spacing" textLength="64" x="1153.5" y="723.4629">&#171;Domain&#187;</text><text fill="#000000" font-family="sans-serif" font-size="14" lengthAdjust="spacing" textLength="44" x="1163.5" y="741.0723">Patient</text><rect fill="#E2E2F0" height="49.2188" rx="2.5" ry="2.5" style="stroke:#181818;stroke-width:0.5;" width="106" x="1234.5" y="5"/><text fill="#000000" font-family="sans-serif" font-size="14" font-style="italic" lengthAdjust="spacing" textLength="65" x="1255" y="26.5332">&#171;Mapper&#187;</text><text fill="#000000" font-family="sans-serif" font-size="14" lengthAdjust="spacing" textLength="92" x="1241.5" y="44.1426">PatientMapper</text><rect fill="#E2E2F0" height="49.2188" rx="2.5" ry="2.5" style="stroke:#181818;stroke-width:0.5;" width="106" x="1234.5" y="701.9297"/><text fill="#000000" font-family="sans-serif" font-size="14" font-style="italic" lengthAdjust="spacing" textLength="65" x="1255" y="723.4629">&#171;Mapper&#187;</text><text fill="#000000" font-family="sans-serif" font-size="14" lengthAdjust="spacing" textLength="92" x="1241.5" y="741.0723">PatientMapper</text><rect fill="#FFFFFF" height="606.3594" style="stroke:#181818;stroke-width:1.0;" width="10" x="145" y="87.5703"/><rect fill="#FFFFFF" height="536.6563" style="stroke:#181818;stroke-width:1.0;" width="10" x="263" y="117.9219"/><rect fill="#FFFFFF" height="415.7344" style="stroke:#181818;stroke-width:1.0;" width="10" x="646.5" y="208.4922"/><rect fill="#FFFFFF" height="41.3516" style="stroke:#181818;stroke-width:1.0;" width="10" x="651.5" y="246.8438"/><rect fill="#FFFFFF" height="41.3516" style="stroke:#181818;stroke-width:1.0;" width="10" x="651.5" y="333.5469"/><rect fill="#FFFFFF" height="30.3516" style="stroke:#181818;stroke-width:1.0;" width="10" x="884.5" y="412.25"/><rect fill="#FFFFFF" height="30.3516" style="stroke:#181818;stroke-width:1.0;" width="10" x="1282.5" y="563.5234"/><ellipse cx="7.5" cy="86.8203" fill="none" rx="4" ry="4" style="stroke:#181818;stroke-width:1.5;"/><polygon fill="#181818" points="133,83.5703,143,87.5703,133,91.5703,137,87.5703" style="stroke:#181818;stroke-width:1.0;"/><line style="stroke:#181818;stroke-width:1.0;" x1="12" x2="139" y1="87.5703" y2="87.5703"/><text fill="#000000" font-family="sans-serif" font-size="13" lengthAdjust="spacing" textLength="118" x="15" y="82.7139">POST (/api/patients)</text><polygon fill="#181818" points="251,113.9219,261,117.9219,251,121.9219,255,117.9219" style="stroke:#181818;stroke-width:1.0;"/><line style="stroke:#181818;stroke-width:1.0;" x1="155" x2="257" y1="117.9219" y2="117.9219"/><text fill="#000000" font-family="sans-serif" font-size="13" lengthAdjust="spacing" textLength="35" x="162" y="113.0654">POST</text><polygon fill="#181818" points="435,144.2734,445,148.2734,435,152.2734,439,148.2734" style="stroke:#181818;stroke-width:1.0;"/><line style="stroke:#181818;stroke-width:1.0;" x1="273" x2="441" y1="148.2734" y2="148.2734"/><text fill="#000000" font-family="sans-serif" font-size="13" lengthAdjust="spacing" textLength="150" x="280" y="143.417">recieves request body info</text><rect fill="#E2E2F0" height="49.2188" rx="2.5" ry="2.5" style="stroke:#181818;stroke-width:0.5;" width="142" x="447" y="125.9219"/><text fill="#000000" font-family="sans-serif" font-size="14" font-style="italic" lengthAdjust="spacing" textLength="46" x="495" y="147.4551">&#171;DTO&#187;</text><text fill="#000000" font-family="sans-serif" font-size="14" lengthAdjust="spacing" textLength="128" x="454" y="165.0645">CreatingPatientDTO</text><polygon fill="#181818" points="634.5,204.4922,644.5,208.4922,634.5,212.4922,638.5,208.4922" style="stroke:#181818;stroke-width:1.0;"/><line style="stroke:#181818;stroke-width:1.0;" x1="273" x2="640.5" y1="208.4922" y2="208.4922"/><text fill="#000000" font-family="sans-serif" font-size="13" lengthAdjust="spacing" textLength="198" x="280" y="203.6357">createPatient(creatingPatientDTO)</text><line style="stroke:#181818;stroke-width:1.0;" x1="656.5" x2="703.5" y1="233.8438" y2="233.8438"/><line style="stroke:#181818;stroke-width:1.0;" x1="703.5" x2="703.5" y1="233.8438" y2="246.8438"/><line style="stroke:#181818;stroke-width:1.0;" x1="662.5" x2="703.5" y1="246.8438" y2="246.8438"/><polygon fill="#181818" points="672.5,242.8438,662.5,246.8438,672.5,250.8438,668.5,246.8438" style="stroke:#181818;stroke-width:1.0;"/><text fill="#000000" font-family="sans-serif" font-size="13" lengthAdjust="spacing" textLength="165" x="668.5" y="228.9873">validateEmailIsUnique(email)</text><line style="stroke:#181818;stroke-width:1.0;stroke-dasharray:2.0,2.0;" x1="661.5" x2="703.5" y1="287.1953" y2="287.1953"/><line style="stroke:#181818;stroke-width:1.0;stroke-dasharray:2.0,2.0;" x1="703.5" x2="703.5" y1="287.1953" y2="300.1953"/><line style="stroke:#181818;stroke-width:1.0;stroke-dasharray:2.0,2.0;" x1="656.5" x2="703.5" y1="300.1953" y2="300.1953"/><polygon fill="#181818" points="666.5,296.1953,656.5,300.1953,666.5,304.1953,662.5,300.1953" style="stroke:#181818;stroke-width:1.0;"/><text fill="#000000" font-family="sans-serif" font-size="13" lengthAdjust="spacing" textLength="20" x="668.5" y="282.3389">flag</text><line style="stroke:#181818;stroke-width:1.0;" x1="656.5" x2="703.5" y1="320.5469" y2="320.5469"/><line style="stroke:#181818;stroke-width:1.0;" x1="703.5" x2="703.5" y1="320.5469" y2="333.5469"/><line style="stroke:#181818;stroke-width:1.0;" x1="662.5" x2="703.5" y1="333.5469" y2="333.5469"/><polygon fill="#181818" points="672.5,329.5469,662.5,333.5469,672.5,337.5469,668.5,333.5469" style="stroke:#181818;stroke-width:1.0;"/><text fill="#000000" font-family="sans-serif" font-size="13" lengthAdjust="spacing" textLength="214" x="668.5" y="315.6904">validatePhoneNumberIsUnique(email)</text><line style="stroke:#181818;stroke-width:1.0;stroke-dasharray:2.0,2.0;" x1="661.5" x2="703.5" y1="373.8984" y2="373.8984"/><line style="stroke:#181818;stroke-width:1.0;stroke-dasharray:2.0,2.0;" x1="703.5" x2="703.5" y1="373.8984" y2="386.8984"/><line style="stroke:#181818;stroke-width:1.0;stroke-dasharray:2.0,2.0;" x1="656.5" x2="703.5" y1="386.8984" y2="386.8984"/><polygon fill="#181818" points="666.5,382.8984,656.5,386.8984,666.5,390.8984,662.5,386.8984" style="stroke:#181818;stroke-width:1.0;"/><text fill="#000000" font-family="sans-serif" font-size="13" lengthAdjust="spacing" textLength="20" x="668.5" y="369.042">flag</text><polygon fill="#181818" points="872.5,408.25,882.5,412.25,872.5,416.25,876.5,412.25" style="stroke:#181818;stroke-width:1.0;"/><line style="stroke:#181818;stroke-width:1.0;" x1="656.5" x2="878.5" y1="412.25" y2="412.25"/><text fill="#000000" font-family="sans-serif" font-size="13" lengthAdjust="spacing" textLength="189" x="663.5" y="407.3936">generateMedicalRecordNumber()</text><polygon fill="#181818" points="667.5,438.6016,657.5,442.6016,667.5,446.6016,663.5,442.6016" style="stroke:#181818;stroke-width:1.0;"/><line style="stroke:#181818;stroke-width:1.0;stroke-dasharray:2.0,2.0;" x1="661.5" x2="888.5" y1="442.6016" y2="442.6016"/><text fill="#000000" font-family="sans-serif" font-size="13" lengthAdjust="spacing" textLength="131" x="673.5" y="437.7451">medicalRecordNumber</text><polygon fill="#181818" points="1134.5,468.9531,1144.5,472.9531,1134.5,476.9531,1138.5,472.9531" style="stroke:#181818;stroke-width:1.0;"/><line style="stroke:#181818;stroke-width:1.0;" x1="656.5" x2="1140.5" y1="472.9531" y2="472.9531"/><text fill="#000000" font-family="sans-serif" font-size="13" lengthAdjust="spacing" textLength="286" x="663.5" y="468.0967">create(createPatientDTO, medicalRecordNumber)</text><rect fill="#E2E2F0" height="49.2188" rx="2.5" ry="2.5" style="stroke:#181818;stroke-width:0.5;" width="78" x="1146.5" y="450.6016"/><text fill="#000000" font-family="sans-serif" font-size="14" font-style="italic" lengthAdjust="spacing" textLength="64" x="1153.5" y="472.1348">&#171;Domain&#187;</text><text fill="#000000" font-family="sans-serif" font-size="14" lengthAdjust="spacing" textLength="44" x="1163.5" y="489.7441">Patient</text><polygon fill="#181818" points="1061.5,529.1719,1071.5,533.1719,1061.5,537.1719,1065.5,533.1719" style="stroke:#181818;stroke-width:1.0;"/><line style="stroke:#181818;stroke-width:1.0;" x1="656.5" x2="1067.5" y1="533.1719" y2="533.1719"/><text fill="#000000" font-family="sans-serif" font-size="13" lengthAdjust="spacing" textLength="73" x="663.5" y="528.3154">save(patient)</text><polygon fill="#181818" points="1270.5,559.5234,1280.5,563.5234,1270.5,567.5234,1274.5,563.5234" style="stroke:#181818;stroke-width:1.0;"/><line style="stroke:#181818;stroke-width:1.0;" x1="656.5" x2="1276.5" y1="563.5234" y2="563.5234"/><text fill="#000000" font-family="sans-serif" font-size="13" lengthAdjust="spacing" textLength="84" x="663.5" y="558.667">toDTO(patient)</text><polygon fill="#181818" points="667.5,589.875,657.5,593.875,667.5,597.875,663.5,593.875" style="stroke:#181818;stroke-width:1.0;"/><line style="stroke:#181818;stroke-width:1.0;stroke-dasharray:2.0,2.0;" x1="661.5" x2="1286.5" y1="593.875" y2="593.875"/><text fill="#000000" font-family="sans-serif" font-size="13" lengthAdjust="spacing" textLength="65" x="673.5" y="589.0186">patientDTO</text><polygon fill="#181818" points="284,620.2266,274,624.2266,284,628.2266,280,624.2266" style="stroke:#181818;stroke-width:1.0;"/><line style="stroke:#181818;stroke-width:1.0;stroke-dasharray:2.0,2.0;" x1="278" x2="650.5" y1="624.2266" y2="624.2266"/><text fill="#000000" font-family="sans-serif" font-size="13" lengthAdjust="spacing" textLength="65" x="290" y="619.3701">patientDTO</text><polygon fill="#181818" points="166,650.5781,156,654.5781,166,658.5781,162,654.5781" style="stroke:#181818;stroke-width:1.0;"/><line style="stroke:#181818;stroke-width:1.0;stroke-dasharray:2.0,2.0;" x1="160" x2="267" y1="654.5781" y2="654.5781"/><text fill="#000000" font-family="sans-serif" font-size="13" lengthAdjust="spacing" textLength="53" x="172" y="649.7217">response</text><polygon fill="#181818" points="11,680.9297,1,684.9297,11,688.9297,7,684.9297" style="stroke:#181818;stroke-width:1.0;"/><line style="stroke:#181818;stroke-width:1.0;stroke-dasharray:2.0,2.0;" x1="5" x2="144" y1="684.9297" y2="684.9297"/><text fill="#000000" font-family="sans-serif" font-size="13" lengthAdjust="spacing" textLength="53" x="17" y="680.0732">response</text><!--SRC=[dLAnRi8m4Dtp5Hu3AcAFB1PQLHqe2EZKoJW7M0gsQpkH-FjUx8IO9CtG9RcJtti-ttkQ6IUuq4mwicDEW7HxLJeWp99GKEh_grMYXzYraiweeW1J4wAEqgxfKTS6a2mlZSJhSLjpwn-b-1s_w02c4joFrPQKDbMFiO5SS5RiWIkJVvQt4vXta62OKtxAoVE_HDlTW5PM8F3k5zHrkAL7CqxrZrGt9cJzJb-C0pTCwx3Ffg8q50Z_LejLy2KZk-tXID8bqsAf0zFE4iQTg1ZQva59i10vaJM1sI6xeoH28GVDcCyHRe0BgC1YyLE2TUIayZiHygnwXDQPZF3QOsWUbFA1uz6W3IbfoKyw5Ij4ZgWtN5VnOR-am0bIgBiH2GEkD9AS2tQPbjjTbOHW_Nz59rEKaKkeOGIMHfTCgRGttuQOU90G9MzKs7hwj7nSzikOn2pMY8AS4SigI9j4FQ6QE6R4ALJj8DrhFA2TMpy6w4JwIOmmEGnM7wUhpRtFezLAMeWfKOZfOZ64_W80]--></g></svg>