<?xml version="1.0" encoding="us-ascii" standalone="no"?><svg xmlns="http://www.w3.org/2000/svg" xmlns:xlink="http://www.w3.org/1999/xlink" contentStyleType="text/css" height="817px" preserveAspectRatio="none" style="width:1383px;height:817px;background:#FFFFFF;" version="1.1" viewBox="0 0 1383 817" width="1383px" zoomAndPan="magnify"><defs/><g><rect fill="#FFFFFF" height="689.4141" style="stroke:#181818;stroke-width:1.0;" width="10" x="62" y="65.2188"/><rect fill="#FFFFFF" height="658.0625" style="stroke:#181818;stroke-width:1.0;" width="10" x="209" y="87.5703"/><rect fill="#FFFFFF" height="597.3594" style="stroke:#181818;stroke-width:1.0;" width="10" x="299" y="117.9219"/><rect fill="#FFFFFF" height="476.4375" style="stroke:#181818;stroke-width:1.0;" width="10" x="586" y="208.4922"/><rect fill="#FFFFFF" height="41.3516" style="stroke:#181818;stroke-width:1.0;" width="10" x="591" y="246.8438"/><rect fill="#FFFFFF" height="41.3516" style="stroke:#181818;stroke-width:1.0;" width="10" x="591" y="333.5469"/><rect fill="#FFFFFF" height="30.3516" style="stroke:#181818;stroke-width:1.0;" width="10" x="863" y="412.25"/><rect fill="#FFFFFF" height="30.3516" style="stroke:#181818;stroke-width:1.0;" width="10" x="1033" y="472.9531"/><rect fill="#FFFFFF" height="30.3516" style="stroke:#181818;stroke-width:1.0;" width="10" x="1218" y="624.2266"/><line style="stroke:#181818;stroke-width:0.5;stroke-dasharray:5.0,5.0;" x1="67" x2="67" y1="55.2188" y2="763.6328"/><line style="stroke:#181818;stroke-width:0.5;stroke-dasharray:5.0,5.0;" x1="214" x2="214" y1="55.2188" y2="763.6328"/><line style="stroke:#181818;stroke-width:0.5;stroke-dasharray:5.0,5.0;" x1="304" x2="304" y1="55.2188" y2="763.6328"/><line style="stroke:#181818;stroke-width:0.5;stroke-dasharray:5.0,5.0;" x1="513" x2="513" y1="166.0313" y2="763.6328"/><line style="stroke:#181818;stroke-width:0.5;stroke-dasharray:5.0,5.0;" x1="591" x2="591" y1="55.2188" y2="763.6328"/><line style="stroke:#181818;stroke-width:0.5;stroke-dasharray:5.0,5.0;" x1="868" x2="868" y1="55.2188" y2="763.6328"/><line style="stroke:#181818;stroke-width:0.5;stroke-dasharray:5.0,5.0;" x1="1038" x2="1038" y1="55.2188" y2="763.6328"/><line style="stroke:#181818;stroke-width:0.5;stroke-dasharray:5.0,5.0;" x1="1223" x2="1223" y1="55.2188" y2="763.6328"/><line style="stroke:#181818;stroke-width:0.5;stroke-dasharray:5.0,5.0;" x1="1337" x2="1337" y1="551.4141" y2="763.6328"/><rect fill="#E2E2F0" height="49.2188" rx="2.5" ry="2.5" style="stroke:#181818;stroke-width:0.5;" width="124" x="5" y="5"/><text fill="#000000" font-family="sans-serif" font-size="14" font-style="italic" lengthAdjust="spacing" textLength="110" x="12" y="26.5332">&#171;Container (C4)&#187;</text><text fill="#000000" font-family="sans-serif" font-size="14" lengthAdjust="spacing" textLength="27" x="53.5" y="44.1426">SPA</text><rect fill="#E2E2F0" height="49.2188" rx="2.5" ry="2.5" style="stroke:#181818;stroke-width:0.5;" width="124" x="5" y="762.6328"/><text fill="#000000" font-family="sans-serif" font-size="14" font-style="italic" lengthAdjust="spacing" textLength="110" x="12" y="784.166">&#171;Container (C4)&#187;</text><text fill="#000000" font-family="sans-serif" font-size="14" lengthAdjust="spacing" textLength="27" x="53.5" y="801.7754">SPA</text><rect fill="#E2E2F0" height="49.2188" rx="2.5" ry="2.5" style="stroke:#181818;stroke-width:0.5;" width="68" x="180" y="5"/><text fill="#000000" font-family="sans-serif" font-size="14" font-style="italic" lengthAdjust="spacing" textLength="54" x="187" y="26.5332">&#171;Route&#187;</text><text fill="#000000" font-family="sans-serif" font-size="14" lengthAdjust="spacing" textLength="38" x="195" y="44.1426">Route</text><rect fill="#E2E2F0" height="49.2188" rx="2.5" ry="2.5" style="stroke:#181818;stroke-width:0.5;" width="68" x="180" y="762.6328"/><text fill="#000000" font-family="sans-serif" font-size="14" font-style="italic" lengthAdjust="spacing" textLength="54" x="187" y="784.166">&#171;Route&#187;</text><text fill="#000000" font-family="sans-serif" font-size="14" lengthAdjust="spacing" textLength="38" x="195" y="801.7754">Route</text><rect fill="#E2E2F0" height="49.2188" rx="2.5" ry="2.5" style="stroke:#181818;stroke-width:0.5;" width="92" x="258" y="5"/><text fill="#000000" font-family="sans-serif" font-size="14" font-style="italic" lengthAdjust="spacing" textLength="78" x="265" y="26.5332">&#171;Controller&#187;</text><text fill="#000000" font-family="sans-serif" font-size="14" lengthAdjust="spacing" textLength="62" x="273" y="44.1426">Controller</text><rect fill="#E2E2F0" height="49.2188" rx="2.5" ry="2.5" style="stroke:#181818;stroke-width:0.5;" width="92" x="258" y="762.6328"/><text fill="#000000" font-family="sans-serif" font-size="14" font-style="italic" lengthAdjust="spacing" textLength="78" x="265" y="784.166">&#171;Controller&#187;</text><text fill="#000000" font-family="sans-serif" font-size="14" lengthAdjust="spacing" textLength="62" x="273" y="801.7754">Controller</text><rect fill="#E2E2F0" height="49.2188" rx="2.5" ry="2.5" style="stroke:#181818;stroke-width:0.5;" width="60" x="483" y="762.6328"/><text fill="#000000" font-family="sans-serif" font-size="14" font-style="italic" lengthAdjust="spacing" textLength="46" x="490" y="784.166">&#171;DTO&#187;</text><text fill="#000000" font-family="sans-serif" font-size="14" lengthAdjust="spacing" textLength="30" x="498" y="801.7754">DTO</text><rect fill="#E2E2F0" height="49.2188" rx="2.5" ry="2.5" style="stroke:#181818;stroke-width:0.5;" width="76" x="553" y="5"/><text fill="#000000" font-family="sans-serif" font-size="14" font-style="italic" lengthAdjust="spacing" textLength="62" x="560" y="26.5332">&#171;Service&#187;</text><text fill="#000000" font-family="sans-serif" font-size="14" lengthAdjust="spacing" textLength="47" x="567.5" y="44.1426">Service</text><rect fill="#E2E2F0" height="49.2188" rx="2.5" ry="2.5" style="stroke:#181818;stroke-width:0.5;" width="76" x="553" y="762.6328"/><text fill="#000000" font-family="sans-serif" font-size="14" font-style="italic" lengthAdjust="spacing" textLength="62" x="560" y="784.166">&#171;Service&#187;</text><text fill="#000000" font-family="sans-serif" font-size="14" lengthAdjust="spacing" textLength="47" x="567.5" y="801.7754">Service</text><rect fill="#E2E2F0" height="49.2188" rx="2.5" ry="2.5" style="stroke:#181818;stroke-width:0.5;" width="98" x="819" y="5"/><text fill="#000000" font-family="sans-serif" font-size="14" font-style="italic" lengthAdjust="spacing" textLength="84" x="826" y="26.5332">&#171;Repository&#187;</text><text fill="#000000" font-family="sans-serif" font-size="14" lengthAdjust="spacing" textLength="68" x="834" y="44.1426">Repository</text><rect fill="#E2E2F0" height="49.2188" rx="2.5" ry="2.5" style="stroke:#181818;stroke-width:0.5;" width="98" x="819" y="762.6328"/><text fill="#000000" font-family="sans-serif" font-size="14" font-style="italic" lengthAdjust="spacing" textLength="84" x="826" y="784.166">&#171;Repository&#187;</text><text fill="#000000" font-family="sans-serif" font-size="14" lengthAdjust="spacing" textLength="68" x="834" y="801.7754">Repository</text><rect fill="#E2E2F0" height="49.2188" rx="2.5" ry="2.5" style="stroke:#181818;stroke-width:0.5;" width="222" x="927" y="5"/><text fill="#000000" font-family="sans-serif" font-size="14" font-style="italic" lengthAdjust="spacing" textLength="114" x="981" y="26.5332">&#171;Domain Service&#187;</text><text fill="#000000" font-family="sans-serif" font-size="14" lengthAdjust="spacing" textLength="208" x="934" y="44.1426">MedicalRecordNumberGenerator</text><rect fill="#E2E2F0" height="49.2188" rx="2.5" ry="2.5" style="stroke:#181818;stroke-width:0.5;" width="222" x="927" y="762.6328"/><text fill="#000000" font-family="sans-serif" font-size="14" font-style="italic" lengthAdjust="spacing" textLength="114" x="981" y="784.166">&#171;Domain Service&#187;</text><text fill="#000000" font-family="sans-serif" font-size="14" lengthAdjust="spacing" textLength="208" x="934" y="801.7754">MedicalRecordNumberGenerator</text><rect fill="#E2E2F0" height="49.2188" rx="2.5" ry="2.5" style="stroke:#181818;stroke-width:0.5;" width="128" x="1159" y="5"/><text fill="#000000" font-family="sans-serif" font-size="14" font-style="italic" lengthAdjust="spacing" textLength="114" x="1166" y="26.5332">&#171;Domain Service&#187;</text><text fill="#000000" font-family="sans-serif" font-size="14" lengthAdjust="spacing" textLength="48" x="1199" y="44.1426">Mapper</text><rect fill="#E2E2F0" height="49.2188" rx="2.5" ry="2.5" style="stroke:#181818;stroke-width:0.5;" width="128" x="1159" y="762.6328"/><text fill="#000000" font-family="sans-serif" font-size="14" font-style="italic" lengthAdjust="spacing" textLength="114" x="1166" y="784.166">&#171;Domain Service&#187;</text><text fill="#000000" font-family="sans-serif" font-size="14" lengthAdjust="spacing" textLength="48" x="1199" y="801.7754">Mapper</text><rect fill="#E2E2F0" height="49.2188" rx="2.5" ry="2.5" style="stroke:#181818;stroke-width:0.5;" width="80" x="1297" y="762.6328"/><text fill="#000000" font-family="sans-serif" font-size="14" font-style="italic" lengthAdjust="spacing" textLength="64" x="1305" y="784.166">&#171;Domain&#187;</text><text fill="#000000" font-family="sans-serif" font-size="14" lengthAdjust="spacing" textLength="66" x="1304" y="801.7754">Aggregate</text><rect fill="#FFFFFF" height="689.4141" style="stroke:#181818;stroke-width:1.0;" width="10" x="62" y="65.2188"/><rect fill="#FFFFFF" height="658.0625" style="stroke:#181818;stroke-width:1.0;" width="10" x="209" y="87.5703"/><rect fill="#FFFFFF" height="597.3594" style="stroke:#181818;stroke-width:1.0;" width="10" x="299" y="117.9219"/><rect fill="#FFFFFF" height="476.4375" style="stroke:#181818;stroke-width:1.0;" width="10" x="586" y="208.4922"/><rect fill="#FFFFFF" height="41.3516" style="stroke:#181818;stroke-width:1.0;" width="10" x="591" y="246.8438"/><rect fill="#FFFFFF" height="41.3516" style="stroke:#181818;stroke-width:1.0;" width="10" x="591" y="333.5469"/><rect fill="#FFFFFF" height="30.3516" style="stroke:#181818;stroke-width:1.0;" width="10" x="863" y="412.25"/><rect fill="#FFFFFF" height="30.3516" style="stroke:#181818;stroke-width:1.0;" width="10" x="1033" y="472.9531"/><rect fill="#FFFFFF" height="30.3516" style="stroke:#181818;stroke-width:1.0;" width="10" x="1218" y="624.2266"/><polygon fill="#181818" points="197,83.5703,207,87.5703,197,91.5703,201,87.5703" style="stroke:#181818;stroke-width:1.0;"/><line style="stroke:#181818;stroke-width:1.0;" x1="72" x2="203" y1="87.5703" y2="87.5703"/><text fill="#000000" font-family="sans-serif" font-size="13" lengthAdjust="spacing" textLength="118" x="79" y="82.7139">POST (/api/patients)</text><polygon fill="#181818" points="287,113.9219,297,117.9219,287,121.9219,291,117.9219" style="stroke:#181818;stroke-width:1.0;"/><line style="stroke:#181818;stroke-width:1.0;" x1="219" x2="293" y1="117.9219" y2="117.9219"/><text fill="#000000" font-family="sans-serif" font-size="13" lengthAdjust="spacing" textLength="35" x="226" y="113.0654">POST</text><polygon fill="#181818" points="471,144.2734,481,148.2734,471,152.2734,475,148.2734" style="stroke:#181818;stroke-width:1.0;"/><line style="stroke:#181818;stroke-width:1.0;" x1="309" x2="477" y1="148.2734" y2="148.2734"/><text fill="#000000" font-family="sans-serif" font-size="13" lengthAdjust="spacing" textLength="150" x="316" y="143.417">recieves request body info</text><rect fill="#E2E2F0" height="49.2188" rx="2.5" ry="2.5" style="stroke:#181818;stroke-width:0.5;" width="60" x="483" y="125.9219"/><text fill="#000000" font-family="sans-serif" font-size="14" font-style="italic" lengthAdjust="spacing" textLength="46" x="490" y="147.4551">&#171;DTO&#187;</text><text fill="#000000" font-family="sans-serif" font-size="14" lengthAdjust="spacing" textLength="30" x="498" y="165.0645">DTO</text><polygon fill="#181818" points="574,204.4922,584,208.4922,574,212.4922,578,208.4922" style="stroke:#181818;stroke-width:1.0;"/><line style="stroke:#181818;stroke-width:1.0;" x1="309" x2="580" y1="208.4922" y2="208.4922"/><text fill="#000000" font-family="sans-serif" font-size="13" lengthAdjust="spacing" textLength="86" x="316" y="203.6357">creates patient</text><line style="stroke:#181818;stroke-width:1.0;" x1="596" x2="643" y1="233.8438" y2="233.8438"/><line style="stroke:#181818;stroke-width:1.0;" x1="643" x2="643" y1="233.8438" y2="246.8438"/><line style="stroke:#181818;stroke-width:1.0;" x1="602" x2="643" y1="246.8438" y2="246.8438"/><polygon fill="#181818" points="612,242.8438,602,246.8438,612,250.8438,608,246.8438" style="stroke:#181818;stroke-width:1.0;"/><text fill="#000000" font-family="sans-serif" font-size="13" lengthAdjust="spacing" textLength="144" x="608" y="228.9873">validate if email is unique</text><line style="stroke:#181818;stroke-width:1.0;stroke-dasharray:2.0,2.0;" x1="601" x2="643" y1="287.1953" y2="287.1953"/><line style="stroke:#181818;stroke-width:1.0;stroke-dasharray:2.0,2.0;" x1="643" x2="643" y1="287.1953" y2="300.1953"/><line style="stroke:#181818;stroke-width:1.0;stroke-dasharray:2.0,2.0;" x1="596" x2="643" y1="300.1953" y2="300.1953"/><polygon fill="#181818" points="606,296.1953,596,300.1953,606,304.1953,602,300.1953" style="stroke:#181818;stroke-width:1.0;"/><text fill="#000000" font-family="sans-serif" font-size="13" lengthAdjust="spacing" textLength="53" x="608" y="282.3389">validation</text><line style="stroke:#181818;stroke-width:1.0;" x1="596" x2="643" y1="320.5469" y2="320.5469"/><line style="stroke:#181818;stroke-width:1.0;" x1="643" x2="643" y1="320.5469" y2="333.5469"/><line style="stroke:#181818;stroke-width:1.0;" x1="602" x2="643" y1="333.5469" y2="333.5469"/><polygon fill="#181818" points="612,329.5469,602,333.5469,612,337.5469,608,333.5469" style="stroke:#181818;stroke-width:1.0;"/><text fill="#000000" font-family="sans-serif" font-size="13" lengthAdjust="spacing" textLength="202" x="608" y="315.6904">validates if phone number is unique</text><line style="stroke:#181818;stroke-width:1.0;stroke-dasharray:2.0,2.0;" x1="601" x2="643" y1="373.8984" y2="373.8984"/><line style="stroke:#181818;stroke-width:1.0;stroke-dasharray:2.0,2.0;" x1="643" x2="643" y1="373.8984" y2="386.8984"/><line style="stroke:#181818;stroke-width:1.0;stroke-dasharray:2.0,2.0;" x1="596" x2="643" y1="386.8984" y2="386.8984"/><polygon fill="#181818" points="606,382.8984,596,386.8984,606,390.8984,602,386.8984" style="stroke:#181818;stroke-width:1.0;"/><text fill="#000000" font-family="sans-serif" font-size="13" lengthAdjust="spacing" textLength="53" x="608" y="369.042">validation</text><polygon fill="#181818" points="851,408.25,861,412.25,851,416.25,855,412.25" style="stroke:#181818;stroke-width:1.0;"/><line style="stroke:#181818;stroke-width:1.0;" x1="596" x2="857" y1="412.25" y2="412.25"/><text fill="#000000" font-family="sans-serif" font-size="13" lengthAdjust="spacing" textLength="248" x="603" y="407.3936">get the last patient registered in this month</text><polygon fill="#181818" points="607,438.6016,597,442.6016,607,446.6016,603,442.6016" style="stroke:#181818;stroke-width:1.0;"/><line style="stroke:#181818;stroke-width:1.0;stroke-dasharray:2.0,2.0;" x1="601" x2="867" y1="442.6016" y2="442.6016"/><text fill="#000000" font-family="sans-serif" font-size="13" lengthAdjust="spacing" textLength="179" x="613" y="437.7451">last patient registered in month</text><polygon fill="#181818" points="1021,468.9531,1031,472.9531,1021,476.9531,1025,472.9531" style="stroke:#181818;stroke-width:1.0;"/><line style="stroke:#181818;stroke-width:1.0;" x1="596" x2="1027" y1="472.9531" y2="472.9531"/><text fill="#000000" font-family="sans-serif" font-size="13" lengthAdjust="spacing" textLength="318" x="603" y="468.0967">generates medical record number using the last patient</text><polygon fill="#181818" points="607,499.3047,597,503.3047,607,507.3047,603,503.3047" style="stroke:#181818;stroke-width:1.0;"/><line style="stroke:#181818;stroke-width:1.0;stroke-dasharray:2.0,2.0;" x1="601" x2="1037" y1="503.3047" y2="503.3047"/><text fill="#000000" font-family="sans-serif" font-size="13" lengthAdjust="spacing" textLength="132" x="613" y="498.4482">medical record number</text><polygon fill="#181818" points="1285,529.6563,1295,533.6563,1285,537.6563,1289,533.6563" style="stroke:#181818;stroke-width:1.0;"/><line style="stroke:#181818;stroke-width:1.0;" x1="596" x2="1291" y1="533.6563" y2="533.6563"/><text fill="#000000" font-family="sans-serif" font-size="13" lengthAdjust="spacing" textLength="101" x="603" y="528.7998">creates the entity</text><rect fill="#E2E2F0" height="49.2188" rx="2.5" ry="2.5" style="stroke:#181818;stroke-width:0.5;" width="80" x="1297" y="511.3047"/><text fill="#000000" font-family="sans-serif" font-size="14" font-style="italic" lengthAdjust="spacing" textLength="64" x="1305" y="532.8379">&#171;Domain&#187;</text><text fill="#000000" font-family="sans-serif" font-size="14" lengthAdjust="spacing" textLength="66" x="1304" y="550.4473">Aggregate</text><polygon fill="#181818" points="856,589.875,866,593.875,856,597.875,860,593.875" style="stroke:#181818;stroke-width:1.0;"/><line style="stroke:#181818;stroke-width:1.0;" x1="596" x2="862" y1="593.875" y2="593.875"/><text fill="#000000" font-family="sans-serif" font-size="13" lengthAdjust="spacing" textLength="106" x="603" y="589.0186">saves in Database</text><polygon fill="#181818" points="1206,620.2266,1216,624.2266,1206,628.2266,1210,624.2266" style="stroke:#181818;stroke-width:1.0;"/><line style="stroke:#181818;stroke-width:1.0;" x1="596" x2="1212" y1="624.2266" y2="624.2266"/><text fill="#000000" font-family="sans-serif" font-size="13" lengthAdjust="spacing" textLength="77" x="603" y="619.3701">entity to DTO</text><polygon fill="#181818" points="607,650.5781,597,654.5781,607,658.5781,603,654.5781" style="stroke:#181818;stroke-width:1.0;"/><line style="stroke:#181818;stroke-width:1.0;stroke-dasharray:2.0,2.0;" x1="601" x2="1222" y1="654.5781" y2="654.5781"/><text fill="#000000" font-family="sans-serif" font-size="13" lengthAdjust="spacing" textLength="26" x="613" y="649.7217">DTO</text><polygon fill="#181818" points="320,680.9297,310,684.9297,320,688.9297,316,684.9297" style="stroke:#181818;stroke-width:1.0;"/><line style="stroke:#181818;stroke-width:1.0;stroke-dasharray:2.0,2.0;" x1="314" x2="590" y1="684.9297" y2="684.9297"/><text fill="#000000" font-family="sans-serif" font-size="13" lengthAdjust="spacing" textLength="26" x="326" y="680.0732">DTO</text><polygon fill="#181818" points="230,711.2813,220,715.2813,230,719.2813,226,715.2813" style="stroke:#181818;stroke-width:1.0;"/><line style="stroke:#181818;stroke-width:1.0;stroke-dasharray:2.0,2.0;" x1="224" x2="303" y1="715.2813" y2="715.2813"/><text fill="#000000" font-family="sans-serif" font-size="13" lengthAdjust="spacing" textLength="53" x="236" y="710.4248">response</text><polygon fill="#181818" points="83,741.6328,73,745.6328,83,749.6328,79,745.6328" style="stroke:#181818;stroke-width:1.0;"/><line style="stroke:#181818;stroke-width:1.0;stroke-dasharray:2.0,2.0;" x1="77" x2="213" y1="745.6328" y2="745.6328"/><text fill="#000000" font-family="sans-serif" font-size="13" lengthAdjust="spacing" textLength="53" x="89" y="740.7764">response</text><!--SRC=[dLDDJyCm3BttL_W8I8WBfwcQX43YD42CF-2rfhFK9I599-tVuoGD3HqKYKjZoy_FpnyrQ3qtR51vsBxS0RhurFMzLXvPaOMB-zlBzReo1V9L3vu2DXbr7TyPA31OtVT28SZ2I-J9cUKyl3q7S7ZgMhwpy9RiaPjOEPjrFLfpYMIqOw_jAUgSF17xvSnoDjHoW_qhDTgsJyDXH_QHP0GesC2o61Uz-Y0JWv_rRD2OD8dH-WD_rtMMEanZ7f4vHQ3OU3w6g6oh2XkxNgTbhE3bUVi65pTe-CQWPrBUNKxu2AhItYIdM4lAd91Jg2fGaYDxkReIkAM6wKXEZ8-1d8UTRa_0wbtF4lAkLj1O4ce7ex2YZGIfClHRrX5xRWEAtu5a03smWq6nL3rdiEG7gt8EQxNCwGAfsMj5eE96_yrTtDWAElBWzmGzobp6RcLE7JjFbbgPaeIbqa46jI-syyMHQoqGfDn2mU9z1atHbfOF2HWsACZS-E1OTMUg9t5Bz5dkZyobndJ1yNxoCOIAKeZzwTTnEWnt9Zq_eCSTkc-7ClvGgv44l0udMkYEyQmmXCvDIyvevUZC_mG0]--></g></svg>