<?xml version="1.0" encoding="us-ascii" standalone="no"?><svg xmlns="http://www.w3.org/2000/svg" xmlns:xlink="http://www.w3.org/1999/xlink" contentStyleType="text/css" height="1032px" preserveAspectRatio="none" style="width:2731px;height:1032px;background:#FFFFFF;" version="1.1" viewBox="0 0 2731 1032" width="2731px" zoomAndPan="magnify"><defs/><g><rect fill="#FFFFFF" height="881.5234" style="stroke:#181818;stroke-width:1.0;" width="10" x="214" y="87.5703"/><rect fill="#FFFFFF" height="811.8203" style="stroke:#181818;stroke-width:1.0;" width="10" x="317" y="117.9219"/><rect fill="#FFFFFF" height="690.8984" style="stroke:#181818;stroke-width:1.0;" width="10" x="1428" y="208.4922"/><rect fill="#FFFFFF" height="41.3516" style="stroke:#181818;stroke-width:1.0;" width="10" x="1433" y="368.25"/><rect fill="#FFFFFF" height="41.3516" style="stroke:#181818;stroke-width:1.0;" width="10" x="1433" y="454.9531"/><rect fill="#FFFFFF" height="30.3516" style="stroke:#181818;stroke-width:1.0;" width="10" x="1915.5" y="619.7109"/><rect fill="#FFFFFF" height="30.3516" style="stroke:#181818;stroke-width:1.0;" width="10" x="2124" y="238.8438"/><rect fill="#FFFFFF" height="30.3516" style="stroke:#181818;stroke-width:1.0;" width="10" x="2252.5" y="299.5469"/><rect fill="#FFFFFF" height="30.3516" style="stroke:#181818;stroke-width:1.0;" width="10" x="2667.5" y="778.4688"/><rect fill="none" height="170.1094" style="stroke:#000000;stroke-width:1.5;" width="1153.5" x="1378" y="579.0078"/><line style="stroke:#181818;stroke-width:0.5;stroke-dasharray:5.0,5.0;" x1="218.5" x2="218.5" y1="55.2188" y2="978.0938"/><line style="stroke:#181818;stroke-width:0.5;stroke-dasharray:5.0,5.0;" x1="321.5" x2="321.5" y1="55.2188" y2="978.0938"/><line style="stroke:#181818;stroke-width:0.5;stroke-dasharray:5.0,5.0;" x1="566" x2="566" y1="166.0313" y2="978.0938"/><line style="stroke:#181818;stroke-width:0.5;stroke-dasharray:5.0,5.0;" x1="747" x2="747" y1="856.9297" y2="978.0938"/><line style="stroke:#181818;stroke-width:0.5;stroke-dasharray:5.0,5.0;" x1="1433" x2="1433" y1="55.2188" y2="978.0938"/><line style="stroke:#181818;stroke-width:0.5;stroke-dasharray:5.0,5.0;" x1="1719.5" x2="1719.5" y1="55.2188" y2="978.0938"/><line style="stroke:#181818;stroke-width:0.5;stroke-dasharray:5.0,5.0;" x1="1920.5" x2="1920.5" y1="55.2188" y2="978.0938"/><line style="stroke:#181818;stroke-width:0.5;stroke-dasharray:5.0,5.0;" x1="2128.5" x2="2128.5" y1="55.2188" y2="978.0938"/><line style="stroke:#181818;stroke-width:0.5;stroke-dasharray:5.0,5.0;" x1="2257.5" x2="2257.5" y1="55.2188" y2="978.0938"/><line style="stroke:#181818;stroke-width:0.5;stroke-dasharray:5.0,5.0;" x1="2381.5" x2="2381.5" y1="55.2188" y2="978.0938"/><line style="stroke:#181818;stroke-width:0.5;stroke-dasharray:5.0,5.0;" x1="2482.5" x2="2482.5" y1="55.2188" y2="978.0938"/><line style="stroke:#181818;stroke-width:0.5;stroke-dasharray:5.0,5.0;" x1="2570.5" x2="2570.5" y1="55.2188" y2="978.0938"/><line style="stroke:#181818;stroke-width:0.5;stroke-dasharray:5.0,5.0;" x1="2672.5" x2="2672.5" y1="55.2188" y2="978.0938"/><rect fill="#E2E2F0" height="49.2188" rx="2.5" ry="2.5" style="stroke:#181818;stroke-width:0.5;" width="81" x="178.5" y="5"/><text fill="#000000" font-family="sans-serif" font-size="14" font-style="italic" lengthAdjust="spacing" textLength="54" x="192" y="26.5332">&#171;Route&#187;</text><text fill="#000000" font-family="sans-serif" font-size="14" lengthAdjust="spacing" textLength="67" x="185.5" y="44.1426">UserRoute</text><rect fill="#E2E2F0" height="49.2188" rx="2.5" ry="2.5" style="stroke:#181818;stroke-width:0.5;" width="81" x="178.5" y="977.0938"/><text fill="#000000" font-family="sans-serif" font-size="14" font-style="italic" lengthAdjust="spacing" textLength="54" x="192" y="998.627">&#171;Route&#187;</text><text fill="#000000" font-family="sans-serif" font-size="14" lengthAdjust="spacing" textLength="67" x="185.5" y="1016.2363">UserRoute</text><rect fill="#E2E2F0" height="49.2188" rx="2.5" ry="2.5" style="stroke:#181818;stroke-width:0.5;" width="105" x="269.5" y="5"/><text fill="#000000" font-family="sans-serif" font-size="14" font-style="italic" lengthAdjust="spacing" textLength="78" x="283" y="26.5332">&#171;Controller&#187;</text><text fill="#000000" font-family="sans-serif" font-size="14" lengthAdjust="spacing" textLength="91" x="276.5" y="44.1426">UserController</text><rect fill="#E2E2F0" height="49.2188" rx="2.5" ry="2.5" style="stroke:#181818;stroke-width:0.5;" width="105" x="269.5" y="977.0938"/><text fill="#000000" font-family="sans-serif" font-size="14" font-style="italic" lengthAdjust="spacing" textLength="78" x="283" y="998.627">&#171;Controller&#187;</text><text fill="#000000" font-family="sans-serif" font-size="14" lengthAdjust="spacing" textLength="91" x="276.5" y="1016.2363">UserController</text><rect fill="#E2E2F0" height="49.2188" rx="2.5" ry="2.5" style="stroke:#181818;stroke-width:0.5;" width="131" x="501" y="977.0938"/><text fill="#000000" font-family="sans-serif" font-size="14" font-style="italic" lengthAdjust="spacing" textLength="46" x="543.5" y="998.627">&#171;DTO&#187;</text><text fill="#000000" font-family="sans-serif" font-size="14" lengthAdjust="spacing" textLength="117" x="508" y="1016.2363">EditingPatientDTO</text><rect fill="#E2E2F0" height="49.2188" rx="2.5" ry="2.5" style="stroke:#181818;stroke-width:0.5;" width="211" x="642" y="977.0938"/><text fill="#000000" font-family="sans-serif" font-size="14" font-style="italic" lengthAdjust="spacing" textLength="46" x="724.5" y="998.627">&#171;DTO&#187;</text><text fill="#000000" font-family="sans-serif" font-size="14" lengthAdjust="spacing" textLength="197" x="649" y="1016.2363">ConfirmationEditingPatientDTO</text><rect fill="#E2E2F0" height="49.2188" rx="2.5" ry="2.5" style="stroke:#181818;stroke-width:0.5;" width="90" x="1388" y="5"/><text fill="#000000" font-family="sans-serif" font-size="14" font-style="italic" lengthAdjust="spacing" textLength="62" x="1402" y="26.5332">&#171;Service&#187;</text><text fill="#000000" font-family="sans-serif" font-size="14" lengthAdjust="spacing" textLength="76" x="1395" y="44.1426">UserService</text><rect fill="#E2E2F0" height="49.2188" rx="2.5" ry="2.5" style="stroke:#181818;stroke-width:0.5;" width="90" x="1388" y="977.0938"/><text fill="#000000" font-family="sans-serif" font-size="14" font-style="italic" lengthAdjust="spacing" textLength="62" x="1402" y="998.627">&#171;Service&#187;</text><text fill="#000000" font-family="sans-serif" font-size="14" lengthAdjust="spacing" textLength="76" x="1395" y="1016.2363">UserService</text><rect fill="#E2E2F0" height="49.2188" rx="2.5" ry="2.5" style="stroke:#181818;stroke-width:0.5;" width="95" x="1672.5" y="5"/><text fill="#000000" font-family="sans-serif" font-size="14" font-style="italic" lengthAdjust="spacing" textLength="62" x="1689" y="26.5332">&#171;Service&#187;</text><text fill="#000000" font-family="sans-serif" font-size="14" lengthAdjust="spacing" textLength="81" x="1679.5" y="44.1426">EmailService</text><rect fill="#E2E2F0" height="49.2188" rx="2.5" ry="2.5" style="stroke:#181818;stroke-width:0.5;" width="95" x="1672.5" y="977.0938"/><text fill="#000000" font-family="sans-serif" font-size="14" font-style="italic" lengthAdjust="spacing" textLength="62" x="1689" y="998.627">&#171;Service&#187;</text><text fill="#000000" font-family="sans-serif" font-size="14" lengthAdjust="spacing" textLength="81" x="1679.5" y="1016.2363">EmailService</text><rect fill="#E2E2F0" height="49.2188" rx="2.5" ry="2.5" style="stroke:#181818;stroke-width:0.5;" width="286" x="1777.5" y="5"/><text fill="#000000" font-family="sans-serif" font-size="14" font-style="italic" lengthAdjust="spacing" textLength="62" x="1889.5" y="26.5332">&#171;Service&#187;</text><text fill="#000000" font-family="sans-serif" font-size="14" lengthAdjust="spacing" textLength="272" x="1784.5" y="44.1426">ConfirmationEditingPatientTokenGenerator</text><rect fill="#E2E2F0" height="49.2188" rx="2.5" ry="2.5" style="stroke:#181818;stroke-width:0.5;" width="286" x="1777.5" y="977.0938"/><text fill="#000000" font-family="sans-serif" font-size="14" font-style="italic" lengthAdjust="spacing" textLength="62" x="1889.5" y="998.627">&#171;Service&#187;</text><text fill="#000000" font-family="sans-serif" font-size="14" lengthAdjust="spacing" textLength="272" x="1784.5" y="1016.2363">ConfirmationEditingPatientTokenGenerator</text><rect fill="#E2E2F0" height="49.2188" rx="2.5" ry="2.5" style="stroke:#181818;stroke-width:0.5;" width="111" x="2073.5" y="5"/><text fill="#000000" font-family="sans-serif" font-size="14" font-style="italic" lengthAdjust="spacing" textLength="84" x="2087" y="26.5332">&#171;Repository&#187;</text><text fill="#000000" font-family="sans-serif" font-size="14" lengthAdjust="spacing" textLength="97" x="2080.5" y="44.1426">UserRepository</text><rect fill="#E2E2F0" height="49.2188" rx="2.5" ry="2.5" style="stroke:#181818;stroke-width:0.5;" width="111" x="2073.5" y="977.0938"/><text fill="#000000" font-family="sans-serif" font-size="14" font-style="italic" lengthAdjust="spacing" textLength="84" x="2087" y="998.627">&#171;Repository&#187;</text><text fill="#000000" font-family="sans-serif" font-size="14" lengthAdjust="spacing" textLength="97" x="2080.5" y="1016.2363">UserRepository</text><rect fill="#E2E2F0" height="49.2188" rx="2.5" ry="2.5" style="stroke:#181818;stroke-width:0.5;" width="126" x="2194.5" y="5"/><text fill="#000000" font-family="sans-serif" font-size="14" font-style="italic" lengthAdjust="spacing" textLength="84" x="2215.5" y="26.5332">&#171;Repository&#187;</text><text fill="#000000" font-family="sans-serif" font-size="14" lengthAdjust="spacing" textLength="112" x="2201.5" y="44.1426">PatientRepository</text><rect fill="#E2E2F0" height="49.2188" rx="2.5" ry="2.5" style="stroke:#181818;stroke-width:0.5;" width="126" x="2194.5" y="977.0938"/><text fill="#000000" font-family="sans-serif" font-size="14" font-style="italic" lengthAdjust="spacing" textLength="84" x="2215.5" y="998.627">&#171;Repository&#187;</text><text fill="#000000" font-family="sans-serif" font-size="14" lengthAdjust="spacing" textLength="112" x="2201.5" y="1016.2363">PatientRepository</text><rect fill="#E2E2F0" height="49.2188" rx="2.5" ry="2.5" style="stroke:#181818;stroke-width:0.5;" width="103" x="2330.5" y="5"/><text fill="#000000" font-family="sans-serif" font-size="14" font-style="italic" lengthAdjust="spacing" textLength="64" x="2350" y="26.5332">&#171;Domain&#187;</text><text fill="#000000" font-family="sans-serif" font-size="14" lengthAdjust="spacing" textLength="89" x="2337.5" y="44.1426">PatientLogger</text><rect fill="#E2E2F0" height="49.2188" rx="2.5" ry="2.5" style="stroke:#181818;stroke-width:0.5;" width="103" x="2330.5" y="977.0938"/><text fill="#000000" font-family="sans-serif" font-size="14" font-style="italic" lengthAdjust="spacing" textLength="64" x="2350" y="998.627">&#171;Domain&#187;</text><text fill="#000000" font-family="sans-serif" font-size="14" lengthAdjust="spacing" textLength="89" x="2337.5" y="1016.2363">PatientLogger</text><rect fill="#E2E2F0" height="49.2188" rx="2.5" ry="2.5" style="stroke:#181818;stroke-width:0.5;" width="78" x="2443.5" y="5"/><text fill="#000000" font-family="sans-serif" font-size="14" font-style="italic" lengthAdjust="spacing" textLength="64" x="2450.5" y="26.5332">&#171;Domain&#187;</text><text fill="#000000" font-family="sans-serif" font-size="14" lengthAdjust="spacing" textLength="29" x="2468" y="44.1426">User</text><rect fill="#E2E2F0" height="49.2188" rx="2.5" ry="2.5" style="stroke:#181818;stroke-width:0.5;" width="78" x="2443.5" y="977.0938"/><text fill="#000000" font-family="sans-serif" font-size="14" font-style="italic" lengthAdjust="spacing" textLength="64" x="2450.5" y="998.627">&#171;Domain&#187;</text><text fill="#000000" font-family="sans-serif" font-size="14" lengthAdjust="spacing" textLength="29" x="2468" y="1016.2363">User</text><rect fill="#E2E2F0" height="49.2188" rx="2.5" ry="2.5" style="stroke:#181818;stroke-width:0.5;" width="78" x="2531.5" y="5"/><text fill="#000000" font-family="sans-serif" font-size="14" font-style="italic" lengthAdjust="spacing" textLength="64" x="2538.5" y="26.5332">&#171;Domain&#187;</text><text fill="#000000" font-family="sans-serif" font-size="14" lengthAdjust="spacing" textLength="44" x="2548.5" y="44.1426">Patient</text><rect fill="#E2E2F0" height="49.2188" rx="2.5" ry="2.5" style="stroke:#181818;stroke-width:0.5;" width="78" x="2531.5" y="977.0938"/><text fill="#000000" font-family="sans-serif" font-size="14" font-style="italic" lengthAdjust="spacing" textLength="64" x="2538.5" y="998.627">&#171;Domain&#187;</text><text fill="#000000" font-family="sans-serif" font-size="14" lengthAdjust="spacing" textLength="44" x="2548.5" y="1016.2363">Patient</text><rect fill="#E2E2F0" height="49.2188" rx="2.5" ry="2.5" style="stroke:#181818;stroke-width:0.5;" width="106" x="2619.5" y="5"/><text fill="#000000" font-family="sans-serif" font-size="14" font-style="italic" lengthAdjust="spacing" textLength="65" x="2640" y="26.5332">&#171;Mapper&#187;</text><text fill="#000000" font-family="sans-serif" font-size="14" lengthAdjust="spacing" textLength="92" x="2626.5" y="44.1426">PatientMapper</text><rect fill="#E2E2F0" height="49.2188" rx="2.5" ry="2.5" style="stroke:#181818;stroke-width:0.5;" width="106" x="2619.5" y="977.0938"/><text fill="#000000" font-family="sans-serif" font-size="14" font-style="italic" lengthAdjust="spacing" textLength="65" x="2640" y="998.627">&#171;Mapper&#187;</text><text fill="#000000" font-family="sans-serif" font-size="14" lengthAdjust="spacing" textLength="92" x="2626.5" y="1016.2363">PatientMapper</text><rect fill="#FFFFFF" height="881.5234" style="stroke:#181818;stroke-width:1.0;" width="10" x="214" y="87.5703"/><rect fill="#FFFFFF" height="811.8203" style="stroke:#181818;stroke-width:1.0;" width="10" x="317" y="117.9219"/><rect fill="#FFFFFF" height="690.8984" style="stroke:#181818;stroke-width:1.0;" width="10" x="1428" y="208.4922"/><rect fill="#FFFFFF" height="41.3516" style="stroke:#181818;stroke-width:1.0;" width="10" x="1433" y="368.25"/><rect fill="#FFFFFF" height="41.3516" style="stroke:#181818;stroke-width:1.0;" width="10" x="1433" y="454.9531"/><rect fill="#FFFFFF" height="30.3516" style="stroke:#181818;stroke-width:1.0;" width="10" x="1915.5" y="619.7109"/><rect fill="#FFFFFF" height="30.3516" style="stroke:#181818;stroke-width:1.0;" width="10" x="2124" y="238.8438"/><rect fill="#FFFFFF" height="30.3516" style="stroke:#181818;stroke-width:1.0;" width="10" x="2252.5" y="299.5469"/><rect fill="#FFFFFF" height="30.3516" style="stroke:#181818;stroke-width:1.0;" width="10" x="2667.5" y="778.4688"/><ellipse cx="7.5" cy="86.8203" fill="none" rx="4" ry="4" style="stroke:#181818;stroke-width:1.5;"/><polygon fill="#181818" points="202,83.5703,212,87.5703,202,91.5703,206,87.5703" style="stroke:#181818;stroke-width:1.0;"/><line style="stroke:#181818;stroke-width:1.0;" x1="12" x2="208" y1="87.5703" y2="87.5703"/><text fill="#000000" font-family="sans-serif" font-size="13" lengthAdjust="spacing" textLength="187" x="15" y="82.7139">PATCH (/api/users/patients/edit)</text><polygon fill="#181818" points="305,113.9219,315,117.9219,305,121.9219,309,117.9219" style="stroke:#181818;stroke-width:1.0;"/><line style="stroke:#181818;stroke-width:1.0;" x1="224" x2="311" y1="117.9219" y2="117.9219"/><text fill="#000000" font-family="sans-serif" font-size="13" lengthAdjust="spacing" textLength="43" x="231" y="113.0654">PATCH</text><polygon fill="#181818" points="489,144.2734,499,148.2734,489,152.2734,493,148.2734" style="stroke:#181818;stroke-width:1.0;"/><line style="stroke:#181818;stroke-width:1.0;" x1="327" x2="495" y1="148.2734" y2="148.2734"/><text fill="#000000" font-family="sans-serif" font-size="13" lengthAdjust="spacing" textLength="150" x="334" y="143.417">recieves request body info</text><rect fill="#E2E2F0" height="49.2188" rx="2.5" ry="2.5" style="stroke:#181818;stroke-width:0.5;" width="131" x="501" y="125.9219"/><text fill="#000000" font-family="sans-serif" font-size="14" font-style="italic" lengthAdjust="spacing" textLength="46" x="543.5" y="147.4551">&#171;DTO&#187;</text><text fill="#000000" font-family="sans-serif" font-size="14" lengthAdjust="spacing" textLength="117" x="508" y="165.0645">EditingPatientDTO</text><polygon fill="#181818" points="1416,204.4922,1426,208.4922,1416,212.4922,1420,208.4922" style="stroke:#181818;stroke-width:1.0;"/><line style="stroke:#181818;stroke-width:1.0;" x1="327" x2="1422" y1="208.4922" y2="208.4922"/><text fill="#000000" font-family="sans-serif" font-size="13" lengthAdjust="spacing" textLength="177" x="334" y="203.6357">editPatient(EditingPatientDTO)</text><polygon fill="#181818" points="2112,234.8438,2122,238.8438,2112,242.8438,2116,238.8438" style="stroke:#181818;stroke-width:1.0;"/><line style="stroke:#181818;stroke-width:1.0;" x1="1438" x2="2118" y1="238.8438" y2="238.8438"/><text fill="#000000" font-family="sans-serif" font-size="13" lengthAdjust="spacing" textLength="135" x="1445" y="233.9873">findUserByEmail(email)</text><polygon fill="#181818" points="1449,265.1953,1439,269.1953,1449,273.1953,1445,269.1953" style="stroke:#181818;stroke-width:1.0;"/><line style="stroke:#181818;stroke-width:1.0;stroke-dasharray:2.0,2.0;" x1="1443" x2="2128" y1="269.1953" y2="269.1953"/><text fill="#000000" font-family="sans-serif" font-size="13" lengthAdjust="spacing" textLength="25" x="1455" y="264.3389">user</text><polygon fill="#181818" points="2240.5,295.5469,2250.5,299.5469,2240.5,303.5469,2244.5,299.5469" style="stroke:#181818;stroke-width:1.0;"/><line style="stroke:#181818;stroke-width:1.0;" x1="1438" x2="2246.5" y1="299.5469" y2="299.5469"/><text fill="#000000" font-family="sans-serif" font-size="13" lengthAdjust="spacing" textLength="149" x="1445" y="294.6904">findPatientByEmail(email)</text><polygon fill="#181818" points="1449,325.8984,1439,329.8984,1449,333.8984,1445,329.8984" style="stroke:#181818;stroke-width:1.0;"/><line style="stroke:#181818;stroke-width:1.0;stroke-dasharray:2.0,2.0;" x1="1443" x2="2256.5" y1="329.8984" y2="329.8984"/><text fill="#000000" font-family="sans-serif" font-size="13" lengthAdjust="spacing" textLength="39" x="1455" y="325.042">patient</text><line style="stroke:#181818;stroke-width:1.0;" x1="1438" x2="1485" y1="355.25" y2="355.25"/><line style="stroke:#181818;stroke-width:1.0;" x1="1485" x2="1485" y1="355.25" y2="368.25"/><line style="stroke:#181818;stroke-width:1.0;" x1="1444" x2="1485" y1="368.25" y2="368.25"/><polygon fill="#181818" points="1454,364.25,1444,368.25,1454,372.25,1450,368.25" style="stroke:#181818;stroke-width:1.0;"/><text fill="#000000" font-family="sans-serif" font-size="13" lengthAdjust="spacing" textLength="165" x="1450" y="350.3936">validateEmailIsUnique(email)</text><line style="stroke:#181818;stroke-width:1.0;stroke-dasharray:2.0,2.0;" x1="1443" x2="1485" y1="408.6016" y2="408.6016"/><line style="stroke:#181818;stroke-width:1.0;stroke-dasharray:2.0,2.0;" x1="1485" x2="1485" y1="408.6016" y2="421.6016"/><line style="stroke:#181818;stroke-width:1.0;stroke-dasharray:2.0,2.0;" x1="1438" x2="1485" y1="421.6016" y2="421.6016"/><polygon fill="#181818" points="1448,417.6016,1438,421.6016,1448,425.6016,1444,421.6016" style="stroke:#181818;stroke-width:1.0;"/><text fill="#000000" font-family="sans-serif" font-size="13" lengthAdjust="spacing" textLength="20" x="1450" y="403.7451">flag</text><line style="stroke:#181818;stroke-width:1.0;" x1="1438" x2="1485" y1="441.9531" y2="441.9531"/><line style="stroke:#181818;stroke-width:1.0;" x1="1485" x2="1485" y1="441.9531" y2="454.9531"/><line style="stroke:#181818;stroke-width:1.0;" x1="1444" x2="1485" y1="454.9531" y2="454.9531"/><polygon fill="#181818" points="1454,450.9531,1444,454.9531,1454,458.9531,1450,454.9531" style="stroke:#181818;stroke-width:1.0;"/><text fill="#000000" font-family="sans-serif" font-size="13" lengthAdjust="spacing" textLength="263" x="1450" y="437.0967">validatePhoneNumberIsUnique(phoneNumber)</text><line style="stroke:#181818;stroke-width:1.0;stroke-dasharray:2.0,2.0;" x1="1443" x2="1485" y1="495.3047" y2="495.3047"/><line style="stroke:#181818;stroke-width:1.0;stroke-dasharray:2.0,2.0;" x1="1485" x2="1485" y1="495.3047" y2="508.3047"/><line style="stroke:#181818;stroke-width:1.0;stroke-dasharray:2.0,2.0;" x1="1438" x2="1485" y1="508.3047" y2="508.3047"/><polygon fill="#181818" points="1448,504.3047,1438,508.3047,1448,512.3047,1444,508.3047" style="stroke:#181818;stroke-width:1.0;"/><text fill="#000000" font-family="sans-serif" font-size="13" lengthAdjust="spacing" textLength="20" x="1450" y="490.4482">flag</text><polygon fill="#181818" points="2370,529.6563,2380,533.6563,2370,537.6563,2374,533.6563" style="stroke:#181818;stroke-width:1.0;"/><line style="stroke:#181818;stroke-width:1.0;" x1="1438" x2="2376" y1="533.6563" y2="533.6563"/><text fill="#000000" font-family="sans-serif" font-size="13" lengthAdjust="spacing" textLength="115" x="1445" y="528.7998">logChanges(patient)</text><polygon fill="#181818" points="2558.5,560.0078,2568.5,564.0078,2558.5,568.0078,2562.5,564.0078" style="stroke:#181818;stroke-width:1.0;"/><line style="stroke:#181818;stroke-width:1.0;" x1="1438" x2="2564.5" y1="564.0078" y2="564.0078"/><text fill="#000000" font-family="sans-serif" font-size="13" lengthAdjust="spacing" textLength="137" x="1445" y="559.1514">changeFullName(name)</text><path d="M1378,579.0078 L1439,579.0078 L1439,587.3594 L1429,597.3594 L1378,597.3594 L1378,579.0078 " fill="#EEEEEE" style="stroke:#000000;stroke-width:1.5;"/><rect fill="none" height="170.1094" style="stroke:#000000;stroke-width:1.5;" width="1153.5" x="1378" y="579.0078"/><text fill="#000000" font-family="sans-serif" font-size="13" font-weight="bold" lengthAdjust="spacing" textLength="16" x="1393" y="593.5029">alt</text><text fill="#000000" font-family="sans-serif" font-size="11" font-weight="bold" lengthAdjust="spacing" textLength="202" x="1454" y="592.4268">[information contains sensitive data]</text><polygon fill="#181818" points="1903.5,615.7109,1913.5,619.7109,1903.5,623.7109,1907.5,619.7109" style="stroke:#181818;stroke-width:1.0;"/><line style="stroke:#181818;stroke-width:1.0;" x1="1438" x2="1909.5" y1="619.7109" y2="619.7109"/><text fill="#000000" font-family="sans-serif" font-size="13" lengthAdjust="spacing" textLength="118" x="1445" y="614.8545">generateToken(user)</text><polygon fill="#181818" points="1449,646.0625,1439,650.0625,1449,654.0625,1445,650.0625" style="stroke:#181818;stroke-width:1.0;"/><line style="stroke:#181818;stroke-width:1.0;stroke-dasharray:2.0,2.0;" x1="1443" x2="1919.5" y1="650.0625" y2="650.0625"/><text fill="#000000" font-family="sans-serif" font-size="13" lengthAdjust="spacing" textLength="32" x="1455" y="645.2061">token</text><polygon fill="#181818" points="2470.5,676.4141,2480.5,680.4141,2470.5,684.4141,2474.5,680.4141" style="stroke:#181818;stroke-width:1.0;"/><line style="stroke:#181818;stroke-width:1.0;" x1="1438" x2="2476.5" y1="680.4141" y2="680.4141"/><text fill="#000000" font-family="sans-serif" font-size="13" lengthAdjust="spacing" textLength="354" x="1445" y="675.5576">setConfirmationEditPatientToken(token, tokenExpirationDate)</text><polygon fill="#181818" points="2117,706.7656,2127,710.7656,2117,714.7656,2121,710.7656" style="stroke:#181818;stroke-width:1.0;"/><line style="stroke:#181818;stroke-width:1.0;" x1="1438" x2="2123" y1="710.7656" y2="710.7656"/><text fill="#000000" font-family="sans-serif" font-size="13" lengthAdjust="spacing" textLength="59" x="1445" y="705.9092">save(user)</text><polygon fill="#181818" points="1708,737.1172,1718,741.1172,1708,745.1172,1712,741.1172" style="stroke:#181818;stroke-width:1.0;"/><line style="stroke:#181818;stroke-width:1.0;" x1="1438" x2="1714" y1="741.1172" y2="741.1172"/><text fill="#000000" font-family="sans-serif" font-size="13" lengthAdjust="spacing" textLength="140" x="1445" y="736.2607">sendEmail(email, token)</text><polygon fill="#181818" points="2655.5,774.4688,2665.5,778.4688,2655.5,782.4688,2659.5,778.4688" style="stroke:#181818;stroke-width:1.0;"/><line style="stroke:#181818;stroke-width:1.0;" x1="1438" x2="2661.5" y1="778.4688" y2="778.4688"/><text fill="#000000" font-family="sans-serif" font-size="13" lengthAdjust="spacing" textLength="84" x="1445" y="773.6123">toDTO(patient)</text><polygon fill="#181818" points="1449,804.8203,1439,808.8203,1449,812.8203,1445,808.8203" style="stroke:#181818;stroke-width:1.0;"/><line style="stroke:#181818;stroke-width:1.0;stroke-dasharray:2.0,2.0;" x1="1443" x2="2671.5" y1="808.8203" y2="808.8203"/><text fill="#000000" font-family="sans-serif" font-size="13" lengthAdjust="spacing" textLength="65" x="1455" y="803.9639">patientDTO</text><polygon fill="#181818" points="864,835.1719,854,839.1719,864,843.1719,860,839.1719" style="stroke:#181818;stroke-width:1.0;"/><line style="stroke:#181818;stroke-width:1.0;" x1="858" x2="1427" y1="839.1719" y2="839.1719"/><text fill="#000000" font-family="sans-serif" font-size="13" lengthAdjust="spacing" textLength="551" x="870" y="834.3154">createConfirmationEditPatientDTO(patientDTO, token, email, emailToEdit, phoneNumberToEdit)</text><rect fill="#E2E2F0" height="49.2188" rx="2.5" ry="2.5" style="stroke:#181818;stroke-width:0.5;" width="211" x="642" y="816.8203"/><text fill="#000000" font-family="sans-serif" font-size="14" font-style="italic" lengthAdjust="spacing" textLength="46" x="724.5" y="838.3535">&#171;DTO&#187;</text><text fill="#000000" font-family="sans-serif" font-size="14" lengthAdjust="spacing" textLength="197" x="649" y="855.9629">ConfirmationEditingPatientDTO</text><polygon fill="#181818" points="338,895.3906,328,899.3906,338,903.3906,334,899.3906" style="stroke:#181818;stroke-width:1.0;"/><line style="stroke:#181818;stroke-width:1.0;stroke-dasharray:2.0,2.0;" x1="332" x2="1432" y1="899.3906" y2="899.3906"/><text fill="#000000" font-family="sans-serif" font-size="13" lengthAdjust="spacing" textLength="160" x="344" y="894.5342">confirmationEditPatientDTO</text><polygon fill="#181818" points="235,925.7422,225,929.7422,235,933.7422,231,929.7422" style="stroke:#181818;stroke-width:1.0;"/><line style="stroke:#181818;stroke-width:1.0;stroke-dasharray:2.0,2.0;" x1="229" x2="321" y1="929.7422" y2="929.7422"/><text fill="#000000" font-family="sans-serif" font-size="13" lengthAdjust="spacing" textLength="53" x="241" y="924.8857">response</text><polygon fill="#181818" points="11,956.0938,1,960.0938,11,964.0938,7,960.0938" style="stroke:#181818;stroke-width:1.0;"/><line style="stroke:#181818;stroke-width:1.0;stroke-dasharray:2.0,2.0;" x1="5" x2="213" y1="960.0938" y2="960.0938"/><text fill="#000000" font-family="sans-serif" font-size="13" lengthAdjust="spacing" textLength="53" x="17" y="955.2373">response</text><!--SRC=[ZLLDZziW4BtxLt2qLubojr2aDjssAxNRgCsUUcATYHUj0nImrVpx3X-E2ObtUp43VkynCpnZnRJb3LTCMF9aGF-KlGN230a1fNvShmkL0JTIM2sx3hH39pDAfqd6kzzpoqMxPPQ3i9zsFnpL3PJYCmEZoe7h8sAbk4bC0NCYBjDVe0VU-AB6aD8OvGaU6UyI_CLyZZIVw4w-WlW20ZIpqlSfMvcJz2S1IXgEg9C_Zcc6PtAUPBouxoNrUl5zXM-oRSF9nWYRAx4PuaQY3kN76KoKJ59v1_cTAHLaOqHf213-MoxNmPirsNxORRwISiKKN_MOW5cf861MWETG5QonV61eOqyeWgMHdxXrL9cmqyiYmI4BtNLtXmGD3OS130P_UZ2MFClzYN1na1bXD4vDN3gnkFBAoqcUaL6CJ5VhT6mrEN2nTwt-UFBEBC4zqphFu4A3xRKWhY-ftBKPWcfSdnE-eetwiUFf5bFP0-lu7kbUyy4y2OuDkz8UYuwAXuwrRyjjNwI0n_xu3FeiggQr_vUEtgv99zlD2nCjc38MLDre6W8RZ_hSTzqZEq8fy87RTTOVVxm3I8CkG7CROa1Wj_W01DDcgM9s3zIa3J7u5wKxjQICI_HOZNMhgQZ_26lSrUPNKdeVbPwt2FJxluhhS8FYHjMiyGmR86QLG2wkHxUns2VsYLjK1IwdhFXHr_WQtJyr_5nk06GEGsWgabt-_iDiD21zflPaAmnZRWiIC_N3JZhyWYHU2alLc4ipgpqYD1WbXO62BfVn7rgV5_y1]--></g></svg>