<?xml version="1.0" encoding="us-ascii" standalone="no"?><svg xmlns="http://www.w3.org/2000/svg" xmlns:xlink="http://www.w3.org/1999/xlink" contentStyleType="text/css" height="744px" preserveAspectRatio="none" style="width:1456px;height:744px;background:#FFFFFF;" version="1.1" viewBox="0 0 1456 744" width="1456px" zoomAndPan="magnify"><defs/><g><rect fill="#FFFFFF" height="593.4922" style="stroke:#181818;stroke-width:1.0;" width="10" x="325" y="87.5703"/><rect fill="#FFFFFF" height="523.7891" style="stroke:#181818;stroke-width:1.0;" width="10" x="428" y="117.9219"/><rect fill="#FFFFFF" height="402.8672" style="stroke:#181818;stroke-width:1.0;" width="10" x="854" y="208.4922"/><rect fill="#FFFFFF" height="41.3516" style="stroke:#181818;stroke-width:1.0;" width="10" x="859" y="307.5469"/><rect fill="#FFFFFF" height="28" style="stroke:#181818;stroke-width:1.0;" width="10" x="859" y="546.0078"/><rect fill="#FFFFFF" height="30.3516" style="stroke:#181818;stroke-width:1.0;" width="10" x="1050" y="238.8438"/><rect fill="#FFFFFF" height="30.3516" style="stroke:#181818;stroke-width:1.0;" width="10" x="1178.5" y="386.25"/><line style="stroke:#181818;stroke-width:0.5;stroke-dasharray:5.0,5.0;" x1="329.5" x2="329.5" y1="55.2188" y2="690.0625"/><line style="stroke:#181818;stroke-width:0.5;stroke-dasharray:5.0,5.0;" x1="432.5" x2="432.5" y1="55.2188" y2="690.0625"/><line style="stroke:#181818;stroke-width:0.5;stroke-dasharray:5.0,5.0;" x1="708" x2="708" y1="166.0313" y2="690.0625"/><line style="stroke:#181818;stroke-width:0.5;stroke-dasharray:5.0,5.0;" x1="859" x2="859" y1="55.2188" y2="690.0625"/><line style="stroke:#181818;stroke-width:0.5;stroke-dasharray:5.0,5.0;" x1="1054.5" x2="1054.5" y1="55.2188" y2="690.0625"/><line style="stroke:#181818;stroke-width:0.5;stroke-dasharray:5.0,5.0;" x1="1183.5" x2="1183.5" y1="55.2188" y2="690.0625"/><line style="stroke:#181818;stroke-width:0.5;stroke-dasharray:5.0,5.0;" x1="1295.5" x2="1295.5" y1="55.2188" y2="690.0625"/><line style="stroke:#181818;stroke-width:0.5;stroke-dasharray:5.0,5.0;" x1="1397.5" x2="1397.5" y1="55.2188" y2="690.0625"/><rect fill="#E2E2F0" height="49.2188" rx="2.5" ry="2.5" style="stroke:#181818;stroke-width:0.5;" width="81" x="289.5" y="5"/><text fill="#000000" font-family="sans-serif" font-size="14" font-style="italic" lengthAdjust="spacing" textLength="54" x="303" y="26.5332">&#171;Route&#187;</text><text fill="#000000" font-family="sans-serif" font-size="14" lengthAdjust="spacing" textLength="67" x="296.5" y="44.1426">UserRoute</text><rect fill="#E2E2F0" height="49.2188" rx="2.5" ry="2.5" style="stroke:#181818;stroke-width:0.5;" width="81" x="289.5" y="689.0625"/><text fill="#000000" font-family="sans-serif" font-size="14" font-style="italic" lengthAdjust="spacing" textLength="54" x="303" y="710.5957">&#171;Route&#187;</text><text fill="#000000" font-family="sans-serif" font-size="14" lengthAdjust="spacing" textLength="67" x="296.5" y="728.2051">UserRoute</text><rect fill="#E2E2F0" height="49.2188" rx="2.5" ry="2.5" style="stroke:#181818;stroke-width:0.5;" width="105" x="380.5" y="5"/><text fill="#000000" font-family="sans-serif" font-size="14" font-style="italic" lengthAdjust="spacing" textLength="78" x="394" y="26.5332">&#171;Controller&#187;</text><text fill="#000000" font-family="sans-serif" font-size="14" lengthAdjust="spacing" textLength="91" x="387.5" y="44.1426">UserController</text><rect fill="#E2E2F0" height="49.2188" rx="2.5" ry="2.5" style="stroke:#181818;stroke-width:0.5;" width="105" x="380.5" y="689.0625"/><text fill="#000000" font-family="sans-serif" font-size="14" font-style="italic" lengthAdjust="spacing" textLength="78" x="394" y="710.5957">&#171;Controller&#187;</text><text fill="#000000" font-family="sans-serif" font-size="14" lengthAdjust="spacing" textLength="91" x="387.5" y="728.2051">UserController</text><rect fill="#E2E2F0" height="49.2188" rx="2.5" ry="2.5" style="stroke:#181818;stroke-width:0.5;" width="192" x="612" y="689.0625"/><text fill="#000000" font-family="sans-serif" font-size="14" font-style="italic" lengthAdjust="spacing" textLength="46" x="685" y="710.5957">&#171;DTO&#187;</text><text fill="#000000" font-family="sans-serif" font-size="14" lengthAdjust="spacing" textLength="178" x="619" y="728.2051">ConfirmationEditPatientDTO</text><rect fill="#E2E2F0" height="49.2188" rx="2.5" ry="2.5" style="stroke:#181818;stroke-width:0.5;" width="90" x="814" y="5"/><text fill="#000000" font-family="sans-serif" font-size="14" font-style="italic" lengthAdjust="spacing" textLength="62" x="828" y="26.5332">&#171;Service&#187;</text><text fill="#000000" font-family="sans-serif" font-size="14" lengthAdjust="spacing" textLength="76" x="821" y="44.1426">UserService</text><rect fill="#E2E2F0" height="49.2188" rx="2.5" ry="2.5" style="stroke:#181818;stroke-width:0.5;" width="90" x="814" y="689.0625"/><text fill="#000000" font-family="sans-serif" font-size="14" font-style="italic" lengthAdjust="spacing" textLength="62" x="828" y="710.5957">&#171;Service&#187;</text><text fill="#000000" font-family="sans-serif" font-size="14" lengthAdjust="spacing" textLength="76" x="821" y="728.2051">UserService</text><rect fill="#E2E2F0" height="49.2188" rx="2.5" ry="2.5" style="stroke:#181818;stroke-width:0.5;" width="111" x="999.5" y="5"/><text fill="#000000" font-family="sans-serif" font-size="14" font-style="italic" lengthAdjust="spacing" textLength="84" x="1013" y="26.5332">&#171;Repository&#187;</text><text fill="#000000" font-family="sans-serif" font-size="14" lengthAdjust="spacing" textLength="97" x="1006.5" y="44.1426">UserRepository</text><rect fill="#E2E2F0" height="49.2188" rx="2.5" ry="2.5" style="stroke:#181818;stroke-width:0.5;" width="111" x="999.5" y="689.0625"/><text fill="#000000" font-family="sans-serif" font-size="14" font-style="italic" lengthAdjust="spacing" textLength="84" x="1013" y="710.5957">&#171;Repository&#187;</text><text fill="#000000" font-family="sans-serif" font-size="14" lengthAdjust="spacing" textLength="97" x="1006.5" y="728.2051">UserRepository</text><rect fill="#E2E2F0" height="49.2188" rx="2.5" ry="2.5" style="stroke:#181818;stroke-width:0.5;" width="126" x="1120.5" y="5"/><text fill="#000000" font-family="sans-serif" font-size="14" font-style="italic" lengthAdjust="spacing" textLength="84" x="1141.5" y="26.5332">&#171;Repository&#187;</text><text fill="#000000" font-family="sans-serif" font-size="14" lengthAdjust="spacing" textLength="112" x="1127.5" y="44.1426">PatientRepository</text><rect fill="#E2E2F0" height="49.2188" rx="2.5" ry="2.5" style="stroke:#181818;stroke-width:0.5;" width="126" x="1120.5" y="689.0625"/><text fill="#000000" font-family="sans-serif" font-size="14" font-style="italic" lengthAdjust="spacing" textLength="84" x="1141.5" y="710.5957">&#171;Repository&#187;</text><text fill="#000000" font-family="sans-serif" font-size="14" lengthAdjust="spacing" textLength="112" x="1127.5" y="728.2051">PatientRepository</text><rect fill="#E2E2F0" height="49.2188" rx="2.5" ry="2.5" style="stroke:#181818;stroke-width:0.5;" width="78" x="1256.5" y="5"/><text fill="#000000" font-family="sans-serif" font-size="14" font-style="italic" lengthAdjust="spacing" textLength="64" x="1263.5" y="26.5332">&#171;Domain&#187;</text><text fill="#000000" font-family="sans-serif" font-size="14" lengthAdjust="spacing" textLength="44" x="1273.5" y="44.1426">Patient</text><rect fill="#E2E2F0" height="49.2188" rx="2.5" ry="2.5" style="stroke:#181818;stroke-width:0.5;" width="78" x="1256.5" y="689.0625"/><text fill="#000000" font-family="sans-serif" font-size="14" font-style="italic" lengthAdjust="spacing" textLength="64" x="1263.5" y="710.5957">&#171;Domain&#187;</text><text fill="#000000" font-family="sans-serif" font-size="14" lengthAdjust="spacing" textLength="44" x="1273.5" y="728.2051">Patient</text><rect fill="#E2E2F0" height="49.2188" rx="2.5" ry="2.5" style="stroke:#181818;stroke-width:0.5;" width="106" x="1344.5" y="5"/><text fill="#000000" font-family="sans-serif" font-size="14" font-style="italic" lengthAdjust="spacing" textLength="65" x="1365" y="26.5332">&#171;Mapper&#187;</text><text fill="#000000" font-family="sans-serif" font-size="14" lengthAdjust="spacing" textLength="92" x="1351.5" y="44.1426">PatientMapper</text><rect fill="#E2E2F0" height="49.2188" rx="2.5" ry="2.5" style="stroke:#181818;stroke-width:0.5;" width="106" x="1344.5" y="689.0625"/><text fill="#000000" font-family="sans-serif" font-size="14" font-style="italic" lengthAdjust="spacing" textLength="65" x="1365" y="710.5957">&#171;Mapper&#187;</text><text fill="#000000" font-family="sans-serif" font-size="14" lengthAdjust="spacing" textLength="92" x="1351.5" y="728.2051">PatientMapper</text><rect fill="#FFFFFF" height="593.4922" style="stroke:#181818;stroke-width:1.0;" width="10" x="325" y="87.5703"/><rect fill="#FFFFFF" height="523.7891" style="stroke:#181818;stroke-width:1.0;" width="10" x="428" y="117.9219"/><rect fill="#FFFFFF" height="402.8672" style="stroke:#181818;stroke-width:1.0;" width="10" x="854" y="208.4922"/><rect fill="#FFFFFF" height="41.3516" style="stroke:#181818;stroke-width:1.0;" width="10" x="859" y="307.5469"/><rect fill="#FFFFFF" height="28" style="stroke:#181818;stroke-width:1.0;" width="10" x="859" y="546.0078"/><rect fill="#FFFFFF" height="30.3516" style="stroke:#181818;stroke-width:1.0;" width="10" x="1050" y="238.8438"/><rect fill="#FFFFFF" height="30.3516" style="stroke:#181818;stroke-width:1.0;" width="10" x="1178.5" y="386.25"/><ellipse cx="7.5" cy="86.8203" fill="none" rx="4" ry="4" style="stroke:#181818;stroke-width:1.5;"/><polygon fill="#181818" points="313,83.5703,323,87.5703,313,91.5703,317,87.5703" style="stroke:#181818;stroke-width:1.0;"/><line style="stroke:#181818;stroke-width:1.0;" x1="12" x2="319" y1="87.5703" y2="87.5703"/><text fill="#000000" font-family="sans-serif" font-size="13" lengthAdjust="spacing" textLength="298" x="15" y="82.7139">PATCH (/api/user/patients/edit/confirmation/{token})</text><polygon fill="#181818" points="416,113.9219,426,117.9219,416,121.9219,420,117.9219" style="stroke:#181818;stroke-width:1.0;"/><line style="stroke:#181818;stroke-width:1.0;" x1="335" x2="422" y1="117.9219" y2="117.9219"/><text fill="#000000" font-family="sans-serif" font-size="13" lengthAdjust="spacing" textLength="43" x="342" y="113.0654">PATCH</text><polygon fill="#181818" points="600,144.2734,610,148.2734,600,152.2734,604,148.2734" style="stroke:#181818;stroke-width:1.0;"/><line style="stroke:#181818;stroke-width:1.0;" x1="438" x2="606" y1="148.2734" y2="148.2734"/><text fill="#000000" font-family="sans-serif" font-size="13" lengthAdjust="spacing" textLength="150" x="445" y="143.417">recieves request body info</text><rect fill="#E2E2F0" height="49.2188" rx="2.5" ry="2.5" style="stroke:#181818;stroke-width:0.5;" width="192" x="612" y="125.9219"/><text fill="#000000" font-family="sans-serif" font-size="14" font-style="italic" lengthAdjust="spacing" textLength="46" x="685" y="147.4551">&#171;DTO&#187;</text><text fill="#000000" font-family="sans-serif" font-size="14" lengthAdjust="spacing" textLength="178" x="619" y="165.0645">ConfirmationEditPatientDTO</text><polygon fill="#181818" points="842,204.4922,852,208.4922,842,212.4922,846,208.4922" style="stroke:#181818;stroke-width:1.0;"/><line style="stroke:#181818;stroke-width:1.0;" x1="438" x2="848" y1="208.4922" y2="208.4922"/><text fill="#000000" font-family="sans-serif" font-size="13" lengthAdjust="spacing" textLength="274" x="445" y="203.6357">confirmEditPatient(confirmationEditPatientDTO)</text><polygon fill="#181818" points="1038,234.8438,1048,238.8438,1038,242.8438,1042,238.8438" style="stroke:#181818;stroke-width:1.0;"/><line style="stroke:#181818;stroke-width:1.0;" x1="864" x2="1044" y1="238.8438" y2="238.8438"/><text fill="#000000" font-family="sans-serif" font-size="13" lengthAdjust="spacing" textLength="135" x="871" y="233.9873">findUserByEmail(email)</text><polygon fill="#181818" points="875,265.1953,865,269.1953,875,273.1953,871,269.1953" style="stroke:#181818;stroke-width:1.0;"/><line style="stroke:#181818;stroke-width:1.0;stroke-dasharray:2.0,2.0;" x1="869" x2="1054" y1="269.1953" y2="269.1953"/><text fill="#000000" font-family="sans-serif" font-size="13" lengthAdjust="spacing" textLength="25" x="881" y="264.3389">user</text><line style="stroke:#181818;stroke-width:1.0;" x1="864" x2="911" y1="294.5469" y2="294.5469"/><line style="stroke:#181818;stroke-width:1.0;" x1="911" x2="911" y1="294.5469" y2="307.5469"/><line style="stroke:#181818;stroke-width:1.0;" x1="870" x2="911" y1="307.5469" y2="307.5469"/><polygon fill="#181818" points="880,303.5469,870,307.5469,880,311.5469,876,307.5469" style="stroke:#181818;stroke-width:1.0;"/><text fill="#000000" font-family="sans-serif" font-size="13" lengthAdjust="spacing" textLength="151" x="876" y="289.6904">validateToken(user, token)</text><line style="stroke:#181818;stroke-width:1.0;stroke-dasharray:2.0,2.0;" x1="869" x2="911" y1="347.8984" y2="347.8984"/><line style="stroke:#181818;stroke-width:1.0;stroke-dasharray:2.0,2.0;" x1="911" x2="911" y1="347.8984" y2="360.8984"/><line style="stroke:#181818;stroke-width:1.0;stroke-dasharray:2.0,2.0;" x1="864" x2="911" y1="360.8984" y2="360.8984"/><polygon fill="#181818" points="874,356.8984,864,360.8984,874,364.8984,870,360.8984" style="stroke:#181818;stroke-width:1.0;"/><text fill="#000000" font-family="sans-serif" font-size="13" lengthAdjust="spacing" textLength="20" x="876" y="343.042">flag</text><polygon fill="#181818" points="1166.5,382.25,1176.5,386.25,1166.5,390.25,1170.5,386.25" style="stroke:#181818;stroke-width:1.0;"/><line style="stroke:#181818;stroke-width:1.0;" x1="864" x2="1172.5" y1="386.25" y2="386.25"/><text fill="#000000" font-family="sans-serif" font-size="13" lengthAdjust="spacing" textLength="202" x="871" y="381.3936">findPatientByAssociatedUser(user)</text><polygon fill="#181818" points="875,412.6016,865,416.6016,875,420.6016,871,416.6016" style="stroke:#181818;stroke-width:1.0;"/><line style="stroke:#181818;stroke-width:1.0;stroke-dasharray:2.0,2.0;" x1="869" x2="1182.5" y1="416.6016" y2="416.6016"/><text fill="#000000" font-family="sans-serif" font-size="13" lengthAdjust="spacing" textLength="39" x="881" y="411.7451">patient</text><polygon fill="#181818" points="1283.5,442.9531,1293.5,446.9531,1283.5,450.9531,1287.5,446.9531" style="stroke:#181818;stroke-width:1.0;"/><line style="stroke:#181818;stroke-width:1.0;" x1="864" x2="1289.5" y1="446.9531" y2="446.9531"/><text fill="#000000" font-family="sans-serif" font-size="13" lengthAdjust="spacing" textLength="114" x="871" y="442.0967">changeEmail(email)</text><polygon fill="#181818" points="1283.5,473.3047,1293.5,477.3047,1283.5,481.3047,1287.5,477.3047" style="stroke:#181818;stroke-width:1.0;"/><line style="stroke:#181818;stroke-width:1.0;" x1="864" x2="1289.5" y1="477.3047" y2="477.3047"/><text fill="#000000" font-family="sans-serif" font-size="13" lengthAdjust="spacing" textLength="212" x="871" y="472.4482">changePhoneNumber(phoneNumber)</text><polygon fill="#181818" points="1171.5,503.6563,1181.5,507.6563,1171.5,511.6563,1175.5,507.6563" style="stroke:#181818;stroke-width:1.0;"/><line style="stroke:#181818;stroke-width:1.0;" x1="864" x2="1177.5" y1="507.6563" y2="507.6563"/><text fill="#000000" font-family="sans-serif" font-size="13" lengthAdjust="spacing" textLength="73" x="871" y="502.7998">save(patient)</text><line style="stroke:#181818;stroke-width:1.0;" x1="869" x2="911" y1="538.0078" y2="538.0078"/><line style="stroke:#181818;stroke-width:1.0;" x1="911" x2="911" y1="538.0078" y2="551.0078"/><line style="stroke:#181818;stroke-width:1.0;" x1="870" x2="911" y1="551.0078" y2="551.0078"/><polygon fill="#181818" points="880,547.0078,870,551.0078,880,555.0078,876,551.0078" style="stroke:#181818;stroke-width:1.0;"/><text fill="#000000" font-family="sans-serif" font-size="13" lengthAdjust="spacing" textLength="172" x="876" y="533.1514">logChanges(patient, "update")</text><polygon fill="#181818" points="449,607.3594,439,611.3594,449,615.3594,445,611.3594" style="stroke:#181818;stroke-width:1.0;"/><line style="stroke:#181818;stroke-width:1.0;stroke-dasharray:2.0,2.0;" x1="443" x2="858" y1="611.3594" y2="611.3594"/><text fill="#000000" font-family="sans-serif" font-size="13" lengthAdjust="spacing" textLength="53" x="455" y="606.5029">response</text><polygon fill="#181818" points="346,637.7109,336,641.7109,346,645.7109,342,641.7109" style="stroke:#181818;stroke-width:1.0;"/><line style="stroke:#181818;stroke-width:1.0;stroke-dasharray:2.0,2.0;" x1="340" x2="432" y1="641.7109" y2="641.7109"/><text fill="#000000" font-family="sans-serif" font-size="13" lengthAdjust="spacing" textLength="53" x="352" y="636.8545">response</text><polygon fill="#181818" points="11,668.0625,1,672.0625,11,676.0625,7,672.0625" style="stroke:#181818;stroke-width:1.0;"/><line style="stroke:#181818;stroke-width:1.0;stroke-dasharray:2.0,2.0;" x1="5" x2="324" y1="672.0625" y2="672.0625"/><text fill="#000000" font-family="sans-serif" font-size="13" lengthAdjust="spacing" textLength="53" x="17" y="667.2061">response</text><!--SRC=[XLEnRi8m4Dtp5HPJGA3io482YjIbBQ9qwcII2rWDjcixaQAg_ruxSOX9t7O9T_Pxx-xU6K6afYaLX6dqfa0UUAa14ONQ0EFcTxMAn02uvKnBNXGWBThBCEwJ0SzSv5HUYQQSxJAgzoO2fX-EBqxZTckFC3RVGELNa1LDcoQx46CN1U0745nHpMNTZDLdPhPRCk2vnkwfuyDx1HIIy8Xs87ubb8MBFH4XMZDTX74R6FWxNwpSHfPelpvk7r6S446JqWoOY5P09M0yJLBFnkHBymzWtzE8f9fMnF0RbQZLCgBUufno3-tl8W_MalnDpMQ6Ao6bK84omMS9IgCJpsf4MSu7v6vdI-GwzLv2dFxwGhmHd4BKALbl-gKiKKvPPZU_gNV6xY86-_Kjk84Z2RgK35aRVRc-nueKD3Eae_KnjhWvQZmDzEF4yeASVR7nksbRTEURUgqKJwbHQhfkYdZg8tfNnwqzKCfwUo7i37Vp_u7RNpY3v_9wCkL57q__6qEH2cBNnpHiOC7FswQ6we1pD2c5zNGIy323tsoLe0HdQfpZnUBst-WEVm00]--></g></svg>