<?xml version="1.0" encoding="us-ascii" standalone="no"?><svg xmlns="http://www.w3.org/2000/svg" xmlns:xlink="http://www.w3.org/1999/xlink" contentStyleType="text/css" height="1032px" preserveAspectRatio="none" style="width:2795px;height:1032px;background:#FFFFFF;" version="1.1" viewBox="0 0 2795 1032" width="2795px" zoomAndPan="magnify"><defs/><g><rect fill="#FFFFFF" height="881.5234" style="stroke:#181818;stroke-width:1.0;" width="10" x="278" y="87.5703"/><rect fill="#FFFFFF" height="811.8203" style="stroke:#181818;stroke-width:1.0;" width="10" x="381" y="117.9219"/><rect fill="#FFFFFF" height="690.8984" style="stroke:#181818;stroke-width:1.0;" width="10" x="1492" y="208.4922"/><rect fill="#FFFFFF" height="41.3516" style="stroke:#181818;stroke-width:1.0;" width="10" x="1497" y="368.25"/><rect fill="#FFFFFF" height="41.3516" style="stroke:#181818;stroke-width:1.0;" width="10" x="1497" y="454.9531"/><rect fill="#FFFFFF" height="30.3516" style="stroke:#181818;stroke-width:1.0;" width="10" x="1979.5" y="619.7109"/><rect fill="#FFFFFF" height="30.3516" style="stroke:#181818;stroke-width:1.0;" width="10" x="2188" y="238.8438"/><rect fill="#FFFFFF" height="30.3516" style="stroke:#181818;stroke-width:1.0;" width="10" x="2316.5" y="299.5469"/><rect fill="#FFFFFF" height="30.3516" style="stroke:#181818;stroke-width:1.0;" width="10" x="2731.5" y="778.4688"/><rect fill="none" height="170.1094" style="stroke:#000000;stroke-width:1.5;" width="1153.5" x="1442" y="579.0078"/><line style="stroke:#181818;stroke-width:0.5;stroke-dasharray:5.0,5.0;" x1="282.5" x2="282.5" y1="55.2188" y2="978.0938"/><line style="stroke:#181818;stroke-width:0.5;stroke-dasharray:5.0,5.0;" x1="385.5" x2="385.5" y1="55.2188" y2="978.0938"/><line style="stroke:#181818;stroke-width:0.5;stroke-dasharray:5.0,5.0;" x1="630" x2="630" y1="166.0313" y2="978.0938"/><line style="stroke:#181818;stroke-width:0.5;stroke-dasharray:5.0,5.0;" x1="811" x2="811" y1="856.9297" y2="978.0938"/><line style="stroke:#181818;stroke-width:0.5;stroke-dasharray:5.0,5.0;" x1="1497" x2="1497" y1="55.2188" y2="978.0938"/><line style="stroke:#181818;stroke-width:0.5;stroke-dasharray:5.0,5.0;" x1="1783.5" x2="1783.5" y1="55.2188" y2="978.0938"/><line style="stroke:#181818;stroke-width:0.5;stroke-dasharray:5.0,5.0;" x1="1984.5" x2="1984.5" y1="55.2188" y2="978.0938"/><line style="stroke:#181818;stroke-width:0.5;stroke-dasharray:5.0,5.0;" x1="2192.5" x2="2192.5" y1="55.2188" y2="978.0938"/><line style="stroke:#181818;stroke-width:0.5;stroke-dasharray:5.0,5.0;" x1="2321.5" x2="2321.5" y1="55.2188" y2="978.0938"/><line style="stroke:#181818;stroke-width:0.5;stroke-dasharray:5.0,5.0;" x1="2445.5" x2="2445.5" y1="55.2188" y2="978.0938"/><line style="stroke:#181818;stroke-width:0.5;stroke-dasharray:5.0,5.0;" x1="2546.5" x2="2546.5" y1="55.2188" y2="978.0938"/><line style="stroke:#181818;stroke-width:0.5;stroke-dasharray:5.0,5.0;" x1="2634.5" x2="2634.5" y1="55.2188" y2="978.0938"/><line style="stroke:#181818;stroke-width:0.5;stroke-dasharray:5.0,5.0;" x1="2736.5" x2="2736.5" y1="55.2188" y2="978.0938"/><rect fill="#E2E2F0" height="49.2188" rx="2.5" ry="2.5" style="stroke:#181818;stroke-width:0.5;" width="81" x="242.5" y="5"/><text fill="#000000" font-family="sans-serif" font-size="14" font-style="italic" lengthAdjust="spacing" textLength="54" x="256" y="26.5332">&#171;Route&#187;</text><text fill="#000000" font-family="sans-serif" font-size="14" lengthAdjust="spacing" textLength="67" x="249.5" y="44.1426">UserRoute</text><rect fill="#E2E2F0" height="49.2188" rx="2.5" ry="2.5" style="stroke:#181818;stroke-width:0.5;" width="81" x="242.5" y="977.0938"/><text fill="#000000" font-family="sans-serif" font-size="14" font-style="italic" lengthAdjust="spacing" textLength="54" x="256" y="998.627">&#171;Route&#187;</text><text fill="#000000" font-family="sans-serif" font-size="14" lengthAdjust="spacing" textLength="67" x="249.5" y="1016.2363">UserRoute</text><rect fill="#E2E2F0" height="49.2188" rx="2.5" ry="2.5" style="stroke:#181818;stroke-width:0.5;" width="105" x="333.5" y="5"/><text fill="#000000" font-family="sans-serif" font-size="14" font-style="italic" lengthAdjust="spacing" textLength="78" x="347" y="26.5332">&#171;Controller&#187;</text><text fill="#000000" font-family="sans-serif" font-size="14" lengthAdjust="spacing" textLength="91" x="340.5" y="44.1426">UserController</text><rect fill="#E2E2F0" height="49.2188" rx="2.5" ry="2.5" style="stroke:#181818;stroke-width:0.5;" width="105" x="333.5" y="977.0938"/><text fill="#000000" font-family="sans-serif" font-size="14" font-style="italic" lengthAdjust="spacing" textLength="78" x="347" y="998.627">&#171;Controller&#187;</text><text fill="#000000" font-family="sans-serif" font-size="14" lengthAdjust="spacing" textLength="91" x="340.5" y="1016.2363">UserController</text><rect fill="#E2E2F0" height="49.2188" rx="2.5" ry="2.5" style="stroke:#181818;stroke-width:0.5;" width="131" x="565" y="977.0938"/><text fill="#000000" font-family="sans-serif" font-size="14" font-style="italic" lengthAdjust="spacing" textLength="46" x="607.5" y="998.627">&#171;DTO&#187;</text><text fill="#000000" font-family="sans-serif" font-size="14" lengthAdjust="spacing" textLength="117" x="572" y="1016.2363">EditingPatientDTO</text><rect fill="#E2E2F0" height="49.2188" rx="2.5" ry="2.5" style="stroke:#181818;stroke-width:0.5;" width="211" x="706" y="977.0938"/><text fill="#000000" font-family="sans-serif" font-size="14" font-style="italic" lengthAdjust="spacing" textLength="46" x="788.5" y="998.627">&#171;DTO&#187;</text><text fill="#000000" font-family="sans-serif" font-size="14" lengthAdjust="spacing" textLength="197" x="713" y="1016.2363">ConfirmationEditingPatientDTO</text><rect fill="#E2E2F0" height="49.2188" rx="2.5" ry="2.5" style="stroke:#181818;stroke-width:0.5;" width="90" x="1452" y="5"/><text fill="#000000" font-family="sans-serif" font-size="14" font-style="italic" lengthAdjust="spacing" textLength="62" x="1466" y="26.5332">&#171;Service&#187;</text><text fill="#000000" font-family="sans-serif" font-size="14" lengthAdjust="spacing" textLength="76" x="1459" y="44.1426">UserService</text><rect fill="#E2E2F0" height="49.2188" rx="2.5" ry="2.5" style="stroke:#181818;stroke-width:0.5;" width="90" x="1452" y="977.0938"/><text fill="#000000" font-family="sans-serif" font-size="14" font-style="italic" lengthAdjust="spacing" textLength="62" x="1466" y="998.627">&#171;Service&#187;</text><text fill="#000000" font-family="sans-serif" font-size="14" lengthAdjust="spacing" textLength="76" x="1459" y="1016.2363">UserService</text><rect fill="#E2E2F0" height="49.2188" rx="2.5" ry="2.5" style="stroke:#181818;stroke-width:0.5;" width="95" x="1736.5" y="5"/><text fill="#000000" font-family="sans-serif" font-size="14" font-style="italic" lengthAdjust="spacing" textLength="62" x="1753" y="26.5332">&#171;Service&#187;</text><text fill="#000000" font-family="sans-serif" font-size="14" lengthAdjust="spacing" textLength="81" x="1743.5" y="44.1426">EmailService</text><rect fill="#E2E2F0" height="49.2188" rx="2.5" ry="2.5" style="stroke:#181818;stroke-width:0.5;" width="95" x="1736.5" y="977.0938"/><text fill="#000000" font-family="sans-serif" font-size="14" font-style="italic" lengthAdjust="spacing" textLength="62" x="1753" y="998.627">&#171;Service&#187;</text><text fill="#000000" font-family="sans-serif" font-size="14" lengthAdjust="spacing" textLength="81" x="1743.5" y="1016.2363">EmailService</text><rect fill="#E2E2F0" height="49.2188" rx="2.5" ry="2.5" style="stroke:#181818;stroke-width:0.5;" width="286" x="1841.5" y="5"/><text fill="#000000" font-family="sans-serif" font-size="14" font-style="italic" lengthAdjust="spacing" textLength="62" x="1953.5" y="26.5332">&#171;Service&#187;</text><text fill="#000000" font-family="sans-serif" font-size="14" lengthAdjust="spacing" textLength="272" x="1848.5" y="44.1426">ConfirmationEditingPatientTokenGenerator</text><rect fill="#E2E2F0" height="49.2188" rx="2.5" ry="2.5" style="stroke:#181818;stroke-width:0.5;" width="286" x="1841.5" y="977.0938"/><text fill="#000000" font-family="sans-serif" font-size="14" font-style="italic" lengthAdjust="spacing" textLength="62" x="1953.5" y="998.627">&#171;Service&#187;</text><text fill="#000000" font-family="sans-serif" font-size="14" lengthAdjust="spacing" textLength="272" x="1848.5" y="1016.2363">ConfirmationEditingPatientTokenGenerator</text><rect fill="#E2E2F0" height="49.2188" rx="2.5" ry="2.5" style="stroke:#181818;stroke-width:0.5;" width="111" x="2137.5" y="5"/><text fill="#000000" font-family="sans-serif" font-size="14" font-style="italic" lengthAdjust="spacing" textLength="84" x="2151" y="26.5332">&#171;Repository&#187;</text><text fill="#000000" font-family="sans-serif" font-size="14" lengthAdjust="spacing" textLength="97" x="2144.5" y="44.1426">UserRepository</text><rect fill="#E2E2F0" height="49.2188" rx="2.5" ry="2.5" style="stroke:#181818;stroke-width:0.5;" width="111" x="2137.5" y="977.0938"/><text fill="#000000" font-family="sans-serif" font-size="14" font-style="italic" lengthAdjust="spacing" textLength="84" x="2151" y="998.627">&#171;Repository&#187;</text><text fill="#000000" font-family="sans-serif" font-size="14" lengthAdjust="spacing" textLength="97" x="2144.5" y="1016.2363">UserRepository</text><rect fill="#E2E2F0" height="49.2188" rx="2.5" ry="2.5" style="stroke:#181818;stroke-width:0.5;" width="126" x="2258.5" y="5"/><text fill="#000000" font-family="sans-serif" font-size="14" font-style="italic" lengthAdjust="spacing" textLength="84" x="2279.5" y="26.5332">&#171;Repository&#187;</text><text fill="#000000" font-family="sans-serif" font-size="14" lengthAdjust="spacing" textLength="112" x="2265.5" y="44.1426">PatientRepository</text><rect fill="#E2E2F0" height="49.2188" rx="2.5" ry="2.5" style="stroke:#181818;stroke-width:0.5;" width="126" x="2258.5" y="977.0938"/><text fill="#000000" font-family="sans-serif" font-size="14" font-style="italic" lengthAdjust="spacing" textLength="84" x="2279.5" y="998.627">&#171;Repository&#187;</text><text fill="#000000" font-family="sans-serif" font-size="14" lengthAdjust="spacing" textLength="112" x="2265.5" y="1016.2363">PatientRepository</text><rect fill="#E2E2F0" height="49.2188" rx="2.5" ry="2.5" style="stroke:#181818;stroke-width:0.5;" width="103" x="2394.5" y="5"/><text fill="#000000" font-family="sans-serif" font-size="14" font-style="italic" lengthAdjust="spacing" textLength="64" x="2414" y="26.5332">&#171;Domain&#187;</text><text fill="#000000" font-family="sans-serif" font-size="14" lengthAdjust="spacing" textLength="89" x="2401.5" y="44.1426">PatientLogger</text><rect fill="#E2E2F0" height="49.2188" rx="2.5" ry="2.5" style="stroke:#181818;stroke-width:0.5;" width="103" x="2394.5" y="977.0938"/><text fill="#000000" font-family="sans-serif" font-size="14" font-style="italic" lengthAdjust="spacing" textLength="64" x="2414" y="998.627">&#171;Domain&#187;</text><text fill="#000000" font-family="sans-serif" font-size="14" lengthAdjust="spacing" textLength="89" x="2401.5" y="1016.2363">PatientLogger</text><rect fill="#E2E2F0" height="49.2188" rx="2.5" ry="2.5" style="stroke:#181818;stroke-width:0.5;" width="78" x="2507.5" y="5"/><text fill="#000000" font-family="sans-serif" font-size="14" font-style="italic" lengthAdjust="spacing" textLength="64" x="2514.5" y="26.5332">&#171;Domain&#187;</text><text fill="#000000" font-family="sans-serif" font-size="14" lengthAdjust="spacing" textLength="29" x="2532" y="44.1426">User</text><rect fill="#E2E2F0" height="49.2188" rx="2.5" ry="2.5" style="stroke:#181818;stroke-width:0.5;" width="78" x="2507.5" y="977.0938"/><text fill="#000000" font-family="sans-serif" font-size="14" font-style="italic" lengthAdjust="spacing" textLength="64" x="2514.5" y="998.627">&#171;Domain&#187;</text><text fill="#000000" font-family="sans-serif" font-size="14" lengthAdjust="spacing" textLength="29" x="2532" y="1016.2363">User</text><rect fill="#E2E2F0" height="49.2188" rx="2.5" ry="2.5" style="stroke:#181818;stroke-width:0.5;" width="78" x="2595.5" y="5"/><text fill="#000000" font-family="sans-serif" font-size="14" font-style="italic" lengthAdjust="spacing" textLength="64" x="2602.5" y="26.5332">&#171;Domain&#187;</text><text fill="#000000" font-family="sans-serif" font-size="14" lengthAdjust="spacing" textLength="44" x="2612.5" y="44.1426">Patient</text><rect fill="#E2E2F0" height="49.2188" rx="2.5" ry="2.5" style="stroke:#181818;stroke-width:0.5;" width="78" x="2595.5" y="977.0938"/><text fill="#000000" font-family="sans-serif" font-size="14" font-style="italic" lengthAdjust="spacing" textLength="64" x="2602.5" y="998.627">&#171;Domain&#187;</text><text fill="#000000" font-family="sans-serif" font-size="14" lengthAdjust="spacing" textLength="44" x="2612.5" y="1016.2363">Patient</text><rect fill="#E2E2F0" height="49.2188" rx="2.5" ry="2.5" style="stroke:#181818;stroke-width:0.5;" width="106" x="2683.5" y="5"/><text fill="#000000" font-family="sans-serif" font-size="14" font-style="italic" lengthAdjust="spacing" textLength="65" x="2704" y="26.5332">&#171;Mapper&#187;</text><text fill="#000000" font-family="sans-serif" font-size="14" lengthAdjust="spacing" textLength="92" x="2690.5" y="44.1426">PatientMapper</text><rect fill="#E2E2F0" height="49.2188" rx="2.5" ry="2.5" style="stroke:#181818;stroke-width:0.5;" width="106" x="2683.5" y="977.0938"/><text fill="#000000" font-family="sans-serif" font-size="14" font-style="italic" lengthAdjust="spacing" textLength="65" x="2704" y="998.627">&#171;Mapper&#187;</text><text fill="#000000" font-family="sans-serif" font-size="14" lengthAdjust="spacing" textLength="92" x="2690.5" y="1016.2363">PatientMapper</text><rect fill="#FFFFFF" height="881.5234" style="stroke:#181818;stroke-width:1.0;" width="10" x="278" y="87.5703"/><rect fill="#FFFFFF" height="811.8203" style="stroke:#181818;stroke-width:1.0;" width="10" x="381" y="117.9219"/><rect fill="#FFFFFF" height="690.8984" style="stroke:#181818;stroke-width:1.0;" width="10" x="1492" y="208.4922"/><rect fill="#FFFFFF" height="41.3516" style="stroke:#181818;stroke-width:1.0;" width="10" x="1497" y="368.25"/><rect fill="#FFFFFF" height="41.3516" style="stroke:#181818;stroke-width:1.0;" width="10" x="1497" y="454.9531"/><rect fill="#FFFFFF" height="30.3516" style="stroke:#181818;stroke-width:1.0;" width="10" x="1979.5" y="619.7109"/><rect fill="#FFFFFF" height="30.3516" style="stroke:#181818;stroke-width:1.0;" width="10" x="2188" y="238.8438"/><rect fill="#FFFFFF" height="30.3516" style="stroke:#181818;stroke-width:1.0;" width="10" x="2316.5" y="299.5469"/><rect fill="#FFFFFF" height="30.3516" style="stroke:#181818;stroke-width:1.0;" width="10" x="2731.5" y="778.4688"/><ellipse cx="7.5" cy="86.8203" fill="none" rx="4" ry="4" style="stroke:#181818;stroke-width:1.5;"/><polygon fill="#181818" points="266,83.5703,276,87.5703,266,91.5703,270,87.5703" style="stroke:#181818;stroke-width:1.0;"/><line style="stroke:#181818;stroke-width:1.0;" x1="12" x2="272" y1="87.5703" y2="87.5703"/><text fill="#000000" font-family="sans-serif" font-size="13" lengthAdjust="spacing" textLength="251" x="15" y="82.7139">PATCH (/api/users/patients/{logToken}/edit)</text><polygon fill="#181818" points="369,113.9219,379,117.9219,369,121.9219,373,117.9219" style="stroke:#181818;stroke-width:1.0;"/><line style="stroke:#181818;stroke-width:1.0;" x1="288" x2="375" y1="117.9219" y2="117.9219"/><text fill="#000000" font-family="sans-serif" font-size="13" lengthAdjust="spacing" textLength="43" x="295" y="113.0654">PATCH</text><polygon fill="#181818" points="553,144.2734,563,148.2734,553,152.2734,557,148.2734" style="stroke:#181818;stroke-width:1.0;"/><line style="stroke:#181818;stroke-width:1.0;" x1="391" x2="559" y1="148.2734" y2="148.2734"/><text fill="#000000" font-family="sans-serif" font-size="13" lengthAdjust="spacing" textLength="150" x="398" y="143.417">recieves request body info</text><rect fill="#E2E2F0" height="49.2188" rx="2.5" ry="2.5" style="stroke:#181818;stroke-width:0.5;" width="131" x="565" y="125.9219"/><text fill="#000000" font-family="sans-serif" font-size="14" font-style="italic" lengthAdjust="spacing" textLength="46" x="607.5" y="147.4551">&#171;DTO&#187;</text><text fill="#000000" font-family="sans-serif" font-size="14" lengthAdjust="spacing" textLength="117" x="572" y="165.0645">EditingPatientDTO</text><polygon fill="#181818" points="1480,204.4922,1490,208.4922,1480,212.4922,1484,208.4922" style="stroke:#181818;stroke-width:1.0;"/><line style="stroke:#181818;stroke-width:1.0;" x1="391" x2="1486" y1="208.4922" y2="208.4922"/><text fill="#000000" font-family="sans-serif" font-size="13" lengthAdjust="spacing" textLength="177" x="398" y="203.6357">editPatient(EditingPatientDTO)</text><polygon fill="#181818" points="2176,234.8438,2186,238.8438,2176,242.8438,2180,238.8438" style="stroke:#181818;stroke-width:1.0;"/><line style="stroke:#181818;stroke-width:1.0;" x1="1502" x2="2182" y1="238.8438" y2="238.8438"/><text fill="#000000" font-family="sans-serif" font-size="13" lengthAdjust="spacing" textLength="135" x="1509" y="233.9873">findUserByEmail(email)</text><polygon fill="#181818" points="1513,265.1953,1503,269.1953,1513,273.1953,1509,269.1953" style="stroke:#181818;stroke-width:1.0;"/><line style="stroke:#181818;stroke-width:1.0;stroke-dasharray:2.0,2.0;" x1="1507" x2="2192" y1="269.1953" y2="269.1953"/><text fill="#000000" font-family="sans-serif" font-size="13" lengthAdjust="spacing" textLength="25" x="1519" y="264.3389">user</text><polygon fill="#181818" points="2304.5,295.5469,2314.5,299.5469,2304.5,303.5469,2308.5,299.5469" style="stroke:#181818;stroke-width:1.0;"/><line style="stroke:#181818;stroke-width:1.0;" x1="1502" x2="2310.5" y1="299.5469" y2="299.5469"/><text fill="#000000" font-family="sans-serif" font-size="13" lengthAdjust="spacing" textLength="149" x="1509" y="294.6904">findPatientByEmail(email)</text><polygon fill="#181818" points="1513,325.8984,1503,329.8984,1513,333.8984,1509,329.8984" style="stroke:#181818;stroke-width:1.0;"/><line style="stroke:#181818;stroke-width:1.0;stroke-dasharray:2.0,2.0;" x1="1507" x2="2320.5" y1="329.8984" y2="329.8984"/><text fill="#000000" font-family="sans-serif" font-size="13" lengthAdjust="spacing" textLength="39" x="1519" y="325.042">patient</text><line style="stroke:#181818;stroke-width:1.0;" x1="1502" x2="1549" y1="355.25" y2="355.25"/><line style="stroke:#181818;stroke-width:1.0;" x1="1549" x2="1549" y1="355.25" y2="368.25"/><line style="stroke:#181818;stroke-width:1.0;" x1="1508" x2="1549" y1="368.25" y2="368.25"/><polygon fill="#181818" points="1518,364.25,1508,368.25,1518,372.25,1514,368.25" style="stroke:#181818;stroke-width:1.0;"/><text fill="#000000" font-family="sans-serif" font-size="13" lengthAdjust="spacing" textLength="165" x="1514" y="350.3936">validateEmailIsUnique(email)</text><line style="stroke:#181818;stroke-width:1.0;stroke-dasharray:2.0,2.0;" x1="1507" x2="1549" y1="408.6016" y2="408.6016"/><line style="stroke:#181818;stroke-width:1.0;stroke-dasharray:2.0,2.0;" x1="1549" x2="1549" y1="408.6016" y2="421.6016"/><line style="stroke:#181818;stroke-width:1.0;stroke-dasharray:2.0,2.0;" x1="1502" x2="1549" y1="421.6016" y2="421.6016"/><polygon fill="#181818" points="1512,417.6016,1502,421.6016,1512,425.6016,1508,421.6016" style="stroke:#181818;stroke-width:1.0;"/><text fill="#000000" font-family="sans-serif" font-size="13" lengthAdjust="spacing" textLength="20" x="1514" y="403.7451">flag</text><line style="stroke:#181818;stroke-width:1.0;" x1="1502" x2="1549" y1="441.9531" y2="441.9531"/><line style="stroke:#181818;stroke-width:1.0;" x1="1549" x2="1549" y1="441.9531" y2="454.9531"/><line style="stroke:#181818;stroke-width:1.0;" x1="1508" x2="1549" y1="454.9531" y2="454.9531"/><polygon fill="#181818" points="1518,450.9531,1508,454.9531,1518,458.9531,1514,454.9531" style="stroke:#181818;stroke-width:1.0;"/><text fill="#000000" font-family="sans-serif" font-size="13" lengthAdjust="spacing" textLength="263" x="1514" y="437.0967">validatePhoneNumberIsUnique(phoneNumber)</text><line style="stroke:#181818;stroke-width:1.0;stroke-dasharray:2.0,2.0;" x1="1507" x2="1549" y1="495.3047" y2="495.3047"/><line style="stroke:#181818;stroke-width:1.0;stroke-dasharray:2.0,2.0;" x1="1549" x2="1549" y1="495.3047" y2="508.3047"/><line style="stroke:#181818;stroke-width:1.0;stroke-dasharray:2.0,2.0;" x1="1502" x2="1549" y1="508.3047" y2="508.3047"/><polygon fill="#181818" points="1512,504.3047,1502,508.3047,1512,512.3047,1508,508.3047" style="stroke:#181818;stroke-width:1.0;"/><text fill="#000000" font-family="sans-serif" font-size="13" lengthAdjust="spacing" textLength="20" x="1514" y="490.4482">flag</text><polygon fill="#181818" points="2434,529.6563,2444,533.6563,2434,537.6563,2438,533.6563" style="stroke:#181818;stroke-width:1.0;"/><line style="stroke:#181818;stroke-width:1.0;" x1="1502" x2="2440" y1="533.6563" y2="533.6563"/><text fill="#000000" font-family="sans-serif" font-size="13" lengthAdjust="spacing" textLength="115" x="1509" y="528.7998">logChanges(patient)</text><polygon fill="#181818" points="2622.5,560.0078,2632.5,564.0078,2622.5,568.0078,2626.5,564.0078" style="stroke:#181818;stroke-width:1.0;"/><line style="stroke:#181818;stroke-width:1.0;" x1="1502" x2="2628.5" y1="564.0078" y2="564.0078"/><text fill="#000000" font-family="sans-serif" font-size="13" lengthAdjust="spacing" textLength="137" x="1509" y="559.1514">changeFullName(name)</text><path d="M1442,579.0078 L1503,579.0078 L1503,587.3594 L1493,597.3594 L1442,597.3594 L1442,579.0078 " fill="#EEEEEE" style="stroke:#000000;stroke-width:1.5;"/><rect fill="none" height="170.1094" style="stroke:#000000;stroke-width:1.5;" width="1153.5" x="1442" y="579.0078"/><text fill="#000000" font-family="sans-serif" font-size="13" font-weight="bold" lengthAdjust="spacing" textLength="16" x="1457" y="593.5029">alt</text><text fill="#000000" font-family="sans-serif" font-size="11" font-weight="bold" lengthAdjust="spacing" textLength="202" x="1518" y="592.4268">[information contains sensitive data]</text><polygon fill="#181818" points="1967.5,615.7109,1977.5,619.7109,1967.5,623.7109,1971.5,619.7109" style="stroke:#181818;stroke-width:1.0;"/><line style="stroke:#181818;stroke-width:1.0;" x1="1502" x2="1973.5" y1="619.7109" y2="619.7109"/><text fill="#000000" font-family="sans-serif" font-size="13" lengthAdjust="spacing" textLength="118" x="1509" y="614.8545">generateToken(user)</text><polygon fill="#181818" points="1513,646.0625,1503,650.0625,1513,654.0625,1509,650.0625" style="stroke:#181818;stroke-width:1.0;"/><line style="stroke:#181818;stroke-width:1.0;stroke-dasharray:2.0,2.0;" x1="1507" x2="1983.5" y1="650.0625" y2="650.0625"/><text fill="#000000" font-family="sans-serif" font-size="13" lengthAdjust="spacing" textLength="32" x="1519" y="645.2061">token</text><polygon fill="#181818" points="2534.5,676.4141,2544.5,680.4141,2534.5,684.4141,2538.5,680.4141" style="stroke:#181818;stroke-width:1.0;"/><line style="stroke:#181818;stroke-width:1.0;" x1="1502" x2="2540.5" y1="680.4141" y2="680.4141"/><text fill="#000000" font-family="sans-serif" font-size="13" lengthAdjust="spacing" textLength="354" x="1509" y="675.5576">setConfirmationEditPatientToken(token, tokenExpirationDate)</text><polygon fill="#181818" points="2181,706.7656,2191,710.7656,2181,714.7656,2185,710.7656" style="stroke:#181818;stroke-width:1.0;"/><line style="stroke:#181818;stroke-width:1.0;" x1="1502" x2="2187" y1="710.7656" y2="710.7656"/><text fill="#000000" font-family="sans-serif" font-size="13" lengthAdjust="spacing" textLength="59" x="1509" y="705.9092">save(user)</text><polygon fill="#181818" points="1772,737.1172,1782,741.1172,1772,745.1172,1776,741.1172" style="stroke:#181818;stroke-width:1.0;"/><line style="stroke:#181818;stroke-width:1.0;" x1="1502" x2="1778" y1="741.1172" y2="741.1172"/><text fill="#000000" font-family="sans-serif" font-size="13" lengthAdjust="spacing" textLength="140" x="1509" y="736.2607">sendEmail(email, token)</text><polygon fill="#181818" points="2719.5,774.4688,2729.5,778.4688,2719.5,782.4688,2723.5,778.4688" style="stroke:#181818;stroke-width:1.0;"/><line style="stroke:#181818;stroke-width:1.0;" x1="1502" x2="2725.5" y1="778.4688" y2="778.4688"/><text fill="#000000" font-family="sans-serif" font-size="13" lengthAdjust="spacing" textLength="84" x="1509" y="773.6123">toDTO(patient)</text><polygon fill="#181818" points="1513,804.8203,1503,808.8203,1513,812.8203,1509,808.8203" style="stroke:#181818;stroke-width:1.0;"/><line style="stroke:#181818;stroke-width:1.0;stroke-dasharray:2.0,2.0;" x1="1507" x2="2735.5" y1="808.8203" y2="808.8203"/><text fill="#000000" font-family="sans-serif" font-size="13" lengthAdjust="spacing" textLength="65" x="1519" y="803.9639">patientDTO</text><polygon fill="#181818" points="928,835.1719,918,839.1719,928,843.1719,924,839.1719" style="stroke:#181818;stroke-width:1.0;"/><line style="stroke:#181818;stroke-width:1.0;" x1="922" x2="1491" y1="839.1719" y2="839.1719"/><text fill="#000000" font-family="sans-serif" font-size="13" lengthAdjust="spacing" textLength="551" x="934" y="834.3154">createConfirmationEditPatientDTO(patientDTO, token, email, emailToEdit, phoneNumberToEdit)</text><rect fill="#E2E2F0" height="49.2188" rx="2.5" ry="2.5" style="stroke:#181818;stroke-width:0.5;" width="211" x="706" y="816.8203"/><text fill="#000000" font-family="sans-serif" font-size="14" font-style="italic" lengthAdjust="spacing" textLength="46" x="788.5" y="838.3535">&#171;DTO&#187;</text><text fill="#000000" font-family="sans-serif" font-size="14" lengthAdjust="spacing" textLength="197" x="713" y="855.9629">ConfirmationEditingPatientDTO</text><polygon fill="#181818" points="402,895.3906,392,899.3906,402,903.3906,398,899.3906" style="stroke:#181818;stroke-width:1.0;"/><line style="stroke:#181818;stroke-width:1.0;stroke-dasharray:2.0,2.0;" x1="396" x2="1496" y1="899.3906" y2="899.3906"/><text fill="#000000" font-family="sans-serif" font-size="13" lengthAdjust="spacing" textLength="160" x="408" y="894.5342">confirmationEditPatientDTO</text><polygon fill="#181818" points="299,925.7422,289,929.7422,299,933.7422,295,929.7422" style="stroke:#181818;stroke-width:1.0;"/><line style="stroke:#181818;stroke-width:1.0;stroke-dasharray:2.0,2.0;" x1="293" x2="385" y1="929.7422" y2="929.7422"/><text fill="#000000" font-family="sans-serif" font-size="13" lengthAdjust="spacing" textLength="53" x="305" y="924.8857">response</text><polygon fill="#181818" points="11,956.0938,1,960.0938,11,964.0938,7,960.0938" style="stroke:#181818;stroke-width:1.0;"/><line style="stroke:#181818;stroke-width:1.0;stroke-dasharray:2.0,2.0;" x1="5" x2="277" y1="960.0938" y2="960.0938"/><text fill="#000000" font-family="sans-serif" font-size="13" lengthAdjust="spacing" textLength="53" x="17" y="955.2373">response</text><!--SRC=[ZLLDZziW4BtxLt1qLebyjr2aDjr-IEqsQhEddbXduaLrW0As6bNzxnq-71CIx_PY1lpUOsPuneffonkkcB3aqO3-9diBX1aI0ahzk5uNAWDkfB1QTXreXqvcb4wJZ7U_vvQBTiii1s7VxRuwgXienMS6HfK3rqV4Id6Jc0BcH5octq4FlF55ZI6bCSeJF3BU9VYB-HnfFj6T_0dY0mZGp4hVfsnbJjAV12XfEA9E_ZYc6Px9UPBnuhwNrEl5rnK-oxOD9niZRAx4PeWRYJgK7sSmKJ99vHNa5wPKa8qHfI50-0-vMWTlrcJxPhVvICgAALxrc82fL10mrPzEjhxNVol08raKhB5yOEXepos2kr4gCUueE66dbqM2GnOQxUuE2HeQ3WCO37xrO2nvaliJuU8WCyBeePguT6ATvPMjapmZenYPhkpf16jou6Blklxsv4rQWdkcTPx1XGRRQq5SYrAvQry4rRW-9tn56_LZyzCjfh87rl4zqhtc9_CeE3RiIdiiEYeUEjQ-BBTzbW8U-kCJwBEecjR-NphQl2PedCqp4osOCXQqkD4q13OUzRxlkWTsX5BW0xVhh3_-U1sG1bs0FZV4WC1kyG48firInUnAg4aROl0lIdTgIHcNwB4QwrPJKVyzrhYhpM-dz6egFMyPwFU_5TVXCiMD5hF6Cso0c5K2kRWftSPYdzWdRh4eS3bbnU-xnjVe_gdXvt8387COGbEHx3_WFyn60z9dQa-smZ3cjYGnKp_ifCClIUAbiBGOSsbcjKU41gEaC53GrIh-JklpuZy0]--></g></svg>