<?xml version="1.0" encoding="us-ascii" standalone="no"?><svg xmlns="http://www.w3.org/2000/svg" xmlns:xlink="http://www.w3.org/1999/xlink" contentStyleType="text/css" height="731px" preserveAspectRatio="none" style="width:1522px;height:731px;background:#FFFFFF;" version="1.1" viewBox="0 0 1522 731" width="1522px" zoomAndPan="magnify"><defs/><g><rect fill="#FFFFFF" height="571.8438" style="stroke:#181818;stroke-width:1.0;" width="10" x="325" y="87.5703"/><rect fill="#FFFFFF" height="511.1406" style="stroke:#181818;stroke-width:1.0;" width="10" x="428" y="117.9219"/><rect fill="#FFFFFF" height="390.2188" style="stroke:#181818;stroke-width:1.0;" width="10" x="941" y="208.4922"/><rect fill="#FFFFFF" height="41.3516" style="stroke:#181818;stroke-width:1.0;" width="10" x="946" y="307.5469"/><rect fill="#FFFFFF" height="30.3516" style="stroke:#181818;stroke-width:1.0;" width="10" x="1116" y="238.8438"/><rect fill="#FFFFFF" height="30.3516" style="stroke:#181818;stroke-width:1.0;" width="10" x="1244.5" y="386.25"/><rect fill="#FFFFFF" height="30.3516" style="stroke:#181818;stroke-width:1.0;" width="10" x="1458.5" y="538.0078"/><line style="stroke:#181818;stroke-width:0.5;stroke-dasharray:5.0,5.0;" x1="329.5" x2="329.5" y1="55.2188" y2="677.4141"/><line style="stroke:#181818;stroke-width:0.5;stroke-dasharray:5.0,5.0;" x1="432.5" x2="432.5" y1="55.2188" y2="677.4141"/><line style="stroke:#181818;stroke-width:0.5;stroke-dasharray:5.0,5.0;" x1="751" x2="751" y1="166.0313" y2="677.4141"/><line style="stroke:#181818;stroke-width:0.5;stroke-dasharray:5.0,5.0;" x1="946" x2="946" y1="55.2188" y2="677.4141"/><line style="stroke:#181818;stroke-width:0.5;stroke-dasharray:5.0,5.0;" x1="1120.5" x2="1120.5" y1="55.2188" y2="677.4141"/><line style="stroke:#181818;stroke-width:0.5;stroke-dasharray:5.0,5.0;" x1="1249.5" x2="1249.5" y1="55.2188" y2="677.4141"/><line style="stroke:#181818;stroke-width:0.5;stroke-dasharray:5.0,5.0;" x1="1361.5" x2="1361.5" y1="55.2188" y2="677.4141"/><line style="stroke:#181818;stroke-width:0.5;stroke-dasharray:5.0,5.0;" x1="1463.5" x2="1463.5" y1="55.2188" y2="677.4141"/><rect fill="#E2E2F0" height="49.2188" rx="2.5" ry="2.5" style="stroke:#181818;stroke-width:0.5;" width="81" x="289.5" y="5"/><text fill="#000000" font-family="sans-serif" font-size="14" font-style="italic" lengthAdjust="spacing" textLength="54" x="303" y="26.5332">&#171;Route&#187;</text><text fill="#000000" font-family="sans-serif" font-size="14" lengthAdjust="spacing" textLength="67" x="296.5" y="44.1426">UserRoute</text><rect fill="#E2E2F0" height="49.2188" rx="2.5" ry="2.5" style="stroke:#181818;stroke-width:0.5;" width="81" x="289.5" y="676.4141"/><text fill="#000000" font-family="sans-serif" font-size="14" font-style="italic" lengthAdjust="spacing" textLength="54" x="303" y="697.9473">&#171;Route&#187;</text><text fill="#000000" font-family="sans-serif" font-size="14" lengthAdjust="spacing" textLength="67" x="296.5" y="715.5566">UserRoute</text><rect fill="#E2E2F0" height="49.2188" rx="2.5" ry="2.5" style="stroke:#181818;stroke-width:0.5;" width="105" x="380.5" y="5"/><text fill="#000000" font-family="sans-serif" font-size="14" font-style="italic" lengthAdjust="spacing" textLength="78" x="394" y="26.5332">&#171;Controller&#187;</text><text fill="#000000" font-family="sans-serif" font-size="14" lengthAdjust="spacing" textLength="91" x="387.5" y="44.1426">UserController</text><rect fill="#E2E2F0" height="49.2188" rx="2.5" ry="2.5" style="stroke:#181818;stroke-width:0.5;" width="105" x="380.5" y="676.4141"/><text fill="#000000" font-family="sans-serif" font-size="14" font-style="italic" lengthAdjust="spacing" textLength="78" x="394" y="697.9473">&#171;Controller&#187;</text><text fill="#000000" font-family="sans-serif" font-size="14" lengthAdjust="spacing" textLength="91" x="387.5" y="715.5566">UserController</text><rect fill="#E2E2F0" height="49.2188" rx="2.5" ry="2.5" style="stroke:#181818;stroke-width:0.5;" width="279" x="612" y="676.4141"/><text fill="#000000" font-family="sans-serif" font-size="14" font-style="italic" lengthAdjust="spacing" textLength="46" x="728.5" y="697.9473">&#171;DTO&#187;</text><text fill="#000000" font-family="sans-serif" font-size="14" lengthAdjust="spacing" textLength="265" x="619" y="715.5566">ConfirmationEditPatientSensitiveDataDTO</text><rect fill="#E2E2F0" height="49.2188" rx="2.5" ry="2.5" style="stroke:#181818;stroke-width:0.5;" width="90" x="901" y="5"/><text fill="#000000" font-family="sans-serif" font-size="14" font-style="italic" lengthAdjust="spacing" textLength="62" x="915" y="26.5332">&#171;Service&#187;</text><text fill="#000000" font-family="sans-serif" font-size="14" lengthAdjust="spacing" textLength="76" x="908" y="44.1426">UserService</text><rect fill="#E2E2F0" height="49.2188" rx="2.5" ry="2.5" style="stroke:#181818;stroke-width:0.5;" width="90" x="901" y="676.4141"/><text fill="#000000" font-family="sans-serif" font-size="14" font-style="italic" lengthAdjust="spacing" textLength="62" x="915" y="697.9473">&#171;Service&#187;</text><text fill="#000000" font-family="sans-serif" font-size="14" lengthAdjust="spacing" textLength="76" x="908" y="715.5566">UserService</text><rect fill="#E2E2F0" height="49.2188" rx="2.5" ry="2.5" style="stroke:#181818;stroke-width:0.5;" width="111" x="1065.5" y="5"/><text fill="#000000" font-family="sans-serif" font-size="14" font-style="italic" lengthAdjust="spacing" textLength="84" x="1079" y="26.5332">&#171;Repository&#187;</text><text fill="#000000" font-family="sans-serif" font-size="14" lengthAdjust="spacing" textLength="97" x="1072.5" y="44.1426">UserRepository</text><rect fill="#E2E2F0" height="49.2188" rx="2.5" ry="2.5" style="stroke:#181818;stroke-width:0.5;" width="111" x="1065.5" y="676.4141"/><text fill="#000000" font-family="sans-serif" font-size="14" font-style="italic" lengthAdjust="spacing" textLength="84" x="1079" y="697.9473">&#171;Repository&#187;</text><text fill="#000000" font-family="sans-serif" font-size="14" lengthAdjust="spacing" textLength="97" x="1072.5" y="715.5566">UserRepository</text><rect fill="#E2E2F0" height="49.2188" rx="2.5" ry="2.5" style="stroke:#181818;stroke-width:0.5;" width="126" x="1186.5" y="5"/><text fill="#000000" font-family="sans-serif" font-size="14" font-style="italic" lengthAdjust="spacing" textLength="84" x="1207.5" y="26.5332">&#171;Repository&#187;</text><text fill="#000000" font-family="sans-serif" font-size="14" lengthAdjust="spacing" textLength="112" x="1193.5" y="44.1426">PatientRepository</text><rect fill="#E2E2F0" height="49.2188" rx="2.5" ry="2.5" style="stroke:#181818;stroke-width:0.5;" width="126" x="1186.5" y="676.4141"/><text fill="#000000" font-family="sans-serif" font-size="14" font-style="italic" lengthAdjust="spacing" textLength="84" x="1207.5" y="697.9473">&#171;Repository&#187;</text><text fill="#000000" font-family="sans-serif" font-size="14" lengthAdjust="spacing" textLength="112" x="1193.5" y="715.5566">PatientRepository</text><rect fill="#E2E2F0" height="49.2188" rx="2.5" ry="2.5" style="stroke:#181818;stroke-width:0.5;" width="78" x="1322.5" y="5"/><text fill="#000000" font-family="sans-serif" font-size="14" font-style="italic" lengthAdjust="spacing" textLength="64" x="1329.5" y="26.5332">&#171;Domain&#187;</text><text fill="#000000" font-family="sans-serif" font-size="14" lengthAdjust="spacing" textLength="44" x="1339.5" y="44.1426">Patient</text><rect fill="#E2E2F0" height="49.2188" rx="2.5" ry="2.5" style="stroke:#181818;stroke-width:0.5;" width="78" x="1322.5" y="676.4141"/><text fill="#000000" font-family="sans-serif" font-size="14" font-style="italic" lengthAdjust="spacing" textLength="64" x="1329.5" y="697.9473">&#171;Domain&#187;</text><text fill="#000000" font-family="sans-serif" font-size="14" lengthAdjust="spacing" textLength="44" x="1339.5" y="715.5566">Patient</text><rect fill="#E2E2F0" height="49.2188" rx="2.5" ry="2.5" style="stroke:#181818;stroke-width:0.5;" width="106" x="1410.5" y="5"/><text fill="#000000" font-family="sans-serif" font-size="14" font-style="italic" lengthAdjust="spacing" textLength="65" x="1431" y="26.5332">&#171;Mapper&#187;</text><text fill="#000000" font-family="sans-serif" font-size="14" lengthAdjust="spacing" textLength="92" x="1417.5" y="44.1426">PatientMapper</text><rect fill="#E2E2F0" height="49.2188" rx="2.5" ry="2.5" style="stroke:#181818;stroke-width:0.5;" width="106" x="1410.5" y="676.4141"/><text fill="#000000" font-family="sans-serif" font-size="14" font-style="italic" lengthAdjust="spacing" textLength="65" x="1431" y="697.9473">&#171;Mapper&#187;</text><text fill="#000000" font-family="sans-serif" font-size="14" lengthAdjust="spacing" textLength="92" x="1417.5" y="715.5566">PatientMapper</text><rect fill="#FFFFFF" height="571.8438" style="stroke:#181818;stroke-width:1.0;" width="10" x="325" y="87.5703"/><rect fill="#FFFFFF" height="511.1406" style="stroke:#181818;stroke-width:1.0;" width="10" x="428" y="117.9219"/><rect fill="#FFFFFF" height="390.2188" style="stroke:#181818;stroke-width:1.0;" width="10" x="941" y="208.4922"/><rect fill="#FFFFFF" height="41.3516" style="stroke:#181818;stroke-width:1.0;" width="10" x="946" y="307.5469"/><rect fill="#FFFFFF" height="30.3516" style="stroke:#181818;stroke-width:1.0;" width="10" x="1116" y="238.8438"/><rect fill="#FFFFFF" height="30.3516" style="stroke:#181818;stroke-width:1.0;" width="10" x="1244.5" y="386.25"/><rect fill="#FFFFFF" height="30.3516" style="stroke:#181818;stroke-width:1.0;" width="10" x="1458.5" y="538.0078"/><ellipse cx="7.5" cy="86.8203" fill="none" rx="4" ry="4" style="stroke:#181818;stroke-width:1.5;"/><polygon fill="#181818" points="313,83.5703,323,87.5703,313,91.5703,317,87.5703" style="stroke:#181818;stroke-width:1.0;"/><line style="stroke:#181818;stroke-width:1.0;" x1="12" x2="319" y1="87.5703" y2="87.5703"/><text fill="#000000" font-family="sans-serif" font-size="13" lengthAdjust="spacing" textLength="298" x="15" y="82.7139">PATCH (/api/user/patients/edit/confirmation/{token})</text><polygon fill="#181818" points="416,113.9219,426,117.9219,416,121.9219,420,117.9219" style="stroke:#181818;stroke-width:1.0;"/><line style="stroke:#181818;stroke-width:1.0;" x1="335" x2="422" y1="117.9219" y2="117.9219"/><text fill="#000000" font-family="sans-serif" font-size="13" lengthAdjust="spacing" textLength="43" x="342" y="113.0654">PATCH</text><polygon fill="#181818" points="600,144.2734,610,148.2734,600,152.2734,604,148.2734" style="stroke:#181818;stroke-width:1.0;"/><line style="stroke:#181818;stroke-width:1.0;" x1="438" x2="606" y1="148.2734" y2="148.2734"/><text fill="#000000" font-family="sans-serif" font-size="13" lengthAdjust="spacing" textLength="150" x="445" y="143.417">recieves request body info</text><rect fill="#E2E2F0" height="49.2188" rx="2.5" ry="2.5" style="stroke:#181818;stroke-width:0.5;" width="279" x="612" y="125.9219"/><text fill="#000000" font-family="sans-serif" font-size="14" font-style="italic" lengthAdjust="spacing" textLength="46" x="728.5" y="147.4551">&#171;DTO&#187;</text><text fill="#000000" font-family="sans-serif" font-size="14" lengthAdjust="spacing" textLength="265" x="619" y="165.0645">ConfirmationEditPatientSensitiveDataDTO</text><polygon fill="#181818" points="929,204.4922,939,208.4922,929,212.4922,933,208.4922" style="stroke:#181818;stroke-width:1.0;"/><line style="stroke:#181818;stroke-width:1.0;" x1="438" x2="935" y1="208.4922" y2="208.4922"/><text fill="#000000" font-family="sans-serif" font-size="13" lengthAdjust="spacing" textLength="432" x="445" y="203.6357">confirmEditPatientSensitiveData(confirmationEditPatientSensitiveDataDTO)</text><polygon fill="#181818" points="1104,234.8438,1114,238.8438,1104,242.8438,1108,238.8438" style="stroke:#181818;stroke-width:1.0;"/><line style="stroke:#181818;stroke-width:1.0;" x1="951" x2="1110" y1="238.8438" y2="238.8438"/><text fill="#000000" font-family="sans-serif" font-size="13" lengthAdjust="spacing" textLength="135" x="958" y="233.9873">findUserByEmail(email)</text><polygon fill="#181818" points="962,265.1953,952,269.1953,962,273.1953,958,269.1953" style="stroke:#181818;stroke-width:1.0;"/><line style="stroke:#181818;stroke-width:1.0;stroke-dasharray:2.0,2.0;" x1="956" x2="1120" y1="269.1953" y2="269.1953"/><text fill="#000000" font-family="sans-serif" font-size="13" lengthAdjust="spacing" textLength="25" x="968" y="264.3389">user</text><line style="stroke:#181818;stroke-width:1.0;" x1="951" x2="998" y1="294.5469" y2="294.5469"/><line style="stroke:#181818;stroke-width:1.0;" x1="998" x2="998" y1="294.5469" y2="307.5469"/><line style="stroke:#181818;stroke-width:1.0;" x1="957" x2="998" y1="307.5469" y2="307.5469"/><polygon fill="#181818" points="967,303.5469,957,307.5469,967,311.5469,963,307.5469" style="stroke:#181818;stroke-width:1.0;"/><text fill="#000000" font-family="sans-serif" font-size="13" lengthAdjust="spacing" textLength="151" x="963" y="289.6904">validateToken(user, token)</text><line style="stroke:#181818;stroke-width:1.0;stroke-dasharray:2.0,2.0;" x1="956" x2="998" y1="347.8984" y2="347.8984"/><line style="stroke:#181818;stroke-width:1.0;stroke-dasharray:2.0,2.0;" x1="998" x2="998" y1="347.8984" y2="360.8984"/><line style="stroke:#181818;stroke-width:1.0;stroke-dasharray:2.0,2.0;" x1="951" x2="998" y1="360.8984" y2="360.8984"/><polygon fill="#181818" points="961,356.8984,951,360.8984,961,364.8984,957,360.8984" style="stroke:#181818;stroke-width:1.0;"/><text fill="#000000" font-family="sans-serif" font-size="13" lengthAdjust="spacing" textLength="20" x="963" y="343.042">flag</text><polygon fill="#181818" points="1232.5,382.25,1242.5,386.25,1232.5,390.25,1236.5,386.25" style="stroke:#181818;stroke-width:1.0;"/><line style="stroke:#181818;stroke-width:1.0;" x1="951" x2="1238.5" y1="386.25" y2="386.25"/><text fill="#000000" font-family="sans-serif" font-size="13" lengthAdjust="spacing" textLength="149" x="958" y="381.3936">findPatientByEmail(email)</text><polygon fill="#181818" points="962,412.6016,952,416.6016,962,420.6016,958,416.6016" style="stroke:#181818;stroke-width:1.0;"/><line style="stroke:#181818;stroke-width:1.0;stroke-dasharray:2.0,2.0;" x1="956" x2="1248.5" y1="416.6016" y2="416.6016"/><text fill="#000000" font-family="sans-serif" font-size="13" lengthAdjust="spacing" textLength="39" x="968" y="411.7451">patient</text><polygon fill="#181818" points="1349.5,442.9531,1359.5,446.9531,1349.5,450.9531,1353.5,446.9531" style="stroke:#181818;stroke-width:1.0;"/><line style="stroke:#181818;stroke-width:1.0;" x1="951" x2="1355.5" y1="446.9531" y2="446.9531"/><text fill="#000000" font-family="sans-serif" font-size="13" lengthAdjust="spacing" textLength="114" x="958" y="442.0967">changeEmail(email)</text><polygon fill="#181818" points="1349.5,473.3047,1359.5,477.3047,1349.5,481.3047,1353.5,477.3047" style="stroke:#181818;stroke-width:1.0;"/><line style="stroke:#181818;stroke-width:1.0;" x1="951" x2="1355.5" y1="477.3047" y2="477.3047"/><text fill="#000000" font-family="sans-serif" font-size="13" lengthAdjust="spacing" textLength="212" x="958" y="472.4482">changePhoneNumber(phoneNumber)</text><polygon fill="#181818" points="1237.5,503.6563,1247.5,507.6563,1237.5,511.6563,1241.5,507.6563" style="stroke:#181818;stroke-width:1.0;"/><line style="stroke:#181818;stroke-width:1.0;" x1="951" x2="1243.5" y1="507.6563" y2="507.6563"/><text fill="#000000" font-family="sans-serif" font-size="13" lengthAdjust="spacing" textLength="73" x="958" y="502.7998">save(patient)</text><polygon fill="#181818" points="1446.5,534.0078,1456.5,538.0078,1446.5,542.0078,1450.5,538.0078" style="stroke:#181818;stroke-width:1.0;"/><line style="stroke:#181818;stroke-width:1.0;" x1="951" x2="1452.5" y1="538.0078" y2="538.0078"/><text fill="#000000" font-family="sans-serif" font-size="13" lengthAdjust="spacing" textLength="84" x="958" y="533.1514">toDTO(patient)</text><polygon fill="#181818" points="962,564.3594,952,568.3594,962,572.3594,958,568.3594" style="stroke:#181818;stroke-width:1.0;"/><line style="stroke:#181818;stroke-width:1.0;stroke-dasharray:2.0,2.0;" x1="956" x2="1462.5" y1="568.3594" y2="568.3594"/><text fill="#000000" font-family="sans-serif" font-size="13" lengthAdjust="spacing" textLength="65" x="968" y="563.5029">patientDTO</text><polygon fill="#181818" points="449,594.7109,439,598.7109,449,602.7109,445,598.7109" style="stroke:#181818;stroke-width:1.0;"/><line style="stroke:#181818;stroke-width:1.0;stroke-dasharray:2.0,2.0;" x1="443" x2="945" y1="598.7109" y2="598.7109"/><text fill="#000000" font-family="sans-serif" font-size="13" lengthAdjust="spacing" textLength="65" x="455" y="593.8545">patientDTO</text><polygon fill="#181818" points="346,625.0625,336,629.0625,346,633.0625,342,629.0625" style="stroke:#181818;stroke-width:1.0;"/><line style="stroke:#181818;stroke-width:1.0;stroke-dasharray:2.0,2.0;" x1="340" x2="432" y1="629.0625" y2="629.0625"/><text fill="#000000" font-family="sans-serif" font-size="13" lengthAdjust="spacing" textLength="53" x="352" y="624.2061">response</text><polygon fill="#181818" points="11,655.4141,1,659.4141,11,663.4141,7,659.4141" style="stroke:#181818;stroke-width:1.0;"/><ellipse cx="329.5" cy="658.6641" fill="none" rx="4" ry="4" style="stroke:#181818;stroke-width:1.5;"/><line style="stroke:#181818;stroke-width:1.0;stroke-dasharray:2.0,2.0;" x1="5" x2="325" y1="659.4141" y2="659.4141"/><text fill="#000000" font-family="sans-serif" font-size="13" lengthAdjust="spacing" textLength="53" x="17" y="654.5576">response</text><!--SRC=[ZLJ1ReCm3Btp5JdIQXDt55NQsagxRAlQxhHJIaqRZIPP4f2gQVy-1q89b6wxW1tUUx6VBHJJbcTSCM79cm6zbgK5mWnf0ahhzsmMgG5mBeNLiYX0EtIGKTeb0nv-oBa-CSkbMEwvNM44mcv066vv1GjcsMBxwWKlK7T4AJv7ojY0hdXMLzo6bFfe1Bu69V4kgSzrZrs6ZLwI0SzNsQTU7_OLo9X4G7GDoHFZOlooPwPKuwoFA6q2XB_B-vaVJqfM3zlv4uaJfdXIOeE9QWHC0cXmaWKs9bzMVe3udaGiGxSPyckLgD52qM2ANhc3Tj-Y0DQGmabDfyZLa76em63mMOAnP2VtPy95BWVaTcOfyPNUMeiu-z_k1CrvxQYzmxdMZIibEHTxjnEFvoKEeeZ1FKDpBk18Wosr8CxWKAwhlc85toDfwnoE7UwEr6wFrEF5ye8TGh7hZMfAzEUtghoYjVf-4KQkS6uVcJX0J_4NtEee1RoKfnteM7NnvA_o3QiWzdNqm7wfK_G8PzP1BbqrW44hxZzmVTIUQ31A2WF3_0S0]--></g></svg>