<?xml version="1.0" encoding="us-ascii" standalone="no"?><svg xmlns="http://www.w3.org/2000/svg" xmlns:xlink="http://www.w3.org/1999/xlink" contentStyleType="text/css" height="926px" preserveAspectRatio="none" style="width:1470px;height:926px;background:#FFFFFF;" version="1.1" viewBox="0 0 1470 926" width="1470px" zoomAndPan="magnify"><defs/><g><rect fill="#FFFFFF" height="775.25" style="stroke:#181818;stroke-width:1.0;" width="10" x="214" y="87.5703"/><rect fill="#FFFFFF" height="705.5469" style="stroke:#181818;stroke-width:1.0;" width="10" x="317" y="117.9219"/><rect fill="#FFFFFF" height="584.625" style="stroke:#181818;stroke-width:1.0;" width="10" x="682" y="208.4922"/><rect fill="#FFFFFF" height="41.3516" style="stroke:#181818;stroke-width:1.0;" width="10" x="687" y="307.5469"/><rect fill="#FFFFFF" height="41.3516" style="stroke:#181818;stroke-width:1.0;" width="10" x="687" y="394.25"/><rect fill="#FFFFFF" height="28" style="stroke:#181818;stroke-width:1.0;" width="10" x="687" y="627.7109"/><rect fill="#FFFFFF" height="30.3516" style="stroke:#181818;stroke-width:1.0;" width="10" x="1082" y="238.8438"/><rect fill="#FFFFFF" height="30.3516" style="stroke:#181818;stroke-width:1.0;" width="10" x="1210.5" y="472.9531"/><rect fill="none" height="152.4063" style="stroke:#000000;stroke-width:1.5;" width="832.5" x="632" y="518.3047"/><rect fill="none" height="79.0547" style="stroke:#000000;stroke-width:1.5;" width="744.5" x="632" y="684.7109"/><line style="stroke:#181818;stroke-width:0.5;stroke-dasharray:5.0,5.0;" x1="218.5" x2="218.5" y1="55.2188" y2="871.8203"/><line style="stroke:#181818;stroke-width:0.5;stroke-dasharray:5.0,5.0;" x1="321.5" x2="321.5" y1="55.2188" y2="871.8203"/><line style="stroke:#181818;stroke-width:0.5;stroke-dasharray:5.0,5.0;" x1="566" x2="566" y1="166.0313" y2="871.8203"/><line style="stroke:#181818;stroke-width:0.5;stroke-dasharray:5.0,5.0;" x1="687" x2="687" y1="55.2188" y2="871.8203"/><line style="stroke:#181818;stroke-width:0.5;stroke-dasharray:5.0,5.0;" x1="973.5" x2="973.5" y1="55.2188" y2="871.8203"/><line style="stroke:#181818;stroke-width:0.5;stroke-dasharray:5.0,5.0;" x1="1086.5" x2="1086.5" y1="55.2188" y2="871.8203"/><line style="stroke:#181818;stroke-width:0.5;stroke-dasharray:5.0,5.0;" x1="1215.5" x2="1215.5" y1="55.2188" y2="871.8203"/><line style="stroke:#181818;stroke-width:0.5;stroke-dasharray:5.0,5.0;" x1="1327.5" x2="1327.5" y1="55.2188" y2="871.8203"/><line style="stroke:#181818;stroke-width:0.5;stroke-dasharray:5.0,5.0;" x1="1415.5" x2="1415.5" y1="55.2188" y2="871.8203"/><rect fill="#E2E2F0" height="49.2188" rx="2.5" ry="2.5" style="stroke:#181818;stroke-width:0.5;" width="81" x="178.5" y="5"/><text fill="#000000" font-family="sans-serif" font-size="14" font-style="italic" lengthAdjust="spacing" textLength="54" x="192" y="26.5332">&#171;Route&#187;</text><text fill="#000000" font-family="sans-serif" font-size="14" lengthAdjust="spacing" textLength="67" x="185.5" y="44.1426">UserRoute</text><rect fill="#E2E2F0" height="49.2188" rx="2.5" ry="2.5" style="stroke:#181818;stroke-width:0.5;" width="81" x="178.5" y="870.8203"/><text fill="#000000" font-family="sans-serif" font-size="14" font-style="italic" lengthAdjust="spacing" textLength="54" x="192" y="892.3535">&#171;Route&#187;</text><text fill="#000000" font-family="sans-serif" font-size="14" lengthAdjust="spacing" textLength="67" x="185.5" y="909.9629">UserRoute</text><rect fill="#E2E2F0" height="49.2188" rx="2.5" ry="2.5" style="stroke:#181818;stroke-width:0.5;" width="105" x="269.5" y="5"/><text fill="#000000" font-family="sans-serif" font-size="14" font-style="italic" lengthAdjust="spacing" textLength="78" x="283" y="26.5332">&#171;Controller&#187;</text><text fill="#000000" font-family="sans-serif" font-size="14" lengthAdjust="spacing" textLength="91" x="276.5" y="44.1426">UserController</text><rect fill="#E2E2F0" height="49.2188" rx="2.5" ry="2.5" style="stroke:#181818;stroke-width:0.5;" width="105" x="269.5" y="870.8203"/><text fill="#000000" font-family="sans-serif" font-size="14" font-style="italic" lengthAdjust="spacing" textLength="78" x="283" y="892.3535">&#171;Controller&#187;</text><text fill="#000000" font-family="sans-serif" font-size="14" lengthAdjust="spacing" textLength="91" x="276.5" y="909.9629">UserController</text><rect fill="#E2E2F0" height="49.2188" rx="2.5" ry="2.5" style="stroke:#181818;stroke-width:0.5;" width="131" x="501" y="870.8203"/><text fill="#000000" font-family="sans-serif" font-size="14" font-style="italic" lengthAdjust="spacing" textLength="46" x="543.5" y="892.3535">&#171;DTO&#187;</text><text fill="#000000" font-family="sans-serif" font-size="14" lengthAdjust="spacing" textLength="117" x="508" y="909.9629">EditingPatientDTO</text><rect fill="#E2E2F0" height="49.2188" rx="2.5" ry="2.5" style="stroke:#181818;stroke-width:0.5;" width="90" x="642" y="5"/><text fill="#000000" font-family="sans-serif" font-size="14" font-style="italic" lengthAdjust="spacing" textLength="62" x="656" y="26.5332">&#171;Service&#187;</text><text fill="#000000" font-family="sans-serif" font-size="14" lengthAdjust="spacing" textLength="76" x="649" y="44.1426">UserService</text><rect fill="#E2E2F0" height="49.2188" rx="2.5" ry="2.5" style="stroke:#181818;stroke-width:0.5;" width="90" x="642" y="870.8203"/><text fill="#000000" font-family="sans-serif" font-size="14" font-style="italic" lengthAdjust="spacing" textLength="62" x="656" y="892.3535">&#171;Service&#187;</text><text fill="#000000" font-family="sans-serif" font-size="14" lengthAdjust="spacing" textLength="76" x="649" y="909.9629">UserService</text><rect fill="#E2E2F0" height="49.2188" rx="2.5" ry="2.5" style="stroke:#181818;stroke-width:0.5;" width="95" x="926.5" y="5"/><text fill="#000000" font-family="sans-serif" font-size="14" font-style="italic" lengthAdjust="spacing" textLength="62" x="943" y="26.5332">&#171;Service&#187;</text><text fill="#000000" font-family="sans-serif" font-size="14" lengthAdjust="spacing" textLength="81" x="933.5" y="44.1426">EmailService</text><rect fill="#E2E2F0" height="49.2188" rx="2.5" ry="2.5" style="stroke:#181818;stroke-width:0.5;" width="95" x="926.5" y="870.8203"/><text fill="#000000" font-family="sans-serif" font-size="14" font-style="italic" lengthAdjust="spacing" textLength="62" x="943" y="892.3535">&#171;Service&#187;</text><text fill="#000000" font-family="sans-serif" font-size="14" lengthAdjust="spacing" textLength="81" x="933.5" y="909.9629">EmailService</text><rect fill="#E2E2F0" height="49.2188" rx="2.5" ry="2.5" style="stroke:#181818;stroke-width:0.5;" width="111" x="1031.5" y="5"/><text fill="#000000" font-family="sans-serif" font-size="14" font-style="italic" lengthAdjust="spacing" textLength="84" x="1045" y="26.5332">&#171;Repository&#187;</text><text fill="#000000" font-family="sans-serif" font-size="14" lengthAdjust="spacing" textLength="97" x="1038.5" y="44.1426">UserRepository</text><rect fill="#E2E2F0" height="49.2188" rx="2.5" ry="2.5" style="stroke:#181818;stroke-width:0.5;" width="111" x="1031.5" y="870.8203"/><text fill="#000000" font-family="sans-serif" font-size="14" font-style="italic" lengthAdjust="spacing" textLength="84" x="1045" y="892.3535">&#171;Repository&#187;</text><text fill="#000000" font-family="sans-serif" font-size="14" lengthAdjust="spacing" textLength="97" x="1038.5" y="909.9629">UserRepository</text><rect fill="#E2E2F0" height="49.2188" rx="2.5" ry="2.5" style="stroke:#181818;stroke-width:0.5;" width="126" x="1152.5" y="5"/><text fill="#000000" font-family="sans-serif" font-size="14" font-style="italic" lengthAdjust="spacing" textLength="84" x="1173.5" y="26.5332">&#171;Repository&#187;</text><text fill="#000000" font-family="sans-serif" font-size="14" lengthAdjust="spacing" textLength="112" x="1159.5" y="44.1426">PatientRepository</text><rect fill="#E2E2F0" height="49.2188" rx="2.5" ry="2.5" style="stroke:#181818;stroke-width:0.5;" width="126" x="1152.5" y="870.8203"/><text fill="#000000" font-family="sans-serif" font-size="14" font-style="italic" lengthAdjust="spacing" textLength="84" x="1173.5" y="892.3535">&#171;Repository&#187;</text><text fill="#000000" font-family="sans-serif" font-size="14" lengthAdjust="spacing" textLength="112" x="1159.5" y="909.9629">PatientRepository</text><rect fill="#E2E2F0" height="49.2188" rx="2.5" ry="2.5" style="stroke:#181818;stroke-width:0.5;" width="78" x="1288.5" y="5"/><text fill="#000000" font-family="sans-serif" font-size="14" font-style="italic" lengthAdjust="spacing" textLength="64" x="1295.5" y="26.5332">&#171;Domain&#187;</text><text fill="#000000" font-family="sans-serif" font-size="14" lengthAdjust="spacing" textLength="29" x="1313" y="44.1426">User</text><rect fill="#E2E2F0" height="49.2188" rx="2.5" ry="2.5" style="stroke:#181818;stroke-width:0.5;" width="78" x="1288.5" y="870.8203"/><text fill="#000000" font-family="sans-serif" font-size="14" font-style="italic" lengthAdjust="spacing" textLength="64" x="1295.5" y="892.3535">&#171;Domain&#187;</text><text fill="#000000" font-family="sans-serif" font-size="14" lengthAdjust="spacing" textLength="29" x="1313" y="909.9629">User</text><rect fill="#E2E2F0" height="49.2188" rx="2.5" ry="2.5" style="stroke:#181818;stroke-width:0.5;" width="78" x="1376.5" y="5"/><text fill="#000000" font-family="sans-serif" font-size="14" font-style="italic" lengthAdjust="spacing" textLength="64" x="1383.5" y="26.5332">&#171;Domain&#187;</text><text fill="#000000" font-family="sans-serif" font-size="14" lengthAdjust="spacing" textLength="44" x="1393.5" y="44.1426">Patient</text><rect fill="#E2E2F0" height="49.2188" rx="2.5" ry="2.5" style="stroke:#181818;stroke-width:0.5;" width="78" x="1376.5" y="870.8203"/><text fill="#000000" font-family="sans-serif" font-size="14" font-style="italic" lengthAdjust="spacing" textLength="64" x="1383.5" y="892.3535">&#171;Domain&#187;</text><text fill="#000000" font-family="sans-serif" font-size="14" lengthAdjust="spacing" textLength="44" x="1393.5" y="909.9629">Patient</text><rect fill="#FFFFFF" height="775.25" style="stroke:#181818;stroke-width:1.0;" width="10" x="214" y="87.5703"/><rect fill="#FFFFFF" height="705.5469" style="stroke:#181818;stroke-width:1.0;" width="10" x="317" y="117.9219"/><rect fill="#FFFFFF" height="584.625" style="stroke:#181818;stroke-width:1.0;" width="10" x="682" y="208.4922"/><rect fill="#FFFFFF" height="41.3516" style="stroke:#181818;stroke-width:1.0;" width="10" x="687" y="307.5469"/><rect fill="#FFFFFF" height="41.3516" style="stroke:#181818;stroke-width:1.0;" width="10" x="687" y="394.25"/><rect fill="#FFFFFF" height="28" style="stroke:#181818;stroke-width:1.0;" width="10" x="687" y="627.7109"/><rect fill="#FFFFFF" height="30.3516" style="stroke:#181818;stroke-width:1.0;" width="10" x="1082" y="238.8438"/><rect fill="#FFFFFF" height="30.3516" style="stroke:#181818;stroke-width:1.0;" width="10" x="1210.5" y="472.9531"/><ellipse cx="7.5" cy="86.8203" fill="none" rx="4" ry="4" style="stroke:#181818;stroke-width:1.5;"/><polygon fill="#181818" points="202,83.5703,212,87.5703,202,91.5703,206,87.5703" style="stroke:#181818;stroke-width:1.0;"/><line style="stroke:#181818;stroke-width:1.0;" x1="12" x2="208" y1="87.5703" y2="87.5703"/><text fill="#000000" font-family="sans-serif" font-size="13" lengthAdjust="spacing" textLength="187" x="15" y="82.7139">PATCH (/api/users/patients/edit)</text><polygon fill="#181818" points="305,113.9219,315,117.9219,305,121.9219,309,117.9219" style="stroke:#181818;stroke-width:1.0;"/><line style="stroke:#181818;stroke-width:1.0;" x1="224" x2="311" y1="117.9219" y2="117.9219"/><text fill="#000000" font-family="sans-serif" font-size="13" lengthAdjust="spacing" textLength="43" x="231" y="113.0654">PATCH</text><polygon fill="#181818" points="489,144.2734,499,148.2734,489,152.2734,493,148.2734" style="stroke:#181818;stroke-width:1.0;"/><line style="stroke:#181818;stroke-width:1.0;" x1="327" x2="495" y1="148.2734" y2="148.2734"/><text fill="#000000" font-family="sans-serif" font-size="13" lengthAdjust="spacing" textLength="150" x="334" y="143.417">recieves request body info</text><rect fill="#E2E2F0" height="49.2188" rx="2.5" ry="2.5" style="stroke:#181818;stroke-width:0.5;" width="131" x="501" y="125.9219"/><text fill="#000000" font-family="sans-serif" font-size="14" font-style="italic" lengthAdjust="spacing" textLength="46" x="543.5" y="147.4551">&#171;DTO&#187;</text><text fill="#000000" font-family="sans-serif" font-size="14" lengthAdjust="spacing" textLength="117" x="508" y="165.0645">EditingPatientDTO</text><polygon fill="#181818" points="670,204.4922,680,208.4922,670,212.4922,674,208.4922" style="stroke:#181818;stroke-width:1.0;"/><line style="stroke:#181818;stroke-width:1.0;" x1="327" x2="676" y1="208.4922" y2="208.4922"/><text fill="#000000" font-family="sans-serif" font-size="13" lengthAdjust="spacing" textLength="177" x="334" y="203.6357">editPatient(EditingPatientDTO)</text><polygon fill="#181818" points="1070,234.8438,1080,238.8438,1070,242.8438,1074,238.8438" style="stroke:#181818;stroke-width:1.0;"/><line style="stroke:#181818;stroke-width:1.0;" x1="692" x2="1076" y1="238.8438" y2="238.8438"/><text fill="#000000" font-family="sans-serif" font-size="13" lengthAdjust="spacing" textLength="135" x="699" y="233.9873">findUserByEmail(email)</text><polygon fill="#181818" points="703,265.1953,693,269.1953,703,273.1953,699,269.1953" style="stroke:#181818;stroke-width:1.0;"/><line style="stroke:#181818;stroke-width:1.0;stroke-dasharray:2.0,2.0;" x1="697" x2="1086" y1="269.1953" y2="269.1953"/><text fill="#000000" font-family="sans-serif" font-size="13" lengthAdjust="spacing" textLength="25" x="709" y="264.3389">user</text><line style="stroke:#181818;stroke-width:1.0;" x1="692" x2="739" y1="294.5469" y2="294.5469"/><line style="stroke:#181818;stroke-width:1.0;" x1="739" x2="739" y1="294.5469" y2="307.5469"/><line style="stroke:#181818;stroke-width:1.0;" x1="698" x2="739" y1="307.5469" y2="307.5469"/><polygon fill="#181818" points="708,303.5469,698,307.5469,708,311.5469,704,307.5469" style="stroke:#181818;stroke-width:1.0;"/><text fill="#000000" font-family="sans-serif" font-size="13" lengthAdjust="spacing" textLength="165" x="704" y="289.6904">validateEmailIsUnique(email)</text><line style="stroke:#181818;stroke-width:1.0;stroke-dasharray:2.0,2.0;" x1="697" x2="739" y1="347.8984" y2="347.8984"/><line style="stroke:#181818;stroke-width:1.0;stroke-dasharray:2.0,2.0;" x1="739" x2="739" y1="347.8984" y2="360.8984"/><line style="stroke:#181818;stroke-width:1.0;stroke-dasharray:2.0,2.0;" x1="692" x2="739" y1="360.8984" y2="360.8984"/><polygon fill="#181818" points="702,356.8984,692,360.8984,702,364.8984,698,360.8984" style="stroke:#181818;stroke-width:1.0;"/><text fill="#000000" font-family="sans-serif" font-size="13" lengthAdjust="spacing" textLength="20" x="704" y="343.042">flag</text><line style="stroke:#181818;stroke-width:1.0;" x1="692" x2="739" y1="381.25" y2="381.25"/><line style="stroke:#181818;stroke-width:1.0;" x1="739" x2="739" y1="381.25" y2="394.25"/><line style="stroke:#181818;stroke-width:1.0;" x1="698" x2="739" y1="394.25" y2="394.25"/><polygon fill="#181818" points="708,390.25,698,394.25,708,398.25,704,394.25" style="stroke:#181818;stroke-width:1.0;"/><text fill="#000000" font-family="sans-serif" font-size="13" lengthAdjust="spacing" textLength="263" x="704" y="376.3936">validatePhoneNumberIsUnique(phoneNumber)</text><line style="stroke:#181818;stroke-width:1.0;stroke-dasharray:2.0,2.0;" x1="697" x2="739" y1="434.6016" y2="434.6016"/><line style="stroke:#181818;stroke-width:1.0;stroke-dasharray:2.0,2.0;" x1="739" x2="739" y1="434.6016" y2="447.6016"/><line style="stroke:#181818;stroke-width:1.0;stroke-dasharray:2.0,2.0;" x1="692" x2="739" y1="447.6016" y2="447.6016"/><polygon fill="#181818" points="702,443.6016,692,447.6016,702,451.6016,698,447.6016" style="stroke:#181818;stroke-width:1.0;"/><text fill="#000000" font-family="sans-serif" font-size="13" lengthAdjust="spacing" textLength="20" x="704" y="429.7451">flag</text><polygon fill="#181818" points="1198.5,468.9531,1208.5,472.9531,1198.5,476.9531,1202.5,472.9531" style="stroke:#181818;stroke-width:1.0;"/><line style="stroke:#181818;stroke-width:1.0;" x1="692" x2="1204.5" y1="472.9531" y2="472.9531"/><text fill="#000000" font-family="sans-serif" font-size="13" lengthAdjust="spacing" textLength="202" x="699" y="468.0967">findPatientByAssociatedUser(user)</text><polygon fill="#181818" points="703,499.3047,693,503.3047,703,507.3047,699,503.3047" style="stroke:#181818;stroke-width:1.0;"/><line style="stroke:#181818;stroke-width:1.0;stroke-dasharray:2.0,2.0;" x1="697" x2="1214.5" y1="503.3047" y2="503.3047"/><text fill="#000000" font-family="sans-serif" font-size="13" lengthAdjust="spacing" textLength="39" x="709" y="498.4482">patient</text><path d="M632,518.3047 L693,518.3047 L693,526.6563 L683,536.6563 L632,536.6563 L632,518.3047 " fill="#EEEEEE" style="stroke:#000000;stroke-width:1.5;"/><rect fill="none" height="152.4063" style="stroke:#000000;stroke-width:1.5;" width="832.5" x="632" y="518.3047"/><text fill="#000000" font-family="sans-serif" font-size="13" font-weight="bold" lengthAdjust="spacing" textLength="16" x="647" y="532.7998">alt</text><text fill="#000000" font-family="sans-serif" font-size="11" font-weight="bold" lengthAdjust="spacing" textLength="207" x="708" y="531.7236">[full name to edit is not null or empty]</text><polygon fill="#181818" points="1403.5,555.0078,1413.5,559.0078,1403.5,563.0078,1407.5,559.0078" style="stroke:#181818;stroke-width:1.0;"/><line style="stroke:#181818;stroke-width:1.0;" x1="692" x2="1409.5" y1="559.0078" y2="559.0078"/><text fill="#000000" font-family="sans-serif" font-size="13" lengthAdjust="spacing" textLength="137" x="699" y="554.1514">changeFullName(name)</text><polygon fill="#181818" points="1203.5,585.3594,1213.5,589.3594,1203.5,593.3594,1207.5,589.3594" style="stroke:#181818;stroke-width:1.0;"/><line style="stroke:#181818;stroke-width:1.0;" x1="692" x2="1209.5" y1="589.3594" y2="589.3594"/><text fill="#000000" font-family="sans-serif" font-size="13" lengthAdjust="spacing" textLength="73" x="699" y="584.5029">save(patient)</text><line style="stroke:#181818;stroke-width:1.0;" x1="697" x2="739" y1="619.7109" y2="619.7109"/><line style="stroke:#181818;stroke-width:1.0;" x1="739" x2="739" y1="619.7109" y2="632.7109"/><line style="stroke:#181818;stroke-width:1.0;" x1="698" x2="739" y1="632.7109" y2="632.7109"/><polygon fill="#181818" points="708,628.7109,698,632.7109,708,636.7109,704,632.7109" style="stroke:#181818;stroke-width:1.0;"/><text fill="#000000" font-family="sans-serif" font-size="13" lengthAdjust="spacing" textLength="172" x="704" y="614.8545">logChanges(patient, "update")</text><path d="M632,684.7109 L693,684.7109 L693,693.0625 L683,703.0625 L632,703.0625 L632,684.7109 " fill="#EEEEEE" style="stroke:#000000;stroke-width:1.5;"/><rect fill="none" height="79.0547" style="stroke:#000000;stroke-width:1.5;" width="744.5" x="632" y="684.7109"/><text fill="#000000" font-family="sans-serif" font-size="13" font-weight="bold" lengthAdjust="spacing" textLength="16" x="647" y="699.2061">alt</text><text fill="#000000" font-family="sans-serif" font-size="11" font-weight="bold" lengthAdjust="spacing" textLength="202" x="708" y="698.1299">[information contains sensitive data]</text><polygon fill="#181818" points="1315.5,721.4141,1325.5,725.4141,1315.5,729.4141,1319.5,725.4141" style="stroke:#181818;stroke-width:1.0;"/><line style="stroke:#181818;stroke-width:1.0;" x1="692" x2="1321.5" y1="725.4141" y2="725.4141"/><text fill="#000000" font-family="sans-serif" font-size="13" lengthAdjust="spacing" textLength="354" x="699" y="720.5576">setConfirmationEditPatientToken(token, tokenExpirationDate)</text><polygon fill="#181818" points="962,751.7656,972,755.7656,962,759.7656,966,755.7656" style="stroke:#181818;stroke-width:1.0;"/><line style="stroke:#181818;stroke-width:1.0;" x1="692" x2="968" y1="755.7656" y2="755.7656"/><text fill="#000000" font-family="sans-serif" font-size="13" lengthAdjust="spacing" textLength="140" x="699" y="750.9092">sendEmail(email, token)</text><polygon fill="#181818" points="338,789.1172,328,793.1172,338,797.1172,334,793.1172" style="stroke:#181818;stroke-width:1.0;"/><line style="stroke:#181818;stroke-width:1.0;stroke-dasharray:2.0,2.0;" x1="332" x2="686" y1="793.1172" y2="793.1172"/><text fill="#000000" font-family="sans-serif" font-size="13" lengthAdjust="spacing" textLength="53" x="344" y="788.2607">response</text><polygon fill="#181818" points="235,819.4688,225,823.4688,235,827.4688,231,823.4688" style="stroke:#181818;stroke-width:1.0;"/><line style="stroke:#181818;stroke-width:1.0;stroke-dasharray:2.0,2.0;" x1="229" x2="321" y1="823.4688" y2="823.4688"/><text fill="#000000" font-family="sans-serif" font-size="13" lengthAdjust="spacing" textLength="53" x="241" y="818.6123">response</text><polygon fill="#181818" points="11,849.8203,1,853.8203,11,857.8203,7,853.8203" style="stroke:#181818;stroke-width:1.0;"/><line style="stroke:#181818;stroke-width:1.0;stroke-dasharray:2.0,2.0;" x1="5" x2="213" y1="853.8203" y2="853.8203"/><text fill="#000000" font-family="sans-serif" font-size="13" lengthAdjust="spacing" textLength="53" x="17" y="848.9639">response</text><!--SRC=[ZLHDRzim3BtxLn0zEKM3t0CZG9jcs2vTiAMddLIRJeavaYR9nlBlHybohDXPjui- -PxU8sbhOHoLf8Lqy6hHV5EjGn0M-aLHX7cpoVGaSAkaCwffqFZeP5SKusQ2srNaI1xtmX5Aztpuwg5-AWeURppo7Kr7PT0pB8iYhgRS9q5D4d-r_nieE4QjB3bbpi7sk6Flbyq45nrSG-U77p3ubpqep6nViLnv-vM4EutyePQRlafhs3yUjfyXNmbDgvOPxKht0Bj2plaY4wMZJd110o3hYyluf6u3onWxNcP97AEuMFVt331O4dPeUV6hHUlWJLLd85ch2M2emngyd6WcdxL3eZCYiW7flOw9NKDDilAvUpg7GkVenzJd9JWpw5eZmUSbfHirTQAXYa61wOjzbSHkPeo3eaXND-BuCTt-NKbyQKzlQ2waUZpxV-fvO_N-u_dJ-T5QLH8pXPJatcd2FeCFxyGUoKJZe6wR1gGu8JWLYWHaGIe7qbye0tZIxdn35MiftuKyuYSEV662tBCi_gNVYewpqLyiRkUnKSTjOBP3u0FSjTgdzkv6yYgS7Q6iWZdVaUR474f2oOt97v05YvBLK8V0Z2AL4Bv9beYEkxYcYDoDdNjGFr7cpeyF4ARTRqqcX3spW2j3LpyYpoghf6KZVX6qnheOj5f9YxDziLp6__BwSlW7]--></g></svg>