<?xml version="1.0" encoding="us-ascii" standalone="no"?><svg xmlns="http://www.w3.org/2000/svg" xmlns:xlink="http://www.w3.org/1999/xlink" contentStyleType="text/css" height="733px" preserveAspectRatio="none" style="width:2354px;height:733px;background:#FFFFFF;" version="1.1" viewBox="0 0 2354 733" width="2354px" zoomAndPan="magnify"><defs/><g><rect fill="#FFFFFF" height="582.3594" style="stroke:#181818;stroke-width:1.0;" width="10" x="278" y="87.5703"/><rect fill="#FFFFFF" height="512.6563" style="stroke:#181818;stroke-width:1.0;" width="10" x="472" y="117.9219"/><rect fill="#FFFFFF" height="391.7344" style="stroke:#181818;stroke-width:1.0;" width="10" x="1552" y="208.4922"/><rect fill="#FFFFFF" height="41.3516" style="stroke:#181818;stroke-width:1.0;" width="10" x="1557" y="307.5469"/><rect fill="#FFFFFF" height="30.3516" style="stroke:#181818;stroke-width:1.0;" width="10" x="1991.5" y="441.9531"/><rect fill="#FFFFFF" height="30.3516" style="stroke:#181818;stroke-width:1.0;" width="10" x="2200" y="238.8438"/><rect fill="none" height="109.4063" style="stroke:#000000;stroke-width:1.5;" width="647.5" x="1502" y="401.25"/><line style="stroke:#181818;stroke-width:0.5;stroke-dasharray:5.0,5.0;" x1="282.5" x2="282.5" y1="55.2188" y2="678.9297"/><line style="stroke:#181818;stroke-width:0.5;stroke-dasharray:5.0,5.0;" x1="476.5" x2="476.5" y1="55.2188" y2="678.9297"/><line style="stroke:#181818;stroke-width:0.5;stroke-dasharray:5.0,5.0;" x1="721" x2="721" y1="166.0313" y2="678.9297"/><line style="stroke:#181818;stroke-width:0.5;stroke-dasharray:5.0,5.0;" x1="902" x2="902" y1="557.7656" y2="678.9297"/><line style="stroke:#181818;stroke-width:0.5;stroke-dasharray:5.0,5.0;" x1="1557" x2="1557" y1="55.2188" y2="678.9297"/><line style="stroke:#181818;stroke-width:0.5;stroke-dasharray:5.0,5.0;" x1="1795.5" x2="1795.5" y1="55.2188" y2="678.9297"/><line style="stroke:#181818;stroke-width:0.5;stroke-dasharray:5.0,5.0;" x1="1996.5" x2="1996.5" y1="55.2188" y2="678.9297"/><line style="stroke:#181818;stroke-width:0.5;stroke-dasharray:5.0,5.0;" x1="2204.5" x2="2204.5" y1="55.2188" y2="678.9297"/><line style="stroke:#181818;stroke-width:0.5;stroke-dasharray:5.0,5.0;" x1="2309.5" x2="2309.5" y1="55.2188" y2="678.9297"/><rect fill="#E2E2F0" height="49.2188" rx="2.5" ry="2.5" style="stroke:#181818;stroke-width:0.5;" width="81" x="242.5" y="5"/><text fill="#000000" font-family="sans-serif" font-size="14" font-style="italic" lengthAdjust="spacing" textLength="54" x="256" y="26.5332">&#171;Route&#187;</text><text fill="#000000" font-family="sans-serif" font-size="14" lengthAdjust="spacing" textLength="67" x="249.5" y="44.1426">UserRoute</text><rect fill="#E2E2F0" height="49.2188" rx="2.5" ry="2.5" style="stroke:#181818;stroke-width:0.5;" width="81" x="242.5" y="677.9297"/><text fill="#000000" font-family="sans-serif" font-size="14" font-style="italic" lengthAdjust="spacing" textLength="54" x="256" y="699.4629">&#171;Route&#187;</text><text fill="#000000" font-family="sans-serif" font-size="14" lengthAdjust="spacing" textLength="67" x="249.5" y="717.0723">UserRoute</text><rect fill="#E2E2F0" height="49.2188" rx="2.5" ry="2.5" style="stroke:#181818;stroke-width:0.5;" width="105" x="424.5" y="5"/><text fill="#000000" font-family="sans-serif" font-size="14" font-style="italic" lengthAdjust="spacing" textLength="78" x="438" y="26.5332">&#171;Controller&#187;</text><text fill="#000000" font-family="sans-serif" font-size="14" lengthAdjust="spacing" textLength="91" x="431.5" y="44.1426">UserController</text><rect fill="#E2E2F0" height="49.2188" rx="2.5" ry="2.5" style="stroke:#181818;stroke-width:0.5;" width="105" x="424.5" y="677.9297"/><text fill="#000000" font-family="sans-serif" font-size="14" font-style="italic" lengthAdjust="spacing" textLength="78" x="438" y="699.4629">&#171;Controller&#187;</text><text fill="#000000" font-family="sans-serif" font-size="14" lengthAdjust="spacing" textLength="91" x="431.5" y="717.0723">UserController</text><rect fill="#E2E2F0" height="49.2188" rx="2.5" ry="2.5" style="stroke:#181818;stroke-width:0.5;" width="131" x="656" y="677.9297"/><text fill="#000000" font-family="sans-serif" font-size="14" font-style="italic" lengthAdjust="spacing" textLength="46" x="698.5" y="699.4629">&#171;DTO&#187;</text><text fill="#000000" font-family="sans-serif" font-size="14" lengthAdjust="spacing" textLength="117" x="663" y="717.0723">EditingPatientDTO</text><rect fill="#E2E2F0" height="49.2188" rx="2.5" ry="2.5" style="stroke:#181818;stroke-width:0.5;" width="211" x="797" y="677.9297"/><text fill="#000000" font-family="sans-serif" font-size="14" font-style="italic" lengthAdjust="spacing" textLength="46" x="879.5" y="699.4629">&#171;DTO&#187;</text><text fill="#000000" font-family="sans-serif" font-size="14" lengthAdjust="spacing" textLength="197" x="804" y="717.0723">ConfirmationEditingPatientDTO</text><rect fill="#E2E2F0" height="49.2188" rx="2.5" ry="2.5" style="stroke:#181818;stroke-width:0.5;" width="90" x="1512" y="5"/><text fill="#000000" font-family="sans-serif" font-size="14" font-style="italic" lengthAdjust="spacing" textLength="62" x="1526" y="26.5332">&#171;Service&#187;</text><text fill="#000000" font-family="sans-serif" font-size="14" lengthAdjust="spacing" textLength="76" x="1519" y="44.1426">UserService</text><rect fill="#E2E2F0" height="49.2188" rx="2.5" ry="2.5" style="stroke:#181818;stroke-width:0.5;" width="90" x="1512" y="677.9297"/><text fill="#000000" font-family="sans-serif" font-size="14" font-style="italic" lengthAdjust="spacing" textLength="62" x="1526" y="699.4629">&#171;Service&#187;</text><text fill="#000000" font-family="sans-serif" font-size="14" lengthAdjust="spacing" textLength="76" x="1519" y="717.0723">UserService</text><rect fill="#E2E2F0" height="49.2188" rx="2.5" ry="2.5" style="stroke:#181818;stroke-width:0.5;" width="95" x="1748.5" y="5"/><text fill="#000000" font-family="sans-serif" font-size="14" font-style="italic" lengthAdjust="spacing" textLength="62" x="1765" y="26.5332">&#171;Service&#187;</text><text fill="#000000" font-family="sans-serif" font-size="14" lengthAdjust="spacing" textLength="81" x="1755.5" y="44.1426">EmailService</text><rect fill="#E2E2F0" height="49.2188" rx="2.5" ry="2.5" style="stroke:#181818;stroke-width:0.5;" width="95" x="1748.5" y="677.9297"/><text fill="#000000" font-family="sans-serif" font-size="14" font-style="italic" lengthAdjust="spacing" textLength="62" x="1765" y="699.4629">&#171;Service&#187;</text><text fill="#000000" font-family="sans-serif" font-size="14" lengthAdjust="spacing" textLength="81" x="1755.5" y="717.0723">EmailService</text><rect fill="#E2E2F0" height="49.2188" rx="2.5" ry="2.5" style="stroke:#181818;stroke-width:0.5;" width="286" x="1853.5" y="5"/><text fill="#000000" font-family="sans-serif" font-size="14" font-style="italic" lengthAdjust="spacing" textLength="62" x="1965.5" y="26.5332">&#171;Service&#187;</text><text fill="#000000" font-family="sans-serif" font-size="14" lengthAdjust="spacing" textLength="272" x="1860.5" y="44.1426">ConfirmationEditingPatientTokenGenerator</text><rect fill="#E2E2F0" height="49.2188" rx="2.5" ry="2.5" style="stroke:#181818;stroke-width:0.5;" width="286" x="1853.5" y="677.9297"/><text fill="#000000" font-family="sans-serif" font-size="14" font-style="italic" lengthAdjust="spacing" textLength="62" x="1965.5" y="699.4629">&#171;Service&#187;</text><text fill="#000000" font-family="sans-serif" font-size="14" lengthAdjust="spacing" textLength="272" x="1860.5" y="717.0723">ConfirmationEditingPatientTokenGenerator</text><rect fill="#E2E2F0" height="49.2188" rx="2.5" ry="2.5" style="stroke:#181818;stroke-width:0.5;" width="111" x="2149.5" y="5"/><text fill="#000000" font-family="sans-serif" font-size="14" font-style="italic" lengthAdjust="spacing" textLength="84" x="2163" y="26.5332">&#171;Repository&#187;</text><text fill="#000000" font-family="sans-serif" font-size="14" lengthAdjust="spacing" textLength="97" x="2156.5" y="44.1426">UserRepository</text><rect fill="#E2E2F0" height="49.2188" rx="2.5" ry="2.5" style="stroke:#181818;stroke-width:0.5;" width="111" x="2149.5" y="677.9297"/><text fill="#000000" font-family="sans-serif" font-size="14" font-style="italic" lengthAdjust="spacing" textLength="84" x="2163" y="699.4629">&#171;Repository&#187;</text><text fill="#000000" font-family="sans-serif" font-size="14" lengthAdjust="spacing" textLength="97" x="2156.5" y="717.0723">UserRepository</text><rect fill="#E2E2F0" height="49.2188" rx="2.5" ry="2.5" style="stroke:#181818;stroke-width:0.5;" width="78" x="2270.5" y="5"/><text fill="#000000" font-family="sans-serif" font-size="14" font-style="italic" lengthAdjust="spacing" textLength="64" x="2277.5" y="26.5332">&#171;Domain&#187;</text><text fill="#000000" font-family="sans-serif" font-size="14" lengthAdjust="spacing" textLength="29" x="2295" y="44.1426">User</text><rect fill="#E2E2F0" height="49.2188" rx="2.5" ry="2.5" style="stroke:#181818;stroke-width:0.5;" width="78" x="2270.5" y="677.9297"/><text fill="#000000" font-family="sans-serif" font-size="14" font-style="italic" lengthAdjust="spacing" textLength="64" x="2277.5" y="699.4629">&#171;Domain&#187;</text><text fill="#000000" font-family="sans-serif" font-size="14" lengthAdjust="spacing" textLength="29" x="2295" y="717.0723">User</text><rect fill="#FFFFFF" height="582.3594" style="stroke:#181818;stroke-width:1.0;" width="10" x="278" y="87.5703"/><rect fill="#FFFFFF" height="512.6563" style="stroke:#181818;stroke-width:1.0;" width="10" x="472" y="117.9219"/><rect fill="#FFFFFF" height="391.7344" style="stroke:#181818;stroke-width:1.0;" width="10" x="1552" y="208.4922"/><rect fill="#FFFFFF" height="41.3516" style="stroke:#181818;stroke-width:1.0;" width="10" x="1557" y="307.5469"/><rect fill="#FFFFFF" height="30.3516" style="stroke:#181818;stroke-width:1.0;" width="10" x="1991.5" y="441.9531"/><rect fill="#FFFFFF" height="30.3516" style="stroke:#181818;stroke-width:1.0;" width="10" x="2200" y="238.8438"/><ellipse cx="7.5" cy="86.8203" fill="none" rx="4" ry="4" style="stroke:#181818;stroke-width:1.5;"/><polygon fill="#181818" points="266,83.5703,276,87.5703,266,91.5703,270,87.5703" style="stroke:#181818;stroke-width:1.0;"/><line style="stroke:#181818;stroke-width:1.0;" x1="12" x2="272" y1="87.5703" y2="87.5703"/><text fill="#000000" font-family="sans-serif" font-size="13" lengthAdjust="spacing" textLength="251" x="15" y="82.7139">PATCH (/api/users/patients/{logToken}/edit)</text><polygon fill="#181818" points="460,113.9219,470,117.9219,460,121.9219,464,117.9219" style="stroke:#181818;stroke-width:1.0;"/><line style="stroke:#181818;stroke-width:1.0;" x1="288" x2="466" y1="117.9219" y2="117.9219"/><text fill="#000000" font-family="sans-serif" font-size="13" lengthAdjust="spacing" textLength="43" x="295" y="113.0654">PATCH</text><polygon fill="#181818" points="644,144.2734,654,148.2734,644,152.2734,648,148.2734" style="stroke:#181818;stroke-width:1.0;"/><line style="stroke:#181818;stroke-width:1.0;" x1="482" x2="650" y1="148.2734" y2="148.2734"/><text fill="#000000" font-family="sans-serif" font-size="13" lengthAdjust="spacing" textLength="150" x="489" y="143.417">recieves request body info</text><rect fill="#E2E2F0" height="49.2188" rx="2.5" ry="2.5" style="stroke:#181818;stroke-width:0.5;" width="131" x="656" y="125.9219"/><text fill="#000000" font-family="sans-serif" font-size="14" font-style="italic" lengthAdjust="spacing" textLength="46" x="698.5" y="147.4551">&#171;DTO&#187;</text><text fill="#000000" font-family="sans-serif" font-size="14" lengthAdjust="spacing" textLength="117" x="663" y="165.0645">EditingPatientDTO</text><polygon fill="#181818" points="1540,204.4922,1550,208.4922,1540,212.4922,1544,208.4922" style="stroke:#181818;stroke-width:1.0;"/><line style="stroke:#181818;stroke-width:1.0;" x1="482" x2="1546" y1="208.4922" y2="208.4922"/><text fill="#000000" font-family="sans-serif" font-size="13" lengthAdjust="spacing" textLength="177" x="489" y="203.6357">editPatient(EditingPatientDTO)</text><polygon fill="#181818" points="2188,234.8438,2198,238.8438,2188,242.8438,2192,238.8438" style="stroke:#181818;stroke-width:1.0;"/><line style="stroke:#181818;stroke-width:1.0;" x1="1562" x2="2194" y1="238.8438" y2="238.8438"/><text fill="#000000" font-family="sans-serif" font-size="13" lengthAdjust="spacing" textLength="135" x="1569" y="233.9873">findUserByEmail(email)</text><polygon fill="#181818" points="1573,265.1953,1563,269.1953,1573,273.1953,1569,269.1953" style="stroke:#181818;stroke-width:1.0;"/><line style="stroke:#181818;stroke-width:1.0;stroke-dasharray:2.0,2.0;" x1="1567" x2="2204" y1="269.1953" y2="269.1953"/><text fill="#000000" font-family="sans-serif" font-size="13" lengthAdjust="spacing" textLength="25" x="1579" y="264.3389">user</text><line style="stroke:#181818;stroke-width:1.0;" x1="1562" x2="1609" y1="294.5469" y2="294.5469"/><line style="stroke:#181818;stroke-width:1.0;" x1="1609" x2="1609" y1="294.5469" y2="307.5469"/><line style="stroke:#181818;stroke-width:1.0;" x1="1568" x2="1609" y1="307.5469" y2="307.5469"/><polygon fill="#181818" points="1578,303.5469,1568,307.5469,1578,311.5469,1574,307.5469" style="stroke:#181818;stroke-width:1.0;"/><text fill="#000000" font-family="sans-serif" font-size="13" lengthAdjust="spacing" textLength="215" x="1574" y="289.6904">validateUserIsLogged(logToken, user)</text><line style="stroke:#181818;stroke-width:1.0;stroke-dasharray:2.0,2.0;" x1="1567" x2="1609" y1="347.8984" y2="347.8984"/><line style="stroke:#181818;stroke-width:1.0;stroke-dasharray:2.0,2.0;" x1="1609" x2="1609" y1="347.8984" y2="360.8984"/><line style="stroke:#181818;stroke-width:1.0;stroke-dasharray:2.0,2.0;" x1="1562" x2="1609" y1="360.8984" y2="360.8984"/><polygon fill="#181818" points="1572,356.8984,1562,360.8984,1572,364.8984,1568,360.8984" style="stroke:#181818;stroke-width:1.0;"/><text fill="#000000" font-family="sans-serif" font-size="13" lengthAdjust="spacing" textLength="20" x="1574" y="343.042">flag</text><polygon fill="#181818" points="2297.5,382.25,2307.5,386.25,2297.5,390.25,2301.5,386.25" style="stroke:#181818;stroke-width:1.0;"/><line style="stroke:#181818;stroke-width:1.0;" x1="1562" x2="2303.5" y1="386.25" y2="386.25"/><text fill="#000000" font-family="sans-serif" font-size="13" lengthAdjust="spacing" textLength="116" x="1569" y="381.3936">changeName(name)</text><path d="M1502,401.25 L1563,401.25 L1563,409.6016 L1553,419.6016 L1502,419.6016 L1502,401.25 " fill="#EEEEEE" style="stroke:#000000;stroke-width:1.5;"/><rect fill="none" height="109.4063" style="stroke:#000000;stroke-width:1.5;" width="647.5" x="1502" y="401.25"/><text fill="#000000" font-family="sans-serif" font-size="13" font-weight="bold" lengthAdjust="spacing" textLength="16" x="1517" y="415.7451">alt</text><text fill="#000000" font-family="sans-serif" font-size="11" font-weight="bold" lengthAdjust="spacing" textLength="202" x="1578" y="414.6689">[information contains sensitive data]</text><polygon fill="#181818" points="1979.5,437.9531,1989.5,441.9531,1979.5,445.9531,1983.5,441.9531" style="stroke:#181818;stroke-width:1.0;"/><line style="stroke:#181818;stroke-width:1.0;" x1="1562" x2="1985.5" y1="441.9531" y2="441.9531"/><text fill="#000000" font-family="sans-serif" font-size="13" lengthAdjust="spacing" textLength="118" x="1569" y="437.0967">generateToken(user)</text><polygon fill="#181818" points="1573,468.3047,1563,472.3047,1573,476.3047,1569,472.3047" style="stroke:#181818;stroke-width:1.0;"/><line style="stroke:#181818;stroke-width:1.0;stroke-dasharray:2.0,2.0;" x1="1567" x2="1995.5" y1="472.3047" y2="472.3047"/><text fill="#000000" font-family="sans-serif" font-size="13" lengthAdjust="spacing" textLength="32" x="1579" y="467.4482">token</text><polygon fill="#181818" points="1784,498.6563,1794,502.6563,1784,506.6563,1788,502.6563" style="stroke:#181818;stroke-width:1.0;"/><line style="stroke:#181818;stroke-width:1.0;" x1="1562" x2="1790" y1="502.6563" y2="502.6563"/><text fill="#000000" font-family="sans-serif" font-size="13" lengthAdjust="spacing" textLength="140" x="1569" y="497.7998">sendEmail(email, token)</text><polygon fill="#181818" points="1019,536.0078,1009,540.0078,1019,544.0078,1015,540.0078" style="stroke:#181818;stroke-width:1.0;"/><line style="stroke:#181818;stroke-width:1.0;" x1="1013" x2="1551" y1="540.0078" y2="540.0078"/><text fill="#000000" font-family="sans-serif" font-size="13" lengthAdjust="spacing" textLength="520" x="1025" y="535.1514">createConfirmationEditPatientDTO(updatedUser, token, emailToEdit, phoneNumberToEdit)</text><rect fill="#E2E2F0" height="49.2188" rx="2.5" ry="2.5" style="stroke:#181818;stroke-width:0.5;" width="211" x="797" y="517.6563"/><text fill="#000000" font-family="sans-serif" font-size="14" font-style="italic" lengthAdjust="spacing" textLength="46" x="879.5" y="539.1895">&#171;DTO&#187;</text><text fill="#000000" font-family="sans-serif" font-size="14" lengthAdjust="spacing" textLength="197" x="804" y="556.7988">ConfirmationEditingPatientDTO</text><polygon fill="#181818" points="493,596.2266,483,600.2266,493,604.2266,489,600.2266" style="stroke:#181818;stroke-width:1.0;"/><line style="stroke:#181818;stroke-width:1.0;stroke-dasharray:2.0,2.0;" x1="487" x2="1556" y1="600.2266" y2="600.2266"/><text fill="#000000" font-family="sans-serif" font-size="13" lengthAdjust="spacing" textLength="160" x="499" y="595.3701">confirmationEditPatientDTO</text><polygon fill="#181818" points="299,626.5781,289,630.5781,299,634.5781,295,630.5781" style="stroke:#181818;stroke-width:1.0;"/><line style="stroke:#181818;stroke-width:1.0;stroke-dasharray:2.0,2.0;" x1="293" x2="476" y1="630.5781" y2="630.5781"/><text fill="#000000" font-family="sans-serif" font-size="13" lengthAdjust="spacing" textLength="160" x="305" y="625.7217">confirmationEditPatientDTO</text><polygon fill="#181818" points="11,656.9297,1,660.9297,11,664.9297,7,660.9297" style="stroke:#181818;stroke-width:1.0;"/><line style="stroke:#181818;stroke-width:1.0;stroke-dasharray:2.0,2.0;" x1="5" x2="277" y1="660.9297" y2="660.9297"/><text fill="#000000" font-family="sans-serif" font-size="13" lengthAdjust="spacing" textLength="53" x="17" y="656.0732">response</text><!--SRC=[ZLJ1RkCW5BpxAzxHgHBvRg58tRPgLrfrgpPxwedQBmwg0onWIr6r_xuFRDU4nb8l-85dniCyiER6YKfeBXtyiMYULUSGk8MXO2myjzjC9y0R9PrHROl6ewCPO_CauTtLmWdPF74dKBhRtMzFzG_6Q4p0fB8NvaXO9IyIOy2IY7VwWgONLTZKL38sLgd18nTjX3-RBv6MZUxKEyfxb6YuKo6dP6L9CdG2jRA2KAVGZdb6FVcSNE25J1KPbpwHK13gLMssGqzBUBhUtJn0Nd0jYeuOjj23NrjyjAe97lyLI5jPPRnoekTq4W8t6qu5IKKDdmHdxFmoYt34eWPTNH71O2MmHql5tmwjWpTLdq38lKe8K_ObU3jZhFcNun3v71dPnFJRdhChOIzaxMFwSGhDpT6FyJu_mPb1rna9Fg9ORlRKyrRKHF9wF-qlrJHOvrE2wq2yu6oKtRUyYMN7dfLG7RXiy94VCPSqa4BhGZRZ6OEA8YAe1OkIh8eUWLpmM2mvPoKqGutXHPuuEqTF1frVZKNFRaFflrv76Qu7mYgZvPYLNDFG_yeWVJUzE7C_yqxxN4EZHjqrXA_ib4UkGH-KnCVk-8PcM5fDjgj5rMyWs6Op_ldy8RLQIOl_0G00]--></g></svg>