<?xml version="1.0" encoding="us-ascii" standalone="no"?><svg xmlns="http://www.w3.org/2000/svg" xmlns:xlink="http://www.w3.org/1999/xlink" contentStyleType="text/css" height="774px" preserveAspectRatio="none" style="width:1492px;height:774px;background:#FFFFFF;" version="1.1" viewBox="0 0 1492 774" width="1492px" zoomAndPan="magnify"><defs/><g><rect fill="#FFFFFF" height="584.2559" style="stroke:#181818;stroke-width:1.0;" width="10" x="25.5" y="91.4883"/><rect fill="#FFFFFF" height="562.9453" style="stroke:#181818;stroke-width:1.0;" width="10" x="300.5" y="112.7988"/><rect fill="#FFFFFF" height="64.6211" style="stroke:#181818;stroke-width:1.0;" width="10" x="641.5" y="142.1094"/><rect fill="#FFFFFF" height="322.4609" style="stroke:#181818;stroke-width:1.0;" width="10" x="641.5" y="323.9727"/><rect fill="#FFFFFF" height="205.8633" style="stroke:#181818;stroke-width:1.0;" width="10" x="965.5" y="411.2598"/><rect fill="#FFFFFF" height="29.3105" style="stroke:#181818;stroke-width:1.0;" width="10" x="1157.5" y="440.5703"/><rect fill="#FFFFFF" height="29.3105" style="stroke:#181818;stroke-width:1.0;" width="10" x="1320" y="499.1914"/><rect fill="#FFFFFF" height="30" style="stroke:#181818;stroke-width:1.0;" width="10" x="1434.5" y="557.8125"/><line style="stroke:#181818;stroke-width:0.5;stroke-dasharray:5.0,5.0;" x1="30" x2="30" y1="81.4883" y2="693.7441"/><line style="stroke:#181818;stroke-width:0.5;stroke-dasharray:5.0,5.0;" x1="305.5" x2="305.5" y1="81.4883" y2="693.7441"/><line style="stroke:#181818;stroke-width:0.5;stroke-dasharray:5.0,5.0;" x1="646.5" x2="646.5" y1="81.4883" y2="693.7441"/><line style="stroke:#181818;stroke-width:0.5;stroke-dasharray:5.0,5.0;" x1="813.5" x2="813.5" y1="370.9609" y2="693.7441"/><line style="stroke:#181818;stroke-width:0.5;stroke-dasharray:5.0,5.0;" x1="970.5" x2="970.5" y1="81.4883" y2="693.7441"/><line style="stroke:#181818;stroke-width:0.5;stroke-dasharray:5.0,5.0;" x1="1162" x2="1162" y1="81.4883" y2="693.7441"/><line style="stroke:#181818;stroke-width:0.5;stroke-dasharray:5.0,5.0;" x1="1325" x2="1325" y1="81.4883" y2="693.7441"/><line style="stroke:#181818;stroke-width:0.5;stroke-dasharray:5.0,5.0;" x1="1439" x2="1439" y1="81.4883" y2="693.7441"/><text fill="#000000" font-family="sans-serif" font-size="14" lengthAdjust="spacing" textLength="45" x="5" y="78.5352">Admin</text><ellipse cx="30.5" cy="13.5" fill="#E2E2F0" rx="8" ry="8" style="stroke:#181818;stroke-width:0.5;"/><path d="M30.5,21.5 L30.5,48.5 M17.5,29.5 L43.5,29.5 M30.5,48.5 L17.5,63.5 M30.5,48.5 L43.5,63.5 " fill="none" style="stroke:#181818;stroke-width:0.5;"/><text fill="#000000" font-family="sans-serif" font-size="14" lengthAdjust="spacing" textLength="45" x="5" y="706.2793">Admin</text><ellipse cx="30.5" cy="717.7324" fill="#E2E2F0" rx="8" ry="8" style="stroke:#181818;stroke-width:0.5;"/><path d="M30.5,725.7324 L30.5,752.7324 M17.5,733.7324 L43.5,733.7324 M30.5,752.7324 L17.5,767.7324 M30.5,752.7324 L43.5,767.7324 " fill="none" style="stroke:#181818;stroke-width:0.5;"/><rect fill="#E2E2F0" height="30.4883" rx="2.5" ry="2.5" style="stroke:#181818;stroke-width:0.5;" width="28" x="291.5" y="50"/><text fill="#000000" font-family="sans-serif" font-size="14" lengthAdjust="spacing" textLength="14" x="298.5" y="70.5352">UI</text><rect fill="#E2E2F0" height="30.4883" rx="2.5" ry="2.5" style="stroke:#181818;stroke-width:0.5;" width="28" x="291.5" y="692.7441"/><text fill="#000000" font-family="sans-serif" font-size="14" lengthAdjust="spacing" textLength="14" x="298.5" y="713.2793">UI</text><rect fill="#E2E2F0" height="46.9766" rx="2.5" ry="2.5" style="stroke:#181818;stroke-width:0.5;" width="186" x="553.5" y="33.5117"/><text fill="#000000" font-family="sans-serif" font-size="14" font-style="italic" lengthAdjust="spacing" textLength="84" x="604.5" y="54.0469">&#171;Controller&#187;</text><text fill="#000000" font-family="sans-serif" font-size="14" lengthAdjust="spacing" textLength="172" x="560.5" y="70.5352">OperationTypeController</text><rect fill="#E2E2F0" height="46.9766" rx="2.5" ry="2.5" style="stroke:#181818;stroke-width:0.5;" width="186" x="553.5" y="692.7441"/><text fill="#000000" font-family="sans-serif" font-size="14" font-style="italic" lengthAdjust="spacing" textLength="84" x="604.5" y="713.2793">&#171;Controller&#187;</text><text fill="#000000" font-family="sans-serif" font-size="14" lengthAdjust="spacing" textLength="172" x="560.5" y="729.7676">OperationTypeController</text><rect fill="#E2E2F0" height="46.9766" rx="2.5" ry="2.5" style="stroke:#181818;stroke-width:0.5;" width="129" x="749.5" y="692.7441"/><text fill="#000000" font-family="sans-serif" font-size="14" font-style="italic" lengthAdjust="spacing" textLength="67" x="780.5" y="713.2793">&#171;Domain&#187;</text><text fill="#000000" font-family="sans-serif" font-size="14" lengthAdjust="spacing" textLength="115" x="756.5" y="729.7676">OperationTypeId</text><rect fill="#E2E2F0" height="46.9766" rx="2.5" ry="2.5" style="stroke:#181818;stroke-width:0.5;" width="164" x="888.5" y="33.5117"/><text fill="#000000" font-family="sans-serif" font-size="14" font-style="italic" lengthAdjust="spacing" textLength="62" x="939.5" y="54.0469">&#171;Service&#187;</text><text fill="#000000" font-family="sans-serif" font-size="14" lengthAdjust="spacing" textLength="150" x="895.5" y="70.5352">OperationTypeService</text><rect fill="#E2E2F0" height="46.9766" rx="2.5" ry="2.5" style="stroke:#181818;stroke-width:0.5;" width="164" x="888.5" y="692.7441"/><text fill="#000000" font-family="sans-serif" font-size="14" font-style="italic" lengthAdjust="spacing" textLength="62" x="939.5" y="713.2793">&#171;Service&#187;</text><text fill="#000000" font-family="sans-serif" font-size="14" lengthAdjust="spacing" textLength="150" x="895.5" y="729.7676">OperationTypeService</text><rect fill="#E2E2F0" height="46.9766" rx="2.5" ry="2.5" style="stroke:#181818;stroke-width:0.5;" width="189" x="1068" y="33.5117"/><text fill="#000000" font-family="sans-serif" font-size="14" font-style="italic" lengthAdjust="spacing" textLength="87" x="1119" y="54.0469">&#171;Repository&#187;</text><text fill="#000000" font-family="sans-serif" font-size="14" lengthAdjust="spacing" textLength="175" x="1075" y="70.5352">OperationTypeRepository</text><rect fill="#E2E2F0" height="46.9766" rx="2.5" ry="2.5" style="stroke:#181818;stroke-width:0.5;" width="189" x="1068" y="692.7441"/><text fill="#000000" font-family="sans-serif" font-size="14" font-style="italic" lengthAdjust="spacing" textLength="87" x="1119" y="713.2793">&#171;Repository&#187;</text><text fill="#000000" font-family="sans-serif" font-size="14" lengthAdjust="spacing" textLength="175" x="1075" y="729.7676">OperationTypeRepository</text><rect fill="#E2E2F0" height="46.9766" rx="2.5" ry="2.5" style="stroke:#181818;stroke-width:0.5;" width="116" x="1267" y="33.5117"/><text fill="#000000" font-family="sans-serif" font-size="14" font-style="italic" lengthAdjust="spacing" textLength="67" x="1291.5" y="54.0469">&#171;Domain&#187;</text><text fill="#000000" font-family="sans-serif" font-size="14" lengthAdjust="spacing" textLength="102" x="1274" y="70.5352">OperationType</text><rect fill="#E2E2F0" height="46.9766" rx="2.5" ry="2.5" style="stroke:#181818;stroke-width:0.5;" width="116" x="1267" y="692.7441"/><text fill="#000000" font-family="sans-serif" font-size="14" font-style="italic" lengthAdjust="spacing" textLength="67" x="1291.5" y="713.2793">&#171;Domain&#187;</text><text fill="#000000" font-family="sans-serif" font-size="14" lengthAdjust="spacing" textLength="102" x="1274" y="729.7676">OperationType</text><rect fill="#E2E2F0" height="30.4883" rx="2.5" ry="2.5" style="stroke:#181818;stroke-width:0.5;" width="93" x="1393" y="50"/><text fill="#000000" font-family="sans-serif" font-size="14" lengthAdjust="spacing" textLength="79" x="1400" y="70.5352">UnitOfWork</text><rect fill="#E2E2F0" height="30.4883" rx="2.5" ry="2.5" style="stroke:#181818;stroke-width:0.5;" width="93" x="1393" y="692.7441"/><text fill="#000000" font-family="sans-serif" font-size="14" lengthAdjust="spacing" textLength="79" x="1400" y="713.2793">UnitOfWork</text><rect fill="#FFFFFF" height="584.2559" style="stroke:#181818;stroke-width:1.0;" width="10" x="25.5" y="91.4883"/><rect fill="#FFFFFF" height="562.9453" style="stroke:#181818;stroke-width:1.0;" width="10" x="300.5" y="112.7988"/><rect fill="#FFFFFF" height="64.6211" style="stroke:#181818;stroke-width:1.0;" width="10" x="641.5" y="142.1094"/><rect fill="#FFFFFF" height="322.4609" style="stroke:#181818;stroke-width:1.0;" width="10" x="641.5" y="323.9727"/><rect fill="#FFFFFF" height="205.8633" style="stroke:#181818;stroke-width:1.0;" width="10" x="965.5" y="411.2598"/><rect fill="#FFFFFF" height="29.3105" style="stroke:#181818;stroke-width:1.0;" width="10" x="1157.5" y="440.5703"/><rect fill="#FFFFFF" height="29.3105" style="stroke:#181818;stroke-width:1.0;" width="10" x="1320" y="499.1914"/><rect fill="#FFFFFF" height="30" style="stroke:#181818;stroke-width:1.0;" width="10" x="1434.5" y="557.8125"/><polygon fill="#181818" points="288.5,108.7988,298.5,112.7988,288.5,116.7988,292.5,112.7988" style="stroke:#181818;stroke-width:1.0;"/><line style="stroke:#181818;stroke-width:1.0;" x1="35.5" x2="294.5" y1="112.7988" y2="112.7988"/><text fill="#000000" font-family="sans-serif" font-size="13" lengthAdjust="spacing" textLength="198" x="42.5" y="108.0566">Request to list Operation Types</text><polygon fill="#181818" points="629.5,138.1094,639.5,142.1094,629.5,146.1094,633.5,142.1094" style="stroke:#181818;stroke-width:1.0;"/><line style="stroke:#181818;stroke-width:1.0;" x1="310.5" x2="635.5" y1="142.1094" y2="142.1094"/><text fill="#000000" font-family="sans-serif" font-size="13" lengthAdjust="spacing" textLength="248" x="317.5" y="137.3672">requests HTTP GET for Operation Types</text><path d="M606,155.1094 L606,180.1094 L687,180.1094 L687,165.1094 L677,155.1094 L606,155.1094 " fill="#FEFFDD" style="stroke:#181818;stroke-width:0.5;"/><path d="M677,155.1094 L677,165.1094 L687,165.1094 L677,155.1094 " fill="#FEFFDD" style="stroke:#181818;stroke-width:0.5;"/><text fill="#000000" font-family="sans-serif" font-size="13" lengthAdjust="spacing" textLength="60" x="612" y="172.6777">US 5.1.23</text><polygon fill="#181818" points="321.5,202.7305,311.5,206.7305,321.5,210.7305,317.5,206.7305" style="stroke:#181818;stroke-width:1.0;"/><line style="stroke:#181818;stroke-width:1.0;stroke-dasharray:2.0,2.0;" x1="315.5" x2="645.5" y1="206.7305" y2="206.7305"/><text fill="#000000" font-family="sans-serif" font-size="13" lengthAdjust="spacing" textLength="193" x="327.5" y="201.9883">display list of Operation Types</text><polygon fill="#181818" points="288.5,232.041,298.5,236.041,288.5,240.041,292.5,236.041" style="stroke:#181818;stroke-width:1.0;"/><line style="stroke:#181818;stroke-width:1.0;" x1="35.5" x2="294.5" y1="236.041" y2="236.041"/><text fill="#000000" font-family="sans-serif" font-size="13" lengthAdjust="spacing" textLength="241" x="42.5" y="231.2988">Select an Operation Type to deactivate</text><polygon fill="#181818" points="46.5,261.3516,36.5,265.3516,46.5,269.3516,42.5,265.3516" style="stroke:#181818;stroke-width:1.0;"/><line style="stroke:#181818;stroke-width:1.0;" x1="40.5" x2="299.5" y1="265.3516" y2="265.3516"/><text fill="#000000" font-family="sans-serif" font-size="13" lengthAdjust="spacing" textLength="168" x="52.5" y="260.6094">Show confirmation prompt</text><polygon fill="#181818" points="288.5,290.6621,298.5,294.6621,288.5,298.6621,292.5,294.6621" style="stroke:#181818;stroke-width:1.0;"/><line style="stroke:#181818;stroke-width:1.0;" x1="35.5" x2="294.5" y1="294.6621" y2="294.6621"/><text fill="#000000" font-family="sans-serif" font-size="13" lengthAdjust="spacing" textLength="132" x="42.5" y="289.9199">Confirm deactivation</text><polygon fill="#181818" points="629.5,319.9727,639.5,323.9727,629.5,327.9727,633.5,323.9727" style="stroke:#181818;stroke-width:1.0;"/><line style="stroke:#181818;stroke-width:1.0;" x1="310.5" x2="635.5" y1="323.9727" y2="323.9727"/><text fill="#000000" font-family="sans-serif" font-size="13" lengthAdjust="spacing" textLength="312" x="317.5" y="319.2305">requests HTTP POST to deactivate Operation Type</text><polygon fill="#181818" points="737.5,349.2832,747.5,353.2832,737.5,357.2832,741.5,353.2832" style="stroke:#181818;stroke-width:1.0;"/><line style="stroke:#181818;stroke-width:1.0;" x1="651.5" x2="743.5" y1="353.2832" y2="353.2832"/><text fill="#000000" font-family="sans-serif" font-size="13" lengthAdjust="spacing" textLength="45" x="658.5" y="348.541">creates</text><rect fill="#E2E2F0" height="46.9766" rx="2.5" ry="2.5" style="stroke:#181818;stroke-width:0.5;" width="129" x="749.5" y="331.9727"/><text fill="#000000" font-family="sans-serif" font-size="14" font-style="italic" lengthAdjust="spacing" textLength="67" x="780.5" y="352.5078">&#171;Domain&#187;</text><text fill="#000000" font-family="sans-serif" font-size="14" lengthAdjust="spacing" textLength="115" x="756.5" y="368.9961">OperationTypeId</text><polygon fill="#181818" points="953.5,407.2598,963.5,411.2598,953.5,415.2598,957.5,411.2598" style="stroke:#181818;stroke-width:1.0;"/><line style="stroke:#181818;stroke-width:1.0;" x1="651.5" x2="959.5" y1="411.2598" y2="411.2598"/><text fill="#000000" font-family="sans-serif" font-size="13" lengthAdjust="spacing" textLength="268" x="658.5" y="406.5176">deactivateOperationType(OperationTypeId)</text><polygon fill="#181818" points="1145.5,436.5703,1155.5,440.5703,1145.5,444.5703,1149.5,440.5703" style="stroke:#181818;stroke-width:1.0;"/><line style="stroke:#181818;stroke-width:1.0;" x1="975.5" x2="1151.5" y1="440.5703" y2="440.5703"/><text fill="#000000" font-family="sans-serif" font-size="13" lengthAdjust="spacing" textLength="163" x="982.5" y="435.8281">findById(OperationTypeId)</text><polygon fill="#181818" points="986.5,465.8809,976.5,469.8809,986.5,473.8809,982.5,469.8809" style="stroke:#181818;stroke-width:1.0;"/><line style="stroke:#181818;stroke-width:1.0;stroke-dasharray:2.0,2.0;" x1="980.5" x2="1161.5" y1="469.8809" y2="469.8809"/><text fill="#000000" font-family="sans-serif" font-size="13" lengthAdjust="spacing" textLength="138" x="992.5" y="465.1387">return Operation Type</text><polygon fill="#181818" points="1308,495.1914,1318,499.1914,1308,503.1914,1312,499.1914" style="stroke:#181818;stroke-width:1.0;"/><line style="stroke:#181818;stroke-width:1.0;" x1="975.5" x2="1314" y1="499.1914" y2="499.1914"/><text fill="#000000" font-family="sans-serif" font-size="13" lengthAdjust="spacing" textLength="72" x="982.5" y="494.4492">deactivate()</text><polygon fill="#181818" points="986.5,524.502,976.5,528.502,986.5,532.502,982.5,528.502" style="stroke:#181818;stroke-width:1.0;"/><line style="stroke:#181818;stroke-width:1.0;stroke-dasharray:2.0,2.0;" x1="980.5" x2="1324" y1="528.502" y2="528.502"/><text fill="#000000" font-family="sans-serif" font-size="13" lengthAdjust="spacing" textLength="172" x="992.5" y="523.7598">return success/error status</text><polygon fill="#181818" points="1422.5,553.8125,1432.5,557.8125,1422.5,561.8125,1426.5,557.8125" style="stroke:#181818;stroke-width:1.0;"/><line style="stroke:#181818;stroke-width:1.0;" x1="975.5" x2="1428.5" y1="557.8125" y2="557.8125"/><text fill="#000000" font-family="sans-serif" font-size="13" lengthAdjust="spacing" textLength="94" x="982.5" y="553.0703">commitAsync()</text><polygon fill="#181818" points="662.5,613.123,652.5,617.123,662.5,621.123,658.5,617.123" style="stroke:#181818;stroke-width:1.0;"/><line style="stroke:#181818;stroke-width:1.0;stroke-dasharray:2.0,2.0;" x1="656.5" x2="969.5" y1="617.123" y2="617.123"/><text fill="#000000" font-family="sans-serif" font-size="13" lengthAdjust="spacing" textLength="172" x="668.5" y="612.3809">return success/error status</text><polygon fill="#181818" points="321.5,642.4336,311.5,646.4336,321.5,650.4336,317.5,646.4336" style="stroke:#181818;stroke-width:1.0;"/><line style="stroke:#181818;stroke-width:1.0;stroke-dasharray:2.0,2.0;" x1="315.5" x2="645.5" y1="646.4336" y2="646.4336"/><text fill="#000000" font-family="sans-serif" font-size="13" lengthAdjust="spacing" textLength="57" x="327.5" y="641.6914">response</text><polygon fill="#181818" points="41.5,671.7441,31.5,675.7441,41.5,679.7441,37.5,675.7441" style="stroke:#181818;stroke-width:1.0;"/><line style="stroke:#181818;stroke-width:1.0;stroke-dasharray:2.0,2.0;" x1="35.5" x2="304.5" y1="675.7441" y2="675.7441"/><text fill="#000000" font-family="sans-serif" font-size="13" lengthAdjust="spacing" textLength="197" x="47.5" y="671.002">Display success/error message</text><!--SRC=[ZLF1Rjim3BthAtZi2gJ3DknY606wTjXoIj4us5cGw5QOBMcIai5_Fyfs9ibTZ5qIcT9x91yVkGZ6mRtibGPckGjAACjrWECEW7lwAw9xYuu7PNGpM7mmEZZJTUZYIn5S1tMTWjljTUXEHeYI17WqFLTwxV41tLa9Z0W_7-jw3gxXdj4QhwY_8K9T-ghhTBL6465oBEzQdKUjmhxzOTnFnhW8wim3JceoDecwsPA65JpZhnFw0C50ftoM1s8Ydy0aE4bFgAXdHLMFE0_Vc-O9ldrjeALvNKL74DE6JkPCOnbdKi7n09_lFjnz_CJO6DdCHKdbRSU7gIBJlg6LM1ANBHsmGn60wmKkzfYGSpSZaZ2lvZS8erlb-WbXdUbjA9aVfWU9XHwkgFAqFpHbqaL52ttY3r4fUNjRWN185tuMPdjnM9Mn5PwuMVZuNIAVeUnYKc9BfgkWLLf-6NPoXI4zPvbTDtbP3iF9BINF9vLnP8LCDiwxkidoJhTizlg_ylcJ4EZzUtIE_ES33wV27pD3bZ6j1ebi-bw5UpzeaQVDjYUZog9_wRB9_rSvbr6KVdVehT4UtnWxUYkPz75UYp99JqV-Kc1fLxElQUt_0000]--></g></svg>