<?xml version="1.0" encoding="us-ascii" standalone="no"?><svg xmlns="http://www.w3.org/2000/svg" xmlns:xlink="http://www.w3.org/1999/xlink" contentStyleType="text/css" height="1162px" preserveAspectRatio="none" style="width:2044px;height:1162px;background:#FFFFFF;" version="1.1" viewBox="0 0 2044 1162" width="2044px" zoomAndPan="magnify"><defs/><g><rect fill="#FFFFFF" height="972.0723" style="stroke:#181818;stroke-width:1.0;" width="10" x="25.5" y="91.4883"/><rect fill="#FFFFFF" height="950.7617" style="stroke:#181818;stroke-width:1.0;" width="10" x="260.5" y="112.7988"/><rect fill="#FFFFFF" height="64.6211" style="stroke:#181818;stroke-width:1.0;" width="10" x="561.5" y="142.1094"/><rect fill="#FFFFFF" height="674.9668" style="stroke:#181818;stroke-width:1.0;" width="10" x="561.5" y="359.2832"/><rect fill="#FFFFFF" height="87.2871" style="stroke:#181818;stroke-width:1.0;" width="10" x="770.5" y="623.8125"/><rect fill="#FFFFFF" height="87.2871" style="stroke:#181818;stroke-width:1.0;" width="10" x="770.5" y="917.6523"/><rect fill="#FFFFFF" height="205.9082" style="stroke:#181818;stroke-width:1.0;" width="10" x="1228.5" y="388.5938"/><rect fill="#FFFFFF" height="147.9316" style="stroke:#181818;stroke-width:1.0;" width="10" x="1228.5" y="740.4102"/><rect fill="#FFFFFF" height="30" style="stroke:#181818;stroke-width:1.0;" width="10" x="1613" y="475.8809"/><rect fill="#FFFFFF" height="30" style="stroke:#181818;stroke-width:1.0;" width="10" x="1836" y="769.7207"/><rect fill="#FFFFFF" height="30" style="stroke:#181818;stroke-width:1.0;" width="10" x="1987" y="535.1914"/><rect fill="#FFFFFF" height="30" style="stroke:#181818;stroke-width:1.0;" width="10" x="1987" y="829.0313"/><line style="stroke:#181818;stroke-width:0.5;stroke-dasharray:5.0,5.0;" x1="30" x2="30" y1="81.4883" y2="1081.5605"/><line style="stroke:#181818;stroke-width:0.5;stroke-dasharray:5.0,5.0;" x1="265.5" x2="265.5" y1="81.4883" y2="1081.5605"/><line style="stroke:#181818;stroke-width:0.5;stroke-dasharray:5.0,5.0;" x1="566.5" x2="566.5" y1="81.4883" y2="1081.5605"/><line style="stroke:#181818;stroke-width:0.5;stroke-dasharray:5.0,5.0;" x1="775.5" x2="775.5" y1="81.4883" y2="1081.5605"/><line style="stroke:#181818;stroke-width:0.5;stroke-dasharray:5.0,5.0;" x1="927.5" x2="927.5" y1="670.8008" y2="1081.5605"/><line style="stroke:#181818;stroke-width:0.5;stroke-dasharray:5.0,5.0;" x1="1068.5" x2="1068.5" y1="964.6406" y2="1081.5605"/><line style="stroke:#181818;stroke-width:0.5;stroke-dasharray:5.0,5.0;" x1="1233.5" x2="1233.5" y1="81.4883" y2="1081.5605"/><line style="stroke:#181818;stroke-width:0.5;stroke-dasharray:5.0,5.0;" x1="1407.5" x2="1407.5" y1="435.582" y2="1081.5605"/><line style="stroke:#181818;stroke-width:0.5;stroke-dasharray:5.0,5.0;" x1="1617.5" x2="1617.5" y1="81.4883" y2="1081.5605"/><line style="stroke:#181818;stroke-width:0.5;stroke-dasharray:5.0,5.0;" x1="1840.5" x2="1840.5" y1="81.4883" y2="1081.5605"/><line style="stroke:#181818;stroke-width:0.5;stroke-dasharray:5.0,5.0;" x1="1991.5" x2="1991.5" y1="81.4883" y2="1081.5605"/><text fill="#000000" font-family="sans-serif" font-size="14" lengthAdjust="spacing" textLength="45" x="5" y="78.5352">Admin</text><ellipse cx="30.5" cy="13.5" fill="#E2E2F0" rx="8" ry="8" style="stroke:#181818;stroke-width:0.5;"/><path d="M30.5,21.5 L30.5,48.5 M17.5,29.5 L43.5,29.5 M30.5,48.5 L17.5,63.5 M30.5,48.5 L43.5,63.5 " fill="none" style="stroke:#181818;stroke-width:0.5;"/><text fill="#000000" font-family="sans-serif" font-size="14" lengthAdjust="spacing" textLength="45" x="5" y="1094.0957">Admin</text><ellipse cx="30.5" cy="1105.5488" fill="#E2E2F0" rx="8" ry="8" style="stroke:#181818;stroke-width:0.5;"/><path d="M30.5,1113.5488 L30.5,1140.5488 M17.5,1121.5488 L43.5,1121.5488 M30.5,1140.5488 L17.5,1155.5488 M30.5,1140.5488 L43.5,1155.5488 " fill="none" style="stroke:#181818;stroke-width:0.5;"/><rect fill="#E2E2F0" height="30.4883" rx="2.5" ry="2.5" style="stroke:#181818;stroke-width:0.5;" width="28" x="251.5" y="50"/><text fill="#000000" font-family="sans-serif" font-size="14" lengthAdjust="spacing" textLength="14" x="258.5" y="70.5352">UI</text><rect fill="#E2E2F0" height="30.4883" rx="2.5" ry="2.5" style="stroke:#181818;stroke-width:0.5;" width="28" x="251.5" y="1080.5605"/><text fill="#000000" font-family="sans-serif" font-size="14" lengthAdjust="spacing" textLength="14" x="258.5" y="1101.0957">UI</text><rect fill="#E2E2F0" height="46.9766" rx="2.5" ry="2.5" style="stroke:#181818;stroke-width:0.5;" width="186" x="473.5" y="33.5117"/><text fill="#000000" font-family="sans-serif" font-size="14" font-style="italic" lengthAdjust="spacing" textLength="84" x="524.5" y="54.0469">&#171;Controller&#187;</text><text fill="#000000" font-family="sans-serif" font-size="14" lengthAdjust="spacing" textLength="172" x="480.5" y="70.5352">OperationTypeController</text><rect fill="#E2E2F0" height="46.9766" rx="2.5" ry="2.5" style="stroke:#181818;stroke-width:0.5;" width="186" x="473.5" y="1080.5605"/><text fill="#000000" font-family="sans-serif" font-size="14" font-style="italic" lengthAdjust="spacing" textLength="84" x="524.5" y="1101.0957">&#171;Controller&#187;</text><text fill="#000000" font-family="sans-serif" font-size="14" lengthAdjust="spacing" textLength="172" x="480.5" y="1117.584">OperationTypeController</text><rect fill="#E2E2F0" height="46.9766" rx="2.5" ry="2.5" style="stroke:#181818;stroke-width:0.5;" width="168" x="691.5" y="33.5117"/><text fill="#000000" font-family="sans-serif" font-size="14" font-style="italic" lengthAdjust="spacing" textLength="66" x="742.5" y="54.0469">&#171;Mapper&#187;</text><text fill="#000000" font-family="sans-serif" font-size="14" lengthAdjust="spacing" textLength="154" x="698.5" y="70.5352">OperationTypeMapper</text><rect fill="#E2E2F0" height="46.9766" rx="2.5" ry="2.5" style="stroke:#181818;stroke-width:0.5;" width="168" x="691.5" y="1080.5605"/><text fill="#000000" font-family="sans-serif" font-size="14" font-style="italic" lengthAdjust="spacing" textLength="66" x="742.5" y="1101.0957">&#171;Mapper&#187;</text><text fill="#000000" font-family="sans-serif" font-size="14" lengthAdjust="spacing" textLength="154" x="698.5" y="1117.584">OperationTypeMapper</text><rect fill="#E2E2F0" height="46.9766" rx="2.5" ry="2.5" style="stroke:#181818;stroke-width:0.5;" width="116" x="869.5" y="1080.5605"/><text fill="#000000" font-family="sans-serif" font-size="14" font-style="italic" lengthAdjust="spacing" textLength="67" x="894" y="1101.0957">&#171;Domain&#187;</text><text fill="#000000" font-family="sans-serif" font-size="14" lengthAdjust="spacing" textLength="102" x="876.5" y="1117.584">OperationType</text><rect fill="#E2E2F0" height="46.9766" rx="2.5" ry="2.5" style="stroke:#181818;stroke-width:0.5;" width="146" x="995.5" y="1080.5605"/><text fill="#000000" font-family="sans-serif" font-size="14" font-style="italic" lengthAdjust="spacing" textLength="44" x="1046.5" y="1101.0957">&#171;DTO&#187;</text><text fill="#000000" font-family="sans-serif" font-size="14" lengthAdjust="spacing" textLength="132" x="1002.5" y="1117.584">OperationTypeDTO</text><rect fill="#E2E2F0" height="46.9766" rx="2.5" ry="2.5" style="stroke:#181818;stroke-width:0.5;" width="164" x="1151.5" y="33.5117"/><text fill="#000000" font-family="sans-serif" font-size="14" font-style="italic" lengthAdjust="spacing" textLength="62" x="1202.5" y="54.0469">&#171;Service&#187;</text><text fill="#000000" font-family="sans-serif" font-size="14" lengthAdjust="spacing" textLength="150" x="1158.5" y="70.5352">OperationTypeService</text><rect fill="#E2E2F0" height="46.9766" rx="2.5" ry="2.5" style="stroke:#181818;stroke-width:0.5;" width="164" x="1151.5" y="1080.5605"/><text fill="#000000" font-family="sans-serif" font-size="14" font-style="italic" lengthAdjust="spacing" textLength="62" x="1202.5" y="1101.0957">&#171;Service&#187;</text><text fill="#000000" font-family="sans-serif" font-size="14" lengthAdjust="spacing" textLength="150" x="1158.5" y="1117.584">OperationTypeService</text><rect fill="#E2E2F0" height="46.9766" rx="2.5" ry="2.5" style="stroke:#181818;stroke-width:0.5;" width="164" x="1325.5" y="1080.5605"/><text fill="#000000" font-family="sans-serif" font-size="14" font-style="italic" lengthAdjust="spacing" textLength="62" x="1376.5" y="1101.0957">&#171;Logger&#187;</text><text fill="#000000" font-family="sans-serif" font-size="14" lengthAdjust="spacing" textLength="150" x="1332.5" y="1117.584">OperationTypeLogger</text><rect fill="#E2E2F0" height="46.9766" rx="2.5" ry="2.5" style="stroke:#181818;stroke-width:0.5;" width="237" x="1499.5" y="33.5117"/><text fill="#000000" font-family="sans-serif" font-size="14" font-style="italic" lengthAdjust="spacing" textLength="87" x="1574.5" y="54.0469">&#171;Repository&#187;</text><text fill="#000000" font-family="sans-serif" font-size="14" lengthAdjust="spacing" textLength="223" x="1506.5" y="70.5352">OperationTypeLoggerRepository</text><rect fill="#E2E2F0" height="46.9766" rx="2.5" ry="2.5" style="stroke:#181818;stroke-width:0.5;" width="237" x="1499.5" y="1080.5605"/><text fill="#000000" font-family="sans-serif" font-size="14" font-style="italic" lengthAdjust="spacing" textLength="87" x="1574.5" y="1101.0957">&#171;Repository&#187;</text><text fill="#000000" font-family="sans-serif" font-size="14" lengthAdjust="spacing" textLength="223" x="1506.5" y="1117.584">OperationTypeLoggerRepository</text><rect fill="#E2E2F0" height="46.9766" rx="2.5" ry="2.5" style="stroke:#181818;stroke-width:0.5;" width="189" x="1746.5" y="33.5117"/><text fill="#000000" font-family="sans-serif" font-size="14" font-style="italic" lengthAdjust="spacing" textLength="87" x="1797.5" y="54.0469">&#171;Repository&#187;</text><text fill="#000000" font-family="sans-serif" font-size="14" lengthAdjust="spacing" textLength="175" x="1753.5" y="70.5352">OperationTypeRepository</text><rect fill="#E2E2F0" height="46.9766" rx="2.5" ry="2.5" style="stroke:#181818;stroke-width:0.5;" width="189" x="1746.5" y="1080.5605"/><text fill="#000000" font-family="sans-serif" font-size="14" font-style="italic" lengthAdjust="spacing" textLength="87" x="1797.5" y="1101.0957">&#171;Repository&#187;</text><text fill="#000000" font-family="sans-serif" font-size="14" lengthAdjust="spacing" textLength="175" x="1753.5" y="1117.584">OperationTypeRepository</text><rect fill="#E2E2F0" height="30.4883" rx="2.5" ry="2.5" style="stroke:#181818;stroke-width:0.5;" width="93" x="1945.5" y="50"/><text fill="#000000" font-family="sans-serif" font-size="14" lengthAdjust="spacing" textLength="79" x="1952.5" y="70.5352">UnitOfWork</text><rect fill="#E2E2F0" height="30.4883" rx="2.5" ry="2.5" style="stroke:#181818;stroke-width:0.5;" width="93" x="1945.5" y="1080.5605"/><text fill="#000000" font-family="sans-serif" font-size="14" lengthAdjust="spacing" textLength="79" x="1952.5" y="1101.0957">UnitOfWork</text><rect fill="#FFFFFF" height="972.0723" style="stroke:#181818;stroke-width:1.0;" width="10" x="25.5" y="91.4883"/><rect fill="#FFFFFF" height="950.7617" style="stroke:#181818;stroke-width:1.0;" width="10" x="260.5" y="112.7988"/><rect fill="#FFFFFF" height="64.6211" style="stroke:#181818;stroke-width:1.0;" width="10" x="561.5" y="142.1094"/><rect fill="#FFFFFF" height="674.9668" style="stroke:#181818;stroke-width:1.0;" width="10" x="561.5" y="359.2832"/><rect fill="#FFFFFF" height="87.2871" style="stroke:#181818;stroke-width:1.0;" width="10" x="770.5" y="623.8125"/><rect fill="#FFFFFF" height="87.2871" style="stroke:#181818;stroke-width:1.0;" width="10" x="770.5" y="917.6523"/><rect fill="#FFFFFF" height="205.9082" style="stroke:#181818;stroke-width:1.0;" width="10" x="1228.5" y="388.5938"/><rect fill="#FFFFFF" height="147.9316" style="stroke:#181818;stroke-width:1.0;" width="10" x="1228.5" y="740.4102"/><rect fill="#FFFFFF" height="30" style="stroke:#181818;stroke-width:1.0;" width="10" x="1613" y="475.8809"/><rect fill="#FFFFFF" height="30" style="stroke:#181818;stroke-width:1.0;" width="10" x="1836" y="769.7207"/><rect fill="#FFFFFF" height="30" style="stroke:#181818;stroke-width:1.0;" width="10" x="1987" y="535.1914"/><rect fill="#FFFFFF" height="30" style="stroke:#181818;stroke-width:1.0;" width="10" x="1987" y="829.0313"/><polygon fill="#181818" points="248.5,108.7988,258.5,112.7988,248.5,116.7988,252.5,112.7988" style="stroke:#181818;stroke-width:1.0;"/><line style="stroke:#181818;stroke-width:1.0;" x1="35.5" x2="254.5" y1="112.7988" y2="112.7988"/><text fill="#000000" font-family="sans-serif" font-size="13" lengthAdjust="spacing" textLength="198" x="42.5" y="108.0566">Request to list Operation Types</text><polygon fill="#181818" points="549.5,138.1094,559.5,142.1094,549.5,146.1094,553.5,142.1094" style="stroke:#181818;stroke-width:1.0;"/><line style="stroke:#181818;stroke-width:1.0;" x1="270.5" x2="555.5" y1="142.1094" y2="142.1094"/><text fill="#000000" font-family="sans-serif" font-size="13" lengthAdjust="spacing" textLength="248" x="277.5" y="137.3672">requests HTTP GET for Operation Types</text><path d="M526,155.1094 L526,180.1094 L607,180.1094 L607,165.1094 L597,155.1094 L526,155.1094 " fill="#FEFFDD" style="stroke:#181818;stroke-width:0.5;"/><path d="M597,155.1094 L597,165.1094 L607,165.1094 L597,155.1094 " fill="#FEFFDD" style="stroke:#181818;stroke-width:0.5;"/><text fill="#000000" font-family="sans-serif" font-size="13" lengthAdjust="spacing" textLength="60" x="532" y="172.6777">US 5.1.23</text><polygon fill="#181818" points="281.5,202.7305,271.5,206.7305,281.5,210.7305,277.5,206.7305" style="stroke:#181818;stroke-width:1.0;"/><line style="stroke:#181818;stroke-width:1.0;stroke-dasharray:2.0,2.0;" x1="275.5" x2="565.5" y1="206.7305" y2="206.7305"/><text fill="#000000" font-family="sans-serif" font-size="13" lengthAdjust="spacing" textLength="193" x="287.5" y="201.9883">display list of Operation Types</text><polygon fill="#181818" points="248.5,232.041,258.5,236.041,248.5,240.041,252.5,236.041" style="stroke:#181818;stroke-width:1.0;"/><line style="stroke:#181818;stroke-width:1.0;" x1="35.5" x2="254.5" y1="236.041" y2="236.041"/><text fill="#000000" font-family="sans-serif" font-size="13" lengthAdjust="spacing" textLength="201" x="42.5" y="231.2988">Select an Operation Type to edit</text><path d="M230,249.041 L230,274.041 L300,274.041 L300,259.041 L290,249.041 L230,249.041 " fill="#FEFFDD" style="stroke:#181818;stroke-width:0.5;"/><path d="M290,249.041 L290,259.041 L300,259.041 L290,249.041 " fill="#FEFFDD" style="stroke:#181818;stroke-width:0.5;"/><text fill="#000000" font-family="sans-serif" font-size="13" lengthAdjust="spacing" textLength="49" x="236" y="266.6094">GetByID</text><polygon fill="#181818" points="46.5,296.6621,36.5,300.6621,46.5,304.6621,42.5,300.6621" style="stroke:#181818;stroke-width:1.0;"/><line style="stroke:#181818;stroke-width:1.0;" x1="40.5" x2="259.5" y1="300.6621" y2="300.6621"/><text fill="#000000" font-family="sans-serif" font-size="13" lengthAdjust="spacing" textLength="129" x="52.5" y="295.9199">Show OperationType</text><polygon fill="#181818" points="248.5,325.9727,258.5,329.9727,248.5,333.9727,252.5,329.9727" style="stroke:#181818;stroke-width:1.0;"/><line style="stroke:#181818;stroke-width:1.0;" x1="35.5" x2="254.5" y1="329.9727" y2="329.9727"/><text fill="#000000" font-family="sans-serif" font-size="13" lengthAdjust="spacing" textLength="120" x="42.5" y="325.2305">Edit OperationType</text><polygon fill="#181818" points="549.5,355.2832,559.5,359.2832,549.5,363.2832,553.5,359.2832" style="stroke:#181818;stroke-width:1.0;"/><line style="stroke:#181818;stroke-width:1.0;" x1="270.5" x2="555.5" y1="359.2832" y2="359.2832"/><text fill="#000000" font-family="sans-serif" font-size="13" lengthAdjust="spacing" textLength="272" x="277.5" y="354.541">requests HTTP POST to edit Operation Type</text><polygon fill="#181818" points="1216.5,384.5938,1226.5,388.5938,1216.5,392.5938,1220.5,388.5938" style="stroke:#181818;stroke-width:1.0;"/><line style="stroke:#181818;stroke-width:1.0;" x1="571.5" x2="1222.5" y1="388.5938" y2="388.5938"/><text fill="#000000" font-family="sans-serif" font-size="13" lengthAdjust="spacing" textLength="194" x="578.5" y="383.8516">saveLogger(OperationTypeDto)</text><polygon fill="#181818" points="1313.5,413.9043,1323.5,417.9043,1313.5,421.9043,1317.5,417.9043" style="stroke:#181818;stroke-width:1.0;"/><line style="stroke:#181818;stroke-width:1.0;" x1="1238.5" x2="1319.5" y1="417.9043" y2="417.9043"/><text fill="#000000" font-family="sans-serif" font-size="13" lengthAdjust="spacing" textLength="38" x="1245.5" y="413.1621">create</text><rect fill="#E2E2F0" height="46.9766" rx="2.5" ry="2.5" style="stroke:#181818;stroke-width:0.5;" width="164" x="1325.5" y="396.5938"/><text fill="#000000" font-family="sans-serif" font-size="14" font-style="italic" lengthAdjust="spacing" textLength="62" x="1376.5" y="417.1289">&#171;Logger&#187;</text><text fill="#000000" font-family="sans-serif" font-size="14" lengthAdjust="spacing" textLength="150" x="1332.5" y="433.6172">OperationTypeLogger</text><polygon fill="#181818" points="1601,471.8809,1611,475.8809,1601,479.8809,1605,475.8809" style="stroke:#181818;stroke-width:1.0;"/><line style="stroke:#181818;stroke-width:1.0;" x1="1238.5" x2="1607" y1="475.8809" y2="475.8809"/><text fill="#000000" font-family="sans-serif" font-size="13" lengthAdjust="spacing" textLength="171" x="1245.5" y="471.1387">save(OpeartionTypeLogger)</text><polygon fill="#181818" points="1975,531.1914,1985,535.1914,1975,539.1914,1979,535.1914" style="stroke:#181818;stroke-width:1.0;"/><line style="stroke:#181818;stroke-width:1.0;" x1="1238.5" x2="1981" y1="535.1914" y2="535.1914"/><text fill="#000000" font-family="sans-serif" font-size="13" lengthAdjust="spacing" textLength="96" x="1245.5" y="530.4492">CommitASync()</text><polygon fill="#181818" points="582.5,590.502,572.5,594.502,582.5,598.502,578.5,594.502" style="stroke:#181818;stroke-width:1.0;"/><line style="stroke:#181818;stroke-width:1.0;" x1="576.5" x2="1232.5" y1="594.502" y2="594.502"/><text fill="#000000" font-family="sans-serif" font-size="13" lengthAdjust="spacing" textLength="135" x="588.5" y="589.7598">OperationTypeLogger</text><polygon fill="#181818" points="758.5,619.8125,768.5,623.8125,758.5,627.8125,762.5,623.8125" style="stroke:#181818;stroke-width:1.0;"/><line style="stroke:#181818;stroke-width:1.0;" x1="571.5" x2="764.5" y1="623.8125" y2="623.8125"/><text fill="#000000" font-family="sans-serif" font-size="13" lengthAdjust="spacing" textLength="180" x="578.5" y="619.0703">ToEntity(OperationTypeDTO)</text><polygon fill="#181818" points="857.5,649.123,867.5,653.123,857.5,657.123,861.5,653.123" style="stroke:#181818;stroke-width:1.0;"/><line style="stroke:#181818;stroke-width:1.0;" x1="780.5" x2="863.5" y1="653.123" y2="653.123"/><text fill="#000000" font-family="sans-serif" font-size="13" lengthAdjust="spacing" textLength="45" x="787.5" y="648.3809">creates</text><rect fill="#E2E2F0" height="46.9766" rx="2.5" ry="2.5" style="stroke:#181818;stroke-width:0.5;" width="116" x="869.5" y="631.8125"/><text fill="#000000" font-family="sans-serif" font-size="14" font-style="italic" lengthAdjust="spacing" textLength="67" x="894" y="652.3477">&#171;Domain&#187;</text><text fill="#000000" font-family="sans-serif" font-size="14" lengthAdjust="spacing" textLength="102" x="876.5" y="668.8359">OperationType</text><polygon fill="#181818" points="582.5,707.0996,572.5,711.0996,582.5,715.0996,578.5,711.0996" style="stroke:#181818;stroke-width:1.0;"/><line style="stroke:#181818;stroke-width:1.0;" x1="576.5" x2="774.5" y1="711.0996" y2="711.0996"/><text fill="#000000" font-family="sans-serif" font-size="13" lengthAdjust="spacing" textLength="92" x="588.5" y="706.3574">OperationType</text><polygon fill="#181818" points="1216.5,736.4102,1226.5,740.4102,1216.5,744.4102,1220.5,740.4102" style="stroke:#181818;stroke-width:1.0;"/><line style="stroke:#181818;stroke-width:1.0;" x1="571.5" x2="1222.5" y1="740.4102" y2="740.4102"/><text fill="#000000" font-family="sans-serif" font-size="13" lengthAdjust="spacing" textLength="235" x="578.5" y="735.668">updateOperationType(OperationType)</text><polygon fill="#181818" points="1824,765.7207,1834,769.7207,1824,773.7207,1828,769.7207" style="stroke:#181818;stroke-width:1.0;"/><line style="stroke:#181818;stroke-width:1.0;" x1="1238.5" x2="1830" y1="769.7207" y2="769.7207"/><text fill="#000000" font-family="sans-serif" font-size="13" lengthAdjust="spacing" textLength="273" x="1245.5" y="764.9785">updateOperationTypeASync(OperationType)</text><polygon fill="#181818" points="1975,825.0313,1985,829.0313,1975,833.0313,1979,829.0313" style="stroke:#181818;stroke-width:1.0;"/><line style="stroke:#181818;stroke-width:1.0;" x1="1238.5" x2="1981" y1="829.0313" y2="829.0313"/><text fill="#000000" font-family="sans-serif" font-size="13" lengthAdjust="spacing" textLength="94" x="1245.5" y="824.2891">commitASync()</text><polygon fill="#181818" points="582.5,884.3418,572.5,888.3418,582.5,892.3418,578.5,888.3418" style="stroke:#181818;stroke-width:1.0;"/><line style="stroke:#181818;stroke-width:1.0;" x1="576.5" x2="1232.5" y1="888.3418" y2="888.3418"/><text fill="#000000" font-family="sans-serif" font-size="13" lengthAdjust="spacing" textLength="92" x="588.5" y="883.5996">OperationType</text><polygon fill="#181818" points="758.5,913.6523,768.5,917.6523,758.5,921.6523,762.5,917.6523" style="stroke:#181818;stroke-width:1.0;"/><line style="stroke:#181818;stroke-width:1.0;" x1="571.5" x2="764.5" y1="917.6523" y2="917.6523"/><text fill="#000000" font-family="sans-serif" font-size="13" lengthAdjust="spacing" textLength="141" x="578.5" y="912.9102">toDTO(OperationType)</text><polygon fill="#181818" points="983.5,942.9629,993.5,946.9629,983.5,950.9629,987.5,946.9629" style="stroke:#181818;stroke-width:1.0;"/><line style="stroke:#181818;stroke-width:1.0;" x1="780.5" x2="989.5" y1="946.9629" y2="946.9629"/><text fill="#000000" font-family="sans-serif" font-size="13" lengthAdjust="spacing" textLength="38" x="787.5" y="942.2207">create</text><rect fill="#E2E2F0" height="46.9766" rx="2.5" ry="2.5" style="stroke:#181818;stroke-width:0.5;" width="146" x="995.5" y="925.6523"/><text fill="#000000" font-family="sans-serif" font-size="14" font-style="italic" lengthAdjust="spacing" textLength="44" x="1046.5" y="946.1875">&#171;DTO&#187;</text><text fill="#000000" font-family="sans-serif" font-size="14" lengthAdjust="spacing" textLength="132" x="1002.5" y="962.6758">OperationTypeDTO</text><polygon fill="#181818" points="582.5,1000.9395,572.5,1004.9395,582.5,1008.9395,578.5,1004.9395" style="stroke:#181818;stroke-width:1.0;"/><line style="stroke:#181818;stroke-width:1.0;stroke-dasharray:2.0,2.0;" x1="576.5" x2="774.5" y1="1004.9395" y2="1004.9395"/><text fill="#000000" font-family="sans-serif" font-size="13" lengthAdjust="spacing" textLength="120" x="588.5" y="1000.1973">OperationTypeDTO</text><polygon fill="#181818" points="281.5,1030.25,271.5,1034.25,281.5,1038.25,277.5,1034.25" style="stroke:#181818;stroke-width:1.0;"/><line style="stroke:#181818;stroke-width:1.0;stroke-dasharray:2.0,2.0;" x1="275.5" x2="565.5" y1="1034.25" y2="1034.25"/><text fill="#000000" font-family="sans-serif" font-size="13" lengthAdjust="spacing" textLength="57" x="287.5" y="1029.5078">response</text><polygon fill="#181818" points="41.5,1059.5605,31.5,1063.5605,41.5,1067.5605,37.5,1063.5605" style="stroke:#181818;stroke-width:1.0;"/><line style="stroke:#181818;stroke-width:1.0;stroke-dasharray:2.0,2.0;" x1="35.5" x2="264.5" y1="1063.5605" y2="1063.5605"/><text fill="#000000" font-family="sans-serif" font-size="13" lengthAdjust="spacing" textLength="197" x="47.5" y="1058.8184">Display success/error message</text><!--SRC=[hLJ1Zfim4Btp5NDCLsAhjke58QJj9jgkr8hLGjIpPPoiLS3KTbBnznrZ9nW7w6Lp2CDutflnp6C8rKB2GzNm5gAEICqfxqYhOVyCG1G-9jwyOv9eBjgoxzYZQBKKTSsaYQHQrf2cepFBbg4_ITTPM6EjDBMkDP09hqH3iDGqtGx6MlYsp0U45YQypDTY2oRFd0uPb3FJr3dNS3_4yMZluQmqjSR_GQ-i4ufZzti3bzUtAz4Oi4QsHBD6i6-vpW-_XFmTHOHgVYQQMGr4aPL2dE7a4tXbVqvCQS0MrbnvcS6aLYCOPOA2GPHHGO9b33W5tylo1Pvs9HnGPOje0ufQWPOuuzK79IMmB-3h_QVxpr-YQF34hgYAgwuclQr876veApObdbwfO3MZ6aWRuCmTMSMrLuS9VsBwM_-yTRSRc93ZJVoTJY58iaEY862vFIzvKLwo1qK5BJ9_SUO4ce0YPwUbpLJuMdmOaIuySiyuiv2xkuHAXW7ZGQZ1n2Gmr4OwldGzzX3ZT__cx9ff563oA9g6wuUYR-d6u_KawZ5wtYlNqDAPxyl7NNfW6sXNJWAbsBMQwtuJhWsl3XiRsKUSsVM3lGFRFELEmDKH3DqhmH458pnr5HvEGDDgrWRfDJYP8R8zNM8RiVCZyz9uqmBwBkDQRjDqKd0PbHOubiMxX4FIObItSyxf12bd9ZJy9Wj7CjM9Lh6RpMA-wN4hRDrUKYTAcL8VcPIuz1eqoN62nMNflTcz-my0]--></g></svg>