<?xml version="1.0" encoding="us-ascii" standalone="no"?><svg xmlns="http://www.w3.org/2000/svg" xmlns:xlink="http://www.w3.org/1999/xlink" contentStyleType="text/css" height="792px" preserveAspectRatio="none" style="width:1834px;height:792px;background:#FFFFFF;" version="1.1" viewBox="0 0 1834 792" width="1834px" zoomAndPan="magnify"><defs/><g><rect fill="#FFFFFF" height="602.498" style="stroke:#181818;stroke-width:1.0;" width="10" x="25.5" y="91.4883"/><rect fill="#FFFFFF" height="590.1875" style="stroke:#181818;stroke-width:1.0;" width="10" x="372.5" y="112.7988"/><rect fill="#FFFFFF" height="448.6348" style="stroke:#181818;stroke-width:1.0;" width="10" x="638.5" y="216.041"/><rect fill="#FFFFFF" height="160.9082" style="stroke:#181818;stroke-width:1.0;" width="10" x="868.5" y="474.457"/><rect fill="#FFFFFF" height="199.7949" style="stroke:#181818;stroke-width:1.0;" width="10" x="1326.5" y="245.3516"/><rect fill="#FFFFFF" height="141.1738" style="stroke:#181818;stroke-width:1.0;" width="10" x="1698.5" y="274.6621"/><rect fill="none" height="117.5977" style="stroke:#000000;stroke-width:1.5;" width="470" x="779.5" y="489.457"/><line style="stroke:#181818;stroke-width:0.5;stroke-dasharray:5.0,5.0;" x1="30" x2="30" y1="81.4883" y2="711.9863"/><line style="stroke:#181818;stroke-width:0.5;stroke-dasharray:5.0,5.0;" x1="377.5" x2="377.5" y1="81.4883" y2="711.9863"/><line style="stroke:#181818;stroke-width:0.5;stroke-dasharray:5.0,5.0;" x1="643.5" x2="643.5" y1="81.4883" y2="711.9863"/><line style="stroke:#181818;stroke-width:0.5;stroke-dasharray:5.0,5.0;" x1="873.5" x2="873.5" y1="81.4883" y2="711.9863"/><line style="stroke:#181818;stroke-width:0.5;stroke-dasharray:5.0,5.0;" x1="1025.5" x2="1025.5" y1="81.4883" y2="711.9863"/><line style="stroke:#181818;stroke-width:0.5;stroke-dasharray:5.0,5.0;" x1="1166.5" x2="1166.5" y1="545.7559" y2="711.9863"/><line style="stroke:#181818;stroke-width:0.5;stroke-dasharray:5.0,5.0;" x1="1331.5" x2="1331.5" y1="81.4883" y2="711.9863"/><line style="stroke:#181818;stroke-width:0.5;stroke-dasharray:5.0,5.0;" x1="1703" x2="1703" y1="81.4883" y2="711.9863"/><text fill="#000000" font-family="sans-serif" font-size="14" lengthAdjust="spacing" textLength="45" x="5" y="78.5352">Admin</text><ellipse cx="30.5" cy="13.5" fill="#E2E2F0" rx="8" ry="8" style="stroke:#181818;stroke-width:0.5;"/><path d="M30.5,21.5 L30.5,48.5 M17.5,29.5 L43.5,29.5 M30.5,48.5 L17.5,63.5 M30.5,48.5 L43.5,63.5 " fill="none" style="stroke:#181818;stroke-width:0.5;"/><text fill="#000000" font-family="sans-serif" font-size="14" lengthAdjust="spacing" textLength="45" x="5" y="724.5215">Admin</text><ellipse cx="30.5" cy="735.9746" fill="#E2E2F0" rx="8" ry="8" style="stroke:#181818;stroke-width:0.5;"/><path d="M30.5,743.9746 L30.5,770.9746 M17.5,751.9746 L43.5,751.9746 M30.5,770.9746 L17.5,785.9746 M30.5,770.9746 L43.5,785.9746 " fill="none" style="stroke:#181818;stroke-width:0.5;"/><rect fill="#E2E2F0" height="30.4883" rx="2.5" ry="2.5" style="stroke:#181818;stroke-width:0.5;" width="28" x="363.5" y="50"/><text fill="#000000" font-family="sans-serif" font-size="14" lengthAdjust="spacing" textLength="14" x="370.5" y="70.5352">UI</text><rect fill="#E2E2F0" height="30.4883" rx="2.5" ry="2.5" style="stroke:#181818;stroke-width:0.5;" width="28" x="363.5" y="710.9863"/><text fill="#000000" font-family="sans-serif" font-size="14" lengthAdjust="spacing" textLength="14" x="370.5" y="731.5215">UI</text><rect fill="#E2E2F0" height="46.9766" rx="2.5" ry="2.5" style="stroke:#181818;stroke-width:0.5;" width="186" x="550.5" y="33.5117"/><text fill="#000000" font-family="sans-serif" font-size="14" font-style="italic" lengthAdjust="spacing" textLength="84" x="601.5" y="54.0469">&#171;Controller&#187;</text><text fill="#000000" font-family="sans-serif" font-size="14" lengthAdjust="spacing" textLength="172" x="557.5" y="70.5352">OperationTypeController</text><rect fill="#E2E2F0" height="46.9766" rx="2.5" ry="2.5" style="stroke:#181818;stroke-width:0.5;" width="186" x="550.5" y="710.9863"/><text fill="#000000" font-family="sans-serif" font-size="14" font-style="italic" lengthAdjust="spacing" textLength="84" x="601.5" y="731.5215">&#171;Controller&#187;</text><text fill="#000000" font-family="sans-serif" font-size="14" lengthAdjust="spacing" textLength="172" x="557.5" y="748.0098">OperationTypeController</text><rect fill="#E2E2F0" height="46.9766" rx="2.5" ry="2.5" style="stroke:#181818;stroke-width:0.5;" width="168" x="789.5" y="33.5117"/><text fill="#000000" font-family="sans-serif" font-size="14" font-style="italic" lengthAdjust="spacing" textLength="66" x="840.5" y="54.0469">&#171;Mapper&#187;</text><text fill="#000000" font-family="sans-serif" font-size="14" lengthAdjust="spacing" textLength="154" x="796.5" y="70.5352">OperationTypeMapper</text><rect fill="#E2E2F0" height="46.9766" rx="2.5" ry="2.5" style="stroke:#181818;stroke-width:0.5;" width="168" x="789.5" y="710.9863"/><text fill="#000000" font-family="sans-serif" font-size="14" font-style="italic" lengthAdjust="spacing" textLength="66" x="840.5" y="731.5215">&#171;Mapper&#187;</text><text fill="#000000" font-family="sans-serif" font-size="14" lengthAdjust="spacing" textLength="154" x="796.5" y="748.0098">OperationTypeMapper</text><rect fill="#E2E2F0" height="46.9766" rx="2.5" ry="2.5" style="stroke:#181818;stroke-width:0.5;" width="116" x="967.5" y="33.5117"/><text fill="#000000" font-family="sans-serif" font-size="14" font-style="italic" lengthAdjust="spacing" textLength="67" x="992" y="54.0469">&#171;Domain&#187;</text><text fill="#000000" font-family="sans-serif" font-size="14" lengthAdjust="spacing" textLength="102" x="974.5" y="70.5352">OperationType</text><rect fill="#E2E2F0" height="46.9766" rx="2.5" ry="2.5" style="stroke:#181818;stroke-width:0.5;" width="116" x="967.5" y="710.9863"/><text fill="#000000" font-family="sans-serif" font-size="14" font-style="italic" lengthAdjust="spacing" textLength="67" x="992" y="731.5215">&#171;Domain&#187;</text><text fill="#000000" font-family="sans-serif" font-size="14" lengthAdjust="spacing" textLength="102" x="974.5" y="748.0098">OperationType</text><rect fill="#E2E2F0" height="46.9766" rx="2.5" ry="2.5" style="stroke:#181818;stroke-width:0.5;" width="146" x="1093.5" y="710.9863"/><text fill="#000000" font-family="sans-serif" font-size="14" font-style="italic" lengthAdjust="spacing" textLength="44" x="1144.5" y="731.5215">&#171;DTO&#187;</text><text fill="#000000" font-family="sans-serif" font-size="14" lengthAdjust="spacing" textLength="132" x="1100.5" y="748.0098">OperationTypeDTO</text><rect fill="#E2E2F0" height="46.9766" rx="2.5" ry="2.5" style="stroke:#181818;stroke-width:0.5;" width="164" x="1249.5" y="33.5117"/><text fill="#000000" font-family="sans-serif" font-size="14" font-style="italic" lengthAdjust="spacing" textLength="62" x="1300.5" y="54.0469">&#171;Service&#187;</text><text fill="#000000" font-family="sans-serif" font-size="14" lengthAdjust="spacing" textLength="150" x="1256.5" y="70.5352">OperationTypeService</text><rect fill="#E2E2F0" height="46.9766" rx="2.5" ry="2.5" style="stroke:#181818;stroke-width:0.5;" width="164" x="1249.5" y="710.9863"/><text fill="#000000" font-family="sans-serif" font-size="14" font-style="italic" lengthAdjust="spacing" textLength="62" x="1300.5" y="731.5215">&#171;Service&#187;</text><text fill="#000000" font-family="sans-serif" font-size="14" lengthAdjust="spacing" textLength="150" x="1256.5" y="748.0098">OperationTypeService</text><rect fill="#E2E2F0" height="46.9766" rx="2.5" ry="2.5" style="stroke:#181818;stroke-width:0.5;" width="189" x="1609" y="33.5117"/><text fill="#000000" font-family="sans-serif" font-size="14" font-style="italic" lengthAdjust="spacing" textLength="87" x="1660" y="54.0469">&#171;Repository&#187;</text><text fill="#000000" font-family="sans-serif" font-size="14" lengthAdjust="spacing" textLength="175" x="1616" y="70.5352">OperationTypeRepository</text><rect fill="#E2E2F0" height="46.9766" rx="2.5" ry="2.5" style="stroke:#181818;stroke-width:0.5;" width="189" x="1609" y="710.9863"/><text fill="#000000" font-family="sans-serif" font-size="14" font-style="italic" lengthAdjust="spacing" textLength="87" x="1660" y="731.5215">&#171;Repository&#187;</text><text fill="#000000" font-family="sans-serif" font-size="14" lengthAdjust="spacing" textLength="175" x="1616" y="748.0098">OperationTypeRepository</text><rect fill="#FFFFFF" height="602.498" style="stroke:#181818;stroke-width:1.0;" width="10" x="25.5" y="91.4883"/><rect fill="#FFFFFF" height="590.1875" style="stroke:#181818;stroke-width:1.0;" width="10" x="372.5" y="112.7988"/><rect fill="#FFFFFF" height="448.6348" style="stroke:#181818;stroke-width:1.0;" width="10" x="638.5" y="216.041"/><rect fill="#FFFFFF" height="160.9082" style="stroke:#181818;stroke-width:1.0;" width="10" x="868.5" y="474.457"/><rect fill="#FFFFFF" height="199.7949" style="stroke:#181818;stroke-width:1.0;" width="10" x="1326.5" y="245.3516"/><rect fill="#FFFFFF" height="141.1738" style="stroke:#181818;stroke-width:1.0;" width="10" x="1698.5" y="274.6621"/><polygon fill="#181818" points="360.5,108.7988,370.5,112.7988,360.5,116.7988,364.5,112.7988" style="stroke:#181818;stroke-width:1.0;"/><line style="stroke:#181818;stroke-width:1.0;" x1="35.5" x2="366.5" y1="112.7988" y2="112.7988"/><text fill="#000000" font-family="sans-serif" font-size="13" lengthAdjust="spacing" textLength="290" x="42.5" y="108.0566">Make a request to search for OperationType(s)</text><polygon fill="#181818" points="46.5,138.1094,36.5,142.1094,46.5,146.1094,42.5,142.1094" style="stroke:#181818;stroke-width:1.0;"/><line style="stroke:#181818;stroke-width:1.0;stroke-dasharray:2.0,2.0;" x1="40.5" x2="371.5" y1="142.1094" y2="142.1094"/><text fill="#000000" font-family="sans-serif" font-size="13" lengthAdjust="spacing" textLength="313" x="52.5" y="137.3672">Asks for the OperationType information to search</text><polygon fill="#181818" points="360.5,182.7305,370.5,186.7305,360.5,190.7305,364.5,186.7305" style="stroke:#181818;stroke-width:1.0;"/><line style="stroke:#181818;stroke-width:1.0;" x1="35.5" x2="366.5" y1="186.7305" y2="186.7305"/><text fill="#000000" font-family="sans-serif" font-size="13" lengthAdjust="spacing" textLength="313" x="42.5" y="166.6777">Provides the OperationType information to search</text><text fill="#000000" font-family="sans-serif" font-size="13" lengthAdjust="spacing" textLength="272" x="42.5" y="181.9883">(Name and/or Specialization and/or status)</text><polygon fill="#181818" points="626.5,212.041,636.5,216.041,626.5,220.041,630.5,216.041" style="stroke:#181818;stroke-width:1.0;"/><line style="stroke:#181818;stroke-width:1.0;" x1="382.5" x2="632.5" y1="216.041" y2="216.041"/><text fill="#000000" font-family="sans-serif" font-size="13" lengthAdjust="spacing" textLength="112" x="389.5" y="211.2988">HTTP GET request</text><polygon fill="#181818" points="1314.5,241.3516,1324.5,245.3516,1314.5,249.3516,1318.5,245.3516" style="stroke:#181818;stroke-width:1.0;"/><line style="stroke:#181818;stroke-width:1.0;" x1="648.5" x2="1320.5" y1="245.3516" y2="245.3516"/><text fill="#000000" font-family="sans-serif" font-size="13" lengthAdjust="spacing" textLength="343" x="655.5" y="240.6094">getOperationTypesByFilter(Name,Specialization,status)</text><polygon fill="#181818" points="1686.5,270.6621,1696.5,274.6621,1686.5,278.6621,1690.5,274.6621" style="stroke:#181818;stroke-width:1.0;"/><line style="stroke:#181818;stroke-width:1.0;" x1="1336.5" x2="1692.5" y1="274.6621" y2="274.6621"/><text fill="#000000" font-family="sans-serif" font-size="13" lengthAdjust="spacing" textLength="343" x="1343.5" y="269.9199">getOperationTypesByFilter(Name,Specialization,status)</text><path d="M1580,287.6621 L1580,388.6621 L1827,388.6621 L1827,297.6621 L1817,287.6621 L1580,287.6621 " fill="#FEFFDD" style="stroke:#181818;stroke-width:0.5;"/><path d="M1817,287.6621 L1817,297.6621 L1827,297.6621 L1817,287.6621 " fill="#FEFFDD" style="stroke:#181818;stroke-width:0.5;"/><text fill="#000000" font-family="sans-serif" font-size="13" lengthAdjust="spacing" textLength="211" x="1586" y="305.2305">The repository return only results</text><text fill="#000000" font-family="sans-serif" font-size="13" lengthAdjust="spacing" textLength="193" x="1590" y="320.541">that match all specified filters,</text><text fill="#000000" font-family="sans-serif" font-size="13" lengthAdjust="spacing" textLength="213" x="1590" y="335.8516">providing the intersection of each</text><text fill="#000000" font-family="sans-serif" font-size="13" lengthAdjust="spacing" textLength="222" x="1590" y="351.1621">parameter. If one of the parameters</text><text fill="#000000" font-family="sans-serif" font-size="13" lengthAdjust="spacing" textLength="168" x="1590" y="366.4727">is null, will not be taken in</text><text fill="#000000" font-family="sans-serif" font-size="13" lengthAdjust="spacing" textLength="86" x="1590" y="381.7832">consideration</text><polygon fill="#181818" points="1347.5,411.8359,1337.5,415.8359,1347.5,419.8359,1343.5,415.8359" style="stroke:#181818;stroke-width:1.0;"/><line style="stroke:#181818;stroke-width:1.0;stroke-dasharray:2.0,2.0;" x1="1341.5" x2="1702.5" y1="415.8359" y2="415.8359"/><text fill="#000000" font-family="sans-serif" font-size="13" lengthAdjust="spacing" textLength="134" x="1353.5" y="411.0938">listOfOperationTypes</text><polygon fill="#181818" points="659.5,441.1465,649.5,445.1465,659.5,449.1465,655.5,445.1465" style="stroke:#181818;stroke-width:1.0;"/><line style="stroke:#181818;stroke-width:1.0;stroke-dasharray:2.0,2.0;" x1="653.5" x2="1330.5" y1="445.1465" y2="445.1465"/><text fill="#000000" font-family="sans-serif" font-size="13" lengthAdjust="spacing" textLength="134" x="665.5" y="440.4043">listOfOperationTypes</text><polygon fill="#181818" points="856.5,470.457,866.5,474.457,856.5,478.457,860.5,474.457" style="stroke:#181818;stroke-width:1.0;"/><line style="stroke:#181818;stroke-width:1.0;" x1="648.5" x2="862.5" y1="474.457" y2="474.457"/><text fill="#000000" font-family="sans-serif" font-size="13" lengthAdjust="spacing" textLength="201" x="655.5" y="469.7148">toDtoList(listOfOperationTypes)</text><path d="M779.5,489.457 L853.5,489.457 L853.5,496.7676 L843.5,506.7676 L779.5,506.7676 L779.5,489.457 " fill="#EEEEEE" style="stroke:#000000;stroke-width:1.5;"/><rect fill="none" height="117.5977" style="stroke:#000000;stroke-width:1.5;" width="470" x="779.5" y="489.457"/><text fill="#000000" font-family="sans-serif" font-size="13" font-weight="bold" lengthAdjust="spacing" textLength="29" x="794.5" y="503.0254">loop</text><polygon fill="#181818" points="1081.5,524.0781,1091.5,528.0781,1081.5,532.0781,1085.5,528.0781" style="stroke:#181818;stroke-width:1.0;"/><line style="stroke:#181818;stroke-width:1.0;" x1="878.5" x2="1087.5" y1="528.0781" y2="528.0781"/><text fill="#000000" font-family="sans-serif" font-size="13" lengthAdjust="spacing" textLength="38" x="885.5" y="523.3359">create</text><rect fill="#E2E2F0" height="46.9766" rx="2.5" ry="2.5" style="stroke:#181818;stroke-width:0.5;" width="146" x="1093.5" y="506.7676"/><text fill="#000000" font-family="sans-serif" font-size="14" font-style="italic" lengthAdjust="spacing" textLength="44" x="1144.5" y="527.3027">&#171;DTO&#187;</text><text fill="#000000" font-family="sans-serif" font-size="14" lengthAdjust="spacing" textLength="132" x="1100.5" y="543.791">OperationTypeDTO</text><line style="stroke:#181818;stroke-width:1.0;" x1="878.5" x2="920.5" y1="586.0547" y2="586.0547"/><line style="stroke:#181818;stroke-width:1.0;" x1="920.5" x2="920.5" y1="586.0547" y2="599.0547"/><line style="stroke:#181818;stroke-width:1.0;" x1="879.5" x2="920.5" y1="599.0547" y2="599.0547"/><polygon fill="#181818" points="889.5,595.0547,879.5,599.0547,889.5,603.0547,885.5,599.0547" style="stroke:#181818;stroke-width:1.0;"/><text fill="#000000" font-family="sans-serif" font-size="13" lengthAdjust="spacing" textLength="91" x="885.5" y="581.3125">addToList(dto)</text><polygon fill="#181818" points="659.5,631.3652,649.5,635.3652,659.5,639.3652,655.5,635.3652" style="stroke:#181818;stroke-width:1.0;"/><line style="stroke:#181818;stroke-width:1.0;" x1="653.5" x2="872.5" y1="635.3652" y2="635.3652"/><text fill="#000000" font-family="sans-serif" font-size="13" lengthAdjust="spacing" textLength="162" x="665.5" y="630.623">listOfOperationTypesDTO</text><polygon fill="#181818" points="393.5,660.6758,383.5,664.6758,393.5,668.6758,389.5,664.6758" style="stroke:#181818;stroke-width:1.0;"/><line style="stroke:#181818;stroke-width:1.0;stroke-dasharray:2.0,2.0;" x1="387.5" x2="642.5" y1="664.6758" y2="664.6758"/><text fill="#000000" font-family="sans-serif" font-size="13" lengthAdjust="spacing" textLength="232" x="399.5" y="659.9336">response with list of OperationTypes</text><polygon fill="#181818" points="41.5,689.9863,31.5,693.9863,41.5,697.9863,37.5,693.9863" style="stroke:#181818;stroke-width:1.0;"/><line style="stroke:#181818;stroke-width:1.0;stroke-dasharray:2.0,2.0;" x1="35.5" x2="371.5" y1="693.9863" y2="693.9863"/><text fill="#000000" font-family="sans-serif" font-size="13" lengthAdjust="spacing" textLength="209" x="47.5" y="689.2441">Returns the list of OperationType</text><!--SRC=[fLHDRzim3BthL_2O5l5sDmG3tRAF0EjIjEwj5ysc6w6Av4bCXkpNZvASE2xIRC0kjaJoyL5yb5H3piDDkz4MHAyywKRtoX8yBW5KuD_4kkhHAzBErliUFpfBtXc3FaOsv0r8EHghwctehUhx3DlabPJPT0aKmrktKLogb8kqk1I-g5S9GIw6rwjBiG_eTxf9365OIZaOB-7kiNT1Smlt4Uh7dPIZYnC8rP3UASBSQY5onukA6rp2hNfXQeR_t68Wu883Aj-ieMDj9dopS3McOcrOfOAJv6mbt8INa42qnbUzqvRjcxGV2QPbt7ctqos6VqK_sTbtjU7ARVkUEHzwRBGo-dSE6wo156svwiTbKSKHAU5hNT_1bq_ruRpZWQ9VYFZbYWOTIdX6cXGJFkm_QqFe4_jyIZi_y1sJ3dd4y2-gKQN_pZsc4i8wDhWTp_8f0TJhqp1UqjPRSDR4TTWQ2a_SqhKYlWd4aYjZ84JQJcCBNIecp3ccJ-fe-vpaqJRQiKcjTXsWYde03ohNpQvtiEoO1QClnXyTaKu7i5jZvl1BCniN3ZyGY8UGNPRzZRE11o6tHOYnV9wreon61rfrq-w95i_svj3xmmZy3NlGB8z2VY9ASWjotnWvEmS_KIN72-DS3o9lYegVWUlhil784KVZa5crRPqpSzILGDj211_3Kj7dIFbLEIrx87vSogA0V5BMkETk8hUQrkdSKP6tJvwkmAjRVPzc9b_BindWD4D-OFu0]--></g></svg>