<?xml version="1.0" encoding="us-ascii" standalone="no"?><svg xmlns="http://www.w3.org/2000/svg" xmlns:xlink="http://www.w3.org/1999/xlink" contentStyleType="text/css" height="492px" preserveAspectRatio="none" style="width:942px;height:492px;background:#FFFFFF;" version="1.1" viewBox="0 0 942 492" width="942px" zoomAndPan="magnify"><defs/><g><rect fill="#FFFFFF" height="363.7344" style="stroke:#181818;stroke-width:1.0;" width="10" x="51.5" y="65.2188"/><rect fill="#FFFFFF" height="332.3828" style="stroke:#181818;stroke-width:1.0;" width="10" x="211.5" y="87.5703"/><rect fill="#FFFFFF" height="211.4609" style="stroke:#181818;stroke-width:1.0;" width="10" x="506" y="178.1406"/><rect fill="#FFFFFF" height="150.7578" style="stroke:#181818;stroke-width:1.0;" width="10" x="619" y="208.4922"/><rect fill="#FFFFFF" height="90.0547" style="stroke:#181818;stroke-width:1.0;" width="10" x="784" y="238.8438"/><line style="stroke:#181818;stroke-width:0.5;stroke-dasharray:5.0,5.0;" x1="56" x2="56" y1="55.2188" y2="437.9531"/><line style="stroke:#181818;stroke-width:0.5;stroke-dasharray:5.0,5.0;" x1="216" x2="216" y1="55.2188" y2="437.9531"/><line style="stroke:#181818;stroke-width:0.5;stroke-dasharray:5.0,5.0;" x1="397.5" x2="397.5" y1="135.6797" y2="437.9531"/><line style="stroke:#181818;stroke-width:0.5;stroke-dasharray:5.0,5.0;" x1="510.5" x2="510.5" y1="55.2188" y2="437.9531"/><line style="stroke:#181818;stroke-width:0.5;stroke-dasharray:5.0,5.0;" x1="623.5" x2="623.5" y1="55.2188" y2="437.9531"/><line style="stroke:#181818;stroke-width:0.5;stroke-dasharray:5.0,5.0;" x1="789" x2="789" y1="55.2188" y2="437.9531"/><rect fill="#E2E2F0" height="49.2188" rx="2.5" ry="2.5" style="stroke:#181818;stroke-width:0.5;" width="103" x="5" y="5"/><text fill="#000000" font-family="sans-serif" font-size="14" font-style="italic" lengthAdjust="spacing" textLength="89" x="12" y="26.5332">&#171;Component&#187;</text><text fill="#000000" font-family="sans-serif" font-size="14" lengthAdjust="spacing" textLength="29" x="42" y="44.1426">View</text><rect fill="#E2E2F0" height="49.2188" rx="2.5" ry="2.5" style="stroke:#181818;stroke-width:0.5;" width="103" x="5" y="436.9531"/><text fill="#000000" font-family="sans-serif" font-size="14" font-style="italic" lengthAdjust="spacing" textLength="89" x="12" y="458.4863">&#171;Component&#187;</text><text fill="#000000" font-family="sans-serif" font-size="14" lengthAdjust="spacing" textLength="29" x="42" y="476.0957">View</text><rect fill="#E2E2F0" height="49.2188" rx="2.5" ry="2.5" style="stroke:#181818;stroke-width:0.5;" width="103" x="165" y="5"/><text fill="#000000" font-family="sans-serif" font-size="14" font-style="italic" lengthAdjust="spacing" textLength="89" x="172" y="26.5332">&#171;Component&#187;</text><text fill="#000000" font-family="sans-serif" font-size="14" lengthAdjust="spacing" textLength="73" x="180" y="44.1426">Component</text><rect fill="#E2E2F0" height="49.2188" rx="2.5" ry="2.5" style="stroke:#181818;stroke-width:0.5;" width="103" x="165" y="436.9531"/><text fill="#000000" font-family="sans-serif" font-size="14" font-style="italic" lengthAdjust="spacing" textLength="89" x="172" y="458.4863">&#171;Component&#187;</text><text fill="#000000" font-family="sans-serif" font-size="14" lengthAdjust="spacing" textLength="73" x="180" y="476.0957">Component</text><rect fill="#E2E2F0" height="49.2188" rx="2.5" ry="2.5" style="stroke:#181818;stroke-width:0.5;" width="103" x="346.5" y="436.9531"/><text fill="#000000" font-family="sans-serif" font-size="14" font-style="italic" lengthAdjust="spacing" textLength="89" x="353.5" y="458.4863">&#171;Component&#187;</text><text fill="#000000" font-family="sans-serif" font-size="14" lengthAdjust="spacing" textLength="38" x="379" y="476.0957">Model</text><rect fill="#E2E2F0" height="49.2188" rx="2.5" ry="2.5" style="stroke:#181818;stroke-width:0.5;" width="103" x="459.5" y="5"/><text fill="#000000" font-family="sans-serif" font-size="14" font-style="italic" lengthAdjust="spacing" textLength="89" x="466.5" y="26.5332">&#171;Component&#187;</text><text fill="#000000" font-family="sans-serif" font-size="14" lengthAdjust="spacing" textLength="47" x="487.5" y="44.1426">Service</text><rect fill="#E2E2F0" height="49.2188" rx="2.5" ry="2.5" style="stroke:#181818;stroke-width:0.5;" width="103" x="459.5" y="436.9531"/><text fill="#000000" font-family="sans-serif" font-size="14" font-style="italic" lengthAdjust="spacing" textLength="89" x="466.5" y="458.4863">&#171;Component&#187;</text><text fill="#000000" font-family="sans-serif" font-size="14" lengthAdjust="spacing" textLength="47" x="487.5" y="476.0957">Service</text><rect fill="#E2E2F0" height="49.2188" rx="2.5" ry="2.5" style="stroke:#181818;stroke-width:0.5;" width="103" x="572.5" y="5"/><text fill="#000000" font-family="sans-serif" font-size="14" font-style="italic" lengthAdjust="spacing" textLength="89" x="579.5" y="26.5332">&#171;Component&#187;</text><text fill="#000000" font-family="sans-serif" font-size="14" lengthAdjust="spacing" textLength="74" x="587" y="44.1426">HTTPDriver</text><rect fill="#E2E2F0" height="49.2188" rx="2.5" ry="2.5" style="stroke:#181818;stroke-width:0.5;" width="103" x="572.5" y="436.9531"/><text fill="#000000" font-family="sans-serif" font-size="14" font-style="italic" lengthAdjust="spacing" textLength="89" x="579.5" y="458.4863">&#171;Component&#187;</text><text fill="#000000" font-family="sans-serif" font-size="14" lengthAdjust="spacing" textLength="74" x="587" y="476.0957">HTTPDriver</text><rect fill="#E2E2F0" height="49.2188" rx="2.5" ry="2.5" style="stroke:#181818;stroke-width:0.5;" width="124" x="727" y="5"/><text fill="#000000" font-family="sans-serif" font-size="14" font-style="italic" lengthAdjust="spacing" textLength="110" x="734" y="26.5332">&#171;Container (C4)&#187;</text><text fill="#000000" font-family="sans-serif" font-size="14" lengthAdjust="spacing" textLength="80" x="749" y="44.1426">MastersData</text><rect fill="#E2E2F0" height="49.2188" rx="2.5" ry="2.5" style="stroke:#181818;stroke-width:0.5;" width="124" x="727" y="436.9531"/><text fill="#000000" font-family="sans-serif" font-size="14" font-style="italic" lengthAdjust="spacing" textLength="110" x="734" y="458.4863">&#171;Container (C4)&#187;</text><text fill="#000000" font-family="sans-serif" font-size="14" lengthAdjust="spacing" textLength="80" x="749" y="476.0957">MastersData</text><rect fill="#FFFFFF" height="363.7344" style="stroke:#181818;stroke-width:1.0;" width="10" x="51.5" y="65.2188"/><rect fill="#FFFFFF" height="332.3828" style="stroke:#181818;stroke-width:1.0;" width="10" x="211.5" y="87.5703"/><rect fill="#FFFFFF" height="211.4609" style="stroke:#181818;stroke-width:1.0;" width="10" x="506" y="178.1406"/><rect fill="#FFFFFF" height="150.7578" style="stroke:#181818;stroke-width:1.0;" width="10" x="619" y="208.4922"/><rect fill="#FFFFFF" height="90.0547" style="stroke:#181818;stroke-width:1.0;" width="10" x="784" y="238.8438"/><polygon fill="#181818" points="199.5,83.5703,209.5,87.5703,199.5,91.5703,203.5,87.5703" style="stroke:#181818;stroke-width:1.0;"/><line style="stroke:#181818;stroke-width:1.0;" x1="61.5" x2="205.5" y1="87.5703" y2="87.5703"/><text fill="#000000" font-family="sans-serif" font-size="13" lengthAdjust="spacing" textLength="120" x="68.5" y="82.7139">click to delete a staff</text><polygon fill="#181818" points="334.5,113.9219,344.5,117.9219,334.5,121.9219,338.5,117.9219" style="stroke:#181818;stroke-width:1.0;"/><line style="stroke:#181818;stroke-width:1.0;" x1="221.5" x2="340.5" y1="117.9219" y2="117.9219"/><text fill="#000000" font-family="sans-serif" font-size="13" lengthAdjust="spacing" textLength="101" x="228.5" y="113.0654">get the id in route</text><rect fill="#E2E2F0" height="49.2188" rx="2.5" ry="2.5" style="stroke:#181818;stroke-width:0.5;" width="103" x="346.5" y="95.5703"/><text fill="#000000" font-family="sans-serif" font-size="14" font-style="italic" lengthAdjust="spacing" textLength="89" x="353.5" y="117.1035">&#171;Component&#187;</text><text fill="#000000" font-family="sans-serif" font-size="14" lengthAdjust="spacing" textLength="38" x="379" y="134.7129">Model</text><polygon fill="#181818" points="494,174.1406,504,178.1406,494,182.1406,498,178.1406" style="stroke:#181818;stroke-width:1.0;"/><line style="stroke:#181818;stroke-width:1.0;" x1="221.5" x2="500" y1="178.1406" y2="178.1406"/><text fill="#000000" font-family="sans-serif" font-size="13" lengthAdjust="spacing" textLength="85" x="228.5" y="173.2842">delete the staff</text><polygon fill="#181818" points="607,204.4922,617,208.4922,607,212.4922,611,208.4922" style="stroke:#181818;stroke-width:1.0;"/><line style="stroke:#181818;stroke-width:1.0;" x1="516" x2="613" y1="208.4922" y2="208.4922"/><text fill="#000000" font-family="sans-serif" font-size="13" lengthAdjust="spacing" textLength="50" x="523" y="203.6357">DELETE</text><polygon fill="#181818" points="772,234.8438,782,238.8438,772,242.8438,776,238.8438" style="stroke:#181818;stroke-width:1.0;"/><line style="stroke:#181818;stroke-width:1.0;" x1="629" x2="778" y1="238.8438" y2="238.8438"/><text fill="#000000" font-family="sans-serif" font-size="13" lengthAdjust="spacing" textLength="136" x="636" y="233.9873">DELETE (/api/staffs/:id)</text><line style="stroke:#181818;stroke-width:1.0;" x1="794" x2="836" y1="285.5469" y2="285.5469"/><line style="stroke:#181818;stroke-width:1.0;" x1="836" x2="836" y1="285.5469" y2="298.5469"/><line style="stroke:#181818;stroke-width:1.0;" x1="795" x2="836" y1="298.5469" y2="298.5469"/><polygon fill="#181818" points="805,294.5469,795,298.5469,805,302.5469,801,298.5469" style="stroke:#181818;stroke-width:1.0;"/><text fill="#000000" font-family="sans-serif" font-size="13" lengthAdjust="spacing" textLength="134" x="801" y="264.3389">validates all information</text><text fill="#000000" font-family="sans-serif" font-size="13" lengthAdjust="spacing" textLength="117" x="801" y="280.6904">and deletes the staff</text><polygon fill="#181818" points="640,324.8984,630,328.8984,640,332.8984,636,328.8984" style="stroke:#181818;stroke-width:1.0;"/><line style="stroke:#181818;stroke-width:1.0;stroke-dasharray:2.0,2.0;" x1="634" x2="788" y1="328.8984" y2="328.8984"/><text fill="#000000" font-family="sans-serif" font-size="13" lengthAdjust="spacing" textLength="53" x="646" y="324.042">response</text><polygon fill="#181818" points="527,355.25,517,359.25,527,363.25,523,359.25" style="stroke:#181818;stroke-width:1.0;"/><line style="stroke:#181818;stroke-width:1.0;stroke-dasharray:2.0,2.0;" x1="521" x2="623" y1="359.25" y2="359.25"/><text fill="#000000" font-family="sans-serif" font-size="13" lengthAdjust="spacing" textLength="53" x="533" y="354.3936">response</text><polygon fill="#181818" points="232.5,385.6016,222.5,389.6016,232.5,393.6016,228.5,389.6016" style="stroke:#181818;stroke-width:1.0;"/><line style="stroke:#181818;stroke-width:1.0;stroke-dasharray:2.0,2.0;" x1="226.5" x2="510" y1="389.6016" y2="389.6016"/><text fill="#000000" font-family="sans-serif" font-size="13" lengthAdjust="spacing" textLength="53" x="238.5" y="384.7451">response</text><polygon fill="#181818" points="72.5,415.9531,62.5,419.9531,72.5,423.9531,68.5,419.9531" style="stroke:#181818;stroke-width:1.0;"/><line style="stroke:#181818;stroke-width:1.0;stroke-dasharray:2.0,2.0;" x1="66.5" x2="215.5" y1="419.9531" y2="419.9531"/><text fill="#000000" font-family="sans-serif" font-size="13" lengthAdjust="spacing" textLength="126" x="78.5" y="415.0967">success/fail message</text><!--SRC=[ZP11QyCm38Nl_XKwjeMHoqwXvD0siCC6WuMTTX6EqeccTh3LxEzFIPCw6tJiPCd-dgNtEWp2bZjq0kzCNu3nUcwtUt_kl2CdHM6w1NQx7zZKt1Uy-9hQ0RuMzy4t2ZrR6j2vl0y_LTNh8N1FOU0NtH-BO1GAyO22WsPNZgmJPAUwrVvnhGA3LhX7eJ47CuRnK2IZETYMxGd4WxeXvH2YODCauOqrAHxzOhI_sUHm907v9E0Qs47m5w6VvEG-doSCyAyP4sBce5ILCiZXK3wNLPdmz6OMKQbeLyumh3BiE1ldn2pdUftakz9eMXFUOykrtaR0jbK7ZGzd5FRkmw6hfvtZOkb0SWbgbA9QZFJVFbwifHYp1hc5irPu9FCD]--></g></svg>