<?xml version="1.0" encoding="us-ascii" standalone="no"?><svg xmlns="http://www.w3.org/2000/svg" xmlns:xlink="http://www.w3.org/1999/xlink" contentStyleType="text/css" height="609px" preserveAspectRatio="none" style="width:1123px;height:609px;background:#FFFFFF;" version="1.1" viewBox="0 0 1123 609" width="1123px" zoomAndPan="magnify"><defs/><g><rect fill="#FFFFFF" height="481.3047" style="stroke:#181818;stroke-width:1.0;" width="10" x="62" y="65.2188"/><rect fill="#FFFFFF" height="449.9531" style="stroke:#181818;stroke-width:1.0;" width="10" x="227" y="87.5703"/><rect fill="#FFFFFF" height="389.25" style="stroke:#181818;stroke-width:1.0;" width="10" x="317" y="117.9219"/><rect fill="#FFFFFF" height="268.3281" style="stroke:#181818;stroke-width:1.0;" width="10" x="604" y="208.4922"/><rect fill="#FFFFFF" height="41.3516" style="stroke:#181818;stroke-width:1.0;" width="10" x="609" y="246.8438"/><rect fill="#FFFFFF" height="30.3516" style="stroke:#181818;stroke-width:1.0;" width="10" x="960" y="416.1172"/><line style="stroke:#181818;stroke-width:0.5;stroke-dasharray:5.0,5.0;" x1="67" x2="67" y1="55.2188" y2="555.5234"/><line style="stroke:#181818;stroke-width:0.5;stroke-dasharray:5.0,5.0;" x1="232" x2="232" y1="55.2188" y2="555.5234"/><line style="stroke:#181818;stroke-width:0.5;stroke-dasharray:5.0,5.0;" x1="322" x2="322" y1="55.2188" y2="555.5234"/><line style="stroke:#181818;stroke-width:0.5;stroke-dasharray:5.0,5.0;" x1="531" x2="531" y1="166.0313" y2="555.5234"/><line style="stroke:#181818;stroke-width:0.5;stroke-dasharray:5.0,5.0;" x1="609" x2="609" y1="55.2188" y2="555.5234"/><line style="stroke:#181818;stroke-width:0.5;stroke-dasharray:5.0,5.0;" x1="842" x2="842" y1="55.2188" y2="555.5234"/><line style="stroke:#181818;stroke-width:0.5;stroke-dasharray:5.0,5.0;" x1="965" x2="965" y1="55.2188" y2="555.5234"/><line style="stroke:#181818;stroke-width:0.5;stroke-dasharray:5.0,5.0;" x1="1078" x2="1078" y1="343.3047" y2="555.5234"/><rect fill="#E2E2F0" height="49.2188" rx="2.5" ry="2.5" style="stroke:#181818;stroke-width:0.5;" width="124" x="5" y="5"/><text fill="#000000" font-family="sans-serif" font-size="14" font-style="italic" lengthAdjust="spacing" textLength="110" x="12" y="26.5332">&#171;Container (C4)&#187;</text><text fill="#000000" font-family="sans-serif" font-size="14" lengthAdjust="spacing" textLength="27" x="53.5" y="44.1426">SPA</text><rect fill="#E2E2F0" height="49.2188" rx="2.5" ry="2.5" style="stroke:#181818;stroke-width:0.5;" width="124" x="5" y="554.5234"/><text fill="#000000" font-family="sans-serif" font-size="14" font-style="italic" lengthAdjust="spacing" textLength="110" x="12" y="576.0566">&#171;Container (C4)&#187;</text><text fill="#000000" font-family="sans-serif" font-size="14" lengthAdjust="spacing" textLength="27" x="53.5" y="593.666">SPA</text><rect fill="#E2E2F0" height="49.2188" rx="2.5" ry="2.5" style="stroke:#181818;stroke-width:0.5;" width="68" x="198" y="5"/><text fill="#000000" font-family="sans-serif" font-size="14" font-style="italic" lengthAdjust="spacing" textLength="54" x="205" y="26.5332">&#171;Route&#187;</text><text fill="#000000" font-family="sans-serif" font-size="14" lengthAdjust="spacing" textLength="38" x="213" y="44.1426">Route</text><rect fill="#E2E2F0" height="49.2188" rx="2.5" ry="2.5" style="stroke:#181818;stroke-width:0.5;" width="68" x="198" y="554.5234"/><text fill="#000000" font-family="sans-serif" font-size="14" font-style="italic" lengthAdjust="spacing" textLength="54" x="205" y="576.0566">&#171;Route&#187;</text><text fill="#000000" font-family="sans-serif" font-size="14" lengthAdjust="spacing" textLength="38" x="213" y="593.666">Route</text><rect fill="#E2E2F0" height="49.2188" rx="2.5" ry="2.5" style="stroke:#181818;stroke-width:0.5;" width="92" x="276" y="5"/><text fill="#000000" font-family="sans-serif" font-size="14" font-style="italic" lengthAdjust="spacing" textLength="78" x="283" y="26.5332">&#171;Controller&#187;</text><text fill="#000000" font-family="sans-serif" font-size="14" lengthAdjust="spacing" textLength="62" x="291" y="44.1426">Controller</text><rect fill="#E2E2F0" height="49.2188" rx="2.5" ry="2.5" style="stroke:#181818;stroke-width:0.5;" width="92" x="276" y="554.5234"/><text fill="#000000" font-family="sans-serif" font-size="14" font-style="italic" lengthAdjust="spacing" textLength="78" x="283" y="576.0566">&#171;Controller&#187;</text><text fill="#000000" font-family="sans-serif" font-size="14" lengthAdjust="spacing" textLength="62" x="291" y="593.666">Controller</text><rect fill="#E2E2F0" height="49.2188" rx="2.5" ry="2.5" style="stroke:#181818;stroke-width:0.5;" width="60" x="501" y="554.5234"/><text fill="#000000" font-family="sans-serif" font-size="14" font-style="italic" lengthAdjust="spacing" textLength="46" x="508" y="576.0566">&#171;DTO&#187;</text><text fill="#000000" font-family="sans-serif" font-size="14" lengthAdjust="spacing" textLength="30" x="516" y="593.666">DTO</text><rect fill="#E2E2F0" height="49.2188" rx="2.5" ry="2.5" style="stroke:#181818;stroke-width:0.5;" width="76" x="571" y="5"/><text fill="#000000" font-family="sans-serif" font-size="14" font-style="italic" lengthAdjust="spacing" textLength="62" x="578" y="26.5332">&#171;Service&#187;</text><text fill="#000000" font-family="sans-serif" font-size="14" lengthAdjust="spacing" textLength="47" x="585.5" y="44.1426">Service</text><rect fill="#E2E2F0" height="49.2188" rx="2.5" ry="2.5" style="stroke:#181818;stroke-width:0.5;" width="76" x="571" y="554.5234"/><text fill="#000000" font-family="sans-serif" font-size="14" font-style="italic" lengthAdjust="spacing" textLength="62" x="578" y="576.0566">&#171;Service&#187;</text><text fill="#000000" font-family="sans-serif" font-size="14" lengthAdjust="spacing" textLength="47" x="585.5" y="593.666">Service</text><rect fill="#E2E2F0" height="49.2188" rx="2.5" ry="2.5" style="stroke:#181818;stroke-width:0.5;" width="98" x="793" y="5"/><text fill="#000000" font-family="sans-serif" font-size="14" font-style="italic" lengthAdjust="spacing" textLength="84" x="800" y="26.5332">&#171;Repository&#187;</text><text fill="#000000" font-family="sans-serif" font-size="14" lengthAdjust="spacing" textLength="68" x="808" y="44.1426">Repository</text><rect fill="#E2E2F0" height="49.2188" rx="2.5" ry="2.5" style="stroke:#181818;stroke-width:0.5;" width="98" x="793" y="554.5234"/><text fill="#000000" font-family="sans-serif" font-size="14" font-style="italic" lengthAdjust="spacing" textLength="84" x="800" y="576.0566">&#171;Repository&#187;</text><text fill="#000000" font-family="sans-serif" font-size="14" lengthAdjust="spacing" textLength="68" x="808" y="593.666">Repository</text><rect fill="#E2E2F0" height="49.2188" rx="2.5" ry="2.5" style="stroke:#181818;stroke-width:0.5;" width="128" x="901" y="5"/><text fill="#000000" font-family="sans-serif" font-size="14" font-style="italic" lengthAdjust="spacing" textLength="114" x="908" y="26.5332">&#171;Domain Service&#187;</text><text fill="#000000" font-family="sans-serif" font-size="14" lengthAdjust="spacing" textLength="48" x="941" y="44.1426">Mapper</text><rect fill="#E2E2F0" height="49.2188" rx="2.5" ry="2.5" style="stroke:#181818;stroke-width:0.5;" width="128" x="901" y="554.5234"/><text fill="#000000" font-family="sans-serif" font-size="14" font-style="italic" lengthAdjust="spacing" textLength="114" x="908" y="576.0566">&#171;Domain Service&#187;</text><text fill="#000000" font-family="sans-serif" font-size="14" lengthAdjust="spacing" textLength="48" x="941" y="593.666">Mapper</text><rect fill="#E2E2F0" height="49.2188" rx="2.5" ry="2.5" style="stroke:#181818;stroke-width:0.5;" width="78" x="1039" y="554.5234"/><text fill="#000000" font-family="sans-serif" font-size="14" font-style="italic" lengthAdjust="spacing" textLength="64" x="1046" y="576.0566">&#171;Domain&#187;</text><text fill="#000000" font-family="sans-serif" font-size="14" lengthAdjust="spacing" textLength="48" x="1054" y="593.666">Domain</text><rect fill="#FFFFFF" height="481.3047" style="stroke:#181818;stroke-width:1.0;" width="10" x="62" y="65.2188"/><rect fill="#FFFFFF" height="449.9531" style="stroke:#181818;stroke-width:1.0;" width="10" x="227" y="87.5703"/><rect fill="#FFFFFF" height="389.25" style="stroke:#181818;stroke-width:1.0;" width="10" x="317" y="117.9219"/><rect fill="#FFFFFF" height="268.3281" style="stroke:#181818;stroke-width:1.0;" width="10" x="604" y="208.4922"/><rect fill="#FFFFFF" height="41.3516" style="stroke:#181818;stroke-width:1.0;" width="10" x="609" y="246.8438"/><rect fill="#FFFFFF" height="30.3516" style="stroke:#181818;stroke-width:1.0;" width="10" x="960" y="416.1172"/><polygon fill="#181818" points="215,83.5703,225,87.5703,215,91.5703,219,87.5703" style="stroke:#181818;stroke-width:1.0;"/><line style="stroke:#181818;stroke-width:1.0;" x1="72" x2="221" y1="87.5703" y2="87.5703"/><text fill="#000000" font-family="sans-serif" font-size="13" lengthAdjust="spacing" textLength="136" x="79" y="82.7139">POST (/api/roomTypes)</text><polygon fill="#181818" points="305,113.9219,315,117.9219,305,121.9219,309,117.9219" style="stroke:#181818;stroke-width:1.0;"/><line style="stroke:#181818;stroke-width:1.0;" x1="237" x2="311" y1="117.9219" y2="117.9219"/><text fill="#000000" font-family="sans-serif" font-size="13" lengthAdjust="spacing" textLength="35" x="244" y="113.0654">POST</text><polygon fill="#181818" points="489,144.2734,499,148.2734,489,152.2734,493,148.2734" style="stroke:#181818;stroke-width:1.0;"/><line style="stroke:#181818;stroke-width:1.0;" x1="327" x2="495" y1="148.2734" y2="148.2734"/><text fill="#000000" font-family="sans-serif" font-size="13" lengthAdjust="spacing" textLength="150" x="334" y="143.417">recieves request body info</text><rect fill="#E2E2F0" height="49.2188" rx="2.5" ry="2.5" style="stroke:#181818;stroke-width:0.5;" width="60" x="501" y="125.9219"/><text fill="#000000" font-family="sans-serif" font-size="14" font-style="italic" lengthAdjust="spacing" textLength="46" x="508" y="147.4551">&#171;DTO&#187;</text><text fill="#000000" font-family="sans-serif" font-size="14" lengthAdjust="spacing" textLength="30" x="516" y="165.0645">DTO</text><polygon fill="#181818" points="592,204.4922,602,208.4922,592,212.4922,596,208.4922" style="stroke:#181818;stroke-width:1.0;"/><line style="stroke:#181818;stroke-width:1.0;" x1="327" x2="598" y1="208.4922" y2="208.4922"/><text fill="#000000" font-family="sans-serif" font-size="13" lengthAdjust="spacing" textLength="110" x="334" y="203.6357">add new room type</text><line style="stroke:#181818;stroke-width:1.0;" x1="614" x2="661" y1="233.8438" y2="233.8438"/><line style="stroke:#181818;stroke-width:1.0;" x1="661" x2="661" y1="233.8438" y2="246.8438"/><line style="stroke:#181818;stroke-width:1.0;" x1="620" x2="661" y1="246.8438" y2="246.8438"/><polygon fill="#181818" points="630,242.8438,620,246.8438,630,250.8438,626,246.8438" style="stroke:#181818;stroke-width:1.0;"/><text fill="#000000" font-family="sans-serif" font-size="13" lengthAdjust="spacing" textLength="209" x="626" y="228.9873">validate if the internal code is unique</text><line style="stroke:#181818;stroke-width:1.0;stroke-dasharray:2.0,2.0;" x1="619" x2="661" y1="287.1953" y2="287.1953"/><line style="stroke:#181818;stroke-width:1.0;stroke-dasharray:2.0,2.0;" x1="661" x2="661" y1="287.1953" y2="300.1953"/><line style="stroke:#181818;stroke-width:1.0;stroke-dasharray:2.0,2.0;" x1="614" x2="661" y1="300.1953" y2="300.1953"/><polygon fill="#181818" points="624,296.1953,614,300.1953,624,304.1953,620,300.1953" style="stroke:#181818;stroke-width:1.0;"/><text fill="#000000" font-family="sans-serif" font-size="13" lengthAdjust="spacing" textLength="53" x="626" y="282.3389">validation</text><polygon fill="#181818" points="1027,321.5469,1037,325.5469,1027,329.5469,1031,325.5469" style="stroke:#181818;stroke-width:1.0;"/><line style="stroke:#181818;stroke-width:1.0;" x1="614" x2="1033" y1="325.5469" y2="325.5469"/><text fill="#000000" font-family="sans-serif" font-size="13" lengthAdjust="spacing" textLength="101" x="621" y="320.6904">creates the entity</text><rect fill="#E2E2F0" height="49.2188" rx="2.5" ry="2.5" style="stroke:#181818;stroke-width:0.5;" width="78" x="1039" y="303.1953"/><text fill="#000000" font-family="sans-serif" font-size="14" font-style="italic" lengthAdjust="spacing" textLength="64" x="1046" y="324.7285">&#171;Domain&#187;</text><text fill="#000000" font-family="sans-serif" font-size="14" lengthAdjust="spacing" textLength="48" x="1054" y="342.3379">Domain</text><polygon fill="#181818" points="830,381.7656,840,385.7656,830,389.7656,834,385.7656" style="stroke:#181818;stroke-width:1.0;"/><line style="stroke:#181818;stroke-width:1.0;" x1="614" x2="836" y1="385.7656" y2="385.7656"/><text fill="#000000" font-family="sans-serif" font-size="13" lengthAdjust="spacing" textLength="106" x="621" y="380.9092">saves in Database</text><polygon fill="#181818" points="948,412.1172,958,416.1172,948,420.1172,952,416.1172" style="stroke:#181818;stroke-width:1.0;"/><line style="stroke:#181818;stroke-width:1.0;" x1="614" x2="954" y1="416.1172" y2="416.1172"/><text fill="#000000" font-family="sans-serif" font-size="13" lengthAdjust="spacing" textLength="77" x="621" y="411.2607">entity to DTO</text><polygon fill="#181818" points="625,442.4688,615,446.4688,625,450.4688,621,446.4688" style="stroke:#181818;stroke-width:1.0;"/><line style="stroke:#181818;stroke-width:1.0;stroke-dasharray:2.0,2.0;" x1="619" x2="964" y1="446.4688" y2="446.4688"/><text fill="#000000" font-family="sans-serif" font-size="13" lengthAdjust="spacing" textLength="26" x="631" y="441.6123">DTO</text><polygon fill="#181818" points="338,472.8203,328,476.8203,338,480.8203,334,476.8203" style="stroke:#181818;stroke-width:1.0;"/><line style="stroke:#181818;stroke-width:1.0;stroke-dasharray:2.0,2.0;" x1="332" x2="608" y1="476.8203" y2="476.8203"/><text fill="#000000" font-family="sans-serif" font-size="13" lengthAdjust="spacing" textLength="26" x="344" y="471.9639">DTO</text><polygon fill="#181818" points="248,503.1719,238,507.1719,248,511.1719,244,507.1719" style="stroke:#181818;stroke-width:1.0;"/><line style="stroke:#181818;stroke-width:1.0;stroke-dasharray:2.0,2.0;" x1="242" x2="321" y1="507.1719" y2="507.1719"/><text fill="#000000" font-family="sans-serif" font-size="13" lengthAdjust="spacing" textLength="53" x="254" y="502.3154">response</text><polygon fill="#181818" points="83,533.5234,73,537.5234,83,541.5234,79,537.5234" style="stroke:#181818;stroke-width:1.0;"/><line style="stroke:#181818;stroke-width:1.0;stroke-dasharray:2.0,2.0;" x1="77" x2="231" y1="537.5234" y2="537.5234"/><text fill="#000000" font-family="sans-serif" font-size="13" lengthAdjust="spacing" textLength="53" x="89" y="532.667">response</text><!--SRC=[RP71Ri8m38RlVGeV0MdYibCL8KrmdK235p2jqIAL92HkfxxzdAPTGzcbiUNlT__ySUXPLzgXOJYVFW33S2YrjuPH6_Amsh-lTxl2PUINRPaYcmgbXdC1nGtUDesi43BhqlBKB3I7op72yL1AlelncNodg-7FKwdKM2qjahD1i_Nzu7FknEnViz1yedF9xLY91tkN5E3_Vup3Q3XL4oySLgmxb70apY96-hPBQPLmEfuliDgYqrjlxVtIEmhhMJ1GHKfMH5bmIJgJywZ8AD58SfkDu9ugJHq5AHuj1OQhhNlGvcONWYdD4h2kmT0FH6V0OYsxIOAA2NxITTZeEbBw1lmjXs7o1XkeR2rTWDPeyV2wpHEttanwRKs-FyKvtANo9B8mB2V3cliSp1wuX83npl8U1sIyOdYoF3vjEIu1jZ6ksLUQJxRYwBNq59mrWLxwNm00]--></g></svg>