<?xml version="1.0" encoding="us-ascii" standalone="no"?><svg xmlns="http://www.w3.org/2000/svg" xmlns:xlink="http://www.w3.org/1999/xlink" contentStyleType="text/css" height="494px" preserveAspectRatio="none" style="width:768px;height:494px;background:#FFFFFF;" version="1.1" viewBox="0 0 768 494" width="768px" zoomAndPan="magnify"><defs/><g><rect fill="#FFFFFF" height="304.1055" style="stroke:#181818;stroke-width:1.0;" width="10" x="25.5" y="91.4883"/><rect fill="#FFFFFF" height="282.7949" style="stroke:#181818;stroke-width:1.0;" width="10" x="260.5" y="112.7988"/><rect fill="#FFFFFF" height="71.6211" style="stroke:#181818;stroke-width:1.0;" width="10" x="568.5" y="294.6621"/><line style="stroke:#181818;stroke-width:0.5;stroke-dasharray:5.0,5.0;" x1="30" x2="30" y1="81.4883" y2="413.5938"/><line style="stroke:#181818;stroke-width:0.5;stroke-dasharray:5.0,5.0;" x1="265.5" x2="265.5" y1="81.4883" y2="413.5938"/><line style="stroke:#181818;stroke-width:0.5;stroke-dasharray:5.0,5.0;" x1="573" x2="573" y1="81.4883" y2="413.5938"/><text fill="#000000" font-family="sans-serif" font-size="14" lengthAdjust="spacing" textLength="45" x="5" y="78.5352">Admin</text><ellipse cx="30.5" cy="13.5" fill="#E2E2F0" rx="8" ry="8" style="stroke:#181818;stroke-width:0.5;"/><path d="M30.5,21.5 L30.5,48.5 M17.5,29.5 L43.5,29.5 M30.5,48.5 L17.5,63.5 M30.5,48.5 L43.5,63.5 " fill="none" style="stroke:#181818;stroke-width:0.5;"/><text fill="#000000" font-family="sans-serif" font-size="14" lengthAdjust="spacing" textLength="45" x="5" y="426.1289">Admin</text><ellipse cx="30.5" cy="437.582" fill="#E2E2F0" rx="8" ry="8" style="stroke:#181818;stroke-width:0.5;"/><path d="M30.5,445.582 L30.5,472.582 M17.5,453.582 L43.5,453.582 M30.5,472.582 L17.5,487.582 M30.5,472.582 L43.5,487.582 " fill="none" style="stroke:#181818;stroke-width:0.5;"/><rect fill="#E2E2F0" height="30.4883" rx="2.5" ry="2.5" style="stroke:#181818;stroke-width:0.5;" width="28" x="251.5" y="50"/><text fill="#000000" font-family="sans-serif" font-size="14" lengthAdjust="spacing" textLength="14" x="258.5" y="70.5352">UI</text><rect fill="#E2E2F0" height="30.4883" rx="2.5" ry="2.5" style="stroke:#181818;stroke-width:0.5;" width="28" x="251.5" y="412.5938"/><text fill="#000000" font-family="sans-serif" font-size="14" lengthAdjust="spacing" textLength="14" x="258.5" y="433.1289">UI</text><rect fill="#E2E2F0" height="30.4883" rx="2.5" ry="2.5" style="stroke:#181818;stroke-width:0.5;" width="71" x="538" y="50"/><text fill="#000000" font-family="sans-serif" font-size="14" lengthAdjust="spacing" textLength="57" x="545" y="70.5352">Backend</text><rect fill="#E2E2F0" height="30.4883" rx="2.5" ry="2.5" style="stroke:#181818;stroke-width:0.5;" width="71" x="538" y="412.5938"/><text fill="#000000" font-family="sans-serif" font-size="14" lengthAdjust="spacing" textLength="57" x="545" y="433.1289">Backend</text><rect fill="#FFFFFF" height="304.1055" style="stroke:#181818;stroke-width:1.0;" width="10" x="25.5" y="91.4883"/><rect fill="#FFFFFF" height="282.7949" style="stroke:#181818;stroke-width:1.0;" width="10" x="260.5" y="112.7988"/><rect fill="#FFFFFF" height="71.6211" style="stroke:#181818;stroke-width:1.0;" width="10" x="568.5" y="294.6621"/><polygon fill="#181818" points="248.5,108.7988,258.5,112.7988,248.5,116.7988,252.5,112.7988" style="stroke:#181818;stroke-width:1.0;"/><line style="stroke:#181818;stroke-width:1.0;" x1="35.5" x2="254.5" y1="112.7988" y2="112.7988"/><text fill="#000000" font-family="sans-serif" font-size="13" lengthAdjust="spacing" textLength="198" x="42.5" y="108.0566">Request to list Operation Types</text><path d="M243,125.7988 L243,150.7988 L595,150.7988 L595,135.7988 L585,125.7988 L243,125.7988 " fill="#FEFFDD" style="stroke:#181818;stroke-width:0.5;"/><path d="M585,125.7988 L585,135.7988 L595,135.7988 L585,125.7988 " fill="#FEFFDD" style="stroke:#181818;stroke-width:0.5;"/><text fill="#000000" font-family="sans-serif" font-size="13" lengthAdjust="spacing" textLength="60" x="384.75" y="143.3672">US 5.1.23</text><polygon fill="#181818" points="46.5,173.4199,36.5,177.4199,46.5,181.4199,42.5,177.4199" style="stroke:#181818;stroke-width:1.0;"/><line style="stroke:#181818;stroke-width:1.0;stroke-dasharray:2.0,2.0;" x1="40.5" x2="259.5" y1="177.4199" y2="177.4199"/><text fill="#000000" font-family="sans-serif" font-size="13" lengthAdjust="spacing" textLength="195" x="52.5" y="172.6777">Display list of Operation Types</text><polygon fill="#181818" points="248.5,202.7305,258.5,206.7305,248.5,210.7305,252.5,206.7305" style="stroke:#181818;stroke-width:1.0;"/><line style="stroke:#181818;stroke-width:1.0;" x1="35.5" x2="254.5" y1="206.7305" y2="206.7305"/><text fill="#000000" font-family="sans-serif" font-size="13" lengthAdjust="spacing" textLength="201" x="42.5" y="201.9883">Select an Operation Type to edit</text><polygon fill="#181818" points="46.5,232.041,36.5,236.041,46.5,240.041,42.5,236.041" style="stroke:#181818;stroke-width:1.0;"/><line style="stroke:#181818;stroke-width:1.0;" x1="40.5" x2="259.5" y1="236.041" y2="236.041"/><text fill="#000000" font-family="sans-serif" font-size="13" lengthAdjust="spacing" textLength="153" x="52.5" y="231.2988">Show the OperationType</text><polygon fill="#181818" points="248.5,261.3516,258.5,265.3516,248.5,269.3516,252.5,265.3516" style="stroke:#181818;stroke-width:1.0;"/><line style="stroke:#181818;stroke-width:1.0;" x1="35.5" x2="254.5" y1="265.3516" y2="265.3516"/><text fill="#000000" font-family="sans-serif" font-size="13" lengthAdjust="spacing" textLength="120" x="42.5" y="260.6094">Edit OperationType</text><polygon fill="#181818" points="556.5,290.6621,566.5,294.6621,556.5,298.6621,560.5,294.6621" style="stroke:#181818;stroke-width:1.0;"/><line style="stroke:#181818;stroke-width:1.0;" x1="270.5" x2="562.5" y1="294.6621" y2="294.6621"/><text fill="#000000" font-family="sans-serif" font-size="13" lengthAdjust="spacing" textLength="279" x="277.5" y="289.9199">HTTP POST request to update operation type</text><line style="stroke:#181818;stroke-width:1.0;" x1="578.5" x2="620.5" y1="323.9727" y2="323.9727"/><line style="stroke:#181818;stroke-width:1.0;" x1="620.5" x2="620.5" y1="323.9727" y2="336.9727"/><line style="stroke:#181818;stroke-width:1.0;" x1="579.5" x2="620.5" y1="336.9727" y2="336.9727"/><polygon fill="#181818" points="589.5,332.9727,579.5,336.9727,589.5,340.9727,585.5,336.9727" style="stroke:#181818;stroke-width:1.0;"/><text fill="#000000" font-family="sans-serif" font-size="13" lengthAdjust="spacing" textLength="176" x="585.5" y="319.2305">Update operation type in DB</text><polygon fill="#181818" points="281.5,362.2832,271.5,366.2832,281.5,370.2832,277.5,366.2832" style="stroke:#181818;stroke-width:1.0;"/><line style="stroke:#181818;stroke-width:1.0;stroke-dasharray:2.0,2.0;" x1="275.5" x2="572.5" y1="366.2832" y2="366.2832"/><text fill="#000000" font-family="sans-serif" font-size="13" lengthAdjust="spacing" textLength="191" x="287.5" y="361.541">Return success/error message</text><polygon fill="#181818" points="41.5,391.5938,31.5,395.5938,41.5,399.5938,37.5,395.5938" style="stroke:#181818;stroke-width:1.0;"/><line style="stroke:#181818;stroke-width:1.0;stroke-dasharray:2.0,2.0;" x1="35.5" x2="264.5" y1="395.5938" y2="395.5938"/><text fill="#000000" font-family="sans-serif" font-size="13" lengthAdjust="spacing" textLength="197" x="47.5" y="390.8516">Display success/error message</text><!--SRC=[XP91JiCm44NtFiKSW1O1OfC54bKhmQeLIGums0ErI6rZJufwUoOrIPgs4gknu_bllh-3cds4PxEp3bJ0o5RRW8wXVWN096NoTO7wYvpfJjxpKYdKRFV8b2bAPTZiIRG5lD5tIuc1FJHMwZfGHBRUGNK8b4Qn379UgjzJbCrDpuS2wX8UvtVp-mSbfcO2FaueO6bJQF2GmVxZWZrrKb93cW7TMLzdZOpb8tnWbrl_0xobiRdhdH9NeZexpum_wmMyLDK6DkkoWZZcq0RJNTWFBhXJ3a7qkVRtF-NLrwGWZfQBiNz8djle8BLQKqgt5ACyz4wM-4dAqCMywzd-AvTtEzdbN-0N]--></g></svg>