<?xml version="1.0" encoding="us-ascii" standalone="no"?><svg xmlns="http://www.w3.org/2000/svg" xmlns:xlink="http://www.w3.org/1999/xlink" contentStyleType="text/css" height="533px" preserveAspectRatio="none" style="width:1224px;height:533px;background:#FFFFFF;" version="1.1" viewBox="0 0 1224 533" width="1224px" zoomAndPan="magnify"><defs/><g><rect fill="#FFFFFF" height="409.7031" style="stroke:#181818;stroke-width:1.0;" width="10" x="54.5" y="62.9766"/><rect fill="#FFFFFF" height="379.3926" style="stroke:#181818;stroke-width:1.0;" width="10" x="264.5" y="84.2871"/><rect fill="#FFFFFF" height="29.3105" style="stroke:#181818;stroke-width:1.0;" width="10" x="507" y="375.748"/><rect fill="#FFFFFF" height="262.7949" style="stroke:#181818;stroke-width:1.0;" width="10" x="697" y="171.5742"/><rect fill="#FFFFFF" height="145.5527" style="stroke:#181818;stroke-width:1.0;" width="10" x="816" y="200.8848"/><rect fill="#FFFFFF" height="86.9316" style="stroke:#181818;stroke-width:1.0;" width="10" x="1043" y="230.1953"/><line style="stroke:#181818;stroke-width:0.5;stroke-dasharray:5.0,5.0;" x1="59" x2="59" y1="52.9766" y2="481.6797"/><line style="stroke:#181818;stroke-width:0.5;stroke-dasharray:5.0,5.0;" x1="269" x2="269" y1="52.9766" y2="481.6797"/><line style="stroke:#181818;stroke-width:0.5;stroke-dasharray:5.0,5.0;" x1="511.5" x2="511.5" y1="131.2754" y2="481.6797"/><line style="stroke:#181818;stroke-width:0.5;stroke-dasharray:5.0,5.0;" x1="701.5" x2="701.5" y1="52.9766" y2="481.6797"/><line style="stroke:#181818;stroke-width:0.5;stroke-dasharray:5.0,5.0;" x1="820.5" x2="820.5" y1="52.9766" y2="481.6797"/><line style="stroke:#181818;stroke-width:0.5;stroke-dasharray:5.0,5.0;" x1="1047.5" x2="1047.5" y1="52.9766" y2="481.6797"/><rect fill="#E2E2F0" height="46.9766" rx="2.5" ry="2.5" style="stroke:#181818;stroke-width:0.5;" width="109" x="5" y="5"/><text fill="#000000" font-family="sans-serif" font-size="14" font-style="italic" lengthAdjust="spacing" textLength="95" x="12" y="25.5352">&#171;Component&#187;</text><text fill="#000000" font-family="sans-serif" font-size="14" lengthAdjust="spacing" textLength="32" x="43.5" y="42.0234">View</text><rect fill="#E2E2F0" height="46.9766" rx="2.5" ry="2.5" style="stroke:#181818;stroke-width:0.5;" width="109" x="5" y="480.6797"/><text fill="#000000" font-family="sans-serif" font-size="14" font-style="italic" lengthAdjust="spacing" textLength="95" x="12" y="501.2148">&#171;Component&#187;</text><text fill="#000000" font-family="sans-serif" font-size="14" lengthAdjust="spacing" textLength="32" x="43.5" y="517.7031">View</text><rect fill="#E2E2F0" height="46.9766" rx="2.5" ry="2.5" style="stroke:#181818;stroke-width:0.5;" width="109" x="215" y="5"/><text fill="#000000" font-family="sans-serif" font-size="14" font-style="italic" lengthAdjust="spacing" textLength="95" x="222" y="25.5352">&#171;Component&#187;</text><text fill="#000000" font-family="sans-serif" font-size="14" lengthAdjust="spacing" textLength="81" x="229" y="42.0234">Component</text><rect fill="#E2E2F0" height="46.9766" rx="2.5" ry="2.5" style="stroke:#181818;stroke-width:0.5;" width="109" x="215" y="480.6797"/><text fill="#000000" font-family="sans-serif" font-size="14" font-style="italic" lengthAdjust="spacing" textLength="95" x="222" y="501.2148">&#171;Component&#187;</text><text fill="#000000" font-family="sans-serif" font-size="14" lengthAdjust="spacing" textLength="81" x="229" y="517.7031">Component</text><rect fill="#E2E2F0" height="46.9766" rx="2.5" ry="2.5" style="stroke:#181818;stroke-width:0.5;" width="109" x="457.5" y="480.6797"/><text fill="#000000" font-family="sans-serif" font-size="14" font-style="italic" lengthAdjust="spacing" textLength="95" x="464.5" y="501.2148">&#171;Component&#187;</text><text fill="#000000" font-family="sans-serif" font-size="14" lengthAdjust="spacing" textLength="42" x="491" y="517.7031">Model</text><rect fill="#E2E2F0" height="46.9766" rx="2.5" ry="2.5" style="stroke:#181818;stroke-width:0.5;" width="109" x="647.5" y="5"/><text fill="#000000" font-family="sans-serif" font-size="14" font-style="italic" lengthAdjust="spacing" textLength="95" x="654.5" y="25.5352">&#171;Component&#187;</text><text fill="#000000" font-family="sans-serif" font-size="14" lengthAdjust="spacing" textLength="48" x="678" y="42.0234">Service</text><rect fill="#E2E2F0" height="46.9766" rx="2.5" ry="2.5" style="stroke:#181818;stroke-width:0.5;" width="109" x="647.5" y="480.6797"/><text fill="#000000" font-family="sans-serif" font-size="14" font-style="italic" lengthAdjust="spacing" textLength="95" x="654.5" y="501.2148">&#171;Component&#187;</text><text fill="#000000" font-family="sans-serif" font-size="14" lengthAdjust="spacing" textLength="48" x="678" y="517.7031">Service</text><rect fill="#E2E2F0" height="46.9766" rx="2.5" ry="2.5" style="stroke:#181818;stroke-width:0.5;" width="109" x="766.5" y="5"/><text fill="#000000" font-family="sans-serif" font-size="14" font-style="italic" lengthAdjust="spacing" textLength="95" x="773.5" y="25.5352">&#171;Component&#187;</text><text fill="#000000" font-family="sans-serif" font-size="14" lengthAdjust="spacing" textLength="77" x="782.5" y="42.0234">HTTPDriver</text><rect fill="#E2E2F0" height="46.9766" rx="2.5" ry="2.5" style="stroke:#181818;stroke-width:0.5;" width="109" x="766.5" y="480.6797"/><text fill="#000000" font-family="sans-serif" font-size="14" font-style="italic" lengthAdjust="spacing" textLength="95" x="773.5" y="501.2148">&#171;Component&#187;</text><text fill="#000000" font-family="sans-serif" font-size="14" lengthAdjust="spacing" textLength="77" x="782.5" y="517.7031">HTTPDriver</text><rect fill="#E2E2F0" height="46.9766" rx="2.5" ry="2.5" style="stroke:#181818;stroke-width:0.5;" width="129" x="983.5" y="5"/><text fill="#000000" font-family="sans-serif" font-size="14" font-style="italic" lengthAdjust="spacing" textLength="115" x="990.5" y="25.5352">&#171;Container (C4)&#187;</text><text fill="#000000" font-family="sans-serif" font-size="14" lengthAdjust="spacing" textLength="84" x="1006" y="42.0234">MastersData</text><rect fill="#E2E2F0" height="46.9766" rx="2.5" ry="2.5" style="stroke:#181818;stroke-width:0.5;" width="129" x="983.5" y="480.6797"/><text fill="#000000" font-family="sans-serif" font-size="14" font-style="italic" lengthAdjust="spacing" textLength="115" x="990.5" y="501.2148">&#171;Container (C4)&#187;</text><text fill="#000000" font-family="sans-serif" font-size="14" lengthAdjust="spacing" textLength="84" x="1006" y="517.7031">MastersData</text><rect fill="#FFFFFF" height="409.7031" style="stroke:#181818;stroke-width:1.0;" width="10" x="54.5" y="62.9766"/><rect fill="#FFFFFF" height="379.3926" style="stroke:#181818;stroke-width:1.0;" width="10" x="264.5" y="84.2871"/><rect fill="#FFFFFF" height="29.3105" style="stroke:#181818;stroke-width:1.0;" width="10" x="507" y="375.748"/><rect fill="#FFFFFF" height="262.7949" style="stroke:#181818;stroke-width:1.0;" width="10" x="697" y="171.5742"/><rect fill="#FFFFFF" height="145.5527" style="stroke:#181818;stroke-width:1.0;" width="10" x="816" y="200.8848"/><rect fill="#FFFFFF" height="86.9316" style="stroke:#181818;stroke-width:1.0;" width="10" x="1043" y="230.1953"/><polygon fill="#181818" points="252.5,80.2871,262.5,84.2871,252.5,88.2871,256.5,84.2871" style="stroke:#181818;stroke-width:1.0;"/><line style="stroke:#181818;stroke-width:1.0;" x1="64.5" x2="258.5" y1="84.2871" y2="84.2871"/><text fill="#000000" font-family="sans-serif" font-size="13" lengthAdjust="spacing" textLength="136" x="71.5" y="79.5449">submit the filter form</text><polygon fill="#181818" points="445.5,109.5977,455.5,113.5977,445.5,117.5977,449.5,113.5977" style="stroke:#181818;stroke-width:1.0;"/><line style="stroke:#181818;stroke-width:1.0;" x1="274.5" x2="451.5" y1="113.5977" y2="113.5977"/><text fill="#000000" font-family="sans-serif" font-size="13" lengthAdjust="spacing" textLength="159" x="281.5" y="108.8555">get the data in filter form</text><rect fill="#E2E2F0" height="46.9766" rx="2.5" ry="2.5" style="stroke:#181818;stroke-width:0.5;" width="109" x="457.5" y="92.2871"/><text fill="#000000" font-family="sans-serif" font-size="14" font-style="italic" lengthAdjust="spacing" textLength="95" x="464.5" y="112.8223">&#171;Component&#187;</text><text fill="#000000" font-family="sans-serif" font-size="14" lengthAdjust="spacing" textLength="42" x="491" y="129.3105">Model</text><polygon fill="#181818" points="685,167.5742,695,171.5742,685,175.5742,689,171.5742" style="stroke:#181818;stroke-width:1.0;"/><line style="stroke:#181818;stroke-width:1.0;" x1="274.5" x2="691" y1="171.5742" y2="171.5742"/><text fill="#000000" font-family="sans-serif" font-size="13" lengthAdjust="spacing" textLength="157" x="281.5" y="166.832">search for operationType</text><polygon fill="#181818" points="804,196.8848,814,200.8848,804,204.8848,808,200.8848" style="stroke:#181818;stroke-width:1.0;"/><line style="stroke:#181818;stroke-width:1.0;" x1="707" x2="810" y1="200.8848" y2="200.8848"/><text fill="#000000" font-family="sans-serif" font-size="13" lengthAdjust="spacing" textLength="24" x="714" y="196.1426">GET</text><polygon fill="#181818" points="1031,226.1953,1041,230.1953,1031,234.1953,1035,230.1953" style="stroke:#181818;stroke-width:1.0;"/><line style="stroke:#181818;stroke-width:1.0;" x1="826" x2="1037" y1="230.1953" y2="230.1953"/><text fill="#000000" font-family="sans-serif" font-size="13" lengthAdjust="spacing" textLength="198" x="833" y="225.4531">GET (/api/operationType/Filter)</text><line style="stroke:#181818;stroke-width:1.0;" x1="1053" x2="1095" y1="274.8164" y2="274.8164"/><line style="stroke:#181818;stroke-width:1.0;" x1="1095" x2="1095" y1="274.8164" y2="287.8164"/><line style="stroke:#181818;stroke-width:1.0;" x1="1054" x2="1095" y1="287.8164" y2="287.8164"/><polygon fill="#181818" points="1064,283.8164,1054,287.8164,1064,291.8164,1060,287.8164" style="stroke:#181818;stroke-width:1.0;"/><text fill="#000000" font-family="sans-serif" font-size="13" lengthAdjust="spacing" textLength="157" x="1060" y="254.7637">search for operationType</text><text fill="#000000" font-family="sans-serif" font-size="13" lengthAdjust="spacing" textLength="137" x="1060" y="270.0742">according to the filter</text><polygon fill="#181818" points="837,313.127,827,317.127,837,321.127,833,317.127" style="stroke:#181818;stroke-width:1.0;"/><line style="stroke:#181818;stroke-width:1.0;stroke-dasharray:2.0,2.0;" x1="831" x2="1047" y1="317.127" y2="317.127"/><text fill="#000000" font-family="sans-serif" font-size="13" lengthAdjust="spacing" textLength="57" x="843" y="312.3848">response</text><polygon fill="#181818" points="718,342.4375,708,346.4375,718,350.4375,714,346.4375" style="stroke:#181818;stroke-width:1.0;"/><line style="stroke:#181818;stroke-width:1.0;stroke-dasharray:2.0,2.0;" x1="712" x2="820" y1="346.4375" y2="346.4375"/><text fill="#000000" font-family="sans-serif" font-size="13" lengthAdjust="spacing" textLength="57" x="724" y="341.6953">response</text><polygon fill="#181818" points="528,371.748,518,375.748,528,379.748,524,375.748" style="stroke:#181818;stroke-width:1.0;"/><line style="stroke:#181818;stroke-width:1.0;" x1="522" x2="696" y1="375.748" y2="375.748"/><text fill="#000000" font-family="sans-serif" font-size="13" lengthAdjust="spacing" textLength="161" x="534" y="371.0059">transforms response data</text><polygon fill="#181818" points="685,401.0586,695,405.0586,685,409.0586,689,405.0586" style="stroke:#181818;stroke-width:1.0;"/><line style="stroke:#181818;stroke-width:1.0;stroke-dasharray:2.0,2.0;" x1="512" x2="691" y1="405.0586" y2="405.0586"/><text fill="#000000" font-family="sans-serif" font-size="13" lengthAdjust="spacing" textLength="90" x="519" y="400.3164">operationType</text><polygon fill="#181818" points="285.5,430.3691,275.5,434.3691,285.5,438.3691,281.5,434.3691" style="stroke:#181818;stroke-width:1.0;"/><line style="stroke:#181818;stroke-width:1.0;stroke-dasharray:2.0,2.0;" x1="279.5" x2="701" y1="434.3691" y2="434.3691"/><text fill="#000000" font-family="sans-serif" font-size="13" lengthAdjust="spacing" textLength="90" x="291.5" y="429.627">operationType</text><polygon fill="#181818" points="75.5,459.6797,65.5,463.6797,75.5,467.6797,71.5,463.6797" style="stroke:#181818;stroke-width:1.0;"/><line style="stroke:#181818;stroke-width:1.0;stroke-dasharray:2.0,2.0;" x1="69.5" x2="268.5" y1="463.6797" y2="463.6797"/><text fill="#000000" font-family="sans-serif" font-size="13" lengthAdjust="spacing" textLength="176" x="81.5" y="458.9375">operationType/fail message</text><!--SRC=[ZP0zQyCm48Pt_OeRaq3nqia43qcSTYaKQZfrkJgNv22MX7HnwR-lf7p8fhXqiYG_xtqy5frmonQrm3lJ5w2_V9VBjUciqQIbgfGTOFVtoERBTE35xEWKuSjX6dmZrtDB4RqTf-7dfddTEEx9HNvm-sCGz4BERr0mPbPrOhKWwv2RhH_d8Q2m5UvHA7bGISP3bHSjmPy_EnQG8y6UJw4Yx8thSkwEgcmdL4ZRBnOb7EWItiKvM8-AZ19N2Q4ZeMkFaG1ZoQ6mqSstfTppYggRjv3EIafugflCvXzge2qaLdKYOLQWvMBKgTYc8UUvogfMGU0rDJNWXyQsDMx7-W1Y1igK8pax3OvysDVJh_jWaIIk176eVPJaxrHIc4TAuAtIMDI_7uizyWawyXuFf7u0]--></g></svg>