<?xml version="1.0" encoding="us-ascii" standalone="no"?><svg xmlns="http://www.w3.org/2000/svg" xmlns:xlink="http://www.w3.org/1999/xlink" contentStyleType="text/css" height="533px" preserveAspectRatio="none" style="width:1208px;height:533px;background:#FFFFFF;" version="1.1" viewBox="0 0 1208 533" width="1208px" zoomAndPan="magnify"><defs/><g><rect fill="#FFFFFF" height="409.7031" style="stroke:#181818;stroke-width:1.0;" width="10" x="54.5" y="62.9766"/><rect fill="#FFFFFF" height="379.3926" style="stroke:#181818;stroke-width:1.0;" width="10" x="224.5" y="84.2871"/><rect fill="#FFFFFF" height="29.3105" style="stroke:#181818;stroke-width:1.0;" width="10" x="433" y="375.748"/><rect fill="#FFFFFF" height="262.7949" style="stroke:#181818;stroke-width:1.0;" width="10" x="623" y="171.5742"/><rect fill="#FFFFFF" height="145.5527" style="stroke:#181818;stroke-width:1.0;" width="10" x="742" y="200.8848"/><rect fill="#FFFFFF" height="86.9316" style="stroke:#181818;stroke-width:1.0;" width="10" x="987" y="230.1953"/><line style="stroke:#181818;stroke-width:0.5;stroke-dasharray:5.0,5.0;" x1="59" x2="59" y1="52.9766" y2="481.6797"/><line style="stroke:#181818;stroke-width:0.5;stroke-dasharray:5.0,5.0;" x1="229" x2="229" y1="52.9766" y2="481.6797"/><line style="stroke:#181818;stroke-width:0.5;stroke-dasharray:5.0,5.0;" x1="437.5" x2="437.5" y1="131.2754" y2="481.6797"/><line style="stroke:#181818;stroke-width:0.5;stroke-dasharray:5.0,5.0;" x1="627.5" x2="627.5" y1="52.9766" y2="481.6797"/><line style="stroke:#181818;stroke-width:0.5;stroke-dasharray:5.0,5.0;" x1="746.5" x2="746.5" y1="52.9766" y2="481.6797"/><line style="stroke:#181818;stroke-width:0.5;stroke-dasharray:5.0,5.0;" x1="991.5" x2="991.5" y1="52.9766" y2="481.6797"/><rect fill="#E2E2F0" height="46.9766" rx="2.5" ry="2.5" style="stroke:#181818;stroke-width:0.5;" width="109" x="5" y="5"/><text fill="#000000" font-family="sans-serif" font-size="14" font-style="italic" lengthAdjust="spacing" textLength="95" x="12" y="25.5352">&#171;Component&#187;</text><text fill="#000000" font-family="sans-serif" font-size="14" lengthAdjust="spacing" textLength="32" x="43.5" y="42.0234">View</text><rect fill="#E2E2F0" height="46.9766" rx="2.5" ry="2.5" style="stroke:#181818;stroke-width:0.5;" width="109" x="5" y="480.6797"/><text fill="#000000" font-family="sans-serif" font-size="14" font-style="italic" lengthAdjust="spacing" textLength="95" x="12" y="501.2148">&#171;Component&#187;</text><text fill="#000000" font-family="sans-serif" font-size="14" lengthAdjust="spacing" textLength="32" x="43.5" y="517.7031">View</text><rect fill="#E2E2F0" height="46.9766" rx="2.5" ry="2.5" style="stroke:#181818;stroke-width:0.5;" width="109" x="175" y="5"/><text fill="#000000" font-family="sans-serif" font-size="14" font-style="italic" lengthAdjust="spacing" textLength="95" x="182" y="25.5352">&#171;Component&#187;</text><text fill="#000000" font-family="sans-serif" font-size="14" lengthAdjust="spacing" textLength="81" x="189" y="42.0234">Component</text><rect fill="#E2E2F0" height="46.9766" rx="2.5" ry="2.5" style="stroke:#181818;stroke-width:0.5;" width="109" x="175" y="480.6797"/><text fill="#000000" font-family="sans-serif" font-size="14" font-style="italic" lengthAdjust="spacing" textLength="95" x="182" y="501.2148">&#171;Component&#187;</text><text fill="#000000" font-family="sans-serif" font-size="14" lengthAdjust="spacing" textLength="81" x="189" y="517.7031">Component</text><rect fill="#E2E2F0" height="46.9766" rx="2.5" ry="2.5" style="stroke:#181818;stroke-width:0.5;" width="109" x="383.5" y="480.6797"/><text fill="#000000" font-family="sans-serif" font-size="14" font-style="italic" lengthAdjust="spacing" textLength="95" x="390.5" y="501.2148">&#171;Component&#187;</text><text fill="#000000" font-family="sans-serif" font-size="14" lengthAdjust="spacing" textLength="42" x="417" y="517.7031">Model</text><rect fill="#E2E2F0" height="46.9766" rx="2.5" ry="2.5" style="stroke:#181818;stroke-width:0.5;" width="109" x="573.5" y="5"/><text fill="#000000" font-family="sans-serif" font-size="14" font-style="italic" lengthAdjust="spacing" textLength="95" x="580.5" y="25.5352">&#171;Component&#187;</text><text fill="#000000" font-family="sans-serif" font-size="14" lengthAdjust="spacing" textLength="48" x="604" y="42.0234">Service</text><rect fill="#E2E2F0" height="46.9766" rx="2.5" ry="2.5" style="stroke:#181818;stroke-width:0.5;" width="109" x="573.5" y="480.6797"/><text fill="#000000" font-family="sans-serif" font-size="14" font-style="italic" lengthAdjust="spacing" textLength="95" x="580.5" y="501.2148">&#171;Component&#187;</text><text fill="#000000" font-family="sans-serif" font-size="14" lengthAdjust="spacing" textLength="48" x="604" y="517.7031">Service</text><rect fill="#E2E2F0" height="46.9766" rx="2.5" ry="2.5" style="stroke:#181818;stroke-width:0.5;" width="109" x="692.5" y="5"/><text fill="#000000" font-family="sans-serif" font-size="14" font-style="italic" lengthAdjust="spacing" textLength="95" x="699.5" y="25.5352">&#171;Component&#187;</text><text fill="#000000" font-family="sans-serif" font-size="14" lengthAdjust="spacing" textLength="77" x="708.5" y="42.0234">HTTPDriver</text><rect fill="#E2E2F0" height="46.9766" rx="2.5" ry="2.5" style="stroke:#181818;stroke-width:0.5;" width="109" x="692.5" y="480.6797"/><text fill="#000000" font-family="sans-serif" font-size="14" font-style="italic" lengthAdjust="spacing" textLength="95" x="699.5" y="501.2148">&#171;Component&#187;</text><text fill="#000000" font-family="sans-serif" font-size="14" lengthAdjust="spacing" textLength="77" x="708.5" y="517.7031">HTTPDriver</text><rect fill="#E2E2F0" height="46.9766" rx="2.5" ry="2.5" style="stroke:#181818;stroke-width:0.5;" width="129" x="927.5" y="5"/><text fill="#000000" font-family="sans-serif" font-size="14" font-style="italic" lengthAdjust="spacing" textLength="115" x="934.5" y="25.5352">&#171;Container (C4)&#187;</text><text fill="#000000" font-family="sans-serif" font-size="14" lengthAdjust="spacing" textLength="84" x="950" y="42.0234">MastersData</text><rect fill="#E2E2F0" height="46.9766" rx="2.5" ry="2.5" style="stroke:#181818;stroke-width:0.5;" width="129" x="927.5" y="480.6797"/><text fill="#000000" font-family="sans-serif" font-size="14" font-style="italic" lengthAdjust="spacing" textLength="115" x="934.5" y="501.2148">&#171;Container (C4)&#187;</text><text fill="#000000" font-family="sans-serif" font-size="14" lengthAdjust="spacing" textLength="84" x="950" y="517.7031">MastersData</text><rect fill="#FFFFFF" height="409.7031" style="stroke:#181818;stroke-width:1.0;" width="10" x="54.5" y="62.9766"/><rect fill="#FFFFFF" height="379.3926" style="stroke:#181818;stroke-width:1.0;" width="10" x="224.5" y="84.2871"/><rect fill="#FFFFFF" height="29.3105" style="stroke:#181818;stroke-width:1.0;" width="10" x="433" y="375.748"/><rect fill="#FFFFFF" height="262.7949" style="stroke:#181818;stroke-width:1.0;" width="10" x="623" y="171.5742"/><rect fill="#FFFFFF" height="145.5527" style="stroke:#181818;stroke-width:1.0;" width="10" x="742" y="200.8848"/><rect fill="#FFFFFF" height="86.9316" style="stroke:#181818;stroke-width:1.0;" width="10" x="987" y="230.1953"/><polygon fill="#181818" points="212.5,80.2871,222.5,84.2871,212.5,88.2871,216.5,84.2871" style="stroke:#181818;stroke-width:1.0;"/><line style="stroke:#181818;stroke-width:1.0;" x1="64.5" x2="218.5" y1="84.2871" y2="84.2871"/><text fill="#000000" font-family="sans-serif" font-size="13" lengthAdjust="spacing" textLength="102" x="71.5" y="79.5449">submit the form</text><polygon fill="#181818" points="371.5,109.5977,381.5,113.5977,371.5,117.5977,375.5,113.5977" style="stroke:#181818;stroke-width:1.0;"/><line style="stroke:#181818;stroke-width:1.0;" x1="234.5" x2="377.5" y1="113.5977" y2="113.5977"/><text fill="#000000" font-family="sans-serif" font-size="13" lengthAdjust="spacing" textLength="125" x="241.5" y="108.8555">get the data in form</text><rect fill="#E2E2F0" height="46.9766" rx="2.5" ry="2.5" style="stroke:#181818;stroke-width:0.5;" width="109" x="383.5" y="92.2871"/><text fill="#000000" font-family="sans-serif" font-size="14" font-style="italic" lengthAdjust="spacing" textLength="95" x="390.5" y="112.8223">&#171;Component&#187;</text><text fill="#000000" font-family="sans-serif" font-size="14" lengthAdjust="spacing" textLength="42" x="417" y="129.3105">Model</text><polygon fill="#181818" points="611,167.5742,621,171.5742,611,175.5742,615,171.5742" style="stroke:#181818;stroke-width:1.0;"/><line style="stroke:#181818;stroke-width:1.0;" x1="234.5" x2="617" y1="171.5742" y2="171.5742"/><text fill="#000000" font-family="sans-serif" font-size="13" lengthAdjust="spacing" textLength="187" x="241.5" y="166.832">create the new OperationType</text><polygon fill="#181818" points="730,196.8848,740,200.8848,730,204.8848,734,200.8848" style="stroke:#181818;stroke-width:1.0;"/><line style="stroke:#181818;stroke-width:1.0;" x1="633" x2="736" y1="200.8848" y2="200.8848"/><text fill="#000000" font-family="sans-serif" font-size="13" lengthAdjust="spacing" textLength="32" x="640" y="196.1426">POST</text><polygon fill="#181818" points="975,226.1953,985,230.1953,975,234.1953,979,230.1953" style="stroke:#181818;stroke-width:1.0;"/><line style="stroke:#181818;stroke-width:1.0;" x1="752" x2="981" y1="230.1953" y2="230.1953"/><text fill="#000000" font-family="sans-serif" font-size="13" lengthAdjust="spacing" textLength="216" x="759" y="225.4531">POST (/api/OperationType/Create)</text><line style="stroke:#181818;stroke-width:1.0;" x1="997" x2="1039" y1="274.8164" y2="274.8164"/><line style="stroke:#181818;stroke-width:1.0;" x1="1039" x2="1039" y1="274.8164" y2="287.8164"/><line style="stroke:#181818;stroke-width:1.0;" x1="998" x2="1039" y1="287.8164" y2="287.8164"/><polygon fill="#181818" points="1008,283.8164,998,287.8164,1008,291.8164,1004,287.8164" style="stroke:#181818;stroke-width:1.0;"/><text fill="#000000" font-family="sans-serif" font-size="13" lengthAdjust="spacing" textLength="153" x="1004" y="254.7637">validates all information</text><text fill="#000000" font-family="sans-serif" font-size="13" lengthAdjust="spacing" textLength="197" x="1004" y="270.0742">and creates new OperationType</text><polygon fill="#181818" points="763,313.127,753,317.127,763,321.127,759,317.127" style="stroke:#181818;stroke-width:1.0;"/><line style="stroke:#181818;stroke-width:1.0;stroke-dasharray:2.0,2.0;" x1="757" x2="991" y1="317.127" y2="317.127"/><text fill="#000000" font-family="sans-serif" font-size="13" lengthAdjust="spacing" textLength="57" x="769" y="312.3848">response</text><polygon fill="#181818" points="644,342.4375,634,346.4375,644,350.4375,640,346.4375" style="stroke:#181818;stroke-width:1.0;"/><line style="stroke:#181818;stroke-width:1.0;stroke-dasharray:2.0,2.0;" x1="638" x2="746" y1="346.4375" y2="346.4375"/><text fill="#000000" font-family="sans-serif" font-size="13" lengthAdjust="spacing" textLength="57" x="650" y="341.6953">response</text><polygon fill="#181818" points="454,371.748,444,375.748,454,379.748,450,375.748" style="stroke:#181818;stroke-width:1.0;"/><line style="stroke:#181818;stroke-width:1.0;" x1="448" x2="622" y1="375.748" y2="375.748"/><text fill="#000000" font-family="sans-serif" font-size="13" lengthAdjust="spacing" textLength="161" x="460" y="371.0059">transforms response data</text><polygon fill="#181818" points="611,401.0586,621,405.0586,611,409.0586,615,405.0586" style="stroke:#181818;stroke-width:1.0;"/><line style="stroke:#181818;stroke-width:1.0;stroke-dasharray:2.0,2.0;" x1="438" x2="617" y1="405.0586" y2="405.0586"/><text fill="#000000" font-family="sans-serif" font-size="13" lengthAdjust="spacing" textLength="92" x="445" y="400.3164">OperationType</text><polygon fill="#181818" points="245.5,430.3691,235.5,434.3691,245.5,438.3691,241.5,434.3691" style="stroke:#181818;stroke-width:1.0;"/><line style="stroke:#181818;stroke-width:1.0;stroke-dasharray:2.0,2.0;" x1="239.5" x2="627" y1="434.3691" y2="434.3691"/><text fill="#000000" font-family="sans-serif" font-size="13" lengthAdjust="spacing" textLength="92" x="251.5" y="429.627">OperationType</text><polygon fill="#181818" points="75.5,459.6797,65.5,463.6797,75.5,467.6797,71.5,463.6797" style="stroke:#181818;stroke-width:1.0;"/><line style="stroke:#181818;stroke-width:1.0;stroke-dasharray:2.0,2.0;" x1="69.5" x2="228.5" y1="463.6797" y2="463.6797"/><text fill="#000000" font-family="sans-serif" font-size="13" lengthAdjust="spacing" textLength="136" x="81.5" y="458.9375">success/fail message</text><!--SRC=[VP11Ry8m38Nl-HKv0jBKoquLub10uZA1HBNJBbunp5ARHh7fj7-_96r9qM2dskdtRBzdmGbLPC68VYVyri3zTxbSjurj3HfPhPITOBVtmARckU2jFM4TuBvu3XxHTLHXGCVoERmhoyF6KOSky9FkdqE01HrlG21eYcraZG0PhvkjN-TUeA0Iwa0mvg1Y62-hP3JNVFriIBHyeJwthac26wDIB5uQRIyMkRvWhpg50yZqwZjqi9thoc6O66ZZ3zXRT23KclB7Obeuu6fCoqz8GUJwi3-M2Kv_r2GjBocsFQfd6LZAxdPbwtZ8F8qfjie7DyWwgCcxGTPGrzvIS1Ir7mRCQN313omubAipsY5xy_otdpYAyULQ71WEy_b6nI3JPH4S9prSz_2HhrM5pDaPgDQDh-22wXS0]--></g></svg>