<?xml version="1.0" encoding="us-ascii" standalone="no"?><svg xmlns="http://www.w3.org/2000/svg" xmlns:xlink="http://www.w3.org/1999/xlink" contentStyleType="text/css" height="524px" preserveAspectRatio="none" style="width:1047px;height:524px;background:#FFFFFF;" version="1.1" viewBox="0 0 1047 524" width="1047px" zoomAndPan="magnify"><defs/><g><rect fill="#FFFFFF" height="396.4375" style="stroke:#181818;stroke-width:1.0;" width="10" x="51.5" y="65.2188"/><rect fill="#FFFFFF" height="365.0859" style="stroke:#181818;stroke-width:1.0;" width="10" x="221.5" y="87.5703"/><rect fill="#FFFFFF" height="227.8125" style="stroke:#181818;stroke-width:1.0;" width="10" x="527" y="178.1406"/><rect fill="#FFFFFF" height="167.1094" style="stroke:#181818;stroke-width:1.0;" width="10" x="640" y="208.4922"/><rect fill="#FFFFFF" height="106.4063" style="stroke:#181818;stroke-width:1.0;" width="10" x="823" y="238.8438"/><line style="stroke:#181818;stroke-width:0.5;stroke-dasharray:5.0,5.0;" x1="56" x2="56" y1="55.2188" y2="470.6563"/><line style="stroke:#181818;stroke-width:0.5;stroke-dasharray:5.0,5.0;" x1="226" x2="226" y1="55.2188" y2="470.6563"/><line style="stroke:#181818;stroke-width:0.5;stroke-dasharray:5.0,5.0;" x1="418.5" x2="418.5" y1="135.6797" y2="470.6563"/><line style="stroke:#181818;stroke-width:0.5;stroke-dasharray:5.0,5.0;" x1="531.5" x2="531.5" y1="55.2188" y2="470.6563"/><line style="stroke:#181818;stroke-width:0.5;stroke-dasharray:5.0,5.0;" x1="644.5" x2="644.5" y1="55.2188" y2="470.6563"/><line style="stroke:#181818;stroke-width:0.5;stroke-dasharray:5.0,5.0;" x1="828" x2="828" y1="55.2188" y2="470.6563"/><rect fill="#E2E2F0" height="49.2188" rx="2.5" ry="2.5" style="stroke:#181818;stroke-width:0.5;" width="103" x="5" y="5"/><text fill="#000000" font-family="sans-serif" font-size="14" font-style="italic" lengthAdjust="spacing" textLength="89" x="12" y="26.5332">&#171;Component&#187;</text><text fill="#000000" font-family="sans-serif" font-size="14" lengthAdjust="spacing" textLength="29" x="42" y="44.1426">View</text><rect fill="#E2E2F0" height="49.2188" rx="2.5" ry="2.5" style="stroke:#181818;stroke-width:0.5;" width="103" x="5" y="469.6563"/><text fill="#000000" font-family="sans-serif" font-size="14" font-style="italic" lengthAdjust="spacing" textLength="89" x="12" y="491.1895">&#171;Component&#187;</text><text fill="#000000" font-family="sans-serif" font-size="14" lengthAdjust="spacing" textLength="29" x="42" y="508.7988">View</text><rect fill="#E2E2F0" height="49.2188" rx="2.5" ry="2.5" style="stroke:#181818;stroke-width:0.5;" width="103" x="175" y="5"/><text fill="#000000" font-family="sans-serif" font-size="14" font-style="italic" lengthAdjust="spacing" textLength="89" x="182" y="26.5332">&#171;Component&#187;</text><text fill="#000000" font-family="sans-serif" font-size="14" lengthAdjust="spacing" textLength="73" x="190" y="44.1426">Component</text><rect fill="#E2E2F0" height="49.2188" rx="2.5" ry="2.5" style="stroke:#181818;stroke-width:0.5;" width="103" x="175" y="469.6563"/><text fill="#000000" font-family="sans-serif" font-size="14" font-style="italic" lengthAdjust="spacing" textLength="89" x="182" y="491.1895">&#171;Component&#187;</text><text fill="#000000" font-family="sans-serif" font-size="14" lengthAdjust="spacing" textLength="73" x="190" y="508.7988">Component</text><rect fill="#E2E2F0" height="49.2188" rx="2.5" ry="2.5" style="stroke:#181818;stroke-width:0.5;" width="103" x="367.5" y="469.6563"/><text fill="#000000" font-family="sans-serif" font-size="14" font-style="italic" lengthAdjust="spacing" textLength="89" x="374.5" y="491.1895">&#171;Component&#187;</text><text fill="#000000" font-family="sans-serif" font-size="14" lengthAdjust="spacing" textLength="38" x="400" y="508.7988">Model</text><rect fill="#E2E2F0" height="49.2188" rx="2.5" ry="2.5" style="stroke:#181818;stroke-width:0.5;" width="103" x="480.5" y="5"/><text fill="#000000" font-family="sans-serif" font-size="14" font-style="italic" lengthAdjust="spacing" textLength="89" x="487.5" y="26.5332">&#171;Component&#187;</text><text fill="#000000" font-family="sans-serif" font-size="14" lengthAdjust="spacing" textLength="47" x="508.5" y="44.1426">Service</text><rect fill="#E2E2F0" height="49.2188" rx="2.5" ry="2.5" style="stroke:#181818;stroke-width:0.5;" width="103" x="480.5" y="469.6563"/><text fill="#000000" font-family="sans-serif" font-size="14" font-style="italic" lengthAdjust="spacing" textLength="89" x="487.5" y="491.1895">&#171;Component&#187;</text><text fill="#000000" font-family="sans-serif" font-size="14" lengthAdjust="spacing" textLength="47" x="508.5" y="508.7988">Service</text><rect fill="#E2E2F0" height="49.2188" rx="2.5" ry="2.5" style="stroke:#181818;stroke-width:0.5;" width="103" x="593.5" y="5"/><text fill="#000000" font-family="sans-serif" font-size="14" font-style="italic" lengthAdjust="spacing" textLength="89" x="600.5" y="26.5332">&#171;Component&#187;</text><text fill="#000000" font-family="sans-serif" font-size="14" lengthAdjust="spacing" textLength="74" x="608" y="44.1426">HTTPDriver</text><rect fill="#E2E2F0" height="49.2188" rx="2.5" ry="2.5" style="stroke:#181818;stroke-width:0.5;" width="103" x="593.5" y="469.6563"/><text fill="#000000" font-family="sans-serif" font-size="14" font-style="italic" lengthAdjust="spacing" textLength="89" x="600.5" y="491.1895">&#171;Component&#187;</text><text fill="#000000" font-family="sans-serif" font-size="14" lengthAdjust="spacing" textLength="74" x="608" y="508.7988">HTTPDriver</text><rect fill="#E2E2F0" height="49.2188" rx="2.5" ry="2.5" style="stroke:#181818;stroke-width:0.5;" width="124" x="766" y="5"/><text fill="#000000" font-family="sans-serif" font-size="14" font-style="italic" lengthAdjust="spacing" textLength="110" x="773" y="26.5332">&#171;Container (C4)&#187;</text><text fill="#000000" font-family="sans-serif" font-size="14" lengthAdjust="spacing" textLength="80" x="788" y="44.1426">MastersData</text><rect fill="#E2E2F0" height="49.2188" rx="2.5" ry="2.5" style="stroke:#181818;stroke-width:0.5;" width="124" x="766" y="469.6563"/><text fill="#000000" font-family="sans-serif" font-size="14" font-style="italic" lengthAdjust="spacing" textLength="110" x="773" y="491.1895">&#171;Container (C4)&#187;</text><text fill="#000000" font-family="sans-serif" font-size="14" lengthAdjust="spacing" textLength="80" x="788" y="508.7988">MastersData</text><rect fill="#FFFFFF" height="396.4375" style="stroke:#181818;stroke-width:1.0;" width="10" x="51.5" y="65.2188"/><rect fill="#FFFFFF" height="365.0859" style="stroke:#181818;stroke-width:1.0;" width="10" x="221.5" y="87.5703"/><rect fill="#FFFFFF" height="227.8125" style="stroke:#181818;stroke-width:1.0;" width="10" x="527" y="178.1406"/><rect fill="#FFFFFF" height="167.1094" style="stroke:#181818;stroke-width:1.0;" width="10" x="640" y="208.4922"/><rect fill="#FFFFFF" height="106.4063" style="stroke:#181818;stroke-width:1.0;" width="10" x="823" y="238.8438"/><polygon fill="#181818" points="209.5,83.5703,219.5,87.5703,209.5,91.5703,213.5,87.5703" style="stroke:#181818;stroke-width:1.0;"/><line style="stroke:#181818;stroke-width:1.0;" x1="61.5" x2="215.5" y1="87.5703" y2="87.5703"/><text fill="#000000" font-family="sans-serif" font-size="13" lengthAdjust="spacing" textLength="90" x="68.5" y="82.7139">submit the form</text><polygon fill="#181818" points="355.5,113.9219,365.5,117.9219,355.5,121.9219,359.5,117.9219" style="stroke:#181818;stroke-width:1.0;"/><line style="stroke:#181818;stroke-width:1.0;" x1="231.5" x2="361.5" y1="117.9219" y2="117.9219"/><text fill="#000000" font-family="sans-serif" font-size="13" lengthAdjust="spacing" textLength="112" x="238.5" y="113.0654">get the data in form</text><rect fill="#E2E2F0" height="49.2188" rx="2.5" ry="2.5" style="stroke:#181818;stroke-width:0.5;" width="103" x="367.5" y="95.5703"/><text fill="#000000" font-family="sans-serif" font-size="14" font-style="italic" lengthAdjust="spacing" textLength="89" x="374.5" y="117.1035">&#171;Component&#187;</text><text fill="#000000" font-family="sans-serif" font-size="14" lengthAdjust="spacing" textLength="38" x="400" y="134.7129">Model</text><polygon fill="#181818" points="515,174.1406,525,178.1406,515,182.1406,519,178.1406" style="stroke:#181818;stroke-width:1.0;"/><line style="stroke:#181818;stroke-width:1.0;" x1="231.5" x2="521" y1="178.1406" y2="178.1406"/><text fill="#000000" font-family="sans-serif" font-size="13" lengthAdjust="spacing" textLength="164" x="238.5" y="173.2842">register the new patient user</text><polygon fill="#181818" points="628,204.4922,638,208.4922,628,212.4922,632,208.4922" style="stroke:#181818;stroke-width:1.0;"/><line style="stroke:#181818;stroke-width:1.0;" x1="537" x2="634" y1="208.4922" y2="208.4922"/><text fill="#000000" font-family="sans-serif" font-size="13" lengthAdjust="spacing" textLength="35" x="544" y="203.6357">POST</text><polygon fill="#181818" points="811,234.8438,821,238.8438,811,242.8438,815,238.8438" style="stroke:#181818;stroke-width:1.0;"/><line style="stroke:#181818;stroke-width:1.0;" x1="650" x2="817" y1="238.8438" y2="238.8438"/><text fill="#000000" font-family="sans-serif" font-size="13" lengthAdjust="spacing" textLength="154" x="657" y="233.9873">POST (/api/users/patients)</text><line style="stroke:#181818;stroke-width:1.0;" x1="833" x2="875" y1="301.8984" y2="301.8984"/><line style="stroke:#181818;stroke-width:1.0;" x1="875" x2="875" y1="301.8984" y2="314.8984"/><line style="stroke:#181818;stroke-width:1.0;" x1="834" x2="875" y1="314.8984" y2="314.8984"/><polygon fill="#181818" points="844,310.8984,834,314.8984,844,318.8984,840,314.8984" style="stroke:#181818;stroke-width:1.0;"/><text fill="#000000" font-family="sans-serif" font-size="13" lengthAdjust="spacing" textLength="134" x="840" y="264.3389">validates all information</text><text fill="#000000" font-family="sans-serif" font-size="13" lengthAdjust="spacing" textLength="200" x="840" y="280.6904">and registers the new patient user,</text><text fill="#000000" font-family="sans-serif" font-size="13" lengthAdjust="spacing" textLength="172" x="840" y="297.042">sending an confirmation email</text><polygon fill="#181818" points="661,341.25,651,345.25,661,349.25,657,345.25" style="stroke:#181818;stroke-width:1.0;"/><line style="stroke:#181818;stroke-width:1.0;stroke-dasharray:2.0,2.0;" x1="655" x2="827" y1="345.25" y2="345.25"/><text fill="#000000" font-family="sans-serif" font-size="13" lengthAdjust="spacing" textLength="53" x="667" y="340.3936">response</text><polygon fill="#181818" points="548,371.6016,538,375.6016,548,379.6016,544,375.6016" style="stroke:#181818;stroke-width:1.0;"/><line style="stroke:#181818;stroke-width:1.0;stroke-dasharray:2.0,2.0;" x1="542" x2="644" y1="375.6016" y2="375.6016"/><text fill="#000000" font-family="sans-serif" font-size="13" lengthAdjust="spacing" textLength="53" x="554" y="370.7451">response</text><polygon fill="#181818" points="242.5,401.9531,232.5,405.9531,242.5,409.9531,238.5,405.9531" style="stroke:#181818;stroke-width:1.0;"/><line style="stroke:#181818;stroke-width:1.0;stroke-dasharray:2.0,2.0;" x1="236.5" x2="531" y1="405.9531" y2="405.9531"/><text fill="#000000" font-family="sans-serif" font-size="13" lengthAdjust="spacing" textLength="53" x="248.5" y="401.0967">response</text><polygon fill="#181818" points="72.5,448.6563,62.5,452.6563,72.5,456.6563,68.5,452.6563" style="stroke:#181818;stroke-width:1.0;"/><line style="stroke:#181818;stroke-width:1.0;stroke-dasharray:2.0,2.0;" x1="66.5" x2="225.5" y1="452.6563" y2="452.6563"/><text fill="#000000" font-family="sans-serif" font-size="13" lengthAdjust="spacing" textLength="136" x="78.5" y="431.4482">message to confirm the</text><text fill="#000000" font-family="sans-serif" font-size="13" lengthAdjust="spacing" textLength="123" x="78.5" y="447.7998">account/fail message</text><!--SRC=[ZP2zRiCm38HtFGN796ZXfPCHP4WQe4lH00awPM5jnYLWKuOakwzVoZzH2ZH59udIToJlMdI12svH0hmpVG7wyLolTxPfhP24pSQqDzZrFRAfk2zujINL4Hulzy4ZkPuBYkXylG-_d4w7PySzkSZVL7yiWZwGyyyOC6gs-u6LW2ogM-oUbYemM0JkCT2GWnd2UDmaepduxgFX0E6Ju69TamHNngHOL3hONgrog6XKbN41bb7z0vriv-2euhZim8kkq6BW27MUN9euyMQEIrka978ul1rF2Ku_vYOkbMpt8mgB35lEuWYVJGFzCZNOxercDWbwh5cDa0UiQtKJpQZ4obbGogi1_wk3XxDuafAb0XGeh5nuKWCroBLn53edsiLhE9x-MpVaFLO4mSvDutZTg2Xi9o6xQEyPCjy0]--></g></svg>