<?xml version="1.0" encoding="us-ascii" standalone="no"?><svg xmlns="http://www.w3.org/2000/svg" xmlns:xlink="http://www.w3.org/1999/xlink" contentStyleType="text/css" height="939px" preserveAspectRatio="none" style="width:1711px;height:939px;background:#FFFFFF;" version="1.1" viewBox="0 0 1711 939" width="1711px" zoomAndPan="magnify"><defs/><g><rect fill="#FFFFFF" height="810.8203" style="stroke:#181818;stroke-width:1.0;" width="10" x="62" y="65.2188"/><rect fill="#FFFFFF" height="779.4688" style="stroke:#181818;stroke-width:1.0;" width="10" x="245" y="87.5703"/><rect fill="#FFFFFF" height="718.7656" style="stroke:#181818;stroke-width:1.0;" width="10" x="335" y="117.9219"/><rect fill="#FFFFFF" height="597.8438" style="stroke:#181818;stroke-width:1.0;" width="10" x="629" y="208.4922"/><rect fill="#FFFFFF" height="41.3516" style="stroke:#181818;stroke-width:1.0;" width="10" x="634" y="246.8438"/><rect fill="#FFFFFF" height="41.3516" style="stroke:#181818;stroke-width:1.0;" width="10" x="634" y="454.9531"/><rect fill="#FFFFFF" height="30.3516" style="stroke:#181818;stroke-width:1.0;" width="10" x="1135.5" y="386.25"/><rect fill="#FFFFFF" height="30.3516" style="stroke:#181818;stroke-width:1.0;" width="10" x="1272.5" y="325.5469"/><rect fill="#FFFFFF" height="30.3516" style="stroke:#181818;stroke-width:1.0;" width="10" x="1410.5" y="533.6563"/><rect fill="#FFFFFF" height="30.3516" style="stroke:#181818;stroke-width:1.0;" width="10" x="1548.5" y="745.6328"/><line style="stroke:#181818;stroke-width:0.5;stroke-dasharray:5.0,5.0;" x1="67" x2="67" y1="55.2188" y2="885.0391"/><line style="stroke:#181818;stroke-width:0.5;stroke-dasharray:5.0,5.0;" x1="250" x2="250" y1="55.2188" y2="885.0391"/><line style="stroke:#181818;stroke-width:0.5;stroke-dasharray:5.0,5.0;" x1="340" x2="340" y1="55.2188" y2="885.0391"/><line style="stroke:#181818;stroke-width:0.5;stroke-dasharray:5.0,5.0;" x1="549" x2="549" y1="166.0313" y2="885.0391"/><line style="stroke:#181818;stroke-width:0.5;stroke-dasharray:5.0,5.0;" x1="634" x2="634" y1="55.2188" y2="885.0391"/><line style="stroke:#181818;stroke-width:0.5;stroke-dasharray:5.0,5.0;" x1="911.5" x2="911.5" y1="55.2188" y2="885.0391"/><line style="stroke:#181818;stroke-width:0.5;stroke-dasharray:5.0,5.0;" x1="1018.5" x2="1018.5" y1="55.2188" y2="885.0391"/><line style="stroke:#181818;stroke-width:0.5;stroke-dasharray:5.0,5.0;" x1="1140.5" x2="1140.5" y1="55.2188" y2="885.0391"/><line style="stroke:#181818;stroke-width:0.5;stroke-dasharray:5.0,5.0;" x1="1277.5" x2="1277.5" y1="55.2188" y2="885.0391"/><line style="stroke:#181818;stroke-width:0.5;stroke-dasharray:5.0,5.0;" x1="1415.5" x2="1415.5" y1="55.2188" y2="885.0391"/><line style="stroke:#181818;stroke-width:0.5;stroke-dasharray:5.0,5.0;" x1="1553.5" x2="1553.5" y1="55.2188" y2="885.0391"/><line style="stroke:#181818;stroke-width:0.5;stroke-dasharray:5.0,5.0;" x1="1666.5" x2="1666.5" y1="612.1172" y2="885.0391"/><rect fill="#E2E2F0" height="49.2188" rx="2.5" ry="2.5" style="stroke:#181818;stroke-width:0.5;" width="124" x="5" y="5"/><text fill="#000000" font-family="sans-serif" font-size="14" font-style="italic" lengthAdjust="spacing" textLength="110" x="12" y="26.5332">&#171;Container (C4)&#187;</text><text fill="#000000" font-family="sans-serif" font-size="14" lengthAdjust="spacing" textLength="27" x="53.5" y="44.1426">SPA</text><rect fill="#E2E2F0" height="49.2188" rx="2.5" ry="2.5" style="stroke:#181818;stroke-width:0.5;" width="124" x="5" y="884.0391"/><text fill="#000000" font-family="sans-serif" font-size="14" font-style="italic" lengthAdjust="spacing" textLength="110" x="12" y="905.5723">&#171;Container (C4)&#187;</text><text fill="#000000" font-family="sans-serif" font-size="14" lengthAdjust="spacing" textLength="27" x="53.5" y="923.1816">SPA</text><rect fill="#E2E2F0" height="49.2188" rx="2.5" ry="2.5" style="stroke:#181818;stroke-width:0.5;" width="68" x="216" y="5"/><text fill="#000000" font-family="sans-serif" font-size="14" font-style="italic" lengthAdjust="spacing" textLength="54" x="223" y="26.5332">&#171;Route&#187;</text><text fill="#000000" font-family="sans-serif" font-size="14" lengthAdjust="spacing" textLength="38" x="231" y="44.1426">Route</text><rect fill="#E2E2F0" height="49.2188" rx="2.5" ry="2.5" style="stroke:#181818;stroke-width:0.5;" width="68" x="216" y="884.0391"/><text fill="#000000" font-family="sans-serif" font-size="14" font-style="italic" lengthAdjust="spacing" textLength="54" x="223" y="905.5723">&#171;Route&#187;</text><text fill="#000000" font-family="sans-serif" font-size="14" lengthAdjust="spacing" textLength="38" x="231" y="923.1816">Route</text><rect fill="#E2E2F0" height="49.2188" rx="2.5" ry="2.5" style="stroke:#181818;stroke-width:0.5;" width="92" x="294" y="5"/><text fill="#000000" font-family="sans-serif" font-size="14" font-style="italic" lengthAdjust="spacing" textLength="78" x="301" y="26.5332">&#171;Controller&#187;</text><text fill="#000000" font-family="sans-serif" font-size="14" lengthAdjust="spacing" textLength="62" x="309" y="44.1426">Controller</text><rect fill="#E2E2F0" height="49.2188" rx="2.5" ry="2.5" style="stroke:#181818;stroke-width:0.5;" width="92" x="294" y="884.0391"/><text fill="#000000" font-family="sans-serif" font-size="14" font-style="italic" lengthAdjust="spacing" textLength="78" x="301" y="905.5723">&#171;Controller&#187;</text><text fill="#000000" font-family="sans-serif" font-size="14" lengthAdjust="spacing" textLength="62" x="309" y="923.1816">Controller</text><rect fill="#E2E2F0" height="49.2188" rx="2.5" ry="2.5" style="stroke:#181818;stroke-width:0.5;" width="60" x="519" y="884.0391"/><text fill="#000000" font-family="sans-serif" font-size="14" font-style="italic" lengthAdjust="spacing" textLength="46" x="526" y="905.5723">&#171;DTO&#187;</text><text fill="#000000" font-family="sans-serif" font-size="14" lengthAdjust="spacing" textLength="30" x="534" y="923.1816">DTO</text><rect fill="#E2E2F0" height="49.2188" rx="2.5" ry="2.5" style="stroke:#181818;stroke-width:0.5;" width="90" x="589" y="5"/><text fill="#000000" font-family="sans-serif" font-size="14" font-style="italic" lengthAdjust="spacing" textLength="62" x="603" y="26.5332">&#171;Service&#187;</text><text fill="#000000" font-family="sans-serif" font-size="14" lengthAdjust="spacing" textLength="76" x="596" y="44.1426">UserService</text><rect fill="#E2E2F0" height="49.2188" rx="2.5" ry="2.5" style="stroke:#181818;stroke-width:0.5;" width="90" x="589" y="884.0391"/><text fill="#000000" font-family="sans-serif" font-size="14" font-style="italic" lengthAdjust="spacing" textLength="62" x="603" y="905.5723">&#171;Service&#187;</text><text fill="#000000" font-family="sans-serif" font-size="14" lengthAdjust="spacing" textLength="76" x="596" y="923.1816">UserService</text><rect fill="#E2E2F0" height="49.2188" rx="2.5" ry="2.5" style="stroke:#181818;stroke-width:0.5;" width="95" x="864.5" y="5"/><text fill="#000000" font-family="sans-serif" font-size="14" font-style="italic" lengthAdjust="spacing" textLength="62" x="881" y="26.5332">&#171;Service&#187;</text><text fill="#000000" font-family="sans-serif" font-size="14" lengthAdjust="spacing" textLength="81" x="871.5" y="44.1426">EmailService</text><rect fill="#E2E2F0" height="49.2188" rx="2.5" ry="2.5" style="stroke:#181818;stroke-width:0.5;" width="95" x="864.5" y="884.0391"/><text fill="#000000" font-family="sans-serif" font-size="14" font-style="italic" lengthAdjust="spacing" textLength="62" x="881" y="905.5723">&#171;Service&#187;</text><text fill="#000000" font-family="sans-serif" font-size="14" lengthAdjust="spacing" textLength="81" x="871.5" y="923.1816">EmailService</text><rect fill="#E2E2F0" height="49.2188" rx="2.5" ry="2.5" style="stroke:#181818;stroke-width:0.5;" width="98" x="969.5" y="5"/><text fill="#000000" font-family="sans-serif" font-size="14" font-style="italic" lengthAdjust="spacing" textLength="84" x="976.5" y="26.5332">&#171;Repository&#187;</text><text fill="#000000" font-family="sans-serif" font-size="14" lengthAdjust="spacing" textLength="68" x="984.5" y="44.1426">Repository</text><rect fill="#E2E2F0" height="49.2188" rx="2.5" ry="2.5" style="stroke:#181818;stroke-width:0.5;" width="98" x="969.5" y="884.0391"/><text fill="#000000" font-family="sans-serif" font-size="14" font-style="italic" lengthAdjust="spacing" textLength="84" x="976.5" y="905.5723">&#171;Repository&#187;</text><text fill="#000000" font-family="sans-serif" font-size="14" lengthAdjust="spacing" textLength="68" x="984.5" y="923.1816">Repository</text><rect fill="#E2E2F0" height="49.2188" rx="2.5" ry="2.5" style="stroke:#181818;stroke-width:0.5;" width="126" x="1077.5" y="5"/><text fill="#000000" font-family="sans-serif" font-size="14" font-style="italic" lengthAdjust="spacing" textLength="84" x="1098.5" y="26.5332">&#171;Repository&#187;</text><text fill="#000000" font-family="sans-serif" font-size="14" lengthAdjust="spacing" textLength="112" x="1084.5" y="44.1426">PatientRepository</text><rect fill="#E2E2F0" height="49.2188" rx="2.5" ry="2.5" style="stroke:#181818;stroke-width:0.5;" width="126" x="1077.5" y="884.0391"/><text fill="#000000" font-family="sans-serif" font-size="14" font-style="italic" lengthAdjust="spacing" textLength="84" x="1098.5" y="905.5723">&#171;Repository&#187;</text><text fill="#000000" font-family="sans-serif" font-size="14" lengthAdjust="spacing" textLength="112" x="1084.5" y="923.1816">PatientRepository</text><rect fill="#E2E2F0" height="49.2188" rx="2.5" ry="2.5" style="stroke:#181818;stroke-width:0.5;" width="128" x="1213.5" y="5"/><text fill="#000000" font-family="sans-serif" font-size="14" font-style="italic" lengthAdjust="spacing" textLength="114" x="1220.5" y="26.5332">&#171;Domain Service&#187;</text><text fill="#000000" font-family="sans-serif" font-size="14" lengthAdjust="spacing" textLength="98" x="1228.5" y="44.1426">PasswordPolicy</text><rect fill="#E2E2F0" height="49.2188" rx="2.5" ry="2.5" style="stroke:#181818;stroke-width:0.5;" width="128" x="1213.5" y="884.0391"/><text fill="#000000" font-family="sans-serif" font-size="14" font-style="italic" lengthAdjust="spacing" textLength="114" x="1220.5" y="905.5723">&#171;Domain Service&#187;</text><text fill="#000000" font-family="sans-serif" font-size="14" lengthAdjust="spacing" textLength="98" x="1228.5" y="923.1816">PasswordPolicy</text><rect fill="#E2E2F0" height="49.2188" rx="2.5" ry="2.5" style="stroke:#181818;stroke-width:0.5;" width="128" x="1351.5" y="5"/><text fill="#000000" font-family="sans-serif" font-size="14" font-style="italic" lengthAdjust="spacing" textLength="114" x="1358.5" y="26.5332">&#171;Domain Service&#187;</text><text fill="#000000" font-family="sans-serif" font-size="14" lengthAdjust="spacing" textLength="106" x="1362.5" y="44.1426">PasswordHasher</text><rect fill="#E2E2F0" height="49.2188" rx="2.5" ry="2.5" style="stroke:#181818;stroke-width:0.5;" width="128" x="1351.5" y="884.0391"/><text fill="#000000" font-family="sans-serif" font-size="14" font-style="italic" lengthAdjust="spacing" textLength="114" x="1358.5" y="905.5723">&#171;Domain Service&#187;</text><text fill="#000000" font-family="sans-serif" font-size="14" lengthAdjust="spacing" textLength="106" x="1362.5" y="923.1816">PasswordHasher</text><rect fill="#E2E2F0" height="49.2188" rx="2.5" ry="2.5" style="stroke:#181818;stroke-width:0.5;" width="128" x="1489.5" y="5"/><text fill="#000000" font-family="sans-serif" font-size="14" font-style="italic" lengthAdjust="spacing" textLength="114" x="1496.5" y="26.5332">&#171;Domain Service&#187;</text><text fill="#000000" font-family="sans-serif" font-size="14" lengthAdjust="spacing" textLength="48" x="1529.5" y="44.1426">Mapper</text><rect fill="#E2E2F0" height="49.2188" rx="2.5" ry="2.5" style="stroke:#181818;stroke-width:0.5;" width="128" x="1489.5" y="884.0391"/><text fill="#000000" font-family="sans-serif" font-size="14" font-style="italic" lengthAdjust="spacing" textLength="114" x="1496.5" y="905.5723">&#171;Domain Service&#187;</text><text fill="#000000" font-family="sans-serif" font-size="14" lengthAdjust="spacing" textLength="48" x="1529.5" y="923.1816">Mapper</text><rect fill="#E2E2F0" height="49.2188" rx="2.5" ry="2.5" style="stroke:#181818;stroke-width:0.5;" width="78" x="1627.5" y="884.0391"/><text fill="#000000" font-family="sans-serif" font-size="14" font-style="italic" lengthAdjust="spacing" textLength="64" x="1634.5" y="905.5723">&#171;Domain&#187;</text><text fill="#000000" font-family="sans-serif" font-size="14" lengthAdjust="spacing" textLength="48" x="1642.5" y="923.1816">Domain</text><rect fill="#FFFFFF" height="810.8203" style="stroke:#181818;stroke-width:1.0;" width="10" x="62" y="65.2188"/><rect fill="#FFFFFF" height="779.4688" style="stroke:#181818;stroke-width:1.0;" width="10" x="245" y="87.5703"/><rect fill="#FFFFFF" height="718.7656" style="stroke:#181818;stroke-width:1.0;" width="10" x="335" y="117.9219"/><rect fill="#FFFFFF" height="597.8438" style="stroke:#181818;stroke-width:1.0;" width="10" x="629" y="208.4922"/><rect fill="#FFFFFF" height="41.3516" style="stroke:#181818;stroke-width:1.0;" width="10" x="634" y="246.8438"/><rect fill="#FFFFFF" height="41.3516" style="stroke:#181818;stroke-width:1.0;" width="10" x="634" y="454.9531"/><rect fill="#FFFFFF" height="30.3516" style="stroke:#181818;stroke-width:1.0;" width="10" x="1135.5" y="386.25"/><rect fill="#FFFFFF" height="30.3516" style="stroke:#181818;stroke-width:1.0;" width="10" x="1272.5" y="325.5469"/><rect fill="#FFFFFF" height="30.3516" style="stroke:#181818;stroke-width:1.0;" width="10" x="1410.5" y="533.6563"/><rect fill="#FFFFFF" height="30.3516" style="stroke:#181818;stroke-width:1.0;" width="10" x="1548.5" y="745.6328"/><polygon fill="#181818" points="233,83.5703,243,87.5703,233,91.5703,237,87.5703" style="stroke:#181818;stroke-width:1.0;"/><line style="stroke:#181818;stroke-width:1.0;" x1="72" x2="239" y1="87.5703" y2="87.5703"/><text fill="#000000" font-family="sans-serif" font-size="13" lengthAdjust="spacing" textLength="154" x="79" y="82.7139">POST (/api/users/patients)</text><polygon fill="#181818" points="323,113.9219,333,117.9219,323,121.9219,327,117.9219" style="stroke:#181818;stroke-width:1.0;"/><line style="stroke:#181818;stroke-width:1.0;" x1="255" x2="329" y1="117.9219" y2="117.9219"/><text fill="#000000" font-family="sans-serif" font-size="13" lengthAdjust="spacing" textLength="35" x="262" y="113.0654">POST</text><polygon fill="#181818" points="507,144.2734,517,148.2734,507,152.2734,511,148.2734" style="stroke:#181818;stroke-width:1.0;"/><line style="stroke:#181818;stroke-width:1.0;" x1="345" x2="513" y1="148.2734" y2="148.2734"/><text fill="#000000" font-family="sans-serif" font-size="13" lengthAdjust="spacing" textLength="150" x="352" y="143.417">recieves request body info</text><rect fill="#E2E2F0" height="49.2188" rx="2.5" ry="2.5" style="stroke:#181818;stroke-width:0.5;" width="60" x="519" y="125.9219"/><text fill="#000000" font-family="sans-serif" font-size="14" font-style="italic" lengthAdjust="spacing" textLength="46" x="526" y="147.4551">&#171;DTO&#187;</text><text fill="#000000" font-family="sans-serif" font-size="14" lengthAdjust="spacing" textLength="30" x="534" y="165.0645">DTO</text><polygon fill="#181818" points="617,204.4922,627,208.4922,617,212.4922,621,208.4922" style="stroke:#181818;stroke-width:1.0;"/><line style="stroke:#181818;stroke-width:1.0;" x1="345" x2="623" y1="208.4922" y2="208.4922"/><text fill="#000000" font-family="sans-serif" font-size="13" lengthAdjust="spacing" textLength="162" x="352" y="203.6357">register patient's user profile</text><line style="stroke:#181818;stroke-width:1.0;" x1="639" x2="686" y1="233.8438" y2="233.8438"/><line style="stroke:#181818;stroke-width:1.0;" x1="686" x2="686" y1="233.8438" y2="246.8438"/><line style="stroke:#181818;stroke-width:1.0;" x1="645" x2="686" y1="246.8438" y2="246.8438"/><polygon fill="#181818" points="655,242.8438,645,246.8438,655,250.8438,651,246.8438" style="stroke:#181818;stroke-width:1.0;"/><text fill="#000000" font-family="sans-serif" font-size="13" lengthAdjust="spacing" textLength="173" x="651" y="228.9873">validates if the email is unique</text><line style="stroke:#181818;stroke-width:1.0;stroke-dasharray:2.0,2.0;" x1="644" x2="686" y1="287.1953" y2="287.1953"/><line style="stroke:#181818;stroke-width:1.0;stroke-dasharray:2.0,2.0;" x1="686" x2="686" y1="287.1953" y2="300.1953"/><line style="stroke:#181818;stroke-width:1.0;stroke-dasharray:2.0,2.0;" x1="639" x2="686" y1="300.1953" y2="300.1953"/><polygon fill="#181818" points="649,296.1953,639,300.1953,649,304.1953,645,300.1953" style="stroke:#181818;stroke-width:1.0;"/><text fill="#000000" font-family="sans-serif" font-size="13" lengthAdjust="spacing" textLength="20" x="651" y="282.3389">flag</text><polygon fill="#181818" points="1260.5,321.5469,1270.5,325.5469,1260.5,329.5469,1264.5,325.5469" style="stroke:#181818;stroke-width:1.0;"/><line style="stroke:#181818;stroke-width:1.0;" x1="639" x2="1266.5" y1="325.5469" y2="325.5469"/><text fill="#000000" font-family="sans-serif" font-size="13" lengthAdjust="spacing" textLength="207" x="646" y="320.6904">validates if the password is satisfied</text><polygon fill="#181818" points="650,351.8984,640,355.8984,650,359.8984,646,355.8984" style="stroke:#181818;stroke-width:1.0;"/><line style="stroke:#181818;stroke-width:1.0;stroke-dasharray:2.0,2.0;" x1="644" x2="1276.5" y1="355.8984" y2="355.8984"/><text fill="#000000" font-family="sans-serif" font-size="13" lengthAdjust="spacing" textLength="20" x="656" y="351.042">flag</text><polygon fill="#181818" points="1123.5,382.25,1133.5,386.25,1123.5,390.25,1127.5,386.25" style="stroke:#181818;stroke-width:1.0;"/><line style="stroke:#181818;stroke-width:1.0;" x1="639" x2="1129.5" y1="386.25" y2="386.25"/><text fill="#000000" font-family="sans-serif" font-size="13" lengthAdjust="spacing" textLength="328" x="646" y="381.3936">finds patient by name, email, phone number and address</text><polygon fill="#181818" points="650,412.6016,640,416.6016,650,420.6016,646,416.6016" style="stroke:#181818;stroke-width:1.0;"/><line style="stroke:#181818;stroke-width:1.0;stroke-dasharray:2.0,2.0;" x1="644" x2="1139.5" y1="416.6016" y2="416.6016"/><text fill="#000000" font-family="sans-serif" font-size="13" lengthAdjust="spacing" textLength="39" x="656" y="411.7451">patient</text><line style="stroke:#181818;stroke-width:1.0;" x1="639" x2="686" y1="441.9531" y2="441.9531"/><line style="stroke:#181818;stroke-width:1.0;" x1="686" x2="686" y1="441.9531" y2="454.9531"/><line style="stroke:#181818;stroke-width:1.0;" x1="645" x2="686" y1="454.9531" y2="454.9531"/><polygon fill="#181818" points="655,450.9531,645,454.9531,655,458.9531,651,454.9531" style="stroke:#181818;stroke-width:1.0;"/><text fill="#000000" font-family="sans-serif" font-size="13" lengthAdjust="spacing" textLength="254" x="651" y="437.0967">validates the patient has no user associated</text><line style="stroke:#181818;stroke-width:1.0;stroke-dasharray:2.0,2.0;" x1="644" x2="686" y1="495.3047" y2="495.3047"/><line style="stroke:#181818;stroke-width:1.0;stroke-dasharray:2.0,2.0;" x1="686" x2="686" y1="495.3047" y2="508.3047"/><line style="stroke:#181818;stroke-width:1.0;stroke-dasharray:2.0,2.0;" x1="639" x2="686" y1="508.3047" y2="508.3047"/><polygon fill="#181818" points="649,504.3047,639,508.3047,649,512.3047,645,508.3047" style="stroke:#181818;stroke-width:1.0;"/><text fill="#000000" font-family="sans-serif" font-size="13" lengthAdjust="spacing" textLength="20" x="651" y="490.4482">flag</text><polygon fill="#181818" points="1398.5,529.6563,1408.5,533.6563,1398.5,537.6563,1402.5,533.6563" style="stroke:#181818;stroke-width:1.0;"/><line style="stroke:#181818;stroke-width:1.0;" x1="639" x2="1404.5" y1="533.6563" y2="533.6563"/><text fill="#000000" font-family="sans-serif" font-size="13" lengthAdjust="spacing" textLength="109" x="646" y="528.7998">hash the password</text><polygon fill="#181818" points="650,560.0078,640,564.0078,650,568.0078,646,564.0078" style="stroke:#181818;stroke-width:1.0;"/><line style="stroke:#181818;stroke-width:1.0;stroke-dasharray:2.0,2.0;" x1="644" x2="1414.5" y1="564.0078" y2="564.0078"/><text fill="#000000" font-family="sans-serif" font-size="13" lengthAdjust="spacing" textLength="85" x="656" y="559.1514">passwordHash</text><polygon fill="#181818" points="1615.5,590.3594,1625.5,594.3594,1615.5,598.3594,1619.5,594.3594" style="stroke:#181818;stroke-width:1.0;"/><line style="stroke:#181818;stroke-width:1.0;" x1="639" x2="1621.5" y1="594.3594" y2="594.3594"/><text fill="#000000" font-family="sans-serif" font-size="13" lengthAdjust="spacing" textLength="256" x="646" y="589.5029">creates patient user with the email and hash</text><rect fill="#E2E2F0" height="49.2188" rx="2.5" ry="2.5" style="stroke:#181818;stroke-width:0.5;" width="78" x="1627.5" y="572.0078"/><text fill="#000000" font-family="sans-serif" font-size="14" font-style="italic" lengthAdjust="spacing" textLength="64" x="1634.5" y="593.541">&#171;Domain&#187;</text><text fill="#000000" font-family="sans-serif" font-size="14" lengthAdjust="spacing" textLength="48" x="1642.5" y="611.1504">Domain</text><polygon fill="#181818" points="1654.5,650.5781,1664.5,654.5781,1654.5,658.5781,1658.5,654.5781" style="stroke:#181818;stroke-width:1.0;"/><line style="stroke:#181818;stroke-width:1.0;" x1="639" x2="1660.5" y1="654.5781" y2="654.5781"/><text fill="#000000" font-family="sans-serif" font-size="13" lengthAdjust="spacing" textLength="157" x="646" y="649.7217">sets the confirmation token</text><polygon fill="#181818" points="1006.5,680.9297,1016.5,684.9297,1006.5,688.9297,1010.5,684.9297" style="stroke:#181818;stroke-width:1.0;"/><line style="stroke:#181818;stroke-width:1.0;" x1="639" x2="1012.5" y1="684.9297" y2="684.9297"/><text fill="#000000" font-family="sans-serif" font-size="13" lengthAdjust="spacing" textLength="98" x="646" y="680.0732">saves user in DB</text><polygon fill="#181818" points="900,711.2813,910,715.2813,900,719.2813,904,715.2813" style="stroke:#181818;stroke-width:1.0;"/><line style="stroke:#181818;stroke-width:1.0;" x1="639" x2="906" y1="715.2813" y2="715.2813"/><text fill="#000000" font-family="sans-serif" font-size="13" lengthAdjust="spacing" textLength="144" x="646" y="710.4248">sends confirmation email</text><polygon fill="#181818" points="1536.5,741.6328,1546.5,745.6328,1536.5,749.6328,1540.5,745.6328" style="stroke:#181818;stroke-width:1.0;"/><line style="stroke:#181818;stroke-width:1.0;" x1="639" x2="1542.5" y1="745.6328" y2="745.6328"/><text fill="#000000" font-family="sans-serif" font-size="13" lengthAdjust="spacing" textLength="77" x="646" y="740.7764">entity to DTO</text><polygon fill="#181818" points="650,771.9844,640,775.9844,650,779.9844,646,775.9844" style="stroke:#181818;stroke-width:1.0;"/><line style="stroke:#181818;stroke-width:1.0;stroke-dasharray:2.0,2.0;" x1="644" x2="1552.5" y1="775.9844" y2="775.9844"/><text fill="#000000" font-family="sans-serif" font-size="13" lengthAdjust="spacing" textLength="26" x="656" y="771.1279">DTO</text><polygon fill="#181818" points="356,802.3359,346,806.3359,356,810.3359,352,806.3359" style="stroke:#181818;stroke-width:1.0;"/><line style="stroke:#181818;stroke-width:1.0;stroke-dasharray:2.0,2.0;" x1="350" x2="633" y1="806.3359" y2="806.3359"/><text fill="#000000" font-family="sans-serif" font-size="13" lengthAdjust="spacing" textLength="26" x="362" y="801.4795">DTO</text><polygon fill="#181818" points="266,832.6875,256,836.6875,266,840.6875,262,836.6875" style="stroke:#181818;stroke-width:1.0;"/><line style="stroke:#181818;stroke-width:1.0;stroke-dasharray:2.0,2.0;" x1="260" x2="339" y1="836.6875" y2="836.6875"/><text fill="#000000" font-family="sans-serif" font-size="13" lengthAdjust="spacing" textLength="53" x="272" y="831.8311">response</text><polygon fill="#181818" points="83,863.0391,73,867.0391,83,871.0391,79,867.0391" style="stroke:#181818;stroke-width:1.0;"/><line style="stroke:#181818;stroke-width:1.0;stroke-dasharray:2.0,2.0;" x1="77" x2="249" y1="867.0391" y2="867.0391"/><text fill="#000000" font-family="sans-serif" font-size="13" lengthAdjust="spacing" textLength="53" x="89" y="862.1826">response</text><!--SRC=[ZLJBRjim4BphA_RM94ZXIq-6OA1D7FHIn8ZJ3w2bLRIeJB8axS1_twMMgYZPWNEnbkBCx6jagroWYgpI0RQRxw0yFAsXB1-C3eeqEhXv-7QxMXKs0xwOGy08bQ0i- -SC51MSwJgMO6Hs4d4vp3YFhyyH71zboR-pwzyUtHRTaQe- -n2MPOfcyFLUKPVX9-UFI2zeZQTWtAblS3nnb_yFCyv61K8TfjJpbrC5c4bu_svSlJ4TLSANYETWk6uDbyiTU3-LRsNIARh2-wMi5NoAhk3JPLoEH0EUSQeAT5HiXATrmURvkX9VB67pl7s5cuMoj3Zmwlp2oapyxSZfeOKOYPcPJuG_8iUh8aCnXuroTyTmXnNX4Jq7Vm_e0-nCVGBIZPaH1Wz4oXlvm6zJPLyyn4h1EjDGXsFoH2a6waJbg3gg6UM16WWj0aQd0R6O9YxbNCPXE3WDJQVUSicqymkADkqvYdgkrJU4zQWhn0zbpwouX8PqxOUsONS2hVPuBvNVWssDHj27_IwQHDUWwjgXzrd6kUQGF4bUcvGq9TbRjfKsCddkqrJ4aFhJKqkENqQTTZAjKK8mOutZLvChYQLxCrKE-pg76llYtYcqsOBZODgB4YpWCKYNbT4DkJth60t1_46TuoTByIhQjq_56ey_Sk3atolAn_rDjFkYSahwj9V03L0uSVBuhOn3aVjXAF7gFEIjMwCzdfrhd7t3nJy0]--></g></svg>