<?xml version="1.0" encoding="us-ascii" standalone="no"?><svg xmlns="http://www.w3.org/2000/svg" xmlns:xlink="http://www.w3.org/1999/xlink" contentStyleType="text/css" height="569px" preserveAspectRatio="none" style="width:1221px;height:569px;background:#FFFFFF;" version="1.1" viewBox="0 0 1221 569" width="1221px" zoomAndPan="magnify"><defs/><g><rect fill="#FFFFFF" height="440.7891" style="stroke:#181818;stroke-width:1.0;" width="10" x="51.5" y="65.2188"/><rect fill="#FFFFFF" height="409.4375" style="stroke:#181818;stroke-width:1.0;" width="10" x="251.5" y="87.5703"/><rect fill="#FFFFFF" height="30.3516" style="stroke:#181818;stroke-width:1.0;" width="10" x="515" y="405.9531"/><rect fill="#FFFFFF" height="288.5156" style="stroke:#181818;stroke-width:1.0;" width="10" x="691" y="178.1406"/><rect fill="#FFFFFF" height="167.1094" style="stroke:#181818;stroke-width:1.0;" width="10" x="804" y="208.4922"/><rect fill="#FFFFFF" height="106.4063" style="stroke:#181818;stroke-width:1.0;" width="10" x="1033" y="238.8438"/><line style="stroke:#181818;stroke-width:0.5;stroke-dasharray:5.0,5.0;" x1="56" x2="56" y1="55.2188" y2="515.0078"/><line style="stroke:#181818;stroke-width:0.5;stroke-dasharray:5.0,5.0;" x1="256" x2="256" y1="55.2188" y2="515.0078"/><line style="stroke:#181818;stroke-width:0.5;stroke-dasharray:5.0,5.0;" x1="519.5" x2="519.5" y1="135.6797" y2="515.0078"/><line style="stroke:#181818;stroke-width:0.5;stroke-dasharray:5.0,5.0;" x1="695.5" x2="695.5" y1="55.2188" y2="515.0078"/><line style="stroke:#181818;stroke-width:0.5;stroke-dasharray:5.0,5.0;" x1="808.5" x2="808.5" y1="55.2188" y2="515.0078"/><line style="stroke:#181818;stroke-width:0.5;stroke-dasharray:5.0,5.0;" x1="1038" x2="1038" y1="55.2188" y2="515.0078"/><rect fill="#E2E2F0" height="49.2188" rx="2.5" ry="2.5" style="stroke:#181818;stroke-width:0.5;" width="103" x="5" y="5"/><text fill="#000000" font-family="sans-serif" font-size="14" font-style="italic" lengthAdjust="spacing" textLength="89" x="12" y="26.5332">&#171;Component&#187;</text><text fill="#000000" font-family="sans-serif" font-size="14" lengthAdjust="spacing" textLength="29" x="42" y="44.1426">View</text><rect fill="#E2E2F0" height="49.2188" rx="2.5" ry="2.5" style="stroke:#181818;stroke-width:0.5;" width="103" x="5" y="514.0078"/><text fill="#000000" font-family="sans-serif" font-size="14" font-style="italic" lengthAdjust="spacing" textLength="89" x="12" y="535.541">&#171;Component&#187;</text><text fill="#000000" font-family="sans-serif" font-size="14" lengthAdjust="spacing" textLength="29" x="42" y="553.1504">View</text><rect fill="#E2E2F0" height="49.2188" rx="2.5" ry="2.5" style="stroke:#181818;stroke-width:0.5;" width="103" x="205" y="5"/><text fill="#000000" font-family="sans-serif" font-size="14" font-style="italic" lengthAdjust="spacing" textLength="89" x="212" y="26.5332">&#171;Component&#187;</text><text fill="#000000" font-family="sans-serif" font-size="14" lengthAdjust="spacing" textLength="73" x="220" y="44.1426">Component</text><rect fill="#E2E2F0" height="49.2188" rx="2.5" ry="2.5" style="stroke:#181818;stroke-width:0.5;" width="103" x="205" y="514.0078"/><text fill="#000000" font-family="sans-serif" font-size="14" font-style="italic" lengthAdjust="spacing" textLength="89" x="212" y="535.541">&#171;Component&#187;</text><text fill="#000000" font-family="sans-serif" font-size="14" lengthAdjust="spacing" textLength="73" x="220" y="553.1504">Component</text><rect fill="#E2E2F0" height="49.2188" rx="2.5" ry="2.5" style="stroke:#181818;stroke-width:0.5;" width="103" x="468.5" y="514.0078"/><text fill="#000000" font-family="sans-serif" font-size="14" font-style="italic" lengthAdjust="spacing" textLength="89" x="475.5" y="535.541">&#171;Component&#187;</text><text fill="#000000" font-family="sans-serif" font-size="14" lengthAdjust="spacing" textLength="38" x="501" y="553.1504">Model</text><rect fill="#E2E2F0" height="49.2188" rx="2.5" ry="2.5" style="stroke:#181818;stroke-width:0.5;" width="103" x="644.5" y="5"/><text fill="#000000" font-family="sans-serif" font-size="14" font-style="italic" lengthAdjust="spacing" textLength="89" x="651.5" y="26.5332">&#171;Component&#187;</text><text fill="#000000" font-family="sans-serif" font-size="14" lengthAdjust="spacing" textLength="47" x="672.5" y="44.1426">Service</text><rect fill="#E2E2F0" height="49.2188" rx="2.5" ry="2.5" style="stroke:#181818;stroke-width:0.5;" width="103" x="644.5" y="514.0078"/><text fill="#000000" font-family="sans-serif" font-size="14" font-style="italic" lengthAdjust="spacing" textLength="89" x="651.5" y="535.541">&#171;Component&#187;</text><text fill="#000000" font-family="sans-serif" font-size="14" lengthAdjust="spacing" textLength="47" x="672.5" y="553.1504">Service</text><rect fill="#E2E2F0" height="49.2188" rx="2.5" ry="2.5" style="stroke:#181818;stroke-width:0.5;" width="103" x="757.5" y="5"/><text fill="#000000" font-family="sans-serif" font-size="14" font-style="italic" lengthAdjust="spacing" textLength="89" x="764.5" y="26.5332">&#171;Component&#187;</text><text fill="#000000" font-family="sans-serif" font-size="14" lengthAdjust="spacing" textLength="74" x="772" y="44.1426">HTTPDriver</text><rect fill="#E2E2F0" height="49.2188" rx="2.5" ry="2.5" style="stroke:#181818;stroke-width:0.5;" width="103" x="757.5" y="514.0078"/><text fill="#000000" font-family="sans-serif" font-size="14" font-style="italic" lengthAdjust="spacing" textLength="89" x="764.5" y="535.541">&#171;Component&#187;</text><text fill="#000000" font-family="sans-serif" font-size="14" lengthAdjust="spacing" textLength="74" x="772" y="553.1504">HTTPDriver</text><rect fill="#E2E2F0" height="49.2188" rx="2.5" ry="2.5" style="stroke:#181818;stroke-width:0.5;" width="124" x="976" y="5"/><text fill="#000000" font-family="sans-serif" font-size="14" font-style="italic" lengthAdjust="spacing" textLength="110" x="983" y="26.5332">&#171;Container (C4)&#187;</text><text fill="#000000" font-family="sans-serif" font-size="14" lengthAdjust="spacing" textLength="80" x="998" y="44.1426">MastersData</text><rect fill="#E2E2F0" height="49.2188" rx="2.5" ry="2.5" style="stroke:#181818;stroke-width:0.5;" width="124" x="976" y="514.0078"/><text fill="#000000" font-family="sans-serif" font-size="14" font-style="italic" lengthAdjust="spacing" textLength="110" x="983" y="535.541">&#171;Container (C4)&#187;</text><text fill="#000000" font-family="sans-serif" font-size="14" lengthAdjust="spacing" textLength="80" x="998" y="553.1504">MastersData</text><rect fill="#FFFFFF" height="440.7891" style="stroke:#181818;stroke-width:1.0;" width="10" x="51.5" y="65.2188"/><rect fill="#FFFFFF" height="409.4375" style="stroke:#181818;stroke-width:1.0;" width="10" x="251.5" y="87.5703"/><rect fill="#FFFFFF" height="30.3516" style="stroke:#181818;stroke-width:1.0;" width="10" x="515" y="405.9531"/><rect fill="#FFFFFF" height="288.5156" style="stroke:#181818;stroke-width:1.0;" width="10" x="691" y="178.1406"/><rect fill="#FFFFFF" height="167.1094" style="stroke:#181818;stroke-width:1.0;" width="10" x="804" y="208.4922"/><rect fill="#FFFFFF" height="106.4063" style="stroke:#181818;stroke-width:1.0;" width="10" x="1033" y="238.8438"/><polygon fill="#181818" points="239.5,83.5703,249.5,87.5703,239.5,91.5703,243.5,87.5703" style="stroke:#181818;stroke-width:1.0;"/><line style="stroke:#181818;stroke-width:1.0;" x1="61.5" x2="245.5" y1="87.5703" y2="87.5703"/><text fill="#000000" font-family="sans-serif" font-size="13" lengthAdjust="spacing" textLength="171" x="68.5" y="82.7139">redirect the confirmation page</text><polygon fill="#181818" points="456.5,113.9219,466.5,117.9219,456.5,121.9219,460.5,117.9219" style="stroke:#181818;stroke-width:1.0;"/><line style="stroke:#181818;stroke-width:1.0;" x1="261.5" x2="462.5" y1="117.9219" y2="117.9219"/><text fill="#000000" font-family="sans-serif" font-size="13" lengthAdjust="spacing" textLength="183" x="268.5" y="113.0654">get the email and token in route</text><rect fill="#E2E2F0" height="49.2188" rx="2.5" ry="2.5" style="stroke:#181818;stroke-width:0.5;" width="103" x="468.5" y="95.5703"/><text fill="#000000" font-family="sans-serif" font-size="14" font-style="italic" lengthAdjust="spacing" textLength="89" x="475.5" y="117.1035">&#171;Component&#187;</text><text fill="#000000" font-family="sans-serif" font-size="14" lengthAdjust="spacing" textLength="38" x="501" y="134.7129">Model</text><polygon fill="#181818" points="679,174.1406,689,178.1406,679,182.1406,683,178.1406" style="stroke:#181818;stroke-width:1.0;"/><line style="stroke:#181818;stroke-width:1.0;" x1="261.5" x2="685" y1="178.1406" y2="178.1406"/><text fill="#000000" font-family="sans-serif" font-size="13" lengthAdjust="spacing" textLength="267" x="268.5" y="173.2842">confirm the registration of the new patient user</text><polygon fill="#181818" points="792,204.4922,802,208.4922,792,212.4922,796,208.4922" style="stroke:#181818;stroke-width:1.0;"/><line style="stroke:#181818;stroke-width:1.0;" x1="701" x2="798" y1="208.4922" y2="208.4922"/><text fill="#000000" font-family="sans-serif" font-size="13" lengthAdjust="spacing" textLength="35" x="708" y="203.6357">POST</text><polygon fill="#181818" points="1021,234.8438,1031,238.8438,1021,242.8438,1025,238.8438" style="stroke:#181818;stroke-width:1.0;"/><line style="stroke:#181818;stroke-width:1.0;" x1="814" x2="1027" y1="238.8438" y2="238.8438"/><text fill="#000000" font-family="sans-serif" font-size="13" lengthAdjust="spacing" textLength="200" x="821" y="233.9873">POST (/api/users/patients/confirm)</text><line style="stroke:#181818;stroke-width:1.0;" x1="1043" x2="1085" y1="301.8984" y2="301.8984"/><line style="stroke:#181818;stroke-width:1.0;" x1="1085" x2="1085" y1="301.8984" y2="314.8984"/><line style="stroke:#181818;stroke-width:1.0;" x1="1044" x2="1085" y1="314.8984" y2="314.8984"/><polygon fill="#181818" points="1054,310.8984,1044,314.8984,1054,318.8984,1050,314.8984" style="stroke:#181818;stroke-width:1.0;"/><text fill="#000000" font-family="sans-serif" font-size="13" lengthAdjust="spacing" textLength="134" x="1050" y="264.3389">validates all information</text><text fill="#000000" font-family="sans-serif" font-size="13" lengthAdjust="spacing" textLength="164" x="1050" y="280.6904">and confirms the registration</text><text fill="#000000" font-family="sans-serif" font-size="13" lengthAdjust="spacing" textLength="131" x="1050" y="297.042">of the new patient user</text><polygon fill="#181818" points="825,341.25,815,345.25,825,349.25,821,345.25" style="stroke:#181818;stroke-width:1.0;"/><line style="stroke:#181818;stroke-width:1.0;stroke-dasharray:2.0,2.0;" x1="819" x2="1037" y1="345.25" y2="345.25"/><text fill="#000000" font-family="sans-serif" font-size="13" lengthAdjust="spacing" textLength="53" x="831" y="340.3936">response</text><polygon fill="#181818" points="712,371.6016,702,375.6016,712,379.6016,708,375.6016" style="stroke:#181818;stroke-width:1.0;"/><line style="stroke:#181818;stroke-width:1.0;stroke-dasharray:2.0,2.0;" x1="706" x2="808" y1="375.6016" y2="375.6016"/><text fill="#000000" font-family="sans-serif" font-size="13" lengthAdjust="spacing" textLength="53" x="718" y="370.7451">response</text><polygon fill="#181818" points="536,401.9531,526,405.9531,536,409.9531,532,405.9531" style="stroke:#181818;stroke-width:1.0;"/><line style="stroke:#181818;stroke-width:1.0;" x1="530" x2="690" y1="405.9531" y2="405.9531"/><text fill="#000000" font-family="sans-serif" font-size="13" lengthAdjust="spacing" textLength="147" x="542" y="401.0967">transforms response data</text><polygon fill="#181818" points="679,432.3047,689,436.3047,679,440.3047,683,436.3047" style="stroke:#181818;stroke-width:1.0;"/><line style="stroke:#181818;stroke-width:1.0;stroke-dasharray:2.0,2.0;" x1="520" x2="685" y1="436.3047" y2="436.3047"/><text fill="#000000" font-family="sans-serif" font-size="13" lengthAdjust="spacing" textLength="25" x="527" y="431.4482">user</text><polygon fill="#181818" points="272.5,462.6563,262.5,466.6563,272.5,470.6563,268.5,466.6563" style="stroke:#181818;stroke-width:1.0;"/><line style="stroke:#181818;stroke-width:1.0;stroke-dasharray:2.0,2.0;" x1="266.5" x2="695" y1="466.6563" y2="466.6563"/><text fill="#000000" font-family="sans-serif" font-size="13" lengthAdjust="spacing" textLength="25" x="278.5" y="461.7998">user</text><polygon fill="#181818" points="72.5,493.0078,62.5,497.0078,72.5,501.0078,68.5,497.0078" style="stroke:#181818;stroke-width:1.0;"/><line style="stroke:#181818;stroke-width:1.0;stroke-dasharray:2.0,2.0;" x1="66.5" x2="255.5" y1="497.0078" y2="497.0078"/><text fill="#000000" font-family="sans-serif" font-size="13" lengthAdjust="spacing" textLength="126" x="78.5" y="492.1514">success/fail message</text><!--SRC=[VP5DRuCm38Rl_0eVsqeJbvrGrKC_f5scLMgrKoyMc2uQ954SsD-V4w1XgjW9sxolFvvOT5wLogBsyAde1v27xtPxCAqrchJVxJ8xaptgGPkIPSExgQW9uY5O5bx8zQga89t2PV7RzNe-EjMJ2_fPziyYo9uS7z5ZyEnFKQizAYs-rU5rBOOCIwzwz1GvP176oouTMe2ZIZagFVWlWjBeMhaMlJ8QBDuf-H-MB56IJf72PbF0dOOMrA8IFhe2Rxv9WzBWJEVfhsqaKamJezNHNR5tmtHJnvgMXQrKWgzZSccXiKKsmPMkYLi1vu_BDOdJdsm6Lopxqo25LOvMvM44v-D0piVjrgdH_fG9wT7OOwCggJ9WqyYbjHdPtNG0CBhvwRYRNhhEaU-S42CMLanF-UpOIBu0QQav3EQ72cGdJ2j7uTHfFcKUSrUMn9pNuVLQYSBZ_m80]--></g></svg>